<svg xmlns="http://www.w3.org/2000/svg" width="179.946" height="189.475" viewBox="0 0 179.946 189.475">
  <g id="Grupo_118030" data-name="Grupo 118030" transform="translate(-343.112 -56.9)">
    <path id="Trazado_170543" data-name="Trazado 170543" d="M452.646,154.032,405,181.475l12.915,8.227-2.173,4.983h9.594l48.721-28.146Z" transform="translate(23.593 37.03)" fill="#eaecff" style="mix-blend-mode: multiply;isolation: isolate"/>
    <path id="Trazado_170544" data-name="Trazado 170544" d="M386.71,174.306l-24.17,14.1,12.915,8.227-2.173,4.983h9.594l25.243-14.8Z" transform="translate(7.407 44.76)" fill="#eaecff" style="mix-blend-mode: multiply;isolation: isolate"/>
    <g id="Grupo_118029" data-name="Grupo 118029" transform="translate(343.112 56.9)">
      <g id="Grupo_118007" data-name="Grupo 118007" transform="translate(53.801 74.668)">
        <path id="Trazado_170545" data-name="Trazado 170545" d="M401.243,167.21a2.692,2.692,0,0,1-1.351-.366l-9.485-5.477a4.756,4.756,0,0,1-2.372-4.108V135.867h1.325V157.26a3.429,3.429,0,0,0,1.709,2.961l9.485,5.475a1.379,1.379,0,0,0,2.068-1.193V146.758h1.325V164.5a2.711,2.711,0,0,1-2.7,2.707Z" transform="translate(-379.786 -101.463)" fill="#292d4c"/>
        <path id="Trazado_170546" data-name="Trazado 170546" d="M415.551,158.036a2.693,2.693,0,0,1-1.351-.367l-9.485-5.475a4.758,4.758,0,0,1-2.372-4.108V130.3h1.325v17.788a3.427,3.427,0,0,0,1.71,2.96l9.485,5.477a1.379,1.379,0,0,0,2.066-1.193V140.306h1.325v15.022a2.715,2.715,0,0,1-2.7,2.707Z" transform="translate(-374.332 -103.586)" fill="#5d5d75"/>
        <g id="Grupo_118006" data-name="Grupo 118006">
          <path id="Trazado_170547" data-name="Trazado 170547" d="M426.649,141.958l-10.59-4.272a17.534,17.534,0,0,1-6.622-6.779l-9.113-16.674a2.982,2.982,0,0,0-4.355-1.747l-11.814,5.59c-1.576.91-2.628,2.733-1.8,5.706l4.253,18.625a17.549,17.549,0,0,0,6.92,10.38l8.894,6.337a6.943,6.943,0,0,0,6.927.011l17.294-9.848A4.329,4.329,0,0,0,426.649,141.958Z" transform="translate(-382.063 -110.53)" fill="#292d4c"/>
          <path id="Trazado_170548" data-name="Trazado 170548" d="M426.474,142.386l-10.093-5.826a17.534,17.534,0,0,1-6.622-6.779l-9.113-16.674a2.983,2.983,0,0,0-4.355-1.747l-11.778,6.774a3.978,3.978,0,0,0-1.84,4.522l4.253,18.625a17.539,17.539,0,0,0,6.92,10.38L402.74,158a6.946,6.946,0,0,0,6.927.01l16.8-9.6A3.473,3.473,0,0,0,426.474,142.386Z" transform="translate(-381.888 -110.959)" fill="#3f4a7a"/>
        </g>
      </g>
      <g id="Grupo_118014" data-name="Grupo 118014" transform="translate(135.177 71.288)">
        <path id="Trazado_170549" data-name="Trazado 170549" d="M469.112,188.536a28.058,28.058,0,0,1-10.531,1.913c-5.856,0-11.363-1.554-14.731-4.156-1.457-1.127-3.133-2.928-2.838-5.112.305-2.253,2.688-4.5,6.374-6.013a28.058,28.058,0,0,1,10.531-1.913c5.856,0,11.363,1.554,14.731,4.156,1.459,1.127,3.134,2.928,2.838,5.112C475.183,184.776,472.8,187.023,469.112,188.536Z" transform="translate(-440.978 -83.829)" fill="#eaecff" style="mix-blend-mode: multiply;isolation: isolate"/>
        <g id="Grupo_118013" data-name="Grupo 118013" transform="translate(8.466)">
          <g id="Grupo_118008" data-name="Grupo 118008" transform="translate(1.182 47.473)">
            <path id="Trazado_170550" data-name="Trazado 170550" d="M461.1,190.136c.32.348.953.953.544,1.378-1.068,1.123-2.953.816-6.037-1.423-.376-.272-.932-.185-1.537-.507a2.263,2.263,0,0,1-1.133-1.253,1.283,1.283,0,0,1-.061-.823,3.16,3.16,0,0,1,.246-.746,1.578,1.578,0,0,0,.081-.24,8.406,8.406,0,0,0,.262-1.924s.037-18.178,1.71-25.18l-1.466-15.05,8.915-1.488-1.166,16.767s-4.839,24.177-4.925,25.469c-.1,1.51,2.157,3.216,3.547,4.235A11.006,11.006,0,0,1,461.1,190.136Z" transform="translate(-446.104 -142.881)" fill="#f8afac"/>
            <path id="Trazado_170551" data-name="Trazado 170551" d="M448.692,144.654l2.2,15.526-.144,2.525c-2.489,7.851-1.646,19.083-1.582,24.546.026,2.169-1.2,3.467-1.2,6.56,0,1.572.691,3.285,2.669,3.246s1.7-5.167,1.177-8.174a3.152,3.152,0,0,1,.021-1.188l4.539-22.167.867-1.695a5.062,5.062,0,0,0,.319-1.769V144.182Z" transform="translate(-447.961 -142.385)" fill="#fec7c4"/>
            <path id="Trazado_170552" data-name="Trazado 170552" d="M452.142,178.543s.157,2.4-2.01,2.4c-1.633,0-2.022-1.214-1.86-2.655a7.981,7.981,0,0,0-.073,4.084,2.267,2.267,0,0,0,2.537,1.732,1.168,1.168,0,0,0,1.262-.981A11.241,11.241,0,0,0,452.142,178.543Z" transform="translate(-447.964 -129.381)" fill="#292d4c"/>
            <path id="Trazado_170553" data-name="Trazado 170553" d="M461.648,179.469c-1.068,1.123-2.953.816-6.037-1.423-.376-.272-.932-.185-1.537-.507a2.263,2.263,0,0,1-1.133-1.253,1.283,1.283,0,0,1-.061-.823,3.16,3.16,0,0,1,.246-.746,1.578,1.578,0,0,0,.081-.24c.251,1.434,5.334,4.054,6.256,4.076.888.017,1.079-.664.6-1.253a10.408,10.408,0,0,1,1.036.79C461.424,178.438,462.057,179.043,461.648,179.469Z" transform="translate(-446.104 -130.835)" fill="#292d4c"/>
          </g>
          <g id="Grupo_118012" data-name="Grupo 118012">
            <g id="Grupo_118010" data-name="Grupo 118010">
              <path id="Trazado_170554" data-name="Trazado 170554" d="M461.054,119.817c-.186-4.543-2.188-8.149-4.47-8.055a2.321,2.321,0,0,0-1.2.412c-.831-1.746-2.007-2.83-3.269-2.779-2.283.094-3.983,3.851-3.8,8.392,0,.094.012.185.018.279l.412,10.254a2.457,2.457,0,0,0,3.656,2.041l6.663-3.742a4.136,4.136,0,0,0,2.109-3.776l-.112-2.749C461.062,120,461.057,119.911,461.054,119.817Z" transform="translate(-446.651 -108.175)" fill="#343b65"/>
              <path id="Trazado_170555" data-name="Trazado 170555" d="M465.233,140.912c-.2,6.9-.481,17.984-.481,17.984-.28,3.276-13.87,5.218-15.539,1.459l-.731-8.839c-.54-3.073-1.014-9.34.91-13.377l.305-.54a7.721,7.721,0,0,0,.883-2.6l1.286-.113.327-.033.222-.017.327-.028,10.637-.942a5.322,5.322,0,0,0,.414,1.04A11.813,11.813,0,0,1,465.233,140.912Z" transform="translate(-446.765 -98.845)" fill="#5278ff"/>
              <path id="Trazado_170556" data-name="Trazado 170556" d="M471.823,138.586c-2.866.229-10.013.72-12.257-1.355-.99-.914-2.751-13.725-2.751-13.725a.709.709,0,0,1,.561-.848l2.96-.559a.707.707,0,0,1,.83.577c.268,1.6,1.365,8.932,1.635,10.782a1,1,0,0,0,.815.845c2.065.38,5.336,1.261,8.786,1.894,1.548.285,4.622-3.758,5.135-2.271,0,0,2.912,1.564,1.275,3.475a6.782,6.782,0,0,1-2.995,1.3C474.323,138.6,472.21,138.554,471.823,138.586Z" transform="translate(-443.413 -103.336)" fill="#fcbac0"/>
              <path id="Trazado_170557" data-name="Trazado 170557" d="M463.245,137.868c-.019.227.007.731.007.756.094.717,1.7,2.1,1.2,2.768-2.3,3.033-8.413,2.928-11.781,2.507a23.188,23.188,0,0,1-2.934-.541,7.575,7.575,0,0,0,.938-3.077c.012-.17.026-.334.026-.5v-.145a8.129,8.129,0,0,0-.145-1.416c-.037-.189-.283-1.051-.377-1.291l-2.934-9.184c0-3.141,1.587-4.495,4.224-6.1q.406-.255.849-.51l4.086-2.361c.2-.1,1.738.743,1.939.662a5.534,5.534,0,0,1,1.467-.4,4.347,4.347,0,0,1,5.118,4.651l-.209,1.757a6.153,6.153,0,0,0,.283,2.9,4.286,4.286,0,0,1-1.189,4.7S463.252,137.8,463.245,137.868Z" transform="translate(-447.056 -104.604)" fill="#435291"/>
              <path id="Trazado_170558" data-name="Trazado 170558" d="M452.41,122.537a5.882,5.882,0,0,0,4.641-.32c1.1-.715.807-1.732-.656-2.271a5.888,5.888,0,0,0-4.641.32C450.653,120.982,450.947,122,452.41,122.537Z" transform="translate(-445.59 -104.276)" fill="#fcbac0"/>
              <path id="Trazado_170559" data-name="Trazado 170559" d="M452.382,126.248l-2.37,9.112a7.661,7.661,0,0,1,.141,1.452c-.047-.014-.1-.022-.142-.036v.112a7.69,7.69,0,0,1-.963,3.615,23.188,23.188,0,0,0,2.934.541c.065-1,.18-2.057.256-3.17.014-.207.029-.413.039-.624C452.3,136.723,453.106,129.475,452.382,126.248Z" transform="translate(-446.368 -101.749)" fill="#343b65"/>
              <path id="Trazado_170560" data-name="Trazado 170560" d="M452.448,156.821l-.42-2.124a2.716,2.716,0,0,0-.305-.819l-.286-.5a3.465,3.465,0,0,1-.456-1.819l.34-11.953c-.01-.467.975-9.721,1.1-11.445a.773.773,0,0,0-.731-.83l-3.287-.175a.773.773,0,0,0-.815.754l-.343,10.647a8.455,8.455,0,0,0,.036,1.106l1.239,12.946a19.833,19.833,0,0,0-.218,3.414l-.141,2.678a.376.376,0,0,0,.338.409.394.394,0,0,0,.264-.058c.191.482.439.8.756.872,1.175.261,1.528-3.928,1.528-3.928s.333.863.425,1.157a.6.6,0,0,0,.623.441C452.6,157.535,452.546,157.048,452.448,156.821Z" transform="translate(-447.055 -101.404)" fill="#fcbac0"/>
              <path id="Trazado_170561" data-name="Trazado 170561" d="M447.289,125.742l-.18,6.351c-.122,1.63,5.221,2.157,5.37.794l1.366-9.917Z" transform="translate(-447.108 -102.999)" fill="#435291"/>
              <g id="Grupo_118009" data-name="Grupo 118009" transform="translate(4.301 2.154)">
                <path id="Trazado_170562" data-name="Trazado 170562" d="M456.369,115.054v7.323c0,.343-.316.671-.9.883a4,4,0,0,1-3.162-.211.833.833,0,0,1-.448-.671l-.014-7.323Z" transform="translate(-449.6 -108.171)" fill="#fcbac0"/>
                <path id="Trazado_170563" data-name="Trazado 170563" d="M456.372,115.4v5.064a1.225,1.225,0,0,1-1.727,1.126,7.082,7.082,0,0,1-2.275-1.772,2.151,2.151,0,0,1-.519-1.41V115.4Z" transform="translate(-449.6 -108.04)" fill="#ed8b8b"/>
                <path id="Trazado_170564" data-name="Trazado 170564" d="M459.9,119.486c-.848,3.659-3.305,3.939-5.572,2.765a8.323,8.323,0,0,1-4.1-6.569c-.137-3.361,2.037-5.49,4.823-5.605C461.4,109.817,460.2,118.219,459.9,119.486Z" transform="translate(-450.222 -110.071)" fill="#fcbac0"/>
              </g>
              <path id="Trazado_170565" data-name="Trazado 170565" d="M450.531,110.215c2.89-2.459,7.439-2.047,9.217-.1a2,2,0,0,1,.467,1.721,6.893,6.893,0,0,1,.464,4.035,11.945,11.945,0,0,0-.514-2.287,2.5,2.5,0,0,1-1.175.461c-2.239.4-6.286-.436-5.883,3.873a2.4,2.4,0,0,1-.815-.685c-.351-.448-1.387-.7-1.49-.38-.271.843,1.7,4.419,1.7,4.419C447.731,119.192,448.088,112.294,450.531,110.215Z" transform="translate(-446.471 -108.511)" fill="#343b65"/>
              <path id="Trazado_170566" data-name="Trazado 170566" d="M452.132,115.254c.588.772.659,1.709.157,2.091s-1.385.066-1.974-.706-.659-1.709-.157-2.091S451.544,114.482,452.132,115.254Z" transform="translate(-446.072 -106.272)" fill="#fcbac0"/>
            </g>
            <g id="Grupo_118011" data-name="Grupo 118011" transform="translate(22.242 23.527)">
              <path id="Trazado_170567" data-name="Trazado 170567" d="M475.535,125.661l-8.4,4.85a2.241,2.241,0,0,0-.794,1.373c-.8,2.945-3.108,11.8-3.108,11.8-.213.993,1.087,1.454,1.652,1.126l8.021-5.285a1.586,1.586,0,0,0,.789-1.372l3.559-11.5A1.241,1.241,0,0,0,475.535,125.661Z" transform="translate(-463.21 -125.545)" fill="#a0ace2"/>
              <path id="Trazado_170568" data-name="Trazado 170568" d="M475.9,125.9l-8.4,4.85a2.245,2.245,0,0,0-.793,1.373c-.8,2.945-3.108,11.8-3.108,11.8-.138.631.707,1.059,1.272.732l8.151-4.746a2.542,2.542,0,0,0,1.039-1.517c.793-2.935,2.239-8.4,3.035-11.4A.887.887,0,0,0,475.9,125.9Z" transform="translate(-463.068 -125.444)" fill="#eaecff"/>
            </g>
            <path id="Trazado_170569" data-name="Trazado 170569" d="M472.923,130.941l-1.425.862a2,2,0,0,0-.666.7l-.24.425a1.2,1.2,0,0,0,.441,1.62l.8.463,1.394-1.791Z" transform="translate(-438.213 -99.96)" fill="#fcbac0"/>
          </g>
        </g>
      </g>
      <g id="Grupo_118028" data-name="Grupo 118028">
        <g id="Grupo_118023" data-name="Grupo 118023" transform="translate(68.729)">
          <g id="Grupo_118020" data-name="Grupo 118020" transform="translate(0 16.101)">
            <g id="Grupo_118015" data-name="Grupo 118015" transform="translate(0 113.774)">
              <path id="Trazado_170570" data-name="Trazado 170570" d="M454.966,167.27l-20.55-10.707a4.431,4.431,0,0,0-4.42-.012l-30.4,16.789-.22-3.042-6.506,2.189v4.9a2.814,2.814,0,0,0,1.152,2.461l24.51,13.518a4.427,4.427,0,0,0,4.416-.011l35.481-20.9a2.7,2.7,0,0,0,1.3-2.454l.007-4.816Z" transform="translate(-392.871 -149.007)" fill="#00af7b"/>
              <path id="Trazado_170571" data-name="Trazado 170571" d="M458.626,168.93,425.77,188.284l-2.754,1.624a4.462,4.462,0,0,1-4.431.012l-24.593-13.575a2.216,2.216,0,0,1,0-3.852l7.007-4,25.277-14.8,3.814-2.182a4.435,4.435,0,0,1,4.437.012l7.028,3.95,17.072,9.612A2.215,2.215,0,0,1,458.626,168.93Z" transform="translate(-392.871 -150.928)" fill="#eaecff"/>
            </g>
            <g id="Grupo_118016" data-name="Grupo 118016" transform="translate(1.541 57.836)">
              <path id="Trazado_170572" data-name="Trazado 170572" d="M457.759,124.027v55.236a2.555,2.555,0,0,1-1.229,2.348l-33.854,19.931a4.2,4.2,0,0,1-2.1.566,4.275,4.275,0,0,1-2.113-.552l-23.371-12.9a2.663,2.663,0,0,1-1.1-2.348V130.989l6.2-2.086.221,2.9L429.4,115.795a4.212,4.212,0,0,1,4.213.014l19.6,10.207Z" transform="translate(-393.987 -108.597)" fill="#a0ace2"/>
              <path id="Trazado_170573" data-name="Trazado 170573" d="M456.707,127.6l-31.339,18.459-2.627,1.55a4.258,4.258,0,0,1-4.227.012l-23.456-12.949a2.114,2.114,0,0,1,0-3.674l6.684-3.812,24.11-14.115,3.637-2.082a4.238,4.238,0,0,1,4.232.012l6.7,3.769,16.283,9.167A2.113,2.113,0,0,1,456.707,127.6Z" transform="translate(-393.986 -110.43)" fill="#c5cef6"/>
            </g>
            <g id="Grupo_118018" data-name="Grupo 118018" transform="translate(0 56.18)">
              <path id="Trazado_170574" data-name="Trazado 170574" d="M457.759,127.5v6.74L422.523,154.99a4.431,4.431,0,0,1-4.42.014l-24.116-13.315v-8.08l4.959-1.671.221,3.039,30.4-16.782a4.4,4.4,0,0,1,4.42.014l20.553,10.7Z" transform="translate(-392.446 -106.039)" fill="#7e87c5"/>
              <path id="Trazado_170575" data-name="Trazado 170575" d="M454.966,125.573l-20.55-10.706a4.428,4.428,0,0,0-4.42-.015l-30.4,16.79-.22-3.042-6.506,2.189v4.9a2.814,2.814,0,0,0,1.152,2.461l24.51,13.52a4.43,4.43,0,0,0,4.416-.012l35.481-20.9a2.7,2.7,0,0,0,1.3-2.454l.007-4.816Z" transform="translate(-392.871 -107.31)" fill="#00cc82"/>
              <path id="Trazado_170576" data-name="Trazado 170576" d="M458.626,127.233,425.77,146.587l-2.754,1.624a4.462,4.462,0,0,1-4.431.012l-24.593-13.575a2.216,2.216,0,0,1,0-3.852l7.007-4L426.276,112l3.814-2.182a4.435,4.435,0,0,1,4.437.012l7.028,3.95,17.072,9.612A2.215,2.215,0,0,1,458.626,127.233Z" transform="translate(-392.871 -109.231)" fill="#eaecff"/>
              <g id="Grupo_118017" data-name="Grupo 118017" transform="translate(11.704 7.095)">
                <path id="Trazado_170577" data-name="Trazado 170577" d="M434.936,120.965l-11.425-6.6-5.5,3.249,11.424,6.525Z" transform="translate(-394.991 -114.368)" fill="#435291"/>
                <path id="Trazado_170578" data-name="Trazado 170578" d="M418.27,131.326l-11.425-6.6-5.5,3.249,11.424,6.525Z" transform="translate(-401.344 -110.418)" fill="#ff4a59"/>
                <path id="Trazado_170579" data-name="Trazado 170579" d="M428.005,125.836l-11.424-6.6-5.5,3.249,11.424,6.525Z" transform="translate(-397.633 -112.511)" fill="#c5cef6"/>
                <path id="Trazado_170580" data-name="Trazado 170580" d="M426.935,127.868l-11.424-6.6-5.5,3.249,11.424,6.525Z" transform="translate(-398.041 -111.736)" fill="#5278ff"/>
              </g>
            </g>
            <g id="Grupo_118019" data-name="Grupo 118019" transform="translate(14.782)">
              <path id="Trazado_170581" data-name="Trazado 170581" d="M428.42,68.557v65.578c0,.3.441.55.985.55s.983-.246.983-.55V68.557Z" transform="translate(-394.1 -68.557)" fill="#a0ace2"/>
              <path id="Trazado_170582" data-name="Trazado 170582" d="M403.573,83.33v65.578c0,.3.441.55.985.55s.983-.246.983-.55V83.33Z" transform="translate(-403.573 -62.925)" fill="#a0ace2"/>
            </g>
          </g>
          <g id="Grupo_118022" data-name="Grupo 118022" transform="translate(0.002)">
            <path id="Trazado_170583" data-name="Trazado 170583" d="M392.872,93.387l8.372-16.126,9.779,26.606Z" transform="translate(-392.872 -49.137)" fill="#00af7b"/>
            <g id="Grupo_118021" data-name="Grupo 118021" transform="translate(8.372)">
              <path id="Trazado_170584" data-name="Trazado 170584" d="M398.934,85.024,447.645,56.9l9.78,26.607L408.713,111.63Z" transform="translate(-398.934 -56.9)" fill="#00cc82"/>
              <path id="Trazado_170585" data-name="Trazado 170585" d="M403.85,85.256l39-22.517,5.912,16.082-39,22.516Z" transform="translate(-397.059 -54.674)" fill="#eaecff"/>
            </g>
          </g>
        </g>
        <g id="Grupo_118027" data-name="Grupo 118027" transform="translate(0 33.372)">
          <g id="Grupo_118024" data-name="Grupo 118024" transform="translate(0 119.437)">
            <path id="Trazado_170586" data-name="Trazado 170586" d="M400.939,186.372l-1.153-2.2a5.509,5.509,0,0,0-1.606-1.414l-55.067-4.475v2.587l30.281,17.26a14.765,14.765,0,0,0,14.756,0l10.031-5.785a5.478,5.478,0,0,0,2.747-4.409Z" transform="translate(-343.112 -163.435)" fill="#5c69aa"/>
            <path id="Trazado_170587" data-name="Trazado 170587" d="M398.179,193.85l-10.031,5.785a14.765,14.765,0,0,1-14.756,0l-30.281-17.26,25.71-14.843,29.357,16.731A5.543,5.543,0,0,1,398.179,193.85Z" transform="translate(-343.112 -167.532)" fill="#c5cef6"/>
          </g>
          <g id="Grupo_118026" data-name="Grupo 118026" transform="translate(20.714)">
            <path id="Trazado_170588" data-name="Trazado 170588" d="M358.108,92.31l9.574,136.61,2.323,1.106-9.574-136.61,19.379-11.19-2.222-1.165Z" transform="translate(-358.108 -81.061)" fill="#5c69aa"/>
            <path id="Trazado_170589" data-name="Trazado 170589" d="M359.791,93.095l9.574,136.61,19.379-11.19L379.17,81.9Z" transform="translate(-357.467 -80.74)" fill="#a0ace2"/>
            <g id="Grupo_118025" data-name="Grupo 118025" transform="translate(5.745 12.436)">
              <path id="Trazado_170590" data-name="Trazado 170590" d="M362.268,98.673l1.637,22.2,14.909-8.609-1.637-22.2Z" transform="translate(-362.268 -90.064)" fill="#eaecff"/>
              <path id="Trazado_170591" data-name="Trazado 170591" d="M363.688,119.318l1.637,22.2,14.909-8.609-1.637-22.2Z" transform="translate(-361.726 -82.194)" fill="#eaecff"/>
              <path id="Trazado_170592" data-name="Trazado 170592" d="M365.108,139.963l1.637,22.2,14.909-8.609-1.637-22.2Z" transform="translate(-361.185 -74.323)" fill="#eaecff"/>
              <path id="Trazado_170593" data-name="Trazado 170593" d="M366.527,160.609l1.637,22.2,14.909-8.609L381.436,152Z" transform="translate(-360.644 -66.452)" fill="#eaecff"/>
            </g>
          </g>
        </g>
      </g>
    </g>
  </g>
</svg>
