<svg xmlns="http://www.w3.org/2000/svg" xmlns:xlink="http://www.w3.org/1999/xlink" width="1284" height="674" viewBox="0 0 1284 674">
  <defs>
    <linearGradient id="linear-gradient" x1="0.928" y1="0.153" x2="0.197" y2="0.746" gradientUnits="objectBoundingBox">
      <stop offset="0" stop-color="#fbe017"/>
      <stop offset="0.182" stop-color="#f7ae3f"/>
      <stop offset="0.361" stop-color="#f08362"/>
      <stop offset="0.539" stop-color="#eb5b80"/>
      <stop offset="0.703" stop-color="#d8348b"/>
      <stop offset="0.992" stop-color="#7a1991"/>
    </linearGradient>
  </defs>
  <g id="Grupo_119420" data-name="Grupo 119420" transform="translate(-179.667 -11394)">
    <path id="Sustracci칩n_7" data-name="Sustracci칩n 7" d="M5623.085,12182.474a243.781,243.781,0,0,1-48.783-4.918,240.734,240.734,0,0,1-86.554-36.422,242.75,242.75,0,0,1-87.7-106.5,240.8,240.8,0,0,1-14.1-45.437,244.4,244.4,0,0,1,0-97.565,240.736,240.736,0,0,1,36.421-86.553,242.761,242.761,0,0,1,106.5-87.7,240.861,240.861,0,0,1,45.437-14.1,244.4,244.4,0,0,1,97.565,0,240.709,240.709,0,0,1,86.554,36.421,242.75,242.75,0,0,1,87.7,106.5,240.821,240.821,0,0,1,14.1,45.436,244.409,244.409,0,0,1,0,97.566,240.76,240.76,0,0,1-36.421,86.556,242.761,242.761,0,0,1-106.5,87.7,240.861,240.861,0,0,1-45.437,14.1A243.781,243.781,0,0,1,5623.085,12182.474Zm-.26-456.923c-105.789,0-194.867,75.92-211.81,180.519a214.829,214.829,0,0,0,177.721,246.414,216.952,216.952,0,0,0,34.613,2.8c105.787-.009,194.864-75.928,211.8-180.518,18.938-116.935-60.787-227.477-177.721-246.417A217.063,217.063,0,0,0,5622.825,11725.551Z" transform="translate(-4796.148 -210.223)" stroke="rgba(0,0,0,0)" stroke-miterlimit="10" stroke-width="1" fill="url(#linear-gradient)"/>
    <rect id="Rect치ngulo_37144" data-name="Rect치ngulo 37144" width="1284" height="674" transform="translate(179.667 11394)" fill="none"/>
  </g>
</svg>
