<svg xmlns="http://www.w3.org/2000/svg" width="92.805" height="92.806" viewBox="0 0 92.805 92.806">
  <g id="Grupo_119403" data-name="Grupo 119403" transform="translate(2530.749 227.361)">
    <g id="Grupo_81657" data-name="Grupo 81657" transform="translate(-2530.749 -227.361)" style="isolation: isolate">
      <path id="Trazado_157642" data-name="Trazado 157642" d="M506.08,206.3a46.4,46.4,0,1,1-15.3-63.8A46.395,46.395,0,0,1,506.08,206.3Z" transform="translate(-420.123 -135.65)" fill="#fff505"/>
    </g>
    <g id="Grupo_81648" data-name="Grupo 81648" transform="translate(-2501.281 -206.385)">
      <g id="Grupo_81590" data-name="Grupo 81590">
        <path id="Trazado_157632" data-name="Trazado 157632" d="M518,301.348a19.615,19.615,0,0,0-5.229,13.132v.5H506.7v-19.81a.889.889,0,0,0-1.779,0v19.81h-6.07v-.5a18.667,18.667,0,0,0-4.972-12.865A16.426,16.426,0,1,1,518,301.348Z" transform="translate(-489.379 -273.892)" fill="#5c22c3"/>
        <path id="Rect치ngulo_35668" data-name="Rect치ngulo 35668" d="M.827,0h12.14a.826.826,0,0,1,.826.826v1.76a.825.825,0,0,1-.825.825H.826A.826.826,0,0,1,0,2.585V.827A.827.827,0,0,1,.827,0Z" transform="translate(9.536 42.439)" fill="#5c22c3"/>
        <path id="Rect치ngulo_35669" data-name="Rect치ngulo 35669" d="M0,0H9.41a0,0,0,0,1,0,0V1.885a1.77,1.77,0,0,1-1.77,1.77H1.771A1.771,1.771,0,0,1,0,1.883V0A0,0,0,0,1,0,0Z" transform="translate(11.727 47.2)" fill="#5c22c3"/>
      </g>
    </g>
  </g>
</svg>
