<svg xmlns="http://www.w3.org/2000/svg" width="92.808" height="92.807" viewBox="0 0 92.808 92.807">
  <g id="Grupo_119402" data-name="Grupo 119402" transform="translate(-520.667 -11679)">
    <g id="Grupo_81615" data-name="Grupo 81615" transform="translate(520.667 11679)" style="isolation: isolate">
      <path id="Trazado_157651" data-name="Trazado 157651" d="M230.341,332.936a46.4,46.4,0,1,0,15.3-63.8A46.4,46.4,0,0,0,230.341,332.936Z" transform="translate(-223.491 -262.283)" fill="#5c22c3"/>
    </g>
    <g id="Grupo_81591" data-name="Grupo 81591" transform="translate(550.667 11700)">
      <g id="Grupo_81590" data-name="Grupo 81590">
        <path id="Trazado_157632" data-name="Trazado 157632" d="M518,301.348a19.615,19.615,0,0,0-5.229,13.132v.5H506.7v-19.81a.889.889,0,0,0-1.779,0v19.81h-6.07v-.5a18.667,18.667,0,0,0-4.972-12.865A16.426,16.426,0,1,1,518,301.348Z" transform="translate(-489.379 -273.892)" fill="#fff"/>
        <path id="Rect치ngulo_35668" data-name="Rect치ngulo 35668" d="M.827,0h12.14a.826.826,0,0,1,.826.826v1.76a.825.825,0,0,1-.825.825H.826A.826.826,0,0,1,0,2.585V.827A.827.827,0,0,1,.827,0Z" transform="translate(9.536 42.439)" fill="#fff"/>
        <path id="Rect치ngulo_35669" data-name="Rect치ngulo 35669" d="M0,0H9.41a0,0,0,0,1,0,0V1.885a1.77,1.77,0,0,1-1.77,1.77H1.771A1.771,1.771,0,0,1,0,1.883V0A0,0,0,0,1,0,0Z" transform="translate(11.727 47.2)" fill="#fff"/>
      </g>
    </g>
  </g>
</svg>
