<svg xmlns="http://www.w3.org/2000/svg" width="92.805" height="92.807" viewBox="0 0 92.805 92.807">
  <g id="Grupo_119410" data-name="Grupo 119410" transform="translate(-876.667 -11465)">
    <g id="Grupo_81602" data-name="Grupo 81602" transform="translate(876.667 11465)" style="isolation: isolate">
      <path id="Trazado_157642" data-name="Trazado 157642" d="M506.08,206.3a46.4,46.4,0,1,1-15.3-63.8A46.395,46.395,0,0,1,506.08,206.3Z" transform="translate(-420.123 -135.65)" fill="#5c22c3"/>
    </g>
    <g id="Grupo_81598" data-name="Grupo 81598" transform="translate(899.667 11488)">
      <g id="Grupo_81597" data-name="Grupo 81597">
        <path id="Trazado_157636" data-name="Trazado 157636" d="M438.906,403.87v14.386a14.5,14.5,0,0,0,28.994,0V403.87Zm19.478,19.918-4.98-2.62-4.982,2.62.953-5.547-4.029-3.928,5.566-.807,2.493-5.05,2.491,5.05,5.569.807-4.033,3.928Z" transform="translate(-430.658 -403.87)" fill="#f5f5f5"/>
        <rect id="Rect치ngulo_35670" data-name="Rect치ngulo 35670" width="4.264" height="15.064" transform="translate(20.584 26.214)" fill="#f5f5f5"/>
        <path id="Rect치ngulo_35671" data-name="Rect치ngulo 35671" d="M4.315,0h8.967A4.314,4.314,0,0,1,17.6,4.314V8.8a0,0,0,0,1,0,0H0a0,0,0,0,1,0,0V4.315A4.315,4.315,0,0,1,4.315,0Z" transform="translate(13.917 38.515)" fill="#f5f5f5"/>
        <g id="Grupo_81595" data-name="Grupo 81595" transform="translate(29.686 2.154)">
          <path id="Trazado_157637" data-name="Trazado 157637" d="M451.626,427.019l-.053-.946c5.011-.288,8.849-2.032,11.4-5.192,4.261-5.263,3.742-12.955,3.544-14.789h-7.39v-.949h8.216l.064.4c.059.393,1.411,9.631-3.7,15.935C460.985,424.852,456.915,426.718,451.626,427.019Z" transform="translate(-451.574 -405.143)" fill="#f5f5f5"/>
        </g>
        <g id="Grupo_81596" data-name="Grupo 81596" transform="translate(0 2.154)">
          <path id="Trazado_157638" data-name="Trazado 157638" d="M450.021,427.019c-5.292-.3-9.357-2.168-12.09-5.541-5.1-6.3-3.752-15.542-3.7-15.935l.063-.4h8.221v.949h-7.394c-.193,1.836-.711,9.538,3.549,14.792,2.555,3.156,6.394,4.9,11.4,5.189Z" transform="translate(-434.032 -405.143)" fill="#f5f5f5"/>
        </g>
      </g>
    </g>
  </g>
</svg>
