<svg xmlns="http://www.w3.org/2000/svg" width="92.806" height="92.807" viewBox="0 0 92.806 92.807">
  <g id="Grupo_119414" data-name="Grupo 119414" transform="translate(-975.667 -11679)">
    <g id="Grupo_81588" data-name="Grupo 81588" transform="translate(975.667 11679)">
      <path id="Trazado_157630" data-name="Trazado 157630" d="M557.625,332.936a46.4,46.4,0,1,1-15.3-63.8A46.393,46.393,0,0,1,557.625,332.936Z" transform="translate(-471.668 -262.283)" fill="#5c22c3"/>
    </g>
    <g id="Grupo_81617" data-name="Grupo 81617" transform="translate(1000.667 11705)">
      <g id="Grupo_81616" data-name="Grupo 81616">
        <path id="Trazado_157652" data-name="Trazado 157652" d="M268,278.909H251.357a13.107,13.107,0,0,0-13.109,13.1v8.25a13.108,13.108,0,0,0,13.109,13.109H268a13.11,13.11,0,0,0,13.11-13.109v-8.25A13.11,13.11,0,0,0,268,278.909Zm5.387,24.1h-26.4a.668.668,0,1,1,0-1.335h26.4a.668.668,0,1,1,0,1.335Zm0-6.2h-26.4a.668.668,0,1,1,0-1.335h26.4a.668.668,0,1,1,0,1.335Zm0-6.211h-26.4a.668.668,0,1,1,0-1.335h26.4a.668.668,0,1,1,0,1.335Z" transform="translate(-238.248 -278.909)" fill="#fff"/>
        <path id="Trazado_157653" data-name="Trazado 157653" d="M252.125,300.61l13.2,7.1-1.672-10.369Z" transform="translate(-228.641 -266.149)" fill="#fff"/>
      </g>
    </g>
  </g>
</svg>
