<svg xmlns="http://www.w3.org/2000/svg" width="92.808" height="92.807" viewBox="0 0 92.808 92.807">
  <g id="Grupo_119416" data-name="Grupo 119416" transform="translate(-630.667 -11893)">
    <g id="Grupo_81621" data-name="Grupo 81621" transform="translate(630.667 11893)" style="isolation: isolate">
      <path id="Trazado_157657" data-name="Trazado 157657" d="M281.886,459.571a46.4,46.4,0,1,0,15.3-63.8A46.4,46.4,0,0,0,281.886,459.571Z" transform="translate(-275.037 -388.917)" fill="#5c22c3"/>
    </g>
    <g id="Grupo_81624" data-name="Grupo 81624" transform="translate(655.667 11919)">
      <g id="Grupo_81623" data-name="Grupo 81623" transform="translate(0)">
        <path id="Trazado_157658" data-name="Trazado 157658" d="M311.532,422.622h7.683A21.11,21.11,0,0,1,304.649,432.8C307.6,431.1,310.053,427.415,311.532,422.622Z" transform="translate(-279.791 -391.167)" fill="#fff"/>
        <path id="Trazado_157659" data-name="Trazado 157659" d="M306.226,432.8a21.106,21.106,0,0,1-14.566-10.183h7.681C300.822,427.415,303.279,431.1,306.226,432.8Z" transform="translate(-288.783 -391.167)" fill="#fff"/>
        <path id="Trazado_157660" data-name="Trazado 157660" d="M297.065,422.622h18.253c-1.884,5.871-5.268,9.793-9.128,9.793S298.947,428.493,297.065,422.622Z" transform="translate(-285.041 -391.167)" fill="#fff"/>
        <path id="Trazado_157661" data-name="Trazado 157661" d="M299.345,414.219h-7.69a21.128,21.128,0,0,1,14.574-10.184C303.283,405.739,300.826,409.427,299.345,414.219Z" transform="translate(-288.786 -404.035)" fill="#fff"/>
        <path id="Trazado_157662" data-name="Trazado 157662" d="M315.318,414.06H297.065c1.882-5.872,5.266-9.8,9.125-9.8S313.435,408.188,315.318,414.06Z" transform="translate(-285.041 -403.876)" fill="#fff"/>
        <path id="Trazado_157663" data-name="Trazado 157663" d="M319.221,414.219h-7.69c-1.479-4.793-3.936-8.48-6.883-10.184A21.124,21.124,0,0,1,319.221,414.219Z" transform="translate(-279.791 -404.035)" fill="#fff"/>
        <path id="Trazado_157664" data-name="Trazado 157664" d="M292.051,410.9H300.1a36.994,36.994,0,0,0-1.12,8.482h-9A20.87,20.87,0,0,1,292.051,410.9Z" transform="translate(-289.951 -399.282)" fill="#fff"/>
        <path id="Trazado_157665" data-name="Trazado 157665" d="M316.373,410.9a35.879,35.879,0,0,1,1.142,8.482H296.143a35.876,35.876,0,0,1,1.142-8.482Z" transform="translate(-285.679 -399.282)" fill="#fff"/>
        <path id="Trazado_157666" data-name="Trazado 157666" d="M319.086,419.383h-9a36.9,36.9,0,0,0-1.124-8.482h8.05A20.9,20.9,0,0,1,319.086,419.383Z" transform="translate(-276.808 -399.282)" fill="#fff"/>
        <path id="Trazado_157667" data-name="Trazado 157667" d="M298.978,416.762a36.939,36.939,0,0,0,1.12,8.478h-8.047a20.951,20.951,0,0,1-2.078-8.478Z" transform="translate(-289.951 -395.224)" fill="#fff"/>
        <path id="Trazado_157668" data-name="Trazado 157668" d="M317.515,416.762a35.729,35.729,0,0,1-1.142,8.478H297.285a35.726,35.726,0,0,1-1.142-8.478Z" transform="translate(-285.679 -395.224)" fill="#fff"/>
        <path id="Trazado_157669" data-name="Trazado 157669" d="M319.086,416.762a20.975,20.975,0,0,1-2.078,8.478h-8.05a36.843,36.843,0,0,0,1.124-8.478Z" transform="translate(-276.808 -395.224)" fill="#fff"/>
        <g id="Grupo_81622" data-name="Grupo 81622" transform="translate(0 20.819)">
          <path id="Trazado_157670" data-name="Trazado 157670" d="M289.96,416.337c0,.245.009.482.022.719h-.022Z" transform="translate(-289.96 -416.337)" fill="#fff"/>
          <path id="Trazado_157671" data-name="Trazado 157671" d="M314.963,416.337v.719h-.02C314.956,416.819,314.963,416.582,314.963,416.337Z" transform="translate(-272.664 -416.337)" fill="#fff"/>
        </g>
      </g>
    </g>
  </g>
</svg>
