<svg xmlns="http://www.w3.org/2000/svg" xmlns:xlink="http://www.w3.org/1999/xlink" width="217.102" height="156.771" viewBox="0 0 217.102 156.771">
  <defs>
    <filter id="Trazado_157573" x="0" y="0" width="217.102" height="156.771" filterUnits="userSpaceOnUse">
      <feOffset dy="5" input="SourceAlpha"/>
      <feGaussianBlur stdDeviation="1.5" result="blur"/>
      <feFlood flood-color="#2b2830" flood-opacity="0.251"/>
      <feComposite operator="in" in2="blur"/>
      <feComposite in="SourceGraphic"/>
    </filter>
  </defs>
  <g id="Grupo_119424" data-name="Grupo 119424" transform="translate(-304.982 -142.972)">
    <g id="Grupo_81575" data-name="Grupo 81575" transform="translate(309.482 142.972)">
      <g transform="matrix(1, 0, 0, 1, -4.5, 0)" filter="url(#Trazado_157573)">
        <path id="Trazado_157573-2" data-name="Trazado 157573" d="M467.075,120.126a7.191,7.191,0,0,0-7.586-7.178,259.388,259.388,0,0,0-114.26,33.714A262.525,262.525,0,0,0,260.257,224.5a7.189,7.189,0,0,0,2.146,10.224l39.765,24.417a7.157,7.157,0,0,0,9.582-1.95,197.624,197.624,0,0,1,148.641-83.232,7.157,7.157,0,0,0,6.684-7.145Z" transform="translate(-254.47 -112.94)" fill="#f3ab1d"/>
      </g>
      <path id="Trazado_157574" data-name="Trazado 157574" d="M272.268,180.043l15.32,9.385a1.578,1.578,0,0,0,2.389-1.546l-1.836-14.2a1.576,1.576,0,0,0-2.094-1.282l-13.486,4.815A1.578,1.578,0,0,0,272.268,180.043Z" transform="translate(-248.377 -62.776)" fill="#fff"/>
    </g>
    <g id="Grupo_81583" data-name="Grupo 81583" transform="translate(380.909 182.724)">
      <path id="Trazado_157622" data-name="Trazado 157622" d="M311.647,167.269l7.549-5.6,1.922,2.592-10.927,8.107-12.5-16.855,3.38-2.507Z" transform="translate(-297.689 -118.833)"/>
      <path id="Trazado_157623" data-name="Trazado 157623" d="M320.121,163.386a7.007,7.007,0,0,1-5.747,1.107,7.833,7.833,0,0,1-4.607-3.607l-.31-.487a8.536,8.536,0,0,1-1.463-5.863,6.472,6.472,0,0,1,3.23-4.677,6.057,6.057,0,0,1,5.1-.954,7.593,7.593,0,0,1,4.192,3.478l1.166,1.838-7.854,4.978.011.1a4.2,4.2,0,0,0,2.21,1.67,3.255,3.255,0,0,0,2.717-.544,8.664,8.664,0,0,0,1.873-1.528,9.91,9.91,0,0,0,1.253-1.834l2.35,1.581a7.746,7.746,0,0,1-1.457,2.441A11.212,11.212,0,0,1,320.121,163.386Zm-7.16-10.787a2.345,2.345,0,0,0-1.183,1.782,4.379,4.379,0,0,0,.539,2.4l.063.044,4.334-2.745-.17-.269a3.625,3.625,0,0,0-1.627-1.518A2.084,2.084,0,0,0,312.961,152.6Z" transform="translate(-289.044 -122.483)"/>
      <path id="Trazado_157624" data-name="Trazado 157624" d="M316.67,156.879a10.088,10.088,0,0,1-1.395-6.005,5.187,5.187,0,0,1,2.9-4.114,4.437,4.437,0,0,1,2.314-.566,5.167,5.167,0,0,1,2.293.686l-.644-1.911,3.19-1.7,7.317,13.691a5.8,5.8,0,0,1,.465,5.086,8.4,8.4,0,0,1-4.11,4.085,10.64,10.64,0,0,1-2.363.9,11.666,11.666,0,0,1-2.579.373l-.86-3.1a9.772,9.772,0,0,0,2.09-.325,9.935,9.935,0,0,0,2.077-.841,3.767,3.767,0,0,0,1.9-1.834,2.854,2.854,0,0,0-.343-2.367l-.664-1.245a4.719,4.719,0,0,1-.8,1.95,4.822,4.822,0,0,1-1.677,1.419,5.292,5.292,0,0,1-4.933.251,8.969,8.969,0,0,1-4.033-4.153Zm3.854-1.718a6.381,6.381,0,0,0,2.122,2.518,2.389,2.389,0,0,0,2.531-.02,3.483,3.483,0,0,0,1.277-1.083,2.713,2.713,0,0,0,.461-1.415l-3.186-5.961a2.887,2.887,0,0,0-1.47-.472,3.158,3.158,0,0,0-1.6.413,2.361,2.361,0,0,0-1.337,2.267,7.784,7.784,0,0,0,1.063,3.485Z" transform="translate(-282.879 -127.064)"/>
      <path id="Trazado_157625" data-name="Trazado 157625" d="M336.743,154.521a8.765,8.765,0,0,1-.817-.869,7.781,7.781,0,0,1-.7-1.011,5.789,5.789,0,0,1-.808,2.419,4.316,4.316,0,0,1-2.018,1.71,5.276,5.276,0,0,1-3.965.371,4.517,4.517,0,0,1-2.6-2.611,4.106,4.106,0,0,1,.181-3.963,8.816,8.816,0,0,1,4.206-3.234l2.162-.954-.5-1.135a2.446,2.446,0,0,0-1.245-1.358,2.33,2.33,0,0,0-1.86.144,2.279,2.279,0,0,0-1.242,1.092,1.73,1.73,0,0,0,.04,1.47l-3.7,1.635-.061-.068a3.949,3.949,0,0,1,.2-3.813,7.474,7.474,0,0,1,3.778-3.234,6.981,6.981,0,0,1,4.732-.544,4.923,4.923,0,0,1,3.223,3.005l2.6,5.894a12.174,12.174,0,0,0,.985,1.819,10.255,10.255,0,0,0,1.255,1.54Zm-4.657-1.018a3.584,3.584,0,0,0,1.574-1.291,2.95,2.95,0,0,0,.568-1.638l-.889-2.018-2.162.954a2.806,2.806,0,0,0-1.587,1.424,2.184,2.184,0,0,0,.031,1.767,1.624,1.624,0,0,0,.978.946A2.009,2.009,0,0,0,332.087,153.5Z" transform="translate(-275.959 -129.513)"/>
      <path id="Trazado_157626" data-name="Trazado 157626" d="M341.526,155.526l-3.939,1.483-7.924-21.041,3.937-1.485Z" transform="translate(-270.674 -134.483)"/>
    </g>
  </g>
</svg>
