<svg xmlns="http://www.w3.org/2000/svg" width="313" height="226.244" viewBox="0 0 313 226.244">
  <g id="Grupo_119325" data-name="Grupo 119325" transform="translate(-224 -2536)">
    <g id="Grupo_78282" data-name="Grupo 78282" transform="translate(0 -3672.757)">
      <path id="Rectángulo_34846" data-name="Rectángulo 34846" d="M0,0H271a42,42,0,0,1,42,42V163a0,0,0,0,1,0,0H42A42,42,0,0,1,0,121V0A0,0,0,0,1,0,0Z" transform="translate(224 6272)" fill="#5c22c3"/>
      <g id="Grupo_78301" data-name="Grupo 78301" transform="translate(-600.229 6092)">
        <path id="Trazado_145968" data-name="Trazado 145968" d="M43.541,0A43.541,43.541,0,1,1,0,43.541,43.541,43.541,0,0,1,43.541,0Z" transform="translate(1042.117 249.115)" fill="#64b5f6" opacity="0.444" style="mix-blend-mode: multiply;isolation: isolate"/>
        <path id="Trazado_145969" data-name="Trazado 145969" d="M29.752,0A29.752,29.752,0,1,1,0,29.752,29.752,29.752,0,0,1,29.752,0Z" transform="translate(850.556 127.8)" fill="#64b5f6" opacity="0.444" style="mix-blend-mode: multiply;isolation: isolate"/>
        <rect id="Rectángulo_34812" data-name="Rectángulo 34812" width="309.662" height="222.853" transform="translate(826.229 116.756)" fill="none"/>
        <path id="Trazado_145971" data-name="Trazado 145971" d="M8.18,0A8.18,8.18,0,1,1,0,8.18,8.18,8.18,0,0,1,8.18,0Z" transform="translate(858.547 307.038)" fill="#64b5f6" opacity="0.444" style="mix-blend-mode: multiply;isolation: isolate"/>
        <g id="Grupo_78276" data-name="Grupo 78276" transform="translate(1062.666 279.633)">
          <g id="Grupo_53306" data-name="Grupo 53306" transform="translate(0)">
            <path id="Trazado_99200" data-name="Trazado 99200" d="M415.4,50.789a.592.592,0,1,1-.592-.565A.579.579,0,0,1,415.4,50.789Z" transform="translate(-414.214 -50.224)" fill="#fff"/>
            <path id="Trazado_99201" data-name="Trazado 99201" d="M423.842,50.789a.592.592,0,1,1-.591-.565A.579.579,0,0,1,423.842,50.789Z" transform="translate(-417.339 -50.224)" fill="#fff"/>
            <path id="Trazado_99202" data-name="Trazado 99202" d="M432.288,50.789a.592.592,0,1,1-.591-.565A.579.579,0,0,1,432.288,50.789Z" transform="translate(-420.464 -50.224)" fill="#fff"/>
            <path id="Trazado_99203" data-name="Trazado 99203" d="M440.736,50.789a.592.592,0,1,1-.592-.565A.579.579,0,0,1,440.736,50.789Z" transform="translate(-423.59 -50.224)" fill="#fff"/>
            <path id="Trazado_99204" data-name="Trazado 99204" d="M449.181,50.789a.592.592,0,1,1-.591-.565A.579.579,0,0,1,449.181,50.789Z" transform="translate(-426.715 -50.224)" fill="#fff"/>
            <path id="Trazado_99205" data-name="Trazado 99205" d="M457.627,50.789a.592.592,0,1,1-.591-.565A.579.579,0,0,1,457.627,50.789Z" transform="translate(-429.84 -50.224)" fill="#fff"/>
            <path id="Trazado_99206" data-name="Trazado 99206" d="M466.075,50.789a.592.592,0,1,1-.592-.565A.579.579,0,0,1,466.075,50.789Z" transform="translate(-432.965 -50.224)" fill="#fff"/>
            <path id="Trazado_99207" data-name="Trazado 99207" d="M474.521,50.789a.592.592,0,1,1-.591-.565A.579.579,0,0,1,474.521,50.789Z" transform="translate(-436.09 -50.224)" fill="#fff"/>
            <path id="Trazado_99208" data-name="Trazado 99208" d="M482.966,50.789a.592.592,0,1,1-.591-.565A.579.579,0,0,1,482.966,50.789Z" transform="translate(-439.215 -50.224)" fill="#fff"/>
            <path id="Trazado_99209" data-name="Trazado 99209" d="M491.414,50.789a.592.592,0,1,1-.592-.565A.579.579,0,0,1,491.414,50.789Z" transform="translate(-442.341 -50.224)" fill="#fff"/>
            <path id="Trazado_99210" data-name="Trazado 99210" d="M499.86,50.789a.592.592,0,1,1-.592-.565A.579.579,0,0,1,499.86,50.789Z" transform="translate(-445.466 -50.224)" fill="#fff"/>
          </g>
          <g id="Grupo_53307" data-name="Grupo 53307" transform="translate(0 4.523)">
            <path id="Trazado_99211" data-name="Trazado 99211" d="M415.4,58.3a.592.592,0,1,1-.592-.565A.579.579,0,0,1,415.4,58.3Z" transform="translate(-414.214 -57.732)" fill="#fff"/>
            <path id="Trazado_99212" data-name="Trazado 99212" d="M423.842,58.3a.592.592,0,1,1-.591-.565A.579.579,0,0,1,423.842,58.3Z" transform="translate(-417.339 -57.732)" fill="#fff"/>
            <path id="Trazado_99213" data-name="Trazado 99213" d="M432.288,58.3a.592.592,0,1,1-.591-.565A.579.579,0,0,1,432.288,58.3Z" transform="translate(-420.464 -57.732)" fill="#fff"/>
            <path id="Trazado_99214" data-name="Trazado 99214" d="M440.736,58.3a.592.592,0,1,1-.592-.565A.579.579,0,0,1,440.736,58.3Z" transform="translate(-423.59 -57.732)" fill="#fff"/>
            <path id="Trazado_99215" data-name="Trazado 99215" d="M449.181,58.3a.592.592,0,1,1-.591-.565A.579.579,0,0,1,449.181,58.3Z" transform="translate(-426.715 -57.732)" fill="#fff"/>
            <path id="Trazado_99216" data-name="Trazado 99216" d="M457.627,58.3a.592.592,0,1,1-.591-.565A.579.579,0,0,1,457.627,58.3Z" transform="translate(-429.84 -57.732)" fill="#fff"/>
            <path id="Trazado_99217" data-name="Trazado 99217" d="M466.075,58.3a.592.592,0,1,1-.592-.565A.579.579,0,0,1,466.075,58.3Z" transform="translate(-432.965 -57.732)" fill="#fff"/>
            <path id="Trazado_99218" data-name="Trazado 99218" d="M474.521,58.3a.592.592,0,1,1-.591-.565A.579.579,0,0,1,474.521,58.3Z" transform="translate(-436.09 -57.732)" fill="#fff"/>
            <path id="Trazado_99219" data-name="Trazado 99219" d="M482.966,58.3a.592.592,0,1,1-.591-.565A.579.579,0,0,1,482.966,58.3Z" transform="translate(-439.215 -57.732)" fill="#fff"/>
            <path id="Trazado_99220" data-name="Trazado 99220" d="M491.414,58.3a.592.592,0,1,1-.592-.565A.579.579,0,0,1,491.414,58.3Z" transform="translate(-442.341 -57.732)" fill="#fff"/>
            <path id="Trazado_99221" data-name="Trazado 99221" d="M499.86,58.3a.592.592,0,1,1-.592-.565A.579.579,0,0,1,499.86,58.3Z" transform="translate(-445.466 -57.732)" fill="#fff"/>
          </g>
          <g id="Grupo_53308" data-name="Grupo 53308" transform="translate(0 9.047)">
            <ellipse id="Elipse_3955" data-name="Elipse 3955" cx="0.591" cy="0.565" rx="0.591" ry="0.565" fill="#fff"/>
            <path id="Trazado_99222" data-name="Trazado 99222" d="M423.842,65.805a.592.592,0,1,1-.591-.565A.579.579,0,0,1,423.842,65.805Z" transform="translate(-417.339 -65.24)" fill="#fff"/>
            <ellipse id="Elipse_3956" data-name="Elipse 3956" cx="0.591" cy="0.565" rx="0.591" ry="0.565" transform="translate(10.642)" fill="#fff"/>
            <path id="Trazado_99223" data-name="Trazado 99223" d="M440.736,65.805a.592.592,0,1,1-.592-.565A.579.579,0,0,1,440.736,65.805Z" transform="translate(-423.589 -65.24)" fill="#fff"/>
            <path id="Trazado_99224" data-name="Trazado 99224" d="M449.181,65.805a.592.592,0,1,1-.591-.565A.579.579,0,0,1,449.181,65.805Z" transform="translate(-426.715 -65.24)" fill="#fff"/>
            <ellipse id="Elipse_3957" data-name="Elipse 3957" cx="0.591" cy="0.565" rx="0.591" ry="0.565" transform="translate(26.606)" fill="#fff"/>
            <path id="Trazado_99225" data-name="Trazado 99225" d="M466.075,65.805a.592.592,0,1,1-.592-.565A.58.58,0,0,1,466.075,65.805Z" transform="translate(-432.965 -65.24)" fill="#fff"/>
            <ellipse id="Elipse_3958" data-name="Elipse 3958" cx="0.591" cy="0.565" rx="0.591" ry="0.565" transform="translate(37.248)" fill="#fff"/>
            <ellipse id="Elipse_3959" data-name="Elipse 3959" cx="0.591" cy="0.565" rx="0.591" ry="0.565" transform="translate(42.569)" fill="#fff"/>
            <path id="Trazado_99226" data-name="Trazado 99226" d="M491.414,65.805a.592.592,0,1,1-.592-.565A.58.58,0,0,1,491.414,65.805Z" transform="translate(-442.341 -65.24)" fill="#fff"/>
            <path id="Trazado_99227" data-name="Trazado 99227" d="M499.86,65.805a.592.592,0,1,1-.592-.565A.579.579,0,0,1,499.86,65.805Z" transform="translate(-445.466 -65.24)" fill="#fff"/>
          </g>
          <g id="Grupo_53309" data-name="Grupo 53309" transform="translate(0 13.57)">
            <ellipse id="Elipse_3960" data-name="Elipse 3960" cx="0.591" cy="0.565" rx="0.591" ry="0.565" transform="translate(0 0)" fill="#fff"/>
            <path id="Trazado_99228" data-name="Trazado 99228" d="M423.842,73.313a.592.592,0,1,1-.591-.566A.578.578,0,0,1,423.842,73.313Z" transform="translate(-417.339 -72.747)" fill="#fff"/>
            <ellipse id="Elipse_3961" data-name="Elipse 3961" cx="0.591" cy="0.565" rx="0.591" ry="0.565" transform="translate(10.642 0)" fill="#fff"/>
            <path id="Trazado_99229" data-name="Trazado 99229" d="M440.736,73.313a.592.592,0,1,1-.592-.566A.579.579,0,0,1,440.736,73.313Z" transform="translate(-423.589 -72.747)" fill="#fff"/>
            <path id="Trazado_99230" data-name="Trazado 99230" d="M449.181,73.313a.592.592,0,1,1-.591-.566A.579.579,0,0,1,449.181,73.313Z" transform="translate(-426.715 -72.747)" fill="#fff"/>
            <ellipse id="Elipse_3962" data-name="Elipse 3962" cx="0.591" cy="0.565" rx="0.591" ry="0.565" transform="translate(26.606 0)" fill="#fff"/>
            <path id="Trazado_99231" data-name="Trazado 99231" d="M466.075,73.313a.592.592,0,1,1-.592-.566A.579.579,0,0,1,466.075,73.313Z" transform="translate(-432.965 -72.747)" fill="#fff"/>
            <ellipse id="Elipse_3963" data-name="Elipse 3963" cx="0.591" cy="0.565" rx="0.591" ry="0.565" transform="translate(37.248 0)" fill="#fff"/>
            <ellipse id="Elipse_3964" data-name="Elipse 3964" cx="0.591" cy="0.565" rx="0.591" ry="0.565" transform="translate(42.569 0)" fill="#fff"/>
            <path id="Trazado_99232" data-name="Trazado 99232" d="M491.414,73.313a.592.592,0,1,1-.592-.566A.579.579,0,0,1,491.414,73.313Z" transform="translate(-442.341 -72.747)" fill="#fff"/>
            <path id="Trazado_99233" data-name="Trazado 99233" d="M499.86,73.313a.592.592,0,1,1-.592-.566A.579.579,0,0,1,499.86,73.313Z" transform="translate(-445.466 -72.747)" fill="#fff"/>
          </g>
          <g id="Grupo_53310" data-name="Grupo 53310" transform="translate(0 18.093)">
            <path id="Trazado_99234" data-name="Trazado 99234" d="M415.4,80.821a.592.592,0,1,1-.592-.566A.579.579,0,0,1,415.4,80.821Z" transform="translate(-414.214 -80.255)" fill="#fff"/>
            <path id="Trazado_99235" data-name="Trazado 99235" d="M423.842,80.821a.592.592,0,1,1-.591-.566A.578.578,0,0,1,423.842,80.821Z" transform="translate(-417.339 -80.255)" fill="#fff"/>
            <path id="Trazado_99236" data-name="Trazado 99236" d="M432.288,80.821a.592.592,0,1,1-.591-.566A.578.578,0,0,1,432.288,80.821Z" transform="translate(-420.464 -80.255)" fill="#fff"/>
            <path id="Trazado_99237" data-name="Trazado 99237" d="M440.736,80.821a.592.592,0,1,1-.592-.566A.579.579,0,0,1,440.736,80.821Z" transform="translate(-423.59 -80.255)" fill="#fff"/>
            <path id="Trazado_99238" data-name="Trazado 99238" d="M449.181,80.821a.592.592,0,1,1-.591-.566A.579.579,0,0,1,449.181,80.821Z" transform="translate(-426.715 -80.255)" fill="#fff"/>
            <path id="Trazado_99239" data-name="Trazado 99239" d="M457.627,80.821a.592.592,0,1,1-.591-.566A.578.578,0,0,1,457.627,80.821Z" transform="translate(-429.84 -80.255)" fill="#fff"/>
            <path id="Trazado_99240" data-name="Trazado 99240" d="M466.075,80.821a.592.592,0,1,1-.592-.566A.579.579,0,0,1,466.075,80.821Z" transform="translate(-432.965 -80.255)" fill="#fff"/>
            <path id="Trazado_99241" data-name="Trazado 99241" d="M474.521,80.821a.592.592,0,1,1-.591-.566A.578.578,0,0,1,474.521,80.821Z" transform="translate(-436.09 -80.255)" fill="#fff"/>
            <path id="Trazado_99242" data-name="Trazado 99242" d="M482.966,80.821a.592.592,0,1,1-.591-.566A.579.579,0,0,1,482.966,80.821Z" transform="translate(-439.215 -80.255)" fill="#fff"/>
            <path id="Trazado_99243" data-name="Trazado 99243" d="M491.414,80.821a.592.592,0,1,1-.592-.566A.579.579,0,0,1,491.414,80.821Z" transform="translate(-442.341 -80.255)" fill="#fff"/>
            <path id="Trazado_99244" data-name="Trazado 99244" d="M499.86,80.821a.592.592,0,1,1-.592-.566A.579.579,0,0,1,499.86,80.821Z" transform="translate(-445.466 -80.255)" fill="#fff"/>
          </g>
          <g id="Grupo_53311" data-name="Grupo 53311" transform="translate(0 22.616)">
            <ellipse id="Elipse_3965" data-name="Elipse 3965" cx="0.591" cy="0.565" rx="0.591" ry="0.565" transform="translate(0 0)" fill="#fff"/>
            <path id="Trazado_99245" data-name="Trazado 99245" d="M423.842,88.329a.592.592,0,1,1-.591-.566A.578.578,0,0,1,423.842,88.329Z" transform="translate(-417.339 -87.763)" fill="#fff"/>
            <ellipse id="Elipse_3966" data-name="Elipse 3966" cx="0.591" cy="0.565" rx="0.591" ry="0.565" transform="translate(10.642 0)" fill="#fff"/>
            <path id="Trazado_99246" data-name="Trazado 99246" d="M440.736,88.329a.592.592,0,1,1-.592-.566A.579.579,0,0,1,440.736,88.329Z" transform="translate(-423.589 -87.763)" fill="#fff"/>
            <path id="Trazado_99247" data-name="Trazado 99247" d="M449.181,88.329a.592.592,0,1,1-.591-.566A.579.579,0,0,1,449.181,88.329Z" transform="translate(-426.715 -87.763)" fill="#fff"/>
            <ellipse id="Elipse_3967" data-name="Elipse 3967" cx="0.591" cy="0.565" rx="0.591" ry="0.565" transform="translate(26.606 0)" fill="#fff"/>
            <path id="Trazado_99248" data-name="Trazado 99248" d="M466.075,88.329a.592.592,0,1,1-.592-.566A.579.579,0,0,1,466.075,88.329Z" transform="translate(-432.965 -87.763)" fill="#fff"/>
            <ellipse id="Elipse_3968" data-name="Elipse 3968" cx="0.591" cy="0.565" rx="0.591" ry="0.565" transform="translate(37.248 0)" fill="#fff"/>
            <ellipse id="Elipse_3969" data-name="Elipse 3969" cx="0.591" cy="0.565" rx="0.591" ry="0.565" transform="translate(42.569 0)" fill="#fff"/>
            <path id="Trazado_99249" data-name="Trazado 99249" d="M491.414,88.329a.592.592,0,1,1-.592-.566A.579.579,0,0,1,491.414,88.329Z" transform="translate(-442.341 -87.763)" fill="#fff"/>
            <path id="Trazado_99250" data-name="Trazado 99250" d="M499.86,88.329a.592.592,0,1,1-.592-.566A.579.579,0,0,1,499.86,88.329Z" transform="translate(-445.466 -87.763)" fill="#fff"/>
          </g>
          <g id="Grupo_53312" data-name="Grupo 53312" transform="translate(0 27.14)">
            <ellipse id="Elipse_3970" data-name="Elipse 3970" cx="0.591" cy="0.565" rx="0.591" ry="0.565" fill="#fff"/>
            <path id="Trazado_99251" data-name="Trazado 99251" d="M423.842,95.836a.592.592,0,1,1-.591-.565A.579.579,0,0,1,423.842,95.836Z" transform="translate(-417.339 -95.271)" fill="#fff"/>
            <ellipse id="Elipse_3971" data-name="Elipse 3971" cx="0.591" cy="0.565" rx="0.591" ry="0.565" transform="translate(10.642)" fill="#fff"/>
            <path id="Trazado_99252" data-name="Trazado 99252" d="M440.736,95.836a.592.592,0,1,1-.592-.565A.579.579,0,0,1,440.736,95.836Z" transform="translate(-423.589 -95.271)" fill="#fff"/>
            <path id="Trazado_99253" data-name="Trazado 99253" d="M449.181,95.836a.592.592,0,1,1-.591-.565A.579.579,0,0,1,449.181,95.836Z" transform="translate(-426.715 -95.271)" fill="#fff"/>
            <ellipse id="Elipse_3972" data-name="Elipse 3972" cx="0.591" cy="0.565" rx="0.591" ry="0.565" transform="translate(26.606)" fill="#fff"/>
            <path id="Trazado_99254" data-name="Trazado 99254" d="M466.075,95.836a.592.592,0,1,1-.592-.565A.579.579,0,0,1,466.075,95.836Z" transform="translate(-432.965 -95.271)" fill="#fff"/>
            <ellipse id="Elipse_3973" data-name="Elipse 3973" cx="0.591" cy="0.565" rx="0.591" ry="0.565" transform="translate(37.248)" fill="#fff"/>
            <ellipse id="Elipse_3974" data-name="Elipse 3974" cx="0.591" cy="0.565" rx="0.591" ry="0.565" transform="translate(42.569)" fill="#fff"/>
            <path id="Trazado_99255" data-name="Trazado 99255" d="M491.414,95.836a.592.592,0,1,1-.592-.565A.579.579,0,0,1,491.414,95.836Z" transform="translate(-442.341 -95.271)" fill="#fff"/>
            <path id="Trazado_99256" data-name="Trazado 99256" d="M499.86,95.836a.592.592,0,1,1-.592-.565A.579.579,0,0,1,499.86,95.836Z" transform="translate(-445.466 -95.271)" fill="#fff"/>
          </g>
          <g id="Grupo_53313" data-name="Grupo 53313" transform="translate(0 31.663)">
            <path id="Trazado_99257" data-name="Trazado 99257" d="M415.4,103.344a.592.592,0,1,1-.592-.565A.579.579,0,0,1,415.4,103.344Z" transform="translate(-414.214 -102.779)" fill="#fff"/>
            <path id="Trazado_99258" data-name="Trazado 99258" d="M423.842,103.344a.592.592,0,1,1-.591-.565A.579.579,0,0,1,423.842,103.344Z" transform="translate(-417.339 -102.779)" fill="#fff"/>
            <path id="Trazado_99259" data-name="Trazado 99259" d="M432.288,103.344a.592.592,0,1,1-.591-.565A.579.579,0,0,1,432.288,103.344Z" transform="translate(-420.464 -102.779)" fill="#fff"/>
            <path id="Trazado_99260" data-name="Trazado 99260" d="M440.736,103.344a.592.592,0,1,1-.592-.565A.579.579,0,0,1,440.736,103.344Z" transform="translate(-423.59 -102.779)" fill="#fff"/>
            <path id="Trazado_99261" data-name="Trazado 99261" d="M449.181,103.344a.592.592,0,1,1-.591-.565A.579.579,0,0,1,449.181,103.344Z" transform="translate(-426.715 -102.779)" fill="#fff"/>
            <path id="Trazado_99262" data-name="Trazado 99262" d="M457.627,103.344a.592.592,0,1,1-.591-.565A.579.579,0,0,1,457.627,103.344Z" transform="translate(-429.84 -102.779)" fill="#fff"/>
            <path id="Trazado_99263" data-name="Trazado 99263" d="M466.075,103.344a.592.592,0,1,1-.592-.565A.579.579,0,0,1,466.075,103.344Z" transform="translate(-432.965 -102.779)" fill="#fff"/>
            <path id="Trazado_99264" data-name="Trazado 99264" d="M474.521,103.344a.592.592,0,1,1-.591-.565A.579.579,0,0,1,474.521,103.344Z" transform="translate(-436.09 -102.779)" fill="#fff"/>
            <path id="Trazado_99265" data-name="Trazado 99265" d="M482.966,103.344a.592.592,0,1,1-.591-.565A.579.579,0,0,1,482.966,103.344Z" transform="translate(-439.215 -102.779)" fill="#fff"/>
            <path id="Trazado_99266" data-name="Trazado 99266" d="M491.414,103.344a.592.592,0,1,1-.592-.565A.579.579,0,0,1,491.414,103.344Z" transform="translate(-442.341 -102.779)" fill="#fff"/>
            <path id="Trazado_99267" data-name="Trazado 99267" d="M499.86,103.344a.592.592,0,1,1-.592-.565A.579.579,0,0,1,499.86,103.344Z" transform="translate(-445.466 -102.779)" fill="#fff"/>
          </g>
          <g id="Grupo_53314" data-name="Grupo 53314" transform="translate(0 36.187)">
            <ellipse id="Elipse_3975" data-name="Elipse 3975" cx="0.591" cy="0.565" rx="0.591" ry="0.565" fill="#fff"/>
            <path id="Trazado_99268" data-name="Trazado 99268" d="M423.842,110.852a.592.592,0,1,1-.591-.565A.579.579,0,0,1,423.842,110.852Z" transform="translate(-417.339 -110.287)" fill="#fff"/>
            <ellipse id="Elipse_3976" data-name="Elipse 3976" cx="0.591" cy="0.565" rx="0.591" ry="0.565" transform="translate(10.642)" fill="#fff"/>
            <path id="Trazado_99269" data-name="Trazado 99269" d="M440.736,110.852a.592.592,0,1,1-.592-.565A.579.579,0,0,1,440.736,110.852Z" transform="translate(-423.589 -110.287)" fill="#fff"/>
            <path id="Trazado_99270" data-name="Trazado 99270" d="M449.181,110.852a.592.592,0,1,1-.591-.565A.579.579,0,0,1,449.181,110.852Z" transform="translate(-426.715 -110.287)" fill="#fff"/>
            <ellipse id="Elipse_3977" data-name="Elipse 3977" cx="0.591" cy="0.565" rx="0.591" ry="0.565" transform="translate(26.606)" fill="#fff"/>
            <path id="Trazado_99271" data-name="Trazado 99271" d="M466.075,110.852a.592.592,0,1,1-.592-.565A.58.58,0,0,1,466.075,110.852Z" transform="translate(-432.965 -110.287)" fill="#fff"/>
            <ellipse id="Elipse_3978" data-name="Elipse 3978" cx="0.591" cy="0.565" rx="0.591" ry="0.565" transform="translate(37.248)" fill="#fff"/>
            <ellipse id="Elipse_3979" data-name="Elipse 3979" cx="0.591" cy="0.565" rx="0.591" ry="0.565" transform="translate(42.569)" fill="#fff"/>
            <path id="Trazado_99272" data-name="Trazado 99272" d="M491.414,110.852a.592.592,0,1,1-.592-.565A.58.58,0,0,1,491.414,110.852Z" transform="translate(-442.341 -110.287)" fill="#fff"/>
            <path id="Trazado_99273" data-name="Trazado 99273" d="M499.86,110.852a.592.592,0,1,1-.592-.565A.579.579,0,0,1,499.86,110.852Z" transform="translate(-445.466 -110.287)" fill="#fff"/>
          </g>
          <g id="Grupo_53315" data-name="Grupo 53315" transform="translate(0 40.709)">
            <path id="Trazado_99274" data-name="Trazado 99274" d="M415.4,118.36a.592.592,0,1,1-.592-.566A.579.579,0,0,1,415.4,118.36Z" transform="translate(-414.214 -117.794)" fill="#fff"/>
            <path id="Trazado_99275" data-name="Trazado 99275" d="M423.842,118.36a.592.592,0,1,1-.591-.566A.579.579,0,0,1,423.842,118.36Z" transform="translate(-417.339 -117.794)" fill="#fff"/>
            <path id="Trazado_99276" data-name="Trazado 99276" d="M432.288,118.36a.592.592,0,1,1-.591-.566A.579.579,0,0,1,432.288,118.36Z" transform="translate(-420.464 -117.794)" fill="#fff"/>
            <path id="Trazado_99277" data-name="Trazado 99277" d="M440.736,118.36a.592.592,0,1,1-.592-.566A.579.579,0,0,1,440.736,118.36Z" transform="translate(-423.59 -117.794)" fill="#fff"/>
            <path id="Trazado_99278" data-name="Trazado 99278" d="M449.181,118.36a.592.592,0,1,1-.591-.566A.579.579,0,0,1,449.181,118.36Z" transform="translate(-426.715 -117.794)" fill="#fff"/>
            <path id="Trazado_99279" data-name="Trazado 99279" d="M457.627,118.36a.592.592,0,1,1-.591-.566A.579.579,0,0,1,457.627,118.36Z" transform="translate(-429.84 -117.794)" fill="#fff"/>
            <path id="Trazado_99280" data-name="Trazado 99280" d="M466.075,118.36a.592.592,0,1,1-.592-.566A.58.58,0,0,1,466.075,118.36Z" transform="translate(-432.965 -117.794)" fill="#fff"/>
            <path id="Trazado_99281" data-name="Trazado 99281" d="M474.521,118.36a.592.592,0,1,1-.591-.566A.579.579,0,0,1,474.521,118.36Z" transform="translate(-436.09 -117.794)" fill="#fff"/>
            <path id="Trazado_99282" data-name="Trazado 99282" d="M482.966,118.36a.592.592,0,1,1-.591-.566A.579.579,0,0,1,482.966,118.36Z" transform="translate(-439.215 -117.794)" fill="#fff"/>
            <path id="Trazado_99283" data-name="Trazado 99283" d="M491.414,118.36a.592.592,0,1,1-.592-.566A.58.58,0,0,1,491.414,118.36Z" transform="translate(-442.341 -117.794)" fill="#fff"/>
            <path id="Trazado_99284" data-name="Trazado 99284" d="M499.86,118.36a.592.592,0,1,1-.592-.566A.579.579,0,0,1,499.86,118.36Z" transform="translate(-445.466 -117.794)" fill="#fff"/>
          </g>
          <g id="Grupo_53316" data-name="Grupo 53316" transform="translate(0 45.233)">
            <ellipse id="Elipse_3980" data-name="Elipse 3980" cx="0.591" cy="0.565" rx="0.591" ry="0.565" transform="translate(0 0)" fill="#fff"/>
            <path id="Trazado_99285" data-name="Trazado 99285" d="M423.842,125.868a.592.592,0,1,1-.591-.566A.578.578,0,0,1,423.842,125.868Z" transform="translate(-417.339 -125.302)" fill="#fff"/>
            <ellipse id="Elipse_3981" data-name="Elipse 3981" cx="0.591" cy="0.565" rx="0.591" ry="0.565" transform="translate(10.642 0)" fill="#fff"/>
            <path id="Trazado_99286" data-name="Trazado 99286" d="M440.736,125.868a.592.592,0,1,1-.592-.566A.579.579,0,0,1,440.736,125.868Z" transform="translate(-423.589 -125.302)" fill="#fff"/>
            <path id="Trazado_99287" data-name="Trazado 99287" d="M449.181,125.868a.592.592,0,1,1-.591-.566A.579.579,0,0,1,449.181,125.868Z" transform="translate(-426.715 -125.302)" fill="#fff"/>
            <ellipse id="Elipse_3982" data-name="Elipse 3982" cx="0.591" cy="0.565" rx="0.591" ry="0.565" transform="translate(26.606 0)" fill="#fff"/>
            <path id="Trazado_99288" data-name="Trazado 99288" d="M466.075,125.868a.592.592,0,1,1-.592-.566A.579.579,0,0,1,466.075,125.868Z" transform="translate(-432.965 -125.302)" fill="#fff"/>
            <ellipse id="Elipse_3983" data-name="Elipse 3983" cx="0.591" cy="0.565" rx="0.591" ry="0.565" transform="translate(37.248 0)" fill="#fff"/>
            <ellipse id="Elipse_3984" data-name="Elipse 3984" cx="0.591" cy="0.565" rx="0.591" ry="0.565" transform="translate(42.569 0)" fill="#fff"/>
            <path id="Trazado_99289" data-name="Trazado 99289" d="M491.414,125.868a.592.592,0,1,1-.592-.566A.579.579,0,0,1,491.414,125.868Z" transform="translate(-442.341 -125.302)" fill="#fff"/>
            <path id="Trazado_99290" data-name="Trazado 99290" d="M499.86,125.868a.592.592,0,1,1-.592-.566A.579.579,0,0,1,499.86,125.868Z" transform="translate(-445.466 -125.302)" fill="#fff"/>
          </g>
          <g id="Grupo_53317" data-name="Grupo 53317" transform="translate(0 49.757)">
            <ellipse id="Elipse_3985" data-name="Elipse 3985" cx="0.591" cy="0.565" rx="0.591" ry="0.565" transform="translate(0 0)" fill="#fff"/>
            <path id="Trazado_99291" data-name="Trazado 99291" d="M423.842,133.376a.592.592,0,1,1-.591-.566A.578.578,0,0,1,423.842,133.376Z" transform="translate(-417.339 -132.81)" fill="#fff"/>
            <ellipse id="Elipse_3986" data-name="Elipse 3986" cx="0.591" cy="0.565" rx="0.591" ry="0.565" transform="translate(10.642 0)" fill="#fff"/>
            <path id="Trazado_99292" data-name="Trazado 99292" d="M440.736,133.376a.592.592,0,1,1-.592-.566A.579.579,0,0,1,440.736,133.376Z" transform="translate(-423.589 -132.81)" fill="#fff"/>
            <path id="Trazado_99293" data-name="Trazado 99293" d="M449.181,133.376a.592.592,0,1,1-.591-.566A.579.579,0,0,1,449.181,133.376Z" transform="translate(-426.715 -132.81)" fill="#fff"/>
            <ellipse id="Elipse_3987" data-name="Elipse 3987" cx="0.591" cy="0.565" rx="0.591" ry="0.565" transform="translate(26.606 0)" fill="#fff"/>
            <path id="Trazado_99294" data-name="Trazado 99294" d="M466.075,133.376a.592.592,0,1,1-.592-.566A.579.579,0,0,1,466.075,133.376Z" transform="translate(-432.965 -132.81)" fill="#fff"/>
            <ellipse id="Elipse_3988" data-name="Elipse 3988" cx="0.591" cy="0.565" rx="0.591" ry="0.565" transform="translate(37.248 0)" fill="#fff"/>
            <ellipse id="Elipse_3989" data-name="Elipse 3989" cx="0.591" cy="0.565" rx="0.591" ry="0.565" transform="translate(42.569 0)" fill="#fff"/>
            <path id="Trazado_99295" data-name="Trazado 99295" d="M491.414,133.376a.592.592,0,1,1-.592-.566A.579.579,0,0,1,491.414,133.376Z" transform="translate(-442.341 -132.81)" fill="#fff"/>
            <path id="Trazado_99296" data-name="Trazado 99296" d="M499.86,133.376a.592.592,0,1,1-.592-.566A.579.579,0,0,1,499.86,133.376Z" transform="translate(-445.466 -132.81)" fill="#fff"/>
          </g>
        </g>
        <line id="Línea_138" data-name="Línea 138" y2="115.674" transform="translate(834.777 177.756)" fill="none" stroke="#fff" stroke-width="1" stroke-dasharray="8"/>
      </g>
    </g>
    <g id="Grupo_118205" data-name="Grupo 118205" transform="translate(200.373 2353.502)">
      <path id="Trazado_170668" data-name="Trazado 170668" d="M188.991,325.718l66.182-38.21c3.9-2.252,3.407-6.221-1.1-8.821l-62.527-36.1c-4.5-2.6-11.379-2.886-15.278-.634l-66.183,38.211c-3.9,2.252-3.407,6.221,1.1,8.821l62.525,36.1C178.214,327.684,185.091,327.971,188.991,325.718Z" transform="translate(43.777 34.011)" fill="#431ec0" opacity="0.8"/>
      <path id="Trazado_170669" data-name="Trazado 170669" d="M149.337,295.216,106.01,270.2c-2.992-1.728-7.562-1.918-10.154-.421l-9.82,5.67c-7.293-2.157-18.88-5.749-24.376-8.338-8.357-3.937-13.8-1.866-15.226,1.113-1.336,2.785,13.245,10.861,26.624,14.719l-.106.06c-2.592,1.5-2.263,4.134.729,5.862l43.328,25.015c2.994,1.728,7.562,1.918,10.154.421l22.9-13.224C152.658,299.581,152.331,296.944,149.337,295.216Z" transform="translate(5.468 49.375)" fill="#431ec0" opacity="0.8"/>
      <g id="Grupo_118137" data-name="Grupo 118137" transform="translate(157.998 232.947)">
        <g id="Grupo_118135" data-name="Grupo 118135" transform="translate(0 39.247)">
          <path id="Trazado_170670" data-name="Trazado 170670" d="M236.867,264.332c-.182-6.722-4.1-6.807-6.726-5.356-6.127,3.387-15.277,8.775-22.417,12.866l-12.106,6.934a54.235,54.235,0,0,1-8.667,4.432c-6.792,2.4-10.075,2.623-17.74-1.373-7.2-3.753-16.663-8.67-23.593-12.887-6.745-4.1-24.008-14.961-34-21.641v30.312c-.072,1.64,1.09,3.387,3.423,4.734l57.472,33.181c4.14,2.39,10.459,2.652,14.045.582l50.048-28.9C236.584,279.031,236.963,267.886,236.867,264.332Z" transform="translate(-111.615 -233.876)" fill="#ff5e4c"/>
          <path id="Trazado_170671" data-name="Trazado 170671" d="M249.764,282.148h.01v-43.1H169.211v.646H111.617v12.784c9.992,6.68,27.256,17.538,34,21.641,6.931,4.217,16.393,9.133,23.593,12.887,7.664,4,10.947,3.773,17.74,1.373a54.24,54.24,0,0,0,8.667-4.432l12.106-6.934c7.14-4.09,16.29-9.478,22.417-12.866,2.627-1.451,6.543-1.367,6.726,5.356.1,3.555-.283,14.7-.26,22.889l10.785-6.226C249.217,285.114,249.989,283.648,249.764,282.148Z" transform="translate(-111.614 -239.051)" fill="#ef4335"/>
        </g>
        <path id="Trazado_170672" data-name="Trazado 170672" d="M186.558,293.318,247.392,258.2c3.584-2.069,3.13-5.719-1.009-8.108l-57.472-33.181c-4.139-2.392-10.459-2.653-14.045-.582l-60.833,35.122c-3.584,2.069-3.13,5.719,1.009,8.108l57.472,33.181C176.652,295.125,182.973,295.387,186.558,293.318Z" transform="translate(-111.615 -214.927)" fill="#ff7166"/>
        <path id="Trazado_170673" data-name="Trazado 170673" d="M116.3,260.141a73.125,73.125,0,0,0-.465-7.62,2.821,2.821,0,0,0-1.093-2.195c-.724-.449-1.111-.007-1.111,1.851,0,4.523.129,9.06.252,13.577.068,2.463.086,4.933.2,7.393.068,1.4-.169,3.859.926,4.419.818.42.991-.683,1.014-1.023A160.8,160.8,0,0,0,116.3,260.141Z" transform="translate(-110.352 -192.837)" fill="#ff7166"/>
        <path id="Trazado_170674" data-name="Trazado 170674" d="M156.48,284.336c-.011-3.049.2-7.928,0-10.97-.1-1.555-2.706-2.507-2.912.1-.15,1.877-.488,13.638-.569,18.189-.016.922-.294,9.345,2.385,7.567.361-.241.407-1.4.439-1.672.179-1.461.311-2.927.41-4.393C156.433,290.224,156.491,287.279,156.48,284.336Z" transform="translate(-85.68 -179.248)" fill="#ff7166"/>
        <path id="Trazado_170675" data-name="Trazado 170675" d="M119.679,270.058a18.218,18.218,0,0,1-1.118-1.518,12.767,12.767,0,0,1-.8-1.851c-.1-.262-.542-.255-.527.072a5.622,5.622,0,0,0,1.832,3.77C119.378,270.784,119.962,270.447,119.679,270.058Z" transform="translate(-108.092 -182.594)" fill="#e5372e"/>
        <path id="Trazado_170676" data-name="Trazado 170676" d="M121.984,268.22c-.469-.037-.831.727-1.085,1.033a5.006,5.006,0,0,0-1.126,1.516c-.078.259.2.589.475.475a3.634,3.634,0,0,0,1.507-1.8C121.815,269.33,122.412,268.256,121.984,268.22Z" transform="translate(-106.509 -181.518)" fill="#e5372e"/>
        <path id="Trazado_170677" data-name="Trazado 170677" d="M129.517,273.326a11.5,11.5,0,0,0-2.206.044,11.613,11.613,0,0,0-2.18.008.219.219,0,0,0-.052.4,4.114,4.114,0,0,0,2.232.522,3.918,3.918,0,0,0,2.278-.415C129.792,273.755,129.787,273.371,129.517,273.326Z" transform="translate(-103.238 -178.347)" fill="#e5372e"/>
        <path id="Trazado_170678" data-name="Trazado 170678" d="M129.454,273.175c-.332-.506-.866-1.191-1.518-1.217a.179.179,0,0,0-.172.225c.2.522.7.911.971,1.412.294.555.35,1.2.639,1.747a.324.324,0,0,0,.586-.076A2.586,2.586,0,0,0,129.454,273.175Z" transform="translate(-101.497 -179.174)" fill="#e5372e"/>
        <path id="Trazado_170679" data-name="Trazado 170679" d="M149.854,272.236c-.164-.112-.438.078-.356.273a13.121,13.121,0,0,1,.566,1.334,5.82,5.82,0,0,0,.338,1.347.337.337,0,0,0,.578,0C151.43,274.255,150.64,272.774,149.854,272.236Z" transform="translate(-87.875 -179.021)" fill="#e5372e"/>
        <path id="Trazado_170680" data-name="Trazado 170680" d="M151.881,285.151a2.108,2.108,0,0,0-.664.6,9.635,9.635,0,0,1-.792.755c-.522.454-1.04.859-1.521,1.35a.131.131,0,0,0,.091.221,3.654,3.654,0,0,0,2.014-.813c.521-.389,1.334-.994,1.456-1.663A.4.4,0,0,0,151.881,285.151Z" transform="translate(-88.261 -170.931)" fill="#e5372e"/>
        <path id="Trazado_170681" data-name="Trazado 170681" d="M151.873,283.619c-.469-.338-1.334-.84-1.91-.525a.173.173,0,0,0-.063.236c.312.42.971.59,1.376.934.47.4.778.952,1.232,1.363a.307.307,0,0,0,.517-.215A2.358,2.358,0,0,0,151.873,283.619Z" transform="translate(-87.63 -172.256)" fill="#e5372e"/>
        <path id="Trazado_170682" data-name="Trazado 170682" d="M162.486,285.23a9.954,9.954,0,0,1-3.709.211c-.176-.028-.374.2-.2.34a3.277,3.277,0,0,0,4.207-.037A.31.31,0,0,0,162.486,285.23Z" transform="translate(-82.216 -170.858)" fill="#e5372e"/>
        <path id="Trazado_170683" data-name="Trazado 170683" d="M163.859,282.894c-.081-.114-.311-.128-.34.046-.089.543-.021,1.092-.142,1.64s-.447,1.046-.558,1.6c-.052.257.242.584.5.387A3.089,3.089,0,0,0,163.859,282.894Z" transform="translate(-79.518 -172.372)" fill="#e5372e"/>
        <path id="Trazado_170684" data-name="Trazado 170684" d="M185.854,256.927a4.631,4.631,0,0,0-1.806-.8.321.321,0,0,0-.171.618,3.9,3.9,0,0,1,1.5.89c.373.345.618.849,1.056,1.113a.336.336,0,0,0,.5-.288A2.237,2.237,0,0,0,185.854,256.927Z" transform="translate(-66.455 -189.105)" fill="#e5372e"/>
        <path id="Trazado_170685" data-name="Trazado 170685" d="M187.23,257.02a4.617,4.617,0,0,1-.6,2.009c-.291.543-.73.989-1.018,1.529-.116.22.086.587.363.472,1.507-.633,1.931-2.543,1.928-4.01A.338.338,0,0,0,187.23,257.02Z" transform="translate(-65.245 -188.743)" fill="#e5372e"/>
        <path id="Trazado_170686" data-name="Trazado 170686" d="M186.99,270.856a9.832,9.832,0,0,0-1.959.594,21.951,21.951,0,0,1-2.182.267c-.2.033-.2.316-.054.412,1.165.757,3.8.493,4.4-.908A.245.245,0,0,0,186.99,270.856Z" transform="translate(-67.058 -179.865)" fill="#e5372e"/>
        <path id="Trazado_170687" data-name="Trazado 170687" d="M186.945,269.661a7.205,7.205,0,0,0-1.573-1.287c-.488-.307-.9.441-.447.763a6.639,6.639,0,0,1,1.306,1.238c.338.418.537.918,1.054,1.131a.349.349,0,0,0,.431-.244A2.045,2.045,0,0,0,186.945,269.661Z" transform="translate(-65.781 -181.467)" fill="#e5372e"/>
        <path id="Trazado_170688" data-name="Trazado 170688" d="M181.1,271.832c-1.219.76-2.283,2.749-1.609,4.155a.3.3,0,0,0,.547-.072c.172-.641.124-1.316.309-1.96a6.589,6.589,0,0,1,1-1.881C181.446,271.927,181.247,271.741,181.1,271.832Z" transform="translate(-69.194 -179.268)" fill="#e5372e"/>
        <path id="Trazado_170689" data-name="Trazado 170689" d="M180.015,275.042a6.511,6.511,0,0,0-1.463-.174c-.521-.031-1.028-.169-1.549-.185a.215.215,0,0,0-.15.363,3.245,3.245,0,0,0,3.228.511A.284.284,0,0,0,180.015,275.042Z" transform="translate(-70.755 -177.467)" fill="#e5372e"/>
        <g id="Grupo_118136" data-name="Grupo 118136" transform="translate(10.251 64.573)">
          <path id="Trazado_170690" data-name="Trazado 170690" d="M122.14,267.256q.012.969.007,2.009t-.007,1.827q-1.079-.661-2.086-1.176t-2.084-1.175c-.029-.464-.046-.944-.05-1.437s0-.991,0-1.487.02-.973.044-1.432.059-.885.107-1.279q-.088-.991-.094-2.078c0-.726,0-1.45.015-2.178s.028-1.45.044-2.17.007-1.407-.023-2.063a15.688,15.688,0,0,1,1.7.778,14.4,14.4,0,0,1,1.8,1.126,13.127,13.127,0,0,1,1.624,1.4,6.553,6.553,0,0,1,1.18,1.6,7.273,7.273,0,0,1,.338.818,10.07,10.07,0,0,1,.288.973c.081.334.151.662.208.983s.1.608.115.862a6.961,6.961,0,0,1-.1,2.1,3.391,3.391,0,0,1-.626,1.391,1.876,1.876,0,0,1-1.041.674A2.563,2.563,0,0,1,122.14,267.256Zm-.948-4.629a.913.913,0,0,0,.7.285.513.513,0,0,0,.381-.345,1.736,1.736,0,0,0,.093-.742,3.326,3.326,0,0,0-.171-.9,3.211,3.211,0,0,0-.425-.84,1.345,1.345,0,0,0-.633-.519,13.6,13.6,0,0,0,.029,1.531A14,14,0,0,1,121.191,262.627Z" transform="translate(-117.916 -254.618)" fill="#fff"/>
          <path id="Trazado_170691" data-name="Trazado 170691" d="M128.747,268.714a18.154,18.154,0,0,1,1.432,3.472,31.074,31.074,0,0,1,.885,3.9,17.265,17.265,0,0,0-1.632-.626,9.246,9.246,0,0,1-1.69-.755q-.288-1.433-.677-2.758a13.959,13.959,0,0,0-.992-2.5,12.153,12.153,0,0,1,.029,2.048q-.073,1.013-.13,1.918a3.993,3.993,0,0,1-.757-.322q-.415-.22-.839-.464t-.828-.509l-.724-.465c-.047-1.152-.073-2.325-.078-3.526s0-2.4,0-3.6.023-2.4.037-3.61.026-2.388.036-3.545c0-.1.034-.155.1-.153q.971.542,2.025,1.2a20.221,20.221,0,0,1,2.022,1.435,14.057,14.057,0,0,1,1.768,1.69A7.47,7.47,0,0,1,130,263.531a6.129,6.129,0,0,1,.5,1.9,4.857,4.857,0,0,1-.116,1.659,2.576,2.576,0,0,1-.623,1.171A1.415,1.415,0,0,1,128.747,268.714Zm-2.4-2.728a.864.864,0,0,0,.626.2.531.531,0,0,0,.374-.312,1.427,1.427,0,0,0,.114-.633,2.345,2.345,0,0,0-.15-.769,2.474,2.474,0,0,0-.425-.722,1.56,1.56,0,0,0-.7-.48q.029.688.029,1.4A6.4,6.4,0,0,0,126.345,265.986Z" transform="translate(-114.89 -252.985)" fill="#fff"/>
          <path id="Trazado_170692" data-name="Trazado 170692" d="M132.447,262.13a6.947,6.947,0,0,1,1.661,1.1,9.1,9.1,0,0,1,1.35,1.508,10.928,10.928,0,0,1,1.03,1.764,12.311,12.311,0,0,1,.69,1.847,13.275,13.275,0,0,1,.532,3.431,9.718,9.718,0,0,1-.332,2.78,4.7,4.7,0,0,1-1,1.915,2.476,2.476,0,0,1-1.474.838,2.8,2.8,0,0,1-1.5-.3,8.355,8.355,0,0,1-1.7-1.059,11.321,11.321,0,0,1-1.576-1.524,7.366,7.366,0,0,1-1.1-1.659,10.553,10.553,0,0,1-.7-2.248,20.9,20.9,0,0,1-.4-2.787,16.884,16.884,0,0,1,0-2.722,5.542,5.542,0,0,1,.495-2.045,1.785,1.785,0,0,1,.252-.371c.111-.127.226-.252.347-.374a2.7,2.7,0,0,1,.364-.317,1.657,1.657,0,0,1,.347-.194,2.117,2.117,0,0,1,.545-.145,2.086,2.086,0,0,1,.6.02,4.039,4.039,0,0,1,.7.185C131.831,261.862,132.122,261.98,132.447,262.13Zm-.763,8.553a3.039,3.039,0,0,0,.669.74,1.955,1.955,0,0,0,.713.361,1.124,1.124,0,0,0,.641-.011.79.79,0,0,0,.452-.392,2.577,2.577,0,0,0,.288-1.308,4.48,4.48,0,0,0-.281-1.477,4.212,4.212,0,0,0-.755-1.288,2.37,2.37,0,0,0-1.121-.761.743.743,0,0,0-.864.229,2.022,2.022,0,0,0-.394,1.048,4.523,4.523,0,0,0,.078,1.435A4.125,4.125,0,0,0,131.684,270.683Z" transform="translate(-111.675 -250.27)" fill="#fff"/>
          <path id="Trazado_170693" data-name="Trazado 170693" d="M137.891,265.8q.373,1.635.763,3.21t.791,3.19a5.388,5.388,0,0,0,.488-.9c.145-.33.285-.672.425-1.02s.277-.7.41-1.048a8.512,8.512,0,0,1,.446-.979c.527.2,1.092.429,1.7.683a11.987,11.987,0,0,1,1.726.888q.056,3.314,0,6.854t-.059,7.071c-.247-.1-.521-.228-.818-.366s-.6-.293-.919-.456-.636-.342-.957-.534-.631-.392-.927-.6c-.011-.465-.008-.909.007-1.328s.029-.838.044-1.251.029-.833.042-1.259.016-.874.007-1.339a1.572,1.572,0,0,0-.482.423c-.138.181-.272.374-.4.573a5.483,5.483,0,0,1-.41.558,1.066,1.066,0,0,1-.516.353,10.35,10.35,0,0,1-.382-1.053c-.111-.364-.221-.734-.332-1.1s-.22-.734-.33-1.092-.233-.708-.368-1.054c-.026.405-.037.846-.026,1.326s.016.965.026,1.463.016.991.016,1.476-.02.935-.059,1.347q-.861-.383-1.747-.827t-1.832-1.03q0-1.667.013-3.443c.01-1.184.028-2.364.05-3.547s.049-2.353.072-3.516.046-2.279.065-3.355a10.113,10.113,0,0,1,1.705.773Q137.029,265.4,137.891,265.8Z" transform="translate(-107.7 -248.66)" fill="#fff"/>
          <path id="Trazado_170694" data-name="Trazado 170694" d="M145.607,269.726a6.952,6.952,0,0,1,1.659,1.1,9.19,9.19,0,0,1,1.352,1.51,10.917,10.917,0,0,1,1.028,1.764,12.311,12.311,0,0,1,.69,1.846,13.2,13.2,0,0,1,.532,3.431,9.728,9.728,0,0,1-.33,2.78,4.732,4.732,0,0,1-1,1.915,2.476,2.476,0,0,1-1.474.838,2.809,2.809,0,0,1-1.5-.3,8.4,8.4,0,0,1-1.7-1.059,11.4,11.4,0,0,1-1.575-1.524,7.35,7.35,0,0,1-1.1-1.659,10.606,10.606,0,0,1-.7-2.248,21.167,21.167,0,0,1-.4-2.787,17.263,17.263,0,0,1,0-2.722,5.539,5.539,0,0,1,.5-2.045,1.786,1.786,0,0,1,.252-.371c.109-.127.225-.254.345-.376a2.679,2.679,0,0,1,.366-.316,1.646,1.646,0,0,1,.345-.194,2.065,2.065,0,0,1,.547-.145,2.135,2.135,0,0,1,.6.018,4.183,4.183,0,0,1,.7.187C144.991,269.458,145.28,269.578,145.607,269.726Zm-.763,8.553a2.948,2.948,0,0,0,.669.74,1.929,1.929,0,0,0,.711.363,1.144,1.144,0,0,0,.643-.013.8.8,0,0,0,.452-.391,2.617,2.617,0,0,0,.288-1.31,4.519,4.519,0,0,0-.281-1.476,4.164,4.164,0,0,0-.757-1.289,2.374,2.374,0,0,0-1.121-.763.744.744,0,0,0-.862.231,2.022,2.022,0,0,0-.4,1.046,4.518,4.518,0,0,0,.078,1.435A4.1,4.1,0,0,0,144.844,278.279Z" transform="translate(-103.425 -245.507)" fill="#fff"/>
        </g>
      </g>
      <g id="Grupo_118192" data-name="Grupo 118192" transform="translate(52.724 219.14)">
        <g id="Grupo_118139" data-name="Grupo 118139">
          <path id="Trazado_170695" data-name="Trazado 170695" d="M52.3,235.193c4.077-1.84,6.1-8.068,6.574-12.073.478-4.057-.181-8.439,1.385-12.312a6.517,6.517,0,0,1,6.851-4.357A6.88,6.88,0,0,1,71.464,208a2.813,2.813,0,0,1,1.155,2.719c0,.042,0,.081,0,.125a.045.045,0,0,1-.042.041,3.085,3.085,0,0,1-.072.312,2.781,2.781,0,0,1-.644.984,1.722,1.722,0,0,1-.124.12,2.376,2.376,0,0,1-2.019.73c-1.214.21-2.523.3-3.148.89-1.489,1.407-1.025,4.666-1.275,6.534-.247,1.84-.412,5.053-.823,6.862C63.408,232.024,58.6,236.99,52.3,235.193Z" transform="translate(-43.526 -206.441)" fill="#2c1d1b"/>
          <path id="Trazado_170696" data-name="Trazado 170696" d="M68.832,209.517s-1.775-2.414-4.15-.82c-3.146,2.115-2.227,4.279-1.415,4.85S68.832,209.517,68.832,209.517Z" transform="translate(-37.141 -205.368)" fill="#ff5e4c"/>
          <path id="Trazado_170697" data-name="Trazado 170697" d="M54.271,262.247l-1.45,3.129s.748,2.1,1.371,3.351,1.687,1.058,2.621,2.628-.107,2.553-3.01,2.66-3.529-1.35-4.422-3.254-2.245-4.35-2.265-5.928c-.033-2.481,2.1-2.4,3.343-3.259C51.258,261.025,54.271,262.247,54.271,262.247Z" transform="translate(-46.775 -171.966)" fill="#ffc9b6"/>
          <path id="Trazado_170698" data-name="Trazado 170698" d="M74.875,269.814a4.357,4.357,0,0,0,3.651,3.146c3.145.521,3.846.008,5.235.932s-.56,2.689-2.091,3.779c-2.245,1.6-4.842.839-6.493.472-2.209-.491-4.49-1.238-4.375-3.421a6.855,6.855,0,0,0-.774-3.643S74.068,267.775,74.875,269.814Z" transform="translate(-32.412 -167.128)" fill="#ffc9b6"/>
          <path id="Trazado_170699" data-name="Trazado 170699" d="M78.637,271.525a1.932,1.932,0,0,1-1.243,1.658c-1.274.623-3.82.727-4.747.052a15.722,15.722,0,0,0-2.12-1.241s-.944,2.579,2.143,3.984,4.768,2.413,7.908,1.456,5.139-3,3.43-5.022C83.167,271.42,78.637,271.525,78.637,271.525Z" transform="translate(-32.184 -165.641)" fill="#51353a"/>
          <g id="Grupo_118138" data-name="Grupo 118138" transform="translate(2.804 47.287)">
            <path id="Trazado_170700" data-name="Trazado 170700" d="M55.421,267.223a10.184,10.184,0,0,1,4.085-1.529c-3.843-6.685-3.879-13.4-2.375-20.911.416-2.079,1.279-6.931,3.421-8.069.862-.457,10.962-.088,11.979-.4l.062-.018a61,61,0,0,1,2.1,9.024,5.207,5.207,0,0,1-3.334,5.574,32.077,32.077,0,0,1-.621,4.389c-.909,4.3-2.761,10.417-5.331,13.93.2,2.364-1.357,2.987-3.3,3.452-1.511.363-7.09,6.008-10.235,8.468-.015-.007-3.242-.381-3.242-3.46C50.543,275.293,50.756,270.43,55.421,267.223Z" transform="translate(-48.63 -235.011)" fill="#5cabe5"/>
            <path id="Trazado_170701" data-name="Trazado 170701" d="M66.175,245.816a61,61,0,0,0-2.1-9.024c1.845-.561,4.376-.983,5.039-1.285,6,8.927,7.77,20.369,7.881,31.046,1.406,2.226.888,5.108.862,7.653-.05,4.928,1.114,9.87,1.689,14.764.08.685.34,1.663.529,2.681a16.05,16.05,0,0,1-4.8,1.292c-1.685-4.964-4.777-10.347-5.624-15.566a17.048,17.048,0,0,1-.194-4.277c.12-1.316.789-2.719.294-4a23.349,23.349,0,0,0-2.245-3.218c-.971-1.533-1.851-3.119-2.676-4.733-.879-1.723-1.777-3.522-2.6-5.367a32.075,32.075,0,0,0,.621-4.389A5.207,5.207,0,0,0,66.175,245.816Z" transform="translate(-40.11 -235.506)" fill="#4b94dd"/>
          </g>
          <path id="Trazado_170702" data-name="Trazado 170702" d="M77.907,219.824c-2.7-3.42-4.266-2.99-7.531-1.121-4,2.291-7.526,3.172-9.277,4.629-2.971,2.468-4.394,8.117-4.9,14.517a36.624,36.624,0,0,1-1.007,5.258c-1.23,3.495-.63,4.07.244,4.886-.48.472-.95,2.517.057,3.107,4.629,2.717,14.914,3.2,18.491-3.379.221-.408-.356-1.83-.639-2.2a2.9,2.9,0,0,0,1.275-2.416,5.1,5.1,0,0,0,2.858-3.8c2.748-.62,5.709-2.164,4.816-5.478-.436-1.617-1.8-5.3-2.312-7.165C78.963,222.97,78.678,220.8,77.907,219.824Z" transform="translate(-42.149 -199.651)" fill="#ff5e4c"/>
          <path id="Trazado_170703" data-name="Trazado 170703" d="M70.9,223.178c-.753-.124-2.719-1.127-2.131-4.775.164-1.022-4.428-3.766-4.425-3.621.047,3.306-.47,7.08-1.985,8.8,2.183,2.281,4.679,8.063,8.416,7.269C72.823,230.412,72.38,227.386,70.9,223.178Z" transform="translate(-37.222 -201.215)" fill="#ffb9a4"/>
          <path id="Trazado_170704" data-name="Trazado 170704" d="M69.822,219.242s.659,3.42,1.088,4.661,1.326,4.075,1.326,4.075-1.212-.641-1.882-.306-1.2,1.223-1.775,1.367a3.615,3.615,0,0,1-1.319,0l-.4-1.576s1.2-.335,1.245-2.343-.19-4.731-.19-4.731Z" transform="translate(-34.4 -198.415)" fill="#ef4335"/>
          <path id="Trazado_170705" data-name="Trazado 170705" d="M64.14,218.4c.026.059,1.017,2.385,1.982,4.147a19.38,19.38,0,0,0,4.2,4.668,3.7,3.7,0,0,1,1.023,3.584s-.591-1.417-1.36-1.2a7.751,7.751,0,0,0-2.466,1.7c-.669-1.079-2.276-2.17-3.381-4.044-1.074-1.822-2.769-4.973-2.143-7.168S64.14,218.4,64.14,218.4Z" transform="translate(-37.531 -198.976)" fill="#ef4335"/>
          <path id="Trazado_170706" data-name="Trazado 170706" d="M74.372,212.474c-2.928-.657-4.458-.778-7.058.275a14.519,14.519,0,0,0-4.157,1.91.366.366,0,0,0-.161.332c.669,3.856,1.962,7.944,6.29,9.656,3.56,1.407,5.556-2.5,6.174-5.115C76.182,216.481,76.4,212.929,74.372,212.474Z" transform="translate(-36.822 -202.975)" fill="#ffc9b6"/>
          <path id="Trazado_170707" data-name="Trazado 170707" d="M65.438,210.513a6.684,6.684,0,0,1,8.247-.423c2.037,1.656,3.667,4.114,2.751,6.755-.957.19-2.315-.661-2.961-1.212a6.75,6.75,0,0,1-5.785,2.5c-.5,1.609-1.568,5.143-3.037,5.045C61.712,217.122,60.944,214.151,65.438,210.513Z" transform="translate(-37.284 -204.919)" fill="#3f2a28"/>
          <path id="Trazado_170708" data-name="Trazado 170708" d="M67.006,216.238s-.7-2.367-2.242-1.152.641,3.613.641,3.613Z" transform="translate(-36.058 -201.238)" fill="#ffc9b6"/>
          <path id="Trazado_170709" data-name="Trazado 170709" d="M54.324,268.267s.2.55,1.655,1.52a3.7,3.7,0,0,1,1.843,2.99c0,.778-1.687,1.866-3.953,1.711a5.016,5.016,0,0,1-4.677-3.189c-1.088-2.177-2.662-7.028-2.2-8.1.257-.6,1.189-.869,1.4-1.031a3.866,3.866,0,0,0-.055,2.06,17.436,17.436,0,0,0,1.866,4.11,2.351,2.351,0,0,0,3.075,1.048A1.77,1.77,0,0,0,54.324,268.267Z" transform="translate(-46.907 -171.507)" fill="#51353a"/>
        </g>
        <g id="Grupo_118189" data-name="Grupo 118189" transform="translate(26.418 34.016)">
          <g id="Grupo_118140" data-name="Grupo 118140" transform="translate(63.763 83.362)">
            <path id="Trazado_170710" data-name="Trazado 170710" d="M109.631,284.864a7.11,7.11,0,0,0-2.971-5.675,2.711,2.711,0,0,0-1.3-.361,3.612,3.612,0,0,0-1.9.534,2.741,2.741,0,0,0-1.061,1.889l3.337,6.854a2.524,2.524,0,0,0,2.178-.078,3.4,3.4,0,0,0,1.29-1.342,4.519,4.519,0,0,0,.246-.569A4,4,0,0,0,109.631,284.864Z" transform="translate(-102.3 -278.439)" fill="#2c1d1b"/>
            <path id="Trazado_170711" data-name="Trazado 170711" d="M102.338,281.909a7.115,7.115,0,0,0,2.971,5.675c1.64.947,2.969-.059,2.969-2.245a7.111,7.111,0,0,0-2.969-5.675C103.669,278.717,102.338,279.723,102.338,281.909Z" transform="translate(-102.338 -278.138)" fill="#422c2a"/>
            <path id="Trazado_170712" data-name="Trazado 170712" d="M103.036,281.987a3.9,3.9,0,0,0,1.627,3.107c.9.519,1.627-.031,1.627-1.23a3.9,3.9,0,0,0-1.627-3.107C103.765,280.238,103.036,280.788,103.036,281.987Z" transform="translate(-101.9 -277.352)" fill="#fff"/>
            <path id="Trazado_170713" data-name="Trazado 170713" d="M103.212,282.1a2.318,2.318,0,0,0,.968,1.85c.534.308.968-.02.968-.732a2.323,2.323,0,0,0-.968-1.85C103.645,281.056,103.212,281.383,103.212,282.1Z" transform="translate(-101.79 -276.922)" fill="#422c2a"/>
            <path id="Trazado_170714" data-name="Trazado 170714" d="M103.478,284.322a14.569,14.569,0,0,1-.384-3.869c.039-1.362.509-2.1,2.317-1.8a5.641,5.641,0,0,1,3.815,3.84c.264.867.34,1.067-.939,1.581C107.254,284.49,103.976,286.071,103.478,284.322Z" transform="translate(-101.867 -278.589)" fill="#fff"/>
          </g>
          <g id="Grupo_118141" data-name="Grupo 118141" transform="translate(38.78 83.849)">
            <rect id="Rectángulo_37064" data-name="Rectángulo 37064" width="24.659" height="0.734" transform="matrix(0.864, -0.504, 0.504, 0.864, 0, 12.432)" fill="#d8c4c3"/>
          </g>
          <g id="Grupo_118142" data-name="Grupo 118142" transform="translate(31.5 79.37)">
            <rect id="Rectángulo_37065" data-name="Rectángulo 37065" width="24.66" height="0.734" transform="matrix(0.864, -0.504, 0.504, 0.864, 0, 12.432)" fill="#d8c4c3"/>
          </g>
          <g id="Grupo_118143" data-name="Grupo 118143" transform="translate(23.446 75.397)">
            <rect id="Rectángulo_37066" data-name="Rectángulo 37066" width="24.659" height="0.734" transform="matrix(0.864, -0.504, 0.504, 0.864, 0, 12.432)" fill="#d8c4c3"/>
          </g>
          <g id="Grupo_118144" data-name="Grupo 118144" transform="translate(16.165 70.921)">
            <rect id="Rectángulo_37067" data-name="Rectángulo 37067" width="24.66" height="0.734" transform="translate(0 12.428) rotate(-30.265)" fill="#d8c4c3"/>
          </g>
          <path id="Trazado_170715" data-name="Trazado 170715" d="M125.6,289.286,85.709,266.257l-.3-.187-.2.293a5.6,5.6,0,0,1-.392.511l-.2.389,40.272,23.244c1.453.839,2.286,1.907,2.286,2.927a2.561,2.561,0,0,1-1.51,2.1l-11.631,6.714c-2.572,1.484-7.111,1.284-10.116-.449L69.146,281.721c-.278.371-.552.743-.835,1.11l34.905,20.19a13.315,13.315,0,0,0,6.475,1.617,10.318,10.318,0,0,0,5.053-1.168l11.629-6.716a3.89,3.89,0,0,0,2.216-3.32C128.589,291.9,127.5,290.384,125.6,289.286Z" transform="translate(-59.906 -203.075)" fill="#d8c4c3"/>
          <g id="Grupo_118185" data-name="Grupo 118185">
            <path id="Trazado_170716" data-name="Trazado 170716" d="M134.587,283.63l-20.17,11.645c-2.283,1.318-6.306,1.152-8.941-.369l-38.157-22.03c-2.636-1.523-2.924-3.846-.641-5.164l20.17-11.645c2.283-1.318,6.306-1.15,8.941.371l38.156,22.03C136.58,279.991,136.869,282.313,134.587,283.63Z" transform="translate(-61.897 -209.903)" fill="#e5d5d1"/>
            <g id="Grupo_118145" data-name="Grupo 118145" transform="translate(2.871 44.913)">
              <path id="Trazado_170717" data-name="Trazado 170717" d="M110.676,296.67a10.767,10.767,0,0,1-5.244-1.306l-38.157-22.03a4.035,4.035,0,0,1-2.366-3.239,3.014,3.014,0,0,1,1.725-2.559L86.8,255.89c2.39-1.38,6.565-1.212,9.309.371l38.156,22.03a4.035,4.035,0,0,1,2.366,3.241,3.009,3.009,0,0,1-1.723,2.556L114.74,295.735A8.293,8.293,0,0,1,110.676,296.67ZM90.871,255.679a7.537,7.537,0,0,0-3.7.848L67,268.172a2.317,2.317,0,0,0-1.355,1.923,3.356,3.356,0,0,0,2,2.6l38.157,22.03c2.541,1.467,6.387,1.633,8.574.371l20.17-11.645a2.314,2.314,0,0,0,1.355-1.921,3.352,3.352,0,0,0-2-2.6L95.746,256.9A10.028,10.028,0,0,0,90.871,255.679Z" transform="translate(-64.91 -254.955)" fill="#fff"/>
            </g>
            <path id="Trazado_170718" data-name="Trazado 170718" d="M84.3,235.34c-1.541-2.323-4.24-1.861-6.047-.817l-4.3,2.432c.164.283.324.571.478.861l4.316-2.44c1.484-.857,3.706-1.071,4.877.711l32.309,45.695.856-.5Z" transform="translate(-56.371 -223.39)" fill="#d8c4c3"/>
            <g id="Grupo_118146" data-name="Grupo 118146" transform="translate(2.871 18.405)">
              <path id="Trazado_170719" data-name="Trazado 170719" d="M69.456,253.231l-1.812-1.046a3.354,3.354,0,0,1-2-2.6A2.318,2.318,0,0,1,67,247.659l2.455-1.417v-.848l-2.821,1.629a3.016,3.016,0,0,0-1.725,2.559,4.035,4.035,0,0,0,2.366,3.239l2.18,1.259Z" transform="translate(-64.91 -234.442)" fill="#fff"/>
              <path id="Trazado_170720" data-name="Trazado 170720" d="M132.226,262,94.07,239.968c-2.745-1.583-6.919-1.751-9.309-.371l-16.59,9.578v.849l16.957-9.791a7.538,7.538,0,0,1,3.7-.848A10.028,10.028,0,0,1,93.7,240.6l38.156,22.03a3.353,3.353,0,0,1,2,2.6,2.316,2.316,0,0,1-1.357,1.923l-18.75,10.825v.848L132.868,267.8a3.012,3.012,0,0,0,1.723-2.559A4.035,4.035,0,0,0,132.226,262Z" transform="translate(-62.866 -238.662)" fill="#fff"/>
            </g>
            <g id="Grupo_118147" data-name="Grupo 118147" transform="translate(2.871 25.48)">
              <path id="Trazado_170721" data-name="Trazado 170721" d="M69.456,257.58l-1.812-1.046a3.356,3.356,0,0,1-2-2.6A2.315,2.315,0,0,1,67,252.008l2.455-1.417v-.849l-2.821,1.629a3.018,3.018,0,0,0-1.725,2.559,4.039,4.039,0,0,0,2.366,3.241l2.18,1.258Z" transform="translate(-64.91 -238.791)" fill="#fff"/>
              <path id="Trazado_170722" data-name="Trazado 170722" d="M132.226,266.346,94.07,244.316c-2.745-1.583-6.921-1.749-9.309-.371l-16.59,9.579v.848l16.957-9.791a7.538,7.538,0,0,1,3.7-.848,10.028,10.028,0,0,1,4.876,1.219l38.156,22.03a3.355,3.355,0,0,1,2,2.6,2.32,2.32,0,0,1-1.357,1.923l-18.75,10.825v.846l19.118-11.037a3.009,3.009,0,0,0,1.723-2.557A4.039,4.039,0,0,0,132.226,266.346Z" transform="translate(-62.866 -243.011)" fill="#fff"/>
            </g>
            <g id="Grupo_118148" data-name="Grupo 118148" transform="translate(2.871 32.554)">
              <path id="Trazado_170723" data-name="Trazado 170723" d="M69.456,261.928l-1.812-1.046a3.356,3.356,0,0,1-2-2.6A2.318,2.318,0,0,1,67,256.356l2.455-1.417v-.848l-2.821,1.629a3.014,3.014,0,0,0-1.725,2.559,4.035,4.035,0,0,0,2.366,3.239l2.18,1.259Z" transform="translate(-64.91 -243.139)" fill="#fff"/>
              <path id="Trazado_170724" data-name="Trazado 170724" d="M132.226,270.7,94.07,248.665c-2.745-1.585-6.919-1.751-9.309-.371l-16.59,9.578v.848l16.957-9.789a7.537,7.537,0,0,1,3.7-.848A10.028,10.028,0,0,1,93.7,249.3l38.156,22.03a3.352,3.352,0,0,1,2,2.6,2.318,2.318,0,0,1-1.357,1.923l-18.75,10.825v.848l19.118-11.037a3.014,3.014,0,0,0,1.723-2.559A4.035,4.035,0,0,0,132.226,270.7Z" transform="translate(-62.866 -247.359)" fill="#fff"/>
            </g>
            <g id="Grupo_118149" data-name="Grupo 118149" transform="translate(8.177 39.628)">
              <path id="Trazado_170725" data-name="Trazado 170725" d="M132.226,275.043,94.07,253.013c-2.745-1.583-6.919-1.751-9.309-.371l-16.59,9.579v.848l16.957-9.791a7.537,7.537,0,0,1,3.7-.848,10.028,10.028,0,0,1,4.876,1.219l38.156,22.03a3.355,3.355,0,0,1,2,2.6,2.321,2.321,0,0,1-1.357,1.925l-18.75,10.824v.848l19.118-11.037a3.012,3.012,0,0,0,1.723-2.559A4.037,4.037,0,0,0,132.226,275.043Z" transform="translate(-68.171 -251.708)" fill="#fff"/>
            </g>
            <g id="Grupo_118154" data-name="Grupo 118154" transform="translate(6.389 19.886)">
              <g id="Grupo_118150" data-name="Grupo 118150" transform="translate(17.403)">
                <rect id="Rectángulo_37068" data-name="Rectángulo 37068" width="0.734" height="26.507" fill="#fff"/>
              </g>
              <g id="Grupo_118151" data-name="Grupo 118151" transform="translate(11.66 3.545)">
                <rect id="Rectángulo_37069" data-name="Rectángulo 37069" width="0.734" height="26.054" fill="#fff"/>
              </g>
              <g id="Grupo_118152" data-name="Grupo 118152" transform="translate(5.83 6.765)">
                <rect id="Rectángulo_37070" data-name="Rectángulo 37070" width="0.734" height="26.507" fill="#fff"/>
              </g>
              <g id="Grupo_118153" data-name="Grupo 118153" transform="translate(0 9.985)">
                <rect id="Rectángulo_37071" data-name="Rectángulo 37071" width="0.734" height="26.507" fill="#fff"/>
              </g>
            </g>
            <g id="Grupo_118163" data-name="Grupo 118163" transform="translate(29.905 18.812)">
              <g id="Grupo_118155" data-name="Grupo 118155" transform="translate(6.114 2.8)">
                <rect id="Rectángulo_37072" data-name="Rectángulo 37072" width="0.734" height="26.507" fill="#fff"/>
              </g>
              <g id="Grupo_118156" data-name="Grupo 118156">
                <rect id="Rectángulo_37073" data-name="Rectángulo 37073" width="0.734" height="26.507" fill="#fff"/>
              </g>
              <g id="Grupo_118157" data-name="Grupo 118157" transform="translate(11.943 6.472)">
                <rect id="Rectángulo_37074" data-name="Rectángulo 37074" width="0.735" height="26.059" fill="#fff"/>
              </g>
              <g id="Grupo_118158" data-name="Grupo 118158" transform="translate(17.774 9.289)">
                <rect id="Rectángulo_37075" data-name="Rectángulo 37075" width="0.734" height="26.507" fill="#fff"/>
              </g>
              <g id="Grupo_118159" data-name="Grupo 118159" transform="translate(23.604 12.961)">
                <rect id="Rectángulo_37076" data-name="Rectángulo 37076" width="0.734" height="26.507" fill="#fff"/>
              </g>
              <g id="Grupo_118160" data-name="Grupo 118160" transform="translate(29.347 16.053)">
                <rect id="Rectángulo_37077" data-name="Rectángulo 37077" width="0.734" height="26.507" fill="#fff"/>
              </g>
              <g id="Grupo_118161" data-name="Grupo 118161" transform="translate(35.177 19.725)">
                <rect id="Rectángulo_37078" data-name="Rectángulo 37078" width="0.734" height="26.507" fill="#fff"/>
              </g>
              <g id="Grupo_118162" data-name="Grupo 118162" transform="translate(41.007 22.946)">
                <rect id="Rectángulo_37079" data-name="Rectángulo 37079" width="0.734" height="26.507" fill="#fff"/>
              </g>
            </g>
            <g id="Grupo_118165" data-name="Grupo 118165" transform="translate(12.327)">
              <path id="Trazado_170726" data-name="Trazado 170726" d="M125.115,227.349l24.314,31.829L97.086,296.27,72.772,264.441Z" transform="translate(-69.437 -227.349)" fill="#ad612d"/>
              <path id="Trazado_170727" data-name="Trazado 170727" d="M123.065,228.832l24.314,31.829L95.036,297.752,70.722,265.923Z" transform="translate(-70.722 -226.42)" fill="#d68045"/>
              <path id="Trazado_170728" data-name="Trazado 170728" d="M107.4,230.953l10.109,12.982L104.39,253.1,94.281,240.12Z" transform="translate(-55.953 -225.09)" fill="#ea965e"/>
              <g id="Grupo_118164" data-name="Grupo 118164" transform="translate(5.407 19.547)">
                <path id="Trazado_170729" data-name="Trazado 170729" d="M105.947,242.675l13.637,17.851-29.357,20.8L76.591,263.477Z" transform="translate(-72.45 -237.289)" fill="#66444b"/>
                <path id="Trazado_170730" data-name="Trazado 170730" d="M103.4,239.364l1.861,2.678-29.357,20.8-1.861-2.677Z" transform="translate(-74.046 -239.364)" fill="#66444b"/>
                <path id="Trazado_170731" data-name="Trazado 170731" d="M103.278,258.8l1.128,1.482-12.14,8.6L91.137,267.4Z" transform="translate(-63.331 -227.179)" fill="#66444b"/>
                <path id="Trazado_170732" data-name="Trazado 170732" d="M96.6,257.135l4.264,5.582-5.979,4.421-4.355-5.7Z" transform="translate(-63.711 -228.224)" fill="#66444b"/>
                <path id="Trazado_170733" data-name="Trazado 170733" d="M104.856,243.839l11.957,15.653L89.844,278.706,77.887,263.053Z" transform="translate(-71.638 -236.559)" fill="#51353a"/>
              </g>
              <path id="Trazado_170734" data-name="Trazado 170734" d="M111.467,240.142l9.935,13.005-5.661,3.933-9.935-13.005Z" transform="translate(-48.728 -219.33)" fill="#51353a"/>
              <path id="Trazado_170735" data-name="Trazado 170735" d="M106.917,243.3l4.175,5.472-5.661,3.933-4.175-5.472Z" transform="translate(-51.58 -217.349)" fill="#51353a"/>
              <path id="Trazado_170736" data-name="Trazado 170736" d="M110.3,247.633l.723.948-5.661,3.933-.723-.948Z" transform="translate(-49.462 -214.633)" fill="#51353a"/>
              <path id="Trazado_170737" data-name="Trazado 170737" d="M111.083,248.62l.723.948-5.661,3.933-.723-.948Z" transform="translate(-48.968 -214.014)" fill="#51353a"/>
              <path id="Trazado_170738" data-name="Trazado 170738" d="M111.793,249.628l.723.948-5.661,3.933-.723-.948Z" transform="translate(-48.524 -213.382)" fill="#51353a"/>
            </g>
            <g id="Grupo_118166" data-name="Grupo 118166" transform="translate(2.871 20.804)">
              <path id="Trazado_170739" data-name="Trazado 170739" d="M131.367,268.069l-16.993,9.812c-2.187,1.262-6.033,1.1-8.574-.371L67.643,255.48a3.354,3.354,0,0,1-2-2.6A2.318,2.318,0,0,1,67,250.954l17.268-9.97v-.848L66.635,250.318a3.016,3.016,0,0,0-1.725,2.559,4.035,4.035,0,0,0,2.366,3.239l38.157,22.03a10.767,10.767,0,0,0,5.244,1.306,8.275,8.275,0,0,0,4.064-.935l16.627-9.6Z" transform="translate(-64.91 -240.137)" fill="#fff"/>
            </g>
            <g id="Grupo_118167" data-name="Grupo 118167" transform="translate(2.871 27.878)">
              <path id="Trazado_170740" data-name="Trazado 170740" d="M108.369,257.83l-2.143-1.236v.848L108,258.467a3.355,3.355,0,0,1,2,2.6,2.32,2.32,0,0,1-1.357,1.923l-2.418,1.394v.848l2.785-1.607a3.009,3.009,0,0,0,1.723-2.557A4.039,4.039,0,0,0,108.369,257.83Z" transform="translate(-39.009 -236.894)" fill="#fff"/>
              <path id="Trazado_170741" data-name="Trazado 170741" d="M131.367,272.419l-16.993,9.812c-2.187,1.262-6.034,1.1-8.574-.371L67.643,259.83a3.356,3.356,0,0,1-2-2.6A2.315,2.315,0,0,1,67,255.3l17.268-9.97v-.849L66.635,254.666a3.018,3.018,0,0,0-1.725,2.559,4.039,4.039,0,0,0,2.366,3.241l38.157,22.028a10.767,10.767,0,0,0,5.244,1.306,8.279,8.279,0,0,0,4.064-.935l16.627-9.6Z" transform="translate(-64.91 -244.485)" fill="#fff"/>
            </g>
            <g id="Grupo_118168" data-name="Grupo 118168" transform="translate(2.871 40.509)">
              <path id="Trazado_170742" data-name="Trazado 170742" d="M114.374,284.437c-2.187,1.262-6.033,1.1-8.574-.371l-38.157-22.03a3.356,3.356,0,0,1-2-2.6A2.318,2.318,0,0,1,67,257.51l7.646-4.414v-.848l-8.012,4.625a3.014,3.014,0,0,0-1.725,2.559,4.035,4.035,0,0,0,2.366,3.239l38.157,22.03a10.771,10.771,0,0,0,5.244,1.306,8.276,8.276,0,0,0,4.064-.935l16.627-9.6v-.848Z" transform="translate(-64.91 -252.249)" fill="#fff"/>
              <path id="Trazado_170743" data-name="Trazado 170743" d="M108.369,262.179l-2.143-1.236v.848L108,262.816a3.353,3.353,0,0,1,2,2.6,2.318,2.318,0,0,1-1.357,1.923l-2.418,1.4v.848l2.785-1.607a3.014,3.014,0,0,0,1.723-2.559A4.035,4.035,0,0,0,108.369,262.179Z" transform="translate(-39.009 -246.799)" fill="#fff"/>
            </g>
            <g id="Grupo_118169" data-name="Grupo 118169" transform="translate(2.871 46.78)">
              <path id="Trazado_170744" data-name="Trazado 170744" d="M108.369,266.527l-2.143-1.236v.848L108,267.164a3.355,3.355,0,0,1,2,2.6,2.321,2.321,0,0,1-1.357,1.925l-2.418,1.394v.848l2.785-1.607a3.012,3.012,0,0,0,1.723-2.559A4.037,4.037,0,0,0,108.369,266.527Z" transform="translate(-39.009 -250.343)" fill="#fff"/>
              <path id="Trazado_170745" data-name="Trazado 170745" d="M114.374,289.095c-2.187,1.264-6.033,1.1-8.574-.371l-38.157-22.03a3.354,3.354,0,0,1-2-2.6A2.32,2.32,0,0,1,67,262.168l9.039-5.217V256.1l-9.405,5.429a3.016,3.016,0,0,0-1.725,2.559,4.035,4.035,0,0,0,2.366,3.239l38.157,22.03a10.767,10.767,0,0,0,5.244,1.306,8.276,8.276,0,0,0,4.064-.935l16.627-9.6v-.848Z" transform="translate(-64.91 -256.103)" fill="#fff"/>
            </g>
            <g id="Grupo_118174" data-name="Grupo 118174" transform="translate(53.466 48.159)">
              <g id="Grupo_118170" data-name="Grupo 118170" transform="translate(17.403)">
                <rect id="Rectángulo_37080" data-name="Rectángulo 37080" width="0.734" height="26.507" fill="#fff"/>
              </g>
              <g id="Grupo_118171" data-name="Grupo 118171" transform="translate(11.66 3.093)">
                <rect id="Rectángulo_37081" data-name="Rectángulo 37081" width="0.734" height="26.507" fill="#fff"/>
              </g>
              <g id="Grupo_118172" data-name="Grupo 118172" transform="translate(5.83 6.765)">
                <rect id="Rectángulo_37082" data-name="Rectángulo 37082" width="0.734" height="26.507" fill="#fff"/>
              </g>
              <g id="Grupo_118173" data-name="Grupo 118173" transform="translate(0 9.985)">
                <rect id="Rectángulo_37083" data-name="Rectángulo 37083" width="0.734" height="26.507" fill="#fff"/>
              </g>
            </g>
            <g id="Grupo_118182" data-name="Grupo 118182" transform="translate(6.389 37.237)">
              <g id="Grupo_118175" data-name="Grupo 118175">
                <rect id="Rectángulo_37084" data-name="Rectángulo 37084" width="0.734" height="26.507" fill="#fff"/>
              </g>
              <g id="Grupo_118176" data-name="Grupo 118176" transform="translate(5.83 3.672)">
                <path id="Trazado_170746" data-name="Trazado 170746" d="M71.39,279l-.734-.222V252.494h.734Z" transform="translate(-70.656 -252.494)" fill="#fff"/>
              </g>
              <g id="Grupo_118177" data-name="Grupo 118177" transform="translate(11.66 6.489)">
                <rect id="Rectángulo_37085" data-name="Rectángulo 37085" width="0.734" height="26.507" fill="#fff"/>
              </g>
              <g id="Grupo_118178" data-name="Grupo 118178" transform="translate(17.49 10.161)">
                <rect id="Rectángulo_37086" data-name="Rectángulo 37086" width="0.734" height="26.507" fill="#fff"/>
              </g>
              <g id="Grupo_118179" data-name="Grupo 118179" transform="translate(23.233 13.253)">
                <rect id="Rectángulo_37087" data-name="Rectángulo 37087" width="0.734" height="26.507" fill="#fff"/>
              </g>
              <g id="Grupo_118180" data-name="Grupo 118180" transform="translate(29.064 16.925)">
                <rect id="Rectángulo_37088" data-name="Rectángulo 37088" width="0.734" height="26.507" fill="#fff"/>
              </g>
              <g id="Grupo_118181" data-name="Grupo 118181" transform="translate(34.893 20.146)">
                <rect id="Rectángulo_37089" data-name="Rectángulo 37089" width="0.734" height="26.507" fill="#fff"/>
              </g>
            </g>
            <g id="Grupo_118183" data-name="Grupo 118183" transform="translate(47.113 59.756)">
              <rect id="Rectángulo_37090" data-name="Rectángulo 37090" width="0.734" height="26.507" fill="#fff"/>
            </g>
            <path id="Trazado_170747" data-name="Trazado 170747" d="M95.933,267.066v21.12l18.3-10.568V256.5Z" transform="translate(-42.59 -209.076)" fill="#ff5e4c"/>
            <path id="Trazado_170748" data-name="Trazado 170748" d="M106.266,305.362,65.153,247.227c-.669-1.014-1.023-1.433-1.023-2.024a1.507,1.507,0,0,1,.879-1.212l7.69-4.349c-.142-.3-.286-.591-.431-.887l-7.752,4.383a2.41,2.41,0,0,0-1.37,2.065c0,.926.493,1.637,1.326,2.767l40.181,56.458C104.939,304.6,105.8,305.152,106.266,305.362Z" transform="translate(-63.145 -220.198)" fill="#d8c4c3"/>
            <g id="Grupo_118184" data-name="Grupo 118184" transform="translate(1.253 9.044)">
              <path id="Trazado_170749" data-name="Trazado 170749" d="M85.443,232.965h0a.741.741,0,0,1,.7.08,2.712,2.712,0,0,1,1.132,2.165.981.981,0,0,1-.407.916L76.306,242.3l-10.712,6.2L64.2,245.324C64.187,245.331,85.443,232.965,85.443,232.965Z" transform="translate(-63.733 -232.909)" fill="#ff786e"/>
              <path id="Trazado_170750" data-name="Trazado 170750" d="M66.181,242.815c0,.835-.508,1.219-1.134.857a2.716,2.716,0,0,1-1.132-2.165c0-.835.508-1.219,1.132-.856A2.71,2.71,0,0,1,66.181,242.815Z" transform="translate(-63.915 -228.14)" fill="#ff5e4c"/>
            </g>
            <path id="Trazado_170751" data-name="Trazado 170751" d="M64.692,241.244a.2.2,0,0,1,.212.013.772.772,0,0,1,.324.618.3.3,0,0,1-.1.252l-.851.5-.4-.906Z" transform="translate(-62.688 -218.653)" fill="#d8c4c3"/>
          </g>
          <g id="Grupo_118186" data-name="Grupo 118186" transform="translate(8.337 58.184)">
            <rect id="Rectángulo_37091" data-name="Rectángulo 37091" width="26.991" height="0.734" transform="translate(0 22.277) rotate(-55.627)" fill="#d8c4c3"/>
          </g>
          <g id="Grupo_118187" data-name="Grupo 118187" transform="translate(4.861 77.631)">
            <path id="Trazado_170752" data-name="Trazado 170752" d="M73.426,281.341a7.112,7.112,0,0,0-2.971-5.675,2.716,2.716,0,0,0-1.3-.361,3.606,3.606,0,0,0-1.9.532,2.744,2.744,0,0,0-1.061,1.891l3.337,6.853a2.521,2.521,0,0,0,2.178-.076A3.414,3.414,0,0,0,73,283.161a4.735,4.735,0,0,0,.246-.569A4.011,4.011,0,0,0,73.426,281.341Z" transform="translate(-66.095 -274.916)" fill="#2c1d1b"/>
            <path id="Trazado_170753" data-name="Trazado 170753" d="M66.133,278.385A7.112,7.112,0,0,0,69.1,284.06c1.64.947,2.969-.057,2.969-2.245A7.113,7.113,0,0,0,69.1,276.14C67.464,275.193,66.133,276.2,66.133,278.385Z" transform="translate(-66.133 -274.616)" fill="#422c2a"/>
            <path id="Trazado_170754" data-name="Trazado 170754" d="M66.831,278.463a3.9,3.9,0,0,0,1.627,3.109c.9.519,1.627-.033,1.627-1.23a3.9,3.9,0,0,0-1.627-3.109C67.56,276.716,66.831,277.266,66.831,278.463Z" transform="translate(-65.695 -273.829)" fill="#fff"/>
            <path id="Trazado_170755" data-name="Trazado 170755" d="M67.007,278.573a2.312,2.312,0,0,0,.968,1.848c.534.309.968-.018.968-.73a2.322,2.322,0,0,0-.968-1.85C67.44,277.533,67.007,277.86,67.007,278.573Z" transform="translate(-65.585 -273.399)" fill="#422c2a"/>
            <path id="Trazado_170756" data-name="Trazado 170756" d="M67.273,280.8a14.489,14.489,0,0,1-.384-3.867c.039-1.362.509-2.1,2.317-1.8a5.638,5.638,0,0,1,3.815,3.84c.264.865.34,1.067-.939,1.58C71.048,280.965,67.771,282.548,67.273,280.8Z" transform="translate(-65.663 -275.066)" fill="#fff"/>
          </g>
          <g id="Grupo_118188" data-name="Grupo 118188" transform="translate(39.363 97.545)">
            <path id="Trazado_170757" data-name="Trazado 170757" d="M94.633,293.582a7.115,7.115,0,0,0-2.971-5.675,2.716,2.716,0,0,0-1.3-.361,3.606,3.606,0,0,0-1.9.532,2.743,2.743,0,0,0-1.061,1.89l3.337,6.853a2.52,2.52,0,0,0,2.178-.076,3.414,3.414,0,0,0,1.29-1.342,4.727,4.727,0,0,0,.246-.569A4.011,4.011,0,0,0,94.633,293.582Z" transform="translate(-87.302 -287.157)" fill="#2c1d1b"/>
            <path id="Trazado_170758" data-name="Trazado 170758" d="M87.34,290.626a7.108,7.108,0,0,0,2.971,5.675c1.64.947,2.969-.057,2.969-2.245a7.113,7.113,0,0,0-2.969-5.675C88.669,287.434,87.34,288.44,87.34,290.626Z" transform="translate(-87.34 -286.857)" fill="#422c2a"/>
            <path id="Trazado_170759" data-name="Trazado 170759" d="M88.038,290.7a3.9,3.9,0,0,0,1.627,3.109c.9.519,1.627-.033,1.627-1.23a3.9,3.9,0,0,0-1.627-3.109C88.767,288.957,88.038,289.506,88.038,290.7Z" transform="translate(-86.902 -286.07)" fill="#fff"/>
            <path id="Trazado_170760" data-name="Trazado 170760" d="M88.214,290.814a2.313,2.313,0,0,0,.968,1.848c.534.309.966-.018.966-.73a2.321,2.321,0,0,0-.966-1.85C88.647,289.774,88.214,290.1,88.214,290.814Z" transform="translate(-86.792 -285.64)" fill="#422c2a"/>
            <path id="Trazado_170761" data-name="Trazado 170761" d="M88.479,293.039a14.561,14.561,0,0,1-.382-3.867c.039-1.362.509-2.1,2.317-1.8a5.633,5.633,0,0,1,3.813,3.839c.265.866.342,1.067-.937,1.581C92.255,293.206,88.978,294.789,88.479,293.039Z" transform="translate(-86.87 -287.307)" fill="#fff"/>
          </g>
        </g>
        <g id="Grupo_118190" data-name="Grupo 118190" transform="translate(13.197 22.936)">
          <path id="Trazado_170762" data-name="Trazado 170762" d="M62.656,228.83c.278,1.5-.88,7.132-.76,8.483,2.523,1.417,8.544,4.708,11.27,7.005,1.941.4,4.108-.335,5.447,2.273.8,1.559.4,3.226-1.817,4.733-1.443.981-3.957-.312-4.044-1.328.687-.68-.768-1.964-1.147-3.272-2.491-.257-10.739-2.58-12.618-4.093-1.794-1.445-2.366-1.193-2.723-2.216-.94-2.694-.273-11.585-.273-11.585S61.544,229.152,62.656,228.83Z" transform="translate(-54.554 -215.34)" fill="#ffc9b6"/>
          <path id="Trazado_170763" data-name="Trazado 170763" d="M62.14,220.644c2.419,1.873,3.825,6.929,2.525,10.908-1.066,3.264-1.62,4.529-1.62,4.529s-3.652-.257-7.163-.143c-1.415-4.487-.812-7.269-.146-10.866A5.445,5.445,0,0,1,62.14,220.644Z" transform="translate(-55.019 -220.538)" fill="#ef4335"/>
          <path id="Trazado_170764" data-name="Trazado 170764" d="M62.859,230.236a7.859,7.859,0,0,0-4.332-.9,4.856,4.856,0,0,0-2.977,1.108l.364,2.5a5.7,5.7,0,0,1,2.951-1.033,10.087,10.087,0,0,1,3.589,1.033Z" transform="translate(-54.686 -215.048)" fill="#ff4d4d"/>
        </g>
        <g id="Grupo_118191" data-name="Grupo 118191" transform="translate(36.186 18.817)">
          <path id="Trazado_170765" data-name="Trazado 170765" d="M70.8,218.007a15.894,15.894,0,0,1,1.9,3.15A23.724,23.724,0,0,1,74,226.49a9.763,9.763,0,0,1,.07,2.406s-1.777.921-2.066,1.077a37.658,37.658,0,0,1-1.285-4.028c-.7-2.252-1.573-5.689-1.573-5.689A20.3,20.3,0,0,0,70.8,218.007Z" transform="translate(-69.149 -218.007)" fill="#ef4335"/>
          <path id="Trazado_170766" data-name="Trazado 170766" d="M73.021,224.7l.722,2.234-2.074.957-.841-2.387A3.992,3.992,0,0,1,73.021,224.7Z" transform="translate(-68.096 -213.811)" fill="#ff4d4d"/>
        </g>
        <path id="Trazado_170767" data-name="Trazado 170767" d="M74.042,226.073l.932,3.916a20.065,20.065,0,0,1,3.067,5.571c1.126,1.791,2.253,1.332,3.608,2.865,1.56,1.767,1.3,2.434.669,3.719-.828,1.689-3.088,1.884-4.056,1.624-2.165-.581-1.62-3.74-2.406-4.98a19.6,19.6,0,0,1-5.505-6.041c3.2-1.873,1.536-5.948,1.536-5.948A20.354,20.354,0,0,0,74.042,226.073Z" transform="translate(-32.209 -194.133)" fill="#ffb9a4"/>
      </g>
      <g id="Grupo_118194" data-name="Grupo 118194" transform="translate(164.521 186.183)">
        <path id="Trazado_170768" data-name="Trazado 170768" d="M178.042,237.489l-58.584,38.483-3.834-2.446V222.22l62.418-36.037Z" transform="translate(-115.624 -186.183)" fill="#ad612d"/>
        <path id="Trazado_170769" data-name="Trazado 170769" d="M180.4,238.993l-62.418,36.037V223.724L180.4,187.687Z" transform="translate(-114.147 -185.241)" fill="#d68045"/>
        <path id="Trazado_170770" data-name="Trazado 170770" d="M155.993,202.428l-36.441,21.039v-4.1l36.441-21.039Z" transform="translate(-113.162 -178.57)" fill="#66444b"/>
        <g id="Grupo_118193" data-name="Grupo 118193" transform="translate(6.42 7.758)">
          <path id="Trazado_170771" data-name="Trazado 170771" d="M156.012,230.874l-36.441,21.039V225.968l36.441-21.039Z" transform="translate(-119.571 -182.19)" fill="#66444b"/>
          <path id="Trazado_170772" data-name="Trazado 170772" d="M136.606,231.416l-8.425,4.864v-7.619l8.425-4.864Z" transform="translate(-114.173 -170.361)" fill="#66444b"/>
          <path id="Trazado_170773" data-name="Trazado 170773" d="M141.044,229.6l-14.833,8.564v-3.034l14.833-8.564Z" transform="translate(-115.407 -168.625)" fill="#66444b"/>
          <path id="Trazado_170774" data-name="Trazado 170774" d="M153.9,229.382l-33.389,19.277V225.843L153.9,206.566Z" transform="translate(-118.983 -181.163)" fill="#51353a"/>
          <path id="Trazado_170775" data-name="Trazado 170775" d="M160.426,213.768l-15.273,8.818V199.77l15.273-8.818Z" transform="translate(-103.533 -190.952)" fill="#ea965e"/>
          <path id="Trazado_170776" data-name="Trazado 170776" d="M156.989,224.7l-6.352,3.667V209.994l6.352-3.667Z" transform="translate(-100.095 -181.313)" fill="#66444b"/>
          <path id="Trazado_170777" data-name="Trazado 170777" d="M151.505,217.962l-6.352,3.667V213.16l6.352-3.667Z" transform="translate(-103.533 -179.328)" fill="#66444b"/>
          <path id="Trazado_170778" data-name="Trazado 170778" d="M151.505,216.916l-6.352,3.667v-1.336l6.352-3.667Z" transform="translate(-103.533 -175.512)" fill="#66444b"/>
          <path id="Trazado_170779" data-name="Trazado 170779" d="M151.505,218.411l-6.352,3.667v-1.336l6.352-3.667Z" transform="translate(-103.533 -174.575)" fill="#66444b"/>
          <path id="Trazado_170780" data-name="Trazado 170780" d="M151.505,219.975l-6.352,3.667v-1.336l6.352-3.667Z" transform="translate(-103.533 -173.594)" fill="#66444b"/>
        </g>
        <path id="Trazado_170781" data-name="Trazado 170781" d="M181.876,188.629l-3.834-2.446L115.624,222.22l3.834,2.446Z" transform="translate(-115.624 -186.183)" fill="#ea965e"/>
      </g>
      <g id="Grupo_118196" data-name="Grupo 118196" transform="translate(174.226 191.348)">
        <path id="Trazado_170782" data-name="Trazado 170782" d="M184.007,240.663l-58.584,38.483-3.834-2.446V225.395l62.418-36.037Z" transform="translate(-121.589 -189.358)" fill="#ad612d"/>
        <path id="Trazado_170783" data-name="Trazado 170783" d="M186.364,242.167,123.946,278.2V226.9l62.418-36.037Z" transform="translate(-120.112 -188.415)" fill="#d68045"/>
        <path id="Trazado_170784" data-name="Trazado 170784" d="M161.958,205.6l-36.441,21.039v-4.1L161.958,201.5Z" transform="translate(-119.127 -181.745)" fill="#66444b"/>
        <g id="Grupo_118195" data-name="Grupo 118195" transform="translate(6.42 7.758)">
          <path id="Trazado_170785" data-name="Trazado 170785" d="M161.977,234.048l-36.441,21.039V229.142L161.977,208.1Z" transform="translate(-125.536 -185.364)" fill="#66444b"/>
          <path id="Trazado_170786" data-name="Trazado 170786" d="M142.571,234.591l-8.425,4.864v-7.619l8.425-4.864Z" transform="translate(-120.138 -173.535)" fill="#66444b"/>
          <path id="Trazado_170787" data-name="Trazado 170787" d="M147.009,232.774l-14.833,8.564V238.3l14.833-8.564Z" transform="translate(-121.373 -171.8)" fill="#66444b"/>
          <path id="Trazado_170788" data-name="Trazado 170788" d="M159.863,232.557l-33.389,19.277V229.017l33.389-19.277Z" transform="translate(-124.948 -184.337)" fill="#51353a"/>
          <path id="Trazado_170789" data-name="Trazado 170789" d="M166.391,216.942l-15.273,8.818V202.944l15.273-8.818Z" transform="translate(-109.498 -194.126)" fill="#ea965e"/>
          <path id="Trazado_170790" data-name="Trazado 170790" d="M162.954,227.874l-6.352,3.667V213.169l6.352-3.667Z" transform="translate(-106.06 -184.487)" fill="#66444b"/>
          <path id="Trazado_170791" data-name="Trazado 170791" d="M157.471,221.136l-6.352,3.667v-8.469l6.352-3.667Z" transform="translate(-109.498 -182.503)" fill="#66444b"/>
          <path id="Trazado_170792" data-name="Trazado 170792" d="M157.471,220.091l-6.352,3.667v-1.336l6.352-3.667Z" transform="translate(-109.498 -178.686)" fill="#66444b"/>
          <path id="Trazado_170793" data-name="Trazado 170793" d="M157.471,221.586l-6.352,3.667v-1.336l6.352-3.667Z" transform="translate(-109.498 -177.749)" fill="#66444b"/>
          <path id="Trazado_170794" data-name="Trazado 170794" d="M157.471,223.149l-6.352,3.667V225.48l6.352-3.667Z" transform="translate(-109.498 -176.769)" fill="#66444b"/>
        </g>
        <path id="Trazado_170795" data-name="Trazado 170795" d="M187.841,191.8l-3.834-2.446-62.418,36.037,3.834,2.446Z" transform="translate(-121.589 -189.358)" fill="#ea965e"/>
      </g>
      <g id="Grupo_118198" data-name="Grupo 118198" transform="translate(183.931 196.512)">
        <path id="Trazado_170796" data-name="Trazado 170796" d="M189.972,243.838l-58.584,38.483-3.834-2.446V228.569l62.418-36.037Z" transform="translate(-127.555 -192.532)" fill="#ad612d"/>
        <path id="Trazado_170797" data-name="Trazado 170797" d="M192.329,245.341l-62.418,36.037V230.073l62.418-36.037Z" transform="translate(-126.077 -191.589)" fill="#d68045"/>
        <path id="Trazado_170798" data-name="Trazado 170798" d="M167.923,208.777l-36.441,21.039v-4.1l36.441-21.039Z" transform="translate(-125.092 -184.919)" fill="#66444b"/>
        <g id="Grupo_118197" data-name="Grupo 118197" transform="translate(6.421 7.758)">
          <path id="Trazado_170799" data-name="Trazado 170799" d="M167.942,237.223,131.5,258.262V232.316l36.441-21.039Z" transform="translate(-131.501 -188.538)" fill="#66444b"/>
          <path id="Trazado_170800" data-name="Trazado 170800" d="M148.536,237.765l-8.425,4.864V235.01l8.425-4.864Z" transform="translate(-126.103 -176.71)" fill="#66444b"/>
          <path id="Trazado_170801" data-name="Trazado 170801" d="M152.975,235.948l-14.833,8.564v-3.034l14.833-8.564Z" transform="translate(-127.338 -174.974)" fill="#66444b"/>
          <path id="Trazado_170802" data-name="Trazado 170802" d="M165.828,235.731l-33.389,19.277V232.192l33.389-19.277Z" transform="translate(-130.913 -187.512)" fill="#51353a"/>
          <path id="Trazado_170803" data-name="Trazado 170803" d="M172.357,220.117l-15.273,8.818V206.118l15.273-8.818Z" transform="translate(-115.463 -197.3)" fill="#ea965e"/>
          <path id="Trazado_170804" data-name="Trazado 170804" d="M168.919,231.049l-6.352,3.667V216.343l6.352-3.667Z" transform="translate(-112.026 -187.662)" fill="#66444b"/>
          <path id="Trazado_170805" data-name="Trazado 170805" d="M163.436,224.311l-6.352,3.667v-8.469l6.352-3.667Z" transform="translate(-115.463 -185.677)" fill="#66444b"/>
          <path id="Trazado_170806" data-name="Trazado 170806" d="M163.436,223.265l-6.352,3.667V225.6l6.352-3.667Z" transform="translate(-115.463 -181.861)" fill="#66444b"/>
          <path id="Trazado_170807" data-name="Trazado 170807" d="M163.436,224.76l-6.352,3.667v-1.336l6.352-3.667Z" transform="translate(-115.463 -180.923)" fill="#66444b"/>
          <path id="Trazado_170808" data-name="Trazado 170808" d="M163.436,226.323l-6.352,3.667v-1.336l6.352-3.667Z" transform="translate(-115.463 -179.943)" fill="#66444b"/>
        </g>
        <path id="Trazado_170809" data-name="Trazado 170809" d="M193.806,194.978l-3.834-2.446-62.418,36.037,3.834,2.446Z" transform="translate(-127.555 -192.532)" fill="#ea965e"/>
      </g>
      <g id="Grupo_118203" data-name="Grupo 118203" transform="translate(213.24 227.002)">
        <g id="Grupo_118199" data-name="Grupo 118199" transform="translate(18.854 49.446)">
          <path id="Trazado_170810" data-name="Trazado 170810" d="M186.558,248.164l-18.143,10.475-11.256-6.5L175.3,241.665Z" transform="translate(-157.159 -241.665)" fill="#75525a"/>
          <path id="Trazado_170811" data-name="Trazado 170811" d="M168.414,254.6v1.819l-11.256-6.5V248.1Z" transform="translate(-157.159 -237.629)" fill="#51353a"/>
          <path id="Trazado_170812" data-name="Trazado 170812" d="M182.22,247.479V245.66l-18.143,10.475v1.819Z" transform="translate(-152.821 -239.161)" fill="#66444b"/>
        </g>
        <g id="Grupo_118200" data-name="Grupo 118200" transform="translate(21.835 40.809)">
          <path id="Trazado_170813" data-name="Trazado 170813" d="M175.216,247.226l-14.434,9.342-1.791-1.03V244.668l16.225-8.312Z" transform="translate(-158.991 -236.357)" fill="#51353a"/>
          <path id="Trazado_170814" data-name="Trazado 170814" d="M175.358,247.551l-15.266,8.814V245.5l15.266-8.814Z" transform="translate(-158.3 -236.153)" fill="#66444b"/>
        </g>
        <g id="Grupo_118201" data-name="Grupo 118201" transform="translate(4.463)">
          <path id="Trazado_170815" data-name="Trazado 170815" d="M197.287,246.142l-46.3,29.969-2.67-1.693V239.548l48.974-28.275Z" transform="translate(-148.313 -211.273)" fill="#51353a"/>
          <path id="Trazado_170816" data-name="Trazado 170816" d="M198.929,247.183l-48.974,28.275V240.589l48.974-28.275Z" transform="translate(-147.284 -210.621)" fill="#66444b"/>
          <path id="Trazado_170817" data-name="Trazado 170817" d="M196.087,245.179l-44.872,25.907V240.422l44.872-25.907Z" transform="translate(-146.494 -209.241)" fill="#51353a"/>
          <path id="Trazado_170818" data-name="Trazado 170818" d="M150.983,241.242l-2.67-1.693,48.974-28.275,2.67,1.693Z" transform="translate(-148.313 -211.273)" fill="#75525a"/>
        </g>
        <path id="Trazado_170819" data-name="Trazado 170819" d="M159.116,233.336l2.711-16.779,7.942,11.821,12.321-7.77-5.421,13.64,10.35,4.759-12.149,5.484-5.826,15.076-7.216-7.283L150.22,264.2l4.124-17.351-8.774-8.115Z" transform="translate(-145.57 -207.96)" fill="#fff"/>
        <g id="Grupo_118202" data-name="Grupo 118202" transform="translate(10.145 23.92)">
          <path id="Trazado_170820" data-name="Trazado 170820" d="M155.957,231.845c-.068.337-.133.678-.19,1.022a9.41,9.41,0,0,1-.225,1,.419.419,0,0,1-.194.107c-.076.018-.158.034-.246.047s-.177.026-.27.037a1.355,1.355,0,0,0-.267.075,1.578,1.578,0,0,0-.433.257.605.605,0,0,0-.234.384.325.325,0,0,0,.055.273.418.418,0,0,0,.2.114.737.737,0,0,0,.247.026c.085,0,.151,0,.2,0l.42.088a1.272,1.272,0,0,1,.36.132,1.316,1.316,0,0,1,.488.665,2.891,2.891,0,0,1,.184,1.033,3.94,3.94,0,0,1-.184,1.179,3.207,3.207,0,0,1-.6,1.116,3.856,3.856,0,0,1-.792.727,5.819,5.819,0,0,1-.909.509,6.449,6.449,0,0,1-.909.324c-.3.078-.56.14-.787.181.065-.4.119-.8.168-1.194s.094-.8.143-1.212c.063-.028.148-.063.257-.106s.226-.09.35-.143a4.129,4.129,0,0,0,.381-.189,1.981,1.981,0,0,0,.353-.241,1.379,1.379,0,0,0,.267-.3.667.667,0,0,0,.116-.347.291.291,0,0,0-.059-.221.382.382,0,0,0-.179-.091.833.833,0,0,0-.242-.02c-.086,0-.169.007-.242.007a3.47,3.47,0,0,1-.465-.039,1.115,1.115,0,0,1-.428-.153.894.894,0,0,1-.322-.356,1.507,1.507,0,0,1-.151-.633,3.385,3.385,0,0,1,.171-1.258,4.044,4.044,0,0,1,.552-1.087,4.662,4.662,0,0,1,.8-.864,4.446,4.446,0,0,1,.922-.608,3.2,3.2,0,0,1,.918-.3A1.556,1.556,0,0,1,155.957,231.845Z" transform="translate(-151.805 -222.347)" fill="#ff5e4c"/>
          <path id="Trazado_170821" data-name="Trazado 170821" d="M159.052,231.19q.2,1.476.4,2.977t.431,2.917c-.158.111-.33.225-.516.34s-.373.221-.56.327-.369.2-.543.3-.332.176-.47.239c-.031-.3-.06-.6-.088-.919s-.052-.625-.078-.944a1.723,1.723,0,0,1-.338.169,1.512,1.512,0,0,0-.355.187,10.576,10.576,0,0,0-.166,1.1c-.037.381-.085.757-.143,1.121a10.189,10.189,0,0,1-1.035.566c-.327.153-.667.337-1.022.547q.278-2.15.6-4.254t.623-4.236q.356-.237.747-.467c.259-.153.521-.307.786-.459s.525-.3.783-.447.5-.285.717-.418a.629.629,0,0,1,.085.257c.02.116.034.234.044.355s.02.231.028.33a.413.413,0,0,0,.036.174.1.1,0,0,0,.008.039.088.088,0,0,1,.008.042.16.16,0,0,0,.008.054v.01a.159.159,0,0,0,0,.041A.208.208,0,0,1,159.052,231.19Zm-2.224,3.952a.76.76,0,0,0,.353-.163c.13-.1.252-.181.369-.255-.026-.3-.057-.594-.094-.872a4.98,4.98,0,0,0-.161-.76l-.08.046c-.072.338-.143.67-.208.994S156.881,234.792,156.829,235.141Z" transform="translate(-150.071 -223.556)" fill="#ff5e4c"/>
          <path id="Trazado_170822" data-name="Trazado 170822" d="M160.252,228.491q.037,1.364-.018,2.789c-.037.95-.068,1.886-.094,2.8a.92.92,0,0,0,.234-.1c.083-.047.166-.1.254-.164l.265-.179a1.7,1.7,0,0,1,.272-.146q.015.6,0,1.153c-.013.373-.02.747-.02,1.127-.244.169-.5.338-.763.509s-.532.34-.8.506-.538.327-.805.482-.525.3-.776.426q.027-1.984.029-3.966t.106-3.971a4.612,4.612,0,0,1,.5-.346c.181-.107.363-.212.552-.314l.556-.3C159.922,228.7,160.093,228.6,160.252,228.491Z" transform="translate(-147.926 -224.399)" fill="#ff5e4c"/>
          <path id="Trazado_170823" data-name="Trazado 170823" d="M163.805,226.838a4.655,4.655,0,0,1,.013.574c-.01.21-.021.43-.036.657s-.033.46-.049.7-.021.465-.015.682c-.267.138-.527.277-.784.413s-.522.291-.8.456a.826.826,0,0,0-.036.322,2.516,2.516,0,0,1,0,.33,4.464,4.464,0,0,0,.532-.311,1.816,1.816,0,0,1,.5-.251,5.383,5.383,0,0,1,.024.8c-.011.3-.011.587,0,.857a7.674,7.674,0,0,0-.657.473,3.325,3.325,0,0,1-.623.413.837.837,0,0,0,0,.36,1.665,1.665,0,0,1,.033.4l.366-.236c.132-.088.268-.179.412-.27s.286-.19.43-.286.278-.192.405-.286c.011.311,0,.664-.02,1.054s-.036.768-.036,1.127c-.286.158-.558.316-.815.477s-.508.312-.758.462-.5.3-.758.451-.529.29-.813.426c-.037-.584-.068-1.194-.093-1.827s-.042-1.269-.059-1.915-.029-1.289-.041-1.93-.02-1.267-.031-1.868q.888-.588,1.85-1.173C162.6,227.526,163.211,227.168,163.805,226.838Z" transform="translate(-146.603 -225.436)" fill="#ff5e4c"/>
          <path id="Trazado_170824" data-name="Trazado 170824" d="M163.464,232.43a1.175,1.175,0,0,1,.475-.226.625.625,0,0,1,.426.05.612.612,0,0,1,.277.358,1.632,1.632,0,0,1-.142,1.21,2.266,2.266,0,0,1-.334.459,2.04,2.04,0,0,1-.421.347,1.538,1.538,0,0,1-.433.2.649.649,0,0,1-.369,0,.369.369,0,0,1-.228-.242,1.4,1.4,0,0,1-.072-.571,2.379,2.379,0,0,1,.132-.608,2.445,2.445,0,0,1,.286-.548A1.925,1.925,0,0,1,163.464,232.43Zm1.238-6.454q.017,1.24-.024,2.58c-.026.893-.044,1.78-.054,2.653-.286.172-.586.347-.895.521s-.631.36-.965.553c-.028-.366-.046-.761-.057-1.186s-.016-.859-.018-1.3,0-.887,0-1.331,0-.862,0-1.256q.422-.286.953-.608C164,226.386,164.352,226.176,164.7,225.976Z" transform="translate(-145.013 -225.976)" fill="#ff5e4c"/>
        </g>
      </g>
    </g>
  </g>
</svg>
