<svg xmlns="http://www.w3.org/2000/svg" xmlns:xlink="http://www.w3.org/1999/xlink" width="400" height="235" viewBox="0 0 400 235">
  <defs>
    <linearGradient id="linear-gradient" x1="0.5" x2="0.5" y2="1" gradientUnits="objectBoundingBox">
      <stop offset="0" stop-color="#d8ccec"/>
      <stop offset="1" stop-color="#d9edfc"/>
    </linearGradient>
  </defs>
  <g id="Grupo_119428" data-name="Grupo 119428" transform="translate(-771 -1446)">
    <g id="Grupo_81677" data-name="Grupo 81677">
      <rect id="Rectángulo_35692" data-name="Rectángulo 35692" width="400" height="235" transform="translate(771 1446)" fill="#fff"/>
    </g>
    <circle id="Elipse_4799" data-name="Elipse 4799" cx="61.5" cy="61.5" r="61.5" transform="translate(909 1547)" stroke="rgba(0,0,0,0)" stroke-miterlimit="10" stroke-width="1" fill="url(#linear-gradient)"/>
    <g id="Grupo_119426" data-name="Grupo 119426" transform="translate(-4)">
      <g id="Grupo_119425" data-name="Grupo 119425" transform="translate(-1083.426 4916.6) rotate(-45)">
        <path id="Unión_1" data-name="Unión 1" d="M6639.161-3487.452h5.2v-18.335h17.846v18.335h5.949l-14.5,14.666Z" transform="translate(-2875.16 2525.786)" fill="#8d8d8d"/>
      </g>
    </g>
    <g id="Grupo_119427" data-name="Grupo 119427" transform="translate(1016.159 1541.579)">
      <g id="Grupo_119425-2" data-name="Grupo 119425" transform="translate(20.506 43.841) rotate(-135)">
        <path id="Unión_1-2" data-name="Unión 1" d="M0,14.666H5.2V33H23.05V14.666H29L14.5,0Z" transform="translate(0)" fill="#8d8d8d"/>
      </g>
    </g>
    <rect id="Rectángulo_37146" data-name="Rectángulo 37146" width="115" height="94" rx="24" transform="translate(788 1470)" stroke="rgba(0,0,0,0)" stroke-miterlimit="10" stroke-width="1" fill="url(#linear-gradient)"/>
    <rect id="Rectángulo_37148" data-name="Rectángulo 37148" width="115" height="94" rx="24" transform="translate(1042 1470)" stroke="rgba(0,0,0,0)" stroke-miterlimit="10" stroke-width="1" fill="url(#linear-gradient)"/>
    <path id="Trazado_174218" data-name="Trazado 174218" d="M-24.64-3.173l2.9-9.624H-18.8L-23.26,0h-2.751L-30.45-12.8h2.927ZM-9.9-5.563h-5.062v3.445h5.941V0H-17.6V-12.8H-9.04v2.136h-5.924v3.05H-9.9ZM2.931,0H.294L-4.838-8.42V0H-7.475V-12.8h2.637L.3-4.359V-12.8H2.931ZM14.612-10.661h-3.92V0H8.055V-10.661H4.188V-12.8H14.612Zm7.673,8.024H17.662L16.783,0h-2.8l4.764-12.8h2.443L25.976,0h-2.8ZM18.374-4.772h3.2l-1.608-4.79ZM-41.941,20.491V25h-2.637V12.2h4.992a5.776,5.776,0,0,1,2.536.527,3.886,3.886,0,0,1,1.683,1.5,4.178,4.178,0,0,1,.589,2.21,3.674,3.674,0,0,1-1.288,2.966,5.363,5.363,0,0,1-3.564,1.085Zm0-2.136h2.355a2.316,2.316,0,0,0,1.6-.492,1.79,1.79,0,0,0,.549-1.406A2.111,2.111,0,0,0-38,14.937a2.068,2.068,0,0,0-1.529-.6h-2.417Zm16.673,1.081h-5.062v3.445h5.941V25h-8.578V12.2h8.561v2.136h-5.924v3.05h5.063Zm7.163.879h-2.1V25h-2.637V12.2h4.755a5.375,5.375,0,0,1,3.5,1.011,3.488,3.488,0,0,1,1.23,2.856,3.937,3.937,0,0,1-.567,2.184,3.866,3.866,0,0,1-1.718,1.393l2.769,5.229V25h-2.83Zm-2.1-2.136h2.127a2.178,2.178,0,0,0,1.538-.505A1.806,1.806,0,0,0-16,16.281a1.933,1.933,0,0,0-.514-1.424,2.137,2.137,0,0,0-1.578-.519h-2.118ZM-4.72,21.643A1.353,1.353,0,0,0-5.247,20.5a6.917,6.917,0,0,0-1.9-.844,13.458,13.458,0,0,1-2.171-.875A3.547,3.547,0,0,1-11.5,15.6a3.09,3.09,0,0,1,.584-1.85,3.812,3.812,0,0,1,1.679-1.27,6.318,6.318,0,0,1,2.457-.457,5.751,5.751,0,0,1,2.443.5,3.891,3.891,0,0,1,1.666,1.4,3.668,3.668,0,0,1,.593,2.057H-4.711a1.726,1.726,0,0,0-.554-1.367,2.276,2.276,0,0,0-1.556-.488,2.432,2.432,0,0,0-1.5.409,1.289,1.289,0,0,0-.536,1.077,1.235,1.235,0,0,0,.628,1.046,7.1,7.1,0,0,0,1.85.791A7.994,7.994,0,0,1-3.1,19.129a3.343,3.343,0,0,1,1.028,2.5,3.08,3.08,0,0,1-1.257,2.606,5.5,5.5,0,0,1-3.384.945A6.534,6.534,0,0,1-9.4,24.635a4.256,4.256,0,0,1-1.85-1.481,3.793,3.793,0,0,1-.637-2.18h2.646q0,2.118,2.531,2.118a2.462,2.462,0,0,0,1.468-.382A1.244,1.244,0,0,0-4.72,21.643Zm14.941-2.751a7.725,7.725,0,0,1-.668,3.313,5.03,5.03,0,0,1-1.912,2.2,5.288,5.288,0,0,1-2.852.773,5.324,5.324,0,0,1-2.839-.765A5.08,5.08,0,0,1,.018,22.227a7.5,7.5,0,0,1-.694-3.265v-.633A7.685,7.685,0,0,1,0,15,5.072,5.072,0,0,1,1.929,12.8a5.3,5.3,0,0,1,2.843-.769,5.3,5.3,0,0,1,2.843.769A5.072,5.072,0,0,1,9.541,15a7.663,7.663,0,0,1,.681,3.318Zm-2.672-.58a5.385,5.385,0,0,0-.721-3.059,2.349,2.349,0,0,0-2.057-1.046A2.349,2.349,0,0,0,2.725,15.24,5.324,5.324,0,0,0,2,18.268v.624a5.453,5.453,0,0,0,.721,3.041A2.342,2.342,0,0,0,4.79,23.014a2.321,2.321,0,0,0,2.039-1.042,5.421,5.421,0,0,0,.721-3.037ZM22.544,25H19.907l-5.133-8.42V25H12.138V12.2h2.637l5.142,8.438V12.2h2.628Zm9.686-2.637H27.606L26.728,25h-2.8l4.764-12.8h2.443L35.921,25h-2.8Zm-3.911-2.136h3.2l-1.608-4.79Zm11.435,2.654h5.6V25H37.116V12.2h2.637Z" transform="translate(971 1602)" fill="#12263f"/>
    <path id="Trazado_174216" data-name="Trazado 174216" d="M10.06,8.885l1.934-6.416H13.95L10.979,11H9.146L6.187,2.469H8.138ZM17.3,11.117a3.112,3.112,0,0,1-2.271-.855,3.041,3.041,0,0,1-.876-2.279V7.818a3.83,3.83,0,0,1,.369-1.708A2.709,2.709,0,0,1,15.57,4.95a2.936,2.936,0,0,1,1.544-.407,2.631,2.631,0,0,1,2.048.82,3.333,3.333,0,0,1,.747,2.326v.691H15.872a1.573,1.573,0,0,0,.5,1,1.5,1.5,0,0,0,1.046.375,1.828,1.828,0,0,0,1.529-.709l.832.932a2.542,2.542,0,0,1-1.031.841A3.383,3.383,0,0,1,17.3,11.117Zm-.193-5.209a1.058,1.058,0,0,0-.817.341,1.768,1.768,0,0,0-.4.977h2.355V7.091a1.261,1.261,0,0,0-.3-.874A1.092,1.092,0,0,0,17.108,5.908Zm5.32-1.248.053.732a2.213,2.213,0,0,1,1.822-.85,1.84,1.84,0,0,1,1.5.592,2.761,2.761,0,0,1,.5,1.77V11H24.614V6.936a1.1,1.1,0,0,0-.234-.784,1.048,1.048,0,0,0-.779-.244,1.164,1.164,0,0,0-1.072.611V11H20.835V4.66ZM29.618,3.1V4.66H30.7V5.9H29.618V9.066a.756.756,0,0,0,.135.5.677.677,0,0,0,.516.152,2.7,2.7,0,0,0,.5-.041v1.283a3.486,3.486,0,0,1-1.025.152,1.617,1.617,0,0,1-1.816-1.8V5.9H27V4.66h.926V3.1Zm5.7,7.9a1.88,1.88,0,0,1-.17-.568,2.049,2.049,0,0,1-1.6.686,2.251,2.251,0,0,1-1.544-.539,1.734,1.734,0,0,1-.612-1.359,1.792,1.792,0,0,1,.747-1.547A3.686,3.686,0,0,1,34.3,7.127h.779V6.764a1.045,1.045,0,0,0-.226-.7.887.887,0,0,0-.712-.264A1.009,1.009,0,0,0,33.471,6a.7.7,0,0,0-.243.563H31.534a1.7,1.7,0,0,1,.34-1.02,2.246,2.246,0,0,1,.961-.735,3.5,3.5,0,0,1,1.395-.267,2.767,2.767,0,0,1,1.86.589,2.06,2.06,0,0,1,.688,1.655V9.535A3.031,3.031,0,0,0,37.03,10.9V11Zm-1.4-1.178a1.458,1.458,0,0,0,.691-.167,1.1,1.1,0,0,0,.469-.448V8.117h-.633q-1.271,0-1.354.879l-.006.1a.678.678,0,0,0,.223.521A.865.865,0,0,0,33.919,9.822Zm10.066,1.295a3.112,3.112,0,0,1-2.271-.855,3.041,3.041,0,0,1-.876-2.279V7.818a3.83,3.83,0,0,1,.369-1.708,2.709,2.709,0,0,1,1.046-1.16A2.936,2.936,0,0,1,43.8,4.543a2.631,2.631,0,0,1,2.048.82,3.333,3.333,0,0,1,.747,2.326v.691H42.556a1.573,1.573,0,0,0,.5,1,1.5,1.5,0,0,0,1.046.375,1.828,1.828,0,0,0,1.529-.709l.832.932a2.542,2.542,0,0,1-1.031.841A3.383,3.383,0,0,1,43.985,11.117Zm-.193-5.209a1.058,1.058,0,0,0-.817.341,1.768,1.768,0,0,0-.4.977h2.355V7.091a1.261,1.261,0,0,0-.3-.874A1.092,1.092,0,0,0,43.792,5.908Zm6.176.645L51.034,4.66h1.811l-1.8,3.105L52.921,11H51.1L49.974,9.008,48.849,11H47.026l1.881-3.234-1.8-3.105h1.816ZM55.687,3.1V4.66h1.084V5.9H55.687V9.066a.756.756,0,0,0,.135.5.677.677,0,0,0,.516.152,2.7,2.7,0,0,0,.5-.041v1.283a3.486,3.486,0,0,1-1.025.152,1.617,1.617,0,0,1-1.816-1.8V5.9h-.926V4.66h.926V3.1Zm4.945,8.016a3.112,3.112,0,0,1-2.271-.855,3.041,3.041,0,0,1-.876-2.279V7.818a3.83,3.83,0,0,1,.369-1.708A2.709,2.709,0,0,1,58.9,4.95a2.936,2.936,0,0,1,1.544-.407,2.631,2.631,0,0,1,2.048.82,3.333,3.333,0,0,1,.747,2.326v.691H59.2a1.573,1.573,0,0,0,.5,1,1.5,1.5,0,0,0,1.046.375,1.828,1.828,0,0,0,1.529-.709l.832.932a2.542,2.542,0,0,1-1.031.841A3.383,3.383,0,0,1,60.632,11.117Zm-.193-5.209a1.058,1.058,0,0,0-.817.341,1.768,1.768,0,0,0-.4.977h2.355V7.091a1.261,1.261,0,0,0-.3-.874A1.092,1.092,0,0,0,60.438,5.908Zm7.324.34a4.6,4.6,0,0,0-.609-.047,1.24,1.24,0,0,0-1.26.65V11H64.2V4.66h1.6l.047.756a1.569,1.569,0,0,1,1.412-.873,1.774,1.774,0,0,1,.527.076ZM70.136,4.66l.053.732a2.213,2.213,0,0,1,1.822-.85,1.84,1.84,0,0,1,1.5.592,2.761,2.761,0,0,1,.5,1.77V11H72.321V6.936a1.1,1.1,0,0,0-.234-.784,1.048,1.048,0,0,0-.779-.244,1.164,1.164,0,0,0-1.072.611V11H68.542V4.66ZM78.972,11a1.88,1.88,0,0,1-.17-.568,2.049,2.049,0,0,1-1.6.686,2.251,2.251,0,0,1-1.544-.539,1.734,1.734,0,0,1-.612-1.359,1.792,1.792,0,0,1,.747-1.547,3.686,3.686,0,0,1,2.159-.545h.779V6.764a1.045,1.045,0,0,0-.226-.7.887.887,0,0,0-.712-.264A1.009,1.009,0,0,0,77.123,6a.7.7,0,0,0-.243.563H75.187a1.7,1.7,0,0,1,.34-1.02,2.246,2.246,0,0,1,.961-.735,3.5,3.5,0,0,1,1.395-.267,2.767,2.767,0,0,1,1.86.589,2.06,2.06,0,0,1,.688,1.655V9.535a3.031,3.031,0,0,0,.252,1.365V11Zm-1.4-1.178a1.458,1.458,0,0,0,.691-.167,1.1,1.1,0,0,0,.469-.448V8.117H78.1q-1.271,0-1.354.879l-.006.1a.678.678,0,0,0,.223.521A.865.865,0,0,0,77.571,9.822Zm6.885-2.051a3.76,3.76,0,0,1,.363-1.682,2.659,2.659,0,0,1,1.046-1.143,3.051,3.051,0,0,1,1.585-.4,2.887,2.887,0,0,1,2.095.785,3.151,3.151,0,0,1,.905,2.133l.012.434a3.314,3.314,0,0,1-.814,2.341,3.157,3.157,0,0,1-4.374,0,3.372,3.372,0,0,1-.817-2.391Zm1.693.12a2.37,2.37,0,0,0,.34,1.382,1.221,1.221,0,0,0,1.934.006,2.593,2.593,0,0,0,.346-1.511A2.346,2.346,0,0,0,88.423,6.4a1.124,1.124,0,0,0-.973-.487,1.105,1.105,0,0,0-.961.484A2.637,2.637,0,0,0,86.149,7.892ZM25.836,29V23.9h-.943V22.66h.943v-.539a2.189,2.189,0,0,1,.612-1.655,2.371,2.371,0,0,1,1.714-.589,3.991,3.991,0,0,1,.861.116l-.018,1.3a2.159,2.159,0,0,0-.516-.053q-.955,0-.955.9v.514h1.26V23.9h-1.26V29Zm7.635-.645a2.124,2.124,0,0,1-1.734.762,2,2,0,0,1-1.556-.586,2.5,2.5,0,0,1-.548-1.717V22.66h1.693v4.1q0,.991.9.991a1.223,1.223,0,0,0,1.184-.6V22.66h1.7V29H33.518Zm5.836.762a3.112,3.112,0,0,1-2.271-.855,3.041,3.041,0,0,1-.876-2.279v-.164a3.83,3.83,0,0,1,.369-1.708,2.709,2.709,0,0,1,1.046-1.16,2.936,2.936,0,0,1,1.544-.407,2.631,2.631,0,0,1,2.048.82,3.333,3.333,0,0,1,.747,2.326v.691H37.877a1.573,1.573,0,0,0,.5,1,1.5,1.5,0,0,0,1.046.375,1.828,1.828,0,0,0,1.529-.709l.832.932a2.542,2.542,0,0,1-1.031.841A3.383,3.383,0,0,1,39.307,29.117Zm-.193-5.209a1.058,1.058,0,0,0-.817.341,1.768,1.768,0,0,0-.4.977H40.25v-.135a1.261,1.261,0,0,0-.3-.874A1.092,1.092,0,0,0,39.113,23.908Zm7.324.34a4.6,4.6,0,0,0-.609-.047,1.24,1.24,0,0,0-1.26.65V29H42.875V22.66h1.6l.047.756a1.569,1.569,0,0,1,1.412-.873,1.774,1.774,0,0,1,.527.076ZM50.75,29a1.88,1.88,0,0,1-.17-.568,2.049,2.049,0,0,1-1.6.686,2.251,2.251,0,0,1-1.544-.539,1.734,1.734,0,0,1-.612-1.359,1.792,1.792,0,0,1,.747-1.547,3.686,3.686,0,0,1,2.159-.545h.779v-.363a1.045,1.045,0,0,0-.226-.7.887.887,0,0,0-.712-.264A1.009,1.009,0,0,0,48.9,24a.7.7,0,0,0-.243.563H46.965a1.7,1.7,0,0,1,.34-1.02,2.246,2.246,0,0,1,.961-.735,3.5,3.5,0,0,1,1.395-.267,2.767,2.767,0,0,1,1.86.589,2.06,2.06,0,0,1,.688,1.655v2.748a3.031,3.031,0,0,0,.252,1.365V29Zm-1.4-1.178a1.458,1.458,0,0,0,.691-.167,1.1,1.1,0,0,0,.469-.448v-1.09h-.633q-1.271,0-1.354.879l-.006.1a.678.678,0,0,0,.223.521A.865.865,0,0,0,49.35,27.822Zm6.885-2.039a3.821,3.821,0,0,1,.665-2.361,2.158,2.158,0,0,1,1.819-.879,1.942,1.942,0,0,1,1.529.691V20h1.7v9H60.418l-.082-.674a1.993,1.993,0,0,1-1.629.791,2.152,2.152,0,0,1-1.8-.882A3.944,3.944,0,0,1,56.234,25.783Zm1.693.12a2.516,2.516,0,0,0,.311,1.371,1.011,1.011,0,0,0,.9.477,1.133,1.133,0,0,0,1.107-.665V24.573a1.116,1.116,0,0,0-1.1-.665Q57.928,23.908,57.928,25.9Zm8.25,3.214a3.112,3.112,0,0,1-2.271-.855,3.041,3.041,0,0,1-.876-2.279v-.164A3.83,3.83,0,0,1,63.4,24.11a2.709,2.709,0,0,1,1.046-1.16,2.936,2.936,0,0,1,1.544-.407,2.631,2.631,0,0,1,2.048.82,3.333,3.333,0,0,1,.747,2.326v.691H64.748a1.573,1.573,0,0,0,.5,1,1.5,1.5,0,0,0,1.046.375,1.828,1.828,0,0,0,1.529-.709l.832.932a2.542,2.542,0,0,1-1.031.841A3.383,3.383,0,0,1,66.178,29.117Zm-.193-5.209a1.058,1.058,0,0,0-.817.341,1.768,1.768,0,0,0-.4.977h2.355v-.135a1.261,1.261,0,0,0-.3-.874A1.092,1.092,0,0,0,65.984,23.908ZM71.533,29h-1.7V20h1.7ZM8.844,47.117a3.112,3.112,0,0,1-2.271-.855A3.041,3.041,0,0,1,5.7,43.982v-.164a3.83,3.83,0,0,1,.369-1.708,2.709,2.709,0,0,1,1.046-1.16,2.936,2.936,0,0,1,1.544-.407,2.631,2.631,0,0,1,2.048.82,3.333,3.333,0,0,1,.747,2.326v.691H7.414a1.573,1.573,0,0,0,.5,1,1.5,1.5,0,0,0,1.046.375,1.828,1.828,0,0,0,1.529-.709l.832.932a2.542,2.542,0,0,1-1.031.841A3.383,3.383,0,0,1,8.844,47.117ZM8.65,41.908a1.058,1.058,0,0,0-.817.341,1.768,1.768,0,0,0-.4.977H9.787v-.135a1.261,1.261,0,0,0-.3-.874A1.092,1.092,0,0,0,8.65,41.908Zm7.2,3.34a.546.546,0,0,0-.308-.489,3.494,3.494,0,0,0-.987-.319q-2.262-.475-2.262-1.922a1.742,1.742,0,0,1,.7-1.409,2.824,2.824,0,0,1,1.831-.565,3.04,3.04,0,0,1,1.931.568,1.791,1.791,0,0,1,.724,1.477H15.781a.819.819,0,0,0-.234-.6.992.992,0,0,0-.732-.237,1.013,1.013,0,0,0-.662.193.61.61,0,0,0-.234.492.522.522,0,0,0,.267.454,2.743,2.743,0,0,0,.9.3,7.346,7.346,0,0,1,1.066.284,1.752,1.752,0,0,1,1.342,1.705,1.654,1.654,0,0,1-.744,1.4,3.21,3.21,0,0,1-1.922.536,3.353,3.353,0,0,1-1.415-.284,2.374,2.374,0,0,1-.97-.779,1.811,1.811,0,0,1-.352-1.069H13.7a.884.884,0,0,0,.334.691,1.325,1.325,0,0,0,.832.24,1.226,1.226,0,0,0,.735-.185A.574.574,0,0,0,15.846,45.248ZM20.609,39.1V40.66h1.084V41.9H20.609v3.164a.756.756,0,0,0,.135.5.677.677,0,0,0,.516.152,2.7,2.7,0,0,0,.5-.041v1.283a3.486,3.486,0,0,1-1.025.152,1.617,1.617,0,0,1-1.816-1.8V41.9H17.99V40.66h.926V39.1Zm5.7,7.9a1.88,1.88,0,0,1-.17-.568,2.049,2.049,0,0,1-1.6.686A2.251,2.251,0,0,1,23,46.578a1.734,1.734,0,0,1-.612-1.359,1.792,1.792,0,0,1,.747-1.547,3.686,3.686,0,0,1,2.159-.545h.779v-.363a1.045,1.045,0,0,0-.226-.7.887.887,0,0,0-.712-.264,1.009,1.009,0,0,0-.671.205.7.7,0,0,0-.243.563H22.525a1.7,1.7,0,0,1,.34-1.02,2.246,2.246,0,0,1,.961-.735,3.5,3.5,0,0,1,1.395-.267,2.767,2.767,0,0,1,1.86.589,2.06,2.06,0,0,1,.688,1.655v2.748a3.031,3.031,0,0,0,.252,1.365V47Zm-1.4-1.178a1.458,1.458,0,0,0,.691-.167,1.1,1.1,0,0,0,.469-.448v-1.09h-.633q-1.271,0-1.354.879l-.006.1a.678.678,0,0,0,.223.521A.865.865,0,0,0,24.91,45.822Zm9.873-1.934a3.839,3.839,0,0,1-.65,2.376,2.154,2.154,0,0,1-1.816.853,1.979,1.979,0,0,1-1.646-.791L30.594,47H29.07V38h1.693v3.229a1.929,1.929,0,0,1,1.541-.686,2.172,2.172,0,0,1,1.819.853,3.845,3.845,0,0,1,.659,2.4ZM33.09,43.76a2.536,2.536,0,0,0-.3-1.408,1.029,1.029,0,0,0-.908-.444,1.117,1.117,0,0,0-1.113.664v2.51a1.132,1.132,0,0,0,1.125.67,1.046,1.046,0,0,0,1.078-.811A4.2,4.2,0,0,0,33.09,43.76ZM37.613,47h-1.7V38h1.7Zm4.313.117a3.112,3.112,0,0,1-2.271-.855,3.041,3.041,0,0,1-.876-2.279v-.164a3.83,3.83,0,0,1,.369-1.708,2.709,2.709,0,0,1,1.046-1.16,2.936,2.936,0,0,1,1.544-.407,2.631,2.631,0,0,1,2.048.82,3.333,3.333,0,0,1,.747,2.326v.691H40.5a1.573,1.573,0,0,0,.5,1,1.5,1.5,0,0,0,1.046.375,1.828,1.828,0,0,0,1.529-.709l.832.932a2.542,2.542,0,0,1-1.031.841A3.383,3.383,0,0,1,41.926,47.117Zm-.193-5.209a1.058,1.058,0,0,0-.817.341,1.768,1.768,0,0,0-.4.977h2.355v-.135a1.261,1.261,0,0,0-.3-.874A1.092,1.092,0,0,0,41.732,41.908Zm6.4,3.844a1.111,1.111,0,0,0,.762-.258.9.9,0,0,0,.3-.686h1.588a2.172,2.172,0,0,1-.352,1.181,2.32,2.32,0,0,1-.946.832,2.962,2.962,0,0,1-1.327.3,2.752,2.752,0,0,1-2.145-.864,3.42,3.42,0,0,1-.785-2.388v-.111a3.381,3.381,0,0,1,.779-2.338,2.72,2.72,0,0,1,2.139-.873,2.667,2.667,0,0,1,1.907.677,2.4,2.4,0,0,1,.729,1.8H49.2a1.164,1.164,0,0,0-.3-.8,1.132,1.132,0,0,0-1.667.122,2.5,2.5,0,0,0-.3,1.4v.176a2.531,2.531,0,0,0,.3,1.408A1.033,1.033,0,0,0,48.131,45.752ZM53.539,47h-1.7V40.66h1.7Zm-1.8-7.98A.834.834,0,0,1,52,38.393a1.1,1.1,0,0,1,1.386,0,.895.895,0,0,1,0,1.26,1.086,1.086,0,0,1-1.377,0A.831.831,0,0,1,51.74,39.02Zm4.781,1.641.053.709a2.228,2.228,0,0,1,1.822-.826,1.691,1.691,0,0,1,1.682.967,2.177,2.177,0,0,1,1.9-.967,1.891,1.891,0,0,1,1.535.6,2.761,2.761,0,0,1,.5,1.808V47h-1.7V42.948a1.212,1.212,0,0,0-.211-.79.933.933,0,0,0-.744-.25,1.057,1.057,0,0,0-1.055.728L60.318,47H58.625V42.954a1.2,1.2,0,0,0-.217-.8.943.943,0,0,0-.738-.247,1.1,1.1,0,0,0-1.043.6V47H54.934V40.66ZM67.109,47h-1.7V40.66h1.7Zm-1.8-7.98a.834.834,0,0,1,.255-.627,1.1,1.1,0,0,1,1.386,0,.895.895,0,0,1,0,1.26,1.086,1.086,0,0,1-1.377,0A.831.831,0,0,1,65.311,39.02Zm4.752,1.641.053.732a2.213,2.213,0,0,1,1.822-.85,1.84,1.84,0,0,1,1.5.592,2.761,2.761,0,0,1,.5,1.77V47H72.248V42.936a1.1,1.1,0,0,0-.234-.784,1.048,1.048,0,0,0-.779-.244,1.164,1.164,0,0,0-1.072.611V47H68.469V40.66Zm8.08,6.457a3.112,3.112,0,0,1-2.271-.855A3.041,3.041,0,0,1,75,43.982v-.164a3.83,3.83,0,0,1,.369-1.708,2.709,2.709,0,0,1,1.046-1.16,2.936,2.936,0,0,1,1.544-.407,2.631,2.631,0,0,1,2.048.82,3.333,3.333,0,0,1,.747,2.326v.691H76.713a1.573,1.573,0,0,0,.5,1,1.5,1.5,0,0,0,1.046.375,1.828,1.828,0,0,0,1.529-.709l.832.932a2.542,2.542,0,0,1-1.031.841A3.383,3.383,0,0,1,78.143,47.117Zm-.193-5.209a1.058,1.058,0,0,0-.817.341,1.768,1.768,0,0,0-.4.977h2.355v-.135a1.261,1.261,0,0,0-.3-.874A1.092,1.092,0,0,0,77.949,41.908ZM83.738,39.1V40.66h1.084V41.9H83.738v3.164a.756.756,0,0,0,.135.5.677.677,0,0,0,.516.152,2.7,2.7,0,0,0,.5-.041v1.283a3.486,3.486,0,0,1-1.025.152,1.617,1.617,0,0,1-1.816-1.8V41.9h-.926V40.66h.926V39.1Zm1.588,4.67a3.76,3.76,0,0,1,.363-1.682,2.659,2.659,0,0,1,1.046-1.143,3.051,3.051,0,0,1,1.585-.4,2.887,2.887,0,0,1,2.095.785,3.151,3.151,0,0,1,.905,2.133l.012.434a3.314,3.314,0,0,1-.814,2.341,3.157,3.157,0,0,1-4.374,0,3.372,3.372,0,0,1-.817-2.391Zm1.693.12a2.37,2.37,0,0,0,.34,1.382,1.221,1.221,0,0,0,1.934.006,2.593,2.593,0,0,0,.346-1.511,2.346,2.346,0,0,0-.346-1.373,1.124,1.124,0,0,0-.973-.487,1.105,1.105,0,0,0-.961.484A2.637,2.637,0,0,0,87.02,43.892Z" transform="translate(1052 1491)" fill="#12263f"/>
    <path id="Trazado_174217" data-name="Trazado 174217" d="M11.4,8.885l1.934-6.416h1.957L12.324,11H10.49L7.531,2.469H9.482Zm7.242,2.232a3.112,3.112,0,0,1-2.271-.855A3.041,3.041,0,0,1,15.5,7.982V7.818a3.83,3.83,0,0,1,.369-1.708,2.709,2.709,0,0,1,1.046-1.16,2.936,2.936,0,0,1,1.544-.407,2.631,2.631,0,0,1,2.048.82,3.333,3.333,0,0,1,.747,2.326v.691H17.217a1.573,1.573,0,0,0,.5,1,1.5,1.5,0,0,0,1.046.375,1.828,1.828,0,0,0,1.529-.709l.832.932a2.542,2.542,0,0,1-1.031.841A3.383,3.383,0,0,1,18.646,11.117Zm-.193-5.209a1.058,1.058,0,0,0-.817.341,1.768,1.768,0,0,0-.4.977H19.59V7.091a1.261,1.261,0,0,0-.3-.874A1.092,1.092,0,0,0,18.453,5.908Zm5.32-1.248.053.732a2.213,2.213,0,0,1,1.822-.85,1.84,1.84,0,0,1,1.5.592,2.761,2.761,0,0,1,.5,1.77V11H25.959V6.936a1.1,1.1,0,0,0-.234-.784,1.048,1.048,0,0,0-.779-.244,1.164,1.164,0,0,0-1.072.611V11H22.18V4.66ZM30.963,3.1V4.66h1.084V5.9H30.963V9.066a.756.756,0,0,0,.135.5.677.677,0,0,0,.516.152,2.7,2.7,0,0,0,.5-.041v1.283a3.486,3.486,0,0,1-1.025.152,1.617,1.617,0,0,1-1.816-1.8V5.9h-.926V4.66h.926V3.1Zm5.7,7.9a1.88,1.88,0,0,1-.17-.568,2.049,2.049,0,0,1-1.6.686,2.251,2.251,0,0,1-1.544-.539,1.734,1.734,0,0,1-.612-1.359,1.792,1.792,0,0,1,.747-1.547,3.686,3.686,0,0,1,2.159-.545h.779V6.764a1.045,1.045,0,0,0-.226-.7.887.887,0,0,0-.712-.264A1.009,1.009,0,0,0,34.815,6a.7.7,0,0,0-.243.563H32.879a1.7,1.7,0,0,1,.34-1.02,2.246,2.246,0,0,1,.961-.735,3.5,3.5,0,0,1,1.395-.267,2.767,2.767,0,0,1,1.86.589,2.06,2.06,0,0,1,.688,1.655V9.535a3.031,3.031,0,0,0,.252,1.365V11Zm-1.4-1.178a1.458,1.458,0,0,0,.691-.167,1.1,1.1,0,0,0,.469-.448V8.117h-.633q-1.271,0-1.354.879l-.006.1a.678.678,0,0,0,.223.521A.865.865,0,0,0,35.264,9.822ZM44.2,11H42.5V4.66h1.7ZM42.4,3.02a.834.834,0,0,1,.255-.627,1.1,1.1,0,0,1,1.386,0,.829.829,0,0,1,.258.627.831.831,0,0,1-.261.633,1.086,1.086,0,0,1-1.377,0A.831.831,0,0,1,42.4,3.02ZM47.152,4.66l.053.732a2.213,2.213,0,0,1,1.822-.85,1.84,1.84,0,0,1,1.5.592,2.761,2.761,0,0,1,.5,1.77V11H49.338V6.936a1.1,1.1,0,0,0-.234-.784,1.048,1.048,0,0,0-.779-.244,1.164,1.164,0,0,0-1.072.611V11H45.559V4.66ZM54.342,3.1V4.66h1.084V5.9H54.342V9.066a.756.756,0,0,0,.135.5.677.677,0,0,0,.516.152,2.7,2.7,0,0,0,.5-.041v1.283a3.486,3.486,0,0,1-1.025.152,1.617,1.617,0,0,1-1.816-1.8V5.9h-.926V4.66h.926V3.1Zm4.945,8.016a3.112,3.112,0,0,1-2.271-.855,3.041,3.041,0,0,1-.876-2.279V7.818A3.83,3.83,0,0,1,56.51,6.11a2.709,2.709,0,0,1,1.046-1.16A2.936,2.936,0,0,1,59.1,4.543a2.631,2.631,0,0,1,2.048.82,3.333,3.333,0,0,1,.747,2.326v.691H57.857a1.573,1.573,0,0,0,.5,1,1.5,1.5,0,0,0,1.046.375,1.828,1.828,0,0,0,1.529-.709l.832.932a2.542,2.542,0,0,1-1.031.841A3.383,3.383,0,0,1,59.287,11.117Zm-.193-5.209a1.058,1.058,0,0,0-.817.341,1.768,1.768,0,0,0-.4.977H60.23V7.091a1.261,1.261,0,0,0-.3-.874A1.092,1.092,0,0,0,59.094,5.908Zm7.324.34a4.6,4.6,0,0,0-.609-.047,1.24,1.24,0,0,0-1.26.65V11H62.855V4.66h1.6l.047.756a1.569,1.569,0,0,1,1.412-.873,1.774,1.774,0,0,1,.527.076ZM68.791,4.66l.053.732a2.213,2.213,0,0,1,1.822-.85,1.84,1.84,0,0,1,1.5.592,2.761,2.761,0,0,1,.5,1.77V11H70.977V6.936a1.1,1.1,0,0,0-.234-.784,1.048,1.048,0,0,0-.779-.244,1.164,1.164,0,0,0-1.072.611V11H67.2V4.66ZM77.627,11a1.88,1.88,0,0,1-.17-.568,2.049,2.049,0,0,1-1.6.686,2.251,2.251,0,0,1-1.544-.539A1.734,1.734,0,0,1,73.7,9.219a1.792,1.792,0,0,1,.747-1.547,3.686,3.686,0,0,1,2.159-.545h.779V6.764a1.045,1.045,0,0,0-.226-.7.887.887,0,0,0-.712-.264A1.009,1.009,0,0,0,75.778,6a.7.7,0,0,0-.243.563H73.842a1.7,1.7,0,0,1,.34-1.02,2.246,2.246,0,0,1,.961-.735,3.5,3.5,0,0,1,1.395-.267,2.767,2.767,0,0,1,1.86.589,2.06,2.06,0,0,1,.688,1.655V9.535a3.031,3.031,0,0,0,.252,1.365V11Zm-1.4-1.178a1.458,1.458,0,0,0,.691-.167,1.1,1.1,0,0,0,.469-.448V8.117h-.633q-1.271,0-1.354.879l-.006.1a.678.678,0,0,0,.223.521A.865.865,0,0,0,76.227,9.822Zm6.885-2.051a3.76,3.76,0,0,1,.363-1.682,2.659,2.659,0,0,1,1.046-1.143,3.051,3.051,0,0,1,1.585-.4,2.887,2.887,0,0,1,2.095.785,3.151,3.151,0,0,1,.905,2.133l.012.434a3.314,3.314,0,0,1-.814,2.341,3.157,3.157,0,0,1-4.374,0,3.372,3.372,0,0,1-.817-2.391Zm1.693.12a2.37,2.37,0,0,0,.34,1.382,1.221,1.221,0,0,0,1.934.006,2.593,2.593,0,0,0,.346-1.511A2.346,2.346,0,0,0,87.078,6.4a1.124,1.124,0,0,0-.973-.487,1.105,1.105,0,0,0-.961.484A2.637,2.637,0,0,0,84.8,7.892ZM21.69,25.783a3.821,3.821,0,0,1,.665-2.361,2.158,2.158,0,0,1,1.819-.879,1.942,1.942,0,0,1,1.529.691V20h1.7v9H25.874l-.082-.674a1.993,1.993,0,0,1-1.629.791,2.152,2.152,0,0,1-1.8-.882A3.944,3.944,0,0,1,21.69,25.783Zm1.693.12a2.516,2.516,0,0,0,.311,1.371,1.011,1.011,0,0,0,.9.477,1.133,1.133,0,0,0,1.107-.665V24.573a1.116,1.116,0,0,0-1.1-.665Q23.384,23.908,23.384,25.9Zm8.25,3.214a3.112,3.112,0,0,1-2.271-.855,3.041,3.041,0,0,1-.876-2.279v-.164a3.83,3.83,0,0,1,.369-1.708A2.709,2.709,0,0,1,29.9,22.95a2.936,2.936,0,0,1,1.544-.407,2.631,2.631,0,0,1,2.048.82,3.333,3.333,0,0,1,.747,2.326v.691H30.2a1.573,1.573,0,0,0,.5,1,1.5,1.5,0,0,0,1.046.375,1.828,1.828,0,0,0,1.529-.709l.832.932a2.542,2.542,0,0,1-1.031.841A3.383,3.383,0,0,1,31.634,29.117Zm-.193-5.209a1.058,1.058,0,0,0-.817.341,1.768,1.768,0,0,0-.4.977h2.355v-.135a1.261,1.261,0,0,0-.3-.874A1.092,1.092,0,0,0,31.44,23.908Zm5.32-1.248.053.732a2.213,2.213,0,0,1,1.822-.85,1.84,1.84,0,0,1,1.5.592,2.761,2.761,0,0,1,.5,1.77V29H38.946V24.936a1.1,1.1,0,0,0-.234-.784,1.048,1.048,0,0,0-.779-.244,1.164,1.164,0,0,0-1.072.611V29H35.167V22.66ZM43.95,21.1V22.66h1.084V23.9H43.95v3.164a.756.756,0,0,0,.135.5.677.677,0,0,0,.516.152,2.7,2.7,0,0,0,.5-.041v1.283a3.486,3.486,0,0,1-1.025.152,1.617,1.617,0,0,1-1.816-1.8V23.9h-.926V22.66h.926V21.1Zm5.59,3.146a4.6,4.6,0,0,0-.609-.047,1.24,1.24,0,0,0-1.26.65V29H45.978V22.66h1.6l.047.756a1.569,1.569,0,0,1,1.412-.873,1.774,1.774,0,0,1,.527.076Zm.34,1.523a3.76,3.76,0,0,1,.363-1.682,2.659,2.659,0,0,1,1.046-1.143,3.051,3.051,0,0,1,1.585-.4,2.887,2.887,0,0,1,2.095.785,3.151,3.151,0,0,1,.905,2.133l.012.434a3.314,3.314,0,0,1-.814,2.341,3.157,3.157,0,0,1-4.374,0,3.372,3.372,0,0,1-.817-2.391Zm1.693.12a2.37,2.37,0,0,0,.34,1.382,1.221,1.221,0,0,0,1.934.006,2.593,2.593,0,0,0,.346-1.511,2.346,2.346,0,0,0-.346-1.373,1.124,1.124,0,0,0-.973-.487,1.105,1.105,0,0,0-.961.484A2.637,2.637,0,0,0,51.573,25.892Zm8.08-.108a3.821,3.821,0,0,1,.665-2.361,2.158,2.158,0,0,1,1.819-.879,1.942,1.942,0,0,1,1.529.691V20h1.7v9H63.837l-.082-.674a1.993,1.993,0,0,1-1.629.791,2.152,2.152,0,0,1-1.8-.882A3.944,3.944,0,0,1,59.653,25.783Zm1.693.12a2.516,2.516,0,0,0,.311,1.371,1.011,1.011,0,0,0,.9.477,1.133,1.133,0,0,0,1.107-.665V24.573a1.116,1.116,0,0,0-1.1-.665Q61.347,23.908,61.347,25.9Zm8.25,3.214a3.112,3.112,0,0,1-2.271-.855,3.041,3.041,0,0,1-.876-2.279v-.164a3.83,3.83,0,0,1,.369-1.708,2.709,2.709,0,0,1,1.046-1.16,2.936,2.936,0,0,1,1.544-.407,2.631,2.631,0,0,1,2.048.82,3.333,3.333,0,0,1,.747,2.326v.691H68.167a1.573,1.573,0,0,0,.5,1,1.5,1.5,0,0,0,1.046.375,1.828,1.828,0,0,0,1.529-.709l.832.932a2.542,2.542,0,0,1-1.031.841A3.383,3.383,0,0,1,69.6,29.117ZM69.4,23.908a1.058,1.058,0,0,0-.817.341,1.768,1.768,0,0,0-.4.977H70.54v-.135a1.261,1.261,0,0,0-.3-.874A1.092,1.092,0,0,0,69.4,23.908ZM74.952,29h-1.7V20h1.7ZM8.844,47.117a3.112,3.112,0,0,1-2.271-.855A3.041,3.041,0,0,1,5.7,43.982v-.164a3.83,3.83,0,0,1,.369-1.708,2.709,2.709,0,0,1,1.046-1.16,2.936,2.936,0,0,1,1.544-.407,2.631,2.631,0,0,1,2.048.82,3.333,3.333,0,0,1,.747,2.326v.691H7.414a1.573,1.573,0,0,0,.5,1,1.5,1.5,0,0,0,1.046.375,1.828,1.828,0,0,0,1.529-.709l.832.932a2.542,2.542,0,0,1-1.031.841A3.383,3.383,0,0,1,8.844,47.117ZM8.65,41.908a1.058,1.058,0,0,0-.817.341,1.768,1.768,0,0,0-.4.977H9.787v-.135a1.261,1.261,0,0,0-.3-.874A1.092,1.092,0,0,0,8.65,41.908Zm7.2,3.34a.546.546,0,0,0-.308-.489,3.494,3.494,0,0,0-.987-.319q-2.262-.475-2.262-1.922a1.742,1.742,0,0,1,.7-1.409,2.824,2.824,0,0,1,1.831-.565,3.04,3.04,0,0,1,1.931.568,1.791,1.791,0,0,1,.724,1.477H15.781a.819.819,0,0,0-.234-.6.992.992,0,0,0-.732-.237,1.013,1.013,0,0,0-.662.193.61.61,0,0,0-.234.492.522.522,0,0,0,.267.454,2.743,2.743,0,0,0,.9.3,7.346,7.346,0,0,1,1.066.284,1.752,1.752,0,0,1,1.342,1.705,1.654,1.654,0,0,1-.744,1.4,3.21,3.21,0,0,1-1.922.536,3.353,3.353,0,0,1-1.415-.284,2.374,2.374,0,0,1-.97-.779,1.811,1.811,0,0,1-.352-1.069H13.7a.884.884,0,0,0,.334.691,1.325,1.325,0,0,0,.832.24,1.226,1.226,0,0,0,.735-.185A.574.574,0,0,0,15.846,45.248ZM20.609,39.1V40.66h1.084V41.9H20.609v3.164a.756.756,0,0,0,.135.5.677.677,0,0,0,.516.152,2.7,2.7,0,0,0,.5-.041v1.283a3.486,3.486,0,0,1-1.025.152,1.617,1.617,0,0,1-1.816-1.8V41.9H17.99V40.66h.926V39.1Zm5.7,7.9a1.88,1.88,0,0,1-.17-.568,2.049,2.049,0,0,1-1.6.686A2.251,2.251,0,0,1,23,46.578a1.734,1.734,0,0,1-.612-1.359,1.792,1.792,0,0,1,.747-1.547,3.686,3.686,0,0,1,2.159-.545h.779v-.363a1.045,1.045,0,0,0-.226-.7.887.887,0,0,0-.712-.264,1.009,1.009,0,0,0-.671.205.7.7,0,0,0-.243.563H22.525a1.7,1.7,0,0,1,.34-1.02,2.246,2.246,0,0,1,.961-.735,3.5,3.5,0,0,1,1.395-.267,2.767,2.767,0,0,1,1.86.589,2.06,2.06,0,0,1,.688,1.655v2.748a3.031,3.031,0,0,0,.252,1.365V47Zm-1.4-1.178a1.458,1.458,0,0,0,.691-.167,1.1,1.1,0,0,0,.469-.448v-1.09h-.633q-1.271,0-1.354.879l-.006.1a.678.678,0,0,0,.223.521A.865.865,0,0,0,24.91,45.822Zm9.873-1.934a3.839,3.839,0,0,1-.65,2.376,2.154,2.154,0,0,1-1.816.853,1.979,1.979,0,0,1-1.646-.791L30.594,47H29.07V38h1.693v3.229a1.929,1.929,0,0,1,1.541-.686,2.172,2.172,0,0,1,1.819.853,3.845,3.845,0,0,1,.659,2.4ZM33.09,43.76a2.536,2.536,0,0,0-.3-1.408,1.029,1.029,0,0,0-.908-.444,1.117,1.117,0,0,0-1.113.664v2.51a1.132,1.132,0,0,0,1.125.67,1.046,1.046,0,0,0,1.078-.811A4.2,4.2,0,0,0,33.09,43.76ZM37.613,47h-1.7V38h1.7Zm4.313.117a3.112,3.112,0,0,1-2.271-.855,3.041,3.041,0,0,1-.876-2.279v-.164a3.83,3.83,0,0,1,.369-1.708,2.709,2.709,0,0,1,1.046-1.16,2.936,2.936,0,0,1,1.544-.407,2.631,2.631,0,0,1,2.048.82,3.333,3.333,0,0,1,.747,2.326v.691H40.5a1.573,1.573,0,0,0,.5,1,1.5,1.5,0,0,0,1.046.375,1.828,1.828,0,0,0,1.529-.709l.832.932a2.542,2.542,0,0,1-1.031.841A3.383,3.383,0,0,1,41.926,47.117Zm-.193-5.209a1.058,1.058,0,0,0-.817.341,1.768,1.768,0,0,0-.4.977h2.355v-.135a1.261,1.261,0,0,0-.3-.874A1.092,1.092,0,0,0,41.732,41.908Zm6.4,3.844a1.111,1.111,0,0,0,.762-.258.9.9,0,0,0,.3-.686h1.588a2.172,2.172,0,0,1-.352,1.181,2.32,2.32,0,0,1-.946.832,2.962,2.962,0,0,1-1.327.3,2.752,2.752,0,0,1-2.145-.864,3.42,3.42,0,0,1-.785-2.388v-.111a3.381,3.381,0,0,1,.779-2.338,2.72,2.72,0,0,1,2.139-.873,2.667,2.667,0,0,1,1.907.677,2.4,2.4,0,0,1,.729,1.8H49.2a1.164,1.164,0,0,0-.3-.8,1.132,1.132,0,0,0-1.667.122,2.5,2.5,0,0,0-.3,1.4v.176a2.531,2.531,0,0,0,.3,1.408A1.033,1.033,0,0,0,48.131,45.752ZM53.539,47h-1.7V40.66h1.7Zm-1.8-7.98A.834.834,0,0,1,52,38.393a1.1,1.1,0,0,1,1.386,0,.895.895,0,0,1,0,1.26,1.086,1.086,0,0,1-1.377,0A.831.831,0,0,1,51.74,39.02Zm4.781,1.641.053.709a2.228,2.228,0,0,1,1.822-.826,1.691,1.691,0,0,1,1.682.967,2.177,2.177,0,0,1,1.9-.967,1.891,1.891,0,0,1,1.535.6,2.761,2.761,0,0,1,.5,1.808V47h-1.7V42.948a1.212,1.212,0,0,0-.211-.79.933.933,0,0,0-.744-.25,1.057,1.057,0,0,0-1.055.728L60.318,47H58.625V42.954a1.2,1.2,0,0,0-.217-.8.943.943,0,0,0-.738-.247,1.1,1.1,0,0,0-1.043.6V47H54.934V40.66ZM67.109,47h-1.7V40.66h1.7Zm-1.8-7.98a.834.834,0,0,1,.255-.627,1.1,1.1,0,0,1,1.386,0,.895.895,0,0,1,0,1.26,1.086,1.086,0,0,1-1.377,0A.831.831,0,0,1,65.311,39.02Zm6.111,8.1a3.112,3.112,0,0,1-2.271-.855,3.041,3.041,0,0,1-.876-2.279v-.164a3.83,3.83,0,0,1,.369-1.708,2.709,2.709,0,0,1,1.046-1.16,2.936,2.936,0,0,1,1.544-.407,2.631,2.631,0,0,1,2.048.82,3.333,3.333,0,0,1,.747,2.326v.691H69.992a1.573,1.573,0,0,0,.5,1,1.5,1.5,0,0,0,1.046.375,1.828,1.828,0,0,0,1.529-.709l.832.932a2.542,2.542,0,0,1-1.031.841A3.383,3.383,0,0,1,71.422,47.117Zm-.193-5.209a1.058,1.058,0,0,0-.817.341,1.768,1.768,0,0,0-.4.977h2.355v-.135a1.261,1.261,0,0,0-.3-.874A1.092,1.092,0,0,0,71.229,41.908Zm5.32-1.248.053.732a2.213,2.213,0,0,1,1.822-.85,1.84,1.84,0,0,1,1.5.592,2.761,2.761,0,0,1,.5,1.77V47H78.734V42.936a1.1,1.1,0,0,0-.234-.784,1.048,1.048,0,0,0-.779-.244,1.164,1.164,0,0,0-1.072.611V47H74.955V40.66ZM83.738,39.1V40.66h1.084V41.9H83.738v3.164a.756.756,0,0,0,.135.5.677.677,0,0,0,.516.152,2.7,2.7,0,0,0,.5-.041v1.283a3.486,3.486,0,0,1-1.025.152,1.617,1.617,0,0,1-1.816-1.8V41.9h-.926V40.66h.926V39.1Zm1.588,4.67a3.76,3.76,0,0,1,.363-1.682,2.659,2.659,0,0,1,1.046-1.143,3.051,3.051,0,0,1,1.585-.4,2.887,2.887,0,0,1,2.095.785,3.151,3.151,0,0,1,.905,2.133l.012.434a3.314,3.314,0,0,1-.814,2.341,3.157,3.157,0,0,1-4.374,0,3.372,3.372,0,0,1-.817-2.391Zm1.693.12a2.37,2.37,0,0,0,.34,1.382,1.221,1.221,0,0,0,1.934.006,2.593,2.593,0,0,0,.346-1.511,2.346,2.346,0,0,0-.346-1.373,1.124,1.124,0,0,0-.973-.487,1.105,1.105,0,0,0-.961.484A2.637,2.637,0,0,0,87.02,43.892Z" transform="translate(797 1491)" fill="#12263f"/>
  </g>
</svg>
