<svg xmlns="http://www.w3.org/2000/svg" width="90.144" height="108" viewBox="0 0 90.144 108">
  <g id="Grupo_119312" data-name="Grupo 119312" transform="translate(6288.568 -6377.999)">
    <circle id="Elipse_4797" data-name="Elipse 4797" cx="38.5" cy="38.5" r="38.5" transform="translate(-6275.424 6409)" fill="#5c22c3"/>
    <g id="_1" data-name="1" transform="translate(-6322.896 6359.242)">
      <g id="man" transform="translate(63.433 18.757)">
        <g id="_1-2" data-name="1" transform="translate(3.795)">
          <ellipse id="Elipse_4791" data-name="Elipse 4791" cx="10.415" cy="6.013" rx="10.415" ry="6.013" transform="translate(10.95 79.955) rotate(-0.311)" fill="#5681c1" opacity="0.22" style="mix-blend-mode: multiply;isolation: isolate"/>
          <path id="Trazado_173081" data-name="Trazado 173081" d="M107.883,125.624s1.1,1.171-1.4,3.235c-1.131.935-1.765,2.409-1.194,2.86.689.545,3.608.427,4.267-1.2.625-1.546.6-2.72,1.319-3.2s.257-2.254-1.023-2.691a1.373,1.373,0,0,1-.308.591C108.959,125.915,107.95,126.122,107.883,125.624Z" transform="translate(-86.378 -47.412)" fill="#7289a5"/>
          <path id="Trazado_173082" data-name="Trazado 173082" d="M107.883,125.039s1.1,1.171-1.4,3.235c-1.131.935-1.765,2.408-1.194,2.86.689.545,3.608.427,4.267-1.2.625-1.546.6-2.72,1.319-3.2s.257-2.253-1.023-2.691a1.369,1.369,0,0,1-.308.591C108.959,125.33,107.95,125.537,107.883,125.039Z" transform="translate(-86.378 -47.254)" fill="#9fbad6"/>
          <path id="Trazado_173083" data-name="Trazado 173083" d="M97.683,77.055l0-.036a4.871,4.871,0,1,1,9.606.944c-.306,1.286-3.218,12.7-3.65,15.3-.093,1.842,6.027,12.865,4.1,16.132a8.271,8.271,0,0,1-1.865,1.223c-.968.559-8-14.841-8.118-17.513A119.428,119.428,0,0,1,97.683,77.055Z" transform="translate(-84.308 -33.159)" fill="#273a49"/>
          <path id="Trazado_173084" data-name="Trazado 173084" d="M104.341,105.746c-.771-5.134-2.237-6.433-1.975-7.295.622-2.047,2.108-9.126,1.012-11.915s-2.428-6.482-2.428-6.482l7.356-.355c-.02.119-.038.238-.066.357-.306,1.286-3.217,12.695-3.65,15.3h0c-.093,1.842,6.027,12.865,4.1,16.132a8.271,8.271,0,0,1-1.865,1.223c-.294.17-1.149-1.138-2.2-3.111A23.884,23.884,0,0,0,104.341,105.746Z" transform="translate(-85.261 -35.253)" fill="#3e6593" opacity="0.42" style="mix-blend-mode: multiply;isolation: isolate"/>
          <path id="Trazado_173085" data-name="Trazado 173085" d="M107.256,133.841a12.2,12.2,0,0,1-2.675,4.748c-1.065,1.156-.529,2.475.462,2.714a2.777,2.777,0,0,0,3.4-1.8c.905-3.153,1.523-3.2,1.529-5.142a1.181,1.181,0,0,1-.929.439C108.328,134.818,107.257,134.409,107.256,133.841Z" transform="translate(-86.085 -49.907)" fill="#7289a5"/>
          <path id="Trazado_173086" data-name="Trazado 173086" d="M107.256,133.337a12.2,12.2,0,0,1-2.675,4.748c-1.065,1.156-.529,2.475.462,2.714a2.777,2.777,0,0,0,3.4-1.8c.905-3.154,1.523-3.2,1.529-5.142a1.181,1.181,0,0,1-.929.439C108.328,134.314,107.257,133.905,107.256,133.337Z" transform="translate(-86.085 -49.771)" fill="#9fbad6"/>
          <path id="Trazado_173087" data-name="Trazado 173087" d="M82.756,65.133l6.072-7.179a1.731,1.731,0,0,1,.214-.19,1.769,1.769,0,0,1,2.41.286,1.6,1.6,0,0,1-.3,2.306s-7.575,6.339-7.645,6.5a9.979,9.979,0,0,1-.795,1.345c-.3.3.3.279-.181.379-.113.024-1.141,1.865-1.516,1.986-1.666.212-1.664-1.936-1.521-2.249A5.947,5.947,0,0,1,82.756,65.133Z" transform="translate(-79.438 -29.221)" fill="#ffa89c"/>
          <path id="Trazado_173088" data-name="Trazado 173088" d="M84.72,68.567l-.2-1.1s-3.073,3.267-4.284,3.868c-1.014.5-.506,1.5,1.149,1.587.427-.485,1.012-1.4,1.182-1.582a.144.144,0,0,1,.043-.039h0a.466.466,0,0,0,.187-.059.017.017,0,0,0,0-.025c-.033-.044-.2-.106-.006-.295a5.894,5.894,0,0,0,.5-.794c.077-.136.146-.262.2-.365.042-.079.077-.149.093-.185S84.049,69.143,84.72,68.567Z" transform="translate(-79.512 -31.941)" fill="#965f7e" opacity="0.26" style="mix-blend-mode: multiply;isolation: isolate"/>
          <path id="Trazado_173089" data-name="Trazado 173089" d="M95.759,36.318c-1.659-.127-2.989,2.235-3.307,3.693-.357,1.628-2.222,11.106-2.222,11.106l-6.65,8.451c.176-.12.69-.265,1.06.543.044.1.435.576.292.74l9.109-7.1L97.205,39.12C97.325,37.855,97.094,36.42,95.759,36.318Z" transform="translate(-80.559 -23.509)" fill="#ffa89c"/>
          <path id="Trazado_173090" data-name="Trazado 173090" d="M100.366,37.643c-.256-.9-1.413-2.309-3.584-.793s-2.73,8.1-2.73,8.1c-.15.668.927,1.479,2.405,1.81s2.8.058,2.948-.61C99.405,46.149,101.089,40.193,100.366,37.643Z" transform="translate(-83.39 -23.473)" fill="#cde7fc"/>
          <path id="Trazado_173091" data-name="Trazado 173091" d="M112.91,42.055a29.01,29.01,0,0,0-5-4.157,16.6,16.6,0,0,0-6.608-1.955,4.13,4.13,0,0,0-2.378.394c-1.3.762-1.517,2.159-1.78,3.3a31.11,31.11,0,0,0-.868,7.425c0,2.405,1.416,15.637,1.618,17.508l0,.019v.355A3.343,3.343,0,0,0,99.782,67.4a8.659,8.659,0,0,0,3.32,1.02h.006a9.719,9.719,0,0,0,5.729-1.008,3.056,3.056,0,0,0,1.854-2.771,1.969,1.969,0,0,0-.038-.246c.008.009.006,0-.006-.046l0-.015c-.005-.023-.006-.045-.011-.067s-.008-.019-.011-.028c-1.461-5.481,1.841-10.063,2.478-11.874a2.7,2.7,0,0,0,.117-.365c.015-.044.029-.095.044-.146a1.066,1.066,0,0,0,.036-.146l.044-.153c.036-.153.08-.314.117-.489v-.015c.022-.117.051-.233.073-.35.051-.241.1-.5.146-.766.015-.131.036-.263.058-.394s.044-.277.058-.416c.058-.445.1-.9.139-1.364v-.007C114.077,45.629,113.894,43.346,112.91,42.055Z" transform="translate(-83.997 -23.401)" fill="#cde7fc"/>
          <path id="Trazado_173092" data-name="Trazado 173092" d="M110.656,38.352h0a1.294,1.294,0,0,0-.756-.8l-.045.64c.064.2.116.395.116.395h0l-.01,0c.853,2.425-3.808,9.755-5.675,12.376l.594.423C105.168,50.991,111.8,41.634,110.656,38.352Z" transform="translate(-86.165 -23.844)" fill="#273a49"/>
          <g id="Grupo_118775" data-name="Grupo 118775" transform="translate(12.757 12.741)">
            <path id="Trazado_173093" data-name="Trazado 173093" d="M97.649,47.433l-.72-.121C97,46.9,98.7,37.219,105.3,36.226l.109.722C99.329,37.863,97.664,47.337,97.649,47.433Z" transform="translate(-96.929 -36.226)" fill="#273a49"/>
          </g>
          <path id="Trazado_173094" data-name="Trazado 173094" d="M113.894,67.954a1.969,1.969,0,0,0-.038-.246c.008.009.006,0-.006-.046l0-.015c-.005-.023-.006-.045-.011-.067s-.008-.019-.011-.028c-1.461-5.481,1.841-10.063,2.478-11.874a2.7,2.7,0,0,0,.117-.365c.015-.044.029-.095.044-.146a1.066,1.066,0,0,0,.036-.146l.044-.153c.036-.153.08-.314.117-.489v-.015c.022-.117.051-.233.073-.35.051-.241.1-.5.146-.766.015-.131.036-.263.058-.394s.044-.277.058-.416c.058-.445.1-.9.139-1.364v-.007a15.915,15.915,0,0,0-.023-2.612c-1.711-.6-7.987-1.8-8.938,12.582-.306,4.633.682,7.959,2.266,10.352a7.365,7.365,0,0,0,1.6-.666A3.056,3.056,0,0,0,113.894,67.954Z" transform="translate(-87.201 -26.711)" fill="#3e6593" opacity="0.28" style="mix-blend-mode: multiply;isolation: isolate"/>
          <path id="Trazado_173095" data-name="Trazado 173095" d="M112.237,58.573c-.928,2.4-2.55,2.756-2.55,2.756a3.082,3.082,0,0,1-3.458-.281,4.551,4.551,0,0,1-1.663-2.666l-.808-3.526a3.556,3.556,0,0,0-1.688-2.285L97.754,50.08a.729.729,0,0,0-1.093.61l-.088,3.119c-.031.174-.048.284-.048.284l.028.422v0h0l1.012,15.24,1.4,1.1a8.41,8.41,0,0,0,.21,1.337,6.768,6.768,0,0,0,2.142,3.471c2.655,2.4,1.777,7.343,2.34,14.53.777,9.929,1.214,20.218,1.218,20.278a1.267,1.267,0,0,0,.731.976,2.148,2.148,0,0,0,2.553.007,1.221,1.221,0,0,0,.72-1.009c0-.1,1.119-15.166,1.076-16.616-.027-.94.859-15.945,1.439-21.76v0C111.444,71.544,112.237,58.573,112.237,58.573Z" transform="translate(-84.063 -27.209)" fill="#273a49"/>
          <path id="Trazado_173096" data-name="Trazado 173096" d="M112.84,64.517a3.082,3.082,0,0,1-3.458-.281,4.139,4.139,0,0,1-1.046-1.153,18.511,18.511,0,0,0,1.473,9.772c1.609,3.992,1.516,5.72,2.195,9.158.643,3.253.208,15.6,0,21.339-.186,5.145-1.042,10.9-2.819,11.509a2.068,2.068,0,0,0,2.124-.21,1.221,1.221,0,0,0,.72-1.009c0-.1,1.119-15.166,1.076-16.616-.027-.94.859-15.945,1.439-21.76v0c.053-.53.846-13.5.846-13.5C114.462,64.158,112.84,64.517,112.84,64.517Z" transform="translate(-87.216 -30.397)" fill="#3e6593" opacity="0.42" style="mix-blend-mode: multiply;isolation: isolate"/>
          <g id="Grupo_118776" data-name="Grupo 118776" transform="translate(25.639 48.055)">
            <path id="Trazado_173097" data-name="Trazado 173097" d="M114.592,84.647a.4.4,0,0,0,.028.065A.27.27,0,0,1,114.592,84.647Z" transform="translate(-114.592 -84.647)" fill="#965f7e" opacity="0.15" style="mix-blend-mode: multiply;isolation: isolate"/>
          </g>
          <g id="Grupo_118777" data-name="Grupo 118777" transform="translate(24.346 32.782)">
            <path id="Trazado_173098" data-name="Trazado 173098" d="M112.819,63.705Z" transform="translate(-112.819 -63.705)" fill="#32425b"/>
          </g>
          <path id="Trazado_173099" data-name="Trazado 173099" d="M107.155,30.3a1.659,1.659,0,0,1,3.176.8s-.38,5.714-.373,5.867a1.263,1.263,0,0,1-.721,1.079,4.009,4.009,0,0,1-3.628.1,1.23,1.23,0,0,1-.77-1.071C104.846,36.9,107.155,30.3,107.155,30.3Z" transform="translate(-86.313 -21.61)" fill="#ea8c8c"/>
          <path id="Trazado_173100" data-name="Trazado 173100" d="M111.56,26.769c-.91,5.766-6.592,6.788-7.748,6.457-1.607-.461-2.134-3.876-1.72-7.527s2.868-6.373,5.482-6.077S112.133,23.139,111.56,26.769Z" transform="translate(-85.533 -18.985)" fill="#ffa89c"/>
          <path id="Trazado_173101" data-name="Trazado 173101" d="M110.277,21.606a7.116,7.116,0,0,1,1.4,5.677,7.6,7.6,0,0,1-6.231,6.408c3.638-.937,2.89-5.6,2.055-5.924s-.176.677-.176.677c-.768-.8-4.943-2.588-4.943-2.588l.075-.966a7.565,7.565,0,0,1,1.861-3.391Z" transform="translate(-85.647 -19.499)" fill="#965f7e" opacity="0.15" style="mix-blend-mode: multiply;isolation: isolate"/>
          <path id="Trazado_173102" data-name="Trazado 173102" d="M102.715,20.353c-2.048,1.364-3.4,4.337-.607,5.115,4.854,1.353,6.942.259,6.916,3.809-.006.716-.034,1.6-.034,1.6s1.44-.532,2.944-3.854a6.97,6.97,0,0,0,.5-4.619,1.9,1.9,0,0,0-1.742-1.368,2.943,2.943,0,0,0-3.173-2.278A8.692,8.692,0,0,0,102.715,20.353Z" transform="translate(-85.146 -18.757)" fill="#32425b"/>
          <path id="Trazado_173103" data-name="Trazado 173103" d="M112.024,31.654c.416-.5.489-1.131.16-1.4s-.931-.083-1.347.42-.489,1.131-.16,1.4S111.607,32.157,112.024,31.654Z" transform="translate(-87.838 -21.835)" fill="#ffa89c"/>
          <path id="Trazado_173104" data-name="Trazado 173104" d="M110.677,32.2a.664.664,0,0,1-.2-.6,3.443,3.443,0,0,1,1.008-1.017,1.645,1.645,0,0,0-.416.876c-.057.513.321.773.792.489C111.463,32.32,110.965,32.436,110.677,32.2Z" transform="translate(-87.838 -21.958)" fill="#965f7e" opacity="0.15" style="mix-blend-mode: multiply;isolation: isolate"/>
          <path id="Trazado_173105" data-name="Trazado 173105" d="M106.562,27.454A2.183,2.183,0,0,1,108,29.639a8.285,8.285,0,0,0-3.119-1.47c-1.888-.445-.772-1.078-.772-1.078Z" transform="translate(-86.026 -21.013)" fill="#32425b"/>
        </g>
        <g id="Grupo_118787" data-name="Grupo 118787" transform="translate(0 38.332)">
          <g id="Grupo_118786" data-name="Grupo 118786">
            <g id="Grupo_118785" data-name="Grupo 118785">
              <g id="Grupo_118780" data-name="Grupo 118780">
                <g id="Grupo_118778" data-name="Grupo 118778" transform="translate(0 3.624)">
                  <path id="Trazado_173106" data-name="Trazado 173106" d="M74.968,76.385a1.612,1.612,0,0,1,.732,1.266c0,.465-.33.652-.736.418a1.609,1.609,0,0,1-.73-1.264C74.235,76.339,74.564,76.151,74.968,76.385Z" transform="translate(-74.234 -76.284)" fill="#364e70"/>
                </g>
                <g id="Grupo_118779" data-name="Grupo 118779" transform="translate(0.346 4.068)">
                  <path id="Trazado_173107" data-name="Trazado 173107" d="M75.1,76.946a.852.852,0,0,1,.387.67c0,.246-.175.345-.389.221a.851.851,0,0,1-.386-.668C74.709,76.922,74.882,76.823,75.1,76.946Z" transform="translate(-74.708 -76.893)" fill="#8092a8"/>
                </g>
                <path id="Trazado_173108" data-name="Trazado 173108" d="M82,72.648v-.036l0-.036,0-.036-.005-.037h0l-.007-.035-.008-.039-.009-.039-.01-.039-.009-.03v-.009l-.012-.038-.013-.037L81.9,72.2l-.015-.036-.012-.027v0l0-.006-.016-.036-.018-.039-.023-.044-.026-.047,0-.008-.006-.009c-.018-.029-.035-.058-.054-.087s-.031-.044-.047-.066h0c-.011-.014-.021-.028-.033-.042l-.028-.035-.028-.033-.028-.032-.006-.006,0,0-.022-.023-.031-.031-.032-.03-.033-.028-.016-.013,0,0-.012-.009-.033-.025-.031-.023-.031-.021-.031-.019-.007,0-.023-.013-.03-.015-.029-.015-.029-.012-.03-.011-.006,0h0L81.1,71.34l-.03-.008-.03-.007L81,71.319l-.022,0h-.045l-.038,0a.268.268,0,0,0-.042.006h0l-.048.013a.313.313,0,0,0-.059.028l-6.266,3.641c.008,0,.018-.005.026-.009a.507.507,0,0,1,.529.044,1.612,1.612,0,0,1,.732,1.266.517.517,0,0,1-.2.462l6.223-3.617a.36.36,0,0,0,.079-.066.232.232,0,0,0,.02-.025.407.407,0,0,0,.027-.033.536.536,0,0,0,.028-.05v0c.006-.012.011-.024.016-.037s.009-.025.012-.038.007-.025.009-.038l0-.016v0l0-.016c0-.011,0-.023.005-.035l0-.035,0-.034v-.036h0Z" transform="translate(-74.301 -71.315)" fill="#4b77aa"/>
              </g>
              <g id="Grupo_118783" data-name="Grupo 118783" transform="translate(13.709 8.115)">
                <g id="Grupo_118781" data-name="Grupo 118781" transform="translate(0 3.624)">
                  <path id="Trazado_173109" data-name="Trazado 173109" d="M93.765,87.511a1.611,1.611,0,0,1,.731,1.266c0,.465-.33.652-.736.418a1.609,1.609,0,0,1-.729-1.264C93.032,87.465,93.361,87.277,93.765,87.511Z" transform="translate(-93.031 -87.41)" fill="#364e70"/>
                </g>
                <g id="Grupo_118782" data-name="Grupo 118782" transform="translate(0.344 4.068)">
                  <path id="Trazado_173110" data-name="Trazado 173110" d="M93.892,88.071a.852.852,0,0,1,.387.67c0,.247-.175.346-.389.222a.853.853,0,0,1-.387-.67C93.5,88.047,93.678,87.948,93.892,88.071Z" transform="translate(-93.503 -88.018)" fill="#8092a8"/>
                </g>
                <path id="Trazado_173111" data-name="Trazado 173111" d="M100.794,83.774v-.036l0-.036,0-.036-.006-.037h0l-.006-.036-.008-.038-.009-.039-.01-.039-.009-.03v0l0-.006-.012-.038-.012-.037-.014-.036-.014-.036-.012-.027v0l0-.006-.016-.036-.019-.039-.023-.044c-.008-.015-.018-.031-.026-.047l0-.008-.005-.009c-.018-.03-.036-.058-.055-.087l-.046-.066h0l-.032-.042-.028-.035-.028-.034-.028-.031-.006-.006,0,0-.022-.023-.031-.031-.033-.03-.032-.028-.017-.014,0,0-.012-.01-.032-.024-.032-.023-.031-.021-.031-.019-.007,0-.023-.012-.03-.016-.03-.014-.029-.012-.029-.011-.006,0h0l-.022-.007-.03-.009-.03-.007-.032-.005-.022,0H99.7l-.042.007h0a.371.371,0,0,0-.049.013.362.362,0,0,0-.059.028l-6.266,3.641c.008,0,.018-.006.026-.009a.507.507,0,0,1,.529.044,1.611,1.611,0,0,1,.731,1.266.514.514,0,0,1-.2.461l6.223-3.616a.347.347,0,0,0,.08-.066c.007-.007.013-.017.02-.025a.4.4,0,0,0,.026-.033.558.558,0,0,0,.028-.05v0c.006-.012.011-.024.016-.037s.009-.026.012-.039.007-.024.01-.037l0-.016v0l0-.015.005-.035,0-.035,0-.034v-.071Z" transform="translate(-93.098 -82.441)" fill="#4b77aa"/>
              </g>
              <g id="Grupo_118784" data-name="Grupo 118784" transform="translate(0.742 5.452)">
                <path id="Trazado_173112" data-name="Trazado 173112" d="M75.261,78.795l-.009.007.018-.01Z" transform="translate(-75.252 -78.791)" fill="#4b77aa"/>
              </g>
            </g>
          </g>
        </g>
        <g id="Grupo_118788" data-name="Grupo 118788" transform="translate(4.609 37.425)">
          <path id="Trazado_173113" data-name="Trazado 173113" d="M81.225,74.392c.24-.606.6-.638,1.823-1.076.308-.11.427-.11.564-.027.358.218-.21,1.394-.512,1.53C82.837,74.938,80.63,75.893,81.225,74.392Z" transform="translate(-80.708 -70.926)" fill="#ffa89c"/>
          <path id="Trazado_173114" data-name="Trazado 173114" d="M81.928,73.821a.38.38,0,0,0-.05-.023,13.23,13.23,0,0,1,1.295-.483c.308-.11.427-.11.564-.027.358.218-.21,1.394-.512,1.53a3.765,3.765,0,0,1-1.645.391C81.877,74.857,82.227,74,81.928,73.821Z" transform="translate(-80.831 -70.926)" fill="#965f7e" opacity="0.26" style="mix-blend-mode: multiply;isolation: isolate"/>
          <path id="Trazado_173115" data-name="Trazado 173115" d="M81.316,70.293a5.116,5.116,0,0,0-.341.588,4.64,4.64,0,0,0-.259.613,2.242,2.242,0,0,0-.093,1.364A.221.221,0,0,0,80.9,73a.212.212,0,0,0,.159-.214v-.02a1.779,1.779,0,0,1,.317-1,4.044,4.044,0,0,1,.332-.463,4.4,4.4,0,0,1,.38-.414.461.461,0,0,0,.012-.674.514.514,0,0,0-.7-.012.48.48,0,0,0-.07.08Z" transform="translate(-80.554 -70.071)" fill="#ffa89c"/>
        </g>
        <g id="Grupo_118790" data-name="Grupo 118790" transform="translate(16.785 19.013)">
          <g id="Grupo_118789" data-name="Grupo 118789" transform="translate(0 27.73)">
            <path id="Trazado_173116" data-name="Trazado 173116" d="M99.9,82.847a5.483,5.483,0,0,0-.849.266c-.212.065-.432.22-.641.3a2.357,2.357,0,0,0-1.125.8.213.213,0,0,0,.317.279l.015-.013a1.85,1.85,0,0,1,.977-.4,4.009,4.009,0,0,1,.564-.046,4.255,4.255,0,0,1,.555.023c.264.032,1.58-.416,1.613-.68s-1.233-.244-1.5-.275a.454.454,0,0,0-.1,0Z" transform="translate(-97.249 -82.847)" fill="#ffa89c"/>
          </g>
          <path id="Trazado_173117" data-name="Trazado 173117" d="M100.214,81.968a11.877,11.877,0,0,0-1.958,2.742c-.252.848-2.23,2.709.217,2.135,1.428-.335,2.443.056,2.756-1.236a8.225,8.225,0,0,1,.778-2.157c.148-.279-.068-.7-.214-.976C101.561,82.03,100.955,81.115,100.214,81.968Z" transform="translate(-97.252 -54.785)" fill="#ffa89c"/>
          <path id="Trazado_173118" data-name="Trazado 173118" d="M99.015,85.24a7.07,7.07,0,0,1,2.809-3.03,1,1,0,0,1,.437.426c.146.28.362.7.214.976a8.225,8.225,0,0,0-.778,2.157,1.713,1.713,0,0,1-.556.953,3.148,3.148,0,0,0-1.888-1.047A.319.319,0,0,1,99.015,85.24Z" transform="translate(-97.72 -54.945)" fill="#965f7e" opacity="0.18" style="mix-blend-mode: multiply;isolation: isolate"/>
          <path id="Trazado_173119" data-name="Trazado 173119" d="M110.656,48.126l-2.473,12.256a.731.731,0,0,1-.1.238l-6.8,11.469c-.033.329.18.41.852.9.69.506.661.7.959.553l8.71-10.435a1.687,1.687,0,0,0,.389-.716l.042-.171,3.31-13.18a3.9,3.9,0,0,0-.357-3.422c-.217-.371-.435-.374-.821-.582a2.043,2.043,0,0,0-.643.012,4.239,4.239,0,0,0-2.938,2.451Z" transform="translate(-98.34 -44.879)" fill="#ffa89c"/>
          <path id="Trazado_173120" data-name="Trazado 173120" d="M118.649,46.288c-.256-.9-1.413-2.308-3.583-.792s-2.73,8.1-2.73,8.1c-.15.668.927,1.479,2.405,1.81s2.8.058,2.948-.61C117.689,54.795,119.372,48.839,118.649,46.288Z" transform="translate(-101.329 -44.826)" fill="#cde7fc"/>
        </g>
      </g>
      <g id="Grupo_118794" data-name="Grupo 118794" transform="translate(34.328 61.227)">
        <path id="Trazado_173121" data-name="Trazado 173121" d="M69.632,145.293a6.614,6.614,0,0,0-5.984.01,2.9,2.9,0,0,0-.931.807c-4.982-2.4-12.416-2.233-17.118.481-4.98,2.876-5.005,7.523-.056,10.381s13,2.843,17.979-.033c2.34-1.351,3.581-3.092,3.728-4.857a3.712,3.712,0,0,1,2.014-3.154c.12-.056.237-.116.349-.181C71.27,147.79,71.279,146.244,69.632,145.293Z" transform="translate(-36.363 -95.242)" fill="#5681c1" opacity="0.22" style="mix-blend-mode: multiply;isolation: isolate"/>
        <path id="Trazado_173122" data-name="Trazado 173122" d="M56.21,144.613c-4.949-2.857-13-2.843-17.979.032-2.882,1.664-4.094,3.922-3.652,6.083a.58.58,0,0,0-.093.3.587.587,0,0,1,.193.943.6.6,0,0,0,.594.594.514.514,0,0,0,.09-.018c.044.064.095.127.141.19a.592.592,0,0,0,.428,1,.58.58,0,0,0,.352-.128c.056.053.106.108.165.161a.578.578,0,0,0-.077.277.6.6,0,0,0,.594.594.587.587,0,0,0,.384-.15c.077.054.165.1.245.157a.58.58,0,0,0-.06.251.6.6,0,0,0,.594.594.583.583,0,0,0,.473-.252c.074.039.148.079.223.117a.588.588,0,0,0-.044.221.59.59,0,0,0,1.12.265c.078.031.151.067.23.1a.588.588,0,0,0-.031.155.594.594,0,0,0,1.143.226c.061.018.125.031.185.05a.588.588,0,1,0,1.13.289c.069.015.14.028.209.042a.582.582,0,0,0-.037.185.592.592,0,0,0,1.184.021l.2.028a.6.6,0,0,0-.016.08.59.59,0,0,0,1.179.05l.224.018c0,.012-.007.023-.007.035a.593.593,0,0,0,1.185.02c.088,0,.174.006.262.007a.594.594,0,0,0,1.189,0c0-.009,0-.015,0-.023.09,0,.182,0,.272-.009a.59.59,0,0,0,1.179-.045c0-.019-.009-.035-.01-.054.079-.009.157-.023.236-.033a.587.587,0,0,0,.575.5.594.594,0,0,0,.594-.594.525.525,0,0,0-.017-.082c.089-.016.176-.036.264-.053a.587.587,0,0,0,.58.523.6.6,0,0,0,.594-.594.576.576,0,0,0-.038-.187l.3-.081a.588.588,0,0,0,.581.527.6.6,0,0,0,.594-.594.582.582,0,0,0-.078-.278c.068-.024.138-.045.2-.07a.592.592,0,0,0,1.148-.2.575.575,0,0,0-.056-.245c.05-.023.1-.042.15-.065a.589.589,0,0,0,1.112-.276.58.58,0,0,0-.077-.275c.1-.061.2-.127.3-.19a.591.591,0,1,0,.953-.674l.075-.059a.585.585,0,0,0,.466.241.6.6,0,0,0,.594-.594.586.586,0,0,0-.2-.439c.035-.039.063-.079.1-.118a.588.588,0,0,0,.389.152.6.6,0,0,0,.594-.594.587.587,0,0,0-.3-.5c.023-.039.049-.077.071-.117a.59.59,0,0,0,.554-.586.58.58,0,0,0-.136-.363C60.412,148.81,59.258,146.372,56.21,144.613Z" transform="translate(-34.371 -94.715)" fill="#273a49"/>
        <ellipse id="Elipse_4792" data-name="Elipse 4792" cx="12.713" cy="7.34" rx="12.713" ry="7.34" transform="translate(0 45.014) rotate(-0.311)" fill="#aec5e5"/>
        <path id="Trazado_173123" data-name="Trazado 173123" d="M56.208,139.613c4.949,2.857,4.924,7.5-.056,10.38s-13.03,2.89-17.979.033-4.924-7.5.056-10.381S51.259,136.756,56.208,139.613Z" transform="translate(-34.368 -93.361)" fill="#cde7fc"/>
        <path id="Trazado_173124" data-name="Trazado 173124" d="M59.433,139.918a14.593,14.593,0,0,0-3.1-1.312l-3.875,2.237a2.947,2.947,0,0,0-1,.9,9.426,9.426,0,0,0-2.873,1.03c-2.912,1.682-2.927,4.4-.033,6.07a11.619,11.619,0,0,0,10.513-.019c1.637-.945,2.358-2.216,2.162-3.446l1.827-1.055C62.768,142.711,61.565,141.148,59.433,139.918Z" transform="translate(-37.594 -93.666)" fill="#5681c1" opacity="0.22" style="mix-blend-mode: multiply;isolation: isolate"/>
        <path id="Trazado_173125" data-name="Trazado 173125" d="M54.422,142.906c2.894,1.671,2.879,4.388-.033,6.069a11.616,11.616,0,0,1-10.513.019c-2.894-1.671-2.879-4.388.033-6.069A11.618,11.618,0,0,1,54.422,142.906Z" transform="translate(-36.328 -94.492)" fill="#8092a8"/>
        <path id="Trazado_173126" data-name="Trazado 173126" d="M41.732,145.478v1.705l1.693,1.706s-.155-1.2-.194-1.254S41.732,145.478,41.732,145.478Z" transform="translate(-36.332 -95.526)" fill="#8092a8"/>
        <g id="Grupo_118791" data-name="Grupo 118791" transform="translate(25.753 45.49)">
          <path id="Trazado_173127" data-name="Trazado 173127" d="M69.639,144.733c0,1.527,1.079,2.142,2.41,1.374a5.312,5.312,0,0,0,2.41-4.156c0-1.527-1.079-2.142-2.41-1.374A5.31,5.31,0,0,0,69.639,144.733Z" transform="translate(-69.639 -139.6)" fill="#1f3242"/>
          <path id="Trazado_173128" data-name="Trazado 173128" d="M75.884,140.921,73.16,139.36l-.511,1.375s2.976,1.52,2.958,1.484S75.884,140.921,75.884,140.921Z" transform="translate(-70.454 -139.36)" fill="#1f3242"/>
          <path id="Trazado_173129" data-name="Trazado 173129" d="M70.686,147.45l1.3.747,1.763-2.754-2.786-1.015Z" transform="translate(-69.922 -140.732)" fill="#1f3242"/>
          <path id="Trazado_173130" data-name="Trazado 173130" d="M71.463,145.783c0,1.527,1.079,2.142,2.41,1.374A5.309,5.309,0,0,0,76.282,143c0-1.526-1.079-2.141-2.41-1.373A5.31,5.31,0,0,0,71.463,145.783Z" transform="translate(-70.133 -139.884)" fill="#283d4f"/>
          <path id="Trazado_173131" data-name="Trazado 173131" d="M72.668,145.695c0,.97.686,1.361,1.531.873a3.374,3.374,0,0,0,1.532-2.641c0-.97-.686-1.361-1.532-.873A3.374,3.374,0,0,0,72.668,145.695Z" transform="translate(-70.459 -140.303)" fill="#618cad"/>
          <path id="Trazado_173132" data-name="Trazado 173132" d="M73.805,145.612c0,.445.314.624.7.4a1.546,1.546,0,0,0,.7-1.211c0-.445-.314-.624-.7-.4A1.546,1.546,0,0,0,73.805,145.612Z" transform="translate(-70.767 -140.698)" fill="#283d4f"/>
          <path id="Trazado_173133" data-name="Trazado 173133" d="M72.668,145.695c0,.97.686,1.361,1.531.873a3.374,3.374,0,0,0,1.532-2.641c0-.97-.686-1.361-1.532-.873A3.374,3.374,0,0,0,72.668,145.695Z" transform="translate(-70.459 -140.303)" fill="none" stroke="#1f3242" stroke-miterlimit="10" stroke-width="0.666"/>
        </g>
        <path id="Trazado_173134" data-name="Trazado 173134" d="M68.734,138.83l-6.74,3.892c-1.979,1.142-5.468,1-7.753-.322h0c-2.285-1.319-2.535-3.334-.556-4.476l6.74-3.892c1.979-1.142,5.468-1,7.753.322h0C70.463,135.673,70.714,137.687,68.734,138.83Z" transform="translate(-39.206 -92.22)" fill="#8092a8"/>
        <path id="Trazado_173135" data-name="Trazado 173135" d="M75.305,134.241v2.894l-3.024,1.318-.569-2.119Z" transform="translate(-44.447 -92.485)" fill="#8092a8"/>
        <path id="Trazado_173136" data-name="Trazado 173136" d="M68.734,134.955l-6.74,3.892c-1.979,1.142-5.468,1-7.753-.322h0c-2.285-1.319-2.535-3.334-.556-4.476l6.74-3.892c1.979-1.143,5.468-1,7.753.322h0C70.463,131.8,70.714,133.813,68.734,134.955Z" transform="translate(-39.206 -91.171)" fill="#cde7fc"/>
        <path id="Trazado_173137" data-name="Trazado 173137" d="M61.652,145.037V146.9l-1.172,1.172.551-2.464Z" transform="translate(-41.407 -95.407)" fill="#8092a8"/>
        <path id="Trazado_173138" data-name="Trazado 173138" d="M54.422,140.733c2.894,1.671,2.879,4.388-.033,6.069a11.616,11.616,0,0,1-10.513.019c-2.894-1.671-2.879-4.388.033-6.069A11.619,11.619,0,0,1,54.422,140.733Z" transform="translate(-36.328 -93.904)" fill="#e9faff"/>
        <path id="Trazado_173139" data-name="Trazado 173139" d="M54.979,140.735A11.4,11.4,0,0,0,48,139.613a8.826,8.826,0,0,0-2.032.831c-2.912,1.681-2.927,4.4-.033,6.069a11.4,11.4,0,0,0,6.982,1.122,8.827,8.827,0,0,0,2.032-.831C57.858,145.123,57.873,142.406,54.979,140.735Z" transform="translate(-36.884 -93.906)" fill="#5681c1" opacity="0.22" style="mix-blend-mode: multiply;isolation: isolate"/>
        <ellipse id="Elipse_4793" data-name="Elipse 4793" cx="6.359" cy="3.671" rx="6.359" ry="3.671" transform="translate(6.443 46.236) rotate(-0.311)" fill="#aec5e5"/>
        <path id="Trazado_173140" data-name="Trazado 173140" d="M43.237,141.92v-8.993l12.646-.1v9.062Z" transform="translate(-36.739 -92.101)" fill="#aec5e5"/>
        <ellipse id="Elipse_4794" data-name="Elipse 4794" cx="6.885" cy="3.975" rx="6.885" ry="3.975" transform="matrix(1, -0.005, 0.005, 1, 5.915, 36.908)" fill="#5d7084"/>
        <path id="Trazado_173141" data-name="Trazado 173141" d="M61.064,131.486v1.007l-.375.443-.375-.287Z" transform="translate(-41.362 -91.739)" fill="#5d7084"/>
        <path id="Trazado_173142" data-name="Trazado 173142" d="M42.479,131.622v1.189l1.163,1.073s-.039-1.331-.09-1.435A12.1,12.1,0,0,0,42.479,131.622Z" transform="translate(-36.534 -91.776)" fill="#5d7084"/>
        <path id="Trazado_173143" data-name="Trazado 173143" d="M54.237,127.327c2.68,1.548,2.666,4.065-.031,5.622a10.762,10.762,0,0,1-9.737.017c-2.68-1.548-2.666-4.065.031-5.622A10.762,10.762,0,0,1,54.237,127.327Z" transform="translate(-36.531 -90.301)" fill="#8092a8"/>
        <path id="Trazado_173144" data-name="Trazado 173144" d="M66.633,134.287a1.184,1.184,0,0,1-.012,2.244,4.294,4.294,0,0,1-3.887.007,1.185,1.185,0,0,1,.012-2.244A4.3,4.3,0,0,1,66.633,134.287Z" transform="translate(-41.801 -92.372)" fill="#8092a8"/>
        <path id="Trazado_173145" data-name="Trazado 173145" d="M66.633,133.484a1.184,1.184,0,0,1-.012,2.244,4.3,4.3,0,0,1-3.887.007,1.185,1.185,0,0,1,.012-2.244A4.3,4.3,0,0,1,66.633,133.484Z" transform="translate(-41.801 -92.155)" fill="#e9faff"/>
        <path id="Trazado_173146" data-name="Trazado 173146" d="M66.839,133.484a4.209,4.209,0,0,0-2.582-.415,3.285,3.285,0,0,0-.751.307,1.184,1.184,0,0,0-.012,2.244,4.213,4.213,0,0,0,2.581.415,3.258,3.258,0,0,0,.751-.307A1.184,1.184,0,0,0,66.839,133.484Z" transform="translate(-42.006 -92.155)" fill="#5681c1" opacity="0.22" style="mix-blend-mode: multiply;isolation: isolate"/>
        <path id="Trazado_173147" data-name="Trazado 173147" d="M66.5,133.732a1.013,1.013,0,0,1-.01,1.92,3.674,3.674,0,0,1-3.325.006,1.013,1.013,0,0,1,.01-1.92A3.674,3.674,0,0,1,66.5,133.732Z" transform="translate(-41.948 -92.24)" fill="#aec5e5"/>
        <path id="Trazado_173148" data-name="Trazado 173148" d="M62.5,134.735V133.6l4.676-.038v1.163Z" transform="translate(-41.953 -92.3)" fill="#aec5e5"/>
        <path id="Trazado_173149" data-name="Trazado 173149" d="M66.565,132.033a1.1,1.1,0,0,1-.012,2.079,3.981,3.981,0,0,1-3.6.007,1.1,1.1,0,0,1,.011-2.079A3.978,3.978,0,0,1,66.565,132.033Z" transform="translate(-41.876 -91.772)" fill="#5d7084"/>
        <path id="Trazado_173150" data-name="Trazado 173150" d="M66.565,131.527a1.1,1.1,0,0,1-.012,2.079,3.976,3.976,0,0,1-3.6.007,1.1,1.1,0,0,1,.011-2.079A3.982,3.982,0,0,1,66.565,131.527Z" transform="translate(-41.876 -91.634)" fill="#8092a8"/>
        <g id="Grupo_118792" data-name="Grupo 118792" transform="translate(22.376 11.843)">
          <path id="Trazado_173151" data-name="Trazado 173151" d="M65.738,123.8a.729.729,0,0,1-.7-.943l8.924-29.116a.73.73,0,0,1,1.4.427l-8.925,29.116A.728.728,0,0,1,65.738,123.8Z" transform="translate(-65.008 -93.226)" fill="#8092a8"/>
        </g>
        <g id="Grupo_118793" data-name="Grupo 118793" transform="translate(27.095)">
          <path id="Trazado_173152" data-name="Trazado 173152" d="M83.678,93.02a3.435,3.435,0,0,1-1.694-.508l-8.639-4.988a3.5,3.5,0,0,1-1.8-2.8,7.884,7.884,0,0,1,.682-4.286l1.68-3.45.62.878-1.634,2.869a7.151,7.151,0,0,0-.625,3.889,2.8,2.8,0,0,0,1.445,2.268L82.35,91.88a2.208,2.208,0,0,0,1.844.321,1.453,1.453,0,0,0,.833-.972l.211-.672a24.565,24.565,0,0,1,1.1-3.07L87.6,85.116l.613.876-1.23,1.835a24.5,24.5,0,0,0-1.048,2.947l-.213.678a2.074,2.074,0,0,1-2.042,1.569Z" transform="translate(-71.479 -76.988)" fill="#8092a8"/>
        </g>
        <path id="Trazado_173153" data-name="Trazado 173153" d="M78.18,97.105l-1.034-.069L73.89,84.966l1.034.069,7.758,4.479Z" transform="translate(-45.036 -79.147)" fill="#8092a8"/>
        <path id="Trazado_173154" data-name="Trazado 173154" d="M76.882,97.036l-3.969-2.291.712-9.779,7.758,4.479Z" transform="translate(-44.772 -79.147)" fill="#b6cbdd"/>
        <path id="Trazado_173155" data-name="Trazado 173155" d="M81.649,89.445l1.034.069-7.758-4.479-1.034-.069Z" transform="translate(-45.036 -79.147)" fill="#95abc1"/>
      </g>
    </g>
  </g>
</svg>
