<svg xmlns="http://www.w3.org/2000/svg" width="96" height="105.998" viewBox="0 0 96 105.998">
  <g id="Grupo_119310" data-name="Grupo 119310" transform="translate(5989.667 -6380.002)">
    <circle id="Elipse_4796" data-name="Elipse 4796" cx="38.5" cy="38.5" r="38.5" transform="translate(-5970.667 6409)" fill="#5c22c3"/>
    <g id="_2" data-name="2" transform="translate(-6173.325 6341.67)">
      <g id="Grupo_118812" data-name="Grupo 118812" transform="translate(183.658 51.471)">
        <path id="Trazado_173156" data-name="Trazado 173156" d="M219.756,144.622l44.707-25.857-20.074-11.589L192.372,137.26l12.75,7.361Z" transform="translate(-184.753 -60.117)" fill="#5681c1" opacity="0.22" style="mix-blend-mode: multiply;isolation: isolate"/>
        <path id="Trazado_173157" data-name="Trazado 173157" d="M254.742,111.956,207,139.543V94.435l47.742-27.587Z" transform="translate(-186.59 -55.052)" fill="#93b1ce"/>
        <path id="Trazado_173158" data-name="Trazado 173158" d="M259.935,109.869l-.858.489-17.559-56.23,18.417,10.633Z" transform="translate(-190.925 -53.455)" fill="#95b6d1"/>
        <path id="Trazado_173159" data-name="Trazado 173159" d="M252.115,118.166v-1.319l-66.263,18.319L204.3,145.819Z" transform="translate(-183.934 -61.331)" fill="#95b6d1"/>
        <path id="Trazado_173160" data-name="Trazado 173160" d="M252.115,115.318l-18.451-10.653-47.812,27.653L204.3,142.971Z" transform="translate(-183.934 -59.802)" fill="#7d9eba"/>
        <g id="Grupo_118803" data-name="Grupo 118803" transform="translate(24.096 37.534)">
          <g id="Grupo_118795" data-name="Grupo 118795" transform="translate(24.786)">
            <path id="Trazado_173161" data-name="Trazado 173161" d="M251.971,115.733l-9.854-5.689V96.283l9.854,5.689Z" transform="translate(-239.882 -96.283)" fill="#7494af"/>
            <path id="Trazado_173162" data-name="Trazado 173162" d="M249.551,103.635l-9.274-5.354,2.068-1.161,9.273,5.354Z" transform="translate(-239.651 -96.388)" fill="#fff"/>
            <path id="Trazado_173163" data-name="Trazado 173163" d="M249.415,117.23l-9.854-5.689V97.781l9.854,5.689Z" transform="translate(-239.561 -96.471)" fill="#7494af"/>
            <path id="Trazado_173164" data-name="Trazado 173164" d="M253.075,116.567l-2.242,1.294V104.1l2.242-1.294Z" transform="translate(-240.977 -97.103)" fill="#87a7c1"/>
          </g>
          <g id="Grupo_118796" data-name="Grupo 118796" transform="translate(21.564 2.396)">
            <path id="Trazado_173165" data-name="Trazado 173165" d="M248.286,118.473l-9.854-5.689V99.024l9.854,5.689Z" transform="translate(-236.197 -99.024)" fill="#627d9b"/>
            <path id="Trazado_173166" data-name="Trazado 173166" d="M245.866,106.375l-9.274-5.354,2.068-1.161,9.273,5.354Z" transform="translate(-235.966 -99.129)" fill="#c4d5e8"/>
            <path id="Trazado_173167" data-name="Trazado 173167" d="M245.73,119.97l-9.854-5.689v-13.76l9.854,5.689Z" transform="translate(-235.876 -99.212)" fill="#627d9b"/>
            <path id="Trazado_173168" data-name="Trazado 173168" d="M249.39,119.307l-2.242,1.294v-13.76l2.242-1.294Z" transform="translate(-237.292 -99.843)" fill="#87a7c1"/>
          </g>
          <g id="Grupo_118797" data-name="Grupo 118797" transform="translate(18.342 4.379)">
            <path id="Trazado_173169" data-name="Trazado 173169" d="M244.6,120.741l-9.854-5.689v-13.76l9.854,5.689Z" transform="translate(-232.512 -101.291)" fill="#627d9b"/>
            <path id="Trazado_173170" data-name="Trazado 173170" d="M242.181,108.642l-9.273-5.354,2.068-1.161,9.273,5.354Z" transform="translate(-232.281 -101.396)" fill="#c4d5e8"/>
            <path id="Trazado_173171" data-name="Trazado 173171" d="M242.045,122.238l-9.854-5.689v-13.76l9.854,5.689Z" transform="translate(-232.191 -101.479)" fill="#627d9b"/>
            <path id="Trazado_173172" data-name="Trazado 173172" d="M245.705,121.575l-2.242,1.294v-13.76l2.242-1.294Z" transform="translate(-233.607 -102.111)" fill="#87a7c1"/>
          </g>
          <g id="Grupo_118798" data-name="Grupo 118798" transform="translate(15.574 6.197)">
            <path id="Trazado_173173" data-name="Trazado 173173" d="M241.436,122.819l-9.854-5.689V103.37l9.854,5.689Z" transform="translate(-229.347 -103.37)" fill="#627d9b"/>
            <path id="Trazado_173174" data-name="Trazado 173174" d="M239.015,110.721l-9.274-5.354,2.068-1.161,9.273,5.354Z" transform="translate(-229.116 -103.475)" fill="#c4d5e8"/>
            <path id="Trazado_173175" data-name="Trazado 173175" d="M238.88,124.317l-9.854-5.689v-13.76l9.854,5.689Z" transform="translate(-229.026 -103.558)" fill="#627d9b"/>
            <path id="Trazado_173176" data-name="Trazado 173176" d="M242.54,123.654l-2.242,1.294v-13.76l2.242-1.294Z" transform="translate(-230.442 -104.189)" fill="#87a7c1"/>
          </g>
          <g id="Grupo_118799" data-name="Grupo 118799" transform="translate(10.41 9.254)">
            <path id="Trazado_173177" data-name="Trazado 173177" d="M235.53,126.315l-9.854-5.689v-13.76l9.854,5.689Z" transform="translate(-223.442 -106.866)" fill="#627d9b"/>
            <path id="Trazado_173178" data-name="Trazado 173178" d="M233.11,114.217l-9.274-5.354L225.9,107.7l9.273,5.354Z" transform="translate(-223.21 -106.971)" fill="#c4d5e8"/>
            <path id="Trazado_173179" data-name="Trazado 173179" d="M232.974,127.813l-9.854-5.689v-13.76l9.854,5.689Z" transform="translate(-223.121 -107.054)" fill="#627d9b"/>
            <path id="Trazado_173180" data-name="Trazado 173180" d="M236.634,127.15l-2.242,1.294v-13.76l2.242-1.294Z" transform="translate(-224.536 -107.685)" fill="#87a7c1"/>
          </g>
          <g id="Grupo_118800" data-name="Grupo 118800" transform="translate(6.527 11.237)">
            <path id="Trazado_173181" data-name="Trazado 173181" d="M231.09,128.583l-9.854-5.689v-13.76l9.854,5.689Z" transform="translate(-219.001 -109.134)" fill="#627d9b"/>
            <path id="Trazado_173182" data-name="Trazado 173182" d="M228.669,116.485l-9.274-5.354,2.068-1.161,9.274,5.354Z" transform="translate(-218.769 -109.239)" fill="#c4d5e8"/>
            <path id="Trazado_173183" data-name="Trazado 173183" d="M228.534,130.081l-9.854-5.689v-13.76l9.854,5.689Z" transform="translate(-218.68 -109.322)" fill="#627d9b"/>
            <path id="Trazado_173184" data-name="Trazado 173184" d="M232.193,129.417l-2.242,1.294v-13.76l2.242-1.294Z" transform="translate(-220.095 -109.953)" fill="#87a7c1"/>
          </g>
          <g id="Grupo_118801" data-name="Grupo 118801" transform="translate(3.222 13.054)">
            <path id="Trazado_173185" data-name="Trazado 173185" d="M227.31,130.662l-9.854-5.689v-13.76l9.854,5.689Z" transform="translate(-215.221 -111.212)" fill="#627d9b"/>
            <path id="Trazado_173186" data-name="Trazado 173186" d="M224.889,118.564l-9.273-5.354,2.068-1.161,9.274,5.354Z" transform="translate(-214.99 -111.317)" fill="#c4d5e8"/>
            <path id="Trazado_173187" data-name="Trazado 173187" d="M224.754,132.159,214.9,126.47V112.71l9.854,5.689Z" transform="translate(-214.9 -111.401)" fill="#627d9b"/>
            <path id="Trazado_173188" data-name="Trazado 173188" d="M228.414,131.5l-2.242,1.294V119.03l2.242-1.294Z" transform="translate(-216.316 -112.032)" fill="#87a7c1"/>
          </g>
          <g id="Grupo_118802" data-name="Grupo 118802" transform="translate(0 14.955)">
            <path id="Trazado_173189" data-name="Trazado 173189" d="M223.625,132.835l-9.854-5.689v-13.76l9.854,5.689Z" transform="translate(-211.536 -113.386)" fill="#627d9b"/>
            <path id="Trazado_173190" data-name="Trazado 173190" d="M221.2,120.737l-9.273-5.354L214,114.221l9.273,5.354Z" transform="translate(-211.305 -113.491)" fill="#c4d5e8"/>
            <path id="Trazado_173191" data-name="Trazado 173191" d="M221.069,134.333l-9.854-5.689v-13.76l9.854,5.689Z" transform="translate(-211.215 -113.574)" fill="#627d9b"/>
            <path id="Trazado_173192" data-name="Trazado 173192" d="M224.729,133.669l-2.242,1.294V121.2l2.242-1.294Z" transform="translate(-212.631 -114.205)" fill="#87a7c1"/>
          </g>
        </g>
        <path id="Trazado_173193" data-name="Trazado 173193" d="M185.852,136.29v1.319L204.3,148.261v-1.319Z" transform="translate(-183.934 -63.773)" fill="#c2d7f2"/>
        <path id="Trazado_173194" data-name="Trazado 173194" d="M252.3,92.049V90.729l-66.3,18.331,18.462,10.659Z" transform="translate(-183.952 -58.051)" fill="#95b6d1"/>
        <path id="Trazado_173195" data-name="Trazado 173195" d="M252.3,89.2,233.836,78.539l-47.842,27.67,18.462,10.659Z" transform="translate(-183.952 -56.52)" fill="#7d9eba"/>
        <g id="Grupo_118811" data-name="Grupo 118811" transform="translate(15.503 20.762)">
          <g id="Grupo_118804" data-name="Grupo 118804" transform="translate(24.786)">
            <path id="Trazado_173196" data-name="Trazado 173196" d="M242.145,96.552l-9.854-5.689V77.1l9.854,5.689Z" transform="translate(-230.056 -77.102)" fill="#627d9b"/>
            <path id="Trazado_173197" data-name="Trazado 173197" d="M239.724,84.453,230.451,79.1l2.068-1.161,9.273,5.354Z" transform="translate(-229.825 -77.207)" fill="#c4d5e8"/>
            <path id="Trazado_173198" data-name="Trazado 173198" d="M239.589,98.049l-9.854-5.689V78.6l9.854,5.689Z" transform="translate(-229.735 -77.29)" fill="#627d9b"/>
            <path id="Trazado_173199" data-name="Trazado 173199" d="M243.249,97.386l-2.242,1.294V84.92l2.242-1.294Z" transform="translate(-231.15 -77.922)" fill="#87a7c1"/>
          </g>
          <g id="Grupo_118805" data-name="Grupo 118805" transform="translate(21.564 2.396)">
            <path id="Trazado_173200" data-name="Trazado 173200" d="M238.46,99.292,228.606,93.6V79.842l9.854,5.689Z" transform="translate(-226.371 -79.842)" fill="#7494af"/>
            <path id="Trazado_173201" data-name="Trazado 173201" d="M236.039,87.194l-9.274-5.354,2.068-1.161,9.274,5.354Z" transform="translate(-226.14 -79.947)" fill="#c4d5e8"/>
            <path id="Trazado_173202" data-name="Trazado 173202" d="M235.9,100.789,226.05,95.1V81.34l9.854,5.689Z" transform="translate(-226.05 -80.03)" fill="#627d9b"/>
            <path id="Trazado_173203" data-name="Trazado 173203" d="M239.564,100.126l-2.242,1.294V87.66l2.242-1.294Z" transform="translate(-227.465 -80.662)" fill="#87a7c1"/>
          </g>
          <g id="Grupo_118806" data-name="Grupo 118806" transform="translate(18.342 4.379)">
            <path id="Trazado_173204" data-name="Trazado 173204" d="M234.775,101.56l-9.854-5.689V82.11l9.854,5.689Z" transform="translate(-222.686 -82.11)" fill="#627d9b"/>
            <path id="Trazado_173205" data-name="Trazado 173205" d="M232.354,89.461l-9.273-5.354,2.068-1.161,9.273,5.354Z" transform="translate(-222.455 -82.215)" fill="#c4d5e8"/>
            <path id="Trazado_173206" data-name="Trazado 173206" d="M232.219,103.057l-9.854-5.689V83.608l9.854,5.689Z" transform="translate(-222.365 -82.298)" fill="#627d9b"/>
            <path id="Trazado_173207" data-name="Trazado 173207" d="M235.879,102.394l-2.242,1.294V89.928l2.242-1.294Z" transform="translate(-223.78 -82.929)" fill="#87a7c1"/>
          </g>
          <g id="Grupo_118807" data-name="Grupo 118807" transform="translate(10.41 9.254)">
            <path id="Trazado_173208" data-name="Trazado 173208" d="M225.7,107.134l-9.854-5.689V87.685l9.854,5.689Z" transform="translate(-213.615 -87.685)" fill="#627d9b"/>
            <path id="Trazado_173209" data-name="Trazado 173209" d="M223.283,95.036l-9.274-5.354,2.068-1.161,9.273,5.354Z" transform="translate(-213.384 -87.79)" fill="#c4d5e8"/>
            <path id="Trazado_173210" data-name="Trazado 173210" d="M223.148,108.632l-9.854-5.689V89.182l9.854,5.689Z" transform="translate(-213.294 -87.873)" fill="#627d9b"/>
            <path id="Trazado_173211" data-name="Trazado 173211" d="M226.808,107.969l-2.242,1.294V95.5l2.242-1.294Z" transform="translate(-214.709 -88.504)" fill="#87a7c1"/>
          </g>
          <g id="Grupo_118808" data-name="Grupo 118808" transform="translate(6.527 11.237)">
            <path id="Trazado_173212" data-name="Trazado 173212" d="M221.263,109.4l-9.854-5.689V89.953l9.854,5.689Z" transform="translate(-209.174 -89.953)" fill="#627d9b"/>
            <path id="Trazado_173213" data-name="Trazado 173213" d="M218.842,97.3l-9.273-5.354,2.068-1.161,9.273,5.354Z" transform="translate(-208.943 -90.058)" fill="#c4d5e8"/>
            <path id="Trazado_173214" data-name="Trazado 173214" d="M218.707,110.9l-9.854-5.689V91.45l9.854,5.689Z" transform="translate(-208.853 -90.141)" fill="#627d9b"/>
            <path id="Trazado_173215" data-name="Trazado 173215" d="M222.367,110.236l-2.242,1.294V97.77l2.242-1.294Z" transform="translate(-210.268 -90.772)" fill="#87a7c1"/>
          </g>
          <g id="Grupo_118809" data-name="Grupo 118809" transform="translate(3.222 13.054)">
            <path id="Trazado_173216" data-name="Trazado 173216" d="M217.483,111.481l-9.854-5.689V92.031l9.854,5.689Z" transform="translate(-205.394 -92.031)" fill="#627d9b"/>
            <path id="Trazado_173217" data-name="Trazado 173217" d="M215.063,99.383l-9.274-5.354,2.068-1.161,9.274,5.354Z" transform="translate(-205.163 -92.136)" fill="#c4d5e8"/>
            <path id="Trazado_173218" data-name="Trazado 173218" d="M214.927,112.978l-9.854-5.689V93.529l9.854,5.689Z" transform="translate(-205.073 -92.219)" fill="#627d9b"/>
            <path id="Trazado_173219" data-name="Trazado 173219" d="M218.587,112.315l-2.242,1.294V99.849l2.242-1.294Z" transform="translate(-206.489 -92.851)" fill="#87a7c1"/>
          </g>
          <g id="Grupo_118810" data-name="Grupo 118810" transform="translate(0 14.955)">
            <path id="Trazado_173220" data-name="Trazado 173220" d="M213.8,113.654l-9.854-5.689V94.2l9.854,5.689Z" transform="translate(-201.709 -94.205)" fill="#627d9b"/>
            <path id="Trazado_173221" data-name="Trazado 173221" d="M211.378,101.556,202.1,96.2l2.068-1.161,9.273,5.354Z" transform="translate(-201.478 -94.31)" fill="#c4d5e8"/>
            <path id="Trazado_173222" data-name="Trazado 173222" d="M211.242,115.151l-9.854-5.689V95.7l9.854,5.689Z" transform="translate(-201.388 -94.393)" fill="#627d9b"/>
            <path id="Trazado_173223" data-name="Trazado 173223" d="M214.9,114.488l-2.242,1.294v-13.76l2.242-1.294Z" transform="translate(-202.804 -95.024)" fill="#87a7c1"/>
          </g>
        </g>
        <path id="Trazado_173224" data-name="Trazado 173224" d="M185.888,110.148v1.319l18.462,10.659v-1.319Z" transform="translate(-183.938 -60.49)" fill="#c2d7f2"/>
        <path id="Trazado_173225" data-name="Trazado 173225" d="M204.376,141.995l-.868.558-17.549-56.3,18.417,10.633Z" transform="translate(-183.947 -57.489)" fill="#95b6d1"/>
        <path id="Trazado_173226" data-name="Trazado 173226" d="M203.384,142.633,184.967,132V86.892l18.417,10.633Z" transform="translate(-183.823 -57.57)" fill="#b3cde8"/>
        <path id="Trazado_173227" data-name="Trazado 173227" d="M184.967,89.9l18.417,10.633V96.108L184.967,85.475Z" transform="translate(-183.823 -57.392)" fill="#5681c1" opacity="0.22" style="mix-blend-mode: multiply;isolation: isolate"/>
        <path id="Trazado_173228" data-name="Trazado 173228" d="M253.822,67.654v-1.4l-70.164,19.4L203.2,96.935Z" transform="translate(-183.658 -54.978)" fill="#95b6d1"/>
        <path id="Trazado_173229" data-name="Trazado 173229" d="M253.822,64.638l-19.537-11.28L183.658,82.639,203.2,93.919Z" transform="translate(-183.658 -53.358)" fill="#cde7fc"/>
        <path id="Trazado_173230" data-name="Trazado 173230" d="M183.658,86.845v1.4L203.2,99.521v-1.4Z" transform="translate(-183.658 -57.564)" fill="#b3cde8"/>
      </g>
      <path id="Trazado_173231" data-name="Trazado 173231" d="M223.277,68.464c-2.12-.177-7.515,1.347-5.671,2.41s6.026.5,5.53,2.2.992,3.4,3.544,2.907,6.31-1.206,4.4-3.191S228.381,68.889,223.277,68.464Z" transform="translate(-4.216 -3.782)" fill="#5681c1"/>
      <g id="Grupo_118814" data-name="Grupo 118814" transform="translate(217.075 38.331)">
        <path id="Trazado_173232" data-name="Trazado 173232" d="M261.265,153.036c-5.541,3.2-14.554,3.183-20.13-.037s-5.6-8.422-.063-11.621,14.554-3.183,20.13.036S266.806,149.837,261.265,153.036Z" transform="translate(-223.766 -50.972)" fill="#5681c1" opacity="0.22" style="mix-blend-mode: multiply;isolation: isolate"/>
        <path id="Trazado_173233" data-name="Trazado 173233" d="M265.752,152.2c-.047-.188-.118-.383-.184-.586-.19-.588-1.7-1.651-1.952-1.821-.617-.423-2.4.989-2.408.994-1.576.957-3.332-.457-4.507.518a.756.756,0,0,0-.146,1.131,4.382,4.382,0,0,0,2.735,1.762c1.076.125,3.7-.015,3.965.024a2.836,2.836,0,0,0,2.384-.953A.81.81,0,0,0,265.752,152.2Z" transform="translate(-226.206 -52.319)" fill="#bacfe5"/>
        <path id="Trazado_173234" data-name="Trazado 173234" d="M265.8,151.644c-.047-.189-.118-.383-.184-.587-.19-.588-1.7-1.651-1.952-1.821-.617-.422-2.4.989-2.408.994-1.576.958-3.332-.457-4.507.518a.757.757,0,0,0-.146,1.132,4.389,4.389,0,0,0,2.735,1.762c1.076.124,3.7-.016,3.965.023a2.838,2.838,0,0,0,2.384-.952A.81.81,0,0,0,265.8,151.644Z" transform="translate(-226.213 -52.249)" fill="#6e83a0"/>
        <path id="Trazado_173235" data-name="Trazado 173235" d="M251.184,143.255a6.956,6.956,0,0,1-2.657-1.236,9.79,9.79,0,0,0-.812-.767c-.393-.33-4.205-1.7-4.946-1.326-.946.474-.966,1.709,1.984,4.051.772.613,2.839,1.861,2.839,1.861a4.173,4.173,0,0,0,2.51.746.943.943,0,0,0,.868-.762A2.939,2.939,0,0,0,251.184,143.255Z" transform="translate(-224.427 -51.082)" fill="#bacfe5"/>
        <path id="Trazado_173236" data-name="Trazado 173236" d="M251.392,142.906a6.955,6.955,0,0,1-2.657-1.236,9.932,9.932,0,0,0-.812-.767c-.393-.33-4.205-1.7-4.946-1.326-.947.474-.966,1.709,1.984,4.051.772.613,2.839,1.861,2.839,1.861a4.176,4.176,0,0,0,2.51.747.946.946,0,0,0,.869-.764A2.937,2.937,0,0,0,251.392,142.906Z" transform="translate(-224.453 -51.039)" fill="#6e83a0"/>
        <path id="Trazado_173237" data-name="Trazado 173237" d="M261.45,96.641c.133-1.5,1.047-8.848-6.909-8.854A5.665,5.665,0,0,0,249.176,94c.115,1.57.174,3.14.263,4.712l.171,4.714c.1,3.145-.167,15.7-.411,18.823,0,0-1.021,13.205-1.072,13.437a1.421,1.421,0,0,0,.644,1.368,2.642,2.642,0,0,0,3.006.477,1.429,1.429,0,0,0,1.052-1.075c.024-.173,2.461-9.125,3.884-16.113.518-2.541.139-5.109.312-5.942C257.228,113.573,261.319,98.116,261.45,96.641Z" transform="translate(-225.169 -44.542)" fill="#273a49"/>
        <path id="Trazado_173238" data-name="Trazado 173238" d="M257.2,114.415c.2-.832,4.294-16.289,4.425-17.764.126-1.417.939-8.081-5.741-8.784l-.073,3.969s-3.027,21.431-3.269,25.063c-.238,3.579-.832,17.007-3.05,20.531a2.616,2.616,0,0,0,2.46.113A1.429,1.429,0,0,0,253,136.47c.024-.173,2.461-9.125,3.884-16.113C257.4,117.816,257.026,115.248,257.2,114.415Z" transform="translate(-225.343 -44.552)" fill="#3e6593" opacity="0.42" style="mix-blend-mode: multiply;isolation: isolate"/>
        <path id="Trazado_173239" data-name="Trazado 173239" d="M264.861,73.229c-.341,2.024-.951,2.88-1.654,3.062-1.734.449-4.034-3.192-4.28-3.577a.247.247,0,0,0-.015-.037l.842-16.665a4.067,4.067,0,0,1,2.627.755C263.743,58.014,266.086,65.944,264.861,73.229Z" transform="translate(-226.526 -40.551)" fill="#ffa89c"/>
        <path id="Trazado_173240" data-name="Trazado 173240" d="M256.718,56.7c.176-1.089,1.772-2.884,4.516-1.408s4.3,9.095,4.3,9.095c.266.761-.882,1.856-2.566,2.444s-3.262.449-3.529-.311C259.436,66.515,256.22,59.775,256.718,56.7Z" transform="translate(-226.244 -40.391)" fill="#bed6ed"/>
        <path id="Trazado_173241" data-name="Trazado 173241" d="M264.246,73.662a5.043,5.043,0,0,1-1.038,2.685c-1.734.449-4.034-3.192-4.28-3.577l.827-16.31a3.455,3.455,0,0,1,2,.74C263.122,58.448,265.465,66.378,264.246,73.662Z" transform="translate(-226.528 -40.608)" fill="#3e6593" opacity="0.28" style="mix-blend-mode: multiply;isolation: isolate"/>
        <path id="Trazado_173242" data-name="Trazado 173242" d="M245.445,71.631a21.387,21.387,0,0,1-3.6-.819c-.745-.383-4.585-.647-3.667-1.914.873-1.2,5.191-1.059,6.412-.226a10.649,10.649,0,0,0,2.323,1.267c.354.141.391.564.414.85C247.364,71.243,246.85,71.921,245.445,71.631Z" transform="translate(-223.904 -42.06)" fill="#e29191"/>
        <path id="Trazado_173243" data-name="Trazado 173243" d="M262.023,67.528c-.377,4.737-.6,18.777-.6,19.346a3.071,3.071,0,0,1-.375,1.446s-1.021,2.145-5.094,3.1a12.889,12.889,0,0,1-8.881-1.131,4.41,4.41,0,0,1-2.45-3.113.111.111,0,0,1-.017-.038c0-.083-.006-.177-.017-.282V86.84c-.21-3.416-1.408-16.668-1.408-16.668-.491-2-.955-4.6-1.027-4.846a8.335,8.335,0,0,1-.165-1.215c-.072-1.3,1.319-2.66,1.573-2.9a41.62,41.62,0,0,1,5.668-3.93,18.074,18.074,0,0,1,7.159-2.334,4.8,4.8,0,0,1,1.9.192,6.872,6.872,0,0,1,3.158,4.028A23.227,23.227,0,0,1,262.023,67.528Z" transform="translate(-224.401 -40.418)" fill="#bed6ed"/>
        <path id="Trazado_173244" data-name="Trazado 173244" d="M255.216,56.363a6.249,6.249,0,0,0-5.656.01,3.369,3.369,0,0,0-.4.285,1.356,1.356,0,0,1,.1.545,3.471,3.471,0,0,0-.076.888c.094.438.426.352.8.346.4-.007.8-.018,1.2.013a.433.433,0,0,1,.212.79l-.032-.071c-4.879-.277-5.433.414-5.433.414L244.3,60.846c1.594-1.128,5.878-.746,7.18-.6.077.01.153.02.231.027l.16.021-.005-.012a6.022,6.022,0,0,0,3.335-.655C256.765,58.724,256.773,57.261,255.216,56.363Z" transform="translate(-224.691 -40.512)" fill="#273a49"/>
        <path id="Trazado_173245" data-name="Trazado 173245" d="M261.61,88.962a3.071,3.071,0,0,0,.375-1.446c-.005-.568.221-14.609.6-19.346a24.891,24.891,0,0,0-.18-6.5c-.094-.474-.2-.919-.3-1.354-.018-.076-.048-.159-.073-.239-.231-.076,0,.791,0,.791s2.951,17.068-11.67,21.01c-2.816.759-3.953,3.719-3.908,8.165a6.438,6.438,0,0,0,1.185.887,12.889,12.889,0,0,0,8.881,1.131C260.588,91.107,261.61,88.962,261.61,88.962Z" transform="translate(-224.961 -41.061)" fill="#3e6593" opacity="0.16" style="mix-blend-mode: multiply;isolation: isolate"/>
        <path id="Trazado_173246" data-name="Trazado 173246" d="M263.145,138.9a55.16,55.16,0,0,0-4.611-15.844,62.408,62.408,0,0,0-6.775-10.411c-.245-1.691,4.481-12.029,5.079-16.819,2.661-.286,3.143.853,3.143.853a33.818,33.818,0,0,0,1.426-4.644c0-.2.711-4.035.122-6.572-.62,1.24-2.7,2.421-4.656,2.878a13.475,13.475,0,0,1-9.282-1.182,4.613,4.613,0,0,1-2.561-3.254.131.131,0,0,1-.017-.04,2.88,2.88,0,0,0-.017-.294v-.012c-.194-3.158-1.194-14.346-1.424-16.895a4.094,4.094,0,0,0-1.344,2.615,8.023,8.023,0,0,0,.159,1.163c.068.238.512,2.728.983,4.641,0,0,.8,8.861,1.181,13.684-.046,1.944-.16,5.929-.393,10.495l.324,14.87s14.439,25.294,14.46,25.4a1.139,1.139,0,0,0,.36.7,2.4,2.4,0,0,0,2.645.361A1.492,1.492,0,0,0,263.145,138.9Z" transform="translate(-224.43 -41.889)" fill="#273a49"/>
        <path id="Trazado_173247" data-name="Trazado 173247" d="M261.07,129.826c-.492-1.348-1.057-2.725-1.7-4.076q-.24-.5-.5-1a57.236,57.236,0,0,0-5.213-8.023c-.129-.169-.248-.324-.358-.465-.436-.563-.7-.894-.706-.924-.245-1.691,4.481-12.029,5.079-16.819,2.661-.286,3.143.853,3.143.853a33.814,33.814,0,0,0,1.426-4.644c0-.2.711-4.035.122-6.572-.62,1.24-2.7,2.421-4.656,2.878a13.863,13.863,0,0,1-8.2-.652l-.235,3.667s-1.3,19.415.759,22.2,7.639,17.882,12.118,26.963c.038.078.08.14.12.214a4.5,4.5,0,0,0,.512-.139,1.547,1.547,0,0,0,1.138-1.025,1.96,1.96,0,0,0,.059-.666A54.306,54.306,0,0,0,261.07,129.826Z" transform="translate(-225.264 -44.589)" fill="#3e6593" opacity="0.42" style="mix-blend-mode: multiply;isolation: isolate"/>
        <path id="Trazado_173248" data-name="Trazado 173248" d="M227.986,69.823a4.776,4.776,0,0,1,.428.519,3.609,3.609,0,0,1,.349.593,2.144,2.144,0,0,1,.207.742,1.573,1.573,0,0,1-.206.922l-.093.157a.729.729,0,0,1-.968.258.661.661,0,0,1-.27-.923.68.68,0,0,1,.2-.213.326.326,0,0,0,.121-.2,1.025,1.025,0,0,0-.01-.42,3.28,3.28,0,0,0-.38-.975l-.015-.026a.367.367,0,0,1,.16-.509A.407.407,0,0,1,227.986,69.823Z" transform="translate(-222.556 -42.271)" fill="#ffa89c"/>
        <path id="Trazado_173249" data-name="Trazado 173249" d="M224.589,69.276c-1.642-.393-3.689-.179-2.2,1.535.14.161.715.857.715.857a2.6,2.6,0,0,1,.606.448l1.338,1.6a.153.153,0,0,0,.023.013,3.47,3.47,0,0,0,1.9,1.167l1.66-1.245S227.865,70.061,224.589,69.276Z" transform="translate(-221.875 -42.196)" fill="#ffa89c"/>
        <g id="Grupo_118813" data-name="Grupo 118813" transform="translate(4.323 22.757)">
          <path id="Trazado_173250" data-name="Trazado 173250" d="M245.42,68.665l-5.285,13.407-.148.35a2.94,2.94,0,0,1-3.818,1.549,2.849,2.849,0,0,1-.984-.664l-8.211-9.121-.056-.049a.647.647,0,0,1-.061-.073c-.148-.172.164-.656.164-.987,0-.677.22-.233.718-.793.553-.491.776-.362,1.367-.006l.129.111,7.211,5.742,3.038-10.819c1.089-2.539,2.585-3.4,4.214-2.741A3.108,3.108,0,0,1,245.42,68.665Z" transform="translate(-226.819 -64.357)" fill="#ffa89c"/>
        </g>
        <path id="Trazado_173251" data-name="Trazado 173251" d="M242.628,62.67c.807-.752,3.169-1.19,4.431,1.66s-2.189,9.816-2.189,9.816c-.256.765-1.835.924-3.525.357s-2.852-1.647-2.6-2.412C238.749,72.091,240.345,64.8,242.628,62.67Z" transform="translate(-223.989 -41.317)" fill="#bed6ed"/>
        <path id="Trazado_173252" data-name="Trazado 173252" d="M253.864,49.271a1.822,1.822,0,0,0-3.489.881s-.834,6.277-.841,6.444a1.386,1.386,0,0,0,.79,1.187,4.406,4.406,0,0,0,3.986.115,1.35,1.35,0,0,0,.846-1.177C255.148,56.517,253.864,49.271,253.864,49.271Z" transform="translate(-225.348 -39.567)" fill="#e58c92"/>
        <path id="Trazado_173253" data-name="Trazado 173253" d="M251.375,38.714c-2.774.149-5.594.87-5.842,6.576a16.059,16.059,0,0,0,.575,5.418c.11.294.7,1.835,1,1.93,4.268,1.362,6.669-.31,7.815-1.26a1.779,1.779,0,0,0,.728-1.246.808.808,0,0,1,.115-.394,7.572,7.572,0,0,0,1.018-4.279C256.722,41.577,254.154,38.558,251.375,38.714Z" transform="translate(-224.843 -38.379)" fill="#ffa89c"/>
        <path id="Trazado_173254" data-name="Trazado 173254" d="M257.451,43.029a5.43,5.43,0,0,0-.332-1.665c-1.153-2.062-5.178-4.294-9.792-2.18a9.609,9.609,0,0,0-1.312.748c-.839.543-4.441,3.917.16,4.16.2.01,3.153-.145,2.332,2.547l-.183.337c.107.31-.067.77.008.938.559,1.249,1.294,5.789,5.989,5.022a18.727,18.727,0,0,0,3.478-5.514C259.273,43.4,257.451,43.029,257.451,43.029Z" transform="translate(-224.638 -38.331)" fill="#32425b"/>
        <path id="Trazado_173255" data-name="Trazado 173255" d="M249.232,46.343l-.755.851a8.754,8.754,0,0,0,1.577,3.4c1.065,1.118,2.823,0,2.823,0l-1.731-4.515Z" transform="translate(-225.215 -39.305)" fill="#32425b"/>
        <path id="Trazado_173256" data-name="Trazado 173256" d="M249.947,48.979c.383-.666.341-1.409-.093-1.658s-1.1.089-1.478.755-.341,1.408.093,1.657S249.565,49.645,249.947,48.979Z" transform="translate(-225.17 -39.45)" fill="#ffa89c"/>
      </g>
      <g id="Grupo_118817" data-name="Grupo 118817" transform="translate(206.843 58.642)">
        <g id="Grupo_118815" data-name="Grupo 118815" transform="translate(0.463 11.878)">
          <path id="Trazado_173257" data-name="Trazado 173257" d="M216.563,78.528a5.359,5.359,0,0,1-4.849-.01c-1.344-.775-1.35-2.029-.016-2.8a5.358,5.358,0,0,1,4.849.009C217.891,76.5,217.9,77.757,216.563,78.528Z" transform="translate(-210.702 -75.144)" fill="#659cdb" opacity="0.22" style="mix-blend-mode: multiply;isolation: isolate"/>
        </g>
        <g id="bottle" transform="translate(0 1.403)">
          <path id="Trazado_173258" data-name="Trazado 173258" d="M214.744,75.771V65.38l-4.555-.008v10.41h0a1.161,1.161,0,0,0,.671.9,3.558,3.558,0,0,0,3.22.006,1.135,1.135,0,0,0,.661-.9h0Z" transform="translate(-210.175 -63.441)" fill="#aacae2"/>
          <path id="Trazado_173259" data-name="Trazado 173259" d="M210.861,66.979a1.137,1.137,0,0,1-.672-.942v9.194a1.144,1.144,0,0,0,.672.928,3.558,3.558,0,0,0,3.22.005v-9.18A3.558,3.558,0,0,1,210.861,66.979Z" transform="translate(-210.175 -63.525)" fill="#b3e0ff"/>
          <path id="Trazado_173260" data-name="Trazado 173260" d="M215.108,75.784V65.38l-2.023,0V77.061a3.15,3.15,0,0,0,1.361-.374,1.135,1.135,0,0,0,.661-.9Z" transform="translate(-210.539 -63.442)" fill="#6388aa" opacity="0.15" style="mix-blend-mode: multiply;isolation: isolate"/>
          <path id="Trazado_173261" data-name="Trazado 173261" d="M214.082,66.117a3.558,3.558,0,0,1-3.22-.005.982.982,0,0,1-.01-1.86,3.562,3.562,0,0,1,3.221.006A.981.981,0,0,1,214.082,66.117Z" transform="translate(-210.175 -63.253)" fill="#e9f2ff"/>
          <g id="Grupo_118816" data-name="Grupo 118816" transform="translate(0 0.604)">
            <path id="Trazado_173262" data-name="Trazado 173262" d="M212.479,66.511a3.325,3.325,0,0,1-1.627-.389,1.151,1.151,0,0,1-.679-.948,1.136,1.136,0,0,1,.669-.936,3.58,3.58,0,0,1,3.235.006,1.153,1.153,0,0,1,.679.947,1.138,1.138,0,0,1-.67.937A3.29,3.29,0,0,1,212.479,66.511Zm-.029-2.628a3.258,3.258,0,0,0-1.594.38,1.108,1.108,0,0,0-.654.911,1.127,1.127,0,0,0,.665.923,3.55,3.55,0,0,0,3.206.005,1.111,1.111,0,0,0,.655-.912,1.126,1.126,0,0,0-.665-.923A3.3,3.3,0,0,0,212.45,63.883Z" transform="translate(-210.173 -63.855)" fill="#fafdff"/>
          </g>
          <path id="Trazado_173263" data-name="Trazado 173263" d="M213.79,65.59a1.982,1.982,0,0,1-1.793,0,.546.546,0,0,1-.005-1.035,1.98,1.98,0,0,1,1.793,0A.547.547,0,0,1,213.79,65.59Z" transform="translate(-210.355 -63.312)" fill="#3e6593" opacity="0.11" style="mix-blend-mode: multiply;isolation: isolate"/>
          <path id="Trazado_173264" data-name="Trazado 173264" d="M213.782,63.94l-2.308-.029v.924a.572.572,0,0,0,.34.479,1.805,1.805,0,0,0,1.633,0,.566.566,0,0,0,.336-.476h0Z" transform="translate(-210.336 -63.258)" fill="#aec5e5"/>
          <path id="Trazado_173265" data-name="Trazado 173265" d="M213.98,64.845v-.9l-.931-.011V65.5a1.553,1.553,0,0,0,.6-.182.566.566,0,0,0,.336-.476Z" transform="translate(-210.534 -63.26)" fill="#6388aa" opacity="0.15" style="mix-blend-mode: multiply;isolation: isolate"/>
          <path id="Trazado_173266" data-name="Trazado 173266" d="M213.447,64.3a1.8,1.8,0,0,1-1.633,0,.5.5,0,0,1-.005-.943,1.8,1.8,0,0,1,1.633,0A.5.5,0,0,1,213.447,64.3Z" transform="translate(-210.336 -63.164)" fill="#c4dbf7"/>
        </g>
        <path id="Trazado_173267" data-name="Trazado 173267" d="M214.84,61.572l0,0-.017-.01-.005,0a.089.089,0,0,0-.071.01l-2.988,1.7a.332.332,0,0,0-.137.263v.2a.117.117,0,0,0,.048.108l.575.336.066-.358,2.956-1.779.136-.153Z" transform="translate(-210.354 -61.559)" fill="#aec5e5"/>
        <path id="Trazado_173268" data-name="Trazado 173268" d="M214.778,61.564a.092.092,0,0,0-.027.01l-2.988,1.7a.249.249,0,0,0-.079.083l.7.407,2.882-1.721.116-.13Z" transform="translate(-210.363 -61.56)" fill="#c4dbf7"/>
        <path id="Trazado_173269" data-name="Trazado 173269" d="M215.413,62.525l-2.988,1.7c-.075.044-.137,0-.137-.1v-.2a.332.332,0,0,1,.137-.263l2.988-1.7c.075-.044.137,0,.137.1v.2A.331.331,0,0,1,215.413,62.525Z" transform="translate(-210.439 -61.608)" fill="#809fbc"/>
      </g>
      <g id="Grupo_118820" data-name="Grupo 118820" transform="translate(187.746 70.318)">
        <g id="Grupo_118818" data-name="Grupo 118818">
          <path id="Trazado_173270" data-name="Trazado 173270" d="M202.077,76.621a3.583,3.583,0,0,1-1.67,2.886L192.45,84.1l-2.9,1.671a.784.784,0,0,1-.407.108.814.814,0,0,1-.407-1.519l2.1-1.215,8.749-5.049a1.983,1.983,0,0,0,.857-1.476v-.043a.166.166,0,0,0-.043.027l-10.436,6.02-.417.244a.814.814,0,0,1-1.1-1.139.8.8,0,0,1,.282-.271l10.853-6.264a1.568,1.568,0,0,1,2.484,1.426Z" transform="translate(-188.333 -74.912)" fill="#c8d4ed"/>
        </g>
        <path id="Trazado_173271" data-name="Trazado 173271" d="M188.638,87.108l10.9,6.3,4.151-2.383-14.375-4.8Z" transform="translate(-188.372 -76.332)" fill="#b3cde8"/>
        <path id="Trazado_173272" data-name="Trazado 173272" d="M212.047,83.309c-.122.23-.191.653-1.748,1.333l-10.853,6.264c-.163.093-10.767-6.086-10.648-6.151l10.853-6.264a1.692,1.692,0,0,1,1.709-.093Z" transform="translate(-188.392 -75.326)" fill="#eef3ff"/>
        <g id="Grupo_118819" data-name="Grupo 118819" transform="translate(10.648 6.149)">
          <path id="Trazado_173273" data-name="Trazado 173273" d="M201.325,92.913a.814.814,0,0,1-.408-1.518l10.819-6.277c2.366-1.379,1.295-1.722.846-1.483L201.731,89.9a.813.813,0,1,1-.814-1.409l10.852-6.265a1.569,1.569,0,0,1,2.485,1.425,3.583,3.583,0,0,1-1.672,2.886L201.731,92.8A.809.809,0,0,1,201.325,92.913Z" transform="translate(-200.51 -81.944)" fill="#b3cde8"/>
        </g>
        <path id="Trazado_173274" data-name="Trazado 173274" d="M188.638,83.789l10.9,6.3,4.151-2.383-14.375-4.8Z" transform="translate(-188.372 -75.915)" fill="#b3cde8"/>
        <path id="Trazado_173275" data-name="Trazado 173275" d="M212.007,81.253a1.664,1.664,0,0,0-1.708.092l-10.853,6.264c-.163.093-10.767-6.085-10.648-6.151l10.853-6.264a1.69,1.69,0,0,1,1.709-.092Z" transform="translate(-188.392 -74.912)" fill="#eef3ff"/>
      </g>
    </g>
  </g>
</svg>
