<svg xmlns="http://www.w3.org/2000/svg" width="77" height="106.002" viewBox="0 0 77 106.002">
  <g id="Grupo_119311" data-name="Grupo 119311" transform="translate(5635.537 -6379.999)">
    <circle id="Elipse_4795" data-name="Elipse 4795" cx="38.5" cy="38.5" r="38.5" transform="translate(-5635.537 6409)" fill="#5c22c3"/>
    <g id="_3" data-name="3" transform="translate(-5937.98 6371.682)">
      <g id="_13" data-name="13" transform="translate(302.443 8.319)">
        <g id="Grupo_118822" data-name="Grupo 118822" transform="translate(0.819)">
          <g id="Grupo_118821" data-name="Grupo 118821">
            <path id="Trazado_173276" data-name="Trazado 173276" d="M333.759,162.536l15.214-8.83-22.265-12.877L305.4,153.181l16.163,9.354Z" transform="translate(-304.531 -65.153)" fill="#5681c1" opacity="0.22" style="mix-blend-mode: multiply;isolation: isolate"/>
            <path id="Trazado_173277" data-name="Trazado 173277" d="M351.1,101.421l-18.757,10.857V35.642L351.086,24.76Z" transform="translate(-316.085 -15.371)" fill="#aac7e0"/>
            <path id="Trazado_173278" data-name="Trazado 173278" d="M360.181,21.842l3.69,2.122-1.954,1.141Z" transform="translate(-328.026 -14.119)" fill="#aac7e0"/>
            <path id="Trazado_173279" data-name="Trazado 173279" d="M332.346,35.546l.822.447,18.757-10.856-.988-.562Z" transform="translate(-316.087 -15.291)" fill="#cde7fc"/>
            <path id="Trazado_173280" data-name="Trazado 173280" d="M352.542,102.195l-18.757,10.857V36.415l18.757-10.856Z" transform="translate(-316.705 -15.713)" fill="#93b1ce"/>
            <path id="Trazado_173281" data-name="Trazado 173281" d="M329.2,176.1l2.6,1.5.02-1.636Z" transform="translate(-314.738 -80.221)" fill="#aac7e0"/>
            <path id="Trazado_173282" data-name="Trazado 173282" d="M338.91,17.7,322.652,8.319,303.877,19.191l16.258,9.383Z" transform="translate(-303.877 -8.319)" fill="#cde7fc"/>
            <path id="Trazado_173283" data-name="Trazado 173283" d="M320.148,113.418l-16.271-9.394V27.388l16.271,9.394Z" transform="translate(-303.877 -16.498)" fill="#b3cde8"/>
            <path id="Trazado_173284" data-name="Trazado 173284" d="M320.148,63.725,303.877,86.683v32.926l11.681,6.744,4.59-6.305Z" transform="translate(-303.877 -32.083)" fill="#fff" opacity="0.08" style="mix-blend-mode: overlay;isolation: isolate"/>
          </g>
        </g>
        <g id="Grupo_118823" data-name="Grupo 118823" transform="translate(0 23.551)">
          <path id="Trazado_173285" data-name="Trazado 173285" d="M302.723,100.581a.28.28,0,0,1-.28-.28V49.837a.28.28,0,0,1,.56,0V100.3A.28.28,0,0,1,302.723,100.581Z" transform="translate(-302.443 -49.557)" fill="#32425b"/>
        </g>
        <g id="Grupo_118824" data-name="Grupo 118824" transform="translate(17.035 59.252)">
          <path id="Trazado_173286" data-name="Trazado 173286" d="M333.066,123.068a.069.069,0,0,1-.035-.009l-.725-.417a.07.07,0,0,1,.07-.121l.69.4,18.722-10.836a.07.07,0,1,1,.07.122L333.1,123.059A.07.07,0,0,1,333.066,123.068Z" transform="translate(-332.271 -112.072)" fill="#7b9cb7"/>
        </g>
        <g id="Grupo_118825" data-name="Grupo 118825" transform="translate(17.007 9.313)">
          <path id="Trazado_173287" data-name="Trazado 173287" d="M332.293,112.159a.07.07,0,0,1-.07-.07V35.568a.072.072,0,0,1,.035-.061l18.775-10.872a.07.07,0,0,1,.07.122L332.363,35.608v76.481A.07.07,0,0,1,332.293,112.159Z" transform="translate(-332.223 -24.626)" fill="#7b9cb7"/>
        </g>
        <path id="Trazado_173288" data-name="Trazado 173288" d="M352.131,46.106l-4.948,2.856V45.65l4.948-2.856Z" transform="translate(-321.633 -23.106)" fill="#273a49"/>
        <g id="Grupo_118826" data-name="Grupo 118826" transform="translate(25.411 19.548)">
          <path id="Trazado_173289" data-name="Trazado 173289" d="M347.078,49a.14.14,0,0,1-.07-.261l4.878-2.817V42.689a.14.14,0,0,1,.28,0V46a.14.14,0,0,1-.07.121l-4.947,2.857A.142.142,0,0,1,347.078,49Z" transform="translate(-346.938 -42.549)" fill="#b3cde8"/>
        </g>
        <path id="Trazado_173290" data-name="Trazado 173290" d="M338.164,121.8a1.473,1.473,0,0,1-.668,1.153c-.369.213-.669.042-.669-.381a1.472,1.472,0,0,1,.669-1.153C337.865,121.206,338.164,121.377,338.164,121.8Z" transform="translate(-317.191 -56.789)" fill="#3b586b"/>
        <path id="Trazado_173291" data-name="Trazado 173291" d="M338.256,121.856a1.472,1.472,0,0,1-.669,1.153c-.369.213-.668.042-.668-.381a1.473,1.473,0,0,1,.668-1.153C337.957,121.262,338.256,121.433,338.256,121.856Z" transform="translate(-317.23 -56.813)" fill="#273a49"/>
        <path id="Trazado_173292" data-name="Trazado 173292" d="M344.472,116.388A15.135,15.135,0,0,1,341.2,118.6c-1.807,1.044-3.273,1.745-3.273,1.565a15.124,15.124,0,0,1,3.273-2.214C343.007,116.91,344.472,116.209,344.472,116.388Z" transform="translate(-317.662 -54.659)" fill="#3b586b"/>
        <path id="Trazado_173293" data-name="Trazado 173293" d="M337.938,122.837l.242.136.523-.382-.407-.035Z" transform="translate(-317.667 -57.316)" fill="#3b586b"/>
        <path id="Trazado_173294" data-name="Trazado 173294" d="M349.084,116.373l.232.139-.616.27-.009-.264Z" transform="translate(-322.279 -54.664)" fill="#3b586b"/>
        <path id="Trazado_173295" data-name="Trazado 173295" d="M344.891,116.624a15.126,15.126,0,0,1-3.272,2.214c-1.807,1.043-3.273,1.744-3.273,1.565a15.137,15.137,0,0,1,3.273-2.214C343.426,117.146,344.891,116.445,344.891,116.624Z" transform="translate(-317.842 -54.76)" fill="#273a49"/>
        <path id="Trazado_173296" data-name="Trazado 173296" d="M338.164,132.221a1.473,1.473,0,0,1-.668,1.152c-.369.213-.669.043-.669-.381a1.473,1.473,0,0,1,.669-1.153C337.865,131.626,338.164,131.8,338.164,132.221Z" transform="translate(-317.191 -61.259)" fill="#3b586b"/>
        <path id="Trazado_173297" data-name="Trazado 173297" d="M338.256,132.277a1.472,1.472,0,0,1-.669,1.152c-.369.214-.668.043-.668-.381a1.473,1.473,0,0,1,.668-1.153C337.957,131.682,338.256,131.853,338.256,132.277Z" transform="translate(-317.23 -61.283)" fill="#273a49"/>
        <path id="Trazado_173298" data-name="Trazado 173298" d="M344.472,126.808a15.126,15.126,0,0,1-3.272,2.214c-1.807,1.043-3.273,1.744-3.273,1.565a15.147,15.147,0,0,1,3.273-2.214C343.007,127.33,344.472,126.629,344.472,126.808Z" transform="translate(-317.662 -59.128)" fill="#3b586b"/>
        <path id="Trazado_173299" data-name="Trazado 173299" d="M337.938,133.257l.242.136.523-.382-.407-.035Z" transform="translate(-317.667 -61.786)" fill="#3b586b"/>
        <path id="Trazado_173300" data-name="Trazado 173300" d="M349.084,126.793l.232.139-.616.27-.009-.264Z" transform="translate(-322.279 -59.134)" fill="#3b586b"/>
        <path id="Trazado_173301" data-name="Trazado 173301" d="M344.891,127.045a15.135,15.135,0,0,1-3.272,2.214c-1.807,1.043-3.273,1.745-3.273,1.565a15.123,15.123,0,0,1,3.273-2.214C343.426,127.566,344.891,126.866,344.891,127.045Z" transform="translate(-317.842 -59.23)" fill="#273a49"/>
      </g>
      <g id="Grupo_118829" data-name="Grupo 118829" transform="translate(327.323 97.511)">
        <g id="Grupo_118827" data-name="Grupo 118827" transform="translate(0.902 10.912)">
          <path id="Trazado_173302" data-name="Trazado 173302" d="M352.972,186.713a4.922,4.922,0,0,1-4.455-.008c-1.234-.712-1.24-1.864-.014-2.572a4.922,4.922,0,0,1,4.455.008C354.193,184.854,354.2,186.005,352.972,186.713Z" transform="translate(-347.588 -183.605)" fill="#659cdb" opacity="0.22" style="mix-blend-mode: multiply;isolation: isolate"/>
        </g>
        <g id="bottle" transform="translate(0.485 1.289)">
          <path id="Trazado_173303" data-name="Trazado 173303" d="M351.05,179.413v-9.546l-4.184-.007v9.51q0,.021,0,.043v.011h0a1.066,1.066,0,0,0,.616.825,3.269,3.269,0,0,0,2.959.005,1.043,1.043,0,0,0,.607-.829h0Z" transform="translate(-346.861 -168.086)" fill="#aacae2"/>
          <path id="Trazado_173304" data-name="Trazado 173304" d="M350.9,171.66a1.046,1.046,0,0,0,.618-.865v8.447a1.052,1.052,0,0,1-.618.852,3.27,3.27,0,0,1-2.959.005v-8.434A3.272,3.272,0,0,0,350.9,171.66Z" transform="translate(-347.325 -168.487)" fill="#b3e0ff"/>
          <path id="Trazado_173305" data-name="Trazado 173305" d="M352.8,179.428v-9.558l-1.858,0V180.6a2.9,2.9,0,0,0,1.25-.344,1.043,1.043,0,0,0,.607-.829Z" transform="translate(-348.609 -168.089)" fill="#6388aa" opacity="0.15" style="mix-blend-mode: multiply;isolation: isolate"/>
          <path id="Trazado_173306" data-name="Trazado 173306" d="M350.443,169.812a3.271,3.271,0,0,1-2.959-.006.9.9,0,0,1-.009-1.708,3.268,3.268,0,0,1,2.959.005A.9.9,0,0,1,350.443,169.812Z" transform="translate(-346.861 -167.18)" fill="#e9f2ff"/>
          <g id="Grupo_118828" data-name="Grupo 118828" transform="translate(0 0.555)">
            <path id="Trazado_173307" data-name="Trazado 173307" d="M347.472,169.814a1.045,1.045,0,0,1-.615-.861,1.059,1.059,0,0,1,.624-.871,3.289,3.289,0,0,1,2.972-.005,1.046,1.046,0,0,1,.615.861,1.059,1.059,0,0,1-.624.87,3.059,3.059,0,0,1-1.495.357A3.024,3.024,0,0,1,347.472,169.814Zm.023-1.709a1.035,1.035,0,0,0-.611.848,1.02,1.02,0,0,0,.6.837,3.258,3.258,0,0,0,2.946-.005,1.033,1.033,0,0,0,.611-.848,1.02,1.02,0,0,0-.6-.838,2.991,2.991,0,0,0-1.464-.349A3.032,3.032,0,0,0,347.5,168.105Z" transform="translate(-346.858 -167.725)" fill="#fafdff"/>
          </g>
          <path id="Trazado_173308" data-name="Trazado 173308" d="M350.873,169.556a1.823,1.823,0,0,1-1.648,0,.5.5,0,0,1-.005-.951,1.821,1.821,0,0,1,1.648,0A.5.5,0,0,1,350.873,169.556Z" transform="translate(-347.726 -167.462)" fill="#3e6593" opacity="0.11" style="mix-blend-mode: multiply;isolation: isolate"/>
          <path id="Trazado_173309" data-name="Trazado 173309" d="M350.81,167.831l-2.122-.027v.849a.528.528,0,0,0,.312.441,1.657,1.657,0,0,0,1.5,0,.52.52,0,0,0,.308-.437h0Z" transform="translate(-347.643 -167.204)" fill="#aec5e5"/>
          <path id="Trazado_173310" data-name="Trazado 173310" d="M351.76,168.672v-.829l-.857-.011v1.444a1.406,1.406,0,0,0,.548-.167.52.52,0,0,0,.308-.437Z" transform="translate(-348.593 -167.216)" fill="#6388aa" opacity="0.15" style="mix-blend-mode: multiply;isolation: isolate"/>
          <path id="Trazado_173311" data-name="Trazado 173311" d="M350.5,167.8a1.656,1.656,0,0,1-1.5,0,.457.457,0,0,1,0-.866,1.657,1.657,0,0,1,1.5,0A.457.457,0,0,1,350.5,167.8Z" transform="translate(-347.643 -166.754)" fill="#c4dbf7"/>
        </g>
        <path id="Trazado_173312" data-name="Trazado 173312" d="M346.629,164.508l0,0,.017-.009,0,0a.082.082,0,0,1,.066.01l2.745,1.565a.3.3,0,0,1,.126.241v.183a.108.108,0,0,1-.045.1l-.528.308-.06-.328-2.716-1.634-.126-.14Z" transform="translate(-346.054 -164.497)" fill="#93b1ce"/>
        <path id="Trazado_173313" data-name="Trazado 173313" d="M346.708,164.5a.085.085,0,0,1,.025.009l2.745,1.565a.229.229,0,0,1,.072.077l-.648.374-2.648-1.581-.107-.121Z" transform="translate(-346.068 -164.499)" fill="#c4dbf7"/>
        <path id="Trazado_173314" data-name="Trazado 173314" d="M346.134,165.571l2.745,1.565c.07.04.126,0,.126-.1v-.183a.3.3,0,0,0-.126-.242l-2.745-1.565c-.069-.04-.126,0-.126.1v.183A.305.305,0,0,0,346.134,165.571Z" transform="translate(-346.008 -164.728)" fill="#aec5e5"/>
      </g>
      <g id="Grupo_118835" data-name="Grupo 118835" transform="translate(320.381 42.703)">
        <g id="Grupo_118830" data-name="Grupo 118830" transform="translate(13.86 10.843)">
          <path id="Trazado_173315" data-name="Trazado 173315" d="M372.857,90.67l-7.951,7.823-.144.189a1.842,1.842,0,0,1-2.559.335,1.772,1.772,0,0,1-.491-.558l-3.489-5.884-.026-.039a.462.462,0,0,1-.026-.054.731.731,0,0,1-.016-.5,2.031,2.031,0,0,1,.829-1.088c.413-.211.33-.081.632.228l.061.088,3.617,4.314,6.374-7.239a2.008,2.008,0,0,1,2.793-.365A1.946,1.946,0,0,1,372.857,90.67Z" transform="translate(-358.121 -87.512)" fill="#ea9b9b"/>
        </g>
        <path id="Trazado_173316" data-name="Trazado 173316" d="M371.129,177.587a12.486,12.486,0,0,1-11.3-.021c-3.128-1.806-3.144-4.726-.035-6.521a12.484,12.484,0,0,1,11.3.021C374.222,172.872,374.238,175.792,371.129,177.587Z" transform="translate(-343.985 -111.923)" fill="#5681c1" opacity="0.22" style="mix-blend-mode: multiply;isolation: isolate"/>
        <path id="Trazado_173317" data-name="Trazado 173317" d="M356.155,88.765c-.9-.479-2.613-1.019-2.163.271.149.427,1.154,1.13,1.222,1.248l.535,1.137c0,.005.008.007.011.011a4.123,4.123,0,0,0,.789,1.164l1.3-.668A3.6,3.6,0,0,0,356.155,88.765Z" transform="translate(-342.459 -76.978)" fill="#475968"/>
        <path id="Trazado_173318" data-name="Trazado 173318" d="M358.286,95.122l2.089,3.888,2.037-1.587-2.819-3.664Z" transform="translate(-344.332 -79.348)" fill="#475968"/>
        <path id="Trazado_173319" data-name="Trazado 173319" d="M336.854,73.587c-1.939-.319-2.176.318-1.8,2.051s2.1,2.769.294,4.052-1.807,2.062-.883,2.613,3.922.446,4.765-1.356.006-2.854-1.124-4.256S340.29,74.153,336.854,73.587Z" transform="translate(-333.852 -70.663)" fill="#4b77aa"/>
        <path id="Trazado_173320" data-name="Trazado 173320" d="M357.222,90.164a3.506,3.506,0,0,1,.379.224,2.708,2.708,0,0,1,.36.291,1.761,1.761,0,0,1,.331.421,1.31,1.31,0,0,1,.171.636v.123a.38.38,0,0,1-.425.4.521.521,0,0,1-.419-.52.484.484,0,0,1,.039-.185.237.237,0,0,0,0-.159.886.886,0,0,0-.131-.264,2.637,2.637,0,0,0-.492-.526l-.015-.013a.288.288,0,0,1-.07-.363A.206.206,0,0,1,357.222,90.164Z" transform="translate(-343.742 -77.796)" fill="#475968"/>
        <path id="Trazado_173321" data-name="Trazado 173321" d="M377.929,87.393a2.251,2.251,0,0,1,2.3,2.621c-.089,1.753-3.662,3.739-3.662,3.739-.328.314-1.156-.022-1.849-.749s-.987-1.57-.659-1.883C374.058,91.12,376.233,87.851,377.929,87.393Z" transform="translate(-351.039 -76.607)" fill="#cde7fc"/>
        <path id="Trazado_173322" data-name="Trazado 173322" d="M374.661,175.912a2.024,2.024,0,0,1-2.2-1.182c-.027,0-.054,0-.081,0-.654.014-1.043.3-1.095.519-.175.732,1.14,1.343,2.1,1.48.991.142,1.662.3,2.052.389.965.216,1.214-.228,1.266-.33.324-.617-.156-1.469-.363-1.787A2.385,2.385,0,0,1,374.661,175.912Z" transform="translate(-349.899 -114.076)" fill="#7289a5"/>
        <path id="Trazado_173323" data-name="Trazado 173323" d="M376.182,174.309s.015.586-.959.678c-.592.056-.147-.409-.248-.52-.124-.138-.282-.17-1.069-.1-.372.1-.969-.218-1.594-.2-.654.014-1.043.3-1.095.519-.175.732,1.14,1.343,2.1,1.48.99.142,1.661.3,2.052.389.965.216,1.214-.228,1.267-.33C377.038,175.451,376.182,174.309,376.182,174.309Z" transform="translate(-349.872 -113.835)" fill="#9fbad6"/>
        <path id="Trazado_173324" data-name="Trazado 173324" d="M363.894,181.157a2.025,2.025,0,0,1-2.2-1.182c-.027,0-.054,0-.081,0-.654.014-1.043.3-1.095.519-.175.732,1.139,1.343,2.1,1.48.99.142,1.662.3,2.052.389.966.216,1.214-.229,1.267-.33.324-.617-.156-1.469-.363-1.787A2.385,2.385,0,0,1,363.894,181.157Z" transform="translate(-345.281 -116.326)" fill="#7289a5"/>
        <path id="Trazado_173325" data-name="Trazado 173325" d="M365.414,179.554s.015.586-.959.678c-.592.056-.147-.409-.247-.52-.124-.138-.283-.17-1.069-.1-.372.1-.968-.218-1.594-.2-.654.014-1.043.3-1.094.519-.175.732,1.139,1.343,2.1,1.48.99.142,1.662.3,2.052.389.966.216,1.214-.229,1.267-.33C366.27,180.7,365.414,179.554,365.414,179.554Z" transform="translate(-345.254 -116.085)" fill="#9fbad6"/>
        <path id="Trazado_173326" data-name="Trazado 173326" d="M376.418,122.5c2.211-8.363-4.829-10.073-4.829-10.073-6.159.733-1.646,14.473-.8,21.244,1.1,8.786,1.885,12.647,2.33,14.277h0a.528.528,0,0,0,.356.389,1.647,1.647,0,0,0,1.48-.166.521.521,0,0,0,.255-.457h0v0c.288-2.523.331-6.854.388-11.288.009-.652-.509-3.251-.5-3.9A38.034,38.034,0,0,1,376.418,122.5Z" transform="translate(-348.671 -87.355)" fill="#273a49"/>
        <path id="Trazado_173327" data-name="Trazado 173327" d="M376.532,148.812a1.549,1.549,0,0,0,.8-.26.521.521,0,0,0,.255-.457h0v0c.288-2.523.331-6.854.388-11.288.009-.652-.509-3.251-.5-3.9a38.021,38.021,0,0,1,1.319-10.02c1.6-6.034-1.625-8.6-3.542-9.568l-1.312,1.781a74.341,74.341,0,0,1,1.534,18.038A76.333,76.333,0,0,0,376.532,148.812Z" transform="translate(-351.046 -87.735)" fill="#3e6593" opacity="0.28" style="mix-blend-mode: multiply;isolation: isolate"/>
        <path id="Trazado_173328" data-name="Trazado 173328" d="M374.541,98.353c1.439-3.87,1.552-8.153.316-10.381a1.766,1.766,0,0,0-1.752-.881,16.281,16.281,0,0,0-9.033,4,1.786,1.786,0,0,0-.553,1.42c.138,2.022,1.552,7.588,1.188,10.056l-.407,1.813a2.4,2.4,0,0,1-.127.371,1.558,1.558,0,0,0-.116.715l0,.019h0a1.509,1.509,0,0,0,.722,1.205,2.917,2.917,0,0,0,.382.223,7.854,7.854,0,0,0,6.4-.12c1.736-.8,2.468-2.005,1.982-3a2.91,2.91,0,0,1-.185-1.883A27.026,27.026,0,0,1,374.541,98.353Z" transform="translate(-346.575 -76.483)" fill="#bed6ed"/>
        <path id="Trazado_173329" data-name="Trazado 173329" d="M365.985,101.749l-2.328.192,2.037,5.97S364,103.019,365.985,101.749Z" transform="translate(-346.636 -82.775)" fill="#3e6593" opacity="0.42" style="mix-blend-mode: multiply;isolation: isolate"/>
        <path id="Trazado_173330" data-name="Trazado 173330" d="M371.648,88.728a3.767,3.767,0,0,0-2.057-.405c0,.006.01.01.014.016.476.357.927.871.771,1.416-.2.687-.991.708-1.676.65-.017.005-.034.007-.052.011l-.026-.031c-2.98.063-3.694.737-3.694.737l-.7.674a14.325,14.325,0,0,1,4.267-.761,4.061,4.061,0,0,0,3.144-.218A1.1,1.1,0,0,0,371.648,88.728Z" transform="translate(-346.88 -77.013)" fill="#273a49"/>
        <path id="Trazado_173331" data-name="Trazado 173331" d="M373.9,112.277a9.532,9.532,0,0,0-.93-3.418,4.441,4.441,0,0,1-1.961,1.465,5.062,5.062,0,0,1-5.062-1.306c-.873-.922-2.178-6.93-2.539-8.946-1.547,5.051.22,10-.2,11.849-1.851,8.2-.866,15.956-.842,17.811.007.605,1.843,15.993,1.843,15.993h0a.5.5,0,0,0,.283.482,1.644,1.644,0,0,0,1.488.07.554.554,0,0,0,.311-.346h0c2.31-11.581-.153-14.394.4-15.985,1.1-3.14,1.115-9.673,3.216-11.781a10.594,10.594,0,0,0,2.46-3.5l.02,0A3.3,3.3,0,0,1,373.9,112.277Z" transform="translate(-345.964 -82.056)" fill="#273a49"/>
        <path id="Trazado_173332" data-name="Trazado 173332" d="M372.792,116.411a5.062,5.062,0,0,1-5.062-1.306,3.069,3.069,0,0,1-.462-.842,97.418,97.418,0,0,1-.574,12.558,46.59,46.59,0,0,0-.318,10.315l.672,15.369a1.5,1.5,0,0,0,.718-.141.554.554,0,0,0,.311-.346h0c2.309-11.581-.153-14.394.4-15.985,1.1-3.14,1.115-9.673,3.216-11.781a10.594,10.594,0,0,0,2.46-3.5l.02,0a3.3,3.3,0,0,1,1.5-2.387,9.532,9.532,0,0,0-.93-3.418A4.441,4.441,0,0,1,372.792,116.411Z" transform="translate(-347.742 -88.143)" fill="#3e6593" opacity="0.28" style="mix-blend-mode: multiply;isolation: isolate"/>
        <g id="Grupo_118831" data-name="Grupo 118831" transform="translate(17.014 25.915)">
          <path id="Trazado_173333" data-name="Trazado 173333" d="M363.644,113.932l.209-.029S363.77,113.913,363.644,113.932Z" transform="translate(-363.644 -113.903)" fill="#7baeff" opacity="0.15" style="mix-blend-mode: multiply;isolation: isolate"/>
        </g>
        <g id="Grupo_118834" data-name="Grupo 118834" transform="translate(20.191 9.419)">
          <path id="Trazado_173334" data-name="Trazado 173334" d="M369.213,85.6h0S369.213,85.6,369.213,85.6Z" transform="translate(-369.208 -85.267)" fill="#2b3b51"/>
          <g id="Grupo_118833" data-name="Grupo 118833">
            <g id="Grupo_118832" data-name="Grupo 118832" transform="translate(0.019)">
              <path id="Trazado_173335" data-name="Trazado 173335" d="M369.245,85.018h0S369.245,85.018,369.245,85.018Z" transform="translate(-369.24 -85.018)" fill="#2b3b51"/>
            </g>
            <rect id="Rectángulo_37100" data-name="Rectángulo 37100" transform="translate(0 0.332)" fill="#2b3b51"/>
          </g>
        </g>
        <path id="Trazado_173336" data-name="Trazado 173336" d="M374.124,83.255a2.647,2.647,0,0,0-2.373-.224,22.206,22.206,0,0,0-.921,4.066.638.638,0,0,0-.022.117.839.839,0,0,0,.432.726,2.627,2.627,0,0,0,2.369.223.806.806,0,0,0,.551-.686C374.249,86.213,374.354,83.422,374.124,83.255Z" transform="translate(-349.702 -74.668)" fill="#ea8c8c"/>
        <path id="Trazado_173337" data-name="Trazado 173337" d="M373.782,76.582c-.431,4.676-4.788,3.61-5.405,3.235-.9-.548-.85-1.166-.792-3.373.081-3.075,1.362-3.972,2.943-3.94A3.8,3.8,0,0,1,373.782,76.582Z" transform="translate(-348.308 -70.231)" fill="#ffa89c"/>
        <path id="Trazado_173338" data-name="Trazado 173338" d="M370.769,68.527a2.867,2.867,0,0,1,2.475.9,4.641,4.641,0,0,1,4.059,3.431,1.613,1.613,0,0,1,0,.438,2.431,2.431,0,0,1-1.422,4.536c-.049,0-.092-.02-.14-.027h-.02a.612.612,0,0,1-.186-.042,2.406,2.406,0,0,1-.414-.141.579.579,0,0,1-.05.072,2.135,2.135,0,0,1-2.722.632c-.71-.2-1.383-1.516-1.959-2.88a1.616,1.616,0,0,0,.159-.176.408.408,0,0,0-.482-.612c-.029-.071-.289-.771-.317-.841,0,0-.408,1.007-.817,1.1.434-1.749-.146-1.831-.274-2.112-.085-.152-.4-.2-.487-.357C366.2,72.137,368.111,68.587,370.769,68.527Z" transform="translate(-348.224 -68.526)" fill="#32425b"/>
        <path id="Trazado_173339" data-name="Trazado 173339" d="M372.6,79.449c-.089-.287-.517-.408-.957-.272-.045.014-.087.259-.118.273a1.981,1.981,0,0,1-.235.769,1.387,1.387,0,0,0,.674-.005C372.4,80.077,372.687,79.735,372.6,79.449Z" transform="translate(-349.909 -73.07)" fill="#ffa89c"/>
        <path id="Trazado_173340" data-name="Trazado 173340" d="M339.591,80.988a5.857,5.857,0,0,0-.225-.572c-.083-.183-.173-.364-.274-.541a3.608,3.608,0,0,0-.773-.974.2.2,0,0,0-.274.013.261.261,0,0,0-.026.32,4.164,4.164,0,0,1,.5.861c.054.168.1.34.136.513a4.924,4.924,0,0,1,.085.509.467.467,0,0,0,.48.412.4.4,0,0,0,.4-.444.433.433,0,0,0-.018-.091Z" transform="translate(-335.62 -72.954)" fill="#475968"/>
        <path id="Trazado_173341" data-name="Trazado 173341" d="M337.846,82.7s-1.294-1.156-1.756-1.589c-.429-.4-.568-.874-.4-1.91.221-1.351.174-.183.853.5.5.5,1.621,1.123,1.989,1.517a.9.9,0,0,1,.244.677C338.714,82.234,338.508,83.158,337.846,82.7Z" transform="translate(-334.611 -72.837)" fill="#ffa89c"/>
        <path id="Trazado_173342" data-name="Trazado 173342" d="M356.44,92.867a1.963,1.963,0,0,1-2.552,1.093l-8.123-3.25-.134-.053a1.132,1.132,0,0,1-.312-.19L339.9,85.2c-.484-.416-.664-.559-.294-1.1.4-.576.2-1,.773-.6l6.615,4.747s7.658,1.744,7.7,1.758A2.411,2.411,0,0,1,356.44,92.867Z" transform="translate(-336.236 -74.881)" fill="#ffa89c"/>
        <path id="Trazado_173343" data-name="Trazado 173343" d="M364.507,95.437a1.986,1.986,0,0,1-.739,2.995c-1.606.706-5.525-1.244-5.525-1.244-.43-.146-.518-1.034-.2-1.986s.931-1.6,1.361-1.459C359.408,93.744,363.313,94.149,364.507,95.437Z" transform="translate(-344.146 -79.333)" fill="#cde7fc"/>
        <path id="Trazado_173344" data-name="Trazado 173344" d="M337.534,78.985a4.086,4.086,0,0,1,1.164,2.1c.013.952-.013-.053-.013-.053l2.737,1.719-1.495,2.7L337.455,82.3s-2.063-1.216-2.169-2.486-.23-1.736.216-1.921c.251-.1.365.123.7.837s.443.926.744,1.018C337.174,79.823,337.478,79.732,337.534,78.985Z" transform="translate(-334.424 -72.535)" fill="#475968"/>
        <path id="Trazado_173345" data-name="Trazado 173345" d="M336.9,80.85c-.677-.327.337-.741-.6-2.784s.536-.3.536-.3l.833,1.541S337.226,81.005,336.9,80.85Z" transform="translate(-334.773 -72.191)" fill="#4b77aa"/>
        <path id="Trazado_173346" data-name="Trazado 173346" d="M343.742,87.533c-.425.737-.576,1.447-.336,1.585s.778-.347,1.2-1.084.576-1.446.336-1.584S344.167,86.8,343.742,87.533Z" transform="translate(-337.901 -76.203)" fill="#384954"/>
        <path id="Trazado_173347" data-name="Trazado 173347" d="M343.908,87.531c-.291.5-.394.989-.231,1.083s.532-.238.824-.741.394-.989.23-1.083S344.2,87.027,343.908,87.531Z" transform="translate(-338.033 -76.352)" fill="#ffa89c"/>
        <path id="Trazado_173348" data-name="Trazado 173348" d="M344.177,89.03l-.441-.4L344.79,86.8l.716.522-.787,1.746Z" transform="translate(-338.092 -76.365)" fill="#ffa89c"/>
      </g>
    </g>
  </g>
</svg>
