<svg xmlns="http://www.w3.org/2000/svg" width="158.667" height="199.41" viewBox="0 0 158.667 199.41">
  <g id="Grupo_117969" data-name="Grupo 117969" transform="translate(-33.856 -56.146)">
    <path id="Trazado_170448" data-name="Trazado 170448" d="M140.626,138.823l-39.143,22.812,13.444,8.564-2.262,5.187h9.988l40.26-23.544Z" transform="translate(29.611 36.201)" fill="#eaecff" style="mix-blend-mode: multiply;isolation: isolate"/>
    <path id="Trazado_170449" data-name="Trazado 170449" d="M99.634,162.3,60.571,187.758l17.887,10.4L76.2,203.341h9.988l40.755-24.79Z" transform="translate(11.697 46.482)" fill="#eaecff" style="mix-blend-mode: multiply;isolation: isolate"/>
    <path id="Trazado_170450" data-name="Trazado 170450" d="M60.312,154.136,40.5,167.045l12.659,7.79,3.275-.119a8.12,8.12,0,0,0,3.866-1.143l10.547-6.3Z" transform="translate(2.91 42.906)" fill="#eaecff" style="mix-blend-mode: multiply;isolation: isolate"/>
    <g id="Grupo_117968" data-name="Grupo 117968" transform="translate(33.856 56.147)">
      <g id="Grupo_117927" data-name="Grupo 117927" transform="translate(24.01 63.49)">
        <path id="Trazado_170451" data-name="Trazado 170451" d="M80.3,183.445a29.632,29.632,0,0,1-11.132,2.023c-6.191,0-12.013-1.642-15.574-4.394-1.541-1.192-3.313-3.1-3-5.4.322-2.383,2.841-4.758,6.739-6.357a29.66,29.66,0,0,1,11.132-2.023c6.191,0,12.013,1.643,15.574,4.394,1.541,1.192,3.313,3.1,3,5.4C86.714,179.471,84.2,181.848,80.3,183.445Z" transform="translate(-50.555 -70.971)" fill="#eaecff" style="mix-blend-mode: multiply;isolation: isolate"/>
        <g id="Grupo_117924" data-name="Grupo 117924" transform="translate(10.169 51.968)">
          <path id="Trazado_170452" data-name="Trazado 170452" d="M71.315,186.4c.339.368,1.008,1.008.577,1.457-1.13,1.188-3.123.864-6.383-1.5-.4-.289-.986-.2-1.625-.536a2.39,2.39,0,0,1-1.2-1.324,1.351,1.351,0,0,1-.063-.87,3.336,3.336,0,0,1,.259-.789,1.515,1.515,0,0,0,.088-.254,8.91,8.91,0,0,0,.276-2.033s.04-19.217,1.809-26.619L63.5,138.018l9.425-1.573-1.234,17.726S66.58,179.73,66.488,181.1c-.1,1.6,2.28,3.4,3.75,4.476A11.745,11.745,0,0,1,71.315,186.4Z" transform="translate(-55.458 -136.445)" fill="#f8afac"/>
          <path id="Trazado_170453" data-name="Trazado 170453" d="M58.4,138.266l2.329,16.415-.152,2.67c-2.631,8.3-1.74,20.173-1.672,25.948.027,2.293-1.265,3.665-1.268,6.935,0,1.661.73,3.472,2.821,3.432s1.8-5.464,1.244-8.643a3.322,3.322,0,0,1,.022-1.255l4.8-23.436.917-1.79a5.36,5.36,0,0,0,.338-1.871v-18.9Z" transform="translate(-57.624 -135.866)" fill="#fec7c4"/>
          <path id="Trazado_170454" data-name="Trazado 170454" d="M62.044,172.673s.167,2.542-2.124,2.542c-1.727,0-2.138-1.284-1.967-2.808a8.443,8.443,0,0,0-.078,4.319,2.4,2.4,0,0,0,2.683,1.83,1.235,1.235,0,0,0,1.334-1.037A11.877,11.877,0,0,0,62.044,172.673Z" transform="translate(-57.627 -120.699)" fill="#ff4a59"/>
          <path id="Trazado_170455" data-name="Trazado 170455" d="M71.891,173.809c-1.13,1.188-3.123.864-6.383-1.5-.4-.289-.986-.2-1.625-.536a2.39,2.39,0,0,1-1.2-1.324,1.351,1.351,0,0,1-.063-.87,3.337,3.337,0,0,1,.259-.789,1.514,1.514,0,0,0,.088-.254c.265,1.516,5.639,4.286,6.613,4.309.939.017,1.14-.7.64-1.324a11.109,11.109,0,0,1,1.094.835C71.654,172.721,72.323,173.36,71.891,173.809Z" transform="translate(-55.458 -122.395)" fill="#ff4a59"/>
        </g>
        <path id="Trazado_170456" data-name="Trazado 170456" d="M83.377,126s-10.656,7.953-13.585,6.207c-1.311-.782-3.122-15.566-3.122-15.566a.806.806,0,0,1,.638-.958l3.355-.633c.446-.086.713-.96.713-.96.306,1.816,1.629,10.744,1.935,12.839.046.326,8.987-3.413,8.987-3.413C81.731,124.031,82.619,126.044,83.377,126Z" transform="translate(-43.506 -94.264)" fill="#4948e7"/>
        <path id="Trazado_170457" data-name="Trazado 170457" d="M76.1,140.392v.551c-.047,1.546-.114,3.5-.2,5.612-.309,7.787-.772,17.753-.772,17.753-.82,4.173-14.993,4.227-15.637,1.633l-.726-13.824c-1.842-6.2-1.513-9.373.174-13.211.128-.295.263-.591.411-.893,0,0,.127-.229.315-.572a7.964,7.964,0,0,0,1-3.333c.014-.154.02-.3.02-.457,0-.081,0-.161-.006-.247a7.622,7.622,0,0,0-.295-2,6.31,6.31,0,0,0-.25-.758l-1.035-2.634-.988-3.395-1.081-3.682c0-3.32,1.681-4.751,4.469-6.45.282-.175.585-.357.9-.538l4.315-2.493c.214-.108,1.84.786,2.049.7a5.853,5.853,0,0,1,1.553-.423,4.6,4.6,0,0,1,5.409,4.919l-.168,1.411a6.391,6.391,0,0,0,.249,2.762,5.624,5.624,0,0,1,.214.9,5.922,5.922,0,0,1-1.484,4.913l-.417,3.481-.148,1.31a4.821,4.821,0,0,0-.02.933,5.316,5.316,0,0,0,.053.552,5.906,5.906,0,0,0,.155.671,5.1,5.1,0,0,0,.417,1.015A12.41,12.41,0,0,1,76.1,140.392Z" transform="translate(-47.717 -95.426)" fill="#5278ff"/>
        <path id="Trazado_170458" data-name="Trazado 170458" d="M73.059,127.04a19.455,19.455,0,0,1-7.54,1.344h-.181a17.4,17.4,0,0,1-5.773-.814c.014-.154.02-.3.02-.457,0-.081,0-.161-.006-.247a15.807,15.807,0,0,0,5.934.845,17.888,17.888,0,0,0,7.391-1.343A5.911,5.911,0,0,0,73.059,127.04Z" transform="translate(-46.61 -88.889)" fill="#292d4c"/>
        <path id="Trazado_170459" data-name="Trazado 170459" d="M73.068,132.174l-1.011,2.315a2.25,2.25,0,0,0-1.49-.664,58.071,58.071,0,0,1-10.459-1.435,1.643,1.643,0,0,1-1.011-2.407c.634-1.1,1.392-2.278,1.648-2.194,2.17.712,8.516,2.8,12.15,3.987Z" transform="translate(-46.911 -88.269)" fill="#4948e7"/>
        <path id="Trazado_170460" data-name="Trazado 170460" d="M63.249,107.353a4.193,4.193,0,0,1-3.848-.37,3.249,3.249,0,0,1-1.251-1.554,3.862,3.862,0,0,1,2.521-4.827,3.977,3.977,0,0,1,4.82,1.356,2.989,2.989,0,0,1,.285.562A3.872,3.872,0,0,1,63.249,107.353Z" transform="translate(-47.323 -100.302)" fill="#292d4c"/>
        <g id="Grupo_117925" data-name="Grupo 117925" transform="translate(12.663 24.948)">
          <path id="Trazado_170461" data-name="Trazado 170461" d="M63.138,132.841c0-.851.088-4.6.059-5.8-.075-3.481-1.97-6.8-1.6-9.392L59.362,131.6C59.762,132.27,61.264,132.694,63.138,132.841Z" transform="translate(-59.362 -117.653)" fill="#4948e7"/>
          <path id="Trazado_170462" data-name="Trazado 170462" d="M59.362,125.251l.011.1.039.3.037-.194A.75.75,0,0,1,59.362,125.251Z" transform="translate(-59.362 -114.326)" fill="#292d4c"/>
        </g>
        <path id="Trazado_170463" data-name="Trazado 170463" d="M68.175,113.783a1.721,1.721,0,0,1,.134.434,2.868,2.868,0,0,1-4.242,2.949,12.851,12.851,0,0,1-2.641-1.825,1.286,1.286,0,0,1,.3-2.006l3.135-1.813,1.055-.138A3.786,3.786,0,0,1,68.175,113.783Z" transform="translate(-45.951 -95.45)" fill="#fcbac0"/>
        <g id="Grupo_117926" data-name="Grupo 117926" transform="translate(13.986 3.207)">
          <path id="Trazado_170464" data-name="Trazado 170464" d="M66.653,107.674v7.743c0,.361-.334.71-.946.933a4.228,4.228,0,0,1-3.342-.223.884.884,0,0,1-.474-.71l-.013-7.743Z" transform="translate(-59.583 -100.282)" fill="#fcbac0"/>
          <path id="Trazado_170465" data-name="Trazado 170465" d="M66.654,107.907v5.353a1.3,1.3,0,0,1-1.825,1.191,7.564,7.564,0,0,1-2.508-1.994,1.889,1.889,0,0,1-.446-1.212v-3.337Z" transform="translate(-59.584 -100.18)" fill="#ed8b8b"/>
          <path id="Trazado_170466" data-name="Trazado 170466" d="M70.488,112.52c-.923,3.862-3.523,4.14-5.911,2.881a8.8,8.8,0,0,1-4.291-6.975c-.119-3.553,2.2-5.79,5.142-5.89C72.14,102.31,70.809,111.183,70.488,112.52Z" transform="translate(-60.282 -102.533)" fill="#fcbac0"/>
        </g>
        <path id="Trazado_170467" data-name="Trazado 170467" d="M60.641,102.586c1.963-1.646,5.219-1.5,7.733-1.044a4.065,4.065,0,0,1,3.3,4.41c-.091.906-.206,1.859-.351,2.69a12.462,12.462,0,0,0-.526-2.421,2.659,2.659,0,0,1-1.245.479c-2.147.365-5.425-1.3-5.728,1.777a2.344,2.344,0,0,1-1.057,1.784l-.1.063c-.367-.477-1.681-1.054-1.792-.717-.293.889,2.1,4.581,2.1,4.581C58.252,114.188,58.043,104.764,60.641,102.586Z" transform="translate(-46.866 -99.893)" fill="#343b65"/>
        <path id="Trazado_170468" data-name="Trazado 170468" d="M62.267,107.847c.615.82.683,1.81.151,2.21s-1.465.06-2.082-.761-.684-1.81-.151-2.211S61.65,107.026,62.267,107.847Z" transform="translate(-46.496 -97.406)" fill="#fcbac0"/>
      </g>
      <g id="Grupo_117929" data-name="Grupo 117929" transform="translate(0 93.326)">
        <path id="Trazado_170469" data-name="Trazado 170469" d="M53.526,178.443a2.8,2.8,0,0,1-1.4-.38l-9.849-5.687a4.938,4.938,0,0,1-2.462-4.265V145.9h1.376v22.214a3.56,3.56,0,0,0,1.773,3.074l9.849,5.685a1.431,1.431,0,0,0,2.147-1.238V157.207h1.375v18.426a2.778,2.778,0,0,1-1.4,2.43A2.809,2.809,0,0,1,53.526,178.443Z" transform="translate(-31.248 -110.174)" fill="#292d4c"/>
        <path id="Trazado_170470" data-name="Trazado 170470" d="M67.351,170.213a2.8,2.8,0,0,1-1.4-.381L56.1,164.147a4.939,4.939,0,0,1-2.463-4.266V141.413h1.376v18.468a3.558,3.558,0,0,0,1.774,3.074l9.849,5.687a1.431,1.431,0,0,0,2.145-1.239V151.8h1.376v15.6a2.819,2.819,0,0,1-2.807,2.811Z" transform="translate(-25.195 -112.138)" fill="#5d5d75"/>
        <g id="Grupo_117928" data-name="Grupo 117928">
          <path id="Trazado_170471" data-name="Trazado 170471" d="M80.149,153.2l-10.994-4.437a18.213,18.213,0,0,1-6.877-7.038l-9.461-17.313a3.1,3.1,0,0,0-4.522-1.815l-12.268,5.8c-1.635.945-2.728,2.838-1.872,5.924l4.416,19.339a18.209,18.209,0,0,0,7.185,10.777l9.234,6.581a7.212,7.212,0,0,0,7.194.012L80.141,160.8A4.494,4.494,0,0,0,80.149,153.2Z" transform="translate(-33.856 -120.562)" fill="#292d4c"/>
          <path id="Trazado_170472" data-name="Trazado 170472" d="M79.948,153.687l-10.478-6.051a18.2,18.2,0,0,1-6.876-7.038l-9.463-17.313a3.1,3.1,0,0,0-4.522-1.815L36.38,128.5A4.128,4.128,0,0,0,34.47,133.2l4.416,19.339a18.21,18.21,0,0,0,7.185,10.777L55.3,169.9a7.213,7.213,0,0,0,7.194.011l17.441-9.97A3.605,3.605,0,0,0,79.948,153.687Z" transform="translate(-33.655 -121.053)" fill="#3f4a7a"/>
        </g>
      </g>
      <g id="Grupo_117932" data-name="Grupo 117932" transform="translate(83.159)">
        <g id="Grupo_117930" data-name="Grupo 117930" transform="translate(0 117.497)">
          <path id="Trazado_170473" data-name="Trazado 170473" d="M147.686,152.421l-18.533-9.655a4,4,0,0,0-3.986-.013L97.756,157.894l-.2-2.742-5.866,1.973v1.964a2.537,2.537,0,0,0,1.04,2.219l22.1,12.192a3.993,3.993,0,0,0,3.981-.012l32-18.845a2.435,2.435,0,0,0,1.172-2.214l.006-1.891Z" transform="translate(-91.691 -135.952)" fill="#7e87c5"/>
          <path id="Trazado_170474" data-name="Trazado 170474" d="M150.985,154.1l-29.627,17.453-2.485,1.464a4.017,4.017,0,0,1-3.994.012L92.7,160.784a2,2,0,0,1,0-3.474l6.318-3.6,22.793-13.343,3.438-1.968a4,4,0,0,1,4,.012l6.337,3.563,15.4,8.666A2,2,0,0,1,150.985,154.1Z" transform="translate(-91.69 -137.863)" fill="#c5cef6"/>
        </g>
        <g id="Grupo_117931" data-name="Grupo 117931" transform="translate(17.934)">
          <path id="Trazado_170475" data-name="Trazado 170475" d="M126.5,56.147l1.762,1-22.335,12.9V197.449l-1.762-1V69.044Z" transform="translate(-104.164 -56.147)" fill="#5c69aa"/>
          <path id="Trazado_170476" data-name="Trazado 170476" d="M127.724,56.839V184.249l-22.335,12.9V69.736Z" transform="translate(-103.627 -55.843)" fill="#a0ace2"/>
          <path id="Trazado_170477" data-name="Trazado 170477" d="M123.552,83.221V109.4l-15.938,9.2V92.424Z" transform="translate(-102.653 -44.292)" fill="#eaecff"/>
          <path id="Trazado_170478" data-name="Trazado 170478" d="M123.552,62.057V88.235l-15.938,9.2V71.26Z" transform="translate(-102.653 -53.559)" fill="#eaecff"/>
          <path id="Trazado_170479" data-name="Trazado 170479" d="M123.552,104.384v26.178l-15.938,9.2V113.588Z" transform="translate(-102.653 -35.025)" fill="#eaecff"/>
          <path id="Trazado_170480" data-name="Trazado 170480" d="M123.552,125.548v26.178l-15.938,9.2V134.751Z" transform="translate(-102.653 -25.758)" fill="#eaecff"/>
        </g>
      </g>
      <g id="Grupo_117940" data-name="Grupo 117940" transform="translate(22.572 17.636)">
        <path id="Trazado_170481" data-name="Trazado 170481" d="M70.435,182.274v11.348c0,.538.781.975,1.746.975s1.744-.437,1.744-.975V182.274Z" transform="translate(-40.411 -18.556)" fill="#5c69aa"/>
        <path id="Trazado_170482" data-name="Trazado 170482" d="M54.184,172.921v11.56c0,.539.781.975,1.744.975s1.746-.436,1.746-.975v-11.56Z" transform="translate(-47.527 -22.651)" fill="#5c69aa"/>
        <path id="Trazado_170483" data-name="Trazado 170483" d="M93.787,166.271v14.566c0,.539.782.975,1.746.975s1.746-.436,1.746-.975V166.271Z" transform="translate(-30.186 -25.563)" fill="#5c69aa"/>
        <g id="Grupo_117939" data-name="Grupo 117939">
          <g id="Grupo_117937" data-name="Grupo 117937" transform="translate(5.19 16.397)">
            <g id="Grupo_117933" data-name="Grupo 117933" transform="translate(1.463 65.355)">
              <path id="Trazado_170484" data-name="Trazado 170484" d="M114.615,139.938v50.02a2.458,2.458,0,0,1-1.176,2.217L81.372,211.068a4,4,0,0,1-3.994,0L55.222,198.859a2.586,2.586,0,0,1-1.038-2.226V145.719l4.874-1.654.216,2.89,28.8-15.917a4.245,4.245,0,0,1,4.2.014L111.74,141.2Z" transform="translate(-54.181 -122.983)" fill="#a0ace2"/>
              <path id="Trazado_170485" data-name="Trazado 170485" d="M114.615,140.5v3.839L81.4,163.906a4.183,4.183,0,0,1-4.184,0L54.182,151.2v-4.917l4.874-1.654.216,2.89,28.8-15.917a4.245,4.245,0,0,1,4.2.014l19.469,10.151Z" transform="translate(-54.181 -122.738)" fill="#7e87c5"/>
              <path id="Trazado_170486" data-name="Trazado 170486" d="M114.616,160.521a2.44,2.44,0,0,1-1.173,2.22L81.372,181.632a4,4,0,0,1-3.992.01l-22.155-12.22a2.538,2.538,0,0,1-1.038-2.224l0,16.287a2.542,2.542,0,0,0,1.038,2.226l22.156,12.213a4.01,4.01,0,0,0,3.994,0l32.069-18.892a2.441,2.441,0,0,0,1.176-2.217Z" transform="translate(-54.181 -109.833)" fill="#ff4a59"/>
              <path id="Trazado_170487" data-name="Trazado 170487" d="M113.616,141.541l-29.7,17.493-2.49,1.468a4.029,4.029,0,0,1-4,.012L55.193,148.243a2,2,0,0,1,0-3.481l6.335-3.613,22.848-13.376,3.447-1.973a4.012,4.012,0,0,1,4.01.013l6.352,3.57,15.431,8.688A2,2,0,0,1,113.616,141.541Z" transform="translate(-54.181 -125.269)" fill="#c5cef6"/>
            </g>
            <g id="Grupo_117935" data-name="Grupo 117935" transform="translate(0 63.786)">
              <path id="Trazado_170488" data-name="Trazado 170488" d="M112.009,139.477,92.533,129.33a4.2,4.2,0,0,0-4.188-.013L59.537,145.229l-.207-2.883-6.166,2.075v2.063a2.662,2.662,0,0,0,1.091,2.332l23.227,12.811a4.2,4.2,0,0,0,4.184-.01l33.624-19.807a2.557,2.557,0,0,0,1.231-2.326l.007-1.987Z" transform="translate(-53.164 -122.17)" fill="#a0ace2"/>
              <path id="Trazado_170489" data-name="Trazado 170489" d="M115.478,141.238l-31.137,18.34-2.611,1.538a4.224,4.224,0,0,1-4.2.013l-23.3-12.865a2.1,2.1,0,0,1,0-3.651l6.64-3.787L84.82,126.8l3.613-2.069a4.209,4.209,0,0,1,4.206.013l6.66,3.744,16.179,9.107A2.1,2.1,0,0,1,115.478,141.238Z" transform="translate(-53.164 -124.178)" fill="#c5cef6"/>
              <g id="Grupo_117934" data-name="Grupo 117934" transform="translate(0.959 0.958)">
                <path id="Trazado_170490" data-name="Trazado 170490" d="M85.013,129.373l3.606-2.063a3.242,3.242,0,0,1,3.247.009l6.672,3.751,16.121,9.076a1.158,1.158,0,0,0,.621-1.018,1.119,1.119,0,0,0-.564-.985l-16.179-9.107-6.672-3.751a3.245,3.245,0,0,0-3.248-.009l-3.6,2.063L61.049,141.367l-6.641,3.789a1.144,1.144,0,0,0-.012,1.98c.058.032,6.653-3.733,6.653-3.733Z" transform="translate(-53.831 -124.844)" fill="#a0ace2"/>
                <path id="Trazado_170491" data-name="Trazado 170491" d="M114.469,139.526,80.761,159.379a3.244,3.244,0,0,1-1.623.436,3.292,3.292,0,0,1-1.615-.426l-10.5-5.8-1.231-.68-11.529-6.365,6.6-3.764,4.933-2.889,1.231-.719,17.8-10.422,3.606-2.063a3.3,3.3,0,0,1,1.618-.431,3.246,3.246,0,0,1,1.629.44l6.672,3.751Z" transform="translate(-53.641 -124.224)" fill="#eaecff"/>
              </g>
            </g>
            <g id="Grupo_117936" data-name="Grupo 117936" transform="translate(1.581)">
              <path id="Trazado_170492" data-name="Trazado 170492" d="M78.768,79.816V147.1c0,.19.276.344.615.344s.617-.154.617-.344V79.816Z" transform="translate(-43.534 -79.816)" fill="#5c69aa"/>
              <path id="Trazado_170493" data-name="Trazado 170493" d="M55.5,95.707v64.9l-1.231-.682V95.707Z" transform="translate(-54.264 -72.858)" fill="#5c69aa"/>
            </g>
          </g>
          <g id="Grupo_117938" data-name="Grupo 117938">
            <path id="Trazado_170494" data-name="Trazado 170494" d="M49.554,96.236,97.745,68.412l.98.576L50.534,120.567l-.98-.576Z" transform="translate(-49.554 -68.412)" fill="#5c69aa"/>
            <path id="Trazado_170495" data-name="Trazado 170495" d="M50.236,96.637,98.427,68.813V92.569L50.236,120.391Z" transform="translate(-49.256 -68.237)" fill="#a0ace2"/>
            <path id="Trazado_170496" data-name="Trazado 170496" d="M54.321,95.678,91.963,73.945V88.456L54.321,110.188Z" transform="translate(-47.467 -65.989)" fill="#eaecff"/>
          </g>
        </g>
      </g>
      <g id="Grupo_117962" data-name="Grupo 117962" transform="translate(42.093 103.764)">
        <g id="Grupo_117947" data-name="Grupo 117947" transform="translate(0 10.056)">
          <g id="Grupo_117942" data-name="Grupo 117942">
            <path id="Trazado_170497" data-name="Trazado 170497" d="M63.131,136.333l.756,5.25c0,.581.845,1.054,1.888,1.054s1.886-.473,1.886-1.054l.756-5.25Z" transform="translate(-63.131 -134.856)" fill="#b8c7ff"/>
            <g id="Grupo_117941" data-name="Grupo 117941">
              <path id="Trazado_170498" data-name="Trazado 170498" d="M68.011,137.568a1.065,1.065,0,0,0,.407-.785c0-.815-1.183-1.477-2.643-1.477s-2.644.661-2.644,1.477a1.065,1.065,0,0,0,.407.785,3.962,3.962,0,0,1,4.473,0Z" transform="translate(-63.131 -135.306)" fill="#a0ace2"/>
              <path id="Trazado_170499" data-name="Trazado 170499" d="M67.887,137.09a3.962,3.962,0,0,0-4.473,0,3.962,3.962,0,0,0,4.473,0Z" transform="translate(-63.007 -134.828)" fill="#ea1d3d"/>
            </g>
          </g>
          <g id="Grupo_117944" data-name="Grupo 117944" transform="translate(6.194 3.488)">
            <path id="Trazado_170500" data-name="Trazado 170500" d="M67.439,138.758l.758,5.248c0,.582.844,1.055,1.886,1.055s1.886-.473,1.886-1.055l.756-5.248Z" transform="translate(-67.439 -137.283)" fill="#b8c7ff"/>
            <g id="Grupo_117943" data-name="Grupo 117943">
              <path id="Trazado_170501" data-name="Trazado 170501" d="M72.321,139.992a1.063,1.063,0,0,0,.405-.785c0-.815-1.183-1.475-2.643-1.475s-2.644.66-2.644,1.475a1.065,1.065,0,0,0,.407.785,3.965,3.965,0,0,1,4.475,0Z" transform="translate(-67.439 -137.732)" fill="#a0ace2"/>
              <path id="Trazado_170502" data-name="Trazado 170502" d="M72.2,139.515a3.965,3.965,0,0,0-4.475,0,3.965,3.965,0,0,0,4.475,0Z" transform="translate(-67.315 -137.254)" fill="#ea1d3d"/>
            </g>
          </g>
          <g id="Grupo_117946" data-name="Grupo 117946" transform="translate(12.39 6.975)">
            <path id="Trazado_170503" data-name="Trazado 170503" d="M71.748,141.184l.756,5.247c0,.582.845,1.055,1.886,1.055s1.888-.473,1.888-1.055l.756-5.247Z" transform="translate(-71.748 -139.707)" fill="#b8c7ff"/>
            <g id="Grupo_117945" data-name="Grupo 117945">
              <path id="Trazado_170504" data-name="Trazado 170504" d="M76.628,142.417a1.064,1.064,0,0,0,.407-.784c0-.817-1.183-1.477-2.644-1.477s-2.643.66-2.643,1.477a1.059,1.059,0,0,0,.407.784,3.962,3.962,0,0,1,4.473,0Z" transform="translate(-71.748 -140.157)" fill="#a0ace2"/>
              <path id="Trazado_170505" data-name="Trazado 170505" d="M76.5,141.94a3.962,3.962,0,0,0-4.473,0,3.956,3.956,0,0,0,4.473,0Z" transform="translate(-71.624 -139.679)" fill="#ea1d3d"/>
            </g>
          </g>
        </g>
        <g id="Grupo_117954" data-name="Grupo 117954" transform="translate(8.607 5.03)">
          <g id="Grupo_117949" data-name="Grupo 117949">
            <path id="Trazado_170506" data-name="Trazado 170506" d="M69.117,132.837l.758,5.247c0,.582.844,1.055,1.886,1.055s1.886-.473,1.886-1.055l.756-5.247Z" transform="translate(-69.117 -131.36)" fill="#b8c7ff"/>
            <g id="Grupo_117948" data-name="Grupo 117948">
              <path id="Trazado_170507" data-name="Trazado 170507" d="M74,134.07a1.062,1.062,0,0,0,.405-.784c0-.817-1.183-1.477-2.643-1.477s-2.644.66-2.644,1.477a1.064,1.064,0,0,0,.407.784,3.965,3.965,0,0,1,4.475,0Z" transform="translate(-69.117 -131.81)" fill="#a0ace2"/>
              <path id="Trazado_170508" data-name="Trazado 170508" d="M73.875,133.593a3.965,3.965,0,0,0-4.475,0,3.958,3.958,0,0,0,4.475,0Z" transform="translate(-68.993 -131.332)" fill="#ea1d3d"/>
            </g>
          </g>
          <g id="Grupo_117951" data-name="Grupo 117951" transform="translate(6.196 3.485)">
            <path id="Trazado_170509" data-name="Trazado 170509" d="M73.426,135.261l.756,5.25c0,.581.844,1.054,1.886,1.054s1.888-.473,1.888-1.054l.756-5.25Z" transform="translate(-73.426 -133.784)" fill="#b8c7ff"/>
            <g id="Grupo_117950" data-name="Grupo 117950">
              <path id="Trazado_170510" data-name="Trazado 170510" d="M78.306,136.5a1.065,1.065,0,0,0,.407-.785c0-.815-1.183-1.477-2.644-1.477s-2.643.661-2.643,1.477a1.06,1.06,0,0,0,.407.785,3.962,3.962,0,0,1,4.473,0Z" transform="translate(-73.426 -134.234)" fill="#a0ace2"/>
              <path id="Trazado_170511" data-name="Trazado 170511" d="M78.182,136.018a3.962,3.962,0,0,0-4.473,0,3.962,3.962,0,0,0,4.473,0Z" transform="translate(-73.302 -133.756)" fill="#ea1d3d"/>
            </g>
          </g>
          <g id="Grupo_117953" data-name="Grupo 117953" transform="translate(12.39 6.972)">
            <path id="Trazado_170512" data-name="Trazado 170512" d="M77.734,137.686l.756,5.25c0,.581.845,1.053,1.888,1.053s1.886-.472,1.886-1.053l.756-5.25Z" transform="translate(-77.734 -136.209)" fill="#b8c7ff"/>
            <g id="Grupo_117952" data-name="Grupo 117952">
              <path id="Trazado_170513" data-name="Trazado 170513" d="M82.614,138.921a1.06,1.06,0,0,0,.407-.785c0-.815-1.183-1.477-2.643-1.477s-2.644.661-2.644,1.477a1.065,1.065,0,0,0,.407.785,3.962,3.962,0,0,1,4.473,0Z" transform="translate(-77.734 -136.659)" fill="#a0ace2"/>
              <path id="Trazado_170514" data-name="Trazado 170514" d="M82.49,138.443a3.962,3.962,0,0,0-4.473,0,3.962,3.962,0,0,0,4.473,0Z" transform="translate(-77.61 -136.181)" fill="#ea1d3d"/>
            </g>
          </g>
        </g>
        <g id="Grupo_117961" data-name="Grupo 117961" transform="translate(17.216)">
          <g id="Grupo_117956" data-name="Grupo 117956">
            <path id="Trazado_170515" data-name="Trazado 170515" d="M75.1,129.339l.756,5.248c0,.582.844,1.054,1.886,1.054s1.888-.472,1.888-1.054l.756-5.248Z" transform="translate(-75.104 -127.862)" fill="#b8c7ff"/>
            <g id="Grupo_117955" data-name="Grupo 117955">
              <path id="Trazado_170516" data-name="Trazado 170516" d="M79.984,130.574a1.065,1.065,0,0,0,.407-.785c0-.815-1.183-1.477-2.644-1.477s-2.643.661-2.643,1.477a1.06,1.06,0,0,0,.407.785,3.962,3.962,0,0,1,4.473,0Z" transform="translate(-75.104 -128.312)" fill="#a0ace2"/>
              <path id="Trazado_170517" data-name="Trazado 170517" d="M79.86,130.1a3.962,3.962,0,0,0-4.473,0,3.962,3.962,0,0,0,4.473,0Z" transform="translate(-74.98 -127.834)" fill="#ea1d3d"/>
            </g>
          </g>
          <g id="Grupo_117958" data-name="Grupo 117958" transform="translate(6.194 3.487)">
            <path id="Trazado_170518" data-name="Trazado 170518" d="M79.412,131.764l.756,5.248c0,.582.845,1.055,1.888,1.055s1.886-.473,1.886-1.055l.756-5.248Z" transform="translate(-79.412 -130.287)" fill="#b8c7ff"/>
            <g id="Grupo_117957" data-name="Grupo 117957">
              <path id="Trazado_170519" data-name="Trazado 170519" d="M84.292,133a1.06,1.06,0,0,0,.407-.785c0-.815-1.183-1.477-2.643-1.477s-2.644.661-2.644,1.477a1.065,1.065,0,0,0,.407.785,3.956,3.956,0,0,1,4.473,0Z" transform="translate(-79.412 -130.737)" fill="#a0ace2"/>
              <path id="Trazado_170520" data-name="Trazado 170520" d="M84.168,132.521a3.956,3.956,0,0,0-4.473,0,3.962,3.962,0,0,0,4.473,0Z" transform="translate(-79.288 -130.259)" fill="#ea1d3d"/>
            </g>
          </g>
          <g id="Grupo_117960" data-name="Grupo 117960" transform="translate(12.39 6.974)">
            <path id="Trazado_170521" data-name="Trazado 170521" d="M83.721,134.189l.756,5.248c0,.582.844,1.055,1.886,1.055s1.886-.473,1.886-1.055l.758-5.248Z" transform="translate(-83.721 -132.712)" fill="#b8c7ff"/>
            <g id="Grupo_117959" data-name="Grupo 117959">
              <path id="Trazado_170522" data-name="Trazado 170522" d="M88.6,135.424a1.065,1.065,0,0,0,.407-.785c0-.815-1.185-1.477-2.644-1.477s-2.643.661-2.643,1.477a1.063,1.063,0,0,0,.405.785,3.958,3.958,0,0,1,4.475,0Z" transform="translate(-83.721 -133.162)" fill="#a0ace2"/>
              <path id="Trazado_170523" data-name="Trazado 170523" d="M88.478,134.946a3.958,3.958,0,0,0-4.475,0,3.965,3.965,0,0,0,4.475,0Z" transform="translate(-83.598 -132.684)" fill="#ea1d3d"/>
            </g>
          </g>
        </g>
      </g>
      <g id="Grupo_117966" data-name="Grupo 117966" transform="translate(64.649 87.062)">
        <path id="Trazado_170524" data-name="Trazado 170524" d="M117.692,198.257a28.922,28.922,0,0,1-10.86,1.974c-6.04,0-11.721-1.6-15.194-4.288-1.5-1.162-3.232-3.021-2.927-5.273.313-2.324,2.772-4.641,6.575-6.2a28.923,28.923,0,0,1,10.86-1.973c6.04,0,11.72,1.6,15.194,4.288,1.5,1.162,3.232,3.019,2.927,5.271C123.953,194.38,121.5,196.7,117.692,198.257Z" transform="translate(-74.502 -87.884)" fill="#eaecff" style="mix-blend-mode: multiply;isolation: isolate"/>
        <g id="Grupo_117965" data-name="Grupo 117965">
          <path id="Trazado_170525" data-name="Trazado 170525" d="M106.81,156.815l.029-.912a.422.422,0,0,1-.273.033.46.46,0,0,1-.368-.548l.784-3.97c-.03-.162.21-2.43.15-2.58l2.991-.381c.746,1.143.946,3.923.861,5.95-.022.677-.283,2.7-.283,2.7C110.488,158.736,106.852,158.386,106.81,156.815Z" transform="translate(-66.835 -102.789)" fill="#fcbac0"/>
          <path id="Trazado_170526" data-name="Trazado 170526" d="M89.5,144.823,87.845,147.5c-.969-.67-1.562-1.11-1.562-1.11a24.368,24.368,0,0,1-2.693-.72l-4.114-1.544a.441.441,0,0,1-.273-.555.488.488,0,0,1,.229-.293,1.5,1.5,0,0,1-.6-1.244c.275-1.378,4.93.211,4.93.211s-.771-.766-1.045-1a.8.8,0,0,1-.249-.912c.242-.434.867-.186,1.065.026l2.079,1.446a3.144,3.144,0,0,1,.733.715l.4.542a4.106,4.106,0,0,0,1.741,1.34S88.871,144.567,89.5,144.823Z" transform="translate(-78.818 -106.451)" fill="#fcbac0"/>
          <g id="Grupo_117964" data-name="Grupo 117964" transform="translate(7.842)">
            <path id="Trazado_170527" data-name="Trazado 170527" d="M101.064,184.1a3.324,3.324,0,0,0,1.567,2.427c.223.165.522.368.841.571a21.842,21.842,0,0,1,2.857,2.319,2.367,2.367,0,0,0,1.547.716c.958.049,1.8-.257,1.684-1.7-.01-.1-.02-.27-.039-.444l-.029-.233c-.02-.106-.079-2.781-.089-2.838-.116.483-.788-1.4-1.2-1.423-.63-.029-.541,1.471-.966,1.074-.765-.725-1.582-.394-3.678-1.465l-.4-.065c-1.628-.191-1.876.348-2.04.841C101.094,183.953,101.074,184.03,101.064,184.1Z" transform="translate(-76.919 -87.667)" fill="#292d4c"/>
            <path id="Trazado_170528" data-name="Trazado 170528" d="M92.821,188.633s1.475-.142,1.968-.161c1.162-.043,3.7-.769,4.49-.221.9.623,2.9,1.146,2.932-.538l1.145.37c.022.358.124,2.44.131,2.572a2.963,2.963,0,0,1-.42,1.77c-.759,1.2-3.117.5-4.466.227l-4.03-.539a3.5,3.5,0,0,1-2.689-2.219A1.148,1.148,0,0,1,92.821,188.633Z" transform="translate(-80.943 -85.6)" fill="#292d4c"/>
            <path id="Trazado_170529" data-name="Trazado 170529" d="M109.8,130.1l.768,3.948,1.977,11.78a9.852,9.852,0,0,1,.1,1.245L112.5,157.5c.014,1.237-4.512,1.72-4.618.574l-.775-10.485a10.7,10.7,0,0,0-.223-1.353c-.256-1.107-3.766-16.131-3.766-16.131Z" transform="translate(-76.02 -110.826)" fill="#343b65"/>
            <path id="Trazado_170530" data-name="Trazado 170530" d="M95.105,141.552v6.033c0,.91,1.533,60.541,1.533,60.541,0,1.494,5.645,1.632,5.626-.3l2.968-41.525,1.5,36.174c-.016,1.817,5.938,1.694,5.835.178l.88-51a11.261,11.261,0,0,0-.242-2.541Z" transform="translate(-79.529 -105.813)" fill="#5c69aa"/>
            <path id="Trazado_170531" data-name="Trazado 170531" d="M102.148,159.443l2.791-1.708L103.5,189.369Z" transform="translate(-76.445 -98.727)" fill="#323858"/>
            <path id="Trazado_170532" data-name="Trazado 170532" d="M115.087,142.68l-.453-9.882a5.326,5.326,0,0,0-5.553-5.481,6.217,6.217,0,0,0-.766.026,6.576,6.576,0,0,0-1.907.49c-.234.093-2.048-.9-2.283-.775l-3.044,1.759-.085.049-1.685.973c-.328.193-.647.377-.953.562-.229.138-.447.276-.663.414-2.874,1.82-5.3,3.963-5.3,7.425l3.241,7.273,0,.083.348,18.564c.25,1.639,4.419,2.322,8.1,2.325,6.8,0,11.266-4.252,11.266-4.894Z" transform="translate(-80.718 -112.163)" fill="#343b65"/>
            <path id="Trazado_170533" data-name="Trazado 170533" d="M95.945,136.213s-1.13,11.01-1.406,12.432c-.045.233-8.9-1.493-8.9-1.493A3.709,3.709,0,0,0,84.6,151.5s11.963,4.62,14.077,3.073a3.381,3.381,0,0,0,.776-1.3,11.714,11.714,0,0,0,.854-4.375l.145-17.22C99.295,132.424,96.156,134.6,95.945,136.213Z" transform="translate(-84.272 -110.136)" fill="#343b65"/>
            <g id="Grupo_117963" data-name="Grupo 117963" transform="translate(15.39)">
              <path id="Trazado_170534" data-name="Trazado 170534" d="M95.7,127.932c.966,4.04,3.687,4.332,6.186,3.015a9.207,9.207,0,0,0,4.488-7.3c.127-3.718-2.3-6.058-5.379-6.161C93.968,117.25,95.362,126.533,95.7,127.932Z" transform="translate(-94.808 -116.352)" fill="#fcbac0"/>
              <path id="Trazado_170535" data-name="Trazado 170535" d="M103.39,123.19v8.1c0,.38-.349.743-.991.976a4.417,4.417,0,0,1-3.5-.233.922.922,0,0,1-.5-.743c-.014,0-.014-8.1-.014-8.1Z" transform="translate(-93.48 -113.853)" fill="#fcbac0"/>
              <path id="Trazado_170536" data-name="Trazado 170536" d="M106.261,127.241c-.926,3.868-4.177,4.331-6.931,1.622-2.15-2.114-3.064-3.9-3.143-6.236-.121-3.56,2.2-6.1,5.15-5.9C110.885,117.377,106.582,125.9,106.261,127.241Z" transform="translate(-94.447 -116.687)" fill="#423a57"/>
              <path id="Trazado_170537" data-name="Trazado 170537" d="M101.55,123a4.2,4.2,0,0,1-3.411,1.835c-.673,0-.854-1.212-1.428-1.622-1.632-1.15-2.372-2.559-1.068-4.4,1.173-1.648,4.831-2.288,6.223-2.073.206.032-1.074.7-.9.828A3.882,3.882,0,0,1,101.55,123Z" transform="translate(-94.976 -116.696)" fill="#423a57"/>
              <path id="Trazado_170538" data-name="Trazado 170538" d="M97.13,124.4c-.646.86-.716,1.9-.158,2.314s1.533.063,2.178-.8.716-1.894.158-2.314S97.775,123.547,97.13,124.4Z" transform="translate(-94.267 -113.746)" fill="#fcbac0"/>
            </g>
            <path id="Trazado_170539" data-name="Trazado 170539" d="M96.639,130.376A3.755,3.755,0,0,1,98,128.8c.788-.358,6.785.3,6.722-.625-.009-.135-.567-.4-.567-.4v-.8a6.87,6.87,0,0,1,1.225.6,1.722,1.722,0,0,1,.185,2.479C103.256,132.471,96.639,130.376,96.639,130.376Z" transform="translate(-78.857 -112.195)" fill="#292d4c"/>
          </g>
        </g>
      </g>
      <g id="Grupo_117967" data-name="Grupo 117967" transform="translate(32.732 86.51)">
        <path id="Trazado_170540" data-name="Trazado 170540" d="M71.264,137.986l-.295-.755a.388.388,0,0,1-.213.118.413.413,0,0,1-.5-.319l-.742-3.527a2.376,2.376,0,0,0-1.582-1.025c-.873-.142-2.252-.378-3.809-.72l4.22-2.02c1.7.766.792.358,2.114.948a5.964,5.964,0,0,1,3.373,3.869c.224.565.707,2.311.707,2.311C74.944,138.268,71.842,139.259,71.264,137.986Z" transform="translate(-53.334 -110.434)" fill="#fcbac0"/>
        <path id="Trazado_170541" data-name="Trazado 170541" d="M72.136,135.838l-10.049-4.508a1.093,1.093,0,0,1-.643-1.106c.108-1.139,1.652-13.913,1.652-13.913L57.219,118.8S56,132.008,57.044,133.378c2.592,3.4,13.812,4.919,13.812,4.919C70.163,138.03,71.046,135.48,72.136,135.838Z" transform="translate(-56.621 -116.312)" fill="#5278ff"/>
        <path id="Trazado_170542" data-name="Trazado 170542" d="M86.068,121.012a.392.392,0,0,1-.229.532l-3.71,1.409a22.475,22.475,0,0,1-2.431.647s-.417.316-1.136.805a.639.639,0,0,0,.1-.073c-.748.043-1.639-1.967-1.078-2.485l.114-.045a3.742,3.742,0,0,0,1.567-1.208l.372-.5a2.794,2.794,0,0,1,.661-.633l1.885-1.308c.173-.187.733-.417.948-.029a.741.741,0,0,1-.214.834c-.23.187-.791.733-.92.877.331-.1,4.2-1.352,4.427-.158a1.391,1.391,0,0,1-.546,1.107A.368.368,0,0,1,86.068,121.012Z" transform="translate(-47.517 -115.612)" fill="#fcbac0"/>
      </g>
    </g>
  </g>
</svg>
