<svg id="Grupo_119404" data-name="Grupo 119404" xmlns="http://www.w3.org/2000/svg" width="91.573" height="58.442" viewBox="0 0 91.573 58.442">
  <path id="Trazado_174204" data-name="Trazado 174204" d="M6.207,0h79.16a6.207,6.207,0,0,1,6.207,6.207V35.986A22.457,22.457,0,0,1,69.116,58.442H22.457A22.457,22.457,0,0,1,0,35.985V6.207A6.207,6.207,0,0,1,6.207,0Z" fill="#fff505"/>
  <path id="Trazado_174203" data-name="Trazado 174203" d="M-1.6-11.04q0,5.474-2.458,8.442A8.5,8.5,0,0,1-10.984.371a8.541,8.541,0,0,1-6.977-2.987Q-20.429-5.6-20.429-11.04v-4.936q0-5.474,2.458-8.442a8.517,8.517,0,0,1,6.949-2.969A8.52,8.52,0,0,1-4.063-24.4Q-1.6-21.412-1.6-15.957Zm-6.253-5.733a9.635,9.635,0,0,0-.761-4.351,2.543,2.543,0,0,0-2.412-1.438,2.483,2.483,0,0,0-2.347,1.336,9.077,9.077,0,0,0-.789,4.045v6.9A9.708,9.708,0,0,0-13.4-5.854a2.553,2.553,0,0,0,2.412,1.4A2.518,2.518,0,0,0-8.628-5.817a9.268,9.268,0,0,0,.779-4.277Zm24.6-10.632v4.917h-.278a9.387,9.387,0,0,0-5.761,1.679,7.09,7.09,0,0,0-2.774,4.667,7.312,7.312,0,0,1,5.344-2.078A6.82,6.82,0,0,1,18.87-15.66a10.328,10.328,0,0,1,2.078,6.717,9.457,9.457,0,0,1-1.215,4.731,8.672,8.672,0,0,1-3.4,3.368A9.757,9.757,0,0,1,11.5.371,10.084,10.084,0,0,1,6.364-.937,8.994,8.994,0,0,1,2.839-4.676a12.311,12.311,0,0,1-1.3-5.6v-2.5A15.6,15.6,0,0,1,3.331-20.29a12.981,12.981,0,0,1,5.112-5.223,14.615,14.615,0,0,1,7.366-1.893ZM11.114-13.4a3.588,3.588,0,0,0-2.078.573,3.642,3.642,0,0,0-1.243,1.4v1.866q0,5.1,3.544,5.1a2.878,2.878,0,0,0,2.384-1.275,5.181,5.181,0,0,0,.956-3.2,5.086,5.086,0,0,0-.974-3.224A3.12,3.12,0,0,0,11.114-13.4Z" transform="translate(45.923 39.149)" fill="#12263f"/>
</svg>
