<svg id="Grupo_119409" data-name="Grupo 119409" xmlns="http://www.w3.org/2000/svg" width="91.573" height="58.442" viewBox="0 0 91.573 58.442">
  <path id="Rectángulo_35673" data-name="Rectángulo 35673" d="M6.207,0h79.16a6.207,6.207,0,0,1,6.207,6.207V35.986A22.456,22.456,0,0,1,69.116,58.442H22.457A22.457,22.457,0,0,1,0,35.985V6.207A6.207,6.207,0,0,1,6.207,0Z" fill="#fff505"/>
  <path id="Trazado_174210" data-name="Trazado 174210" d="M-1.6-11.04q0,5.474-2.458,8.442A8.5,8.5,0,0,1-10.984.371a8.541,8.541,0,0,1-6.977-2.987Q-20.429-5.6-20.429-11.04v-4.936q0-5.474,2.458-8.442a8.517,8.517,0,0,1,6.949-2.969A8.52,8.52,0,0,1-4.063-24.4Q-1.6-21.412-1.6-15.957Zm-6.253-5.733a9.635,9.635,0,0,0-.761-4.351,2.543,2.543,0,0,0-2.412-1.438,2.483,2.483,0,0,0-2.347,1.336,9.077,9.077,0,0,0-.789,4.045v6.9A9.708,9.708,0,0,0-13.4-5.854a2.553,2.553,0,0,0,2.412,1.4A2.518,2.518,0,0,0-8.628-5.817a9.268,9.268,0,0,0,.779-4.277ZM2.022-13.2,3.674-27.016h15.79v4.824H8.758l-.612,5.4a7.375,7.375,0,0,1,1.753-.69,8,8,0,0,1,2.125-.3,7.926,7.926,0,0,1,6.188,2.384A9.6,9.6,0,0,1,20.373-8.7,9.587,9.587,0,0,1,19.213-4,7.971,7.971,0,0,1,15.957-.761,10.281,10.281,0,0,1,11,.371,11.062,11.062,0,0,1,6.234-.676,8.555,8.555,0,0,1,2.746-3.55,6.983,6.983,0,0,1,1.5-7.675H7.774a3.547,3.547,0,0,0,.946,2.352,3,3,0,0,0,2.245.87q3.154,0,3.154-4.666,0-4.314-3.859-4.314A3.851,3.851,0,0,0,7-12.026Z" transform="translate(45.923 39.149)" fill="#12263f"/>
</svg>
