<svg xmlns="http://www.w3.org/2000/svg" width="11.031" height="8.695" viewBox="0 0 11.031 8.695">
  <g id="Grupo_78323" data-name="Grupo 78323" transform="translate(5471.332 2748.55)">
    <path id="Trazado_145976" data-name="Trazado 145976" d="M2.088,0A2.088,2.088,0,1,1,0,2.088,2.088,2.088,0,0,1,2.088,0Z" transform="translate(-5464.476 -2744.03)" fill="#a689d9" style="mix-blend-mode: multiply;isolation: isolate"/>
    <path id="Trazado_145977" data-name="Trazado 145977" d="M1.427,0A1.427,1.427,0,1,1,0,1.427,1.427,1.427,0,0,1,1.427,0Z" transform="translate(-5471.332 -2748.55)" fill="#a689d9" style="mix-blend-mode: multiply;isolation: isolate"/>
    <path id="Trazado_145978" data-name="Trazado 145978" d="M3.85,0A3.85,3.85,0,1,1,0,3.85,3.85,3.85,0,0,1,3.85,0Z" transform="translate(-5470.089 -2748.236)" fill="#5c22c3"/>
    <path id="Trazado_145979" data-name="Trazado 145979" d="M.776,0A.776.776,0,1,1,0,.776.776.776,0,0,1,.776,0Z" transform="translate(-5471.332 -2741.636)" fill="#a689d9" style="mix-blend-mode: multiply;isolation: isolate"/>
  </g>
</svg>
