<svg xmlns="http://www.w3.org/2000/svg" width="145.607" height="171.422" viewBox="0 0 145.607 171.422">
  <g id="Grupo_118059" data-name="Grupo 118059" transform="translate(-362.539 -251.303)">
    <path id="Trazado_170594" data-name="Trazado 170594" d="M470.158,371.734l-36.748,21.833H416.43l2.3-5.265-6.1-18.093,10.617-26.469Z" transform="translate(4.872 8.992)" fill="#eaecff" style="mix-blend-mode: multiply;isolation: isolate"/>
    <path id="Trazado_170595" data-name="Trazado 170595" d="M499.5,394.791l-28.7,15.3H453.239l2.309-4.963-4.092-8.386,25.158-15.608Z" transform="translate(8.649 12.63)" fill="#eaecff" style="mix-blend-mode: multiply;isolation: isolate"/>
    <g id="Grupo_118058" data-name="Grupo 118058" transform="translate(362.539 251.302)">
      <g id="Grupo_118035" data-name="Grupo 118035" transform="translate(77.096 34.865)">
        <g id="Grupo_118031" data-name="Grupo 118031" transform="translate(0 103.02)">
          <path id="Trazado_170596" data-name="Trazado 170596" d="M482.124,390.98l-16.324-8.5a3.52,3.52,0,0,0-3.511-.011L438.143,395.8l-.176-2.415-5.167,1.738v1.73a2.232,2.232,0,0,0,.915,1.954l19.468,10.739a3.519,3.519,0,0,0,3.508-.01l28.183-16.6a2.144,2.144,0,0,0,1.033-1.95l.005-1.666Z" transform="translate(-432.8 -376.473)" fill="#7e87c5"/>
          <path id="Trazado_170597" data-name="Trazado 170597" d="M485.031,391.263l-26.1,15.373-2.188,1.29a3.544,3.544,0,0,1-3.52.01L433.69,397.153a1.762,1.762,0,0,1,0-3.06l5.566-3.174,20.078-11.754,3.028-1.734a3.528,3.528,0,0,1,3.526.01l5.582,3.138,13.561,7.635A1.759,1.759,0,0,1,485.031,391.263Z" transform="translate(-432.8 -376.963)" fill="#c5cef6"/>
          <path id="Trazado_170598" data-name="Trazado 170598" d="M463.936,398.084h-3.543l9.568-17.223,11.645,6.556Z" transform="translate(-430.116 -376.584)" fill="#a0ace2"/>
        </g>
        <g id="Grupo_118034" data-name="Grupo 118034" transform="translate(7.486)">
          <path id="Trazado_170599" data-name="Trazado 170599" d="M477.764,378.216,460,349.392,473.712,320.6c.013-.03-17.756-28.829-17.756-28.829l-15.058-8.7-1.276.738,31.4,38.377-13.731,28.82,14.73,23.91-8.975-5.182-.636,37.857,1.919-1.169,13.432-28.192C477.748,378.226,477.764,378.216,477.764,378.216Z" transform="translate(-439.622 -283.076)" fill="#5c69aa"/>
          <g id="Grupo_118033" data-name="Grupo 118033" transform="translate(0 0.739)">
            <path id="Trazado_170600" data-name="Trazado 170600" d="M457.034,310,443.3,338.817l14.714,8.5,13.731-28.821Z" transform="translate(-439.264 -281.196)" fill="#a0ace2"/>
            <path id="Trazado_170601" data-name="Trazado 170601" d="M447.2,337.076l10.89-22.858,9,5.194L456.2,342.27Z" transform="translate(-438.885 -280.785)" fill="#eaecff"/>
            <g id="Grupo_118032" data-name="Grupo 118032" transform="translate(4.039 57.621)">
              <path id="Trazado_170602" data-name="Trazado 170602" d="M460.714,362.548l-13.731,28.821,14.714,8.5,13.731-28.821Z" transform="translate(-442.945 -333.705)" fill="#a0ace2"/>
              <path id="Trazado_170603" data-name="Trazado 170603" d="M450.883,389.628l10.89-22.859,9,5.194-10.89,22.859Z" transform="translate(-442.565 -333.294)" fill="#eaecff"/>
              <path id="Trazado_170604" data-name="Trazado 170604" d="M443.3,336.262l17.769,28.824,14.714,8.5-17.769-28.824Z" transform="translate(-443.303 -336.262)" fill="#7e87c5"/>
            </g>
            <path id="Trazado_170605" data-name="Trazado 170605" d="M439.622,283.749l17.769,28.821,14.714,8.5-17.769-28.821Z" transform="translate(-439.622 -283.749)" fill="#7e87c5"/>
          </g>
        </g>
      </g>
      <g id="Grupo_118057" data-name="Grupo 118057">
        <g id="Grupo_118042" data-name="Grupo 118042" transform="translate(33.043 46.573)">
          <g id="Grupo_118036" data-name="Grupo 118036" transform="translate(0 14.588)">
            <path id="Trazado_170606" data-name="Trazado 170606" d="M392.9,312.858a.318.318,0,0,1,.166-.176,1.075,1.075,0,0,1-.394-.91c.238-.985,3.539.3,3.539.3s-.53-.572-.719-.751a.583.583,0,0,1-.153-.666c.189-.3.629-.105.765.054l1.452,1.1a2.277,2.277,0,0,1,.506.535l.272.4a2.922,2.922,0,0,0,1.207,1.02s7.073,3.377,7.128,3.1c.316-1.658,2.034-8.29,2.342-9.726.073-.352.185.286.538.371l2.289.608a.642.642,0,0,1,.475.785s-2.006,11.619-3.022,12.286c-2.132,1.4-11.4-6.061-11.4-6.061a16.357,16.357,0,0,1-1.91-.6l-2.91-1.24a.318.318,0,0,1-.183-.408Z" transform="translate(-392.652 -307.041)" fill="#fcbac0"/>
            <path id="Trazado_170607" data-name="Trazado 170607" d="M398.267,315.851s8.079,6.613,10.472,5.324c1.07-.576,3.155-12.2,3.155-12.2a.643.643,0,0,0-.475-.786l-2.649-.619a1.963,1.963,0,0,1-.65-.314c-.306,1.435-1.687,7.934-2,9.592-.048.258-6.856-2.969-6.856-2.969A2.307,2.307,0,0,1,398.267,315.851Z" transform="translate(-392.106 -307.02)" fill="#c5cef6"/>
          </g>
          <g id="Grupo_118041" data-name="Grupo 118041" transform="translate(8.016)">
            <g id="Grupo_118040" data-name="Grupo 118040" transform="translate(0 1.752)">
              <path id="Trazado_170608" data-name="Trazado 170608" d="M399.985,368.617c-.24-1.774,1.121-3.239,2.306-4.154,2.737-2.116,7.211-3.379,11.971-3.379a22.8,22.8,0,0,1,8.558,1.556c3,1.228,4.932,3.055,5.18,4.885.24,1.774-1.123,3.239-2.306,4.154-2.737,2.116-7.212,3.377-11.971,3.377a22.8,22.8,0,0,1-8.558-1.555C402.17,372.274,400.233,370.447,399.985,368.617Z" transform="translate(-399.958 -288.948)" fill="#eaecff" style="mix-blend-mode: multiply;isolation: isolate"/>
              <g id="Grupo_118039" data-name="Grupo 118039" transform="translate(6.864)">
                <g id="Grupo_118037" data-name="Grupo 118037" transform="translate(0.247 28.961)">
                  <path id="Trazado_170609" data-name="Trazado 170609" d="M415.989,363.965a2.53,2.53,0,0,1,.015.966c-.424,2.444-.655,6.612.956,6.644s2.17-1.36,2.17-2.64c-.005-2.511-1-3.564-.977-5.332.01-.971.082-2.174.16-3.522l-3.239-.584Z" transform="translate(-405.599 -318.063)" fill="#fec7c4"/>
                  <path id="Trazado_170610" data-name="Trazado 170610" d="M407.275,366.746c.868.914,2.4.667,4.907-1.157.3-.222.756-.151,1.246-.409a1.83,1.83,0,0,0,.923-1.02,1.04,1.04,0,0,0,.047-.668,2.809,2.809,0,0,0-.2-.608.878.878,0,0,1-.067-.193,6.711,6.711,0,0,1-.211-1.565s0-.718-.015-1.9l-3.069-.548c.347,1.539.574,2.624.589,2.872.078,1.225-1.751,2.608-2.883,3.44a8.506,8.506,0,0,0-.827.636C407.455,365.91,406.943,366.4,407.275,366.746Z" transform="translate(-406.368 -318.143)" fill="#fec7c4"/>
                  <path id="Trazado_170611" data-name="Trazado 170611" d="M407.271,322.361a76.628,76.628,0,0,0,.012,22.561c.089.465.17.928.217,1.4.03.292.075.58.133.869.62,3.1,2.45,18.357,2.45,18.357.129.883,4.735.7,4.669-.127,0,0-.831-8.5-1.229-13.915l2.3,16.809c.178.95,4.543.729,4.557,0,0,0-.192-13.941-1.96-20.323a7.033,7.033,0,0,1-.241-1.495l-.015-.267a7.278,7.278,0,0,1,.133-1.858c.6-2.957,2.794-13.681,1.317-22.032l-4.889,1.545S407.6,320.335,407.271,322.361Z" transform="translate(-406.439 -321.737)" fill="#6e78be"/>
                  <path id="Trazado_170612" data-name="Trazado 170612" d="M415.694,366.441s-.128,1.954,1.632,1.954c1.328,0,1.645-.986,1.513-2.157a6.481,6.481,0,0,1,.059,3.319,1.843,1.843,0,0,1-2.062,1.408.95.95,0,0,1-1.026-.8A9.136,9.136,0,0,1,415.694,366.441Z" transform="translate(-405.551 -317.408)" fill="#343b65"/>
                  <path id="Trazado_170613" data-name="Trazado 170613" d="M407.275,366.391c.868.913,2.4.664,4.907-1.157.305-.222.755-.148,1.246-.409a1.848,1.848,0,0,0,.923-1.02,1.028,1.028,0,0,0,.047-.668,2.547,2.547,0,0,0-.2-.608,1.253,1.253,0,0,1-.067-.193c-.2,1.165-4.335,3.294-5.084,3.312-.722.013-.877-.54-.492-1.018a8.654,8.654,0,0,0-.84.642C407.457,365.553,406.942,366.045,407.275,366.391Z" transform="translate(-406.368 -317.787)" fill="#343b65"/>
                </g>
                <path id="Trazado_170614" data-name="Trazado 170614" d="M409.164,302.358c.544.372,1.116.708,1.359.852l2.1,1a1.792,1.792,0,0,0,.155-1.8c-.411-1.452-3.34-5.624-3.34-5.624l-1.085,3.205A2.083,2.083,0,0,0,409.164,302.358Z" transform="translate(-406.015 -295.203)" fill="#ff4a59"/>
                <path id="Trazado_170615" data-name="Trazado 170615" d="M414.247,311.746a1.082,1.082,0,1,1-1.531,0A1.083,1.083,0,0,1,414.247,311.746Z" transform="translate(-405.612 -293.778)" fill="#d1d1de"/>
                <path id="Trazado_170616" data-name="Trazado 170616" d="M419.816,329.335a1.284,1.284,0,0,0,.741-1.426c-.127-.894-.327-2.331-.472-3.631a21.572,21.572,0,0,1-.16-2.48v-4.844l.951-3.239.645-2.2c0-2.551-1.291-3.652-3.436-4.959-.222-.134-.454-.274-.691-.414l-3.321-1.916c-.16-.083-1.411.6-1.576.537a5.637,5.637,0,0,0-1.188-.319c-1.514-.284-4.016,1.575-3.993,3.745l.227,2.872.263,3.379.279,3.5a8.384,8.384,0,0,1-.021,1.534.532.532,0,0,1,0,.078.421.421,0,0,1-.005.082c-.111,1.2-1.267,5.447-1.8,7.359a1.115,1.115,0,0,0,.663,1.338C409.307,329.282,413.64,331.425,419.816,329.335Z" transform="translate(-406.213 -294.48)" fill="#eaecff"/>
                <g id="Grupo_118038" data-name="Grupo 118038" transform="translate(3.582)">
                  <path id="Trazado_170617" data-name="Trazado 170617" d="M411.943,300.425v5.952c0,.279.257.545.729.717a3.244,3.244,0,0,0,2.569-.171.677.677,0,0,0,.363-.545l.011-5.952Z" transform="translate(-409.238 -294.849)" fill="#fcbac0"/>
                  <path id="Trazado_170618" data-name="Trazado 170618" d="M411.942,300.559v4.116a1,1,0,0,0,1.4.915,5.788,5.788,0,0,0,1.849-1.441,1.746,1.746,0,0,0,.421-1.147v-2.444Z" transform="translate(-409.238 -294.836)" fill="#ed8b8b"/>
                  <path id="Trazado_170619" data-name="Trazado 170619" d="M409.736,303.043c.506,2.071,1.637,2.794,2.892,2.706a4.107,4.107,0,0,0,1.663-.516,6.5,6.5,0,0,0,2.856-3.436,5.976,5.976,0,0,0,.414-1.942,4.074,4.074,0,0,0-3.972-4.51C408.429,295.2,409.488,302.014,409.736,303.043Z" transform="translate(-409.478 -295.343)" fill="#fcbac0"/>
                </g>
                <path id="Trazado_170620" data-name="Trazado 170620" d="M410.569,331.186a.516.516,0,0,0-.771.478c.233,4,1.119,11.107,1.508,13.489a11.121,11.121,0,0,0,.634,2.3l1.262,3.2-.354-1.731-.708-1.377a4.183,4.183,0,0,1-.257-1.44V332.669c-.005-.06-.013-.143-.023-.232a1.076,1.076,0,0,0-.539-.824Z" transform="translate(-405.865 -291.863)" fill="#ffbe1e"/>
              </g>
            </g>
            <path id="Trazado_170621" data-name="Trazado 170621" d="M407.2,313.631a3.691,3.691,0,1,0,3.691-3.69A3.691,3.691,0,0,0,407.2,313.631Z" transform="translate(-399.253 -292.171)" fill="#eaecff"/>
            <path id="Trazado_170622" data-name="Trazado 170622" d="M409.132,298.462l.088-.155c-.11-3.02,3.261-5.719,6.038-4.05,4-.685,5.314,5.381,5.117,8.129-.172,2.4-4.036,2.85-5.613,2.114a4.343,4.343,0,0,0,1.022-4.409,3.233,3.233,0,0,0-.282-.76,10.633,10.633,0,0,1-3.441.032c-.28-.043-.544-.1-.8-.158.008-.691.011-1.522-.013-1.6a6.388,6.388,0,0,0-.663,1.411c-.3-.091-.573-.189-.827-.287a3.18,3.18,0,0,0-.115.311,3.8,3.8,0,0,0-.133.849c-.066-.368-.242-.938-.283-1.322,0-.022,0-.043,0-.065Z" transform="translate(-399.065 -293.746)" fill="#ff4a59"/>
          </g>
        </g>
        <g id="Grupo_118048" data-name="Grupo 118048" transform="translate(18.812)">
          <g id="Grupo_118045" data-name="Grupo 118045" transform="translate(6.265)">
            <g id="Grupo_118043" data-name="Grupo 118043" transform="translate(4.204 19.099)">
              <path id="Trazado_170623" data-name="Trazado 170623" d="M390.554,268.708V329.86c0,.205-.3.372-.665.372s-.665-.167-.665-.372V268.708Z" transform="translate(-389.224 -268.708)" fill="#7e87c5"/>
              <path id="Trazado_170624" data-name="Trazado 170624" d="M430.078,289.436v60.686l1.329-.734V289.436Z" transform="translate(-385.25 -266.692)" fill="#7e87c5"/>
            </g>
            <g id="Grupo_118044" data-name="Grupo 118044">
              <path id="Trazado_170625" data-name="Trazado 170625" d="M438.469,281.335,386.45,251.3l-1.057.622L437.411,307.6l1.057-.622Z" transform="translate(-385.393 -251.302)" fill="#c5cef6"/>
              <path id="Trazado_170626" data-name="Trazado 170626" d="M437.411,281.9l-52.018-30.033v25.642l52.019,30.032Z" transform="translate(-385.393 -251.247)" fill="#a0ace2"/>
              <path id="Trazado_170627" data-name="Trazado 170627" d="M389.393,274.3V258.8l43.241,24.965v15.5Z" transform="translate(-385.003 -250.573)" fill="#eaecff"/>
            </g>
          </g>
          <g id="Grupo_118047" data-name="Grupo 118047" transform="translate(0 73.251)">
            <path id="Trazado_170628" data-name="Trazado 170628" d="M379.683,330.425v46.2c0,10.208,14.814,18.484,33.088,18.484,9.211,0,17.539-2.1,23.538-5.5v-46.2Z" transform="translate(-379.683 -316.856)" fill="#00cc82"/>
            <g id="Grupo_118046" data-name="Grupo 118046">
              <path id="Trazado_170629" data-name="Trazado 170629" d="M390.312,318.059c-6.534,3.376-10.629,8.205-10.629,13.569,0,10.208,14.814,18.484,33.088,18.484,9.211,0,17.539-2.1,23.538-5.5Z" transform="translate(-379.683 -318.059)" fill="#eaecff"/>
              <path id="Trazado_170630" data-name="Trazado 170630" d="M412.58,347.733c-16.765,0-30.928-7.476-30.928-16.323,0-4.047,3.057-8.048,8.434-11.1l41.437,23.924A49.652,49.652,0,0,1,412.58,347.733Z" transform="translate(-379.491 -317.84)" fill="#c5cef6"/>
            </g>
          </g>
        </g>
        <g id="Grupo_118055" data-name="Grupo 118055" transform="translate(0 70.438)">
          <path id="Trazado_170631" data-name="Trazado 170631" d="M367.851,394.4a24.056,24.056,0,0,0,8.974,1.938c5.021.165,9.787-1.012,12.747-3.148,1.281-.925,2.768-2.423,2.576-4.3-.2-1.94-2.177-3.935-5.3-5.335a24.052,24.052,0,0,0-8.974-1.937c-5.021-.166-9.785,1.012-12.746,3.148-1.282.925-2.77,2.422-2.578,4.3C362.753,391.009,364.732,393,367.851,394.4Z" transform="translate(-362.539 -309.065)" fill="#eaecff" style="mix-blend-mode: multiply;isolation: isolate"/>
          <g id="Grupo_118054" data-name="Grupo 118054" transform="translate(3.232)">
            <path id="Trazado_170632" data-name="Trazado 170632" d="M380.772,342.5s-12.678,4.659-15.024,2.111c-1.05-1.139,1.372-14.916,1.372-14.916l.994-1.888,3.449.356c.459.044.972-.73.972-.73-.227,1.857-1.523,10.931-1.832,13.061-.048.33,9.739-.721,9.739-.721C379.741,340.1,380.023,342.317,380.772,342.5Z" transform="translate(-365.484 -314.335)" fill="#3e5aff"/>
            <g id="Grupo_118053" data-name="Grupo 118053" transform="translate(1.525)">
              <path id="Trazado_170633" data-name="Trazado 170633" d="M395.582,336.58l-2.729,9.821a.635.635,0,0,1-.875.415l-6.366-2.925a.7.7,0,0,1-.386-.83l2.8-9.949a.635.635,0,0,1,.876-.4l6.227,2.908A.828.828,0,0,1,395.582,336.58Z" transform="translate(-365.091 -313.827)" fill="#eaecff"/>
              <g id="Grupo_118052" data-name="Grupo 118052">
                <path id="Trazado_170634" data-name="Trazado 170634" d="M374.944,383.438a2.568,2.568,0,0,1-1.209,1.874c-.171.126-.4.283-.65.44a16.966,16.966,0,0,0-2.206,1.791,1.83,1.83,0,0,1-1.194.553c-.74.037-1.391-.2-1.3-1.315.007-.075.014-.208.03-.343l.022-.179c.015-.082.061-2.146.069-2.191.089.373.608-1.084.928-1.1.486-.022.418,1.136.746.83.59-.561,1.22-.3,2.84-1.131l.311-.05c1.256-.147,1.448.269,1.575.65A1.5,1.5,0,0,1,374.944,383.438Z" transform="translate(-366.727 -308.97)" fill="#292d4c"/>
                <path id="Trazado_170635" data-name="Trazado 170635" d="M383.723,388.07s-1.139-.111-1.52-.125c-.9-.033-2.854-.594-3.466-.171-.7.482-2.242.884-2.263-.415l-.884.285c-.016.275-.1,1.884-.1,1.986a2.3,2.3,0,0,0,.324,1.366c.587.924,2.406.386,3.449.176l3.111-.417a2.7,2.7,0,0,0,2.076-1.712A.887.887,0,0,0,383.723,388.07Z" transform="translate(-366.036 -308.505)" fill="#292d4c"/>
                <path id="Trazado_170636" data-name="Trazado 170636" d="M368.022,347.48l-.366,1.347a6.07,6.07,0,0,0-.187,1.018,28.509,28.509,0,0,0-.056,4.859l.261,3.54.805,29.1c-.079,1.17,3.824,1.287,3.811-.116l1.939-30.388,1.257,14.12.79,20.6c0,1.2,3.9,1.316,3.937-.133,0,0,2-20.686,2-21.955,0-1.967,0-7.333-.711-18.092-.253-3.82-6.858-2.8-6.858-2.962l3.607-2.818Z" transform="translate(-366.829 -312.568)" fill="#6b75bd"/>
                <path id="Trazado_170637" data-name="Trazado 170637" d="M373.806,355.92l-1.345-.823a.506.506,0,0,0-.77.452l.522,24.047Z" transform="translate(-366.405 -311.651)" fill="#435291"/>
                <path id="Trazado_170638" data-name="Trazado 170638" d="M368,343.75a10.657,10.657,0,0,0-.032-1.621l-1.093-11.348a4.11,4.11,0,0,1,4.134-4.38,4.852,4.852,0,0,1,.593,0,5.032,5.032,0,0,1,1.484.327c.184.065,1.556-.747,1.74-.661l2.4,1.274.067.035,1.327.706c.258.139.509.273.751.407.18.1.353.2.522.3,2.268,1.327,4.2,2.912,4.295,5.584l-2.3,5.7v.065l-.269,12.156c.048,1.361-13.817,1.251-13.99-2.044Z" transform="translate(-366.874 -314.468)" fill="#5278ff"/>
                <path id="Trazado_170639" data-name="Trazado 170639" d="M379.795,324.262c-.635,3.144-2.727,3.442-4.69,2.494a7.106,7.106,0,0,1-3.662-5.509,4.276,4.276,0,0,1,3.982-4.9C380.837,315.973,380.015,323.173,379.795,324.262Z" transform="translate(-366.431 -315.414)" fill="#fcbac0"/>
                <path id="Trazado_170640" data-name="Trazado 170640" d="M372.654,322.217l.221,6.249c.011.293.291.564.791.726a3.41,3.41,0,0,0,2.692-.275.713.713,0,0,0,.362-.586c.011,0-.21-6.25-.21-6.25Z" transform="translate(-366.312 -314.855)" fill="#fcbac0"/>
                <path id="Trazado_170641" data-name="Trazado 170641" d="M374.988,320.423a3.243,3.243,0,0,0,2.681,1.322c.314-.011.617-.783,1.016-1.238.26-.3.654-.28.814-.421a2.664,2.664,0,0,0-.76-3.788,6.1,6.1,0,0,0-4.165-.7c-.158.031.848.514.72.615A3,3,0,0,0,374.988,320.423Z" transform="translate(-366.154 -315.496)" fill="#292d4c"/>
                <path id="Trazado_170642" data-name="Trazado 170642" d="M378.806,328.45a2.9,2.9,0,0,0-1.1-1.176c-.618-.255-5.226.42-5.2-.3,0-.1.427-.327.427-.327l-.022-.616a5.275,5.275,0,0,0-.928.5,1.329,1.329,0,0,0-.076,1.917C373.756,330.247,378.806,328.45,378.806,328.45Z" transform="translate(-366.421 -314.471)" fill="#3e5aff"/>
                <g id="Grupo_118050" data-name="Grupo 118050" transform="translate(3.897 0.091)">
                  <g id="Grupo_118049" data-name="Grupo 118049">
                    <path id="Trazado_170643" data-name="Trazado 170643" d="M374.354,324.676l.463-1.862a3.023,3.023,0,0,1,2-2.146l1.865-.6a6.883,6.883,0,0,1-2.233,4.4,4.416,4.416,0,0,1-2.177,1.349l-.01-.3A2.985,2.985,0,0,1,374.354,324.676Z" transform="translate(-370.052 -315.143)" fill="#292d4c"/>
                    <path id="Trazado_170644" data-name="Trazado 170644" d="M374.948,315.594c2.27-.205,4.13,1.662,4.133,4.411,0,.169-.011.331-.022.494l-1.865.6a3.023,3.023,0,0,0-2,2.146l-.463,1.862a2.985,2.985,0,0,0-.088.837l.01.3c-1.4.312-2.992-.725-3.532-2.674C370.834,322.553,368.348,316.192,374.948,315.594Z" transform="translate(-370.425 -315.579)" fill="#292d4c"/>
                  </g>
                </g>
                <path id="Trazado_170645" data-name="Trazado 170645" d="M377.817,323.023c.521.645.6,1.442.185,1.781s-1.182.09-1.7-.555-.6-1.443-.184-1.781S377.3,322.377,377.817,323.023Z" transform="translate(-366.001 -314.832)" fill="#fcbac0"/>
                <path id="Trazado_170646" data-name="Trazado 170646" d="M380.665,346.068l-2.836-10.014.047,3.648a8.664,8.664,0,0,0,.114,1.317c.508,3.034,1.107,5.286,2.624,7.389Z" transform="translate(-365.808 -313.496)" fill="#3e5aff"/>
                <g id="Grupo_118051" data-name="Grupo 118051" transform="translate(11.887 16.531)">
                  <path id="Trazado_170647" data-name="Trazado 170647" d="M385.646,342.865c1.725-.347,3.666-.793,4.723-1.041l.787-.187c1.333-.033,3.549-3.537,4.043-2.3a1.346,1.346,0,0,1,.947,2.192,5.792,5.792,0,0,1-2.3,1.53,5.293,5.293,0,0,1-1.726.448c-.09.008-.174.025-.262.039a43.776,43.776,0,0,1-5.487,2.933Z" transform="translate(-376.935 -329.733)" fill="#fbb2b8"/>
                  <path id="Trazado_170648" data-name="Trazado 170648" d="M383.133,333.936s1.172,8.463,1.424,9.553c.039.179,6.825-1.394,6.825-1.394a2.861,2.861,0,0,1,.922,3.326s-8.974,3.671-10.776,2.755c-.924-.469-3.869-11.024-3.82-12.717l1.826-4.9C380.445,331.1,382.926,332.7,383.133,333.936Z" transform="translate(-377.707 -330.561)" fill="#5278ff"/>
                  <path id="Trazado_170649" data-name="Trazado 170649" d="M389.234,341.308l1.027-.235a2.861,2.861,0,0,1,.922,3.326s-.352.144-.926.366A3.566,3.566,0,0,0,389.234,341.308Z" transform="translate(-376.586 -329.538)" fill="#3e5aff"/>
                </g>
              </g>
            </g>
          </g>
        </g>
        <g id="Grupo_118056" data-name="Grupo 118056" transform="translate(46.737 63.144)">
          <path id="Trazado_170650" data-name="Trazado 170650" d="M407.9,324.273l.8,1.845a1.8,1.8,0,0,1,1.187-.53,46.024,46.024,0,0,0,8.328-1.142,1.309,1.309,0,0,0,.805-1.917c-.506-.872-1.108-1.813-1.312-1.747-1.728.567-6.782,2.227-9.676,3.175Z" transform="translate(-404.863 -307.688)" fill="#c5cef6"/>
          <path id="Trazado_170651" data-name="Trazado 170651" d="M414.955,322.343c0-.678-.07-3.662-.048-4.616.059-2.772,1.569-5.418,1.273-7.479l1.781,11.106C417.642,321.889,416.446,322.226,414.955,322.343Z" transform="translate(-404.182 -308.712)" fill="#c5cef6"/>
          <path id="Trazado_170652" data-name="Trazado 170652" d="M407.771,329.426l.235-.6a.313.313,0,0,0,.169.093.328.328,0,0,0,.4-.253l.591-2.808a1.888,1.888,0,0,1,1.259-.818c.7-.113,1.794-.3,3.034-.573l-3.361-1.61c-1.352.61-.631.285-1.683.755a4.748,4.748,0,0,0-2.686,3.08c-.179.451-.563,1.841-.563,1.841C404.84,329.652,407.311,330.441,407.771,329.426Z" transform="translate(-405.132 -307.485)" fill="#fcbac0"/>
          <path id="Trazado_170653" data-name="Trazado 170653" d="M409.29,324.4l8-3.589a.869.869,0,0,0,.511-.881c-.086-.906-1.316-11.079-1.316-11.079l4.68,1.978s.971,10.522.139,11.612c-2.065,2.708-11,3.918-11,3.918C410.861,326.143,410.158,324.113,409.29,324.4Z" transform="translate(-404.727 -308.848)" fill="#eaecff"/>
        </g>
      </g>
    </g>
  </g>
</svg>
