<svg xmlns="http://www.w3.org/2000/svg" width="770" height="334" viewBox="0 0 770 334">
  <g id="Grupo_81554" data-name="Grupo 81554" transform="translate(-415 -890)">
    <path id="Rectángulo_34915" data-name="Rectángulo 34915" d="M50,0H385a0,0,0,0,1,0,0V115a0,0,0,0,1,0,0H50A50,50,0,0,1,0,65V50A50,50,0,0,1,50,0Z" transform="translate(415 996.5)" fill="#ba68c8"/>
    <path id="Rectángulo_34916" data-name="Rectángulo 34916" d="M0,0H335a50,50,0,0,1,50,50V65a50,50,0,0,1-50,50H0a0,0,0,0,1,0,0V0A0,0,0,0,1,0,0Z" transform="translate(800 996.5)" fill="#5c22c3"/>
    <line id="Línea_147" data-name="Línea 147" y2="215" transform="translate(495 946)" fill="none" stroke="#ba68c8" stroke-linecap="round" stroke-width="10"/>
    <line id="Línea_151" data-name="Línea 151" y2="215" transform="translate(800 946)" fill="none" stroke="#12263f" stroke-linecap="round" stroke-width="15"/>
    <line id="Línea_148" data-name="Línea 148" y2="215" transform="translate(1105 946)" fill="none" stroke="#5c22c3" stroke-linecap="round" stroke-width="10"/>
    <rect id="Rectángulo_34917" data-name="Rectángulo 34917" width="271" height="63" rx="31.5" transform="translate(664.667 890)" fill="#64b5f6"/>
    <rect id="Rectángulo_34918" data-name="Rectángulo 34918" width="271" height="63" rx="31.5" transform="translate(664.667 1161)" fill="#fff505"/>
    <line id="Línea_149" data-name="Línea 149" x2="310" transform="translate(645.167 921.5)" fill="none" stroke="#64b5f6" stroke-linecap="round" stroke-width="10"/>
    <line id="Línea_150" data-name="Línea 150" x2="310" transform="translate(645.167 1192.363)" fill="none" stroke="#fff505" stroke-linecap="round" stroke-width="10"/>
    <circle id="Elipse_4698" data-name="Elipse 4698" cx="95" cy="95" r="95" transform="translate(705.667 958.5)" fill="#12263f"/>
    <path id="Trazado_174182" data-name="Trazado 174182" d="M-36.05,0h-3.408L-44.5-8.848V0h-3.428V-14.219H-44.5l5.029,8.848v-8.848h3.418Zm7.969,0a3.716,3.716,0,0,1-.312-.947A3.06,3.06,0,0,1-30.933.2a3.749,3.749,0,0,1-2.539-.9,2.875,2.875,0,0,1-1.045-2.271,2.955,2.955,0,0,1,1.27-2.6,6.468,6.468,0,0,1,3.691-.879h1.016v-.559q0-1.462-1.26-1.462a1.03,1.03,0,0,0-1.172,1.158h-3.291a2.95,2.95,0,0,1,1.3-2.487,5.479,5.479,0,0,1,3.325-.956,4.8,4.8,0,0,1,3.193.986,3.429,3.429,0,0,1,1.2,2.705v4.678A4.79,4.79,0,0,0-24.79-.166V0Zm-2.061-2.148a1.836,1.836,0,0,0,1.021-.264,1.653,1.653,0,0,0,.581-.6V-4.7H-29.5q-1.719,0-1.719,1.543a.942.942,0,0,0,.3.728A1.1,1.1,0,0,0-30.142-2.148Zm10.557-11.045v2.627h1.738v2.285h-1.738v4.834a1.234,1.234,0,0,0,.215.83,1.152,1.152,0,0,0,.85.234,4.828,4.828,0,0,0,.82-.059V-.088A6.074,6.074,0,0,1-19.556.2a3.448,3.448,0,0,1-2.51-.8,3.282,3.282,0,0,1-.811-2.432V-8.281h-1.348v-2.285h1.348v-2.627Zm9.326,12.051A3.393,3.393,0,0,1-13.081.2,3.328,3.328,0,0,1-15.713-.815a4.251,4.251,0,0,1-.894-2.905v-6.846h3.291V-3.7A1.183,1.183,0,0,0-12-2.344a1.72,1.72,0,0,0,1.611-.811v-7.412h3.311V0h-3.086ZM1.118-7.588.034-7.666a1.947,1.947,0,0,0-1.992.977V0H-5.249V-10.566h3.086l.107,1.357A2.548,2.548,0,0,1,.259-10.762a3.209,3.209,0,0,1,.918.117ZM7.964,0a3.716,3.716,0,0,1-.312-.947A3.06,3.06,0,0,1,5.112.2a3.749,3.749,0,0,1-2.539-.9A2.875,2.875,0,0,1,1.528-2.979a2.955,2.955,0,0,1,1.27-2.6,6.468,6.468,0,0,1,3.691-.879H7.5v-.559q0-1.462-1.26-1.462A1.03,1.03,0,0,0,5.073-7.319H1.782a2.95,2.95,0,0,1,1.3-2.487,5.479,5.479,0,0,1,3.325-.956A4.8,4.8,0,0,1,9.6-9.775a3.429,3.429,0,0,1,1.2,2.705v4.678a4.79,4.79,0,0,0,.449,2.227V0ZM5.9-2.148a1.836,1.836,0,0,0,1.021-.264,1.653,1.653,0,0,0,.581-.6V-4.7H6.548q-1.719,0-1.719,1.543a.942.942,0,0,0,.3.728A1.1,1.1,0,0,0,5.9-2.148ZM16.1,0H12.8V-15h3.3Zm7.139.2A5.432,5.432,0,0,1,19.3-1.255a5.008,5.008,0,0,1-1.5-3.774V-5.3a6.489,6.489,0,0,1,.6-2.861,4.395,4.395,0,0,1,1.753-1.919,5.292,5.292,0,0,1,2.734-.679A4.574,4.574,0,0,1,26.4-9.38,5.43,5.43,0,0,1,27.69-5.527v1.279H21.147a2.372,2.372,0,0,0,.771,1.4,2.3,2.3,0,0,0,1.543.508A2.958,2.958,0,0,0,25.9-3.437l1.5,1.777A4.2,4.2,0,0,1,25.664-.308,5.891,5.891,0,0,1,23.237.2Zm-.371-8.418q-1.445,0-1.719,1.914h3.32v-.254a1.63,1.63,0,0,0-.4-1.226A1.593,1.593,0,0,0,22.866-8.223ZM32.9-2.539H37.71V0H28.735V-1.836l4.688-6.191H28.94v-2.539H37.6v1.777ZM45.259,0a3.716,3.716,0,0,1-.312-.947A3.06,3.06,0,0,1,42.407.2a3.749,3.749,0,0,1-2.539-.9,2.875,2.875,0,0,1-1.045-2.271,2.955,2.955,0,0,1,1.27-2.6,6.468,6.468,0,0,1,3.691-.879H44.8v-.559q0-1.462-1.26-1.462a1.03,1.03,0,0,0-1.172,1.158H39.077a2.95,2.95,0,0,1,1.3-2.487,5.479,5.479,0,0,1,3.325-.956,4.8,4.8,0,0,1,3.193.986A3.429,3.429,0,0,1,48.1-7.07v4.678A4.79,4.79,0,0,0,48.55-.166V0ZM43.2-2.148a1.836,1.836,0,0,0,1.021-.264,1.653,1.653,0,0,0,.581-.6V-4.7h-.957q-1.719,0-1.719,1.543a.942.942,0,0,0,.3.728A1.1,1.1,0,0,0,43.2-2.148Z" transform="translate(800.667 928.5)" fill="#12263f"/>
    <path id="Trazado_174179" data-name="Trazado 174179" d="M-29.775,0V-14.219h5.107a7.232,7.232,0,0,1,4.175,1.006,3.347,3.347,0,0,1,1.431,2.92,3.383,3.383,0,0,1-.508,1.885,2.959,2.959,0,0,1-1.494,1.152,3,3,0,0,1,1.709,1.094,3.18,3.18,0,0,1,.6,1.953,3.765,3.765,0,0,1-1.323,3.14A6.3,6.3,0,0,1-24,0Zm3.428-6.045v3.408H-24.1a2.136,2.136,0,0,0,1.426-.425,1.487,1.487,0,0,0,.5-1.2,1.576,1.576,0,0,0-1.768-1.787Zm0-2.246h1.787a2.539,2.539,0,0,0,1.6-.411,1.46,1.46,0,0,0,.479-1.185,1.533,1.533,0,0,0-.518-1.3,2.77,2.77,0,0,0-1.67-.4h-1.68ZM-13.555,0h-3.3V-10.566h3.3Zm-3.5-13.3a1.482,1.482,0,0,1,.508-1.159,1.909,1.909,0,0,1,1.318-.452,1.909,1.909,0,0,1,1.318.452A1.482,1.482,0,0,1-13.4-13.3a1.482,1.482,0,0,1-.508,1.159,1.909,1.909,0,0,1-1.318.452,1.909,1.909,0,0,1-1.318-.452A1.482,1.482,0,0,1-17.051-13.3ZM-6.416.2a5.432,5.432,0,0,1-3.936-1.45,5.008,5.008,0,0,1-1.5-3.774V-5.3a6.489,6.489,0,0,1,.6-2.861A4.395,4.395,0,0,1-9.5-10.083a5.292,5.292,0,0,1,2.734-.679A4.574,4.574,0,0,1-3.252-9.38,5.43,5.43,0,0,1-1.963-5.527v1.279H-8.506a2.372,2.372,0,0,0,.771,1.4,2.3,2.3,0,0,0,1.543.508A2.958,2.958,0,0,0-3.75-3.437l1.5,1.777A4.2,4.2,0,0,1-3.989-.308,5.891,5.891,0,0,1-6.416.2Zm-.371-8.418q-1.445,0-1.719,1.914h3.32v-.254a1.63,1.63,0,0,0-.4-1.226A1.593,1.593,0,0,0-6.787-8.223Zm9.17-2.344.107,1.24a3.583,3.583,0,0,1,3.018-1.436,3.015,3.015,0,0,1,2.466.986,4.7,4.7,0,0,1,.845,2.969V0h-3.3V-6.67A1.783,1.783,0,0,0,5.2-7.847a1.491,1.491,0,0,0-1.172-.376,1.569,1.569,0,0,0-1.436.762V0H-.7V-10.566ZM15.752.2a5.432,5.432,0,0,1-3.936-1.45,5.008,5.008,0,0,1-1.5-3.774V-5.3a6.489,6.489,0,0,1,.6-2.861,4.395,4.395,0,0,1,1.753-1.919,5.292,5.292,0,0,1,2.734-.679A4.574,4.574,0,0,1,18.916-9.38a5.43,5.43,0,0,1,1.289,3.853v1.279H13.662a2.372,2.372,0,0,0,.771,1.4,2.3,2.3,0,0,0,1.543.508,2.958,2.958,0,0,0,2.441-1.094l1.5,1.777A4.2,4.2,0,0,1,18.179-.308,5.891,5.891,0,0,1,15.752.2Zm-.371-8.418q-1.445,0-1.719,1.914h3.32v-.254a1.63,1.63,0,0,0-.4-1.226A1.593,1.593,0,0,0,15.381-8.223Zm11.68,5.254a.76.76,0,0,0-.439-.674,6.685,6.685,0,0,0-1.67-.527,7.615,7.615,0,0,1-2.031-.718A3.4,3.4,0,0,1,21.7-5.967a2.577,2.577,0,0,1-.42-1.455,2.92,2.92,0,0,1,1.2-2.4,4.948,4.948,0,0,1,3.145-.942,5.482,5.482,0,0,1,3.359.947,2.962,2.962,0,0,1,1.27,2.49h-3.3q0-1.27-1.338-1.27a1.326,1.326,0,0,0-.869.288.892.892,0,0,0-.352.718.819.819,0,0,0,.43.713,4.06,4.06,0,0,0,1.372.449,11.857,11.857,0,0,1,1.655.42,3.007,3.007,0,0,1,2.383,2.939A2.767,2.767,0,0,1,28.95-.713,5.631,5.631,0,0,1,25.625.2,5.747,5.747,0,0,1,23.2-.293a4.05,4.05,0,0,1-1.66-1.328,3.007,3.007,0,0,1-.6-1.768h3.076a1.272,1.272,0,0,0,.488,1.069,2.009,2.009,0,0,0,1.2.337,1.58,1.58,0,0,0,1.011-.273A.875.875,0,0,0,27.061-2.969Z" transform="translate(800.667 1060.5)" fill="#fff"/>
    <path id="Trazado_174180" data-name="Trazado 174180" d="M-62.466-5.664h-5.527V0h-3.428V-14.219h9.512v2.646h-6.084V-8.3h5.527Zm7.91,4.521A3.393,3.393,0,0,1-57.378.2,3.328,3.328,0,0,1-60.01-.815,4.251,4.251,0,0,1-60.9-3.721v-6.846h3.291V-3.7a1.183,1.183,0,0,0,1.318,1.357,1.72,1.72,0,0,0,1.611-.811v-7.412h3.311V0h-3.086Zm8.008-9.424.107,1.24a3.583,3.583,0,0,1,3.018-1.436,3.015,3.015,0,0,1,2.466.986,4.7,4.7,0,0,1,.845,2.969V0h-3.3V-6.67a1.783,1.783,0,0,0-.322-1.177,1.491,1.491,0,0,0-1.172-.376,1.569,1.569,0,0,0-1.436.762V0h-3.291V-10.566Zm12.725,8.223a1.464,1.464,0,0,0,1.074-.376,1.379,1.379,0,0,0,.371-1.05h3.086A3.653,3.653,0,0,1-30.537-.918,4.631,4.631,0,0,1-33.745.2,4.689,4.689,0,0,1-37.378-1.25a5.7,5.7,0,0,1-1.328-4v-.137a6.436,6.436,0,0,1,.591-2.827,4.3,4.3,0,0,1,1.7-1.885,5.081,5.081,0,0,1,2.637-.659A4.573,4.573,0,0,1-30.5-9.619a4.053,4.053,0,0,1,1.211,3.1h-3.086a1.807,1.807,0,0,0-.4-1.26,1.382,1.382,0,0,0-1.074-.439q-1.279,0-1.494,1.631a11.507,11.507,0,0,0-.068,1.426,4.52,4.52,0,0,0,.381,2.207A1.319,1.319,0,0,0-33.823-2.344ZM-24.429,0h-3.3V-10.566h3.3Zm-3.5-13.3a1.482,1.482,0,0,1,.508-1.159,1.909,1.909,0,0,1,1.318-.452,1.909,1.909,0,0,1,1.318.452,1.482,1.482,0,0,1,.508,1.159,1.482,1.482,0,0,1-.508,1.159,1.909,1.909,0,0,1-1.318.452,1.909,1.909,0,0,1-1.318-.452A1.482,1.482,0,0,1-27.925-13.3Zm5.107,7.92A6.236,6.236,0,0,1-22.2-8.2a4.4,4.4,0,0,1,1.768-1.9,5.323,5.323,0,0,1,2.705-.664,4.858,4.858,0,0,1,3.74,1.47,5.64,5.64,0,0,1,1.367,4v.117a5.472,5.472,0,0,1-1.372,3.921A4.871,4.871,0,0,1-17.71.2a4.927,4.927,0,0,1-3.623-1.353,5.29,5.29,0,0,1-1.475-3.667Zm3.291.205a3.932,3.932,0,0,0,.459,2.148,1.529,1.529,0,0,0,1.357.684q1.758,0,1.8-2.705v-.332q0-2.842-1.816-2.842-1.65,0-1.787,2.451Zm11.377-5.391.107,1.24a3.583,3.583,0,0,1,3.018-1.436,3.015,3.015,0,0,1,2.466.986,4.7,4.7,0,0,1,.845,2.969V0h-3.3V-6.67a1.783,1.783,0,0,0-.322-1.177,1.491,1.491,0,0,0-1.172-.376,1.569,1.569,0,0,0-1.436.762V0h-3.291V-10.566ZM6.06,0a3.716,3.716,0,0,1-.312-.947A3.06,3.06,0,0,1,3.208.2a3.749,3.749,0,0,1-2.539-.9A2.875,2.875,0,0,1-.376-2.979a2.955,2.955,0,0,1,1.27-2.6,6.468,6.468,0,0,1,3.691-.879H5.6v-.559q0-1.462-1.26-1.462A1.03,1.03,0,0,0,3.169-7.319H-.122a2.95,2.95,0,0,1,1.3-2.487,5.479,5.479,0,0,1,3.325-.956A4.8,4.8,0,0,1,7.7-9.775,3.429,3.429,0,0,1,8.9-7.07v4.678A4.79,4.79,0,0,0,9.351-.166V0ZM4-2.148A1.836,1.836,0,0,0,5.02-2.412a1.653,1.653,0,0,0,.581-.6V-4.7H4.644q-1.719,0-1.719,1.543a.942.942,0,0,0,.3.728A1.1,1.1,0,0,0,4-2.148Zm9.834-8.418.107,1.24a3.633,3.633,0,0,1,3.018-1.436A2.675,2.675,0,0,1,19.663-9.17a3.517,3.517,0,0,1,3.105-1.592q3.213,0,3.3,3.887V0h-3.3V-6.67A2.014,2.014,0,0,0,22.5-7.852a1.164,1.164,0,0,0-1-.371,1.559,1.559,0,0,0-1.455.869l.01.137V0h-3.3V-6.65a2.117,2.117,0,0,0-.264-1.2,1.161,1.161,0,0,0-1.006-.371,1.578,1.578,0,0,0-1.445.869V0H10.747V-10.566ZM31.421,0h-3.3V-10.566h3.3Zm-3.5-13.3a1.482,1.482,0,0,1,.508-1.159,1.909,1.909,0,0,1,1.318-.452,1.909,1.909,0,0,1,1.318.452,1.482,1.482,0,0,1,.508,1.159,1.482,1.482,0,0,1-.508,1.159,1.909,1.909,0,0,1-1.318.452,1.909,1.909,0,0,1-1.318-.452A1.482,1.482,0,0,1,27.925-13.3ZM38.56.2a5.432,5.432,0,0,1-3.936-1.45,5.008,5.008,0,0,1-1.5-3.774V-5.3a6.489,6.489,0,0,1,.6-2.861,4.395,4.395,0,0,1,1.753-1.919,5.292,5.292,0,0,1,2.734-.679A4.574,4.574,0,0,1,41.724-9.38a5.43,5.43,0,0,1,1.289,3.853v1.279H36.47a2.372,2.372,0,0,0,.771,1.4,2.3,2.3,0,0,0,1.543.508,2.958,2.958,0,0,0,2.441-1.094l1.5,1.777A4.2,4.2,0,0,1,40.986-.308,5.891,5.891,0,0,1,38.56.2Zm-.371-8.418q-1.445,0-1.719,1.914h3.32v-.254a1.63,1.63,0,0,0-.4-1.226A1.593,1.593,0,0,0,38.188-8.223Zm9.17-2.344.107,1.24a3.583,3.583,0,0,1,3.018-1.436,3.015,3.015,0,0,1,2.466.986,4.7,4.7,0,0,1,.845,2.969V0h-3.3V-6.67a1.783,1.783,0,0,0-.322-1.177A1.491,1.491,0,0,0,49-8.223a1.569,1.569,0,0,0-1.436.762V0H44.272V-10.566Zm12.09-2.627v2.627h1.738v2.285H59.448v4.834a1.234,1.234,0,0,0,.215.83,1.152,1.152,0,0,0,.85.234,4.828,4.828,0,0,0,.82-.059V-.088A6.074,6.074,0,0,1,59.478.2a3.448,3.448,0,0,1-2.51-.8,3.282,3.282,0,0,1-.811-2.432V-8.281H54.81v-2.285h1.348v-2.627Zm2.324,7.813A6.236,6.236,0,0,1,62.388-8.2a4.4,4.4,0,0,1,1.768-1.9,5.323,5.323,0,0,1,2.705-.664,4.858,4.858,0,0,1,3.74,1.47,5.64,5.64,0,0,1,1.367,4v.117A5.472,5.472,0,0,1,70.6-1.255,4.871,4.871,0,0,1,66.88.2a4.927,4.927,0,0,1-3.623-1.353,5.29,5.29,0,0,1-1.475-3.667Zm3.291.205a3.932,3.932,0,0,0,.459,2.148,1.529,1.529,0,0,0,1.357.684q1.758,0,1.8-2.705v-.332q0-2.842-1.816-2.842-1.65,0-1.787,2.451Z" transform="translate(800.667 1199)" fill="#12263f"/>
    <path id="Trazado_174181" data-name="Trazado 174181" d="M4.727,0H1.309V-14.219H4.727ZM9.98-10.566l.107,1.24a3.583,3.583,0,0,1,3.018-1.436,3.015,3.015,0,0,1,2.466.986,4.7,4.7,0,0,1,.845,2.969V0h-3.3V-6.67a1.783,1.783,0,0,0-.322-1.177,1.491,1.491,0,0,0-1.172-.376,1.569,1.569,0,0,0-1.436.762V0H6.895V-10.566Zm12.09-2.627v2.627h1.738v2.285H22.07v4.834a1.234,1.234,0,0,0,.215.83,1.152,1.152,0,0,0,.85.234,4.828,4.828,0,0,0,.82-.059V-.088A6.074,6.074,0,0,1,22.1.2a3.448,3.448,0,0,1-2.51-.8,3.282,3.282,0,0,1-.811-2.432V-8.281H17.432v-2.285h1.348v-2.627ZM31.055,0a3.716,3.716,0,0,1-.312-.947A3.06,3.06,0,0,1,28.2.2a3.749,3.749,0,0,1-2.539-.9,2.875,2.875,0,0,1-1.045-2.271,2.955,2.955,0,0,1,1.27-2.6,6.468,6.468,0,0,1,3.691-.879H30.6v-.559q0-1.462-1.26-1.462a1.03,1.03,0,0,0-1.172,1.158H24.873a2.95,2.95,0,0,1,1.3-2.487,5.479,5.479,0,0,1,3.325-.956,4.8,4.8,0,0,1,3.193.986A3.429,3.429,0,0,1,33.9-7.07v4.678a4.79,4.79,0,0,0,.449,2.227V0ZM28.994-2.148a1.836,1.836,0,0,0,1.021-.264,1.653,1.653,0,0,0,.581-.6V-4.7h-.957q-1.719,0-1.719,1.543a.942.942,0,0,0,.3.728A1.1,1.1,0,0,0,28.994-2.148Zm9.746-8.418.107,1.24a3.583,3.583,0,0,1,3.018-1.436,3.015,3.015,0,0,1,2.466.986,4.7,4.7,0,0,1,.845,2.969V0h-3.3V-6.67a1.783,1.783,0,0,0-.322-1.177,1.491,1.491,0,0,0-1.172-.376,1.569,1.569,0,0,0-1.436.762V0H35.654V-10.566Zm7.871,5.205a7.134,7.134,0,0,1,.527-2.832,4.245,4.245,0,0,1,1.514-1.9,3.99,3.99,0,0,1,2.295-.669,3.173,3.173,0,0,1,2.578,1.113l.117-.918h2.988V-.4a4.455,4.455,0,0,1-.649,2.427A4.167,4.167,0,0,1,54.1,3.608a6.91,6.91,0,0,1-2.852.552A5.961,5.961,0,0,1,49,3.721a4.063,4.063,0,0,1-1.665-1.143L48.711.645a3.018,3.018,0,0,0,2.422,1.084A1.96,1.96,0,0,0,53.32-.518V-.85A3.09,3.09,0,0,1,50.928.2,3.819,3.819,0,0,1,47.8-1.284a6.13,6.13,0,0,1-1.191-3.96Zm3.3.205A3.759,3.759,0,0,0,50.4-3.1a1.541,1.541,0,0,0,1.367.757,1.748,1.748,0,0,0,1.553-.713V-7.5a1.7,1.7,0,0,0-1.533-.723,1.551,1.551,0,0,0-1.377.786A4.287,4.287,0,0,0,49.912-5.156ZM61.973,0h-3.3V-10.566h3.3Zm-3.5-13.3a1.482,1.482,0,0,1,.508-1.159,1.909,1.909,0,0,1,1.318-.452,1.909,1.909,0,0,1,1.318.452,1.482,1.482,0,0,1,.508,1.159,1.482,1.482,0,0,1-.508,1.159,1.909,1.909,0,0,1-1.318.452,1.909,1.909,0,0,1-1.318-.452A1.482,1.482,0,0,1,58.477-13.3ZM73.809-5.2A6.44,6.44,0,0,1,72.734-1.2,3.6,3.6,0,0,1,69.707.2a3.122,3.122,0,0,1-2.6-1.279L66.973,0H64.023V-15h3.291v5.283a3.013,3.013,0,0,1,2.373-1.045,3.6,3.6,0,0,1,3.047,1.416,6.473,6.473,0,0,1,1.074,3.984Zm-3.3-.21A4.3,4.3,0,0,0,70.1-7.574a1.366,1.366,0,0,0-1.245-.648,1.576,1.576,0,0,0-1.543.848v4.192a1.585,1.585,0,0,0,1.563.838,1.4,1.4,0,0,0,1.475-1.131A8.121,8.121,0,0,0,70.508-5.405ZM78.73,0h-3.3V-10.566h3.3Zm-3.5-13.3a1.482,1.482,0,0,1,.508-1.159,1.909,1.909,0,0,1,1.318-.452,1.909,1.909,0,0,1,1.318.452,1.482,1.482,0,0,1,.508,1.159,1.482,1.482,0,0,1-.508,1.159,1.909,1.909,0,0,1-1.318.452,1.909,1.909,0,0,1-1.318-.452A1.482,1.482,0,0,1,75.234-13.3ZM84.229,0h-3.3V-15h3.3Zm5.5,0h-3.3V-10.566h3.3Zm-3.5-13.3a1.482,1.482,0,0,1,.508-1.159,1.909,1.909,0,0,1,1.318-.452,1.909,1.909,0,0,1,1.318.452,1.482,1.482,0,0,1,.508,1.159,1.482,1.482,0,0,1-.508,1.159,1.909,1.909,0,0,1-1.318.452,1.909,1.909,0,0,1-1.318-.452A1.482,1.482,0,0,1,86.23-13.3Zm5.107,7.939a6.455,6.455,0,0,1,1.084-3.955,3.568,3.568,0,0,1,3.027-1.445,3.035,3.035,0,0,1,2.383,1.113V-15h3.3V0H98.174l-.166-1.133A3.116,3.116,0,0,1,95.43.2,3.562,3.562,0,0,1,92.441-1.25,6.659,6.659,0,0,1,91.338-5.361Zm3.291.205q0,2.813,1.641,2.813a1.62,1.62,0,0,0,1.563-.918V-7.285a1.576,1.576,0,0,0-1.543-.937q-1.523,0-1.65,2.461ZM108.955,0a3.716,3.716,0,0,1-.312-.947A3.06,3.06,0,0,1,106.1.2a3.749,3.749,0,0,1-2.539-.9,2.875,2.875,0,0,1-1.045-2.271,2.955,2.955,0,0,1,1.27-2.6,6.468,6.468,0,0,1,3.691-.879H108.5v-.559q0-1.462-1.26-1.462a1.03,1.03,0,0,0-1.172,1.158h-3.291a2.95,2.95,0,0,1,1.3-2.487,5.479,5.479,0,0,1,3.325-.956,4.8,4.8,0,0,1,3.193.986,3.429,3.429,0,0,1,1.2,2.705v4.678a4.79,4.79,0,0,0,.449,2.227V0Zm-2.061-2.148a1.836,1.836,0,0,0,1.021-.264,1.653,1.653,0,0,0,.581-.6V-4.7h-.957q-1.719,0-1.719,1.543a.942.942,0,0,0,.3.728A1.1,1.1,0,0,0,106.895-2.148ZM113.2-5.361a6.455,6.455,0,0,1,1.084-3.955,3.568,3.568,0,0,1,3.027-1.445A3.035,3.035,0,0,1,119.7-9.648V-15H123V0h-2.959l-.166-1.133A3.116,3.116,0,0,1,117.295.2a3.562,3.562,0,0,1-2.988-1.445A6.659,6.659,0,0,1,113.2-5.361Zm3.291.205q0,2.813,1.641,2.813a1.62,1.62,0,0,0,1.563-.918V-7.285a1.576,1.576,0,0,0-1.543-.937q-1.523,0-1.65,2.461Z" transform="translate(976 928.5)" fill="#12263f"/>
    <path id="Trazado_174178" data-name="Trazado 174178" d="M8.408-3.779a1.408,1.408,0,0,0-.532-1.172,6.615,6.615,0,0,0-1.87-.869,17.941,17.941,0,0,1-2.187-.869Q1.055-8.047,1.055-10.42A3.345,3.345,0,0,1,1.743-12.5a4.453,4.453,0,0,1,1.948-1.406,7.582,7.582,0,0,1,2.832-.5,6.632,6.632,0,0,1,2.749.547,4.352,4.352,0,0,1,1.89,1.558A4.068,4.068,0,0,1,11.836-10H8.418a1.719,1.719,0,0,0-.532-1.348,2.075,2.075,0,0,0-1.44-.479A2.339,2.339,0,0,0,5-11.421a1.243,1.243,0,0,0-.532,1.03,1.252,1.252,0,0,0,.586.991,7.389,7.389,0,0,0,2.061.918A12.623,12.623,0,0,1,9.531-7.461a4.07,4.07,0,0,1,2.3,3.662A3.472,3.472,0,0,1,10.43-.869,6.255,6.255,0,0,1,6.572.2a7.653,7.653,0,0,1-3.13-.62,4.719,4.719,0,0,1-2.109-1.7A4.428,4.428,0,0,1,.625-4.609H4.063a2.181,2.181,0,0,0,.591,1.685,2.793,2.793,0,0,0,1.919.542,2.206,2.206,0,0,0,1.343-.366A1.209,1.209,0,0,0,8.408-3.779ZM18.555.2a5.432,5.432,0,0,1-3.936-1.45,5.008,5.008,0,0,1-1.5-3.774V-5.3a6.489,6.489,0,0,1,.6-2.861,4.395,4.395,0,0,1,1.753-1.919,5.292,5.292,0,0,1,2.734-.679A4.574,4.574,0,0,1,21.719-9.38a5.43,5.43,0,0,1,1.289,3.853v1.279H16.465a2.372,2.372,0,0,0,.771,1.4,2.3,2.3,0,0,0,1.543.508,2.958,2.958,0,0,0,2.441-1.094l1.5,1.777A4.2,4.2,0,0,1,20.981-.308,5.891,5.891,0,0,1,18.555.2Zm-.371-8.418q-1.445,0-1.719,1.914h3.32v-.254a1.63,1.63,0,0,0-.4-1.226A1.593,1.593,0,0,0,18.184-8.223Zm12.539.635-1.084-.078a1.947,1.947,0,0,0-1.992.977V0H24.355V-10.566h3.086l.107,1.357a2.548,2.548,0,0,1,2.314-1.553,3.209,3.209,0,0,1,.918.117ZM36.3-3.916l1.67-6.65h3.467L37.988,0H34.629L31.182-10.566h3.477ZM45.889,0h-3.3V-10.566h3.3Zm-3.5-13.3A1.482,1.482,0,0,1,42.9-14.46a1.909,1.909,0,0,1,1.318-.452,1.909,1.909,0,0,1,1.318.452,1.482,1.482,0,0,1,.508,1.159,1.482,1.482,0,0,1-.508,1.159,1.909,1.909,0,0,1-1.318.452,1.909,1.909,0,0,1-1.318-.452A1.482,1.482,0,0,1,42.393-13.3Zm9.99,10.957a1.464,1.464,0,0,0,1.074-.376,1.379,1.379,0,0,0,.371-1.05h3.086A3.653,3.653,0,0,1,55.669-.918,4.631,4.631,0,0,1,52.461.2,4.689,4.689,0,0,1,48.828-1.25a5.7,5.7,0,0,1-1.328-4v-.137a6.436,6.436,0,0,1,.591-2.827,4.3,4.3,0,0,1,1.7-1.885,5.081,5.081,0,0,1,2.637-.659A4.573,4.573,0,0,1,55.7-9.619a4.053,4.053,0,0,1,1.211,3.1H53.828a1.807,1.807,0,0,0-.4-1.26,1.382,1.382,0,0,0-1.074-.439q-1.279,0-1.494,1.631a11.507,11.507,0,0,0-.068,1.426,4.52,4.52,0,0,0,.381,2.207A1.319,1.319,0,0,0,52.383-2.344ZM61.777,0h-3.3V-10.566h3.3Zm-3.5-13.3a1.482,1.482,0,0,1,.508-1.159,1.909,1.909,0,0,1,1.318-.452,1.909,1.909,0,0,1,1.318.452,1.482,1.482,0,0,1,.508,1.159,1.482,1.482,0,0,1-.508,1.159,1.909,1.909,0,0,1-1.318.452,1.909,1.909,0,0,1-1.318-.452A1.482,1.482,0,0,1,58.281-13.3Zm5.107,7.92A6.236,6.236,0,0,1,64-8.2a4.4,4.4,0,0,1,1.768-1.9,5.323,5.323,0,0,1,2.705-.664,4.858,4.858,0,0,1,3.74,1.47,5.64,5.64,0,0,1,1.367,4v.117a5.472,5.472,0,0,1-1.372,3.921A4.871,4.871,0,0,1,68.5.2a4.927,4.927,0,0,1-3.623-1.353A5.29,5.29,0,0,1,63.4-4.824Zm3.291.205a3.932,3.932,0,0,0,.459,2.148,1.529,1.529,0,0,0,1.357.684q1.758,0,1.8-2.705v-.332q0-2.842-1.816-2.842-1.65,0-1.787,2.451ZM80.566-2.969a.76.76,0,0,0-.439-.674,6.685,6.685,0,0,0-1.67-.527,7.615,7.615,0,0,1-2.031-.718,3.4,3.4,0,0,1-1.221-1.079,2.577,2.577,0,0,1-.42-1.455,2.92,2.92,0,0,1,1.2-2.4,4.948,4.948,0,0,1,3.145-.942,5.482,5.482,0,0,1,3.359.947,2.962,2.962,0,0,1,1.27,2.49h-3.3q0-1.27-1.338-1.27a1.326,1.326,0,0,0-.869.288.892.892,0,0,0-.352.718.819.819,0,0,0,.43.713,4.06,4.06,0,0,0,1.372.449,11.857,11.857,0,0,1,1.655.42A3.007,3.007,0,0,1,83.74-3.066,2.767,2.767,0,0,1,82.456-.713,5.631,5.631,0,0,1,79.131.2a5.747,5.747,0,0,1-2.422-.488,4.05,4.05,0,0,1-1.66-1.328,3.007,3.007,0,0,1-.6-1.768h3.076a1.272,1.272,0,0,0,.488,1.069,2.009,2.009,0,0,0,1.2.337,1.58,1.58,0,0,0,1.011-.273A.875.875,0,0,0,80.566-2.969Z" transform="translate(976 1060.5)" fill="#fff"/>
    <path id="Trazado_174177" data-name="Trazado 174177" d="M12.236-11.572H7.969V0H4.541V-11.572H.352v-2.646H12.236ZM17.842,0a3.716,3.716,0,0,1-.312-.947A3.06,3.06,0,0,1,14.99.2a3.749,3.749,0,0,1-2.539-.9,2.875,2.875,0,0,1-1.045-2.271,2.955,2.955,0,0,1,1.27-2.6,6.468,6.468,0,0,1,3.691-.879h1.016v-.559q0-1.462-1.26-1.462a1.03,1.03,0,0,0-1.172,1.158H11.66a2.95,2.95,0,0,1,1.3-2.487,5.479,5.479,0,0,1,3.325-.956,4.8,4.8,0,0,1,3.193.986,3.429,3.429,0,0,1,1.2,2.705v4.678a4.79,4.79,0,0,0,.449,2.227V0ZM15.781-2.148A1.836,1.836,0,0,0,16.8-2.412a1.653,1.653,0,0,0,.581-.6V-4.7h-.957q-1.719,0-1.719,1.543a.942.942,0,0,0,.3.728A1.1,1.1,0,0,0,15.781-2.148Zm9.746-8.418.107,1.24a3.583,3.583,0,0,1,3.018-1.436,3.015,3.015,0,0,1,2.466.986,4.7,4.7,0,0,1,.845,2.969V0h-3.3V-6.67a1.783,1.783,0,0,0-.322-1.177,1.491,1.491,0,0,0-1.172-.376,1.569,1.569,0,0,0-1.436.762V0H22.441V-10.566ZM33.4-5.361a7.134,7.134,0,0,1,.527-2.832,4.245,4.245,0,0,1,1.514-1.9,3.99,3.99,0,0,1,2.295-.669,3.173,3.173,0,0,1,2.578,1.113l.117-.918h2.988V-.4a4.455,4.455,0,0,1-.649,2.427,4.167,4.167,0,0,1-1.88,1.582,6.91,6.91,0,0,1-2.852.552,5.961,5.961,0,0,1-2.251-.439,4.063,4.063,0,0,1-1.665-1.143L35.5.645A3.018,3.018,0,0,0,37.92,1.729,1.96,1.96,0,0,0,40.107-.518V-.85A3.09,3.09,0,0,1,37.715.2,3.819,3.819,0,0,1,34.59-1.284,6.13,6.13,0,0,1,33.4-5.244Zm3.3.205A3.759,3.759,0,0,0,37.188-3.1a1.541,1.541,0,0,0,1.367.757,1.748,1.748,0,0,0,1.553-.713V-7.5a1.7,1.7,0,0,0-1.533-.723,1.551,1.551,0,0,0-1.377.786A4.287,4.287,0,0,0,36.7-5.156ZM48.76,0h-3.3V-10.566h3.3Zm-3.5-13.3a1.482,1.482,0,0,1,.508-1.159,1.909,1.909,0,0,1,1.318-.452,1.909,1.909,0,0,1,1.318.452,1.482,1.482,0,0,1,.508,1.159,1.482,1.482,0,0,1-.508,1.159,1.909,1.909,0,0,1-1.318.452,1.909,1.909,0,0,1-1.318-.452A1.482,1.482,0,0,1,45.264-13.3ZM60.6-5.2A6.44,6.44,0,0,1,59.521-1.2,3.6,3.6,0,0,1,56.494.2a3.122,3.122,0,0,1-2.6-1.279L53.76,0H50.811V-15H54.1v5.283a3.013,3.013,0,0,1,2.373-1.045,3.6,3.6,0,0,1,3.047,1.416A6.473,6.473,0,0,1,60.6-5.361Zm-3.3-.21a4.3,4.3,0,0,0-.405-2.169,1.366,1.366,0,0,0-1.245-.648,1.576,1.576,0,0,0-1.543.848v4.192a1.585,1.585,0,0,0,1.563.838,1.4,1.4,0,0,0,1.475-1.131A8.121,8.121,0,0,0,57.295-5.405ZM65.518,0h-3.3V-10.566h3.3Zm-3.5-13.3a1.482,1.482,0,0,1,.508-1.159,1.909,1.909,0,0,1,1.318-.452,1.909,1.909,0,0,1,1.318.452,1.482,1.482,0,0,1,.508,1.159,1.482,1.482,0,0,1-.508,1.159,1.909,1.909,0,0,1-1.318.452,1.909,1.909,0,0,1-1.318-.452A1.482,1.482,0,0,1,62.021-13.3ZM71.016,0h-3.3V-15h3.3Zm5.5,0h-3.3V-10.566h3.3Zm-3.5-13.3a1.482,1.482,0,0,1,.508-1.159,1.909,1.909,0,0,1,1.318-.452,1.909,1.909,0,0,1,1.318.452A1.482,1.482,0,0,1,76.67-13.3a1.482,1.482,0,0,1-.508,1.159,1.909,1.909,0,0,1-1.318.452,1.909,1.909,0,0,1-1.318-.452A1.482,1.482,0,0,1,73.018-13.3Zm5.107,7.939a6.455,6.455,0,0,1,1.084-3.955,3.568,3.568,0,0,1,3.027-1.445,3.035,3.035,0,0,1,2.383,1.113V-15h3.3V0H84.961l-.166-1.133A3.116,3.116,0,0,1,82.217.2,3.562,3.562,0,0,1,79.229-1.25,6.659,6.659,0,0,1,78.125-5.361Zm3.291.205q0,2.813,1.641,2.813a1.62,1.62,0,0,0,1.563-.918V-7.285a1.576,1.576,0,0,0-1.543-.937q-1.523,0-1.65,2.461ZM95.742,0a3.716,3.716,0,0,1-.312-.947A3.06,3.06,0,0,1,92.891.2a3.749,3.749,0,0,1-2.539-.9,2.875,2.875,0,0,1-1.045-2.271,2.955,2.955,0,0,1,1.27-2.6,6.468,6.468,0,0,1,3.691-.879h1.016v-.559q0-1.462-1.26-1.462a1.03,1.03,0,0,0-1.172,1.158H89.561a2.95,2.95,0,0,1,1.3-2.487,5.479,5.479,0,0,1,3.325-.956,4.8,4.8,0,0,1,3.193.986,3.429,3.429,0,0,1,1.2,2.705v4.678a4.79,4.79,0,0,0,.449,2.227V0ZM93.682-2.148A1.836,1.836,0,0,0,94.7-2.412a1.653,1.653,0,0,0,.581-.6V-4.7h-.957q-1.719,0-1.719,1.543a.942.942,0,0,0,.3.728A1.1,1.1,0,0,0,93.682-2.148ZM99.99-5.361a6.455,6.455,0,0,1,1.084-3.955,3.568,3.568,0,0,1,3.027-1.445,3.035,3.035,0,0,1,2.383,1.113V-15h3.3V0h-2.959l-.166-1.133A3.116,3.116,0,0,1,104.082.2a3.562,3.562,0,0,1-2.988-1.445A6.659,6.659,0,0,1,99.99-5.361Zm3.291.205q0,2.813,1.641,2.813a1.62,1.62,0,0,0,1.563-.918V-7.285a1.576,1.576,0,0,0-1.543-.937q-1.523,0-1.65,2.461Z" transform="translate(976 1204)" fill="#12263f"/>
    <path id="Trazado_174183" data-name="Trazado 174183" d="M12.236-11.572H7.969V0H4.541V-11.572H.352v-2.646H12.236ZM17.842,0a3.716,3.716,0,0,1-.312-.947A3.06,3.06,0,0,1,14.99.2a3.749,3.749,0,0,1-2.539-.9,2.875,2.875,0,0,1-1.045-2.271,2.955,2.955,0,0,1,1.27-2.6,6.468,6.468,0,0,1,3.691-.879h1.016v-.559q0-1.462-1.26-1.462a1.03,1.03,0,0,0-1.172,1.158H11.66a2.95,2.95,0,0,1,1.3-2.487,5.479,5.479,0,0,1,3.325-.956,4.8,4.8,0,0,1,3.193.986,3.429,3.429,0,0,1,1.2,2.705v4.678a4.79,4.79,0,0,0,.449,2.227V0ZM15.781-2.148A1.836,1.836,0,0,0,16.8-2.412a1.653,1.653,0,0,0,.581-.6V-4.7h-.957q-1.719,0-1.719,1.543a.942.942,0,0,0,.3.728A1.1,1.1,0,0,0,15.781-2.148Zm9.746-8.418.107,1.24a3.583,3.583,0,0,1,3.018-1.436,3.015,3.015,0,0,1,2.466.986,4.7,4.7,0,0,1,.845,2.969V0h-3.3V-6.67a1.783,1.783,0,0,0-.322-1.177,1.491,1.491,0,0,0-1.172-.376,1.569,1.569,0,0,0-1.436.762V0H22.441V-10.566ZM33.4-5.361a7.134,7.134,0,0,1,.527-2.832,4.245,4.245,0,0,1,1.514-1.9,3.99,3.99,0,0,1,2.295-.669,3.173,3.173,0,0,1,2.578,1.113l.117-.918h2.988V-.4a4.455,4.455,0,0,1-.649,2.427,4.167,4.167,0,0,1-1.88,1.582,6.91,6.91,0,0,1-2.852.552,5.961,5.961,0,0,1-2.251-.439,4.063,4.063,0,0,1-1.665-1.143L35.5.645A3.018,3.018,0,0,0,37.92,1.729,1.96,1.96,0,0,0,40.107-.518V-.85A3.09,3.09,0,0,1,37.715.2,3.819,3.819,0,0,1,34.59-1.284,6.13,6.13,0,0,1,33.4-5.244Zm3.3.205A3.759,3.759,0,0,0,37.188-3.1a1.541,1.541,0,0,0,1.367.757,1.748,1.748,0,0,0,1.553-.713V-7.5a1.7,1.7,0,0,0-1.533-.723,1.551,1.551,0,0,0-1.377.786A4.287,4.287,0,0,0,36.7-5.156ZM48.76,0h-3.3V-10.566h3.3Zm-3.5-13.3a1.482,1.482,0,0,1,.508-1.159,1.909,1.909,0,0,1,1.318-.452,1.909,1.909,0,0,1,1.318.452,1.482,1.482,0,0,1,.508,1.159,1.482,1.482,0,0,1-.508,1.159,1.909,1.909,0,0,1-1.318.452,1.909,1.909,0,0,1-1.318-.452A1.482,1.482,0,0,1,45.264-13.3ZM60.6-5.2A6.44,6.44,0,0,1,59.521-1.2,3.6,3.6,0,0,1,56.494.2a3.122,3.122,0,0,1-2.6-1.279L53.76,0H50.811V-15H54.1v5.283a3.013,3.013,0,0,1,2.373-1.045,3.6,3.6,0,0,1,3.047,1.416A6.473,6.473,0,0,1,60.6-5.361Zm-3.3-.21a4.3,4.3,0,0,0-.405-2.169,1.366,1.366,0,0,0-1.245-.648,1.576,1.576,0,0,0-1.543.848v4.192a1.585,1.585,0,0,0,1.563.838,1.4,1.4,0,0,0,1.475-1.131A8.121,8.121,0,0,0,57.295-5.405ZM65.518,0h-3.3V-10.566h3.3Zm-3.5-13.3a1.482,1.482,0,0,1,.508-1.159,1.909,1.909,0,0,1,1.318-.452,1.909,1.909,0,0,1,1.318.452,1.482,1.482,0,0,1,.508,1.159,1.482,1.482,0,0,1-.508,1.159,1.909,1.909,0,0,1-1.318.452,1.909,1.909,0,0,1-1.318-.452A1.482,1.482,0,0,1,62.021-13.3ZM71.016,0h-3.3V-15h3.3Zm5.5,0h-3.3V-10.566h3.3Zm-3.5-13.3a1.482,1.482,0,0,1,.508-1.159,1.909,1.909,0,0,1,1.318-.452,1.909,1.909,0,0,1,1.318.452A1.482,1.482,0,0,1,76.67-13.3a1.482,1.482,0,0,1-.508,1.159,1.909,1.909,0,0,1-1.318.452,1.909,1.909,0,0,1-1.318-.452A1.482,1.482,0,0,1,73.018-13.3Zm5.107,7.939a6.455,6.455,0,0,1,1.084-3.955,3.568,3.568,0,0,1,3.027-1.445,3.035,3.035,0,0,1,2.383,1.113V-15h3.3V0H84.961l-.166-1.133A3.116,3.116,0,0,1,82.217.2,3.562,3.562,0,0,1,79.229-1.25,6.659,6.659,0,0,1,78.125-5.361Zm3.291.205q0,2.813,1.641,2.813a1.62,1.62,0,0,0,1.563-.918V-7.285a1.576,1.576,0,0,0-1.543-.937q-1.523,0-1.65,2.461ZM95.742,0a3.716,3.716,0,0,1-.312-.947A3.06,3.06,0,0,1,92.891.2a3.749,3.749,0,0,1-2.539-.9,2.875,2.875,0,0,1-1.045-2.271,2.955,2.955,0,0,1,1.27-2.6,6.468,6.468,0,0,1,3.691-.879h1.016v-.559q0-1.462-1.26-1.462a1.03,1.03,0,0,0-1.172,1.158H89.561a2.95,2.95,0,0,1,1.3-2.487,5.479,5.479,0,0,1,3.325-.956,4.8,4.8,0,0,1,3.193.986,3.429,3.429,0,0,1,1.2,2.705v4.678a4.79,4.79,0,0,0,.449,2.227V0ZM93.682-2.148A1.836,1.836,0,0,0,94.7-2.412a1.653,1.653,0,0,0,.581-.6V-4.7h-.957q-1.719,0-1.719,1.543a.942.942,0,0,0,.3.728A1.1,1.1,0,0,0,93.682-2.148ZM99.99-5.361a6.455,6.455,0,0,1,1.084-3.955,3.568,3.568,0,0,1,3.027-1.445,3.035,3.035,0,0,1,2.383,1.113V-15h3.3V0h-2.959l-.166-1.133A3.116,3.116,0,0,1,104.082.2a3.562,3.562,0,0,1-2.988-1.445A6.659,6.659,0,0,1,99.99-5.361Zm3.291.205q0,2.813,1.641,2.813a1.62,1.62,0,0,0,1.563-.918V-7.285a1.576,1.576,0,0,0-1.543-.937q-1.523,0-1.65,2.461Z" transform="translate(502 928.5)" fill="#12263f"/>
    <path id="Trazado_174184" data-name="Trazado 174184" d="M4.5-4.824V0H1.074V-14.219H6.748a6.608,6.608,0,0,1,2.886.6,4.526,4.526,0,0,1,1.943,1.709,4.667,4.667,0,0,1,.688,2.515,4.114,4.114,0,0,1-1.489,3.325A6.179,6.179,0,0,1,6.689-4.824Zm0-2.646H6.748a2.118,2.118,0,0,0,1.519-.5,1.85,1.85,0,0,0,.522-1.406,2.287,2.287,0,0,0-.537-1.592,1.9,1.9,0,0,0-1.465-.605H4.5Zm15.83-.117-1.084-.078a1.947,1.947,0,0,0-1.992.977V0H13.965V-10.566h3.086l.107,1.357a2.548,2.548,0,0,1,2.314-1.553,3.209,3.209,0,0,1,.918.117Zm.42,2.207A6.236,6.236,0,0,1,21.367-8.2a4.4,4.4,0,0,1,1.768-1.9,5.323,5.323,0,0,1,2.705-.664,4.858,4.858,0,0,1,3.74,1.47,5.64,5.64,0,0,1,1.367,4v.117a5.472,5.472,0,0,1-1.372,3.921A4.871,4.871,0,0,1,25.859.2a4.927,4.927,0,0,1-3.623-1.353,5.29,5.29,0,0,1-1.475-3.667Zm3.291.205A3.932,3.932,0,0,0,24.5-3.027a1.529,1.529,0,0,0,1.357.684q1.758,0,1.8-2.705v-.332q0-2.842-1.816-2.842-1.65,0-1.787,2.451Zm7.939-.186a6.455,6.455,0,0,1,1.084-3.955,3.568,3.568,0,0,1,3.027-1.445,3.035,3.035,0,0,1,2.383,1.113V-15h3.3V0H38.818l-.166-1.133A3.116,3.116,0,0,1,36.074.2,3.562,3.562,0,0,1,33.086-1.25,6.659,6.659,0,0,1,31.982-5.361Zm3.291.205q0,2.813,1.641,2.813a1.62,1.62,0,0,0,1.563-.918V-7.285a1.576,1.576,0,0,0-1.543-.937q-1.523,0-1.65,2.461ZM49.941-1.143A3.393,3.393,0,0,1,47.119.2,3.328,3.328,0,0,1,44.487-.815a4.251,4.251,0,0,1-.894-2.905v-6.846h3.291V-3.7A1.183,1.183,0,0,0,48.2-2.344a1.72,1.72,0,0,0,1.611-.811v-7.412h3.311V0H50.039Zm9.453-1.2a1.464,1.464,0,0,0,1.074-.376,1.379,1.379,0,0,0,.371-1.05h3.086A3.653,3.653,0,0,1,62.681-.918,4.631,4.631,0,0,1,59.473.2,4.689,4.689,0,0,1,55.84-1.25a5.7,5.7,0,0,1-1.328-4v-.137A6.436,6.436,0,0,1,55.1-8.218a4.3,4.3,0,0,1,1.7-1.885,5.081,5.081,0,0,1,2.637-.659,4.573,4.573,0,0,1,3.271,1.143,4.053,4.053,0,0,1,1.211,3.1H60.84a1.807,1.807,0,0,0-.4-1.26,1.382,1.382,0,0,0-1.074-.439q-1.279,0-1.494,1.631A11.507,11.507,0,0,0,57.8-5.166a4.52,4.52,0,0,0,.381,2.207A1.319,1.319,0,0,0,59.395-2.344Zm9.756-10.85v2.627h1.738v2.285H69.15v4.834a1.234,1.234,0,0,0,.215.83,1.152,1.152,0,0,0,.85.234,4.828,4.828,0,0,0,.82-.059V-.088A6.074,6.074,0,0,1,69.18.2a3.448,3.448,0,0,1-2.51-.8,3.282,3.282,0,0,1-.811-2.432V-8.281H64.512v-2.285h1.348v-2.627Zm2.324,7.813A6.236,6.236,0,0,1,72.09-8.2a4.4,4.4,0,0,1,1.768-1.9,5.323,5.323,0,0,1,2.705-.664,4.858,4.858,0,0,1,3.74,1.47,5.64,5.64,0,0,1,1.367,4v.117A5.472,5.472,0,0,1,80.3-1.255,4.871,4.871,0,0,1,76.582.2a4.927,4.927,0,0,1-3.623-1.353,5.29,5.29,0,0,1-1.475-3.667Zm3.291.205a3.932,3.932,0,0,0,.459,2.148,1.529,1.529,0,0,0,1.357.684q1.758,0,1.8-2.705v-.332q0-2.842-1.816-2.842-1.65,0-1.787,2.451ZM88.652-2.969a.76.76,0,0,0-.439-.674,6.685,6.685,0,0,0-1.67-.527,7.615,7.615,0,0,1-2.031-.718,3.4,3.4,0,0,1-1.221-1.079,2.577,2.577,0,0,1-.42-1.455,2.92,2.92,0,0,1,1.2-2.4,4.948,4.948,0,0,1,3.145-.942,5.482,5.482,0,0,1,3.359.947,2.962,2.962,0,0,1,1.27,2.49h-3.3q0-1.27-1.338-1.27a1.326,1.326,0,0,0-.869.288.892.892,0,0,0-.352.718.819.819,0,0,0,.43.713,4.06,4.06,0,0,0,1.372.449,11.857,11.857,0,0,1,1.655.42,3.007,3.007,0,0,1,2.383,2.939A2.767,2.767,0,0,1,90.542-.713,5.631,5.631,0,0,1,87.217.2a5.747,5.747,0,0,1-2.422-.488,4.05,4.05,0,0,1-1.66-1.328,3.007,3.007,0,0,1-.6-1.768h3.076A1.272,1.272,0,0,0,86.1-2.319a2.009,2.009,0,0,0,1.2.337,1.58,1.58,0,0,0,1.011-.273A.875.875,0,0,0,88.652-2.969Z" transform="translate(502 1060.5)" fill="#fff"/>
    <path id="Trazado_174185" data-name="Trazado 174185" d="M4.727,0H1.309V-14.219H4.727ZM9.98-10.566l.107,1.24a3.583,3.583,0,0,1,3.018-1.436,3.015,3.015,0,0,1,2.466.986,4.7,4.7,0,0,1,.845,2.969V0h-3.3V-6.67a1.783,1.783,0,0,0-.322-1.177,1.491,1.491,0,0,0-1.172-.376,1.569,1.569,0,0,0-1.436.762V0H6.895V-10.566Zm12.09-2.627v2.627h1.738v2.285H22.07v4.834a1.234,1.234,0,0,0,.215.83,1.152,1.152,0,0,0,.85.234,4.828,4.828,0,0,0,.82-.059V-.088A6.074,6.074,0,0,1,22.1.2a3.448,3.448,0,0,1-2.51-.8,3.282,3.282,0,0,1-.811-2.432V-8.281H17.432v-2.285h1.348v-2.627ZM31.055,0a3.716,3.716,0,0,1-.312-.947A3.06,3.06,0,0,1,28.2.2a3.749,3.749,0,0,1-2.539-.9,2.875,2.875,0,0,1-1.045-2.271,2.955,2.955,0,0,1,1.27-2.6,6.468,6.468,0,0,1,3.691-.879H30.6v-.559q0-1.462-1.26-1.462a1.03,1.03,0,0,0-1.172,1.158H24.873a2.95,2.95,0,0,1,1.3-2.487,5.479,5.479,0,0,1,3.325-.956,4.8,4.8,0,0,1,3.193.986A3.429,3.429,0,0,1,33.9-7.07v4.678a4.79,4.79,0,0,0,.449,2.227V0ZM28.994-2.148a1.836,1.836,0,0,0,1.021-.264,1.653,1.653,0,0,0,.581-.6V-4.7h-.957q-1.719,0-1.719,1.543a.942.942,0,0,0,.3.728A1.1,1.1,0,0,0,28.994-2.148Zm9.746-8.418.107,1.24a3.583,3.583,0,0,1,3.018-1.436,3.015,3.015,0,0,1,2.466.986,4.7,4.7,0,0,1,.845,2.969V0h-3.3V-6.67a1.783,1.783,0,0,0-.322-1.177,1.491,1.491,0,0,0-1.172-.376,1.569,1.569,0,0,0-1.436.762V0H35.654V-10.566Zm7.871,5.205a7.134,7.134,0,0,1,.527-2.832,4.245,4.245,0,0,1,1.514-1.9,3.99,3.99,0,0,1,2.295-.669,3.173,3.173,0,0,1,2.578,1.113l.117-.918h2.988V-.4a4.455,4.455,0,0,1-.649,2.427A4.167,4.167,0,0,1,54.1,3.608a6.91,6.91,0,0,1-2.852.552A5.961,5.961,0,0,1,49,3.721a4.063,4.063,0,0,1-1.665-1.143L48.711.645a3.018,3.018,0,0,0,2.422,1.084A1.96,1.96,0,0,0,53.32-.518V-.85A3.09,3.09,0,0,1,50.928.2,3.819,3.819,0,0,1,47.8-1.284a6.13,6.13,0,0,1-1.191-3.96Zm3.3.205A3.759,3.759,0,0,0,50.4-3.1a1.541,1.541,0,0,0,1.367.757,1.748,1.748,0,0,0,1.553-.713V-7.5a1.7,1.7,0,0,0-1.533-.723,1.551,1.551,0,0,0-1.377.786A4.287,4.287,0,0,0,49.912-5.156ZM61.973,0h-3.3V-10.566h3.3Zm-3.5-13.3a1.482,1.482,0,0,1,.508-1.159,1.909,1.909,0,0,1,1.318-.452,1.909,1.909,0,0,1,1.318.452,1.482,1.482,0,0,1,.508,1.159,1.482,1.482,0,0,1-.508,1.159,1.909,1.909,0,0,1-1.318.452,1.909,1.909,0,0,1-1.318-.452A1.482,1.482,0,0,1,58.477-13.3ZM73.809-5.2A6.44,6.44,0,0,1,72.734-1.2,3.6,3.6,0,0,1,69.707.2a3.122,3.122,0,0,1-2.6-1.279L66.973,0H64.023V-15h3.291v5.283a3.013,3.013,0,0,1,2.373-1.045,3.6,3.6,0,0,1,3.047,1.416,6.473,6.473,0,0,1,1.074,3.984Zm-3.3-.21A4.3,4.3,0,0,0,70.1-7.574a1.366,1.366,0,0,0-1.245-.648,1.576,1.576,0,0,0-1.543.848v4.192a1.585,1.585,0,0,0,1.563.838,1.4,1.4,0,0,0,1.475-1.131A8.121,8.121,0,0,0,70.508-5.405ZM78.73,0h-3.3V-10.566h3.3Zm-3.5-13.3a1.482,1.482,0,0,1,.508-1.159,1.909,1.909,0,0,1,1.318-.452,1.909,1.909,0,0,1,1.318.452,1.482,1.482,0,0,1,.508,1.159,1.482,1.482,0,0,1-.508,1.159,1.909,1.909,0,0,1-1.318.452,1.909,1.909,0,0,1-1.318-.452A1.482,1.482,0,0,1,75.234-13.3ZM84.229,0h-3.3V-15h3.3Zm5.5,0h-3.3V-10.566h3.3Zm-3.5-13.3a1.482,1.482,0,0,1,.508-1.159,1.909,1.909,0,0,1,1.318-.452,1.909,1.909,0,0,1,1.318.452,1.482,1.482,0,0,1,.508,1.159,1.482,1.482,0,0,1-.508,1.159,1.909,1.909,0,0,1-1.318.452,1.909,1.909,0,0,1-1.318-.452A1.482,1.482,0,0,1,86.23-13.3Zm5.107,7.939a6.455,6.455,0,0,1,1.084-3.955,3.568,3.568,0,0,1,3.027-1.445,3.035,3.035,0,0,1,2.383,1.113V-15h3.3V0H98.174l-.166-1.133A3.116,3.116,0,0,1,95.43.2,3.562,3.562,0,0,1,92.441-1.25,6.659,6.659,0,0,1,91.338-5.361Zm3.291.205q0,2.813,1.641,2.813a1.62,1.62,0,0,0,1.563-.918V-7.285a1.576,1.576,0,0,0-1.543-.937q-1.523,0-1.65,2.461ZM108.955,0a3.716,3.716,0,0,1-.312-.947A3.06,3.06,0,0,1,106.1.2a3.749,3.749,0,0,1-2.539-.9,2.875,2.875,0,0,1-1.045-2.271,2.955,2.955,0,0,1,1.27-2.6,6.468,6.468,0,0,1,3.691-.879H108.5v-.559q0-1.462-1.26-1.462a1.03,1.03,0,0,0-1.172,1.158h-3.291a2.95,2.95,0,0,1,1.3-2.487,5.479,5.479,0,0,1,3.325-.956,4.8,4.8,0,0,1,3.193.986,3.429,3.429,0,0,1,1.2,2.705v4.678a4.79,4.79,0,0,0,.449,2.227V0Zm-2.061-2.148a1.836,1.836,0,0,0,1.021-.264,1.653,1.653,0,0,0,.581-.6V-4.7h-.957q-1.719,0-1.719,1.543a.942.942,0,0,0,.3.728A1.1,1.1,0,0,0,106.895-2.148ZM113.2-5.361a6.455,6.455,0,0,1,1.084-3.955,3.568,3.568,0,0,1,3.027-1.445A3.035,3.035,0,0,1,119.7-9.648V-15H123V0h-2.959l-.166-1.133A3.116,3.116,0,0,1,117.295.2a3.562,3.562,0,0,1-2.988-1.445A6.659,6.659,0,0,1,113.2-5.361Zm3.291.205q0,2.813,1.641,2.813a1.62,1.62,0,0,0,1.563-.918V-7.285a1.576,1.576,0,0,0-1.543-.937q-1.523,0-1.65,2.461Z" transform="translate(502 1204)" fill="#12263f"/>
  </g>
</svg>
