<svg xmlns="http://www.w3.org/2000/svg" width="313" height="226.244" viewBox="0 0 313 226.244">
  <g id="Grupo_119326" data-name="Grupo 119326" transform="translate(-644 -2536)">
    <g id="Grupo_78302" data-name="Grupo 78302" transform="translate(420 -3672.757)">
      <path id="Rectángulo_34846" data-name="Rectángulo 34846" d="M0,0H271a42,42,0,0,1,42,42V163a0,0,0,0,1,0,0H42A42,42,0,0,1,0,121V0A0,0,0,0,1,0,0Z" transform="translate(224 6272)" fill="#5c22c3"/>
      <g id="Grupo_78301" data-name="Grupo 78301" transform="translate(-600.229 6092)">
        <path id="Trazado_145968" data-name="Trazado 145968" d="M43.541,0A43.541,43.541,0,1,1,0,43.541,43.541,43.541,0,0,1,43.541,0Z" transform="translate(1042.117 249.115)" fill="#64b5f6" opacity="0.444" style="mix-blend-mode: multiply;isolation: isolate"/>
        <path id="Trazado_145969" data-name="Trazado 145969" d="M29.752,0A29.752,29.752,0,1,1,0,29.752,29.752,29.752,0,0,1,29.752,0Z" transform="translate(850.556 127.8)" fill="#64b5f6" opacity="0.444" style="mix-blend-mode: multiply;isolation: isolate"/>
        <rect id="Rectángulo_34812" data-name="Rectángulo 34812" width="309.662" height="222.853" transform="translate(826.229 116.756)" fill="none"/>
        <path id="Trazado_145971" data-name="Trazado 145971" d="M8.18,0A8.18,8.18,0,1,1,0,8.18,8.18,8.18,0,0,1,8.18,0Z" transform="translate(858.547 307.038)" fill="#64b5f6" opacity="0.444" style="mix-blend-mode: multiply;isolation: isolate"/>
        <g id="Grupo_78276" data-name="Grupo 78276" transform="translate(1062.666 279.633)">
          <g id="Grupo_53306" data-name="Grupo 53306" transform="translate(0)">
            <path id="Trazado_99200" data-name="Trazado 99200" d="M415.4,50.789a.592.592,0,1,1-.592-.565A.579.579,0,0,1,415.4,50.789Z" transform="translate(-414.214 -50.224)" fill="#fff"/>
            <path id="Trazado_99201" data-name="Trazado 99201" d="M423.842,50.789a.592.592,0,1,1-.591-.565A.579.579,0,0,1,423.842,50.789Z" transform="translate(-417.339 -50.224)" fill="#fff"/>
            <path id="Trazado_99202" data-name="Trazado 99202" d="M432.288,50.789a.592.592,0,1,1-.591-.565A.579.579,0,0,1,432.288,50.789Z" transform="translate(-420.464 -50.224)" fill="#fff"/>
            <path id="Trazado_99203" data-name="Trazado 99203" d="M440.736,50.789a.592.592,0,1,1-.592-.565A.579.579,0,0,1,440.736,50.789Z" transform="translate(-423.59 -50.224)" fill="#fff"/>
            <path id="Trazado_99204" data-name="Trazado 99204" d="M449.181,50.789a.592.592,0,1,1-.591-.565A.579.579,0,0,1,449.181,50.789Z" transform="translate(-426.715 -50.224)" fill="#fff"/>
            <path id="Trazado_99205" data-name="Trazado 99205" d="M457.627,50.789a.592.592,0,1,1-.591-.565A.579.579,0,0,1,457.627,50.789Z" transform="translate(-429.84 -50.224)" fill="#fff"/>
            <path id="Trazado_99206" data-name="Trazado 99206" d="M466.075,50.789a.592.592,0,1,1-.592-.565A.579.579,0,0,1,466.075,50.789Z" transform="translate(-432.965 -50.224)" fill="#fff"/>
            <path id="Trazado_99207" data-name="Trazado 99207" d="M474.521,50.789a.592.592,0,1,1-.591-.565A.579.579,0,0,1,474.521,50.789Z" transform="translate(-436.09 -50.224)" fill="#fff"/>
            <path id="Trazado_99208" data-name="Trazado 99208" d="M482.966,50.789a.592.592,0,1,1-.591-.565A.579.579,0,0,1,482.966,50.789Z" transform="translate(-439.215 -50.224)" fill="#fff"/>
            <path id="Trazado_99209" data-name="Trazado 99209" d="M491.414,50.789a.592.592,0,1,1-.592-.565A.579.579,0,0,1,491.414,50.789Z" transform="translate(-442.341 -50.224)" fill="#fff"/>
            <path id="Trazado_99210" data-name="Trazado 99210" d="M499.86,50.789a.592.592,0,1,1-.592-.565A.579.579,0,0,1,499.86,50.789Z" transform="translate(-445.466 -50.224)" fill="#fff"/>
          </g>
          <g id="Grupo_53307" data-name="Grupo 53307" transform="translate(0 4.523)">
            <path id="Trazado_99211" data-name="Trazado 99211" d="M415.4,58.3a.592.592,0,1,1-.592-.565A.579.579,0,0,1,415.4,58.3Z" transform="translate(-414.214 -57.732)" fill="#fff"/>
            <path id="Trazado_99212" data-name="Trazado 99212" d="M423.842,58.3a.592.592,0,1,1-.591-.565A.579.579,0,0,1,423.842,58.3Z" transform="translate(-417.339 -57.732)" fill="#fff"/>
            <path id="Trazado_99213" data-name="Trazado 99213" d="M432.288,58.3a.592.592,0,1,1-.591-.565A.579.579,0,0,1,432.288,58.3Z" transform="translate(-420.464 -57.732)" fill="#fff"/>
            <path id="Trazado_99214" data-name="Trazado 99214" d="M440.736,58.3a.592.592,0,1,1-.592-.565A.579.579,0,0,1,440.736,58.3Z" transform="translate(-423.59 -57.732)" fill="#fff"/>
            <path id="Trazado_99215" data-name="Trazado 99215" d="M449.181,58.3a.592.592,0,1,1-.591-.565A.579.579,0,0,1,449.181,58.3Z" transform="translate(-426.715 -57.732)" fill="#fff"/>
            <path id="Trazado_99216" data-name="Trazado 99216" d="M457.627,58.3a.592.592,0,1,1-.591-.565A.579.579,0,0,1,457.627,58.3Z" transform="translate(-429.84 -57.732)" fill="#fff"/>
            <path id="Trazado_99217" data-name="Trazado 99217" d="M466.075,58.3a.592.592,0,1,1-.592-.565A.579.579,0,0,1,466.075,58.3Z" transform="translate(-432.965 -57.732)" fill="#fff"/>
            <path id="Trazado_99218" data-name="Trazado 99218" d="M474.521,58.3a.592.592,0,1,1-.591-.565A.579.579,0,0,1,474.521,58.3Z" transform="translate(-436.09 -57.732)" fill="#fff"/>
            <path id="Trazado_99219" data-name="Trazado 99219" d="M482.966,58.3a.592.592,0,1,1-.591-.565A.579.579,0,0,1,482.966,58.3Z" transform="translate(-439.215 -57.732)" fill="#fff"/>
            <path id="Trazado_99220" data-name="Trazado 99220" d="M491.414,58.3a.592.592,0,1,1-.592-.565A.579.579,0,0,1,491.414,58.3Z" transform="translate(-442.341 -57.732)" fill="#fff"/>
            <path id="Trazado_99221" data-name="Trazado 99221" d="M499.86,58.3a.592.592,0,1,1-.592-.565A.579.579,0,0,1,499.86,58.3Z" transform="translate(-445.466 -57.732)" fill="#fff"/>
          </g>
          <g id="Grupo_53308" data-name="Grupo 53308" transform="translate(0 9.047)">
            <ellipse id="Elipse_3955" data-name="Elipse 3955" cx="0.591" cy="0.565" rx="0.591" ry="0.565" fill="#fff"/>
            <path id="Trazado_99222" data-name="Trazado 99222" d="M423.842,65.805a.592.592,0,1,1-.591-.565A.579.579,0,0,1,423.842,65.805Z" transform="translate(-417.339 -65.24)" fill="#fff"/>
            <ellipse id="Elipse_3956" data-name="Elipse 3956" cx="0.591" cy="0.565" rx="0.591" ry="0.565" transform="translate(10.642)" fill="#fff"/>
            <path id="Trazado_99223" data-name="Trazado 99223" d="M440.736,65.805a.592.592,0,1,1-.592-.565A.579.579,0,0,1,440.736,65.805Z" transform="translate(-423.589 -65.24)" fill="#fff"/>
            <path id="Trazado_99224" data-name="Trazado 99224" d="M449.181,65.805a.592.592,0,1,1-.591-.565A.579.579,0,0,1,449.181,65.805Z" transform="translate(-426.715 -65.24)" fill="#fff"/>
            <ellipse id="Elipse_3957" data-name="Elipse 3957" cx="0.591" cy="0.565" rx="0.591" ry="0.565" transform="translate(26.606)" fill="#fff"/>
            <path id="Trazado_99225" data-name="Trazado 99225" d="M466.075,65.805a.592.592,0,1,1-.592-.565A.58.58,0,0,1,466.075,65.805Z" transform="translate(-432.965 -65.24)" fill="#fff"/>
            <ellipse id="Elipse_3958" data-name="Elipse 3958" cx="0.591" cy="0.565" rx="0.591" ry="0.565" transform="translate(37.248)" fill="#fff"/>
            <ellipse id="Elipse_3959" data-name="Elipse 3959" cx="0.591" cy="0.565" rx="0.591" ry="0.565" transform="translate(42.569)" fill="#fff"/>
            <path id="Trazado_99226" data-name="Trazado 99226" d="M491.414,65.805a.592.592,0,1,1-.592-.565A.58.58,0,0,1,491.414,65.805Z" transform="translate(-442.341 -65.24)" fill="#fff"/>
            <path id="Trazado_99227" data-name="Trazado 99227" d="M499.86,65.805a.592.592,0,1,1-.592-.565A.579.579,0,0,1,499.86,65.805Z" transform="translate(-445.466 -65.24)" fill="#fff"/>
          </g>
          <g id="Grupo_53309" data-name="Grupo 53309" transform="translate(0 13.57)">
            <ellipse id="Elipse_3960" data-name="Elipse 3960" cx="0.591" cy="0.565" rx="0.591" ry="0.565" transform="translate(0 0)" fill="#fff"/>
            <path id="Trazado_99228" data-name="Trazado 99228" d="M423.842,73.313a.592.592,0,1,1-.591-.566A.578.578,0,0,1,423.842,73.313Z" transform="translate(-417.339 -72.747)" fill="#fff"/>
            <ellipse id="Elipse_3961" data-name="Elipse 3961" cx="0.591" cy="0.565" rx="0.591" ry="0.565" transform="translate(10.642 0)" fill="#fff"/>
            <path id="Trazado_99229" data-name="Trazado 99229" d="M440.736,73.313a.592.592,0,1,1-.592-.566A.579.579,0,0,1,440.736,73.313Z" transform="translate(-423.589 -72.747)" fill="#fff"/>
            <path id="Trazado_99230" data-name="Trazado 99230" d="M449.181,73.313a.592.592,0,1,1-.591-.566A.579.579,0,0,1,449.181,73.313Z" transform="translate(-426.715 -72.747)" fill="#fff"/>
            <ellipse id="Elipse_3962" data-name="Elipse 3962" cx="0.591" cy="0.565" rx="0.591" ry="0.565" transform="translate(26.606 0)" fill="#fff"/>
            <path id="Trazado_99231" data-name="Trazado 99231" d="M466.075,73.313a.592.592,0,1,1-.592-.566A.579.579,0,0,1,466.075,73.313Z" transform="translate(-432.965 -72.747)" fill="#fff"/>
            <ellipse id="Elipse_3963" data-name="Elipse 3963" cx="0.591" cy="0.565" rx="0.591" ry="0.565" transform="translate(37.248 0)" fill="#fff"/>
            <ellipse id="Elipse_3964" data-name="Elipse 3964" cx="0.591" cy="0.565" rx="0.591" ry="0.565" transform="translate(42.569 0)" fill="#fff"/>
            <path id="Trazado_99232" data-name="Trazado 99232" d="M491.414,73.313a.592.592,0,1,1-.592-.566A.579.579,0,0,1,491.414,73.313Z" transform="translate(-442.341 -72.747)" fill="#fff"/>
            <path id="Trazado_99233" data-name="Trazado 99233" d="M499.86,73.313a.592.592,0,1,1-.592-.566A.579.579,0,0,1,499.86,73.313Z" transform="translate(-445.466 -72.747)" fill="#fff"/>
          </g>
          <g id="Grupo_53310" data-name="Grupo 53310" transform="translate(0 18.093)">
            <path id="Trazado_99234" data-name="Trazado 99234" d="M415.4,80.821a.592.592,0,1,1-.592-.566A.579.579,0,0,1,415.4,80.821Z" transform="translate(-414.214 -80.255)" fill="#fff"/>
            <path id="Trazado_99235" data-name="Trazado 99235" d="M423.842,80.821a.592.592,0,1,1-.591-.566A.578.578,0,0,1,423.842,80.821Z" transform="translate(-417.339 -80.255)" fill="#fff"/>
            <path id="Trazado_99236" data-name="Trazado 99236" d="M432.288,80.821a.592.592,0,1,1-.591-.566A.578.578,0,0,1,432.288,80.821Z" transform="translate(-420.464 -80.255)" fill="#fff"/>
            <path id="Trazado_99237" data-name="Trazado 99237" d="M440.736,80.821a.592.592,0,1,1-.592-.566A.579.579,0,0,1,440.736,80.821Z" transform="translate(-423.59 -80.255)" fill="#fff"/>
            <path id="Trazado_99238" data-name="Trazado 99238" d="M449.181,80.821a.592.592,0,1,1-.591-.566A.579.579,0,0,1,449.181,80.821Z" transform="translate(-426.715 -80.255)" fill="#fff"/>
            <path id="Trazado_99239" data-name="Trazado 99239" d="M457.627,80.821a.592.592,0,1,1-.591-.566A.578.578,0,0,1,457.627,80.821Z" transform="translate(-429.84 -80.255)" fill="#fff"/>
            <path id="Trazado_99240" data-name="Trazado 99240" d="M466.075,80.821a.592.592,0,1,1-.592-.566A.579.579,0,0,1,466.075,80.821Z" transform="translate(-432.965 -80.255)" fill="#fff"/>
            <path id="Trazado_99241" data-name="Trazado 99241" d="M474.521,80.821a.592.592,0,1,1-.591-.566A.578.578,0,0,1,474.521,80.821Z" transform="translate(-436.09 -80.255)" fill="#fff"/>
            <path id="Trazado_99242" data-name="Trazado 99242" d="M482.966,80.821a.592.592,0,1,1-.591-.566A.579.579,0,0,1,482.966,80.821Z" transform="translate(-439.215 -80.255)" fill="#fff"/>
            <path id="Trazado_99243" data-name="Trazado 99243" d="M491.414,80.821a.592.592,0,1,1-.592-.566A.579.579,0,0,1,491.414,80.821Z" transform="translate(-442.341 -80.255)" fill="#fff"/>
            <path id="Trazado_99244" data-name="Trazado 99244" d="M499.86,80.821a.592.592,0,1,1-.592-.566A.579.579,0,0,1,499.86,80.821Z" transform="translate(-445.466 -80.255)" fill="#fff"/>
          </g>
          <g id="Grupo_53311" data-name="Grupo 53311" transform="translate(0 22.616)">
            <ellipse id="Elipse_3965" data-name="Elipse 3965" cx="0.591" cy="0.565" rx="0.591" ry="0.565" transform="translate(0 0)" fill="#fff"/>
            <path id="Trazado_99245" data-name="Trazado 99245" d="M423.842,88.329a.592.592,0,1,1-.591-.566A.578.578,0,0,1,423.842,88.329Z" transform="translate(-417.339 -87.763)" fill="#fff"/>
            <ellipse id="Elipse_3966" data-name="Elipse 3966" cx="0.591" cy="0.565" rx="0.591" ry="0.565" transform="translate(10.642 0)" fill="#fff"/>
            <path id="Trazado_99246" data-name="Trazado 99246" d="M440.736,88.329a.592.592,0,1,1-.592-.566A.579.579,0,0,1,440.736,88.329Z" transform="translate(-423.589 -87.763)" fill="#fff"/>
            <path id="Trazado_99247" data-name="Trazado 99247" d="M449.181,88.329a.592.592,0,1,1-.591-.566A.579.579,0,0,1,449.181,88.329Z" transform="translate(-426.715 -87.763)" fill="#fff"/>
            <ellipse id="Elipse_3967" data-name="Elipse 3967" cx="0.591" cy="0.565" rx="0.591" ry="0.565" transform="translate(26.606 0)" fill="#fff"/>
            <path id="Trazado_99248" data-name="Trazado 99248" d="M466.075,88.329a.592.592,0,1,1-.592-.566A.579.579,0,0,1,466.075,88.329Z" transform="translate(-432.965 -87.763)" fill="#fff"/>
            <ellipse id="Elipse_3968" data-name="Elipse 3968" cx="0.591" cy="0.565" rx="0.591" ry="0.565" transform="translate(37.248 0)" fill="#fff"/>
            <ellipse id="Elipse_3969" data-name="Elipse 3969" cx="0.591" cy="0.565" rx="0.591" ry="0.565" transform="translate(42.569 0)" fill="#fff"/>
            <path id="Trazado_99249" data-name="Trazado 99249" d="M491.414,88.329a.592.592,0,1,1-.592-.566A.579.579,0,0,1,491.414,88.329Z" transform="translate(-442.341 -87.763)" fill="#fff"/>
            <path id="Trazado_99250" data-name="Trazado 99250" d="M499.86,88.329a.592.592,0,1,1-.592-.566A.579.579,0,0,1,499.86,88.329Z" transform="translate(-445.466 -87.763)" fill="#fff"/>
          </g>
          <g id="Grupo_53312" data-name="Grupo 53312" transform="translate(0 27.14)">
            <ellipse id="Elipse_3970" data-name="Elipse 3970" cx="0.591" cy="0.565" rx="0.591" ry="0.565" fill="#fff"/>
            <path id="Trazado_99251" data-name="Trazado 99251" d="M423.842,95.836a.592.592,0,1,1-.591-.565A.579.579,0,0,1,423.842,95.836Z" transform="translate(-417.339 -95.271)" fill="#fff"/>
            <ellipse id="Elipse_3971" data-name="Elipse 3971" cx="0.591" cy="0.565" rx="0.591" ry="0.565" transform="translate(10.642)" fill="#fff"/>
            <path id="Trazado_99252" data-name="Trazado 99252" d="M440.736,95.836a.592.592,0,1,1-.592-.565A.579.579,0,0,1,440.736,95.836Z" transform="translate(-423.589 -95.271)" fill="#fff"/>
            <path id="Trazado_99253" data-name="Trazado 99253" d="M449.181,95.836a.592.592,0,1,1-.591-.565A.579.579,0,0,1,449.181,95.836Z" transform="translate(-426.715 -95.271)" fill="#fff"/>
            <ellipse id="Elipse_3972" data-name="Elipse 3972" cx="0.591" cy="0.565" rx="0.591" ry="0.565" transform="translate(26.606)" fill="#fff"/>
            <path id="Trazado_99254" data-name="Trazado 99254" d="M466.075,95.836a.592.592,0,1,1-.592-.565A.579.579,0,0,1,466.075,95.836Z" transform="translate(-432.965 -95.271)" fill="#fff"/>
            <ellipse id="Elipse_3973" data-name="Elipse 3973" cx="0.591" cy="0.565" rx="0.591" ry="0.565" transform="translate(37.248)" fill="#fff"/>
            <ellipse id="Elipse_3974" data-name="Elipse 3974" cx="0.591" cy="0.565" rx="0.591" ry="0.565" transform="translate(42.569)" fill="#fff"/>
            <path id="Trazado_99255" data-name="Trazado 99255" d="M491.414,95.836a.592.592,0,1,1-.592-.565A.579.579,0,0,1,491.414,95.836Z" transform="translate(-442.341 -95.271)" fill="#fff"/>
            <path id="Trazado_99256" data-name="Trazado 99256" d="M499.86,95.836a.592.592,0,1,1-.592-.565A.579.579,0,0,1,499.86,95.836Z" transform="translate(-445.466 -95.271)" fill="#fff"/>
          </g>
          <g id="Grupo_53313" data-name="Grupo 53313" transform="translate(0 31.663)">
            <path id="Trazado_99257" data-name="Trazado 99257" d="M415.4,103.344a.592.592,0,1,1-.592-.565A.579.579,0,0,1,415.4,103.344Z" transform="translate(-414.214 -102.779)" fill="#fff"/>
            <path id="Trazado_99258" data-name="Trazado 99258" d="M423.842,103.344a.592.592,0,1,1-.591-.565A.579.579,0,0,1,423.842,103.344Z" transform="translate(-417.339 -102.779)" fill="#fff"/>
            <path id="Trazado_99259" data-name="Trazado 99259" d="M432.288,103.344a.592.592,0,1,1-.591-.565A.579.579,0,0,1,432.288,103.344Z" transform="translate(-420.464 -102.779)" fill="#fff"/>
            <path id="Trazado_99260" data-name="Trazado 99260" d="M440.736,103.344a.592.592,0,1,1-.592-.565A.579.579,0,0,1,440.736,103.344Z" transform="translate(-423.59 -102.779)" fill="#fff"/>
            <path id="Trazado_99261" data-name="Trazado 99261" d="M449.181,103.344a.592.592,0,1,1-.591-.565A.579.579,0,0,1,449.181,103.344Z" transform="translate(-426.715 -102.779)" fill="#fff"/>
            <path id="Trazado_99262" data-name="Trazado 99262" d="M457.627,103.344a.592.592,0,1,1-.591-.565A.579.579,0,0,1,457.627,103.344Z" transform="translate(-429.84 -102.779)" fill="#fff"/>
            <path id="Trazado_99263" data-name="Trazado 99263" d="M466.075,103.344a.592.592,0,1,1-.592-.565A.579.579,0,0,1,466.075,103.344Z" transform="translate(-432.965 -102.779)" fill="#fff"/>
            <path id="Trazado_99264" data-name="Trazado 99264" d="M474.521,103.344a.592.592,0,1,1-.591-.565A.579.579,0,0,1,474.521,103.344Z" transform="translate(-436.09 -102.779)" fill="#fff"/>
            <path id="Trazado_99265" data-name="Trazado 99265" d="M482.966,103.344a.592.592,0,1,1-.591-.565A.579.579,0,0,1,482.966,103.344Z" transform="translate(-439.215 -102.779)" fill="#fff"/>
            <path id="Trazado_99266" data-name="Trazado 99266" d="M491.414,103.344a.592.592,0,1,1-.592-.565A.579.579,0,0,1,491.414,103.344Z" transform="translate(-442.341 -102.779)" fill="#fff"/>
            <path id="Trazado_99267" data-name="Trazado 99267" d="M499.86,103.344a.592.592,0,1,1-.592-.565A.579.579,0,0,1,499.86,103.344Z" transform="translate(-445.466 -102.779)" fill="#fff"/>
          </g>
          <g id="Grupo_53314" data-name="Grupo 53314" transform="translate(0 36.187)">
            <ellipse id="Elipse_3975" data-name="Elipse 3975" cx="0.591" cy="0.565" rx="0.591" ry="0.565" fill="#fff"/>
            <path id="Trazado_99268" data-name="Trazado 99268" d="M423.842,110.852a.592.592,0,1,1-.591-.565A.579.579,0,0,1,423.842,110.852Z" transform="translate(-417.339 -110.287)" fill="#fff"/>
            <ellipse id="Elipse_3976" data-name="Elipse 3976" cx="0.591" cy="0.565" rx="0.591" ry="0.565" transform="translate(10.642)" fill="#fff"/>
            <path id="Trazado_99269" data-name="Trazado 99269" d="M440.736,110.852a.592.592,0,1,1-.592-.565A.579.579,0,0,1,440.736,110.852Z" transform="translate(-423.589 -110.287)" fill="#fff"/>
            <path id="Trazado_99270" data-name="Trazado 99270" d="M449.181,110.852a.592.592,0,1,1-.591-.565A.579.579,0,0,1,449.181,110.852Z" transform="translate(-426.715 -110.287)" fill="#fff"/>
            <ellipse id="Elipse_3977" data-name="Elipse 3977" cx="0.591" cy="0.565" rx="0.591" ry="0.565" transform="translate(26.606)" fill="#fff"/>
            <path id="Trazado_99271" data-name="Trazado 99271" d="M466.075,110.852a.592.592,0,1,1-.592-.565A.58.58,0,0,1,466.075,110.852Z" transform="translate(-432.965 -110.287)" fill="#fff"/>
            <ellipse id="Elipse_3978" data-name="Elipse 3978" cx="0.591" cy="0.565" rx="0.591" ry="0.565" transform="translate(37.248)" fill="#fff"/>
            <ellipse id="Elipse_3979" data-name="Elipse 3979" cx="0.591" cy="0.565" rx="0.591" ry="0.565" transform="translate(42.569)" fill="#fff"/>
            <path id="Trazado_99272" data-name="Trazado 99272" d="M491.414,110.852a.592.592,0,1,1-.592-.565A.58.58,0,0,1,491.414,110.852Z" transform="translate(-442.341 -110.287)" fill="#fff"/>
            <path id="Trazado_99273" data-name="Trazado 99273" d="M499.86,110.852a.592.592,0,1,1-.592-.565A.579.579,0,0,1,499.86,110.852Z" transform="translate(-445.466 -110.287)" fill="#fff"/>
          </g>
          <g id="Grupo_53315" data-name="Grupo 53315" transform="translate(0 40.709)">
            <path id="Trazado_99274" data-name="Trazado 99274" d="M415.4,118.36a.592.592,0,1,1-.592-.566A.579.579,0,0,1,415.4,118.36Z" transform="translate(-414.214 -117.794)" fill="#fff"/>
            <path id="Trazado_99275" data-name="Trazado 99275" d="M423.842,118.36a.592.592,0,1,1-.591-.566A.579.579,0,0,1,423.842,118.36Z" transform="translate(-417.339 -117.794)" fill="#fff"/>
            <path id="Trazado_99276" data-name="Trazado 99276" d="M432.288,118.36a.592.592,0,1,1-.591-.566A.579.579,0,0,1,432.288,118.36Z" transform="translate(-420.464 -117.794)" fill="#fff"/>
            <path id="Trazado_99277" data-name="Trazado 99277" d="M440.736,118.36a.592.592,0,1,1-.592-.566A.579.579,0,0,1,440.736,118.36Z" transform="translate(-423.59 -117.794)" fill="#fff"/>
            <path id="Trazado_99278" data-name="Trazado 99278" d="M449.181,118.36a.592.592,0,1,1-.591-.566A.579.579,0,0,1,449.181,118.36Z" transform="translate(-426.715 -117.794)" fill="#fff"/>
            <path id="Trazado_99279" data-name="Trazado 99279" d="M457.627,118.36a.592.592,0,1,1-.591-.566A.579.579,0,0,1,457.627,118.36Z" transform="translate(-429.84 -117.794)" fill="#fff"/>
            <path id="Trazado_99280" data-name="Trazado 99280" d="M466.075,118.36a.592.592,0,1,1-.592-.566A.58.58,0,0,1,466.075,118.36Z" transform="translate(-432.965 -117.794)" fill="#fff"/>
            <path id="Trazado_99281" data-name="Trazado 99281" d="M474.521,118.36a.592.592,0,1,1-.591-.566A.579.579,0,0,1,474.521,118.36Z" transform="translate(-436.09 -117.794)" fill="#fff"/>
            <path id="Trazado_99282" data-name="Trazado 99282" d="M482.966,118.36a.592.592,0,1,1-.591-.566A.579.579,0,0,1,482.966,118.36Z" transform="translate(-439.215 -117.794)" fill="#fff"/>
            <path id="Trazado_99283" data-name="Trazado 99283" d="M491.414,118.36a.592.592,0,1,1-.592-.566A.58.58,0,0,1,491.414,118.36Z" transform="translate(-442.341 -117.794)" fill="#fff"/>
            <path id="Trazado_99284" data-name="Trazado 99284" d="M499.86,118.36a.592.592,0,1,1-.592-.566A.579.579,0,0,1,499.86,118.36Z" transform="translate(-445.466 -117.794)" fill="#fff"/>
          </g>
          <g id="Grupo_53316" data-name="Grupo 53316" transform="translate(0 45.233)">
            <ellipse id="Elipse_3980" data-name="Elipse 3980" cx="0.591" cy="0.565" rx="0.591" ry="0.565" transform="translate(0 0)" fill="#fff"/>
            <path id="Trazado_99285" data-name="Trazado 99285" d="M423.842,125.868a.592.592,0,1,1-.591-.566A.578.578,0,0,1,423.842,125.868Z" transform="translate(-417.339 -125.302)" fill="#fff"/>
            <ellipse id="Elipse_3981" data-name="Elipse 3981" cx="0.591" cy="0.565" rx="0.591" ry="0.565" transform="translate(10.642 0)" fill="#fff"/>
            <path id="Trazado_99286" data-name="Trazado 99286" d="M440.736,125.868a.592.592,0,1,1-.592-.566A.579.579,0,0,1,440.736,125.868Z" transform="translate(-423.589 -125.302)" fill="#fff"/>
            <path id="Trazado_99287" data-name="Trazado 99287" d="M449.181,125.868a.592.592,0,1,1-.591-.566A.579.579,0,0,1,449.181,125.868Z" transform="translate(-426.715 -125.302)" fill="#fff"/>
            <ellipse id="Elipse_3982" data-name="Elipse 3982" cx="0.591" cy="0.565" rx="0.591" ry="0.565" transform="translate(26.606 0)" fill="#fff"/>
            <path id="Trazado_99288" data-name="Trazado 99288" d="M466.075,125.868a.592.592,0,1,1-.592-.566A.579.579,0,0,1,466.075,125.868Z" transform="translate(-432.965 -125.302)" fill="#fff"/>
            <ellipse id="Elipse_3983" data-name="Elipse 3983" cx="0.591" cy="0.565" rx="0.591" ry="0.565" transform="translate(37.248 0)" fill="#fff"/>
            <ellipse id="Elipse_3984" data-name="Elipse 3984" cx="0.591" cy="0.565" rx="0.591" ry="0.565" transform="translate(42.569 0)" fill="#fff"/>
            <path id="Trazado_99289" data-name="Trazado 99289" d="M491.414,125.868a.592.592,0,1,1-.592-.566A.579.579,0,0,1,491.414,125.868Z" transform="translate(-442.341 -125.302)" fill="#fff"/>
            <path id="Trazado_99290" data-name="Trazado 99290" d="M499.86,125.868a.592.592,0,1,1-.592-.566A.579.579,0,0,1,499.86,125.868Z" transform="translate(-445.466 -125.302)" fill="#fff"/>
          </g>
          <g id="Grupo_53317" data-name="Grupo 53317" transform="translate(0 49.757)">
            <ellipse id="Elipse_3985" data-name="Elipse 3985" cx="0.591" cy="0.565" rx="0.591" ry="0.565" transform="translate(0 0)" fill="#fff"/>
            <path id="Trazado_99291" data-name="Trazado 99291" d="M423.842,133.376a.592.592,0,1,1-.591-.566A.578.578,0,0,1,423.842,133.376Z" transform="translate(-417.339 -132.81)" fill="#fff"/>
            <ellipse id="Elipse_3986" data-name="Elipse 3986" cx="0.591" cy="0.565" rx="0.591" ry="0.565" transform="translate(10.642 0)" fill="#fff"/>
            <path id="Trazado_99292" data-name="Trazado 99292" d="M440.736,133.376a.592.592,0,1,1-.592-.566A.579.579,0,0,1,440.736,133.376Z" transform="translate(-423.589 -132.81)" fill="#fff"/>
            <path id="Trazado_99293" data-name="Trazado 99293" d="M449.181,133.376a.592.592,0,1,1-.591-.566A.579.579,0,0,1,449.181,133.376Z" transform="translate(-426.715 -132.81)" fill="#fff"/>
            <ellipse id="Elipse_3987" data-name="Elipse 3987" cx="0.591" cy="0.565" rx="0.591" ry="0.565" transform="translate(26.606 0)" fill="#fff"/>
            <path id="Trazado_99294" data-name="Trazado 99294" d="M466.075,133.376a.592.592,0,1,1-.592-.566A.579.579,0,0,1,466.075,133.376Z" transform="translate(-432.965 -132.81)" fill="#fff"/>
            <ellipse id="Elipse_3988" data-name="Elipse 3988" cx="0.591" cy="0.565" rx="0.591" ry="0.565" transform="translate(37.248 0)" fill="#fff"/>
            <ellipse id="Elipse_3989" data-name="Elipse 3989" cx="0.591" cy="0.565" rx="0.591" ry="0.565" transform="translate(42.569 0)" fill="#fff"/>
            <path id="Trazado_99295" data-name="Trazado 99295" d="M491.414,133.376a.592.592,0,1,1-.592-.566A.579.579,0,0,1,491.414,133.376Z" transform="translate(-442.341 -132.81)" fill="#fff"/>
            <path id="Trazado_99296" data-name="Trazado 99296" d="M499.86,133.376a.592.592,0,1,1-.592-.566A.579.579,0,0,1,499.86,133.376Z" transform="translate(-445.466 -132.81)" fill="#fff"/>
          </g>
        </g>
        <line id="Línea_138" data-name="Línea 138" y2="115.674" transform="translate(834.777 177.756)" fill="none" stroke="#fff" stroke-width="1" stroke-dasharray="8"/>
      </g>
    </g>
    <g id="Grupo_118279" data-name="Grupo 118279" transform="translate(567.346 2359.461)">
      <g id="Grupo_118258" data-name="Grupo 118258" transform="translate(142.587 180.225)">
        <path id="Trazado_170840" data-name="Trazado 170840" d="M195.794,261.266l-4.606,2.659V181.952l4.606-2.659Z" transform="translate(-124.586 -175.588)" fill="#517f36"/>
        <path id="Trazado_170841" data-name="Trazado 170841" d="M188.9,179.933l3.129,1.783v81.973l-3.129-1.783Z" transform="translate(-125.432 -175.352)" fill="#639648"/>
        <g id="Grupo_118206" data-name="Grupo 118206" transform="translate(40.2 34.547)">
          <path id="Trazado_170842" data-name="Trazado 170842" d="M275.9,267.35l-61.2,35.331V262.074l61.2-35.331Z" transform="translate(-156.078 -192.561)" fill="#2d2d2d"/>
          <path id="Trazado_170843" data-name="Trazado 170843" d="M171.922,268.189l58.622,34.182V261.763l-58.622-34.182Z" transform="translate(-171.922 -192.25)" fill="#333"/>
          <path id="Trazado_170844" data-name="Trazado 170844" d="M291.739,235.981,233.118,201.8l-61.2,35.331,58.622,34.182Z" transform="translate(-171.922 -201.799)" fill="#3d3d3d"/>
        </g>
        <path id="Trazado_170845" data-name="Trazado 170845" d="M279.582,238.538l-52.754-30.6-61.2,35.331,52.754,30.6Z" transform="translate(-134.052 -164.977)" fill="#f44a4a"/>
        <g id="Grupo_118207" data-name="Grupo 118207" transform="translate(62.235 43.132)">
          <path id="Trazado_170846" data-name="Trazado 170846" d="M243.6,251.639l1.493-.862-55.6-32.082-1.493.862Z" transform="translate(-188.002 -204.127)" fill="#fff"/>
          <path id="Trazado_170847" data-name="Trazado 170847" d="M247.324,249.531l1.493-.862-55.6-32.082-1.493.862Z" transform="translate(-186.622 -204.908)" fill="#fff"/>
          <path id="Trazado_170848" data-name="Trazado 170848" d="M251.049,247.351l1.493-.862-55.6-32.082-1.493.862Z" transform="translate(-185.242 -205.715)" fill="#fff"/>
          <path id="Trazado_170849" data-name="Trazado 170849" d="M254.684,245.224l1.493-.862-55.6-32.082-1.493.862Z" transform="translate(-183.896 -206.503)" fill="#fff"/>
          <path id="Trazado_170850" data-name="Trazado 170850" d="M258.409,243.116l1.493-.862-55.6-32.082-1.493.862Z" transform="translate(-182.516 -207.284)" fill="#fff"/>
          <path id="Trazado_170851" data-name="Trazado 170851" d="M262.081,241.008l1.493-.862-55.6-32.082-1.493.862Z" transform="translate(-181.156 -208.064)" fill="#fff"/>
        </g>
        <g id="Grupo_118208" data-name="Grupo 118208" transform="translate(51.889 57.677)">
          <path id="Trazado_170852" data-name="Trazado 170852" d="M236.049,255.838l1.493-.862-55.6-32.082-1.493.862Z" transform="translate(-180.452 -217.117)" fill="#fff"/>
          <path id="Trazado_170853" data-name="Trazado 170853" d="M239.775,253.73l1.493-.862-55.6-32.082-1.493.862Z" transform="translate(-179.072 -217.898)" fill="#fff"/>
          <path id="Trazado_170854" data-name="Trazado 170854" d="M243.447,251.622l1.493-.862-55.6-32.082-1.493.862Z" transform="translate(-177.712 -218.678)" fill="#fff"/>
        </g>
        <g id="Grupo_118209" data-name="Grupo 118209" transform="translate(22.313 26.663)">
          <path id="Trazado_170855" data-name="Trazado 170855" d="M165.759,279.322l-4.606,2.659V200.009l4.606-2.659Z" transform="translate(-158.024 -195.564)" fill="#517f36"/>
          <path id="Trazado_170856" data-name="Trazado 170856" d="M163.466,196.046l3.138,1.786L162,200.491l-3.129-1.783Z" transform="translate(-158.87 -196.046)" fill="#78aa5b"/>
          <path id="Trazado_170857" data-name="Trazado 170857" d="M158.87,197.989,162,199.772v81.973l-3.129-1.783Z" transform="translate(-158.87 -195.327)" fill="#639648"/>
        </g>
        <g id="Grupo_118210" data-name="Grupo 118210" transform="translate(32.294 24.641)">
          <path id="Trazado_170858" data-name="Trazado 170858" d="M169.656,195.309l-3.5,2.021v21.308a1.66,1.66,0,0,0,.492,1.328v0l.01.005a.932.932,0,0,0,.138.079l1.354.781.98-1.934-.145-.07a4.418,4.418,0,0,0,.676-2.216Z" transform="translate(-166.153 -194.298)" fill="#424242"/>
          <path id="Trazado_170859" data-name="Trazado 170859" d="M167.191,196.592v23.142c0,1.284.788,1.88,1.751,1.324a4.208,4.208,0,0,0,1.751-3.345V194.571Z" transform="translate(-165.769 -194.571)" fill="#2d2d2d"/>
        </g>
        <g id="Grupo_118212" data-name="Grupo 118212" transform="translate(34.046 44.81)">
          <path id="Trazado_170860" data-name="Trazado 170860" d="M168.738,209.649a.519.519,0,0,0-.5.052,1.936,1.936,0,0,0-.809,1.544.709.709,0,0,0,.278.647l3.557,2.009.978-2.28Z" transform="translate(-167.431 -209.171)" fill="#2d2d2d"/>
          <g id="Grupo_118211" data-name="Grupo 118211" transform="translate(0.555)">
            <path id="Trazado_170861" data-name="Trazado 170861" d="M171.174,209.395a1.355,1.355,0,0,0-1.287.138,4.909,4.909,0,0,0-2.051,3.919,1.836,1.836,0,0,0,.689,1.646L227,248.759l2.641-5.7Z" transform="translate(-167.836 -209.289)" fill="#ffc255"/>
            <path id="Trazado_170862" data-name="Trazado 170862" d="M214.584,235.636a4.913,4.913,0,0,1-2.051,3.919c-1.133.654-2.051-.041-2.051-1.551a4.911,4.911,0,0,1,2.051-3.919C213.666,233.431,214.584,234.124,214.584,235.636Z" transform="translate(-152.041 -200.196)" fill="#fcaa47"/>
          </g>
          <path id="Trazado_170863" data-name="Trazado 170863" d="M212.833,235.394a.526.526,0,0,0-.5.052,1.937,1.937,0,0,0-.81,1.546.712.712,0,0,0,.278.647l3.559,2.009.978-2.28Z" transform="translate(-151.1 -199.635)" fill="#2d2d2d"/>
        </g>
        <g id="Grupo_118213" data-name="Grupo 118213" transform="translate(94.931 60.918)">
          <path id="Trazado_170864" data-name="Trazado 170864" d="M215.362,221.674l-3.5,2.021V245a1.664,1.664,0,0,0,.491,1.328v0l.01,0a.872.872,0,0,0,.138.081l1.354.781.98-1.934-.147-.07a4.408,4.408,0,0,0,.676-2.216Z" transform="translate(-211.861 -220.809)" fill="#424242"/>
          <path id="Trazado_170865" data-name="Trazado 170865" d="M212.9,223.066v22.985c0,1.284.788,1.88,1.751,1.324a4.211,4.211,0,0,0,1.75-3.345V221.043Z" transform="translate(-211.477 -221.043)" fill="#2d2d2d"/>
        </g>
        <g id="Grupo_118215" data-name="Grupo 118215" transform="translate(26.825 70.852)">
          <path id="Trazado_170866" data-name="Trazado 170866" d="M163.471,228.652a.523.523,0,0,0-.5.052,1.937,1.937,0,0,0-.81,1.546.712.712,0,0,0,.278.647L166,232.9l.978-2.279Z" transform="translate(-162.162 -228.175)" fill="#2d2d2d"/>
          <g id="Grupo_118214" data-name="Grupo 118214" transform="translate(0.555)">
            <path id="Trazado_170867" data-name="Trazado 170867" d="M165.905,228.4a1.355,1.355,0,0,0-1.287.137,4.911,4.911,0,0,0-2.051,3.919,1.839,1.839,0,0,0,.689,1.647l58.479,33.661,2.641-5.7Z" transform="translate(-162.567 -228.292)" fill="#ffc255"/>
            <path id="Trazado_170868" data-name="Trazado 170868" d="M209.315,254.639a4.911,4.911,0,0,1-2.051,3.919c-1.132.654-2.051-.04-2.051-1.55a4.918,4.918,0,0,1,2.051-3.921C208.4,252.434,209.315,253.129,209.315,254.639Z" transform="translate(-146.772 -219.2)" fill="#fcaa47"/>
          </g>
          <path id="Trazado_170869" data-name="Trazado 170869" d="M207.563,254.4a.519.519,0,0,0-.5.052,1.936,1.936,0,0,0-.809,1.544.716.716,0,0,0,.277.648l3.559,2.008.978-2.28Z" transform="translate(-145.831 -218.639)" fill="#2d2d2d"/>
        </g>
        <path id="Trazado_170870" data-name="Trazado 170870" d="M226.5,245.318,216,266.084l.148,3.472-51.375-29.6-.257-3.811,10.653-20.263Z" transform="translate(-134.466 -162.036)" fill="#e83838"/>
        <path id="Trazado_170871" data-name="Trazado 170871" d="M168.238,230.972a4.909,4.909,0,0,1-2.051,3.919c-1.133.655-2.051-.04-2.051-1.55a4.909,4.909,0,0,1,2.051-3.919C167.32,228.767,168.238,229.461,168.238,230.972Z" transform="translate(-134.606 -157.113)" fill="#e83838"/>
        <path id="Trazado_170872" data-name="Trazado 170872" d="M205.876,252.667a4.911,4.911,0,0,1-2.051,3.919c-1.133.654-2.051-.04-2.051-1.551a4.913,4.913,0,0,1,2.051-3.919C204.958,250.462,205.876,251.157,205.876,252.667Z" transform="translate(-120.666 -149.078)" fill="#ffc255"/>
        <g id="Grupo_118222" data-name="Grupo 118222" transform="translate(3.72 93.987)">
          <g id="Grupo_118216" data-name="Grupo 118216">
            <path id="Trazado_170873" data-name="Trazado 170873" d="M147.354,274.573l13.473-7.773V246.384l-13.473,7.773Z" transform="translate(-144.541 -244.727)" fill="#517f36"/>
            <path id="Trazado_170874" data-name="Trazado 170874" d="M145.3,250.882l2.813,1.609v20.416l-2.813-1.635Z" transform="translate(-145.301 -243.061)" fill="#639648"/>
            <path id="Trazado_170875" data-name="Trazado 170875" d="M145.3,253l13.473-7.821,2.813,1.657L148.114,254.6Z" transform="translate(-145.301 -245.175)" fill="#78aa5b"/>
            <path id="Trazado_170876" data-name="Trazado 170876" d="M147.263,263.989l13.473-7.821,59.673,34.541-13.473,7.773Z" transform="translate(-144.575 -241.103)" fill="#78aa5b"/>
          </g>
          <g id="Grupo_118220" data-name="Grupo 118220" transform="translate(7.772 4.905)">
            <g id="Grupo_118217" data-name="Grupo 118217" transform="translate(0 3.505)">
              <path id="Trazado_170877" data-name="Trazado 170877" d="M152.16,251.349a.475.475,0,0,0-.452.048,1.758,1.758,0,0,0-.735,1.4.648.648,0,0,0,.252.588l3.23,1.823.887-2.069Z" transform="translate(-150.973 -251.312)" fill="#3f3f3f"/>
              <path id="Trazado_170878" data-name="Trazado 170878" d="M154.782,253.27a1.758,1.758,0,0,1-.735,1.4c-.406.233-.733-.015-.733-.555a1.757,1.757,0,0,1,.733-1.4C154.453,252.482,154.782,252.73,154.782,253.27Z" transform="translate(-150.106 -250.825)" fill="#969696"/>
              <path id="Trazado_170879" data-name="Trazado 170879" d="M154.385,253.343a.993.993,0,0,1-.415.793c-.229.133-.415-.008-.415-.314a1,1,0,0,1,.415-.793C154.2,252.9,154.385,253.038,154.385,253.343Z" transform="translate(-150.017 -250.694)" fill="#3d3d3d"/>
            </g>
            <g id="Grupo_118218" data-name="Grupo 118218" transform="translate(1.336)">
              <path id="Trazado_170880" data-name="Trazado 170880" d="M161.254,249.05,195.283,268.6,161.254,249.05a3.778,3.778,0,0,0-3.588.382c-3.159,1.824-5.719,6.716-5.719,10.927,0,2.268.744,3.874,1.923,4.589l52.912,30.369,7.362-15.9S161.356,249.1,161.254,249.05Z" transform="translate(-151.948 -248.754)" fill="#fc6460"/>
              <path id="Trazado_170881" data-name="Trazado 170881" d="M201.917,275.886c0,4.211-2.561,9.1-5.719,10.927s-5.719-.112-5.719-4.324,2.56-9.1,5.719-10.926S201.917,271.676,201.917,275.886Z" transform="translate(-137.677 -240.56)" fill="#f44a4a"/>
              <path id="Trazado_170882" data-name="Trazado 170882" d="M200.311,276.3c0,3.094-1.88,6.689-4.2,8.029s-4.2-.084-4.2-3.177,1.882-6.689,4.2-8.028S200.311,273.21,200.311,276.3Z" transform="translate(-137.148 -239.913)" fill="#e83838"/>
              <path id="Trazado_170883" data-name="Trazado 170883" d="M198.625,276.672a6.627,6.627,0,0,1-2.767,5.287c-1.528.883-2.767-.055-2.767-2.093a6.627,6.627,0,0,1,2.767-5.286C197.386,273.7,198.625,274.634,198.625,276.672Z" transform="translate(-136.71 -239.311)" fill="#dd3131"/>
            </g>
            <g id="Grupo_118219" data-name="Grupo 118219" transform="translate(59.951 38.145)">
              <path id="Trazado_170884" data-name="Trazado 170884" d="M195.909,276.627a.476.476,0,0,0-.454.047,1.758,1.758,0,0,0-.735,1.4.647.647,0,0,0,.252.587l3.23,1.823.888-2.069Z" transform="translate(-194.721 -276.589)" fill="#2d2d2d"/>
              <path id="Trazado_170885" data-name="Trazado 170885" d="M198.53,278.548a1.76,1.76,0,0,1-.733,1.4c-.406.234-.735-.014-.735-.555a1.758,1.758,0,0,1,.735-1.4C198.2,277.759,198.53,278.007,198.53,278.548Z" transform="translate(-193.854 -276.102)" fill="#969696"/>
              <path id="Trazado_170886" data-name="Trazado 170886" d="M198.134,278.621a1,1,0,0,1-.415.793c-.23.132-.415-.008-.415-.315a.988.988,0,0,1,.415-.792C197.948,278.175,198.134,278.316,198.134,278.621Z" transform="translate(-193.764 -275.971)" fill="#3d3d3d"/>
            </g>
          </g>
          <g id="Grupo_118221" data-name="Grupo 118221" transform="translate(62.316 36.277)">
            <path id="Trazado_170887" data-name="Trazado 170887" d="M192.828,301.045l13.473-7.773V272.856l-13.473,7.773Z" transform="translate(-190.015 -271.199)" fill="#517f36"/>
            <path id="Trazado_170888" data-name="Trazado 170888" d="M190.775,277.354l2.813,1.609v20.416l-2.813-1.635Z" transform="translate(-190.775 -269.533)" fill="#639648"/>
            <path id="Trazado_170889" data-name="Trazado 170889" d="M190.775,279.468l13.473-7.821,2.813,1.657-13.473,7.773Z" transform="translate(-190.775 -271.647)" fill="#78aa5b"/>
          </g>
          <path id="Trazado_170890" data-name="Trazado 170890" d="M208.851,297.4v2.649l-62.742-36.224v-2.649Z" transform="translate(-145.003 -239.248)" fill="#639648"/>
        </g>
        <g id="Grupo_118223" data-name="Grupo 118223" transform="translate(13.326 35.8)">
          <path id="Trazado_170891" data-name="Trazado 170891" d="M155.812,203.314l-3.5,2.021V221a1.659,1.659,0,0,0,.491,1.328v0l.008.005a1,1,0,0,0,.138.079l1.354.781.981-1.934-.147-.07a4.4,4.4,0,0,0,.676-2.216Z" transform="translate(-152.311 -202.492)" fill="#424242"/>
          <path id="Trazado_170892" data-name="Trazado 170892" d="M153.349,204.737v17.308c0,1.284.788,1.88,1.75,1.324a4.208,4.208,0,0,0,1.751-3.345V202.714Z" transform="translate(-151.927 -202.714)" fill="#2d2d2d"/>
        </g>
        <g id="Grupo_118225" data-name="Grupo 118225" transform="translate(15.076 50.137)">
          <path id="Trazado_170893" data-name="Trazado 170893" d="M154.9,213.535a.526.526,0,0,0-.5.053,1.939,1.939,0,0,0-.809,1.544.712.712,0,0,0,.278.647l3.559,2.009.977-2.28Z" transform="translate(-153.588 -213.058)" fill="#2d2d2d"/>
          <g id="Grupo_118224" data-name="Grupo 118224" transform="translate(0.555)">
            <path id="Trazado_170894" data-name="Trazado 170894" d="M157.331,213.282a1.355,1.355,0,0,0-1.287.138,4.909,4.909,0,0,0-2.051,3.919,1.836,1.836,0,0,0,.689,1.646l58.479,33.661,2.641-5.7Z" transform="translate(-153.993 -213.176)" fill="#ffc255"/>
            <path id="Trazado_170895" data-name="Trazado 170895" d="M200.741,239.523a4.913,4.913,0,0,1-2.051,3.919c-1.132.654-2.051-.041-2.051-1.551a4.915,4.915,0,0,1,2.051-3.919C199.823,237.318,200.741,238.011,200.741,239.523Z" transform="translate(-138.198 -204.083)" fill="#fcaa47"/>
          </g>
          <path id="Trazado_170896" data-name="Trazado 170896" d="M198.989,239.281a.523.523,0,0,0-.5.052,1.936,1.936,0,0,0-.809,1.546.712.712,0,0,0,.277.647l3.559,2.008.978-2.279Z" transform="translate(-137.257 -203.522)" fill="#2d2d2d"/>
        </g>
        <path id="Trazado_170897" data-name="Trazado 170897" d="M159.6,214.511l-3.4,4.308,3.474,42.914,52.89,30.369L208.5,248.677l3.2-4.115Z" transform="translate(-137.543 -162.544)" fill="#f44a4a"/>
        <path id="Trazado_170898" data-name="Trazado 170898" d="M198.472,238.2c-.581,1.185-.918,3.266-2.051,3.919s-2.051-.04-2.051-1.55a4.911,4.911,0,0,1,2.051-3.919C197.554,235.995,198.472,236.689,198.472,238.2Z" transform="translate(-123.408 -154.436)" fill="#ffc255"/>
        <path id="Trazado_170899" data-name="Trazado 170899" d="M160.3,216.2a4.911,4.911,0,0,1-2.051,3.919c-1.133.655-2.051-.04-2.051-1.55a4.909,4.909,0,0,1,2.051-3.919C159.38,213.992,160.3,214.686,160.3,216.2Z" transform="translate(-137.547 -162.586)" fill="#f44a4a"/>
        <path id="Trazado_170900" data-name="Trazado 170900" d="M229.669,240.522,210,246.308l-52.313-30.153,19.524-5.829Z" transform="translate(-136.992 -164.094)" fill="#fc6460"/>
        <g id="Grupo_118226" data-name="Grupo 118226" transform="translate(84.759 43.481)">
          <path id="Trazado_170901" data-name="Trazado 170901" d="M211.327,305.432l-4.606,2.659V226.119l4.606-2.66Z" transform="translate(-203.592 -202.711)" fill="#517f36"/>
          <path id="Trazado_170902" data-name="Trazado 170902" d="M209.034,222.156l3.138,1.786-4.606,2.66-3.129-1.783Z" transform="translate(-204.438 -203.194)" fill="#78aa5b"/>
          <path id="Trazado_170903" data-name="Trazado 170903" d="M204.438,224.1l3.129,1.783v81.973l-3.129-1.783Z" transform="translate(-204.438 -202.474)" fill="#639648"/>
          <path id="Trazado_170904" data-name="Trazado 170904" d="M257.355,233.094l-4.606,2.659V210.978l4.606-2.659Z" transform="translate(-186.545 -208.319)" fill="#517f36"/>
          <path id="Trazado_170905" data-name="Trazado 170905" d="M250.466,208.958l3.129,1.783v24.776l-3.129-1.783Z" transform="translate(-187.39 -208.082)" fill="#639648"/>
        </g>
        <g id="Grupo_118227" data-name="Grupo 118227">
          <path id="Trazado_170906" data-name="Trazado 170906" d="M208.566,249.7,149.7,215.719l64.165-37.046-3.785-2.084-67.495,38.968,66.361,38.212L276.443,214.8l-3.712-2.143Z" transform="translate(-142.587 -176.59)" fill="#78aa5b"/>
          <path id="Trazado_170907" data-name="Trazado 170907" d="M208.948,247.985v-4.747l-66.361-38.212v4.747Z" transform="translate(-142.587 -166.058)" fill="#639648"/>
          <path id="Trazado_170908" data-name="Trazado 170908" d="M258.507,209.221v-4.746l-67.495,38.968v4.747Z" transform="translate(-124.651 -166.262)" fill="#517f36"/>
          <path id="Trazado_170909" data-name="Trazado 170909" d="M211.944,182.12V178.11l-64.165,37.046,3.472,2Z" transform="translate(-140.664 -176.026)" fill="#517f36"/>
        </g>
        <g id="Grupo_118228" data-name="Grupo 118228" transform="translate(75.961 71.922)">
          <path id="Trazado_170910" data-name="Trazado 170910" d="M201.521,229.672l-3.5,2.023v15.665a1.662,1.662,0,0,0,.492,1.328v0l.01.005a.939.939,0,0,0,.138.081l1.354.781.98-1.934-.145-.07a4.421,4.421,0,0,0,.676-2.216Z" transform="translate(-198.018 -228.851)" fill="#424242"/>
          <path id="Trazado_170911" data-name="Trazado 170911" d="M199.056,231.094V248.4c0,1.284.788,1.88,1.751,1.324a4.208,4.208,0,0,0,1.751-3.345V229.073Z" transform="translate(-197.634 -229.073)" fill="#2d2d2d"/>
        </g>
        <path id="Trazado_170912" data-name="Trazado 170912" d="M234.061,295.564l-11.949-6.9v-40.33l11.949,6.9,5.068,13.6Z" transform="translate(-113.133 -150.017)" fill="#639648"/>
        <path id="Trazado_170913" data-name="Trazado 170913" d="M263.05,278.751l-11.949-6.9v-40.33l11.949,6.9,5.068,13.6Z" transform="translate(-102.396 -156.244)" fill="#517f36"/>
        <path id="Trazado_170914" data-name="Trazado 170914" d="M261.837,231.522l-39.725,23.04,11.949,6.9,39.725-23.04Z" transform="translate(-113.133 -156.244)" fill="#78aa5b"/>
        <g id="Grupo_118229" data-name="Grupo 118229" transform="translate(111.344 76.598)">
          <path id="Trazado_170915" data-name="Trazado 170915" d="M233.688,259.684,223.838,254l.148-.086,36.965-21.426,9.85,5.687-.148.086ZM224.234,254l9.454,5.458L270.4,238.172l-9.454-5.457Z" transform="translate(-223.838 -232.485)" fill="#8ab76c"/>
        </g>
        <path id="Trazado_170916" data-name="Trazado 170916" d="M275.625,246.479,235.9,269.519l-5.068,26.733,39.725-23.04Z" transform="translate(-109.903 -150.704)" fill="#517f36"/>
        <path id="Trazado_170917" data-name="Trazado 170917" d="M272.251,249.642l-34.836,20.2L232.949,293.4l34.836-20.2Z" transform="translate(-109.119 -149.533)" fill="#3d3d3d"/>
        <g id="Grupo_118230" data-name="Grupo 118230" transform="translate(126.982 109.579)">
          <path id="Trazado_170918" data-name="Trazado 170918" d="M241.012,262.518l-1.319.73-4.445,23.443,1.3-.621Z" transform="translate(-235.249 -254.342)" fill="#2d2d2d"/>
          <path id="Trazado_170919" data-name="Trazado 170919" d="M243.607,261l-1.324.756-4.468,23.564,1.326-.769Z" transform="translate(-234.299 -254.904)" fill="#2d2d2d"/>
          <path id="Trazado_170920" data-name="Trazado 170920" d="M246.163,259.518l-1.326.769-4.456,23.5,1.326-.769Z" transform="translate(-233.348 -255.454)" fill="#2d2d2d"/>
          <path id="Trazado_170921" data-name="Trazado 170921" d="M248.749,258.019l-1.326.769-4.465,23.551,1.326-.769Z" transform="translate(-232.394 -256.009)" fill="#2d2d2d"/>
          <path id="Trazado_170922" data-name="Trazado 170922" d="M251.3,256.552l-1.324.756-4.463,23.54,1.326-.769Z" transform="translate(-231.446 -256.552)" fill="#2d2d2d"/>
        </g>
        <g id="Grupo_118231" data-name="Grupo 118231" transform="translate(144.581 101.391)">
          <path id="Trazado_170923" data-name="Trazado 170923" d="M253.883,255.027l-1.324.756-4.468,23.564,1.326-.769Z" transform="translate(-248.092 -248.929)" fill="#2d2d2d"/>
          <path id="Trazado_170924" data-name="Trazado 170924" d="M256.44,253.543l-1.326.769-4.456,23.5,1.326-.769Z" transform="translate(-247.141 -249.479)" fill="#2d2d2d"/>
          <path id="Trazado_170925" data-name="Trazado 170925" d="M259.026,252.045l-1.326.769-4.465,23.551,1.326-.769Z" transform="translate(-246.187 -250.034)" fill="#2d2d2d"/>
          <path id="Trazado_170926" data-name="Trazado 170926" d="M261.58,250.578l-1.324.756-4.463,23.54,1.326-.769Z" transform="translate(-245.239 -250.578)" fill="#2d2d2d"/>
        </g>
        <path id="Trazado_170927" data-name="Trazado 170927" d="M275.625,250.154l-5.068-13.6L230.832,259.6l5.068,13.6Z" transform="translate(-109.903 -154.379)" fill="#8ab76c"/>
        <path id="Trazado_170928" data-name="Trazado 170928" d="M272.814,248.792l-3.856-10.346L232.44,259.668l3.856,10.346Z" transform="translate(-109.307 -153.679)" fill="#fff"/>
        <path id="Trazado_170929" data-name="Trazado 170929" d="M194.153,180.243a.843.843,0,0,0-.8.085,3.059,3.059,0,0,0-1.277,2.441,1.143,1.143,0,0,0,.429,1.025l54.742,31.668,3.945-2.278Z" transform="translate(-124.258 -175.261)" fill="#2d2d2d"/>
        <g id="Grupo_118232" data-name="Grupo 118232" transform="translate(141.065 86.051)">
          <path id="Trazado_170930" data-name="Trazado 170930" d="M248.723,258.5l-3.2-8.58.073-.043,18-10.493,3.2,8.579-.073.044ZM245.77,250l3.057,8.2,17.729-10.333-3.057-8.2Z" transform="translate(-245.526 -239.383)" fill="#f44a4a"/>
        </g>
        <path id="Trazado_170931" data-name="Trazado 170931" d="M252.039,254.64l-1.638-4.394-15.911,9.22,1.638,4.394Z" transform="translate(-108.548 -149.309)" fill="#f44a4a"/>
        <g id="Grupo_118233" data-name="Grupo 118233" transform="translate(124.605 103.631)">
          <path id="Trazado_170932" data-name="Trazado 170932" d="M236.015,254.279l-.239-.641-2.262,1.314.239.641Z" transform="translate(-233.515 -251.683)" fill="#3d3d3d"/>
          <path id="Trazado_170933" data-name="Trazado 170933" d="M236.353,255.167l-.239-.641-2.262,1.314.239.641Z" transform="translate(-233.389 -251.354)" fill="#3d3d3d"/>
          <path id="Trazado_170934" data-name="Trazado 170934" d="M238.5,252.853l-.239-.641L236,253.526l.239.641Z" transform="translate(-232.594 -252.212)" fill="#3d3d3d"/>
          <path id="Trazado_170935" data-name="Trazado 170935" d="M238.839,253.74l-.239-.641-2.262,1.314.239.641Z" transform="translate(-232.469 -251.883)" fill="#3d3d3d"/>
        </g>
        <g id="Grupo_118234" data-name="Grupo 118234" transform="translate(131.419 99.72)">
          <path id="Trazado_170936" data-name="Trazado 170936" d="M240.987,251.426l-.239-.641-2.262,1.314.239.641Z" transform="translate(-238.487 -248.83)" fill="#3d3d3d"/>
          <path id="Trazado_170937" data-name="Trazado 170937" d="M241.325,252.313l-.239-.641-2.262,1.314.239.641Z" transform="translate(-238.362 -248.501)" fill="#3d3d3d"/>
          <path id="Trazado_170938" data-name="Trazado 170938" d="M243.474,250l-.239-.641-2.262,1.314.239.641Z" transform="translate(-237.566 -249.358)" fill="#3d3d3d"/>
          <path id="Trazado_170939" data-name="Trazado 170939" d="M243.811,250.887l-.239-.641-2.262,1.314.239.641Z" transform="translate(-237.441 -249.029)" fill="#3d3d3d"/>
        </g>
        <g id="Grupo_118235" data-name="Grupo 118235" transform="translate(138.223 97.765)">
          <path id="Trazado_170940" data-name="Trazado 170940" d="M245.953,248.572l-.239-.641-2.262,1.314.239.641Z" transform="translate(-243.452 -247.931)" fill="#3d3d3d"/>
          <path id="Trazado_170941" data-name="Trazado 170941" d="M246.291,249.46l-.239-.641-2.262,1.314.239.641Z" transform="translate(-243.327 -247.603)" fill="#3d3d3d"/>
        </g>
        <g id="Grupo_118242" data-name="Grupo 118242" transform="translate(153.425 88.55)">
          <g id="Grupo_118238" data-name="Grupo 118238" transform="translate(4.508 2.63)">
            <g id="Grupo_118236" data-name="Grupo 118236" transform="translate(0.463 1.217)">
              <path id="Trazado_170942" data-name="Trazado 170942" d="M260.673,244.655l-.239-.641-2.262,1.314.239.641Z" transform="translate(-258.172 -244.014)" fill="#3d3d3d"/>
              <path id="Trazado_170943" data-name="Trazado 170943" d="M261.011,245.543l-.239-.641-2.262,1.314.239.641Z" transform="translate(-258.047 -243.685)" fill="#3d3d3d"/>
            </g>
            <g id="Grupo_118237" data-name="Grupo 118237">
              <path id="Trazado_170944" data-name="Trazado 170944" d="M260.335,243.767l-.239-.641-2.262,1.314.239.641Z" transform="translate(-257.834 -243.126)" fill="#3d3d3d"/>
            </g>
          </g>
          <path id="Trazado_170945" data-name="Trazado 170945" d="M259.3,242.31a1.1,1.1,0,1,1-1.1-1.1A1.1,1.1,0,0,1,259.3,242.31Z" transform="translate(-253.602 -241.207)" fill="#ffc255"/>
          <g id="Grupo_118241" data-name="Grupo 118241" transform="translate(1.018 4.601)">
            <g id="Grupo_118239" data-name="Grupo 118239" transform="translate(0.463 1.217)">
              <path id="Trazado_170946" data-name="Trazado 170946" d="M258.127,246.093l-.239-.641-2.262,1.314.239.641Z" transform="translate(-255.626 -245.452)" fill="#3d3d3d"/>
              <path id="Trazado_170947" data-name="Trazado 170947" d="M258.465,246.981l-.239-.641-2.262,1.314.239.641Z" transform="translate(-255.501 -245.123)" fill="#3d3d3d"/>
            </g>
            <g id="Grupo_118240" data-name="Grupo 118240">
              <path id="Trazado_170948" data-name="Trazado 170948" d="M257.789,245.205l-.239-.641-2.262,1.314.239.641Z" transform="translate(-255.288 -244.564)" fill="#3d3d3d"/>
            </g>
          </g>
          <path id="Trazado_170949" data-name="Trazado 170949" d="M256.75,243.748a1.1,1.1,0,1,1-1.1-1.1A1.1,1.1,0,0,1,256.75,243.748Z" transform="translate(-254.545 -240.674)" fill="#ffc255"/>
        </g>
        <g id="Grupo_118249" data-name="Grupo 118249" transform="translate(146.13 92.726)">
          <g id="Grupo_118245" data-name="Grupo 118245" transform="translate(4.507 2.629)">
            <g id="Grupo_118243" data-name="Grupo 118243" transform="translate(0.463 1.217)">
              <path id="Trazado_170950" data-name="Trazado 170950" d="M255.35,247.7l-.239-.641-2.262,1.314.239.641Z" transform="translate(-252.849 -247.061)" fill="#3d3d3d"/>
              <path id="Trazado_170951" data-name="Trazado 170951" d="M255.688,248.589l-.239-.641-2.262,1.314.239.641Z" transform="translate(-252.724 -246.732)" fill="#3d3d3d"/>
            </g>
            <g id="Grupo_118244" data-name="Grupo 118244">
              <path id="Trazado_170952" data-name="Trazado 170952" d="M255.012,246.813l-.239-.641-2.262,1.314.239.641Z" transform="translate(-252.511 -246.173)" fill="#3d3d3d"/>
            </g>
          </g>
          <path id="Trazado_170953" data-name="Trazado 170953" d="M253.973,245.356a1.1,1.1,0,1,1-1.1-1.1A1.1,1.1,0,0,1,253.973,245.356Z" transform="translate(-248.279 -244.254)" fill="#ffc255"/>
          <g id="Grupo_118248" data-name="Grupo 118248" transform="translate(1.018 4.6)">
            <g id="Grupo_118246" data-name="Grupo 118246" transform="translate(0.463 1.217)">
              <path id="Trazado_170954" data-name="Trazado 170954" d="M252.8,249.14l-.239-.641-2.262,1.314.239.641Z" transform="translate(-250.303 -248.499)" fill="#3d3d3d"/>
              <path id="Trazado_170955" data-name="Trazado 170955" d="M253.141,250.027l-.239-.641-2.262,1.314.239.641Z" transform="translate(-250.178 -248.17)" fill="#3d3d3d"/>
            </g>
            <g id="Grupo_118247" data-name="Grupo 118247">
              <path id="Trazado_170956" data-name="Trazado 170956" d="M252.465,248.252l-.239-.641-2.262,1.314.239.641Z" transform="translate(-249.965 -247.611)" fill="#3d3d3d"/>
            </g>
          </g>
          <path id="Trazado_170957" data-name="Trazado 170957" d="M251.427,246.8a1.1,1.1,0,1,1-1.1-1.1A1.1,1.1,0,0,1,251.427,246.8Z" transform="translate(-249.222 -243.721)" fill="#ffc255"/>
        </g>
        <g id="Grupo_118253" data-name="Grupo 118253" transform="translate(142.641 96.719)">
          <g id="Grupo_118252" data-name="Grupo 118252" transform="translate(1.017 2.63)">
            <g id="Grupo_118250" data-name="Grupo 118250" transform="translate(0.463 1.217)">
              <path id="Trazado_170958" data-name="Trazado 170958" d="M250.257,250.616l-.239-.641-2.262,1.314.239.641Z" transform="translate(-247.756 -249.975)" fill="#3d3d3d"/>
              <path id="Trazado_170959" data-name="Trazado 170959" d="M250.595,251.5l-.239-.641-2.262,1.314.239.641Z" transform="translate(-247.631 -249.646)" fill="#3d3d3d"/>
            </g>
            <g id="Grupo_118251" data-name="Grupo 118251">
              <path id="Trazado_170960" data-name="Trazado 170960" d="M249.919,249.728l-.239-.641-2.262,1.314.239.641Z" transform="translate(-247.418 -249.087)" fill="#3d3d3d"/>
            </g>
          </g>
          <path id="Trazado_170961" data-name="Trazado 170961" d="M248.88,248.271a1.1,1.1,0,1,1-1.1-1.1A1.1,1.1,0,0,1,248.88,248.271Z" transform="translate(-246.676 -247.168)" fill="#ffc255"/>
        </g>
        <path id="Trazado_170962" data-name="Trazado 170962" d="M240.825,204.474l21.714,5.268-2.072,4.6-21.714-5.268Z" transform="translate(-106.969 -166.262)" fill="#517f36"/>
        <path id="Trazado_170963" data-name="Trazado 170963" d="M262.99,210.3l-3.74-2.055-21.714-5.268,3.74,2.055Z" transform="translate(-107.42 -166.817)" fill="#639648"/>
        <g id="Grupo_118257" data-name="Grupo 118257" transform="translate(138.455 64.596)">
          <g id="Grupo_118254" data-name="Grupo 118254" transform="translate(12.306 7.871)">
            <path id="Trazado_170964" data-name="Trazado 170964" d="M253.42,229.564l0,0-.562.325.256.377.005-.005c0,.027-.005.049-.005.078v7.48l1.368.789c.058.274.218.825.218.825l.6-.351V231.6C255.3,230.092,254.023,229.162,253.42,229.564Z" transform="translate(-252.507 -229.47)" fill="#2d2d2d"/>
            <path id="Trazado_170965" data-name="Trazado 170965" d="M252.6,238.071v-7.48c0-1.7,2.188-.708,2.188,1.263v7.481Z" transform="translate(-252.601 -229.377)" fill="#424242"/>
          </g>
          <g id="Grupo_118255" data-name="Grupo 118255" transform="translate(1.506)">
            <path id="Trazado_170966" data-name="Trazado 170966" d="M246.156,245.842,258.033,239V224.587l-11.877,6.835Z" transform="translate(-244.188 -223.408)" fill="#639648"/>
            <path id="Trazado_170967" data-name="Trazado 170967" d="M256.911,225.738l-9.881,5.686v12.413l9.881-5.688Z" transform="translate(-243.864 -222.982)" fill="#353d3b"/>
            <path id="Trazado_170968" data-name="Trazado 170968" d="M256.147,226.526l-8.679,4.994v.762l8.679-5Z" transform="translate(-243.702 -222.69)" fill="#fff"/>
            <path id="Trazado_170969" data-name="Trazado 170969" d="M256.147,227.735l-8.679,4.995v.762l8.679-5Z" transform="translate(-243.702 -222.242)" fill="#fff"/>
            <path id="Trazado_170970" data-name="Trazado 170970" d="M256.147,232.643l-8.679,4.994v.763l8.679-5Z" transform="translate(-243.702 -220.424)" fill="#fff"/>
            <path id="Trazado_170971" data-name="Trazado 170971" d="M256.147,233.833l-8.679,4.995v.762l8.679-5Z" transform="translate(-243.702 -219.984)" fill="#fff"/>
            <path id="Trazado_170972" data-name="Trazado 170972" d="M256.147,228.915l-8.679,4.994v4.142l8.679-5Z" transform="translate(-243.702 -221.805)" fill="#fff"/>
            <path id="Trazado_170973" data-name="Trazado 170973" d="M244.72,228.749v14.422l1.968,1.129v-14.42Z" transform="translate(-244.72 -221.867)" fill="#639648"/>
            <path id="Trazado_170974" data-name="Trazado 170974" d="M258.565,224.908l-11.877,6.835-1.968-1.132,11.769-6.884Z" transform="translate(-244.72 -223.727)" fill="#78aa5b"/>
          </g>
          <g id="Grupo_118256" data-name="Grupo 118256" transform="translate(0 14.926)">
            <path id="Trazado_170975" data-name="Trazado 170975" d="M244.44,234.712h0l-.562.325.256.375.007-.005c0,.027-.007.049-.007.078v7.479l1.368.791c.059.273.218.824.218.824l.6-.351v-7.48C246.319,235.24,245.043,234.311,244.44,234.712Z" transform="translate(-243.527 -234.619)" fill="#2d2d2d"/>
            <path id="Trazado_170976" data-name="Trazado 170976" d="M243.621,243.221v-7.48c0-1.7,2.189-.708,2.189,1.263v7.48Z" transform="translate(-243.621 -234.525)" fill="#424242"/>
          </g>
          <path id="Trazado_170977" data-name="Trazado 170977" d="M243.9,235.925a1.34,1.34,0,0,0,.561,1.07c.31.178.56-.011.56-.423a1.34,1.34,0,0,0-.56-1.07C244.153,235.322,243.9,235.512,243.9,235.925Z" transform="translate(-243.517 -219.391)" fill="#fff"/>
        </g>
      </g>
      <g id="Grupo_118261" data-name="Grupo 118261" transform="translate(237.58 285.037)">
        <g id="Grupo_118260" data-name="Grupo 118260" transform="translate(0 13.476)">
          <g id="Grupo_118259" data-name="Grupo 118259">
            <path id="Trazado_170978" data-name="Trazado 170978" d="M223.757,263.285h0a4.81,4.81,0,0,0-4.569.486c-4.022,2.323-7.282,8.553-7.282,13.916,0,2.889.947,4.933,2.447,5.846l7.107,4.492,9.376-20.249S223.886,263.348,223.757,263.285Z" transform="translate(-211.906 -262.908)" fill="#e5e5e5"/>
            <path id="Trazado_170979" data-name="Trazado 170979" d="M231.557,272.517c0,5.364-3.261,11.593-7.284,13.916s-7.282-.143-7.282-5.506,3.26-11.593,7.282-13.916S231.557,267.155,231.557,272.517Z" transform="translate(-210.023 -261.711)" fill="#d1d1d1"/>
            <path id="Trazado_170980" data-name="Trazado 170980" d="M225.029,273.5a4.694,4.694,0,0,1-1.958,3.744c-1.083.624-1.96-.038-1.96-1.481a4.687,4.687,0,0,1,1.96-3.743C224.152,271.395,225.029,272.058,225.029,273.5Z" transform="translate(-208.497 -259.62)" fill="#494949"/>
          </g>
        </g>
        <path id="Trazado_170981" data-name="Trazado 170981" d="M227.471,266.372a10.167,10.167,0,0,0-9.59,3.867c.663-2.756,2.826-5.247,4.97-7.036-3.485,1.553-5.29,4.84-6.008,8.469a13.344,13.344,0,0,0-1.606,11.067c-.164-2.974-.374-7.244,1.475-10.3a23.205,23.205,0,0,0,.121,7.482c.071-.935.341-6.064.874-8.881.042-.051.074-.107.118-.156A13.935,13.935,0,0,1,227.471,266.372Z" transform="translate(-210.886 -249.321)" fill="#afafaf"/>
        <path id="Trazado_170982" data-name="Trazado 170982" d="M216.573,268.221c-4.14,3.309-4.576,10.383-2.075,13.69-1.731-3.7-1.527-9.716,2.219-13.505C216.807,268.313,216.681,268.135,216.573,268.221Z" transform="translate(-211.517 -247.472)" fill="#afafaf"/>
        <path id="Trazado_170983" data-name="Trazado 170983" d="M233.8,279.27a26.312,26.312,0,0,1,.386-10.015l5.856.137a31,31,0,0,1,2.132,6.448c.436,2.756-.2,4.067-1.3,5.372s-5-.436-5.149-.533C235.687,280.654,234.921,280.093,233.8,279.27Z" transform="translate(-203.913 -247.08)" fill="#ffd0ca"/>
        <path id="Trazado_170984" data-name="Trazado 170984" d="M228.948,322.159s-4.515-2.013-6.749-2.109-2.449,2.527,0,4.562,4.326,2.306,6.331,3.13c1.808.743,2.456.8,3.9-.134,1.924-1.247.382-4.546.382-4.546Z" transform="translate(-208.745 -228.268)" fill="#fff"/>
        <path id="Trazado_170985" data-name="Trazado 170985" d="M238.315,316.374a22.756,22.756,0,0,0-5.821-1.6c-2.234-.1-3.035,1.835-.585,3.869a18.448,18.448,0,0,0,5.989,3.309c1.806.743,2.446.787,3.9-.134,1.977-1.254.432-4.551.382-4.546Z" transform="translate(-205.054 -230.22)" fill="#fff"/>
        <path id="Trazado_170986" data-name="Trazado 170986" d="M227.508,283.911s-3.943,21.292-3.943,27.979c0,11.789.1,24.2.1,24.2s1.954,2.051,3.856,2.057c4.281.011,4.713-2.142,4.713-2.142s.059-14.052.432-20.434c.26-4.441.519-10.7,2.3-15.857.051,5.3.038,7,.473,12.769.321,4.258,2.094,15.685,2.191,16.429,1.357,1.639,5.564,2.771,7.695.371-.166-1.88-1.35-15.081-1.195-21.926.141-6.287,1.746-21.178-1.85-24.079C239.179,280.777,227.508,283.911,227.508,283.911Z" transform="translate(-207.588 -242.244)" fill="#6389d3"/>
        <path id="Trazado_170987" data-name="Trazado 170987" d="M234.77,276.85a28.165,28.165,0,0,1,.678-4.969l-2.1-6.666s2.937-1.49,4.922.877c.589.7,4.728,9.116,4.781,14.408.023,2.145-2.116,3.229-4.245,3.855C237.8,286.124,238.155,276.961,234.77,276.85Z" transform="translate(-203.963 -248.748)" fill="#e5e5e5"/>
        <path id="Trazado_170988" data-name="Trazado 170988" d="M231.086,255.711a4.137,4.137,0,0,1,5.9,2.019c.726,1.532-.3,5.653-.462,8.546a7.056,7.056,0,0,0,.651,3.682l-2,.825a6.042,6.042,0,0,1-4.088,0l.064-3.559a9.484,9.484,0,0,1-2.532-.666c-.909-.833-1.388-3.308-.967-6.5C228.277,255.3,230.507,256.112,231.086,255.711Z" transform="translate(-206.132 -252.31)" fill="#ffd0ca"/>
        <path id="Trazado_170989" data-name="Trazado 170989" d="M227.671,277.565c-1.181-2.521,1.5-7.1,2.249-8.743s3.156-2.646,3.156-2.646l7.3-1.085s3.192,5.553,3.616,8.865c.3,2.321-1.281,6.734-.066,12.5,3.29,15.61,2.179,27.82,2.753,29.491-2.563,2.641-10.182,6.812-13.475,6.008-5.255-1.284-9.756-6.1-11.07-7.707C222.734,311.354,230.085,282.719,227.671,277.565Z" transform="translate(-208.119 -248.623)" fill="#fff"/>
        <path id="Trazado_170990" data-name="Trazado 170990" d="M230.573,265.459s2.916.859,4.636-.482c2.435-1.9,2.7.772,2.7.772a6.389,6.389,0,0,1-3.063,2.08,7.391,7.391,0,0,1-5.875-.463C228.962,266.048,230.573,265.459,230.573,265.459Z" transform="translate(-205.584 -248.917)" fill="#e5e5e5"/>
        <path id="Trazado_170991" data-name="Trazado 170991" d="M227.4,260.628s-.226,2.637.783,3.616a3.806,3.806,0,0,0,3.007.944,24.378,24.378,0,0,0,3.141-.944l-1.155-2.626S227.844,260.755,227.4,260.628Z" transform="translate(-206.174 -250.275)" fill="#f2f2f2"/>
        <path id="Trazado_170992" data-name="Trazado 170992" d="M230.788,261.393c-.837-.78-1.78-1.443-2.575-2.272-.071-.281-.129-.529-.162-.71a3.631,3.631,0,0,1,.978-3.385c1.184-1.231,5.288-1.627,6.774-.769s4.643,2.428,3.541,7.548c-.891,4.139-3,4.964-3,4.964s-.752.122-1.75-1.139a14.813,14.813,0,0,1-1.394-2.223,3.608,3.608,0,0,0-.9-2.236C231.749,260.667,231.188,260.967,230.788,261.393Z" transform="translate(-205.957 -252.805)" fill="#4a151a"/>
        <path id="Trazado_170993" data-name="Trazado 170993" d="M225.721,284.04c-2.373-1.85-1.666-4.289-.406-8.147l.781-2.439,5.476,2.232s-1.38,3.7-2.19,5.383c-1.154,2.4-2.384,3.2-3.549,3.416C225.707,284.509,225.845,284.047,225.721,284.04Z" transform="translate(-207.37 -245.525)" fill="#ffd0ca"/>
        <path id="Trazado_170994" data-name="Trazado 170994" d="M225.585,288.057c-2.6.558-.418-4.795-1.872-6.778,1.059-4.788,3.917-13.687,6.224-14.452,1.242-.411,3.46,3.889,3.085,6.935C232.915,274.624,231.735,287.382,225.585,288.057Z" transform="translate(-207.533 -247.989)" fill="#e5e5e5"/>
        <path id="Trazado_170995" data-name="Trazado 170995" d="M221.753,280.454a5.1,5.1,0,0,1,1.429-3c-.177-.042-.352-.088-.53-.126,0,0-2.617-3.368-3.375-4.451s-1.1-.622-1,.2a12.4,12.4,0,0,0,.935,2.463s-2.559-1.058-3.726-1.477c-2.172-.78-2.735,1.065-1.821,2.857,1.439,2.823,7.366,3.3,7.366,3.3a7.763,7.763,0,0,1,.706.362C221.739,280.545,221.744,280.5,221.753,280.454Z" transform="translate(-211.412 -245.972)" fill="#fff"/>
        <path id="Trazado_170996" data-name="Trazado 170996" d="M220.982,275.506c2.13.012,5.868,2.154,8.128,2.549a3.062,3.062,0,0,1,2.678,3.806c-.608,1.591-3.574,4.2-5.409,3.122-.7-.41-2.139-.7-3.755-1.622a13.32,13.32,0,0,1-4.24-3.684C217.786,278.6,218.192,275.49,220.982,275.506Z" transform="translate(-209.595 -244.765)" fill="#e5e5e5"/>
        <path id="Trazado_170997" data-name="Trazado 170997" d="M227.943,257.91a2.956,2.956,0,0,1,.83-3.322c1.646-1.311,6.867-2.191,9.467-.836s4.437,6.426,4.088,8.718-1.05,5.624-3.094,6.2-7.212-2.441-7.48-4.011,0-2.008,0-2.008S228.187,260.618,227.943,257.91Z" transform="translate(-206.041 -253.073)" fill="#d1d1d1"/>
        <path id="Trazado_170998" data-name="Trazado 170998" d="M227.946,256.6a6.976,6.976,0,0,0,1.686,2.615c1.22,1.159,2.125,2.128,2.125,2.128a15.376,15.376,0,0,1-3.053-1.786c-1.006-.88-.97-1.359-.97-1.359Z" transform="translate(-206.044 -251.766)" fill="#afafaf"/>
        <path id="Trazado_170999" data-name="Trazado 170999" d="M231.28,260.454s1.422,1.28,2.213,2a3.794,3.794,0,0,1,1,1.257s-2-.57-2.511-1.429A6.542,6.542,0,0,1,231.28,260.454Z" transform="translate(-204.73 -250.34)" fill="#afafaf"/>
        <path id="Trazado_171000" data-name="Trazado 171000" d="M229.871,258.572a3.35,3.35,0,0,1,2.713.121,4.262,4.262,0,0,1,2.058,1.784,15.128,15.128,0,0,1-3.045-.989A10.624,10.624,0,0,0,229.871,258.572Z" transform="translate(-205.252 -251.12)" fill="#afafaf"/>
        <path id="Trazado_171001" data-name="Trazado 171001" d="M232.169,256.612a1.652,1.652,0,0,1-1.569.9,6.077,6.077,0,0,0-1.72,0A3.785,3.785,0,0,1,232.169,256.612Z" transform="translate(-205.619 -251.775)" fill="#afafaf"/>
        <path id="Trazado_171002" data-name="Trazado 171002" d="M232.394,253.77c-1.694.008-2.368.846-2.23,1.594s1.035,1.039,2.069,1.616a7.911,7.911,0,0,1,2.929,4.766c.462,2.2,1.048,4.213,2.661,4.219s2.556-.449,2.885-1.988-.07-1.81-1.007-1.269c-1.98,1.143-2.557.306-3.089-2.232s-1.991-3.183-3.126-4.314S234.332,253.762,232.394,253.77Z" transform="translate(-205.15 -252.816)" fill="#fff" opacity="0.5"/>
      </g>
      <g id="Grupo_118265" data-name="Grupo 118265" transform="translate(291.278 283.185)">
        <path id="Trazado_171003" data-name="Trazado 171003" d="M264.78,278.5l-8.758,4.964L251.091,268l8.758-4.964Z" transform="translate(-251.091 -247.531)" fill="#262626"/>
        <path id="Trazado_171004" data-name="Trazado 171004" d="M265.018,278.378l-8.758,4.964-4.931-15.461,8.758-4.964Z" transform="translate(-251.003 -247.576)" fill="#494949"/>
        <path id="Trazado_171005" data-name="Trazado 171005" d="M263.727,276.691l-7.457,4.227-4.2-13.165,7.457-4.227Z" transform="translate(-250.728 -247.35)" fill="#fff"/>
        <path id="Trazado_171006" data-name="Trazado 171006" d="M259.725,268.523c.127.4.545,1.713.545,1.713a10.765,10.765,0,0,0-1.253.791c-.355.3-.055.6.382.6a8.018,8.018,0,0,0,1.613,0c.355-.11.759-.237.759-.237l1.05-1.81S261.115,268.262,259.725,268.523Z" transform="translate(-248.213 -245.512)" fill="#ffc4b2"/>
        <path id="Trazado_171007" data-name="Trazado 171007" d="M254.073,274.361a5.466,5.466,0,0,1,1.639-.428c.5-.042.585.185.458.43a1.129,1.129,0,0,1-.539.471,7.262,7.262,0,0,0-1.078,1.231,2.743,2.743,0,0,0-.589,1.311s.5,2.16-.547,1.2c-1.257-1.162-2.158-3.59-1.558-4.75a6.03,6.03,0,0,1,1.372-1.78Z" transform="translate(-250.877 -244.195)" fill="#ffc4b2"/>
        <path id="Trazado_171008" data-name="Trazado 171008" d="M270,264.189A3.721,3.721,0,0,1,274.314,266c1.51,2.7.363,6.852-.621,8.259s-4.969-2.848-4.969-2.848Z" transform="translate(-244.56 -247.156)" fill="#e5e5e5"/>
        <g id="Grupo_118262" data-name="Grupo 118262" transform="translate(16.326 68.375)">
          <path id="Trazado_171009" data-name="Trazado 171009" d="M267.935,324.557c-1.506-.752-2.935-1.672-2.478-2.531a1.521,1.521,0,0,1,1.148-.636,6.4,6.4,0,0,0,2.306.378s-.887-14.181-.965-18.234c-.022-1.118,5.024-1.917,5.024-1.917a22.232,22.232,0,0,1,.745,5.364c-.037,4.713-.843,11.737-1.073,14.414a8.387,8.387,0,0,0,.428,2.846c-.358.155-1.1.477-1.649.728A4.165,4.165,0,0,1,267.935,324.557Z" transform="translate(-262.128 -301.617)" fill="#f9b5a2"/>
          <path id="Trazado_171010" data-name="Trazado 171010" d="M274.009,321.245c-.5,1.2-1.662,1.087-4.007.243a20.145,20.145,0,0,1-5.276-2.69c-1.48-1.094-1.5-1.24-1.69-1.98-.274-1.036,1.239-1.617,3.753-.836.249.077.478.151.692.222a1.521,1.521,0,0,0-1.148.636c-.458.859.972,1.779,2.478,2.531a4.165,4.165,0,0,0,3.488.411c.551-.251,1.291-.573,1.649-.728C274.1,320.06,274.312,320.526,274.009,321.245Z" transform="translate(-263.005 -296.43)" fill="#2d2d2d"/>
        </g>
        <g id="Grupo_118263" data-name="Grupo 118263" transform="translate(9.006 68.002)">
          <path id="Trazado_171011" data-name="Trazado 171011" d="M262.593,328.906c-1.5-.752-2.934-1.673-2.476-2.531a1.527,1.527,0,0,1,1.148-.637,10.407,10.407,0,0,0,2.1.518,112.105,112.105,0,0,0,.295-11.663,100.726,100.726,0,0,0-1.294-12.1c-.2-1.1,5.212-1.148,5.212-1.148.059.236,1.794,4.455,1.82,6.9.059,5.538-1.8,14.634-2.049,17.493a8.563,8.563,0,0,0,.381,2.848c-.358.156-1.1.478-1.649.729A4.178,4.178,0,0,1,262.593,328.906Z" transform="translate(-256.786 -301.345)" fill="#f9b5a2"/>
          <path id="Trazado_171012" data-name="Trazado 171012" d="M268.669,324.345c-.5,1.2-1.664,1.085-4.007.243a20.2,20.2,0,0,1-5.277-2.69c-1.479-1.095-1.494-1.24-1.69-1.98-.273-1.037,1.24-1.618,3.755-.836.248.077.477.151.692.221a1.527,1.527,0,0,0-1.148.637c-.458.858.972,1.779,2.476,2.531a4.178,4.178,0,0,0,3.489.411c.551-.251,1.291-.573,1.649-.729C268.76,323.159,268.971,323.626,268.669,324.345Z" transform="translate(-257.663 -294.91)" fill="#2d2d2d"/>
        </g>
        <path id="Trazado_171013" data-name="Trazado 171013" d="M266.934,254.727c-.622.432-2.944.965-3.592,6.078-.574,4.53.423,5.71,1.344,6.094A10.627,10.627,0,0,0,267,267.1l-.07,3.826a6.5,6.5,0,0,0,4.395,0l2.151-.888a7.576,7.576,0,0,1-.7-3.956c.175-3.112,1.277-7.543.5-9.19A4.449,4.449,0,0,0,266.934,254.727Z" transform="translate(-246.616 -250.838)" fill="#ffc4b2"/>
        <path id="Trazado_171014" data-name="Trazado 171014" d="M278.416,272.375c-.947-7.484-2.986-7.852-2.986-7.852s-5.736,1.481-7.3,2.012c-1.477.5-2.8,1.257-4.341,4.354s.421,7.6.421,7.6a43.215,43.215,0,0,1-.275,8.5c-.451,3.411-.819,3.71-2.172,9.086-.713,2.834-3.322,13.282-3.655,21.449,0,0,2.053,3.118,8.923,3.579,4.709.317,12.709-4.546,12.709-4.546s1.074-20.358-1.787-27.477C275.977,284.171,278.885,276.074,278.416,272.375Z" transform="translate(-248.493 -246.981)" fill="#fff"/>
        <path id="Trazado_171015" data-name="Trazado 171015" d="M266.6,262.532c1.269,1.327,2.509,1.745,2.889,2.939,4.452.055,6.372-2.405,7.348-6.846-1.633-2.689-3.825-4.7-6.09-5.176-5.475-1.157-7.589,1.317-7.252,4.921C263.658,260.127,265.316,261.19,266.6,262.532Z" transform="translate(-246.51 -251.189)" fill="#703434"/>
        <path id="Trazado_171016" data-name="Trazado 171016" d="M266.009,267.743c-2.427.232-7.092,10.973-7.092,10.973s-.2.047-.555.112a14.835,14.835,0,0,0-.1,4.43,4.955,4.955,0,0,0,2.352-.489s7.68-6.282,7.845-9.965C268.591,269.926,267.275,267.623,266.009,267.743Z" transform="translate(-248.479 -245.79)" fill="#ffc4b2"/>
        <path id="Trazado_171017" data-name="Trazado 171017" d="M264.278,259.825s1.343-2.3,1.921,0a2.339,2.339,0,0,1-1.328,2.857Z" transform="translate(-246.207 -249.1)" fill="#ffc4b2"/>
        <g id="Grupo_118264" data-name="Grupo 118264" transform="translate(15.688 0)">
          <path id="Trazado_171018" data-name="Trazado 171018" d="M263.409,260.66a8.167,8.167,0,0,1-.836-4.58c.237-2.794,3.172-5.172,7.771-4.092s6.383,4.049,7.3,7.211.559,6.2-2.032,6.986-6.8,1.213-8.27-.973A24.1,24.1,0,0,0,263.409,260.66Z" transform="translate(-262.539 -251.722)" fill="#d1d1d1"/>
          <path id="Trazado_171019" data-name="Trazado 171019" d="M263.517,255.7s.114,1.8.212,2.674a5.892,5.892,0,0,0,.547,2,3.442,3.442,0,0,0,.219-2.331C264.087,257.06,263.517,255.7,263.517,255.7Z" transform="translate(-262.177 -250.248)" fill="#afafaf"/>
          <path id="Trazado_171020" data-name="Trazado 171020" d="M265.6,257.231s-.426,1.709-.556,2.578a9.241,9.241,0,0,0-.125,1.318,1.4,1.4,0,0,0,1.133-1.109A6.262,6.262,0,0,0,265.6,257.231Z" transform="translate(-261.656 -249.682)" fill="#afafaf"/>
          <path id="Trazado_171021" data-name="Trazado 171021" d="M269.9,261.3a5.129,5.129,0,0,1-2.019-.326,6.592,6.592,0,0,0-2.327-.341,3.869,3.869,0,0,0,2.733,1.195C269.712,261.661,269.9,261.3,269.9,261.3Z" transform="translate(-261.423 -248.423)" fill="#afafaf"/>
          <path id="Trazado_171022" data-name="Trazado 171022" d="M262.91,257.653l.362,1.252a5.436,5.436,0,0,1,1.513,1.344,14.359,14.359,0,0,0,1.747,1.823,15.68,15.68,0,0,0-2.328-3.483A5.668,5.668,0,0,0,262.91,257.653Z" transform="translate(-262.402 -249.525)" fill="#afafaf"/>
          <path id="Trazado_171023" data-name="Trazado 171023" d="M266.335,252.376c-1.828.007-2.554.911-2.4,1.718s1.116,1.12,2.231,1.743a8.525,8.525,0,0,1,3.159,5.14c.5,2.369,2.512,4.076,4.252,4.084s2.75-.281,3.105-1.94.208-2.835-.8-2.252c-2.135,1.233-4.418,1.475-4.992-1.262s-2.147-3.434-3.371-4.652S268.425,252.366,266.335,252.376Z" transform="translate(-262.031 -251.48)" fill="#fff" opacity="0.5"/>
        </g>
        <path id="Trazado_171024" data-name="Trazado 171024" d="M264.332,267.6a8.02,8.02,0,0,1,4.428-3.093,28.847,28.847,0,0,0,3.61-.952l.755,1.329A84.79,84.79,0,0,1,264.332,267.6Z" transform="translate(-246.187 -247.34)" fill="#e5e5e5"/>
        <path id="Trazado_171025" data-name="Trazado 171025" d="M268.628,267.552c-1.146-.449-2.112.511-3.187,1.84s-4.355,7.926-4.847,8.154-.656-.474-1.558,0a1.944,1.944,0,0,1-1.913.095,23.279,23.279,0,0,0-2.706-.41,2.523,2.523,0,0,0-1.339,3.689c1.2.451,3.618,1.579,6.259,2.449,1.666.55,2.993.832,4.469,0s6.638-5.9,7.207-8.411S271.415,268.646,268.628,267.552Z" transform="translate(-250.483 -245.9)" fill="#e5e5e5"/>
      </g>
      <g id="Grupo_118278" data-name="Grupo 118278" transform="translate(150.186 306.774)">
        <g id="Grupo_118269" data-name="Grupo 118269" transform="translate(0 20.597)">
          <path id="Trazado_171026" data-name="Trazado 171026" d="M318.33,219.872c0,7.148-10.294,12.943-22.994,12.943s-22.995-5.8-22.995-12.943,10.294-12.94,22.995-12.94S318.33,212.726,318.33,219.872Z" transform="translate(-258.941 -172.499)" fill="#a35745"/>
          <g id="Grupo_118266" data-name="Grupo 118266" transform="translate(1.64 23.895)">
            <path id="Trazado_171027" data-name="Trazado 171027" d="M275.521,214.134c5.6.791,12.528,5.216,16.7,5.634s11.772-3.141,16.28-2.948,8.015,1.165,11.437-1.033,6.261-5.62,9.35-6.622c.381-.123.761-.241,1.135-.355a85.331,85.331,0,0,0,2.845-9.568l-69.51,2.151s.825,2.65,2.29,6.4C268.127,210.149,271.816,213.61,275.521,214.134Z" transform="translate(-263.76 -199.242)" fill="#a35745"/>
            <path id="Trazado_171028" data-name="Trazado 171028" d="M289.6,224.043c-3.064-.486-5.362.09-7.736.493a47.581,47.581,0,0,0,14.47.358A38.631,38.631,0,0,1,289.6,224.043Z" transform="translate(-257.055 -190.125)" fill="#a35745"/>
            <path id="Trazado_171029" data-name="Trazado 171029" d="M295.025,224.755a38.617,38.617,0,0,0,7.09-2.071,32.527,32.527,0,0,0-4.1,1.007A27.556,27.556,0,0,1,295.025,224.755Z" transform="translate(-252.18 -190.56)" fill="#a35745"/>
            <path id="Trazado_171030" data-name="Trazado 171030" d="M289.824,220.362c5.343-.167,9.935,2.923,16.7,1.336s8.769-3.34,11.773-4.592a27.4,27.4,0,0,1,6.261-1.276c.733-1.317,1.41-2.659,2.031-4-2.051.993-5.7,1.284-7.626,2.1-2.171.918-5.677,5.009-13.524,5.845s-11.689-1.671-14.36-1.838-10.1,1.671-14.527-1-3.993-5.343-8.384-7.263a6.784,6.784,0,0,1-1.309-.767c.907,2.049,1.94,4.207,3.081,6.319a33.452,33.452,0,0,1,4.826,2.631C280.556,221.531,284.48,220.529,289.824,220.362Z" transform="translate(-262.613 -195.662)" fill="#a35745"/>
            <path id="Trazado_171031" data-name="Trazado 171031" d="M305.038,220.128c-2.087.5-8.516,3.174-15.446,2.171s-8.766-3.172-11.354-3.422c-1.47-.143-3.8.226-5.8.266q.756.97,1.544,1.832a9.465,9.465,0,0,1,4.341-.178c3.005.667,8.181,4.258,11.772,3.673s8.032-.806,12.532-1.947,6.911,1.781,14.039-1.836a30.91,30.91,0,0,0,2.576-3.034,16.535,16.535,0,0,1-3.851,1.642C311.134,220.463,307.125,219.628,305.038,220.128Z" transform="translate(-260.546 -192.423)" fill="#a35745"/>
            <path id="Trazado_171032" data-name="Trazado 171032" d="M277.076,218.208c4.425,2.672,11.855.836,14.527,1s6.512,2.672,14.36,1.838,11.354-4.927,13.524-5.845c1.931-.817,5.575-1.107,7.626-2.1,1.054-2.273,1.949-4.528,2.691-6.6-.374.114-.754.232-1.135.355-3.089,1-5.927,4.425-9.35,6.622s-6.929,1.226-11.437,1.033-12.106,3.366-16.28,2.948-11.1-4.843-16.7-5.634c-3.7-.523-7.393-3.985-9.471-6.345.56,1.436,1.214,3.027,1.953,4.7a6.785,6.785,0,0,0,1.309.767C273.083,212.865,272.652,215.538,277.076,218.208Z" transform="translate(-263.141 -196.932)" fill="#d18b69"/>
            <path id="Trazado_171033" data-name="Trazado 171033" d="M317.462,215.4c-3,1.253-5.011,3.005-11.773,4.592s-11.355-1.5-16.7-1.336-9.268,1.169-15.06-2.5a33.446,33.446,0,0,0-4.826-2.631,51.844,51.844,0,0,0,4.568,7.155c2-.04,4.332-.408,5.8-.266,2.587.249,4.425,2.42,11.354,3.422s13.358-1.669,15.445-2.171,6.1.334,10.353-.835a16.534,16.534,0,0,0,3.851-1.642,44.373,44.373,0,0,0,3.246-5.061A27.4,27.4,0,0,0,317.462,215.4Z" transform="translate(-261.781 -193.954)" fill="#d18b69"/>
            <path id="Trazado_171034" data-name="Trazado 171034" d="M295.989,224.2c-1.165.23-2.357.426-3.567.574A13.926,13.926,0,0,0,295.989,224.2Z" transform="translate(-253.144 -190)" fill="#d18b69"/>
            <path id="Trazado_171035" data-name="Trazado 171035" d="M302.209,221.721c-4.5,1.142-8.942,1.364-12.532,1.947s-8.766-3.005-11.772-3.673a9.465,9.465,0,0,0-4.341.178,21.634,21.634,0,0,0,1.861,1.82,20.8,20.8,0,0,0,9.512,4.04c2.374-.4,4.672-.98,7.736-.493a38.631,38.631,0,0,0,6.734.851c1.21-.148,2.4-.344,3.567-.574a27.556,27.556,0,0,0,2.986-1.063,32.527,32.527,0,0,1,4.1-1.007,18.345,18.345,0,0,0,6.185-3.862C309.12,223.5,306.708,220.579,302.209,221.721Z" transform="translate(-260.129 -191.622)" fill="#d18b69"/>
          </g>
          <g id="Grupo_118268" data-name="Grupo 118268">
            <g id="Grupo_118267" data-name="Grupo 118267">
              <path id="Trazado_171036" data-name="Trazado 171036" d="M298.959,181.8c-20.1,0-36.4,9.171-36.4,20.483s16.3,20.486,36.4,20.486,36.394-9.173,36.394-20.486S319.058,181.8,298.959,181.8Zm0,36.939c-17.494,0-31.676-7.675-31.676-17.142s14.182-17.141,31.676-17.141,31.675,7.674,31.675,17.141S316.453,218.743,298.959,218.743Z" transform="translate(-262.563 -181.805)" fill="#ba715d"/>
            </g>
            <path id="Trazado_171037" data-name="Trazado 171037" d="M297.683,183.743c-17.494,0-31.676,7.674-31.676,17.141s14.182,17.142,31.676,17.142,31.675-7.675,31.675-17.142S315.177,183.743,297.683,183.743Z" transform="translate(-261.287 -181.087)" fill="#a35745"/>
          </g>
        </g>
        <g id="Grupo_118271" data-name="Grupo 118271" transform="translate(22.052 16.56)">
          <g id="Grupo_118270" data-name="Grupo 118270" transform="translate(0.724 0.376)">
            <path id="Trazado_171038" data-name="Trazado 171038" d="M300.128,199.738A12.274,12.274,0,0,1,285.684,180.2a12.279,12.279,0,1,0,14.444,19.536Z" transform="translate(-279.183 -178.737)" fill="#58873d"/>
            <path id="Trazado_171039" data-name="Trazado 171039" d="M290.734,201.269a12.228,12.228,0,0,0,8.621-1.135A12.274,12.274,0,0,0,284.911,180.6a12.273,12.273,0,0,0,5.823,20.671Z" transform="translate(-278.41 -179.133)" fill="#639648"/>
          </g>
          <path id="Trazado_171040" data-name="Trazado 171040" d="M290.635,203.667a19.222,19.222,0,0,1-.917-4.014c2.861,1.934,6.409,2.993,9.624,1.912a.149.149,0,0,0-.048-.29c-3.636-.206-6.946-.962-9.693-2.928-.032-.566-.033-1.132-.021-1.7l.014,0c.825.192,1.651.343,2.472.454,2.3,2.552,5.79,4.2,9.028,2.526a.114.114,0,0,0-.064-.21,10.059,10.059,0,0,1-7.632-2.175c.613.049,1.218.081,1.812.084,4.406.015,9.128-2.609,8.842-7.471,0-.073-.145-.252-.167-.186a9.37,9.37,0,0,1-3.855,5.624c-2.26,1.444-5.009,1.373-7.578,1-.152-.177-.312-.343-.454-.533.466-.206.926-.418,1.372-.651,3.766-1.982,8.659-6,8.5-10.681-.007-.2-.3-.337-.351-.152a16.182,16.182,0,0,1-10.05,10.7,11.918,11.918,0,0,1-1.124-2.479c-.047-.145-.086-.307-.13-.46,1.253-4.7,4.171-8.6,9.19-10.059.225-.066.1-.263-.106-.282-4.487-.414-7.729,4.333-9.228,7.951-.1.229-.166.465-.251.7a21.511,21.511,0,0,1-.088-7.108,13.729,13.729,0,0,1,6.331-3.2.185.185,0,0,0-.011-.355,7.615,7.615,0,0,0-5.969,1.994,6.976,6.976,0,0,1,1.384-2.438c.274-.366-.169-.536-.489-.178a5.873,5.873,0,0,0-1.757,3.4,17.893,17.893,0,0,0-3.422,4.991,22.638,22.638,0,0,0-1.355,3.769,34.838,34.838,0,0,1-1.395-8.836c-.023-.328-.529-.406-.593-.059a17.989,17.989,0,0,0,1.614,10.635c-.026.143-.045.286-.069.429-1.643-.9-3.241-1.931-4.888-3.035-.314-.211-.615.263-.375.514a18.773,18.773,0,0,0,5.1,3.7c-.025.215-.053.429-.07.645-.03.392-.07.854-.1,1.338a24.036,24.036,0,0,1-4.01-.181.356.356,0,0,0-.164.692,16.763,16.763,0,0,0,4.129.493c-.037,1.618.329,3.522,1.348,4.451.186.169.455.262.341.048a11.354,11.354,0,0,1-1.1-4.507,19.659,19.659,0,0,0,2.743-.269,15.8,15.8,0,0,0,1.731,1.627,17,17,0,0,0,1.194,4.651C290.076,204.07,290.82,204.2,290.635,203.667Zm-.508-9.5a10.606,10.606,0,0,0,.569,1.08c-.352.125-.7.249-1.065.355a19.381,19.381,0,0,1,.252-2.053C289.962,193.754,290.036,193.962,290.127,194.166Zm-5.244-1.8a26.617,26.617,0,0,1,1.8-4.935,14.675,14.675,0,0,1,2.364-3.515c-.044.478-.081.951-.116,1.4a20.43,20.43,0,0,0,.4,6.491,19.421,19.421,0,0,0-.643,3.619,24.438,24.438,0,0,1-2.76-1.083A15.365,15.365,0,0,1,284.882,192.37Zm-.484,2.467c.323.153.651.3.983.441.243.367.493.725.758,1.063-.634.086-1.272.144-1.909.18C284.257,195.964,284.32,195.4,284.4,194.836Z" transform="translate(-278.655 -178.859)" fill="#517f36"/>
        </g>
        <path id="Trazado_171041" data-name="Trazado 171041" d="M283.91,216.263c1.592.37,3.205.744,4.826,1.043,3.88-.523,7.8-.791,11.7-1.089.277-.073.55-.166.824-.243a12.288,12.288,0,1,0-17.354.289Z" transform="translate(-256.048 -156.269)" fill="#494949"/>
        <path id="Trazado_171042" data-name="Trazado 171042" d="M305.883,205.039a12.037,12.037,0,0,1-8.775,3.886c3.715-3.112,5.651-7.584,2.443-11.989-.044-.062-.152-.027-.129.053.665,2.323,1.4,4.4.5,6.793a11.87,11.87,0,0,1-4.262,5.024l-.1.07a15.5,15.5,0,0,1-2.7-.489c-.852-.233-1.776-.521-2.713-.87,4.828-2.188,9-7.325,8.655-11.936-.018-.244-.4-.333-.454-.062a16.326,16.326,0,0,1-9.512,11.463c-3.645-1.6-7.056-4.191-6.681-8.278.011-.111-.152-.144-.2-.055-2.143,3.725,1.966,6.86,5.7,8.75a12,12,0,0,1-5.176.4c-.088-.012-.164.114-.067.158a8.886,8.886,0,0,0,6.507.041c.911.408,1.749.73,2.4.954a18.339,18.339,0,0,0,3.06.765c-3.364,2.26-7.5,3.836-11.011.851a.321.321,0,0,0-.455.454c3.659,3.982,9.224,1.514,12.946-1.137,4.044.3,8.151-.87,10.344-4.6A.2.2,0,0,0,305.883,205.039Z" transform="translate(-255.599 -156.19)" fill="#2d2d2d"/>
        <g id="Grupo_118272" data-name="Grupo 118272" transform="translate(45.105 18.842)">
          <path id="Trazado_171043" data-name="Trazado 171043" d="M297.844,187.178a11,11,0,0,1,.869-4.3,11.034,11.034,0,1,0,17.962,12.1,11.033,11.033,0,0,1-18.83-7.806Z" transform="translate(-295.477 -179.652)" fill="#547fc6"/>
          <path id="Trazado_171044" data-name="Trazado 171044" d="M305.87,180.524a11,11,0,0,0-7.8,3.227,11.035,11.035,0,0,0,17.962,12.1,11.039,11.039,0,0,0-10.164-15.332Z" transform="translate(-294.837 -180.524)" fill="#6389d3"/>
          <path id="Trazado_171045" data-name="Trazado 171045" d="M316.873,192.973a11.966,11.966,0,0,1-2.672,1.816,19.769,19.769,0,0,1-5.8-3.566,19.253,19.253,0,0,1-.674-4.222,15.064,15.064,0,0,1,.237-3.262,10.861,10.861,0,0,1,4.213-1.236.243.243,0,0,0,0-.485,6.407,6.407,0,0,0-3.991.836,3.443,3.443,0,0,1,1.259-1.929.176.176,0,0,0-.136-.321c-1.21.2-1.843,1.353-2.146,2.8a18.866,18.866,0,0,0-2.2,1.532,43.427,43.427,0,0,0-1.1-4.3.094.094,0,0,0-.184.025,16.116,16.116,0,0,0,.562,4.879c-.663.578-1.277,1.169-1.82,1.729-.432.447-.847.922-1.251,1.409a46.546,46.546,0,0,0,.127-7.352c-.011-.095-.151-.13-.177-.023a34.13,34.13,0,0,0-1.029,8.78q-.388.547-.745,1.115a19.488,19.488,0,0,1-2.127-6.868c-.022-.181-.285-.249-.339-.047-.663,2.526.355,5.365,1.9,7.858a20.7,20.7,0,0,0-2.1,5.625.125.125,0,0,0,.241.067A45.13,45.13,0,0,1,299.2,192.8c.445.661.919,1.291,1.4,1.877a17.282,17.282,0,0,0,.667,2.327,12.459,12.459,0,0,0,.7,1.525c-1.1.125-3.086.251-4.222.275-.07,0-.225.219.177.386,1.185.495,3.193.258,4.53.164,1.581,2.471,2.887,3.455,5.888,3.49a.283.283,0,0,0,.075-.554c-2.672-.695-3.512-1.088-4.927-3.039.569-.079,1.135-.193,1.694-.319a10.828,10.828,0,0,0,6,2.243c.167.267.282.644.591.589.417-.074.569-.262.33-.673a3.166,3.166,0,0,0,1.787-1.161c.14-.193.03-.58-.173-.407a3.305,3.305,0,0,1-2.019.832,27.378,27.378,0,0,1-1.329-2.978,37.729,37.729,0,0,0,3.98-1.776c.719.295,1.458.573,2.224.824.423.14.6-.519.184-.663-.529-.185-1.059-.382-1.588-.588a5.24,5.24,0,0,0,2.041-1.766C317.521,192.994,317.248,192.613,316.873,192.973ZM299.721,191.9c.134-.226.27-.451.41-.673.033.525.079,1.048.145,1.565C300.081,192.495,299.9,192.2,299.721,191.9Zm7.307-7.663a20.3,20.3,0,0,0,.223,5.568c.019.1.049.207.071.312a10.988,10.988,0,0,1-2.215-4.585A15.86,15.86,0,0,1,307.028,184.233Zm-4.1,14.178a11.944,11.944,0,0,1-1.046-2.3c.206.212.41.418.611.61.508.488,1.087,1,1.712,1.488C303.784,198.286,303.358,198.351,302.93,198.411Zm-.388-2.8c-.393-.406-.763-.824-1.114-1.25a20.336,20.336,0,0,1-.308-4.61,21.89,21.89,0,0,1,3.285-3.644,13.119,13.119,0,0,0,3.183,5.166,56.812,56.812,0,0,0,1.794,5.584A34.539,34.539,0,0,1,305.264,198,21.736,21.736,0,0,1,302.543,195.615Zm8.172,4.713a10.531,10.531,0,0,1-4.459-1.651c.693-.182,1.369-.377,2-.567.473-.141.94-.3,1.4-.462A25.884,25.884,0,0,0,310.714,200.328Zm-.633-3.729c-.452-1.265-.85-2.549-1.236-3.81-.049-.162-.092-.325-.14-.486A20.489,20.489,0,0,0,313.4,195.2,35.753,35.753,0,0,1,310.081,196.6Z" transform="translate(-295.036 -180.506)" fill="#4e7cc6"/>
        </g>
        <g id="Grupo_118274" data-name="Grupo 118274" transform="translate(4.425 24.33)">
          <g id="Grupo_118273" data-name="Grupo 118273" transform="translate(0.294 0.245)">
            <path id="Trazado_171046" data-name="Trazado 171046" d="M280.64,185.8a10.1,10.1,0,0,1-12.618,15.55A10.1,10.1,0,1,0,280.64,185.8Z" transform="translate(-265.261 -184.304)" fill="#547fc6"/>
            <path id="Trazado_171047" data-name="Trazado 171047" d="M284.149,193.131a10.1,10.1,0,1,0-10.112,10.112A10.066,10.066,0,0,0,284.149,193.131Z" transform="translate(-266.007 -184.707)" fill="#6389d3"/>
          </g>
          <path id="Trazado_171048" data-name="Trazado 171048" d="M286.539,194.472a44.868,44.868,0,0,1-8.744,1.694c3.725-2.789,6.182-6.757,4.007-10.43a.083.083,0,0,0-.153.041,10.456,10.456,0,0,1-4.226,9.272c-.471.392-.98.78-1.513,1.152-3.516-.085-8.939-.478-9.578-4.735-.033-.221-.374-.2-.423,0-.955,3.821,4.206,4.944,6.889,5.332.613.089,1.24.156,1.875.208-2.442,1.468-5.287,2.479-7.977,2.028-.375-.063-.543.474-.16.581,2.58.717,6.549-.421,9.9-2.517a22.7,22.7,0,0,0,10.371-2C287.162,194.925,286.908,194.376,286.539,194.472Z" transform="translate(-265.792 -184.096)" fill="#4e7cc6"/>
          <path id="Trazado_171049" data-name="Trazado 171049" d="M285.317,193.725c-2.224,2.2-4.613,4.27-7.762,5.172-3.448.987-6.3.334-9.6-.465-.1-.025-.206.115-.11.189,4.95,3.878,14.808.992,17.572-4.541C285.554,193.813,285.545,193.5,285.317,193.725Z" transform="translate(-265.044 -181.151)" fill="#4e7cc6"/>
          <path id="Trazado_171050" data-name="Trazado 171050" d="M275.884,186.13c-.787-1.746-3.854-2.09-4.685-.906a5.5,5.5,0,0,1,1.529-.185,2.574,2.574,0,0,1,2.617,3.279,19.336,19.336,0,0,1-1.391,3.157c-.614,1.336-1.04,2.767-.1,4.029.166.219.559.1.473-.2-.644-2.272.552-3.742,1.34-5.709A4.448,4.448,0,0,0,275.884,186.13Z" transform="translate(-263.79 -184.528)" fill="#4e7cc6"/>
        </g>
        <path id="Trazado_171051" data-name="Trazado 171051" d="M265.625,172.447c-.748.909.093,2.125,3.975,5.381s37.6,31.065,37.6,31.065l.963-1.329s-14.386-11.419-19.254-15.873S266.24,171.7,265.625,172.447Z" transform="translate(-261.521 -164.683)" fill="#d1d1d1"/>
        <path id="Trazado_171052" data-name="Trazado 171052" d="M269.633,166.792c-.873.789-.221,2.116,3.141,5.908S305.4,208.954,305.4,208.954l1.148-1.173S294,194.37,289.839,189.249,270.351,166.142,269.633,166.792Z" transform="translate(-260.074 -166.774)" fill="#d1d1d1"/>
        <g id="Grupo_118275" data-name="Grupo 118275" transform="translate(38.667 32.016)">
          <path id="Trazado_171053" data-name="Trazado 171053" d="M297.486,211.373a12.451,12.451,0,0,1-4.7-1.592,12.476,12.476,0,1,0,16.153-18.407,12.474,12.474,0,0,1-11.456,20Z" transform="translate(-290.035 -189.679)" fill="#f9b341"/>
          <path id="Trazado_171054" data-name="Trazado 171054" d="M290.993,201.031a12.433,12.433,0,0,0,2.5,9.208,12.476,12.476,0,0,0,16.153-18.407,12.479,12.479,0,0,0-18.654,9.2Z" transform="translate(-290.738 -190.137)" fill="#ffc255"/>
          <path id="Trazado_171055" data-name="Trazado 171055" d="M306.568,190.691a13.531,13.531,0,0,1,1.653,3.257,22.309,22.309,0,0,1-4.832,5.993,21.675,21.675,0,0,1-4.832.151,17.041,17.041,0,0,1-3.623-.733,12.276,12.276,0,0,1-.781-4.9.274.274,0,0,0-.544-.07,7.231,7.231,0,0,0,.365,4.6,3.891,3.891,0,0,1-1.983-1.688.2.2,0,0,0-.381.106c.051,1.387,1.254,2.261,2.833,2.809a21.307,21.307,0,0,0,1.4,2.69,49.473,49.473,0,0,0-4.976.621.107.107,0,0,0,0,.211,18.227,18.227,0,0,0,5.553.069c.552.826,1.126,1.6,1.677,2.29.438.548.913,1.081,1.4,1.6a52.554,52.554,0,0,0-8.228-1.2c-.107,0-.167.151-.052.195a38.621,38.621,0,0,0,9.7,2.415q.557.516,1.144,1a22.043,22.043,0,0,1-8.01,1.4c-.2,0-.319.284-.1.373,2.737,1.106,6.068.371,9.086-1.006a23.488,23.488,0,0,0,6.008,3.168.142.142,0,0,0,.11-.262,50.605,50.605,0,0,1-5.318-3.289c.8-.4,1.58-.847,2.308-1.307a19.469,19.469,0,0,0,2.705-.412,14.227,14.227,0,0,0,1.812-.565c-.019,1.255-.162,3.5-.3,4.776-.008.078.215.282.459-.143.725-1.258.748-3.545.835-5.058,3-1.42,4.291-2.742,4.759-6.1a.32.32,0,0,0-.61-.163c-1.162,2.9-1.724,3.782-4.115,5.09-.007-.651-.053-1.3-.115-1.947a12.231,12.231,0,0,0,3.377-6.4c.325-.151.763-.225.745-.578-.023-.478-.211-.677-.706-.467a3.578,3.578,0,0,0-1.047-2.171c-.2-.185-.645-.116-.481.134a3.745,3.745,0,0,1,.644,2.383,30.659,30.659,0,0,1-3.53,1.065,42.706,42.706,0,0,0-1.422-4.72c.434-.765.852-1.551,1.244-2.376.216-.455-.5-.745-.718-.3-.282.567-.581,1.133-.887,1.7a5.932,5.932,0,0,0-1.69-2.542C306.685,189.968,306.218,190.219,306.568,190.691Zm-3.67,19.082c-.234-.184-.467-.367-.7-.556.595.038,1.187.062,1.776.063C303.622,209.455,303.262,209.618,302.9,209.773Zm-7.545-9.294a23.006,23.006,0,0,0,6.276.548c.119-.007.24-.026.359-.036a12.418,12.418,0,0,1-5.46,1.825A18.2,18.2,0,0,1,295.353,200.479Zm15.313,6.629a13.524,13.524,0,0,1-2.728.844c.269-.2.529-.4.773-.6.621-.5,1.273-1.077,1.916-1.706C310.649,206.132,310.66,206.62,310.666,207.108Zm-3.19.034c-.513.384-1.033.739-1.562,1.07a23.039,23.039,0,0,1-5.214-.315,24.766,24.766,0,0,1-3.615-4.207,14.835,14.835,0,0,0,6.25-2.828,64.075,64.075,0,0,0,6.52-1.211,38.924,38.924,0,0,1,.687,4.781A24.377,24.377,0,0,1,307.476,207.142Zm6.457-8.489a11.9,11.9,0,0,1-2.491,4.765c-.1-.8-.227-1.588-.349-2.326-.09-.552-.2-1.1-.317-1.643A28.306,28.306,0,0,0,313.933,198.653Zm-4.273.177c-1.483.325-2.981.587-4.45.839-.188.033-.377.058-.565.088a23.212,23.212,0,0,0,3.917-4.851A40.09,40.09,0,0,1,309.66,198.829Z" transform="translate(-290.779 -190.125)" fill="#fcaa47"/>
        </g>
        <g id="Grupo_118277" data-name="Grupo 118277" transform="translate(11.568 34.806)">
          <g id="Grupo_118276" data-name="Grupo 118276" transform="translate(0.249)">
            <path id="Trazado_171056" data-name="Trazado 171056" d="M289.125,193.534a12.274,12.274,0,0,1-15.685,18.554,12.279,12.279,0,1,0,15.685-18.554Z" transform="translate(-270.351 -191.669)" fill="#ed4040"/>
            <path id="Trazado_171057" data-name="Trazado 171057" d="M293.049,202.166a12.229,12.229,0,0,0-3.089-8.128,12.274,12.274,0,0,0-15.685,18.554,12.272,12.272,0,0,0,18.774-10.426Z" transform="translate(-271.186 -192.173)" fill="#f44a4a"/>
          </g>
          <path id="Trazado_171058" data-name="Trazado 171058" d="M295.6,202.583a19.2,19.2,0,0,1-3.7,1.816c1.222-3.229,1.438-6.926-.355-9.806a.15.15,0,0,0-.273.115c.637,3.585.663,6.981-.618,10.107-.543.16-1.094.293-1.649.411l-.007-.012c0-.847-.047-1.686-.129-2.511,1.953-2.828,2.752-6.6.38-9.367a.114.114,0,0,0-.189.111,10.055,10.055,0,0,1-.359,7.926c-.093-.606-.2-1.2-.336-1.781-1-4.292-4.64-8.281-9.306-6.883-.07.021-.212.2-.143.206a9.365,9.365,0,0,1,6.359,2.456c1.927,1.866,2.491,4.558,2.723,7.144-.136.188-.26.382-.414.565-.307-.407-.619-.807-.95-1.185-2.794-3.209-7.833-7.045-12.35-5.816-.192.052-.26.37-.069.377a16.183,16.183,0,0,1,12.723,7.318,11.914,11.914,0,0,1-2.154,1.664c-.13.079-.278.155-.417.233-4.859-.137-9.329-2.079-11.906-6.626-.115-.2-.277-.034-.249.167.629,4.462,6,6.523,9.861,7.149.245.04.491.053.736.084a21.5,21.5,0,0,1-6.9,1.723,13.712,13.712,0,0,1-4.569-5.425.185.185,0,0,0-.343.093,7.609,7.609,0,0,0,3.315,5.349,6.985,6.985,0,0,1-2.691-.785c-.418-.182-.482.288-.06.517a5.876,5.876,0,0,0,3.712.928,17.927,17.927,0,0,0,5.645,2.18,22.624,22.624,0,0,0,3.981.451,34.832,34.832,0,0,1-8.28,3.392c-.311.1-.273.608.081.592a17.989,17.989,0,0,0,9.978-4.021c.145-.007.289-.022.433-.032-.5,1.806-1.133,3.6-1.828,5.455-.133.354.4.537.587.247a18.763,18.763,0,0,0,2.423-5.816c.215-.026.43-.048.644-.081.389-.06.847-.129,1.325-.208a24.028,24.028,0,0,1,.747,3.944.357.357,0,0,0,.713,0,16.846,16.846,0,0,0-.471-4.132c1.584-.337,3.351-1.132,4.021-2.338.121-.219.149-.5-.032-.343a11.37,11.37,0,0,1-4.133,2.109,19.768,19.768,0,0,0-.892-2.608,16.046,16.046,0,0,0,1.184-2.06,17.009,17.009,0,0,0,4.251-2.232C296.117,203.034,296.072,202.28,295.6,202.583Zm-9.129,2.683a10.408,10.408,0,0,0,.92-.8c.2.315.406.629.592.955a20.084,20.084,0,0,1-2.057.227C286.105,205.521,286.292,205.4,286.469,205.266Zm-.54,5.517a26.59,26.59,0,0,1-5.218-.621,14.677,14.677,0,0,1-3.966-1.491c.476-.067.946-.141,1.4-.21a20.437,20.437,0,0,0,6.224-1.887,19.313,19.313,0,0,0,3.67-.208,24.656,24.656,0,0,1-.418,2.935A15.693,15.693,0,0,1,285.929,210.783Zm2.512-.1c.074-.349.144-.7.2-1.057.3-.321.591-.647.859-.983.23.6.433,1.2.615,1.816C289.57,210.563,289.006,210.631,288.441,210.684Z" transform="translate(-271.004 -192.08)" fill="#e23b3b"/>
        </g>
        <path id="Trazado_171059" data-name="Trazado 171059" d="M330.606,196.7c-.595,9.183-14.531,16.532-31.647,16.532S267.9,205.879,267.311,196.7h-4.744c0,.026,0,.051,0,.077,0,11.312,16.3,20.486,36.4,20.486s36.394-9.173,36.394-20.486c0-.026,0-.051,0-.077Z" transform="translate(-262.563 -155.692)" fill="#ba715d"/>
      </g>
    </g>
  </g>
</svg>
