<svg xmlns="http://www.w3.org/2000/svg" xmlns:xlink="http://www.w3.org/1999/xlink" width="313" height="226.244" viewBox="0 0 313 226.244">
  <defs>
    <linearGradient id="linear-gradient" y1="0.5" x2="1" y2="0.5" gradientUnits="objectBoundingBox">
      <stop offset="0" stop-color="#8da3ff"/>
      <stop offset="1" stop-color="#6781ef"/>
    </linearGradient>
  </defs>
  <g id="Grupo_119343" data-name="Grupo 119343" transform="translate(-1064 -16753.172)">
    <g id="Grupo_78304" data-name="Grupo 78304" transform="translate(840 10544.416)">
      <path id="Rectángulo_34846" data-name="Rectángulo 34846" d="M0,0H271a42,42,0,0,1,42,42V163a0,0,0,0,1,0,0H42A42,42,0,0,1,0,121V0A0,0,0,0,1,0,0Z" transform="translate(224 6272)" fill="#5c22c3"/>
      <g id="Grupo_78301" data-name="Grupo 78301" transform="translate(226 6208.756)">
        <path id="Trazado_145968" data-name="Trazado 145968" d="M43.541,0A43.541,43.541,0,1,0,87.083,43.541,43.541,43.541,0,0,0,43.541,0Z" transform="translate(6.692 132.358)" fill="#64b5f6" opacity="0.444" style="mix-blend-mode: multiply;isolation: isolate"/>
        <path id="Trazado_145969" data-name="Trazado 145969" d="M29.752,0A29.752,29.752,0,1,0,59.5,29.752,29.752,29.752,0,0,0,29.752,0Z" transform="translate(225.831 11.044)" fill="#64b5f6" opacity="0.444" style="mix-blend-mode: multiply;isolation: isolate"/>
        <rect id="Rectángulo_34812" data-name="Rectángulo 34812" width="309.662" height="222.853" transform="translate(0 0)" fill="none"/>
        <path id="Trazado_145971" data-name="Trazado 145971" d="M8.18,0a8.18,8.18,0,1,0,8.18,8.18A8.18,8.18,0,0,0,8.18,0Z" transform="translate(260.984 190.282)" fill="#64b5f6" opacity="0.444" style="mix-blend-mode: multiply;isolation: isolate"/>
        <g id="Grupo_78276" data-name="Grupo 78276" transform="translate(18.831 162.877)">
          <g id="Grupo_53306" data-name="Grupo 53306" transform="translate(0)">
            <path id="Trazado_99200" data-name="Trazado 99200" d="M414.214,50.789a.592.592,0,1,0,.592-.565A.579.579,0,0,0,414.214,50.789Z" transform="translate(-361.003 -50.224)" fill="#fff"/>
            <path id="Trazado_99201" data-name="Trazado 99201" d="M422.66,50.789a.592.592,0,1,0,.591-.565A.579.579,0,0,0,422.66,50.789Z" transform="translate(-374.77 -50.224)" fill="#fff"/>
            <path id="Trazado_99202" data-name="Trazado 99202" d="M431.106,50.789a.592.592,0,1,0,.591-.565A.579.579,0,0,0,431.106,50.789Z" transform="translate(-388.536 -50.224)" fill="#fff"/>
            <path id="Trazado_99203" data-name="Trazado 99203" d="M439.553,50.789a.592.592,0,1,0,.592-.565A.579.579,0,0,0,439.553,50.789Z" transform="translate(-402.305 -50.224)" fill="#fff"/>
            <path id="Trazado_99204" data-name="Trazado 99204" d="M448,50.789a.592.592,0,1,0,.591-.565A.579.579,0,0,0,448,50.789Z" transform="translate(-416.072 -50.224)" fill="#fff"/>
            <path id="Trazado_99205" data-name="Trazado 99205" d="M456.445,50.789a.592.592,0,1,0,.591-.565A.579.579,0,0,0,456.445,50.789Z" transform="translate(-429.839 -50.224)" fill="#fff"/>
            <path id="Trazado_99206" data-name="Trazado 99206" d="M464.892,50.789a.592.592,0,1,0,.592-.565A.579.579,0,0,0,464.892,50.789Z" transform="translate(-443.608 -50.224)" fill="#fff"/>
            <path id="Trazado_99207" data-name="Trazado 99207" d="M473.338,50.789a.592.592,0,1,0,.591-.565A.579.579,0,0,0,473.338,50.789Z" transform="translate(-457.375 -50.224)" fill="#fff"/>
            <path id="Trazado_99208" data-name="Trazado 99208" d="M481.784,50.789a.592.592,0,1,0,.591-.565A.579.579,0,0,0,481.784,50.789Z" transform="translate(-471.142 -50.224)" fill="#fff"/>
            <path id="Trazado_99209" data-name="Trazado 99209" d="M490.231,50.789a.592.592,0,1,0,.592-.565A.579.579,0,0,0,490.231,50.789Z" transform="translate(-484.91 -50.224)" fill="#fff"/>
            <path id="Trazado_99210" data-name="Trazado 99210" d="M498.677,50.789a.592.592,0,1,0,.592-.565A.579.579,0,0,0,498.677,50.789Z" transform="translate(-498.677 -50.224)" fill="#fff"/>
          </g>
          <g id="Grupo_53307" data-name="Grupo 53307" transform="translate(0 4.523)">
            <path id="Trazado_99211" data-name="Trazado 99211" d="M414.214,58.3a.592.592,0,1,0,.592-.565A.579.579,0,0,0,414.214,58.3Z" transform="translate(-361.003 -57.732)" fill="#fff"/>
            <path id="Trazado_99212" data-name="Trazado 99212" d="M422.66,58.3a.592.592,0,1,0,.591-.565A.579.579,0,0,0,422.66,58.3Z" transform="translate(-374.77 -57.732)" fill="#fff"/>
            <path id="Trazado_99213" data-name="Trazado 99213" d="M431.106,58.3a.592.592,0,1,0,.591-.565A.579.579,0,0,0,431.106,58.3Z" transform="translate(-388.536 -57.732)" fill="#fff"/>
            <path id="Trazado_99214" data-name="Trazado 99214" d="M439.553,58.3a.592.592,0,1,0,.592-.565A.579.579,0,0,0,439.553,58.3Z" transform="translate(-402.305 -57.732)" fill="#fff"/>
            <path id="Trazado_99215" data-name="Trazado 99215" d="M448,58.3a.592.592,0,1,0,.591-.565A.579.579,0,0,0,448,58.3Z" transform="translate(-416.072 -57.732)" fill="#fff"/>
            <path id="Trazado_99216" data-name="Trazado 99216" d="M456.445,58.3a.592.592,0,1,0,.591-.565A.579.579,0,0,0,456.445,58.3Z" transform="translate(-429.839 -57.732)" fill="#fff"/>
            <path id="Trazado_99217" data-name="Trazado 99217" d="M464.892,58.3a.592.592,0,1,0,.592-.565A.579.579,0,0,0,464.892,58.3Z" transform="translate(-443.608 -57.732)" fill="#fff"/>
            <path id="Trazado_99218" data-name="Trazado 99218" d="M473.338,58.3a.592.592,0,1,0,.591-.565A.579.579,0,0,0,473.338,58.3Z" transform="translate(-457.375 -57.732)" fill="#fff"/>
            <path id="Trazado_99219" data-name="Trazado 99219" d="M481.784,58.3a.592.592,0,1,0,.591-.565A.579.579,0,0,0,481.784,58.3Z" transform="translate(-471.142 -57.732)" fill="#fff"/>
            <path id="Trazado_99220" data-name="Trazado 99220" d="M490.231,58.3a.592.592,0,1,0,.592-.565A.579.579,0,0,0,490.231,58.3Z" transform="translate(-484.91 -57.732)" fill="#fff"/>
            <path id="Trazado_99221" data-name="Trazado 99221" d="M498.677,58.3a.592.592,0,1,0,.592-.565A.579.579,0,0,0,498.677,58.3Z" transform="translate(-498.677 -57.732)" fill="#fff"/>
          </g>
          <g id="Grupo_53308" data-name="Grupo 53308" transform="translate(0 9.047)">
            <ellipse id="Elipse_3955" data-name="Elipse 3955" cx="0.591" cy="0.565" rx="0.591" ry="0.565" transform="translate(53.211)" fill="#fff"/>
            <path id="Trazado_99222" data-name="Trazado 99222" d="M422.66,65.805a.592.592,0,1,0,.591-.565A.579.579,0,0,0,422.66,65.805Z" transform="translate(-374.77 -65.24)" fill="#fff"/>
            <ellipse id="Elipse_3956" data-name="Elipse 3956" cx="0.591" cy="0.565" rx="0.591" ry="0.565" transform="translate(42.569)" fill="#fff"/>
            <path id="Trazado_99223" data-name="Trazado 99223" d="M439.553,65.805a.592.592,0,1,0,.592-.565A.579.579,0,0,0,439.553,65.805Z" transform="translate(-402.305 -65.24)" fill="#fff"/>
            <path id="Trazado_99224" data-name="Trazado 99224" d="M448,65.805a.592.592,0,1,0,.591-.565A.579.579,0,0,0,448,65.805Z" transform="translate(-416.072 -65.24)" fill="#fff"/>
            <ellipse id="Elipse_3957" data-name="Elipse 3957" cx="0.591" cy="0.565" rx="0.591" ry="0.565" transform="translate(26.606)" fill="#fff"/>
            <path id="Trazado_99225" data-name="Trazado 99225" d="M464.892,65.805a.592.592,0,1,0,.592-.565A.58.58,0,0,0,464.892,65.805Z" transform="translate(-443.608 -65.24)" fill="#fff"/>
            <ellipse id="Elipse_3958" data-name="Elipse 3958" cx="0.591" cy="0.565" rx="0.591" ry="0.565" transform="translate(15.963)" fill="#fff"/>
            <ellipse id="Elipse_3959" data-name="Elipse 3959" cx="0.591" cy="0.565" rx="0.591" ry="0.565" transform="translate(10.642)" fill="#fff"/>
            <path id="Trazado_99226" data-name="Trazado 99226" d="M490.231,65.805a.592.592,0,1,0,.592-.565A.58.58,0,0,0,490.231,65.805Z" transform="translate(-484.91 -65.24)" fill="#fff"/>
            <path id="Trazado_99227" data-name="Trazado 99227" d="M498.677,65.805a.592.592,0,1,0,.592-.565A.579.579,0,0,0,498.677,65.805Z" transform="translate(-498.677 -65.24)" fill="#fff"/>
          </g>
          <g id="Grupo_53309" data-name="Grupo 53309" transform="translate(0 13.57)">
            <ellipse id="Elipse_3960" data-name="Elipse 3960" cx="0.591" cy="0.565" rx="0.591" ry="0.565" transform="translate(53.211 0)" fill="#fff"/>
            <path id="Trazado_99228" data-name="Trazado 99228" d="M422.66,73.313a.592.592,0,1,0,.591-.566A.578.578,0,0,0,422.66,73.313Z" transform="translate(-374.77 -72.747)" fill="#fff"/>
            <ellipse id="Elipse_3961" data-name="Elipse 3961" cx="0.591" cy="0.565" rx="0.591" ry="0.565" transform="translate(42.569 0)" fill="#fff"/>
            <path id="Trazado_99229" data-name="Trazado 99229" d="M439.553,73.313a.592.592,0,1,0,.592-.566A.579.579,0,0,0,439.553,73.313Z" transform="translate(-402.305 -72.747)" fill="#fff"/>
            <path id="Trazado_99230" data-name="Trazado 99230" d="M448,73.313a.592.592,0,1,0,.591-.566A.579.579,0,0,0,448,73.313Z" transform="translate(-416.072 -72.747)" fill="#fff"/>
            <ellipse id="Elipse_3962" data-name="Elipse 3962" cx="0.591" cy="0.565" rx="0.591" ry="0.565" transform="translate(26.606 0)" fill="#fff"/>
            <path id="Trazado_99231" data-name="Trazado 99231" d="M464.892,73.313a.592.592,0,1,0,.592-.566A.579.579,0,0,0,464.892,73.313Z" transform="translate(-443.608 -72.747)" fill="#fff"/>
            <ellipse id="Elipse_3963" data-name="Elipse 3963" cx="0.591" cy="0.565" rx="0.591" ry="0.565" transform="translate(15.963 0)" fill="#fff"/>
            <ellipse id="Elipse_3964" data-name="Elipse 3964" cx="0.591" cy="0.565" rx="0.591" ry="0.565" transform="translate(10.642 0)" fill="#fff"/>
            <path id="Trazado_99232" data-name="Trazado 99232" d="M490.231,73.313a.592.592,0,1,0,.592-.566A.579.579,0,0,0,490.231,73.313Z" transform="translate(-484.91 -72.747)" fill="#fff"/>
            <path id="Trazado_99233" data-name="Trazado 99233" d="M498.677,73.313a.592.592,0,1,0,.592-.566A.579.579,0,0,0,498.677,73.313Z" transform="translate(-498.677 -72.747)" fill="#fff"/>
          </g>
          <g id="Grupo_53310" data-name="Grupo 53310" transform="translate(0 18.093)">
            <path id="Trazado_99234" data-name="Trazado 99234" d="M414.214,80.821a.592.592,0,1,0,.592-.566A.579.579,0,0,0,414.214,80.821Z" transform="translate(-361.003 -80.255)" fill="#fff"/>
            <path id="Trazado_99235" data-name="Trazado 99235" d="M422.66,80.821a.592.592,0,1,0,.591-.566A.578.578,0,0,0,422.66,80.821Z" transform="translate(-374.77 -80.255)" fill="#fff"/>
            <path id="Trazado_99236" data-name="Trazado 99236" d="M431.106,80.821a.592.592,0,1,0,.591-.566A.578.578,0,0,0,431.106,80.821Z" transform="translate(-388.536 -80.255)" fill="#fff"/>
            <path id="Trazado_99237" data-name="Trazado 99237" d="M439.553,80.821a.592.592,0,1,0,.592-.566A.579.579,0,0,0,439.553,80.821Z" transform="translate(-402.305 -80.255)" fill="#fff"/>
            <path id="Trazado_99238" data-name="Trazado 99238" d="M448,80.821a.592.592,0,1,0,.591-.566A.579.579,0,0,0,448,80.821Z" transform="translate(-416.072 -80.255)" fill="#fff"/>
            <path id="Trazado_99239" data-name="Trazado 99239" d="M456.445,80.821a.592.592,0,1,0,.591-.566A.578.578,0,0,0,456.445,80.821Z" transform="translate(-429.839 -80.255)" fill="#fff"/>
            <path id="Trazado_99240" data-name="Trazado 99240" d="M464.892,80.821a.592.592,0,1,0,.592-.566A.579.579,0,0,0,464.892,80.821Z" transform="translate(-443.608 -80.255)" fill="#fff"/>
            <path id="Trazado_99241" data-name="Trazado 99241" d="M473.338,80.821a.592.592,0,1,0,.591-.566A.578.578,0,0,0,473.338,80.821Z" transform="translate(-457.375 -80.255)" fill="#fff"/>
            <path id="Trazado_99242" data-name="Trazado 99242" d="M481.784,80.821a.592.592,0,1,0,.591-.566A.579.579,0,0,0,481.784,80.821Z" transform="translate(-471.142 -80.255)" fill="#fff"/>
            <path id="Trazado_99243" data-name="Trazado 99243" d="M490.231,80.821a.592.592,0,1,0,.592-.566A.579.579,0,0,0,490.231,80.821Z" transform="translate(-484.91 -80.255)" fill="#fff"/>
            <path id="Trazado_99244" data-name="Trazado 99244" d="M498.677,80.821a.592.592,0,1,0,.592-.566A.579.579,0,0,0,498.677,80.821Z" transform="translate(-498.677 -80.255)" fill="#fff"/>
          </g>
          <g id="Grupo_53311" data-name="Grupo 53311" transform="translate(0 22.616)">
            <ellipse id="Elipse_3965" data-name="Elipse 3965" cx="0.591" cy="0.565" rx="0.591" ry="0.565" transform="translate(53.211 0)" fill="#fff"/>
            <path id="Trazado_99245" data-name="Trazado 99245" d="M422.66,88.329a.592.592,0,1,0,.591-.566A.578.578,0,0,0,422.66,88.329Z" transform="translate(-374.77 -87.763)" fill="#fff"/>
            <ellipse id="Elipse_3966" data-name="Elipse 3966" cx="0.591" cy="0.565" rx="0.591" ry="0.565" transform="translate(42.569 0)" fill="#fff"/>
            <path id="Trazado_99246" data-name="Trazado 99246" d="M439.553,88.329a.592.592,0,1,0,.592-.566A.579.579,0,0,0,439.553,88.329Z" transform="translate(-402.305 -87.763)" fill="#fff"/>
            <path id="Trazado_99247" data-name="Trazado 99247" d="M448,88.329a.592.592,0,1,0,.591-.566A.579.579,0,0,0,448,88.329Z" transform="translate(-416.072 -87.763)" fill="#fff"/>
            <ellipse id="Elipse_3967" data-name="Elipse 3967" cx="0.591" cy="0.565" rx="0.591" ry="0.565" transform="translate(26.606 0)" fill="#fff"/>
            <path id="Trazado_99248" data-name="Trazado 99248" d="M464.892,88.329a.592.592,0,1,0,.592-.566A.579.579,0,0,0,464.892,88.329Z" transform="translate(-443.608 -87.763)" fill="#fff"/>
            <ellipse id="Elipse_3968" data-name="Elipse 3968" cx="0.591" cy="0.565" rx="0.591" ry="0.565" transform="translate(15.963 0)" fill="#fff"/>
            <ellipse id="Elipse_3969" data-name="Elipse 3969" cx="0.591" cy="0.565" rx="0.591" ry="0.565" transform="translate(10.642 0)" fill="#fff"/>
            <path id="Trazado_99249" data-name="Trazado 99249" d="M490.231,88.329a.592.592,0,1,0,.592-.566A.579.579,0,0,0,490.231,88.329Z" transform="translate(-484.91 -87.763)" fill="#fff"/>
            <path id="Trazado_99250" data-name="Trazado 99250" d="M498.677,88.329a.592.592,0,1,0,.592-.566A.579.579,0,0,0,498.677,88.329Z" transform="translate(-498.677 -87.763)" fill="#fff"/>
          </g>
          <g id="Grupo_53312" data-name="Grupo 53312" transform="translate(0 27.14)">
            <ellipse id="Elipse_3970" data-name="Elipse 3970" cx="0.591" cy="0.565" rx="0.591" ry="0.565" transform="translate(53.211)" fill="#fff"/>
            <path id="Trazado_99251" data-name="Trazado 99251" d="M422.66,95.836a.592.592,0,1,0,.591-.565A.579.579,0,0,0,422.66,95.836Z" transform="translate(-374.77 -95.271)" fill="#fff"/>
            <ellipse id="Elipse_3971" data-name="Elipse 3971" cx="0.591" cy="0.565" rx="0.591" ry="0.565" transform="translate(42.569)" fill="#fff"/>
            <path id="Trazado_99252" data-name="Trazado 99252" d="M439.553,95.836a.592.592,0,1,0,.592-.565A.579.579,0,0,0,439.553,95.836Z" transform="translate(-402.305 -95.271)" fill="#fff"/>
            <path id="Trazado_99253" data-name="Trazado 99253" d="M448,95.836a.592.592,0,1,0,.591-.565A.579.579,0,0,0,448,95.836Z" transform="translate(-416.072 -95.271)" fill="#fff"/>
            <ellipse id="Elipse_3972" data-name="Elipse 3972" cx="0.591" cy="0.565" rx="0.591" ry="0.565" transform="translate(26.606)" fill="#fff"/>
            <path id="Trazado_99254" data-name="Trazado 99254" d="M464.892,95.836a.592.592,0,1,0,.592-.565A.579.579,0,0,0,464.892,95.836Z" transform="translate(-443.608 -95.271)" fill="#fff"/>
            <ellipse id="Elipse_3973" data-name="Elipse 3973" cx="0.591" cy="0.565" rx="0.591" ry="0.565" transform="translate(15.963)" fill="#fff"/>
            <ellipse id="Elipse_3974" data-name="Elipse 3974" cx="0.591" cy="0.565" rx="0.591" ry="0.565" transform="translate(10.642)" fill="#fff"/>
            <path id="Trazado_99255" data-name="Trazado 99255" d="M490.231,95.836a.592.592,0,1,0,.592-.565A.579.579,0,0,0,490.231,95.836Z" transform="translate(-484.91 -95.271)" fill="#fff"/>
            <path id="Trazado_99256" data-name="Trazado 99256" d="M498.677,95.836a.592.592,0,1,0,.592-.565A.579.579,0,0,0,498.677,95.836Z" transform="translate(-498.677 -95.271)" fill="#fff"/>
          </g>
          <g id="Grupo_53313" data-name="Grupo 53313" transform="translate(0 31.663)">
            <path id="Trazado_99257" data-name="Trazado 99257" d="M414.214,103.344a.592.592,0,1,0,.592-.565A.579.579,0,0,0,414.214,103.344Z" transform="translate(-361.003 -102.779)" fill="#fff"/>
            <path id="Trazado_99258" data-name="Trazado 99258" d="M422.66,103.344a.592.592,0,1,0,.591-.565A.579.579,0,0,0,422.66,103.344Z" transform="translate(-374.77 -102.779)" fill="#fff"/>
            <path id="Trazado_99259" data-name="Trazado 99259" d="M431.106,103.344a.592.592,0,1,0,.591-.565A.579.579,0,0,0,431.106,103.344Z" transform="translate(-388.536 -102.779)" fill="#fff"/>
            <path id="Trazado_99260" data-name="Trazado 99260" d="M439.553,103.344a.592.592,0,1,0,.592-.565A.579.579,0,0,0,439.553,103.344Z" transform="translate(-402.305 -102.779)" fill="#fff"/>
            <path id="Trazado_99261" data-name="Trazado 99261" d="M448,103.344a.592.592,0,1,0,.591-.565A.579.579,0,0,0,448,103.344Z" transform="translate(-416.072 -102.779)" fill="#fff"/>
            <path id="Trazado_99262" data-name="Trazado 99262" d="M456.445,103.344a.592.592,0,1,0,.591-.565A.579.579,0,0,0,456.445,103.344Z" transform="translate(-429.839 -102.779)" fill="#fff"/>
            <path id="Trazado_99263" data-name="Trazado 99263" d="M464.892,103.344a.592.592,0,1,0,.592-.565A.579.579,0,0,0,464.892,103.344Z" transform="translate(-443.608 -102.779)" fill="#fff"/>
            <path id="Trazado_99264" data-name="Trazado 99264" d="M473.338,103.344a.592.592,0,1,0,.591-.565A.579.579,0,0,0,473.338,103.344Z" transform="translate(-457.375 -102.779)" fill="#fff"/>
            <path id="Trazado_99265" data-name="Trazado 99265" d="M481.784,103.344a.592.592,0,1,0,.591-.565A.579.579,0,0,0,481.784,103.344Z" transform="translate(-471.142 -102.779)" fill="#fff"/>
            <path id="Trazado_99266" data-name="Trazado 99266" d="M490.231,103.344a.592.592,0,1,0,.592-.565A.579.579,0,0,0,490.231,103.344Z" transform="translate(-484.91 -102.779)" fill="#fff"/>
            <path id="Trazado_99267" data-name="Trazado 99267" d="M498.677,103.344a.592.592,0,1,0,.592-.565A.579.579,0,0,0,498.677,103.344Z" transform="translate(-498.677 -102.779)" fill="#fff"/>
          </g>
          <g id="Grupo_53314" data-name="Grupo 53314" transform="translate(0 36.187)">
            <ellipse id="Elipse_3975" data-name="Elipse 3975" cx="0.591" cy="0.565" rx="0.591" ry="0.565" transform="translate(53.211)" fill="#fff"/>
            <path id="Trazado_99268" data-name="Trazado 99268" d="M422.66,110.852a.592.592,0,1,0,.591-.565A.579.579,0,0,0,422.66,110.852Z" transform="translate(-374.77 -110.287)" fill="#fff"/>
            <ellipse id="Elipse_3976" data-name="Elipse 3976" cx="0.591" cy="0.565" rx="0.591" ry="0.565" transform="translate(42.569)" fill="#fff"/>
            <path id="Trazado_99269" data-name="Trazado 99269" d="M439.553,110.852a.592.592,0,1,0,.592-.565A.579.579,0,0,0,439.553,110.852Z" transform="translate(-402.305 -110.287)" fill="#fff"/>
            <path id="Trazado_99270" data-name="Trazado 99270" d="M448,110.852a.592.592,0,1,0,.591-.565A.579.579,0,0,0,448,110.852Z" transform="translate(-416.072 -110.287)" fill="#fff"/>
            <ellipse id="Elipse_3977" data-name="Elipse 3977" cx="0.591" cy="0.565" rx="0.591" ry="0.565" transform="translate(26.606)" fill="#fff"/>
            <path id="Trazado_99271" data-name="Trazado 99271" d="M464.892,110.852a.592.592,0,1,0,.592-.565A.58.58,0,0,0,464.892,110.852Z" transform="translate(-443.608 -110.287)" fill="#fff"/>
            <ellipse id="Elipse_3978" data-name="Elipse 3978" cx="0.591" cy="0.565" rx="0.591" ry="0.565" transform="translate(15.963)" fill="#fff"/>
            <ellipse id="Elipse_3979" data-name="Elipse 3979" cx="0.591" cy="0.565" rx="0.591" ry="0.565" transform="translate(10.642)" fill="#fff"/>
            <path id="Trazado_99272" data-name="Trazado 99272" d="M490.231,110.852a.592.592,0,1,0,.592-.565A.58.58,0,0,0,490.231,110.852Z" transform="translate(-484.91 -110.287)" fill="#fff"/>
            <path id="Trazado_99273" data-name="Trazado 99273" d="M498.677,110.852a.592.592,0,1,0,.592-.565A.579.579,0,0,0,498.677,110.852Z" transform="translate(-498.677 -110.287)" fill="#fff"/>
          </g>
          <g id="Grupo_53315" data-name="Grupo 53315" transform="translate(0 40.709)">
            <path id="Trazado_99274" data-name="Trazado 99274" d="M414.214,118.36a.592.592,0,1,0,.592-.566A.579.579,0,0,0,414.214,118.36Z" transform="translate(-361.003 -117.794)" fill="#fff"/>
            <path id="Trazado_99275" data-name="Trazado 99275" d="M422.66,118.36a.592.592,0,1,0,.591-.566A.579.579,0,0,0,422.66,118.36Z" transform="translate(-374.77 -117.794)" fill="#fff"/>
            <path id="Trazado_99276" data-name="Trazado 99276" d="M431.106,118.36a.592.592,0,1,0,.591-.566A.579.579,0,0,0,431.106,118.36Z" transform="translate(-388.536 -117.794)" fill="#fff"/>
            <path id="Trazado_99277" data-name="Trazado 99277" d="M439.553,118.36a.592.592,0,1,0,.592-.566A.579.579,0,0,0,439.553,118.36Z" transform="translate(-402.305 -117.794)" fill="#fff"/>
            <path id="Trazado_99278" data-name="Trazado 99278" d="M448,118.36a.592.592,0,1,0,.591-.566A.579.579,0,0,0,448,118.36Z" transform="translate(-416.072 -117.794)" fill="#fff"/>
            <path id="Trazado_99279" data-name="Trazado 99279" d="M456.445,118.36a.592.592,0,1,0,.591-.566A.579.579,0,0,0,456.445,118.36Z" transform="translate(-429.839 -117.794)" fill="#fff"/>
            <path id="Trazado_99280" data-name="Trazado 99280" d="M464.892,118.36a.592.592,0,1,0,.592-.566A.58.58,0,0,0,464.892,118.36Z" transform="translate(-443.608 -117.794)" fill="#fff"/>
            <path id="Trazado_99281" data-name="Trazado 99281" d="M473.338,118.36a.592.592,0,1,0,.591-.566A.579.579,0,0,0,473.338,118.36Z" transform="translate(-457.375 -117.794)" fill="#fff"/>
            <path id="Trazado_99282" data-name="Trazado 99282" d="M481.784,118.36a.592.592,0,1,0,.591-.566A.579.579,0,0,0,481.784,118.36Z" transform="translate(-471.142 -117.794)" fill="#fff"/>
            <path id="Trazado_99283" data-name="Trazado 99283" d="M490.231,118.36a.592.592,0,1,0,.592-.566A.58.58,0,0,0,490.231,118.36Z" transform="translate(-484.91 -117.794)" fill="#fff"/>
            <path id="Trazado_99284" data-name="Trazado 99284" d="M498.677,118.36a.592.592,0,1,0,.592-.566A.579.579,0,0,0,498.677,118.36Z" transform="translate(-498.677 -117.794)" fill="#fff"/>
          </g>
          <g id="Grupo_53316" data-name="Grupo 53316" transform="translate(0 45.233)">
            <ellipse id="Elipse_3980" data-name="Elipse 3980" cx="0.591" cy="0.565" rx="0.591" ry="0.565" transform="translate(53.211 0)" fill="#fff"/>
            <path id="Trazado_99285" data-name="Trazado 99285" d="M422.66,125.868a.592.592,0,1,0,.591-.566A.578.578,0,0,0,422.66,125.868Z" transform="translate(-374.77 -125.302)" fill="#fff"/>
            <ellipse id="Elipse_3981" data-name="Elipse 3981" cx="0.591" cy="0.565" rx="0.591" ry="0.565" transform="translate(42.569 0)" fill="#fff"/>
            <path id="Trazado_99286" data-name="Trazado 99286" d="M439.553,125.868a.592.592,0,1,0,.592-.566A.579.579,0,0,0,439.553,125.868Z" transform="translate(-402.305 -125.302)" fill="#fff"/>
            <path id="Trazado_99287" data-name="Trazado 99287" d="M448,125.868a.592.592,0,1,0,.591-.566A.579.579,0,0,0,448,125.868Z" transform="translate(-416.072 -125.302)" fill="#fff"/>
            <ellipse id="Elipse_3982" data-name="Elipse 3982" cx="0.591" cy="0.565" rx="0.591" ry="0.565" transform="translate(26.606 0)" fill="#fff"/>
            <path id="Trazado_99288" data-name="Trazado 99288" d="M464.892,125.868a.592.592,0,1,0,.592-.566A.579.579,0,0,0,464.892,125.868Z" transform="translate(-443.608 -125.302)" fill="#fff"/>
            <ellipse id="Elipse_3983" data-name="Elipse 3983" cx="0.591" cy="0.565" rx="0.591" ry="0.565" transform="translate(15.963 0)" fill="#fff"/>
            <ellipse id="Elipse_3984" data-name="Elipse 3984" cx="0.591" cy="0.565" rx="0.591" ry="0.565" transform="translate(10.642 0)" fill="#fff"/>
            <path id="Trazado_99289" data-name="Trazado 99289" d="M490.231,125.868a.592.592,0,1,0,.592-.566A.579.579,0,0,0,490.231,125.868Z" transform="translate(-484.91 -125.302)" fill="#fff"/>
            <path id="Trazado_99290" data-name="Trazado 99290" d="M498.677,125.868a.592.592,0,1,0,.592-.566A.579.579,0,0,0,498.677,125.868Z" transform="translate(-498.677 -125.302)" fill="#fff"/>
          </g>
          <g id="Grupo_53317" data-name="Grupo 53317" transform="translate(0 49.757)">
            <ellipse id="Elipse_3985" data-name="Elipse 3985" cx="0.591" cy="0.565" rx="0.591" ry="0.565" transform="translate(53.211 0)" fill="#fff"/>
            <path id="Trazado_99291" data-name="Trazado 99291" d="M422.66,133.376a.592.592,0,1,0,.591-.566A.578.578,0,0,0,422.66,133.376Z" transform="translate(-374.77 -132.81)" fill="#fff"/>
            <ellipse id="Elipse_3986" data-name="Elipse 3986" cx="0.591" cy="0.565" rx="0.591" ry="0.565" transform="translate(42.569 0)" fill="#fff"/>
            <path id="Trazado_99292" data-name="Trazado 99292" d="M439.553,133.376a.592.592,0,1,0,.592-.566A.579.579,0,0,0,439.553,133.376Z" transform="translate(-402.305 -132.81)" fill="#fff"/>
            <path id="Trazado_99293" data-name="Trazado 99293" d="M448,133.376a.592.592,0,1,0,.591-.566A.579.579,0,0,0,448,133.376Z" transform="translate(-416.072 -132.81)" fill="#fff"/>
            <ellipse id="Elipse_3987" data-name="Elipse 3987" cx="0.591" cy="0.565" rx="0.591" ry="0.565" transform="translate(26.606 0)" fill="#fff"/>
            <path id="Trazado_99294" data-name="Trazado 99294" d="M464.892,133.376a.592.592,0,1,0,.592-.566A.579.579,0,0,0,464.892,133.376Z" transform="translate(-443.608 -132.81)" fill="#fff"/>
            <ellipse id="Elipse_3988" data-name="Elipse 3988" cx="0.591" cy="0.565" rx="0.591" ry="0.565" transform="translate(15.963 0)" fill="#fff"/>
            <ellipse id="Elipse_3989" data-name="Elipse 3989" cx="0.591" cy="0.565" rx="0.591" ry="0.565" transform="translate(10.642 0)" fill="#fff"/>
            <path id="Trazado_99295" data-name="Trazado 99295" d="M490.231,133.376a.592.592,0,1,0,.592-.566A.579.579,0,0,0,490.231,133.376Z" transform="translate(-484.91 -132.81)" fill="#fff"/>
            <path id="Trazado_99296" data-name="Trazado 99296" d="M498.677,133.376a.592.592,0,1,0,.592-.566A.579.579,0,0,0,498.677,133.376Z" transform="translate(-498.677 -132.81)" fill="#fff"/>
          </g>
        </g>
        <line id="Línea_138" data-name="Línea 138" y2="115.674" transform="translate(301.114 61)" fill="none" stroke="#fff" stroke-width="1" stroke-dasharray="8"/>
      </g>
    </g>
    <g id="Grupo_118662" data-name="Grupo 118662" transform="translate(951.362 16696.605)">
      <g id="Grupo_118654" data-name="Grupo 118654" transform="translate(296.94 58.394)">
        <g id="Grupo_118604" data-name="Grupo 118604" transform="translate(12.372 116.911)">
          <g id="Grupo_118597" data-name="Grupo 118597" transform="translate(49.028 52.676)">
            <g id="Grupo_118595" data-name="Grupo 118595">
              <path id="Trazado_172360" data-name="Trazado 172360" d="M255.554,151.281c0-3.443-2.093-7.441-4.674-8.93a4.281,4.281,0,0,0-2.042-.569,5.7,5.7,0,0,0-2.994.84,4.313,4.313,0,0,0-1.67,2.973l5.251,10.785a3.969,3.969,0,0,0,3.427-.122,5.379,5.379,0,0,0,2.032-2.111,7.391,7.391,0,0,0,.386-.9A6.353,6.353,0,0,0,255.554,151.281Z" transform="translate(-244.073 -141.781)"/>
              <path id="Trazado_172361" data-name="Trazado 172361" d="M244.125,146.479c0,3.441,2.093,7.439,4.674,8.93s4.673-.092,4.673-3.533-2.093-7.441-4.673-8.93S244.125,143.038,244.125,146.479Z" transform="translate(-244.125 -141.157)" fill="#3f2a28"/>
              <path id="Trazado_172362" data-name="Trazado 172362" d="M244.977,146.206a6.132,6.132,0,0,0,2.56,4.893c1.413.816,2.558-.051,2.558-1.936a6.129,6.129,0,0,0-2.558-4.891C246.122,143.454,244.977,144.32,244.977,146.206Z" transform="translate(-243.244 -139.525)" fill="#fff"/>
            </g>
            <g id="Grupo_118596" data-name="Grupo 118596" transform="translate(1.247 0.405)">
              <path id="Trazado_172363" data-name="Trazado 172363" d="M245.2,141.98h3.047v8.883a1.392,1.392,0,0,1-.474,1.188l0,.006-1.051.549-.936-1.1.266-.106a3.874,3.874,0,0,1-.854-2.294Z" transform="translate(-244.262 -141.98)" fill="#d8c4c3"/>
              <path id="Trazado_172364" data-name="Trazado 172364" d="M247.785,141.98v9.365c0,1.121-.683,1.635-1.523,1.151a3.648,3.648,0,0,1-1.523-2.91V141.98Z" transform="translate(-244.738 -141.98)" fill="#eddcda"/>
            </g>
          </g>
          <g id="Grupo_118600" data-name="Grupo 118600" transform="translate(1.178 24.991)">
            <g id="Grupo_118598" data-name="Grupo 118598">
              <path id="Trazado_172365" data-name="Trazado 172365" d="M232.053,137.668c0-3.441-2.093-7.439-4.674-8.93a4.3,4.3,0,0,0-2.042-.569,5.7,5.7,0,0,0-2.994.84,4.313,4.313,0,0,0-1.67,2.973l5.251,10.785a3.973,3.973,0,0,0,3.429-.122,5.386,5.386,0,0,0,2.03-2.111,7.4,7.4,0,0,0,.386-.9A6.344,6.344,0,0,0,232.053,137.668Z" transform="translate(-220.517 -128.168)"/>
              <path id="Trazado_172366" data-name="Trazado 172366" d="M220.6,132.866c0,3.441,2.093,7.439,4.674,8.93s4.673-.092,4.673-3.533-2.091-7.439-4.673-8.93S220.6,129.425,220.6,132.866Z" transform="translate(-220.597 -127.544)" fill="#3f2a28"/>
              <path id="Trazado_172367" data-name="Trazado 172367" d="M221.476,132.594a6.125,6.125,0,0,0,2.56,4.891c1.413.816,2.558-.051,2.558-1.936a6.129,6.129,0,0,0-2.558-4.891C222.621,129.842,221.476,130.709,221.476,132.594Z" transform="translate(-219.688 -125.911)" fill="#fff"/>
            </g>
            <g id="Grupo_118599" data-name="Grupo 118599" transform="translate(1.302 0.405)">
              <path id="Trazado_172368" data-name="Trazado 172368" d="M221.7,128.367h3.045v8.885a1.388,1.388,0,0,1-.474,1.186l0,.006-1.051.549-.936-1.1.266-.106a3.867,3.867,0,0,1-.852-2.294Z" transform="translate(-220.76 -128.367)" fill="#d8c4c3"/>
              <path id="Trazado_172369" data-name="Trazado 172369" d="M224.284,128.367v9.365c0,1.121-.683,1.637-1.523,1.151a3.645,3.645,0,0,1-1.523-2.91v-7.606Z" transform="translate(-221.237 -128.367)" fill="#eddcda"/>
            </g>
          </g>
          <g id="Grupo_118603" data-name="Grupo 118603" transform="translate(79.477 35.04)">
            <g id="Grupo_118601" data-name="Grupo 118601">
              <path id="Trazado_172370" data-name="Trazado 172370" d="M270.553,142.607c0-3.441-2.093-7.439-4.674-8.928a4.264,4.264,0,0,0-2.042-.569,5.72,5.72,0,0,0-3,.838,4.31,4.31,0,0,0-1.668,2.975l5.249,10.785a3.974,3.974,0,0,0,3.429-.122,5.371,5.371,0,0,0,2.03-2.111,7.255,7.255,0,0,0,.388-.9A6.419,6.419,0,0,0,270.553,142.607Z" transform="translate(-259.017 -133.109)"/>
              <path id="Trazado_172371" data-name="Trazado 172371" d="M259.1,137.807c0,3.441,2.093,7.439,4.674,8.93s4.674-.092,4.674-3.533-2.093-7.441-4.674-8.93S259.1,134.366,259.1,137.807Z" transform="translate(-259.097 -132.484)" fill="#3f2a28"/>
              <path id="Trazado_172372" data-name="Trazado 172372" d="M259.975,137.534a6.138,6.138,0,0,0,2.56,4.893c1.413.816,2.56-.051,2.56-1.936a6.131,6.131,0,0,0-2.56-4.891C261.122,134.782,259.975,135.648,259.975,137.534Z" transform="translate(-258.189 -130.853)" fill="#fff"/>
            </g>
            <g id="Grupo_118602" data-name="Grupo 118602" transform="translate(1.302 0.405)">
              <path id="Trazado_172373" data-name="Trazado 172373" d="M260.2,133.308h3.045v8.883a1.391,1.391,0,0,1-.472,1.188l0,.006-1.051.549-.938-1.1.266-.1a3.872,3.872,0,0,1-.852-2.294Z" transform="translate(-259.261 -133.308)" fill="#d8c4c3"/>
              <path id="Trazado_172374" data-name="Trazado 172374" d="M262.781,133.308v9.365c0,1.121-.681,1.635-1.523,1.151a3.652,3.652,0,0,1-1.521-2.91v-7.606Z" transform="translate(-259.737 -133.308)" fill="#eddcda"/>
            </g>
          </g>
          <path id="Trazado_172375" data-name="Trazado 172375" d="M228.369,130.2l16.544-9.463c3.535-2.042,8.932-2.266,11.993-.5l49.867,28.792-.024-.167h7.588v6.687l-.022,0c-.152,1.259-1.131,2.552-2.9,3.575L289.435,171.7c-3.535,2.04-8.932,2.264-11.993.5l-55.365-31.964a3.458,3.458,0,0,1-2.038-3.215l-.016,0V130.7Z" transform="translate(-220.012 -112.609)" fill="#eddcda"/>
          <path id="Trazado_172376" data-name="Trazado 172376" d="M222.083,137.062l55.365,31.966c3.061,1.767,8.458,1.544,11.993-.5l21.977-12.569c3.535-2.042,3.921-5.158.86-6.925l-55.364-31.964c-3.061-1.767-8.458-1.544-11.993.5l-21.977,12.571C219.408,132.179,219.022,135.294,222.083,137.062Z" transform="translate(-220.017 -115.88)" fill="#f4ebea"/>
        </g>
        <g id="Grupo_118606" data-name="Grupo 118606" transform="translate(0.512 28.558)">
          <g id="Grupo_118605" data-name="Grupo 118605" transform="translate(0.775)">
            <path id="Trazado_172377" data-name="Trazado 172377" d="M214.567,90.742l31.253-18.149a1.084,1.084,0,0,1,1.186.041l0,0L214.772,91.25Z" transform="translate(-214.567 -72.436)" fill="#a9beff"/>
            <path id="Trazado_172378" data-name="Trazado 172378" d="M248.206,74.282,215.442,93.2l-.563-1.405,32.652-18.851A4.457,4.457,0,0,1,248.206,74.282Z" transform="translate(-214.244 -71.911)" fill="#a9beff"/>
            <path id="Trazado_172379" data-name="Trazado 172379" d="M247.317,75.411,215.684,93.753l-.317-.789,32.489-18.757A1.465,1.465,0,0,1,247.317,75.411Z" transform="translate(-213.74 -70.605)" fill="#a9beff"/>
            <path id="Trazado_172380" data-name="Trazado 172380" d="M248.1,74.684c0,.059-.024.094-.026.148L215.585,93.59l-.429-1.07L247.92,73.6A3.841,3.841,0,0,1,248.1,74.684Z" transform="translate(-213.958 -71.23)" fill="#92b1ff"/>
            <path id="Trazado_172381" data-name="Trazado 172381" d="M246.9,72.535a2.974,2.974,0,0,1,.844.832L215.1,92.218l-.429-1.07Z" transform="translate(-214.463 -72.333)" fill="#92b1ff"/>
          </g>
          <path id="Trazado_172382" data-name="Trazado 172382" d="M217.595,84.879c0,1.253-.763,1.83-1.7,1.287a4.08,4.08,0,0,1-1.7-3.256c0-1.255.763-1.83,1.7-1.287A4.08,4.08,0,0,1,217.595,84.879Z" transform="translate(-214.186 -63.15)" fill="#778dfd"/>
        </g>
        <g id="Grupo_118608" data-name="Grupo 118608" transform="translate(8.295 46.018)">
          <g id="Grupo_118607" data-name="Grupo 118607">
            <path id="Trazado_172383" data-name="Trazado 172383" d="M227.3,85.96l-8.385-4.869a.485.485,0,0,0-.531.018l0,0,8.918,5.147Z" transform="translate(-217.627 -81.021)" fill="#352221"/>
            <path id="Trazado_172384" data-name="Trazado 172384" d="M227.649,86.614l-9.294-5.365a2,2,0,0,0-.3.6l9.6,5.54Z" transform="translate(-217.973 -80.786)" fill="#352221"/>
            <path id="Trazado_172385" data-name="Trazado 172385" d="M227.684,87.395l-9.666-5.581a.663.663,0,0,0,.242.539l9.424,5.465Z" transform="translate(-218.008 -80.202)" fill="#352221"/>
            <path id="Trazado_172386" data-name="Trazado 172386" d="M227.69,87.083l-9.6-5.54a1.7,1.7,0,0,0-.079.484c0,.026.01.043.01.067l9.666,5.581Z" transform="translate(-218.013 -80.482)" fill="#352221"/>
            <path id="Trazado_172387" data-name="Trazado 172387" d="M227.5,86.213l-8.918-5.147a1.306,1.306,0,0,0-.376.372L227.5,86.8Z" transform="translate(-217.819 -80.975)" fill="#352221"/>
          </g>
        </g>
        <g id="Grupo_118610" data-name="Grupo 118610" transform="translate(28.828 33.566)">
          <g id="Grupo_118609" data-name="Grupo 118609">
            <path id="Trazado_172388" data-name="Trazado 172388" d="M237.4,79.837l-8.383-4.869a.485.485,0,0,0-.531.018l0,0,8.916,5.147Z" transform="translate(-227.722 -74.898)" fill="#352221"/>
            <path id="Trazado_172389" data-name="Trazado 172389" d="M237.744,80.491l-9.294-5.365a2,2,0,0,0-.3.6l9.6,5.54Z" transform="translate(-228.068 -74.663)" fill="#352221"/>
            <path id="Trazado_172390" data-name="Trazado 172390" d="M237.779,81.272l-9.664-5.581a.659.659,0,0,0,.24.539l9.424,5.465Z" transform="translate(-228.103 -74.079)" fill="#352221"/>
            <path id="Trazado_172391" data-name="Trazado 172391" d="M237.786,80.961l-9.6-5.54a1.686,1.686,0,0,0-.081.482.653.653,0,0,0,.012.067l9.664,5.581Z" transform="translate(-228.109 -74.358)" fill="#352221"/>
            <path id="Trazado_172392" data-name="Trazado 172392" d="M237.591,80.09l-8.916-5.147a1.338,1.338,0,0,0-.378.372l9.294,5.365Z" transform="translate(-227.915 -74.852)" fill="#352221"/>
          </g>
        </g>
        <rect id="Rectángulo_37094" data-name="Rectángulo 37094" width="2.033" height="25.163" transform="translate(73.381 84.918) rotate(16.061)" fill="#593d3d"/>
        <g id="Grupo_118612" data-name="Grupo 118612" transform="translate(66.812 43.902)">
          <path id="Trazado_172393" data-name="Trazado 172393" d="M260.077,98.866c-.134-1.1-1.629-1.047-2.481.116.391-1.159.828-2.939-.622-3.2a2.5,2.5,0,0,0-2.1.905.912.912,0,0,0-.742-.752c-.48-.053-.783.309-.97.769a2.755,2.755,0,0,0-1.495-1.847c-.962-.277-1.424.4-1.59,1.182a2.373,2.373,0,0,0-1.135-.454,1.929,1.929,0,0,0-1.788.752c-.734,1.133.576,2.351,1.4,3.205a2.164,2.164,0,0,0-.268,2.19,1.41,1.41,0,0,0-1.489,1.387,2.633,2.633,0,0,0,2.034,2.292c-.726.376-1.393.887-.779,1.684.592.771,1.741.659,2.689.327-.228.933-.124,1.936,1.058,2.06.887.094,1.786-.769,2.343-1.684a1.991,1.991,0,0,0,2.115,1.041,1.454,1.454,0,0,0,1.074-1.043c1.234.62,2.711.988,3.647-.2a1.875,1.875,0,0,0,.079-2,1.388,1.388,0,0,0,1.123-.921,1.457,1.457,0,0,0-.193-1.275,2.682,2.682,0,0,0,1.265-2.148,2.711,2.711,0,0,0-.358-1.387A2.879,2.879,0,0,0,260.077,98.866Z" transform="translate(-246.786 -64.666)" fill="#ff61ad"/>
          <g id="Grupo_118611" data-name="Grupo 118611" transform="translate(1.92)">
            <path id="Trazado_172394" data-name="Trazado 172394" d="M270.032,85.737a1.7,1.7,0,0,0-1.511-.281,1.577,1.577,0,0,0-.352-1.832,1.314,1.314,0,0,0-1.822.063,1.466,1.466,0,0,0-2.355-1.57c-.563-1.025-2.41-1.263-2.918-.451-.826-2.977-3.3-1.393-3.246.077a2.594,2.594,0,0,0-2.63.83,1.88,1.88,0,0,0-.1,1.777,1.891,1.891,0,0,0-.98.352,1.526,1.526,0,0,0-.462,1.946,1.846,1.846,0,0,0-1.432,1.021,2.062,2.062,0,0,0,.431,2.18,1.52,1.52,0,0,0-.659.592,1.847,1.847,0,0,0-.039,1.777,2.035,2.035,0,0,0-1.344.46c-.889.793-.6,1.934-.114,2.874a1.856,1.856,0,0,0-1.409,1.117,2.4,2.4,0,0,0,.423,2.41,4.739,4.739,0,0,1,1.5,1.422,1.536,1.536,0,0,1,1.458-.708,2.009,2.009,0,0,1,1.594,1.176.893.893,0,0,1,.956-.37,1.2,1.2,0,0,1,.86.736,2.057,2.057,0,0,1,2.569.079,1.574,1.574,0,0,1,.551,1.426,1.531,1.531,0,0,1,2.691.549c1.729-.783,2.7-.069,3.588,1.464a1.456,1.456,0,0,0,.2-.039,2.206,2.206,0,0,0,1.151-1.053,2.086,2.086,0,0,0,.022-1.926,2.058,2.058,0,0,0,1.112-1.084,2.08,2.08,0,0,0,.043-1.448c.759.031,1.377-.252,1.31-1.318a3.779,3.779,0,0,0-.633-1.773c1.192-.014,2.264-.382,2.2-1.68a2.46,2.46,0,0,0-1.208-1.843,3.371,3.371,0,0,0,1.655-2.392,1.571,1.571,0,0,0-.807-1.635,2.322,2.322,0,0,0,.374-.834A2.07,2.07,0,0,0,270.032,85.737Z" transform="translate(-246.498 -79.981)" fill="#778dfd"/>
            <path id="Trazado_172395" data-name="Trazado 172395" d="M262.92,93.68a1.531,1.531,0,0,0-2.691-.549,1.574,1.574,0,0,0-.551-1.426,2.057,2.057,0,0,0-2.569-.079,1.2,1.2,0,0,0-.86-.736.893.893,0,0,0-.956.37,2.009,2.009,0,0,0-1.594-1.176,1.536,1.536,0,0,0-1.458.708,4.739,4.739,0,0,0-1.5-1.422c.018.024.031.053.051.077a1.842,1.842,0,0,0-1.4,1,1.984,1.984,0,0,0,.47,2.257,1.682,1.682,0,0,0-.724,1.527,1.631,1.631,0,0,0,.708,1.153,1.715,1.715,0,0,0-1.643.826c-.48.852.122,1.873.716,2.723-.513-.026-.986.073-1.137.618a2.157,2.157,0,0,0,.295,1.635c-.041,0-.081,0-.124,0a2.373,2.373,0,0,1,1.135.454c.167-.783.628-1.458,1.59-1.182a2.755,2.755,0,0,1,1.495,1.847c.187-.46.49-.822.97-.769a.912.912,0,0,1,.742.752,2.5,2.5,0,0,1,2.1-.905c1.45.258,1.013,2.038.622,3.2.852-1.163,2.347-1.218,2.481-.116a2.879,2.879,0,0,1,2.8,1,1.749,1.749,0,0,0,.726-.3,1.954,1.954,0,0,0,.693-2.337,2.2,2.2,0,0,0,1.4-3.319,3.518,3.518,0,0,0,2.107-2.5,2.45,2.45,0,0,0-.325-1.879C265.621,93.611,264.649,92.9,262.92,93.68Z" transform="translate(-247.73 -70.274)" fill="#fed517"/>
          </g>
        </g>
        <g id="Grupo_118621" data-name="Grupo 118621" transform="translate(25.079 93.616)">
          <g id="Grupo_118616" data-name="Grupo 118616" transform="translate(0.377 3.674)">
            <path id="Trazado_172396" data-name="Trazado 172396" d="M226.567,125.821a5.938,5.938,0,0,0,1.316.917,39.618,39.618,0,0,1,5.011-14.588l3.091-5.357a1.688,1.688,0,0,0-1.483-.551l-2.961,5.127a41.349,41.349,0,0,0-5.09,14.3C226.492,125.72,226.522,125.777,226.567,125.821Z" transform="translate(-226.451 -106.232)" fill="#3f2a28"/>
            <g id="Grupo_118615" data-name="Grupo 118615" transform="translate(1.298 0.285)">
              <g id="Grupo_118613" data-name="Grupo 118613" transform="translate(0 9.591)">
                <path id="Trazado_172397" data-name="Trazado 172397" d="M227.089,111.088l1.422,22.034.521,8.056c2.971,3.128,9.052,5.278,16.089,5.278s13.126-2.154,16.1-5.284l.519-8.045,1.42-22.038Z" transform="translate(-227.089 -111.088)" fill="#ffb600"/>
              </g>
              <path id="Trazado_172398" data-name="Trazado 172398" d="M245.122,106.372c-9.959,0-18.033,4.293-18.033,9.591s8.074,9.593,18.033,9.593,18.031-4.3,18.031-9.593S255.079,106.372,245.122,106.372Z" transform="translate(-227.089 -106.372)" fill="#fed517"/>
              <g id="Grupo_118614" data-name="Grupo 118614" transform="translate(0.97 0.889)">
                <path id="Trazado_172399" data-name="Trazado 172399" d="M244.629,113.476c7.108,0,13.195,2.217,15.76,5.369a5.267,5.267,0,0,0,1.3-3.333c0-4.806-7.641-8.7-17.063-8.7s-17.063,3.9-17.063,8.7a5.275,5.275,0,0,0,1.3,3.333C231.434,115.692,237.521,113.476,244.629,113.476Z" transform="translate(-227.566 -106.809)" fill="#efa500"/>
                <path id="Trazado_172400" data-name="Trazado 172400" d="M243.967,120.825c7.108,0,13.195-2.217,15.759-5.369-2.565-3.152-8.652-5.369-15.759-5.369s-13.195,2.217-15.761,5.369C230.773,118.608,236.86,120.825,243.967,120.825Z" transform="translate(-226.904 -103.42)" fill="#efa500"/>
              </g>
            </g>
            <path id="Trazado_172401" data-name="Trazado 172401" d="M244.153,121.462c-8.9,0-16.119,3.838-16.119,8.574s7.218,8.572,16.119,8.572,16.117-3.838,16.117-8.572S253.055,121.462,244.153,121.462Z" transform="translate(-224.815 -90.487)" fill="#ffb600"/>
          </g>
          <circle id="Elipse_4783" data-name="Elipse 4783" cx="1.672" cy="1.672" r="1.672" transform="translate(28.132 15.04)" fill="#3f2a28"/>
          <g id="Grupo_118618" data-name="Grupo 118618" transform="translate(29.319 13.511)">
            <g id="Grupo_118617" data-name="Grupo 118617">
              <path id="Trazado_172402" data-name="Trazado 172402" d="M245,111.748l-.59-.419c-.039-.033-.079-.059-.12-.087l-.067-.047-.01.008a1.367,1.367,0,0,0-1.369.114,5.18,5.18,0,0,0-2.158,4.12v3.124l.738.427c.486-.431,3.575-1.647,3.575-3.23v-2.813a2.958,2.958,0,0,0-.114-.811Zm-2.127,4.362a1.168,1.168,0,0,1-.508.157,1.892,1.892,0,0,1-.094-.567,3.469,3.469,0,0,1,1.448-2.768,1.154,1.154,0,0,1,.51-.159,1.891,1.891,0,0,1,.094.567A3.472,3.472,0,0,1,242.868,116.111Z" transform="translate(-240.682 -111.069)" fill="#fed517"/>
            </g>
            <path id="Trazado_172403" data-name="Trazado 172403" d="M243.2,111.582a5.187,5.187,0,0,0-2.156,4.12v3.02l4.311-1.8v-3.714C245.356,111.631,244.386,110.9,243.2,111.582Zm-.708,4.263a1.168,1.168,0,0,1-.508.157,1.892,1.892,0,0,1-.094-.567,3.469,3.469,0,0,1,1.448-2.768,1.154,1.154,0,0,1,.51-.159,1.891,1.891,0,0,1,.094.567A3.472,3.472,0,0,1,242.493,115.845Z" transform="translate(-240.307 -110.803)" fill="#ffb600"/>
            <path id="Trazado_172404" data-name="Trazado 172404" d="M243.372,111.908a1.891,1.891,0,0,1,.094.567,3.472,3.472,0,0,1-1.45,2.77,1.168,1.168,0,0,1-.508.157.846.846,0,0,0,1.354.529,3.472,3.472,0,0,0,1.45-2.77C244.311,112.335,243.919,111.869,243.372,111.908Z" transform="translate(-239.829 -110.204)" fill="#fed517"/>
          </g>
          <g id="Grupo_118620" data-name="Grupo 118620" transform="translate(5.978)">
            <g id="Grupo_118619" data-name="Grupo 118619">
              <path id="Trazado_172405" data-name="Trazado 172405" d="M233.519,105.106l-.59-.421a1.176,1.176,0,0,0-.12-.085l-.067-.049-.01.008a1.372,1.372,0,0,0-1.369.114,5.18,5.18,0,0,0-2.158,4.12v3.126l.738.425c.486-.431,3.575-1.647,3.575-3.228V106.3a2.937,2.937,0,0,0-.114-.811Zm-2.127,4.36a1.168,1.168,0,0,1-.508.157,1.871,1.871,0,0,1-.094-.567,3.472,3.472,0,0,1,1.448-2.768,1.149,1.149,0,0,1,.51-.157,1.87,1.87,0,0,1,.094.567A3.468,3.468,0,0,1,231.391,109.466Z" transform="translate(-229.205 -104.425)" fill="#fed517"/>
            </g>
            <path id="Trazado_172406" data-name="Trazado 172406" d="M231.724,104.94a5.18,5.18,0,0,0-2.156,4.118v3.02l4.312-1.861v-3.649C233.88,104.988,232.909,104.254,231.724,104.94Zm-.708,4.261a1.168,1.168,0,0,1-.508.157,1.871,1.871,0,0,1-.094-.567,3.472,3.472,0,0,1,1.448-2.768,1.149,1.149,0,0,1,.51-.157,1.87,1.87,0,0,1,.094.567A3.468,3.468,0,0,1,231.016,109.2Z" transform="translate(-228.83 -104.159)" fill="#ffb600"/>
            <path id="Trazado_172407" data-name="Trazado 172407" d="M231.895,105.265a1.87,1.87,0,0,1,.094.567,3.468,3.468,0,0,1-1.45,2.768,1.168,1.168,0,0,1-.508.157.846.846,0,0,0,1.354.529,3.468,3.468,0,0,0,1.45-2.768C232.835,105.69,232.442,105.225,231.895,105.265Z" transform="translate(-228.352 -103.559)" fill="#fed517"/>
          </g>
          <path id="Trazado_172408" data-name="Trazado 172408" d="M252.207,122.664c-4.106,7.112-9.815,12.06-14.9,12.916a6.934,6.934,0,0,1-5.973-1.509c-3.36-2.91-4.259-9.219-2.868-16.2-.126-1.956-.2-3.036-.346-4.873-3.036,9.258-2.382,18.3,2.192,22.257a8.241,8.241,0,0,0,5.52,2.017,10.4,10.4,0,0,0,1.733-.148c5.532-.931,11.657-6.17,15.991-13.677l5.094-8.824c.462-.984.22-1.615-.952-2.16a3.813,3.813,0,0,0-.523,1.594Z" transform="translate(-226.266 -96.12)" fill="#3f2a28"/>
          <circle id="Elipse_4784" data-name="Elipse 4784" cx="1.672" cy="1.672" r="1.672" transform="translate(7.791 3.176)" fill="#3f2a28"/>
        </g>
        <path id="Trazado_172409" data-name="Trazado 172409" d="M248.159,68.3h-2.3l.609,100.5h2.3Z" transform="translate(-180.934 -48.149)" fill="#352221"/>
        <g id="Grupo_118622" data-name="Grupo 118622" transform="translate(40.231 51.649)">
          <path id="Trazado_172410" data-name="Trazado 172410" d="M233.716,83.79v96.247c0,.338.517.612,1.151.612s1.151-.275,1.151-.612V83.79Z" transform="translate(-233.716 -83.79)" fill="#352221"/>
        </g>
        <g id="Grupo_118623" data-name="Grupo 118623" transform="translate(53.731 51.649)">
          <path id="Trazado_172411" data-name="Trazado 172411" d="M240.354,83.79v96.247c0,.338.517.612,1.151.612s1.151-.275,1.151-.612V83.79Z" transform="translate(-240.354 -83.79)" fill="#352221"/>
        </g>
        <g id="Grupo_118625" data-name="Grupo 118625" transform="translate(12.362 80.536)">
          <path id="Trazado_172412" data-name="Trazado 172412" d="M220.027,115.588s-.033,3.315,0,3.561,1.812,1.216,1.812,1.216-1-2.349.862-3.63,19.642-11.763,22.361-13.091,7.035-2.786,11.216-.8,26.209,15.194,26.209,15.194l.929-2.719S257.8,100.194,255.15,99.133s-5.973-.472-8.56.659S220.027,115.588,220.027,115.588Z" transform="translate(-220.013 -97.391)" fill="#778dfd"/>
          <path id="Trazado_172413" data-name="Trazado 172413" d="M256.913,100.881c-3.061-1.767-8.458-1.544-11.993.5l-21.977,12.569c-3.535,2.042-3.921,5.158-.86,6.925l32.273,18.58,34.033-20.419ZM225.444,119.24c-2.558-1.477-2.156-2.713.8-4.419L245.877,103.5c2.953-1.706,7.462-1.893,10.02-.417L282.792,118.7l-28.436,17.059Z" transform="translate(-220.008 -96.241)" fill="#778dfd"/>
          <g id="Grupo_118624" data-name="Grupo 118624" transform="translate(0.009)">
            <path id="Trazado_172414" data-name="Trazado 172414" d="M256.913,99.186c-3.061-1.767-8.458-1.544-11.993.5l-21.977,12.571c-3.535,2.04-3.921,5.156-.86,6.923l32.273,18.58,34.033-20.419Zm-31.468,18.357c-2.558-1.477-2.156-2.713.8-4.417l19.636-11.32c2.953-1.7,7.462-1.891,10.02-.415l26.894,15.615-28.436,17.061Z" transform="translate(-220.017 -97.994)" fill="#9fb6ff"/>
          </g>
        </g>
        <g id="Grupo_118626" data-name="Grupo 118626" transform="translate(43.948 74.004)">
          <path id="Trazado_172415" data-name="Trazado 172415" d="M238.306,177.136l-2.762-1.595V94.813l2.762,1.595Z" transform="translate(-235.544 -94.75)" fill="#778dfd"/>
          <path id="Trazado_172416" data-name="Trazado 172416" d="M236.9,177.168l2.762-1.595V94.782L236.9,96.439Z" transform="translate(-234.14 -94.782)" fill="#8da3ff"/>
        </g>
        <g id="Grupo_118627" data-name="Grupo 118627" transform="translate(75.219 55.243)">
          <path id="Trazado_172417" data-name="Trazado 172417" d="M253.682,168.39,250.92,166.8V85.557l2.762,1.595Z" transform="translate(-250.92 -85.557)" fill="#778dfd"/>
          <path id="Trazado_172418" data-name="Trazado 172418" d="M252.278,168.39l2.762-1.595V85.557l-2.762,1.595Z" transform="translate(-249.516 -85.557)" fill="#8da3ff"/>
        </g>
        <g id="Grupo_118637" data-name="Grupo 118637" transform="translate(55.785 109.362)">
          <g id="Grupo_118632" data-name="Grupo 118632" transform="translate(0 4.093)">
            <path id="Trazado_172419" data-name="Trazado 172419" d="M267.1,136.005a6.639,6.639,0,0,1-1.466,1.025,44.23,44.23,0,0,0-5.583-16.256l-3.445-5.967a1.878,1.878,0,0,1,1.651-.614l3.3,5.713a46.092,46.092,0,0,1,5.674,15.934C267.184,135.893,267.152,135.956,267.1,136.005Z" transform="translate(-225.605 -114.181)" fill="#3f2a28"/>
            <g id="Grupo_118631" data-name="Grupo 118631" transform="translate(0 0.318)">
              <g id="Grupo_118628" data-name="Grupo 118628" transform="translate(0 10.687)">
                <path id="Trazado_172420" data-name="Trazado 172420" d="M262.223,135.83a7,7,0,0,1-2.166,4.806l.58-8.973A6.652,6.652,0,0,1,262.223,135.83Z" transform="translate(-222.04 -107.114)" fill="#d3bcba"/>
                <path id="Trazado_172421" data-name="Trazado 172421" d="M242.946,131.665l.578,8.963a7.008,7.008,0,0,1-2.16-4.8A6.648,6.648,0,0,1,242.946,131.665Z" transform="translate(-241.364 -107.112)" fill="#d3bcba"/>
                <path id="Trazado_172422" data-name="Trazado 172422" d="M281.547,119.592l-1.586,24.549-.58,8.973c-3.309,3.486-10.083,5.88-17.925,5.88s-14.625-2.4-17.932-5.886l-.578-8.963-1.582-24.553Z" transform="translate(-241.364 -119.592)" fill="#f445a1"/>
              </g>
              <path id="Trazado_172423" data-name="Trazado 172423" d="M261.455,114.337c11.1,0,20.091,4.785,20.091,10.687s-9,10.687-20.091,10.687-20.091-4.785-20.091-10.687S250.359,114.337,261.455,114.337Z" transform="translate(-241.364 -114.337)" fill="#ff76be"/>
              <g id="Grupo_118629" data-name="Grupo 118629" transform="translate(1.08 0.99)">
                <path id="Trazado_172424" data-name="Trazado 172424" d="M260.9,122.251c-7.917,0-14.7,2.471-17.559,5.983a5.866,5.866,0,0,1-1.45-3.714c0-5.355,8.511-9.7,19.009-9.7s19.009,4.342,19.009,9.7a5.866,5.866,0,0,1-1.45,3.714C275.606,124.722,268.824,122.251,260.9,122.251Z" transform="translate(-241.895 -114.824)" fill="#ff61ad"/>
                <path id="Trazado_172425" data-name="Trazado 172425" d="M260.167,130.443c-7.917,0-14.7-2.473-17.559-5.983,2.857-3.512,9.642-5.983,17.559-5.983s14.7,2.471,17.559,5.983C274.869,127.969,268.087,130.443,260.167,130.443Z" transform="translate(-241.158 -111.049)" fill="#bbcdff"/>
              </g>
              <g id="Grupo_118630" data-name="Grupo 118630" transform="translate(2.53 2.494)">
                <path id="Trazado_172426" data-name="Trazado 172426" d="M246.934,117.364a.721.721,0,1,0,.722-.722A.72.72,0,0,0,246.934,117.364Z" transform="translate(-238.136 -114.449)" fill="#fff"/>
                <path id="Trazado_172427" data-name="Trazado 172427" d="M248.175,122.651a.721.721,0,1,0,.722-.72A.722.722,0,0,0,248.175,122.651Z" transform="translate(-236.853 -108.981)" fill="#fff"/>
                <path id="Trazado_172428" data-name="Trazado 172428" d="M253.036,121.1c.236-.433.883-1.241,1.489-1.338a2.391,2.391,0,0,1,1.289-2.63c1.212-.6,3.325.136,3.555,1.44a1.449,1.449,0,0,1,1.6-.212,1.487,1.487,0,0,1,.805,1.843,2.4,2.4,0,0,1,2.792,1.171,2.033,2.033,0,0,1-.63,2.276,1.66,1.66,0,0,1-.626,2.29,2.241,2.241,0,0,1-2.341-.047,2.475,2.475,0,0,1-3.915-.58,4.119,4.119,0,0,1-3.61-1.143A2.234,2.234,0,0,1,253.036,121.1Z" transform="translate(-232.265 -114.165)" fill="#fff"/>
                <path id="Trazado_172429" data-name="Trazado 172429" d="M244.03,120.823a2.732,2.732,0,0,1,1.332-.2,2.089,2.089,0,0,1,1.385-2.038,1.827,1.827,0,0,1,1.635.148,1.746,1.746,0,0,1,1.535-1.013c.594-.012.911.5.992,1.06a3.706,3.706,0,0,1,2.506-.769,2.247,2.247,0,0,1,1.767,1.334,1.986,1.986,0,0,1,2.711.242c.8,1.159-.616,1.822-1.686,2.211a1.56,1.56,0,0,1,.449.712,1.581,1.581,0,0,1-1.151,1.832,3.136,3.136,0,0,1-2.611-.222c-.094.97-.706,1.6-2.02,1.568a2.854,2.854,0,0,1-1.487-.543A2.681,2.681,0,0,1,246.767,127a2.794,2.794,0,0,1-2.005-.785,2.666,2.666,0,0,1-.458-1.259,2.231,2.231,0,0,1-.732-.273,2.1,2.1,0,0,1-.948-2.011A2.43,2.43,0,0,1,244.03,120.823Z" transform="translate(-242.608 -113.333)" fill="#fff"/>
                <path id="Trazado_172430" data-name="Trazado 172430" d="M251.81,117.531a1.051,1.051,0,1,0,1.051-1.051A1.052,1.052,0,0,0,251.81,117.531Z" transform="translate(-233.095 -114.616)" fill="#fff"/>
                <path id="Trazado_172431" data-name="Trazado 172431" d="M258.4,118.655a1.052,1.052,0,1,0,1.051-1.051A1.052,1.052,0,0,0,258.4,118.655Z" transform="translate(-226.284 -113.454)" fill="#fff"/>
                <circle id="Elipse_4785" data-name="Elipse 4785" cx="1.863" cy="1.863" r="1.863" transform="translate(14.688 10.697)" fill="#fff"/>
                <path id="Trazado_172432" data-name="Trazado 172432" d="M252.076,123.178a1.262,1.262,0,1,0,1.261-1.261A1.262,1.262,0,0,0,252.076,123.178Z" transform="translate(-232.82 -108.996)" fill="#fff"/>
                <circle id="Elipse_4786" data-name="Elipse 4786" cx="1.082" cy="1.082" r="1.082" transform="translate(13.355 1.442)" fill="#fff"/>
                <path id="Trazado_172433" data-name="Trazado 172433" d="M257.69,117.525a.721.721,0,1,0,.722-.72A.722.722,0,0,0,257.69,117.525Z" transform="translate(-227.017 -114.28)" fill="#fff"/>
                <circle id="Elipse_4787" data-name="Elipse 4787" cx="0.721" cy="0.721" r="0.721" transform="translate(15.108)" fill="#fff"/>
                <path id="Trazado_172434" data-name="Trazado 172434" d="M255.229,123.021a.722.722,0,1,0,.722-.72A.722.722,0,0,0,255.229,123.021Z" transform="translate(-229.561 -108.599)" fill="#fff"/>
              </g>
            </g>
          </g>
          <circle id="Elipse_4788" data-name="Elipse 4788" cx="1.863" cy="1.863" r="1.863" transform="translate(6.978 16.757)" fill="#3f2a28"/>
          <g id="Grupo_118634" data-name="Grupo 118634" transform="translate(3.754 15.054)">
            <g id="Grupo_118633" data-name="Grupo 118633" transform="translate(0.822)">
              <path id="Trazado_172435" data-name="Trazado 172435" d="M243.614,120.329l.657-.47a1.422,1.422,0,0,1,.132-.094l.077-.055.01.008a1.53,1.53,0,0,1,1.525.128,5.773,5.773,0,0,1,2.4,4.59v3.482l-.82.474c-.543-.478-3.984-1.834-3.984-3.6v-3.134a3.192,3.192,0,0,1,.128-.9Zm2.369,4.859a1.282,1.282,0,0,0,.567.175,2.089,2.089,0,0,0,.1-.632,3.866,3.866,0,0,0-1.615-3.085,1.309,1.309,0,0,0-.567-.175,2.09,2.09,0,0,0-.1.632A3.863,3.863,0,0,0,245.983,125.187Z" transform="translate(-243.614 -119.57)" fill="#ff61ad"/>
            </g>
            <path id="Trazado_172436" data-name="Trazado 172436" d="M245.612,120.143a5.772,5.772,0,0,1,2.4,4.59V128.1l-4.806-2v-4.139C243.21,120.2,244.292,119.381,245.612,120.143Zm.789,4.747a1.282,1.282,0,0,0,.567.175,2.089,2.089,0,0,0,.1-.632,3.866,3.866,0,0,0-1.615-3.085,1.309,1.309,0,0,0-.567-.175,2.09,2.09,0,0,0-.1.632A3.863,3.863,0,0,0,246.4,124.89Z" transform="translate(-243.21 -119.273)" fill="#f445a1"/>
            <path id="Trazado_172437" data-name="Trazado 172437" d="M244.568,120.505a2.09,2.09,0,0,0-.1.632,3.863,3.863,0,0,0,1.615,3.085,1.282,1.282,0,0,0,.567.175.944.944,0,0,1-1.511.588,3.867,3.867,0,0,1-1.615-3.083C243.521,120.981,243.96,120.463,244.568,120.505Z" transform="translate(-242.888 -118.606)" fill="#ff61ad"/>
          </g>
          <g id="Grupo_118636" data-name="Grupo 118636" transform="translate(29.76)">
            <g id="Grupo_118635" data-name="Grupo 118635" transform="translate(0.822)">
              <path id="Trazado_172438" data-name="Trazado 172438" d="M256.4,112.927l.657-.47a1.424,1.424,0,0,1,.132-.094l.077-.055.01.008a1.531,1.531,0,0,1,1.525.128,5.773,5.773,0,0,1,2.4,4.59v3.482l-.82.474c-.543-.478-3.984-1.834-3.984-3.6v-3.134a3.218,3.218,0,0,1,.128-.905Zm2.369,4.859a1.309,1.309,0,0,0,.567.175,2.091,2.091,0,0,0,.1-.632,3.869,3.869,0,0,0-1.615-3.085,1.3,1.3,0,0,0-.567-.175,2.153,2.153,0,0,0-.1.633A3.863,3.863,0,0,0,258.77,117.785Z" transform="translate(-256.401 -112.168)" fill="#f445a1"/>
            </g>
            <path id="Trazado_172439" data-name="Trazado 172439" d="M258.4,112.742a5.771,5.771,0,0,1,2.4,4.588v3.364L256,118.621v-4.063C256,112.795,257.079,111.977,258.4,112.742Zm.789,4.747a1.309,1.309,0,0,0,.567.175,2.091,2.091,0,0,0,.1-.632,3.869,3.869,0,0,0-1.615-3.085,1.3,1.3,0,0,0-.567-.175,2.153,2.153,0,0,0-.1.633A3.863,3.863,0,0,0,259.188,117.489Z" transform="translate(-255.997 -111.871)" fill="#ff61ad"/>
            <path id="Trazado_172440" data-name="Trazado 172440" d="M257.354,113.1a2.153,2.153,0,0,0-.1.633,3.863,3.863,0,0,0,1.615,3.085,1.309,1.309,0,0,0,.567.175.944.944,0,0,1-1.511.588,3.866,3.866,0,0,1-1.613-3.083C256.309,113.579,256.746,113.061,257.354,113.1Z" transform="translate(-255.674 -111.204)" fill="#f445a1"/>
          </g>
          <path id="Trazado_172441" data-name="Trazado 172441" d="M251.6,132.49c4.576,7.923,10.935,13.437,16.6,14.391a7.738,7.738,0,0,0,6.654-1.68c3.742-3.244,4.745-10.274,3.2-18.056.14-2.18.218-3.384.384-5.43,3.384,10.315,2.654,20.384-2.443,24.8a9.187,9.187,0,0,1-6.148,2.247,11.535,11.535,0,0,1-1.932-.167c-6.162-1.037-12.99-6.874-17.816-15.237l-5.678-9.833c-.515-1.094-.242-1.8,1.062-2.406a4.25,4.25,0,0,1,.584,1.777Z" transform="translate(-238.458 -102.915)" fill="#3f2a28"/>
          <path id="Trazado_172442" data-name="Trazado 172442" d="M255.939,115.771a1.863,1.863,0,1,0,1.863-1.863A1.864,1.864,0,0,0,255.939,115.771Z" transform="translate(-226.297 -110.369)" fill="#3f2a28"/>
        </g>
        <g id="Grupo_118638" data-name="Grupo 118638" transform="translate(48.544 100.578)">
          <path id="Trazado_172443" data-name="Trazado 172443" d="M268.842,107.849,237.8,126.478v3.908l31.2-18.53Z" transform="translate(-237.804 -107.849)" fill="#8da3ff"/>
        </g>
        <g id="Grupo_118640" data-name="Grupo 118640" transform="translate(12.362 35.899)">
          <path id="Trazado_172444" data-name="Trazado 172444" d="M220.027,93.641s-.033,3.315,0,3.561,1.812,1.216,1.812,1.216-1-2.349.862-3.63S242.344,83.024,245.063,81.7s7.035-2.786,11.216-.8,26.209,15.2,26.209,15.2l.929-2.721S257.8,78.245,255.15,77.184s-5.973-.47-8.56.661S220.027,93.641,220.027,93.641Z" transform="translate(-220.013 -75.444)" fill="#778dfd"/>
          <path id="Trazado_172445" data-name="Trazado 172445" d="M256.913,78.933c-3.061-1.767-8.458-1.544-11.993.5L222.943,92c-3.535,2.042-3.921,5.158-.86,6.925L254.356,117.5l34.033-20.419ZM225.444,97.289c-2.558-1.477-2.156-2.711.8-4.417l19.636-11.32c2.953-1.7,7.462-1.891,10.02-.415l26.894,15.615-28.436,17.061Z" transform="translate(-220.008 -74.293)" fill="#778dfd"/>
          <g id="Grupo_118639" data-name="Grupo 118639" transform="translate(0.009)">
            <path id="Trazado_172446" data-name="Trazado 172446" d="M256.913,77.238c-3.061-1.767-8.458-1.544-11.993.5L222.943,90.3c-3.535,2.04-3.921,5.156-.86,6.923l32.273,18.58,34.033-20.419ZM225.444,95.595c-2.558-1.477-2.156-2.713.8-4.417l19.636-11.32c2.953-1.7,7.462-1.891,10.02-.415l26.894,15.615-28.436,17.061Z" transform="translate(-220.017 -76.046)" fill="#9fb6ff"/>
          </g>
        </g>
        <path id="Trazado_172447" data-name="Trazado 172447" d="M236.9,109.423l34.033-20.418V85.557L236.9,105.975Z" transform="translate(-190.192 -30.314)" fill="#8da3ff"/>
        <path id="Trazado_172448" data-name="Trazado 172448" d="M255.889,109.228l-3.968,2.4-3.137-1.811,3.981-2.394Z" transform="translate(-177.908 -7.709)" fill="#9fb6ff"/>
        <rect id="Rectángulo_37095" data-name="Rectángulo 37095" width="2.302" height="11.845" transform="translate(40.232 78.647)" fill="#352221"/>
        <rect id="Rectángulo_37096" data-name="Rectángulo 37096" width="2.302" height="11.845" transform="translate(53.732 80.44)" fill="#352221"/>
        <rect id="Rectángulo_37097" data-name="Rectángulo 37097" width="2.302" height="21.723" transform="translate(40.232 32.24)" fill="#352221"/>
        <g id="Grupo_118644" data-name="Grupo 118644" transform="translate(24.246 15.33)">
          <g id="Grupo_118641" data-name="Grupo 118641" transform="translate(14.456 18.43)">
            <path id="Trazado_172449" data-name="Trazado 172449" d="M232.964,75.663v1.491c0,.787,1.2,1.426,2.68,1.426s2.683-.639,2.683-1.426V75.663Z" transform="translate(-232.964 -74.302)" fill="#493130"/>
            <path id="Trazado_172450" data-name="Trazado 172450" d="M235.644,74.994c-1.481,0-2.68.639-2.68,1.426s1.2,1.426,2.68,1.426,2.683-.639,2.683-1.426S237.125,74.994,235.644,74.994Z" transform="translate(-232.964 -74.994)" fill="#472f2e"/>
          </g>
          <g id="Grupo_118642" data-name="Grupo 118642" transform="translate(0 6.775)">
            <path id="Trazado_172451" data-name="Trazado 172451" d="M256.73,73.713,233.563,87.088l-7.707-4.45,23.167-13.375Z" transform="translate(-225.856 -69.263)" fill="#c6afaf"/>
            <path id="Trazado_172452" data-name="Trazado 172452" d="M229.646,84.826v2.988l23.167-13.375V71.451Z" transform="translate(-221.939 -67.002)" fill="#9e8282"/>
            <path id="Trazado_172453" data-name="Trazado 172453" d="M225.856,75.84v2.988l7.707,4.45V80.29Z" transform="translate(-225.856 -62.465)" fill="#b29a9a"/>
          </g>
          <g id="Grupo_118643" data-name="Grupo 118643" transform="translate(0.671)">
            <path id="Trazado_172454" data-name="Trazado 172454" d="M256.092,68.9a9.641,9.641,0,0,0-.995,2.587,6.8,6.8,0,0,0-.663-1.062,2.708,2.708,0,0,0-1.161-.728,8.417,8.417,0,0,1,.142,1.67,3.567,3.567,0,0,1-1.039,1.979,10.368,10.368,0,0,0-.6-1.129,4.889,4.889,0,0,0-1.261-1.108s-.531,1.176-.73,1.706-.862,1.924-.862,1.924-.665-.73-1.062-1.194a3.556,3.556,0,0,0-1.46-.73,4.445,4.445,0,0,1-.279,1.281,16.636,16.636,0,0,1-.931,2.013s-.582-.84-.781-1.051l-.907-.962a4.335,4.335,0,0,0-.818,1.462,8.49,8.49,0,0,1-.588,1.5,12.776,12.776,0,0,0-1.149-.97,2.288,2.288,0,0,0-1.507-.4,4.248,4.248,0,0,1,.356,1.44,5.167,5.167,0,0,1-.364,1.924s-.929-.4-1.062-.995-.232-1.66-.232-1.66a10.543,10.543,0,0,0-1.493,1.859,20.12,20.12,0,0,0-1,2.32,6.507,6.507,0,0,1-.464-1.259,6.524,6.524,0,0,0-.73-1.527,12,12,0,0,0-1.239,1.527c-.643.927-1.151,1.725-1.151,1.725a10.438,10.438,0,0,1-.4-1.991,12.02,12.02,0,0,1,0-1.682,4.825,4.825,0,0,0-1.194.62,8.981,8.981,0,0,0-1.11,1.062,5.486,5.486,0,0,0-.923-1.623,12.054,12.054,0,0,0-2.259-1.741,9.143,9.143,0,0,1,.378,3.63c-.146,2.3.179,4.806.563,5.166a29.734,29.734,0,0,0,3.484,2.184c1.033.551,2.223,1.42,3.152,1.088,1.031-.368,3.352-2.068,6.968-4.017,2.109-1.135,4.556-2.746,6.337-3.718,3.024-1.651,5.782-2.931,7.58-4.145a2.418,2.418,0,0,0,1.344-2.068c.4-2.024,1.495-6.337,1.495-6.337A6.486,6.486,0,0,0,256.092,68.9Z" transform="translate(-226.186 -64.337)" fill="#ffb600"/>
            <path id="Trazado_172455" data-name="Trazado 172455" d="M254.085,67.065a3.653,3.653,0,0,0-1.708,1.377,3.253,3.253,0,0,0-1.535-2.51,5.38,5.38,0,0,0-2,2.038c-.513-.789-2.9-1.42-2.9-1.42a14.958,14.958,0,0,0-1.326,3.051,5.685,5.685,0,0,0-2.658-.936,6.921,6.921,0,0,0-.826,2.63,3.5,3.5,0,0,0-2.986-.3,8.759,8.759,0,0,0-1.261,3.484,12.226,12.226,0,0,0-2.894-.789,15.936,15.936,0,0,0-1.253,3.167s-1.261-1.914-2.589-1.847c-.067,1.361-.525,1.78-.779,3.217l-3.183-.942a12.054,12.054,0,0,1,2.259,1.741,5.486,5.486,0,0,1,.923,1.623,8.981,8.981,0,0,1,1.11-1.062,4.825,4.825,0,0,1,1.194-.62,12.02,12.02,0,0,0,0,1.682,10.438,10.438,0,0,0,.4,1.991s.508-.8,1.151-1.725a12,12,0,0,1,1.239-1.527,6.524,6.524,0,0,1,.73,1.527,6.507,6.507,0,0,0,.464,1.259,20.12,20.12,0,0,1,1-2.32A10.543,10.543,0,0,1,238.144,78s.1,1.062.232,1.66,1.062.995,1.062.995a5.167,5.167,0,0,0,.364-1.924,4.248,4.248,0,0,0-.356-1.44,2.288,2.288,0,0,1,1.507.4,12.776,12.776,0,0,1,1.149.97,8.49,8.49,0,0,0,.588-1.5,4.335,4.335,0,0,1,.818-1.462l.907.962c.2.212.781,1.051.781,1.051a16.636,16.636,0,0,0,.931-2.013,4.445,4.445,0,0,0,.279-1.281,3.556,3.556,0,0,1,1.46.73c.4.464,1.062,1.194,1.062,1.194s.663-1.393.862-1.924.73-1.706.73-1.706a4.889,4.889,0,0,1,1.261,1.108,10.368,10.368,0,0,1,.6,1.129,3.567,3.567,0,0,0,1.039-1.979,8.417,8.417,0,0,0-.142-1.67,2.708,2.708,0,0,1,1.161.728,6.8,6.8,0,0,1,.663,1.062,9.641,9.641,0,0,1,.995-2.587,6.486,6.486,0,0,1,1.4-1.428,3.338,3.338,0,0,0-1.891.765A11.282,11.282,0,0,0,254.085,67.065Z" transform="translate(-226.186 -65.932)" fill="#fed517"/>
          </g>
        </g>
        <g id="Grupo_118648" data-name="Grupo 118648" transform="translate(51.85)">
          <g id="Grupo_118645" data-name="Grupo 118645" transform="translate(12.154 18.432)">
            <path id="Trazado_172456" data-name="Trazado 172456" d="M250.766,68.125v1.493c0,.787-1.2,1.426-2.68,1.426s-2.68-.639-2.68-1.426V68.125Z" transform="translate(-245.405 -66.766)" fill="#493130"/>
            <path id="Trazado_172457" data-name="Trazado 172457" d="M248.085,67.457c1.481,0,2.68.637,2.68,1.426s-1.2,1.426-2.68,1.426-2.68-.639-2.68-1.426S246.6,67.457,248.085,67.457Z" transform="translate(-245.405 -67.457)" fill="#472f2e"/>
          </g>
          <g id="Grupo_118646" data-name="Grupo 118646" transform="translate(1.097 6.777)">
            <path id="Trazado_172458" data-name="Trazado 172458" d="M239.968,66.176l23.167,13.375,7.707-4.45L247.675,61.726Z" transform="translate(-239.968 -61.726)" fill="#c6afaf"/>
            <path id="Trazado_172459" data-name="Trazado 172459" d="M263.135,77.289v2.988L239.968,66.9V63.914Z" transform="translate(-239.968 -59.464)" fill="#9e8282"/>
            <path id="Trazado_172460" data-name="Trazado 172460" d="M259.066,68.3V71.29l-7.707,4.45V72.753Z" transform="translate(-228.193 -54.928)" fill="#b29a9a"/>
          </g>
          <g id="Grupo_118647" data-name="Grupo 118647">
            <path id="Trazado_172461" data-name="Trazado 172461" d="M240.822,61.366a9.641,9.641,0,0,1,.995,2.587,6.8,6.8,0,0,1,.663-1.062,2.723,2.723,0,0,1,1.161-.73,8.608,8.608,0,0,0-.142,1.672,3.567,3.567,0,0,0,1.039,1.979,10.186,10.186,0,0,1,.6-1.129,4.892,4.892,0,0,1,1.259-1.108s.531,1.176.73,1.706.864,1.924.864,1.924.663-.73,1.062-1.194a3.513,3.513,0,0,1,1.458-.73,4.445,4.445,0,0,0,.279,1.281,16.633,16.633,0,0,0,.931,2.013s.582-.84.781-1.051l.907-.962a4.323,4.323,0,0,1,.82,1.462,8.394,8.394,0,0,0,.586,1.5,13,13,0,0,1,1.151-.97,2.3,2.3,0,0,1,1.507-.4,4.214,4.214,0,0,0-.356,1.442,5.139,5.139,0,0,0,.362,1.924s.929-.4,1.062-1,.234-1.657.234-1.657a10.679,10.679,0,0,1,1.493,1.857,20.484,20.484,0,0,1,.995,2.323,6.492,6.492,0,0,0,.464-1.261,6.539,6.539,0,0,1,.73-1.525,12.051,12.051,0,0,1,1.239,1.525c.643.929,1.151,1.727,1.151,1.727a10.438,10.438,0,0,0,.4-1.991,12.021,12.021,0,0,0,0-1.682,4.826,4.826,0,0,1,1.194.62,8.984,8.984,0,0,1,1.11,1.062,5.486,5.486,0,0,1,.923-1.623,12.1,12.1,0,0,1,2.26-1.743,9.154,9.154,0,0,0-.378,3.63c.146,2.3-.179,4.808-.563,5.168a29.841,29.841,0,0,1-3.484,2.184c-1.033.551-2.223,1.42-3.152,1.088-1.031-.368-3.352-2.068-6.968-4.017-2.109-1.135-4.556-2.746-6.337-3.718-3.024-1.653-5.782-2.931-7.58-4.145a2.418,2.418,0,0,1-1.344-2.068c-.4-2.024-1.493-6.337-1.493-6.337A6.5,6.5,0,0,1,240.822,61.366Z" transform="translate(-239.429 -56.798)" fill="#f445a1"/>
            <path id="Trazado_172462" data-name="Trazado 172462" d="M242.829,59.529a3.657,3.657,0,0,1,1.708,1.375,3.259,3.259,0,0,1,1.535-2.51,5.393,5.393,0,0,1,2,2.04c.512-.791,2.9-1.42,2.9-1.42a14.955,14.955,0,0,1,1.326,3.051,5.661,5.661,0,0,1,2.658-.936,6.92,6.92,0,0,1,.826,2.628,3.513,3.513,0,0,1,2.988-.3,8.777,8.777,0,0,1,1.259,3.484,12.221,12.221,0,0,1,2.9-.789,15.935,15.935,0,0,1,1.253,3.167s1.261-1.914,2.587-1.847c.067,1.359.525,1.78.779,3.217l3.183-.944a12.1,12.1,0,0,0-2.26,1.743,5.486,5.486,0,0,0-.923,1.623,8.984,8.984,0,0,0-1.11-1.062,4.826,4.826,0,0,0-1.194-.62,12.021,12.021,0,0,1,0,1.682,10.438,10.438,0,0,1-.4,1.991s-.508-.8-1.151-1.727a12.051,12.051,0,0,0-1.239-1.525,6.539,6.539,0,0,0-.73,1.525,6.492,6.492,0,0,1-.464,1.261,20.484,20.484,0,0,0-.995-2.323,10.679,10.679,0,0,0-1.493-1.857s-.1,1.062-.234,1.657-1.062,1-1.062,1a5.139,5.139,0,0,1-.362-1.924,4.214,4.214,0,0,1,.356-1.442,2.3,2.3,0,0,0-1.507.4,13,13,0,0,0-1.151.97,8.394,8.394,0,0,1-.586-1.5,4.323,4.323,0,0,0-.82-1.462l-.907.962c-.2.212-.781,1.051-.781,1.051a16.633,16.633,0,0,1-.931-2.013,4.445,4.445,0,0,1-.279-1.281,3.513,3.513,0,0,0-1.458.73c-.4.464-1.062,1.194-1.062,1.194s-.665-1.393-.864-1.924-.73-1.706-.73-1.706a4.892,4.892,0,0,0-1.259,1.108,10.186,10.186,0,0,0-.6,1.129,3.567,3.567,0,0,1-1.039-1.979,8.608,8.608,0,0,1,.142-1.672,2.723,2.723,0,0,0-1.161.73,6.8,6.8,0,0,0-.663,1.062,9.641,9.641,0,0,0-.995-2.587,6.5,6.5,0,0,0-1.393-1.428,3.334,3.334,0,0,1,1.889.765A11.282,11.282,0,0,1,242.829,59.529Z" transform="translate(-239.429 -58.394)" fill="#ff85c5"/>
          </g>
        </g>
        <path id="Trazado_172463" data-name="Trazado 172463" d="M248.32,94.852h-2.3l-.1-16.316h2.3Z" transform="translate(-180.87 -37.572)" fill="#352221"/>
        <rect id="Rectángulo_37098" data-name="Rectángulo 37098" width="2.294" height="13.669" transform="translate(65.389 88.733)" fill="#352221"/>
        <g id="Grupo_118651" data-name="Grupo 118651" transform="translate(36.961 42.301)">
          <g id="Grupo_118649" data-name="Grupo 118649" transform="translate(14.456 11.654)">
            <path id="Trazado_172464" data-name="Trazado 172464" d="M239.216,85.593v1.491c0,.789,1.2,1.428,2.68,1.428s2.68-.639,2.68-1.428V85.593Z" transform="translate(-239.216 -84.232)" fill="#493130"/>
            <path id="Trazado_172465" data-name="Trazado 172465" d="M241.9,84.924c-1.481,0-2.68.639-2.68,1.426s1.2,1.426,2.68,1.426,2.68-.639,2.68-1.426S243.377,84.924,241.9,84.924Z" transform="translate(-239.216 -84.924)" fill="#472f2e"/>
          </g>
          <g id="Grupo_118650" data-name="Grupo 118650">
            <path id="Trazado_172466" data-name="Trazado 172466" d="M262.982,83.643,239.815,97.019l-7.707-4.45,23.167-13.375Z" transform="translate(-232.108 -79.194)" fill="#c6afaf"/>
            <path id="Trazado_172467" data-name="Trazado 172467" d="M235.9,94.757v2.988l23.167-13.375V81.381Z" transform="translate(-228.191 -76.932)" fill="#9e8282"/>
            <path id="Trazado_172468" data-name="Trazado 172468" d="M232.108,85.77v2.988l7.707,4.45V90.22Z" transform="translate(-232.108 -72.395)" fill="#b29a9a"/>
          </g>
        </g>
        <g id="Grupo_118652" data-name="Grupo 118652" transform="translate(36.957 24.964)">
          <path id="Trazado_172469" data-name="Trazado 172469" d="M233.489,90.858a11.882,11.882,0,0,1,1.045,1.6,5.206,5.206,0,0,1,.3,1.985s.543-.775.883-1.269a5.58,5.58,0,0,1,.816-.995,8.851,8.851,0,0,0,.834,1.8,15.266,15.266,0,0,0,1.552,1.513s.061-1.153.148-1.592a8.412,8.412,0,0,0-.075-2.164s.712.132,1.245.173a5.127,5.127,0,0,1,1.472.553s-.153-.852-.2-1.548a4.434,4.434,0,0,1,.356-1.643,3.456,3.456,0,0,0,1.013.872,10.894,10.894,0,0,0,1.444.547,15.479,15.479,0,0,0-.075-1.879,8.937,8.937,0,0,1,0-1.729s.946.6,1.352.929a6.293,6.293,0,0,0,.972.616s-.006-1.021,0-1.645c.008-.9.008-1.818.008-1.818s.517.153.972.275a2.058,2.058,0,0,1,1.1.7s-.15-.946-.2-1.6a14.054,14.054,0,0,1,.073-1.859,4.058,4.058,0,0,1,1.22.116c.718.279,1.169.456,1.169.456s.061-.8.148-1.393c.13-.875.342-1.94.342-1.94a10.552,10.552,0,0,1,.9.647,5.894,5.894,0,0,1,1.021,1.194,19.119,19.119,0,0,0,.024-1.94,6.23,6.23,0,0,1,.224-1.716s.594.659,1,1.169c.372.472.8.97.8.97a7.3,7.3,0,0,1-.075-1.468,6.147,6.147,0,0,0-.124-1.741,4.589,4.589,0,0,1,1.22.5,2.734,2.734,0,0,1,.919,1.07,16.424,16.424,0,0,0,.075-2.04c-.049-.746-.148-1.318-.148-1.318a2.414,2.414,0,0,1,.995.3,3.394,3.394,0,0,1,.927.9,16.425,16.425,0,0,1,.919-2.837,15.4,15.4,0,0,1,1.328-1.924,1.781,1.781,0,0,0-1.721.862,7.325,7.325,0,0,0-.84,1.824,8.812,8.812,0,0,0-.73-2.093,7.378,7.378,0,0,0-1.326-1.59l-1.06,2.176L254.192,71a15.885,15.885,0,0,0-.895,2.292,6.391,6.391,0,0,0-1.9-1.035,6.875,6.875,0,0,1,.372,3.055,4.488,4.488,0,0,0-1.891-1.426,19.452,19.452,0,0,1-.2,3.352,1.766,1.766,0,0,0-1.586-.167v2.721a4.341,4.341,0,0,0-2.321-.451c-.073,1.1-.273,3.6-.273,3.6a3.43,3.43,0,0,0-1.954-.574c-.35.783-1.066,3.262-1.066,3.262a2.625,2.625,0,0,0-1.891-.9,5.864,5.864,0,0,1-.63,2.819s-.927-1.226-1.757-1.293a20.491,20.491,0,0,1-.663,3.451s-.533-1.708-1.46-1.971c-.468,1.411-1.182,2.034-1.428,3.5a3.058,3.058,0,0,0-2.542-1.958,7.054,7.054,0,0,1,1.133,3.175Z" transform="translate(-232.104 -70.669)" fill="#ff85c5"/>
          <path id="Trazado_172470" data-name="Trazado 172470" d="M233.851,100.874s1.914,1.137,3.64,2.068c.95.515,2.563,1.485,3.167,1.129,1.243-.73,6.827-3.974,10.22-5.939,3.217-1.863,9.831-5.534,10.291-6.183s-.134-13.791-.073-16.378.305-4.413.305-4.413a15.4,15.4,0,0,0-1.328,1.924,16.43,16.43,0,0,0-.919,2.837,3.394,3.394,0,0,0-.927-.9,2.414,2.414,0,0,0-.995-.3s.1.571.148,1.318a16.424,16.424,0,0,1-.075,2.04,2.735,2.735,0,0,0-.919-1.07,4.59,4.59,0,0,0-1.22-.5,6.147,6.147,0,0,1,.124,1.741,7.3,7.3,0,0,0,.075,1.468s-.423-.5-.8-.97c-.4-.51-1-1.169-1-1.169a6.23,6.23,0,0,0-.224,1.716,19.119,19.119,0,0,1-.024,1.94,5.894,5.894,0,0,0-1.021-1.194,10.552,10.552,0,0,0-.9-.647s-.211,1.066-.342,1.94c-.087.594-.148,1.393-.148,1.393s-.451-.177-1.169-.456a4.058,4.058,0,0,0-1.22-.116,14.054,14.054,0,0,0-.073,1.859c.049.655.2,1.6.2,1.6a2.058,2.058,0,0,0-1.1-.7c-.456-.122-.972-.275-.972-.275s0,.921-.008,1.818c-.006.624,0,1.645,0,1.645a6.293,6.293,0,0,1-.972-.616c-.407-.334-1.352-.929-1.352-.929a8.937,8.937,0,0,0,0,1.729,15.479,15.479,0,0,1,.075,1.879,10.894,10.894,0,0,1-1.444-.547,3.456,3.456,0,0,1-1.013-.872A4.434,4.434,0,0,0,241.5,90.4c.051.7.2,1.548.2,1.548a5.127,5.127,0,0,0-1.472-.553c-.533-.041-1.245-.173-1.245-.173a8.412,8.412,0,0,1,.075,2.164c-.087.439-.148,1.592-.148,1.592a15.266,15.266,0,0,1-1.552-1.513,8.851,8.851,0,0,1-.834-1.8,5.58,5.58,0,0,0-.816.995c-.34.494-.883,1.269-.883,1.269a5.206,5.206,0,0,0-.3-1.985,11.882,11.882,0,0,0-1.045-1.6l-.248,1.6a7.054,7.054,0,0,0-1.133-3.175c-.049,1.285.348,2.646.386,3.817A54.423,54.423,0,0,0,233.851,100.874Z" transform="translate(-232.106 -70.162)" fill="#f445a1"/>
        </g>
        <g id="Grupo_118653" data-name="Grupo 118653" transform="translate(0 60.126)">
          <path id="Trazado_172471" data-name="Trazado 172471" d="M258.477,101.962a7.845,7.845,0,0,1-2.009,2.03c-3.539,2.188-5.086,2.949-9.892,1.393-3.88-1.257-4.989-4-7.724-6.469s-5.934-1.979-8.542-3.907a11.316,11.316,0,0,1-4.509-7.051c-1.11,5.267,1.332,7.395,3.175,10.281-1.129,5.013-6.227,19.786-9.148,26.66s-6.37,16.75-5.839,19.923,3.185,10.628,8.623,17.169,17,4.926,22.379,2.678c5.324-2.221,6.307-6.856,8.627-13.49s5.1-30.449,4.985-37.533C258.5,107.354,259.487,105.011,258.477,101.962Z" transform="translate(-213.934 -87.958)" fill="#593d3d"/>
          <path id="Trazado_172472" data-name="Trazado 172472" d="M224.278,95.009c2.607,1.928,5.808,1.438,8.542,3.907s3.844,5.212,7.724,6.469c4.806,1.556,6.353.8,9.892-1.393a7.845,7.845,0,0,0,2.009-2.03,10.526,10.526,0,0,0-.478-1.19c-1.761-3.714-6.754-.435-6.754-.435s-1.247-4.169-3.264-5.328-5.947,0-5.947,0a7.325,7.325,0,0,0-3.854-6.046c-3.907-2.249-6.738-.134-8.139,1.983-2.272-2.988-4.24-2.988-4.24-2.988A11.316,11.316,0,0,0,224.278,95.009Z" transform="translate(-207.903 -87.958)" fill="#3f2a28"/>
        </g>
        <path id="Trazado_172473" data-name="Trazado 172473" d="M242.969,99.721c-1.182.8-3.27,6.508-4.124,12.674-.557,4.019-7.055,19.591-9.353,24.812s-5.269,12.121-4.253,13.677,5.286.488,8.556-1.151,5.583-5.1,5.9-10.25,3.659-23.52,4.425-28.426C245.151,104.47,246.273,97.5,242.969,99.721Z" transform="translate(-202.461 -16.108)" fill="#472f2e"/>
        <path id="Trazado_172474" data-name="Trazado 172474" d="M226.859,95.6s-2.577,3.047-4.1,4.875a28.446,28.446,0,0,0-2.986,4.879,35.9,35.9,0,0,0,4.24-3.7C225.608,99.911,226.859,95.6,226.859,95.6Z" transform="translate(-207.903 -19.936)" fill="#472f2e"/>
        <path id="Trazado_172475" data-name="Trazado 172475" d="M227.94,97.995a86.546,86.546,0,0,0-3.1,8.2,61.525,61.525,0,0,0-.8,6.933,25.854,25.854,0,0,0,3.221-6.933A39.407,39.407,0,0,0,227.94,97.995Z" transform="translate(-203.49 -17.457)" fill="#472f2e"/>
        <path id="Trazado_172476" data-name="Trazado 172476" d="M232.657,99.174a27.094,27.094,0,0,0-4.194,6.048A61.327,61.327,0,0,0,225.907,112s3.116-2.937,4.189-5.276A74.917,74.917,0,0,0,232.657,99.174Z" transform="translate(-201.557 -16.238)" fill="#472f2e"/>
        <path id="Trazado_172477" data-name="Trazado 172477" d="M251.219,104.113h-1.256l-2.141,7.437,1.958.546,1.965-6.824Z" transform="translate(-178.903 -11.133)" fill="#593d3d"/>
        <path id="Trazado_172478" data-name="Trazado 172478" d="M239.747,99.725s1.688-.159,1.629,2.713-.075,12.89,0,17.767.791,18.871.791,18.871,3.341,1.782,4.9,1.725,1.916-1.237,3.069-3.437,3.409-2.379,4.562-2.52,4.918.348,5.436-1.91.331-3.262,2.015-3.506,4.267-.51,4.226-2.424.368-23.951,0-29.392-1.5-8.944-3.848-10.618-5.54-.639-7.7.954-5.951,3.927-8.493,5.55c-4.159,2.654-7.22,3.026-8.464,4.013s0,3.346,0,3.346Z" transform="translate(-189.771 -29.713)" fill="#fed517"/>
        <path id="Trazado_172479" data-name="Trazado 172479" d="M241.364,93.783s.47,6.715.771,9.748,1.489,17.763,2.156,20.683.828,4.246.828,4.246a21.477,21.477,0,0,0,.632-8.812c-.285-2.841-.578-8.794-1.46-14.9A52.814,52.814,0,0,0,241.364,93.783Z" transform="translate(-185.579 -21.811)" fill="#ffb600"/>
        <path id="Trazado_172480" data-name="Trazado 172480" d="M247.822,89.952a130.909,130.909,0,0,0,1.44,14.922c1.119,6.221,1.312,17.964,1.312,17.964a52.731,52.731,0,0,0,1.082-10.681,137.789,137.789,0,0,0-1.875-14.413A62.324,62.324,0,0,0,247.822,89.952Z" transform="translate(-178.903 -25.771)" fill="#ffb600"/>
      </g>
      <g id="Grupo_118658" data-name="Grupo 118658" transform="translate(250.019 157.346)">
        <path id="Trazado_172481" data-name="Trazado 172481" d="M219.539,152.246l-2.386-1.379-.944-3.569,2-1.153Z" transform="translate(-164.663 -66.634)" fill="#efa500"/>
        <path id="Trazado_172482" data-name="Trazado 172482" d="M213.6,120.483l23.269-13.434L232.359,172.5l-10.782,6.225-1.187-5.433-7.274,4.2-3.009,1.737-7.274,4.2-1.187,6.8-10.782,6.225Z" transform="translate(-190.863 -107.049)" fill="#fed517"/>
        <path id="Trazado_172483" data-name="Trazado 172483" d="M214.412,120.938,237.681,107.5l-4.508,65.448-10.782,6.225-1.187-5.433-7.274,4.2-3.009,1.738-7.275,4.2-1.187,6.8-10.791,6.244Z" transform="translate(-190.031 -106.578)" fill="#efa500"/>
        <path id="Trazado_172484" data-name="Trazado 172484" d="M204.844,121.5l23.269-13.434,16.128,77.327-10.782,6.225-1.187-5.432-7.275,4.2-3.009,1.737-7.274,4.2-1.187,6.8-10.782,6.225Z" transform="translate(-178.58 -105.997)" fill="#fed517"/>
        <g id="Grupo_118655" data-name="Grupo 118655" transform="translate(0 13.434)">
          <path id="Trazado_172485" data-name="Trazado 172485" d="M217.127,115.725l-3.529-2.071-22.735,75.972,1.636.944,22.714-75.9v.018l-2.1,87.781,1.913,1.1Z" transform="translate(-190.863 -113.655)" fill="#ffce00"/>
        </g>
        <path id="Trazado_172486" data-name="Trazado 172486" d="M225.311,107.049l3.529,2.071-23.269,13.434-3.529-2.071Z" transform="translate(-179.307 -107.049)" fill="#fde01a"/>
        <path id="Trazado_172487" data-name="Trazado 172487" d="M220.689,111.4l-1.769,1.021c.087,2.835-.472,7.9-4.966,11.131a28.144,28.144,0,0,1-2.573,1.487,5.785,5.785,0,0,1-4.009.4,5.345,5.345,0,0,0,5.985.687,28.339,28.339,0,0,0,2.573-1.487C222.454,119.948,220.689,111.4,220.689,111.4Z" transform="translate(-173.797 -102.549)" fill="#ffb600"/>
        <g id="Grupo_118656" data-name="Grupo 118656" transform="translate(30.628 9.874)">
          <path id="Trazado_172488" data-name="Trazado 172488" d="M219.151,111.9l-1.127.651a15.407,15.407,0,0,1-6.73,10.026c-.411.27-2.443,1.336-2.833,1.485a8.823,8.823,0,0,1-1.314.411c.148.148.291.3.456.441a5.786,5.786,0,0,0,4.009-.4,27.844,27.844,0,0,0,2.571-1.487C218.679,119.8,219.239,114.739,219.151,111.9Z" transform="translate(-204.657 -111.904)" fill="#efa500"/>
          <path id="Trazado_172489" data-name="Trazado 172489" d="M211.938,122.25a15.407,15.407,0,0,0,6.73-10.026l-2.436,1.407a14.832,14.832,0,0,1-5.831,7.079c-.411.27-2.443,1.336-2.833,1.485a8.772,8.772,0,0,1-1.041.346,9.143,9.143,0,0,0,1.265,1.6,8.823,8.823,0,0,0,1.314-.411C209.5,123.586,211.527,122.521,211.938,122.25Z" transform="translate(-205.3 -111.573)" fill="#ffb600"/>
          <path id="Trazado_172490" data-name="Trazado 172490" d="M207.149,121.826a8.772,8.772,0,0,0,1.041-.346c.39-.148,2.422-1.214,2.833-1.485a14.832,14.832,0,0,0,5.831-7.079l-10.931,6.311A12.383,12.383,0,0,0,207.149,121.826Z" transform="translate(-205.923 -110.858)" fill="url(#linear-gradient)"/>
        </g>
        <g id="Grupo_118657" data-name="Grupo 118657" transform="translate(29.312 29.444)">
          <path id="Trazado_172491" data-name="Trazado 172491" d="M206.793,127.623l1.206-.7.608,3.472c.118.783.254,1.568.374,2.363l.033-.016c.047-.895.1-1.786.142-2.664l.311-4,1-.576.807,3.356c.157.736.317,1.519.478,2.3l.033-.018c.016-.887.031-1.759.049-2.609l.112-3.886,1.125-.649-.4,8.4-1.477.852-.75-3.274c-.13-.553-.236-1.155-.332-1.7l-.033.018c-.024.618-.045,1.293-.092,1.946l-.246,3.852-1.454.838Z" transform="translate(-203.708 -118.97)"/>
          <path id="Trazado_172492" data-name="Trazado 172492" d="M210.231,124.754l3.256-1.881.1,1.495-2.085,1.2.108,1.58,1.771-1.023.1,1.481-1.773,1.023.122,1.81L214,129.194l.1,1.495-3.337,1.928Z" transform="translate(-200.154 -120.136)"/>
          <path id="Trazado_172493" data-name="Trazado 172493" d="M213.706,124.531l-1.428.824-.1-1.495,4.039-2.333.1,1.495-1.43.826.431,6.368-1.182.681Z" transform="translate(-198.142 -121.527)"/>
          <path id="Trazado_172494" data-name="Trazado 172494" d="M205.276,132.778l3.282-1.9.1,1.493-2.107,1.218.122,1.82,1.8-1.041.1,1.495-1.8,1.041.205,3.053-1.173.677Z" transform="translate(-205.276 -111.855)"/>
          <path id="Trazado_172495" data-name="Trazado 172495" d="M207.332,130.971l1.176-.677.429,6.366,2.058-1.188.1,1.495-3.234,1.867Z" transform="translate(-203.151 -112.464)"/>
          <path id="Trazado_172496" data-name="Trazado 172496" d="M209.243,134.411c-.175-2.569.683-4.592,2.089-5.4s2.465.118,2.638,2.674-.681,4.665-2.087,5.477S209.416,136.98,209.243,134.411Zm3.52-2.032c-.106-1.57-.616-2.251-1.328-1.841s-1.094,1.607-.988,3.177.622,2.32,1.332,1.912S212.87,133.958,212.764,132.379Z" transform="translate(-201.198 -114.088)"/>
          <path id="Trazado_172497" data-name="Trazado 172497" d="M211.927,132.861c-.173-2.569.685-4.592,2.091-5.4s2.465.118,2.636,2.674-.679,4.663-2.085,5.475S212.1,135.43,211.927,132.861Zm3.52-2.032c-.106-1.568-.616-2.251-1.326-1.841s-1.094,1.609-.988,3.177.62,2.323,1.332,1.912S215.555,132.407,215.448,130.829Z" transform="translate(-198.423 -115.69)"/>
          <path id="Trazado_172498" data-name="Trazado 172498" d="M214.593,127.173l1.875-1.084c1.1-.637,2.044-.58,2.17,1.289a4.059,4.059,0,0,1-.773,2.8l1.4,2.465-1.318.761-1.19-2.257-.647.372.191,2.835-1.173.677Zm2.026,2.587a1.723,1.723,0,0,0,.87-1.719c-.051-.771-.407-.844-1.021-.488l-.606.35.148,2.209Z" transform="translate(-195.645 -117.189)"/>
        </g>
        <path id="Trazado_172499" data-name="Trazado 172499" d="M221.657,151.814a2.84,2.84,0,0,0-1.456.6,37.76,37.76,0,0,0-.919-4.6c-.775-1.289-2.371-1.379-3.445-1.566a5.509,5.509,0,0,0-.46-2.487,3.943,3.943,0,0,1-.189-1.759,12.448,12.448,0,0,1,1-2.274,8.029,8.029,0,0,0-.118-6.05c-.065-.132-.224.008-.234.187-.106,1.82.612,2.628-.175,5.3a13.581,13.581,0,0,0-1.373,2.15c-.189.362-.36.919-.506,1.206a2.906,2.906,0,0,1-.256-.515c.057-.2.23-.35.234-.592a1.9,1.9,0,0,0-.919-1.568,1.108,1.108,0,0,0,.049-.769,1.713,1.713,0,0,1-.584.7,1.85,1.85,0,0,0-.679.8,1.205,1.205,0,0,0,.085,1.338,1.05,1.05,0,0,0,.144,1.076c.272.364.866-.226.9-.222a4.084,4.084,0,0,1,.214.95c-.1.2-.325.482-.553.834a8.96,8.96,0,0,0-.923,2.174c-.36,1.119-.574,2.66-.84,3.868a20.314,20.314,0,0,0-.541,2.038c-.132,1.216.1,1.519.342,1.127a12.8,12.8,0,0,0,.549-2.821c.248-.818.513-1.6.84-2.556a7.047,7.047,0,0,1,1.163-2.292c.242.559.307,2.15.962,2.359a4.86,4.86,0,0,0,.209,1.983,29.544,29.544,0,0,1,1.157,2.908,31.09,31.09,0,0,1-.752,4.789,1.149,1.149,0,0,0-.171,1.446c.533.854,1.019,1.051,1.818.486a.4.4,0,0,0,.1-.462,3.51,3.51,0,0,0-1.131-1.072,32.378,32.378,0,0,0,1.588-5.263,13.559,13.559,0,0,0-.722-4.472,2.881,2.881,0,0,0,2.329.655,34.559,34.559,0,0,0,1.121,3.834c-.083.659.1,1.058.354.952a4.443,4.443,0,0,0,1.834-1.816C221.846,152.136,221.793,151.788,221.657,151.814Z" transform="translate(-171.003 -79.582)"/>
        <path id="Trazado_172500" data-name="Trazado 172500" d="M209.008,154.339l16.013-9.234L224.866,144l-16.013,9.234Z" transform="translate(-172.266 -68.855)"/>
      </g>
      <g id="Grupo_118661" data-name="Grupo 118661" transform="translate(159.383 59.838)">
        <g id="Grupo_118659" data-name="Grupo 118659" transform="translate(0 48.287)">
          <path id="Trazado_172501" data-name="Trazado 172501" d="M211.505,160.85c.222-.12.138-.61.586-1.1-.124-.309-1.072-.366-1.869-.307a5.7,5.7,0,0,0-1.875-3.069,2.705,2.705,0,0,0-1.566.9,2.86,2.86,0,0,0-.793-1.763,3.39,3.39,0,0,0-3.561-.315,4.774,4.774,0,0,0-.663-1.721c-.75.09-1.3-.26-1.847.187-.018-.242-.669-.99-.067-1.436-.854-.329-2.528-.273-2.973.2a4.294,4.294,0,0,0-.661-.99c-.683-.777-1.613-1.745-2.723-1.544a3.669,3.669,0,0,0-.958-1.759,2.375,2.375,0,0,0-2.536-.409,2.9,2.9,0,0,0-1.975-.948,5.807,5.807,0,0,1-.281-1.592c-.893.02-1.428-.094-1.944.3,0-.336.081-1.31-.384-1.66-.484.563-1.306.386-1.877.748a2.316,2.316,0,0,0-2.375-1.556c.126-.27-.055-1,.334-1.424a4.474,4.474,0,0,0-3.356-.155,2.2,2.2,0,0,0-2.99-2.034,3.8,3.8,0,0,0-.252-1.476c-.421-.645-1.326-.067-1.954.366a3.135,3.135,0,0,1,.559-1.525,3.137,3.137,0,0,0-2.794.144c-.287-.921-1.379-1.851-2.235-1.546a3.187,3.187,0,0,0-1.206-1.9c-.234.482-.671.539-1.265.822a2.54,2.54,0,0,0-2.359-1.35,4.928,4.928,0,0,1,.5-1.306,4.078,4.078,0,0,0-2.922.159,1.758,1.758,0,0,0-.277.15,3.749,3.749,0,0,0-.266-.354,2.648,2.648,0,0,0-1.517-.907,3.069,3.069,0,0,0-.567,1.448,2.059,2.059,0,0,0-.435-.106c-.891-.1-2.237.358-3.13.315.059.523.657.7.779.742a1.419,1.419,0,0,0-.984.931,12.728,12.728,0,0,1-2.739-.022c-.2.443.368.854.576,1.019a7.692,7.692,0,0,0-3.8.936c0,.411.984.421,1.188.468a5.152,5.152,0,0,0-1.257.872,1.55,1.55,0,0,0-.25.944c-.724.094-1.676.513-2.243.537-.033.637,1.135.944,1.729,1.058A11.156,11.156,0,0,0,147,142.06a25.693,25.693,0,0,1,2.746-.675,1.669,1.669,0,0,0,.653,1.369,2.345,2.345,0,0,0,1.434.488c-.354.279-1.074.828-1.554,1.2a5.583,5.583,0,0,0,2.17.63,2.507,2.507,0,0,0-.7.98,6.724,6.724,0,0,0,3.016-.116,5.859,5.859,0,0,0-.34,1.5c1.011-.2,2-.722,2.835-.911a1.279,1.279,0,0,0-.006.458,1.872,1.872,0,0,0,1.123,1.273,3.751,3.751,0,0,0,2.4.191c-.106.134-.006.98-.632,1.592a4.163,4.163,0,0,0,3.207-.029,23.423,23.423,0,0,0,.175,2.772,3.8,3.8,0,0,0,1.765-1.568,3.306,3.306,0,0,0,2.668,2.288c-.445.527-.716.95-.458,1.472a8.46,8.46,0,0,0,3.52-.8,2.155,2.155,0,0,0,2.184,1.422,4.131,4.131,0,0,0,.116,2.29,24.094,24.094,0,0,1,2.349-.866c.153-.065.307-.134.458-.209a2.527,2.527,0,0,0,1.629,1.572,3.4,3.4,0,0,0,1.4.224,3.21,3.21,0,0,0-1.324,1.586,16.514,16.514,0,0,0,3.661.268,3.316,3.316,0,0,0,.738-.134,2.428,2.428,0,0,0,.777,2.925,4.369,4.369,0,0,1,1.708-1.582,3.188,3.188,0,0,0,.059,1.293,2.717,2.717,0,0,0,1.133,1.83c.584-.559,1.444-.992,1.647-1.253.028.287.7,1.466,1.049,2.32.834.1,1.365-.592,1.773-1.151.057.555.614,1.442.84,2.28.5.193,1.143-.148,1.672-.578a2.817,2.817,0,0,0,1.32,1.8,3.092,3.092,0,0,0,2.327.014,3.489,3.489,0,0,0,1.308,2.178c.753-.99,2-.8,2.4-1.365a6.944,6.944,0,0,0,1.151,1.365,3.491,3.491,0,0,0,2.072-2.76,7.921,7.921,0,0,0,2.874.449,5.543,5.543,0,0,0,2.026-.94c-.706-.535-.576-1.409-.706-1.641a3,3,0,0,0,3.026-.813,2.631,2.631,0,0,0,.447-1.472c1.228.2,2.914-.258,3.4-1.011A8.065,8.065,0,0,0,211.505,160.85Z" transform="translate(-146.297 -33.397)" fill="#593d3d"/>
          <path id="Trazado_172502" data-name="Trazado 172502" d="M148.331,139.678,196.2,167.314a5.58,5.58,0,0,0,5-.207l7.822-4.517c1.472-.85,1.633-2.15.358-2.886l-47.868-27.637a5.58,5.58,0,0,0-5,.207l-7.822,4.515C147.216,137.642,147.054,138.939,148.331,139.678Z" transform="translate(-145.084 -32.479)" fill="#8da3ff"/>
          <path id="Trazado_172503" data-name="Trazado 172503" d="M149.574,138.172l45.574,26.449a4.529,4.529,0,0,0,4.057-.167l6.349-3.667c1.2-.691,1.328-1.745.291-2.343l-45.572-26.451a4.53,4.53,0,0,0-4.057.169l-6.351,3.667C148.669,136.519,148.539,137.574,149.574,138.172Z" transform="translate(-143.631 -32.458)" fill="#a9beff"/>
          <path id="Trazado_172504" data-name="Trazado 172504" d="M165.458,138.08c-2.941,0-5.324,1.269-5.324,2.833s2.384,2.833,5.324,2.833,5.326-1.269,5.326-2.833S168.4,138.08,165.458,138.08Z" transform="translate(-131.992 -25.75)" fill="#778dfd"/>
          <path id="Trazado_172505" data-name="Trazado 172505" d="M213.463,83.764l-2.152-.917-49.052,114.8.024,0a.413.413,0,0,0-.053.138c0,.372.567.675,1.267.675.63,0,1.131-.25,1.228-.571l.02,0Z" transform="translate(-129.825 -82.847)" fill="#fff"/>
          <path id="Trazado_172506" data-name="Trazado 172506" d="M192.326,84.579h-7.417s-2.453,3.994-2.811,6.774,2.369,4.541,2.369,4.541l1.808-4.232s.128.022.309.045a3.272,3.272,0,0,0,.1,1.721c.464.911,1.674,1.153,2.113-.275a16.829,16.829,0,0,1,.639-1.731,4.429,4.429,0,0,0,1.34-.724C192.666,89.185,192.326,84.579,192.326,84.579Z" transform="translate(-109.32 -81.057)" fill="#ffc9b6"/>
        </g>
        <g id="Grupo_118660" data-name="Grupo 118660" transform="translate(65.055)">
          <path id="Trazado_172507" data-name="Trazado 172507" d="M186.512,72.093s-3.118,0-4.383,6.913c-.923,5.042,5.31,8.778,5.31,8.778l6.048-11.914Z" transform="translate(-174.406 -45.677)" fill="#ff61ad"/>
          <path id="Trazado_172508" data-name="Trazado 172508" d="M183.584,105.088a20.768,20.768,0,0,0,2.7,12.644,124.681,124.681,0,0,0,10.136,13.537c3.175,3.746,5.111,8.009,5.015,9.144-.12,1.415-5.29,5.41-5.29,5.41l2.028,3.018,10.659-7.5a46.714,46.714,0,0,1-4.063-9.044c-1.047-4.035-2.156-9.591-4.407-14.017-4.336-8.519-6.262-13.193-6.262-13.193Z" transform="translate(-172.93 -11.568)" fill="#ffb9a4"/>
          <path id="Trazado_172509" data-name="Trazado 172509" d="M203.808,122.056a23.853,23.853,0,0,1-2.605,3.455c-1.891,1.658-3.435,2.77-5.6,2.77a4.206,4.206,0,0,1-2.583-.757s-7.321,4.678-5.251,6.4c1.619,1.35,3.3,1.757,6.837.722a18.691,18.691,0,0,0,6.734-4.637c1.511-.482,4.025-1.788,4.706-3.195C206.411,126.062,205.315,123.482,203.808,122.056Z" transform="translate(-168.861 5.972)" fill="#fff"/>
          <path id="Trazado_172510" data-name="Trazado 172510" d="M204.379,98.459c-2.668-2.548-7.116.085-9.162,2.607-3.6,4.432-2.89,11.708-3.185,17.033-.376,6.785-.671,13.579-1.173,20.356a181.519,181.519,0,0,1-2.491,20.309c-1.2,5.941-3.376,7.547-4.745,9.609-1,1.509,5.88,4.586,6.945,3.372.972-1.108,4.482-4.535,4.562-8.078.114-5.123,2.4-10.295,5.19-18.871.547-1.676,1.853-3.268,1.391-11a26.433,26.433,0,0,1,.419-7.21c.431-1.352,1.958-2.916,2.6-4.257a27.088,27.088,0,0,0,1.6-4.212C208.1,112,209.136,103.006,204.379,98.459Z" transform="translate(-172.869 -19.495)" fill="#ffc9b6"/>
          <path id="Trazado_172511" data-name="Trazado 172511" d="M188.313,75.594c3.5-4.44,5.221-4.783,9.463-2.357,5.194,2.975,9.914,4.244,12.19,6.134,3.856,3.207,5.566,10.421,6.221,18.733.1,1.261.592,4.905-1.139,7.468,1.064,3.6,2.674,5.074,1.375,8.849-6.012,3.529-18.692,5.052-23.337-3.494-.289-.529.462-2.375.83-2.853a3.765,3.765,0,0,1-1.658-3.138A6.625,6.625,0,0,1,188.547,100c-3.569-.805-7.415-2.811-6.254-7.116.565-2.1,3.419-6.976,3.925-9.435C187.136,79,187.313,76.861,188.313,75.594Z" transform="translate(-174.359 -46.042)" fill="#ff85c5"/>
          <path id="Trazado_172512" data-name="Trazado 172512" d="M187.065,79.1c.978-.161,2.284-3.486,2.7-5.42.285-1.312,5.751-4.891,5.747-4.7-.063,4.293.61,9.2,2.579,11.428-2.837,2.963-5.526,9.022-10.38,7.993C185.051,87.83,185.135,84.566,187.065,79.1Z" transform="translate(-170.66 -48.906)" fill="#ffb9a4"/>
          <path id="Trazado_172513" data-name="Trazado 172513" d="M188.76,88.407s4.818-1.562,7.421-1.251a20.421,20.421,0,0,1,4.842,1.251s-3.675.521-6.132.624A32.867,32.867,0,0,1,188.76,88.407Z" transform="translate(-167.456 -30.148)" fill="#71abff"/>
          <path id="Trazado_172514" data-name="Trazado 172514" d="M189.8,91.008c.311,0,5.725-.157,8.639-.364s4.059-.35,4.059-.35A10.414,10.414,0,0,1,196.72,92.1,27.152,27.152,0,0,1,189.8,91.008Z" transform="translate(-166.382 -26.861)" fill="#71abff"/>
          <path id="Trazado_172515" data-name="Trazado 172515" d="M189.657,102.1c-.563,1.926.844,3.846,1.8,5.371-.734,3.732-2.347,11.48-3.872,18.741-1.68,8-3.634,16.835-3.777,25.359,3.738,5.243,7.732,7.468,14.387,7.95,11.572.838,18-4.515,18-4.515s.757-16.351.757-27.62c5.428-11.064-.334-19.687-.334-19.687s-7.435-.549-12.034-3.673c-2.682-1.822-6.823-9.424-5.814-12.507,1.8-5.5,8.249-15.007,8.249-15.007l-2.434-1.078s-7.563,12.416-9.622,15.094c-.661.86-3.577-.1-5.231-.909-3.3-1.619-3.321-1.316-3.014-3.278.494-3.15,5.107-11.739,5.107-11.739l-3.252-1.979s-3.636,11.7-5.55,15.717c-1.529,3.209-1.954,5.365-.482,7.712A18.586,18.586,0,0,0,189.657,102.1Z" transform="translate(-174.821 -45.131)" fill="#bbcdff"/>
          <path id="Trazado_172516" data-name="Trazado 172516" d="M187.168,72.86s-.872,4.533-1.442,6.181-1.759,5.4-1.759,5.4,1.609-.848,2.5-.4,1.592,1.623,2.353,1.812a4.823,4.823,0,0,0,1.751,0l.533-2.091s-1.586-.443-1.649-3.1.252-6.274.252-6.274Z" transform="translate(-172.41 -44.884)" fill="#ff61ad"/>
          <path id="Trazado_172517" data-name="Trazado 172517" d="M185.118,65.945c3.817-.858,5.814-1.015,9.2.358a18.856,18.856,0,0,1,5.422,2.493.469.469,0,0,1,.21.431c-.872,5.029-2.558,10.362-8.2,12.595-4.641,1.834-7.246-3.258-8.054-6.673C182.756,71.172,182.472,66.539,185.118,65.945Z" transform="translate(-173.382 -52.713)" fill="#ffc9b6"/>
          <path id="Trazado_172518" data-name="Trazado 172518" d="M204.491,68.421c-1.375-5.062-4.513-7.612-6.711-5.355-.441-2.414-2.8-3.962-4.157-2.154-1.094-2.617-3.9-1.952-5.426-.755-2.9,2.276-9.095,10.858-4.566,14.122.279,4.3,5.408,4.617,8.377,2.522,1.615,1.483,4.7,1.436,5.635-.055.553,2.7,1.381,5.255,1.932,7.539C201.487,83.088,206.5,75.838,204.491,68.421Z" transform="translate(-174.417 -59.104)" fill="#2c1d1b"/>
          <path id="Trazado_172519" data-name="Trazado 172519" d="M189.081,70.132s.913-3.089,2.925-1.5-.836,4.714-.836,4.714Z" transform="translate(-167.124 -49.725)" fill="#ffc9b6"/>
          <path id="Trazado_172520" data-name="Trazado 172520" d="M195.191,72.236c-.035.077-1.47,2.571-2.748,4.905a23.993,23.993,0,0,1-4.425,6.185,4.9,4.9,0,0,0-1.357,4.751s.781-1.877,1.8-1.584a10.242,10.242,0,0,1,3.268,2.259c.887-1.43,2.18-3.079,3.644-5.564,1.424-2.416,3.431-5.141,2.6-8.052S195.191,72.236,195.191,72.236Z" transform="translate(-169.775 -45.529)" fill="#ff61ad"/>
          <path id="Trazado_172521" data-name="Trazado 172521" d="M181.725,141.088c-1.635,2.583-1.92,4.425.23,5.585,3.258,1.755,5.109.366,8.8-2.605,2.479-1.991,2.849-3.919,4.995-6.215,1.322-.165,2.369-1.731,2.585-3.411a23.017,23.017,0,0,0,0-4.448s-1.1,1.987-2.032,3.9c-1.072,2.2-3.158,3.274-4.373,3.026a24.763,24.763,0,0,1-5.1-2.217A77.614,77.614,0,0,0,181.725,141.088Z" transform="translate(-176.076 14.178)" fill="#fff"/>
          <path id="Trazado_172522" data-name="Trazado 172522" d="M187.363,90.143s.952,2.056,4.688,4.318,10.15-.008,10.15-.008a43.156,43.156,0,0,1-8.784-1.59C191.339,92.1,187.363,90.143,187.363,90.143Z" transform="translate(-168.9 -27.018)" fill="#a6c2ff"/>
          <path id="Trazado_172523" data-name="Trazado 172523" d="M186.351,87.588c.236.033,2.678,2.508,5.255,2.713a9.673,9.673,0,0,0,5.253-1.6,35.359,35.359,0,0,1-5.253-.144C189.52,88.257,186.351,87.588,186.351,87.588Z" transform="translate(-169.946 -29.659)" fill="#a6c2ff"/>
          <path id="Trazado_172524" data-name="Trazado 172524" d="M194.7,99.62a37.515,37.515,0,0,0-4.946,8.029c-1.515,3.813-2.886,15.77-2.886,15.77s2.711-9.241,4.194-14.224A77.821,77.821,0,0,1,194.7,99.62Z" transform="translate(-169.406 -17.221)" fill="#a6c2ff"/>
          <path id="Trazado_172525" data-name="Trazado 172525" d="M202.794,83.941s-2.78,5.357-5.908,10.923a135.48,135.48,0,0,0-15.031,9.833l1.958,3.057a44.768,44.768,0,0,0,13.254-4.1c3.547-1.845,4.9-1.019,6.583-3.791,3.616-5.947,8.017-13.063,8.017-13.063S206.935,83.307,202.794,83.941Z" transform="translate(-174.594 -33.508)" fill="#ffc9b6"/>
          <path id="Trazado_172526" data-name="Trazado 172526" d="M200.425,75.492c-4.023.513-6.044,4.985-7.606,10.307a36.713,36.713,0,0,0-1.507,9.744,53.647,53.647,0,0,1,7.928,4.072c4.635-4.173,7.889-10.177,8.355-15S203.62,76.556,200.425,75.492Z" transform="translate(-164.818 -42.163)" fill="#ff61ad"/>
          <path id="Trazado_172527" data-name="Trazado 172527" d="M191.686,84.579a13.854,13.854,0,0,1,5.084,1.6,15.21,15.21,0,0,1,3.97,2.935L198.8,91.453a20.512,20.512,0,0,0-3.872-2.866,16.956,16.956,0,0,0-3.917-1.106Z" transform="translate(-165.133 -32.769)" fill="#ffbbe2"/>
          <path id="Trazado_172528" data-name="Trazado 172528" d="M190.907,94.532l-4.236-.834s-3.185,1.418-4.834,2.243-2.68,3.71-3.3,6.286.1,3.195,0,4.535,1.34,1.442,1.753,0,1.237-4.021,1.237-4.021,1.649-.681,4.019-1.474,5.772-4.462,5.772-4.462Z" transform="translate(-178.285 -23.343)" fill="#ffc9b6"/>
        </g>
      </g>
      <path id="Trazado_172529" data-name="Trazado 172529" d="M262.5,152.878c-3.417-4.063-8.385-5.692-13.347-3.537-3.616,1.574-5.808,4.757-8.767,7.321-5.953,5.158-13.107,7.118-20.929,9.632-2.774.891-12.756,2.613-12.245,7.142.549,4.885,9.465,5.855,12.971,6.213,8.255.844,17.207,2.508,25.011-1.019,4.2-1.9,8.233-4.216,12.3-6.364,2.518-1.326,5.339-2.534,7.063-4.9C267.778,162.943,265.722,156.7,262.5,152.878Z" transform="translate(76.041 93.029)" fill="#fff"/>
      <path id="Trazado_172530" data-name="Trazado 172530" d="M178.341,151.69c-5.823-1.4-11.348-3.655-17.332-3.207-4.909.37-12.412,1.637-16.048,5.381-2.695,2.774-1.66,6.081,1.308,8.176,2.386,1.684,5.528,2.054,8.336,2.445,4.853.671,8.912,1.112,13.122,3.933,5.04,3.378,9.14,5.32,15.267,3.742,4.572-1.178,9.99-3.72,11.751-8.438C198.137,154.63,186.866,153.74,178.341,151.69Z" transform="translate(10.094 93.068)" fill="#fff"/>
      <path id="Trazado_172531" data-name="Trazado 172531" d="M164.293,142.752c-2.17-2.558-6.221-2.245-9.184-2.133a69.136,69.136,0,0,0-13.138,1.676c-4.747.171-9.917,1.391-7.875,5.467,1.263,2.524,6.054,2.548,8.257,2.943,4.991.891,8.721,2.882,13.909,2.152C160.551,152.252,169.07,148.392,164.293,142.752Z" transform="translate(0 84.922)" fill="#fff"/>
    </g>
  </g>
</svg>
