<svg xmlns="http://www.w3.org/2000/svg" xmlns:xlink="http://www.w3.org/1999/xlink" width="160.34" height="130.271" viewBox="0 0 160.34 130.271">
  <defs>
    <linearGradient id="linear-gradient" x1="0.511" y1="0.45" x2="0.48" y2="0.538" gradientUnits="objectBoundingBox">
      <stop offset="0" stop-color="#d2d2d2"/>
      <stop offset="1" stop-color="#b8b8b8"/>
    </linearGradient>
    <linearGradient id="linear-gradient-2" y1="0.5" x2="1" y2="0.5" gradientUnits="objectBoundingBox">
      <stop offset="0" stop-color="#b7b7b7"/>
      <stop offset="1" stop-color="#bababa"/>
    </linearGradient>
    <linearGradient id="linear-gradient-3" x1="0.489" y1="0.45" x2="0.52" y2="0.538" xlink:href="#linear-gradient"/>
    <linearGradient id="linear-gradient-5" x1="0.511" y1="0.45" x2="0.48" y2="0.538" gradientUnits="objectBoundingBox">
      <stop offset="0" stop-color="#ababab"/>
      <stop offset="1" stop-color="#a0a0a0"/>
    </linearGradient>
    <linearGradient id="linear-gradient-6" y1="0.5" x2="1" y2="0.5" gradientUnits="objectBoundingBox">
      <stop offset="0" stop-color="#949494"/>
      <stop offset="1" stop-color="#a6a6a6"/>
    </linearGradient>
    <linearGradient id="linear-gradient-7" y1="0.5" x2="1" y2="0.5" gradientUnits="objectBoundingBox">
      <stop offset="0" stop-color="#a0a0a0"/>
      <stop offset="1" stop-color="#bababa"/>
    </linearGradient>
    <linearGradient id="linear-gradient-8" y1="0.5" x2="1" y2="0.5" gradientUnits="objectBoundingBox">
      <stop offset="0" stop-color="#b5b5b5"/>
      <stop offset="1" stop-color="#cacaca"/>
    </linearGradient>
    <linearGradient id="linear-gradient-9" y1="0.5" x2="1" y2="0.5" gradientUnits="objectBoundingBox">
      <stop offset="0" stop-color="#cecece"/>
      <stop offset="1" stop-color="#dcdcdc"/>
    </linearGradient>
    <linearGradient id="linear-gradient-10" y1="0.5" x2="1" y2="0.5" gradientUnits="objectBoundingBox">
      <stop offset="0" stop-color="#e4e4e4"/>
      <stop offset="0.64" stop-color="#d1d1d1"/>
      <stop offset="0.645" stop-color="#dcdcdc"/>
    </linearGradient>
    <linearGradient id="linear-gradient-13" y1="0.5" x2="1" y2="0.5" gradientUnits="objectBoundingBox">
      <stop offset="0" stop-color="#cacaca"/>
      <stop offset="1" stop-color="#b5b5b5"/>
    </linearGradient>
    <linearGradient id="linear-gradient-16" y1="0.5" x2="1" y2="0.5" gradientUnits="objectBoundingBox">
      <stop offset="0" stop-color="#b8b8b8"/>
      <stop offset="1" stop-color="#cacaca"/>
    </linearGradient>
    <linearGradient id="linear-gradient-17" x1="-1.031" y1="0.5" x2="0.956" y2="0.5" gradientUnits="objectBoundingBox">
      <stop offset="0"/>
      <stop offset="1" stop-color="#6e889b"/>
    </linearGradient>
    <linearGradient id="linear-gradient-18" x1="0" y1="0.5" x2="1" y2="0.5" xlink:href="#linear-gradient-7"/>
    <linearGradient id="linear-gradient-19" x1="53.339" y1="0.307" x2="52.289" y2="0.86" gradientUnits="objectBoundingBox">
      <stop offset="0.01" stop-color="#daa191"/>
      <stop offset="0.99" stop-color="#de807a"/>
    </linearGradient>
    <linearGradient id="linear-gradient-20" x1="122.064" y1="0.5" x2="123.063" y2="0.5" xlink:href="#linear-gradient-19"/>
    <linearGradient id="linear-gradient-21" x1="46.29" y1="-0.016" x2="45.539" y2="1.029" xlink:href="#linear-gradient-19"/>
    <linearGradient id="linear-gradient-22" x1="131.742" y1="0.5" x2="132.742" y2="0.5" xlink:href="#linear-gradient-19"/>
    <linearGradient id="linear-gradient-23" x1="50.692" y1="-0.265" x2="49.789" y2="0.983" xlink:href="#linear-gradient-19"/>
    <linearGradient id="linear-gradient-24" x1="30.51" y1="0.202" x2="29.004" y2="1.119" xlink:href="#linear-gradient-19"/>
    <linearGradient id="linear-gradient-25" x1="20.069" y1="7.117" x2="18.836" y2="8.069" xlink:href="#linear-gradient-19"/>
  </defs>
  <g id="Grupo_119344" data-name="Grupo 119344" transform="translate(6127.007 -5742)">
    <circle id="Elipse_4727" data-name="Elipse 4727" cx="49.227" cy="49.227" r="49.227" transform="translate(-6065.121 5773.816)" fill="#fff505"/>
    <g id="Grupo_81727" data-name="Grupo 81727" transform="translate(-6136.199 5407.47)">
      <g id="_9" data-name="9" transform="translate(9.192 334.53)">
        <path id="Trazado_157732" data-name="Trazado 157732" d="M80.246,406.96V393.81H52.866c-18.448,0-62.885,33.945-34.375,33.945l60.25.017v-3.654h-22a58.844,58.844,0,0,0,10.594-5.628l11.455-7.874h29.462V406.96Z" transform="translate(-9.192 -318.277)" fill="#0d3482" opacity="0.4" style="mix-blend-mode: multiply;isolation: isolate"/>
        <path id="Trazado_157733" data-name="Trazado 157733" d="M65.089,382.151a.421.421,0,0,1,.431-.041L91.97,397.382l-.861,1.474L64.657,383.586a.431.431,0,0,1-.172-.389A1.333,1.333,0,0,1,65.089,382.151Z" transform="translate(5.969 -321.496)" fill="url(#linear-gradient)"/>
        <g id="Grupo_81713" data-name="Grupo 81713" transform="translate(95.995 86.781)">
          <path id="Trazado_157734" data-name="Trazado 157734" d="M86.5,402.637l-.446.259,0,1.521A3.036,3.036,0,0,0,87.43,406.8a.988.988,0,0,0,1,.089l.434-.251a.971.971,0,0,0,.4-.888l0-1.523Z" transform="translate(-84.112 -402.637)" fill="#949494"/>
          <path id="Trazado_157735" data-name="Trazado 157735" d="M88.994,407.16a2.184,2.184,0,1,1-.864-2.864A2.119,2.119,0,0,1,88.994,407.16Z" transform="translate(-84.412 -402.267)" fill="#232120"/>
          <path id="Trazado_157736" data-name="Trazado 157736" d="M84.98,403.516l-.446.26,0,1.521a3.036,3.036,0,0,0,1.376,2.388.988.988,0,0,0,1,.089l.436-.252a.968.968,0,0,0,.4-.888l0-1.521Z" transform="translate(-84.53 -402.396)" fill="#949494"/>
        </g>
        <g id="Grupo_81714" data-name="Grupo 81714" transform="translate(66.334 103.904)">
          <path id="Trazado_157737" data-name="Trazado 157737" d="M63.225,416.076l-.446.26,0,1.521a3.036,3.036,0,0,0,1.376,2.388.988.988,0,0,0,1,.089l.436-.251a.968.968,0,0,0,.4-.888l0-1.523Z" transform="translate(-60.834 -416.076)" fill="#949494"/>
          <path id="Trazado_157738" data-name="Trazado 157738" d="M65.715,420.6a2.184,2.184,0,1,1-.864-2.864A2.118,2.118,0,0,1,65.715,420.6Z" transform="translate(-61.135 -415.706)" fill="#232120"/>
          <path id="Trazado_157739" data-name="Trazado 157739" d="M61.7,416.956l-.447.26,0,1.521a3.033,3.033,0,0,0,1.376,2.388.986.986,0,0,0,1,.089l.436-.252a.968.968,0,0,0,.4-.888l0-1.521Z" transform="translate(-61.252 -415.835)" fill="#949494"/>
        </g>
        <g id="Grupo_81715" data-name="Grupo 81715" transform="translate(35.94 86.356)">
          <path id="Trazado_157740" data-name="Trazado 157740" d="M39.371,402.3l-.446.26,0,1.521a3.036,3.036,0,0,0,1.376,2.388.988.988,0,0,0,1,.089l.436-.251a.971.971,0,0,0,.4-.888l0-1.523Z" transform="translate(-36.98 -402.304)" fill="#949494"/>
          <path id="Trazado_157741" data-name="Trazado 157741" d="M41.861,406.828A2.184,2.184,0,1,1,41,403.963,2.117,2.117,0,0,1,41.861,406.828Z" transform="translate(-37.281 -401.934)" fill="#232120"/>
          <path id="Trazado_157742" data-name="Trazado 157742" d="M37.848,403.184l-.447.26,0,1.521a3.036,3.036,0,0,0,1.376,2.388.989.989,0,0,0,1,.089l.436-.252a.968.968,0,0,0,.4-.888l0-1.521Z" transform="translate(-37.398 -402.063)" fill="#949494"/>
        </g>
        <g id="Axonometric_Cube" data-name="Axonometric Cube" transform="translate(95.506 46.18)">
          <path id="Cube_face_-_top" data-name="Cube face - top" d="M90.409,372.581l-3.131-1.808-3.131,1.808,3.131,1.808Z" transform="translate(-84.146 -370.773)" fill="#d2d2d2"/>
          <path id="Cube_face_-_left" data-name="Cube face - left" d="M87.277,414.618l-3.131-1.808V372.191L87.277,374Z" transform="translate(-84.146 -370.384)" fill="#a0a0a0"/>
          <path id="Cube_face_-_right" data-name="Cube face - right" d="M89.735,412.81,86.6,414.618V374l3.131-1.808Z" transform="translate(-83.472 -370.384)" fill="url(#linear-gradient-2)"/>
        </g>
        <path id="Trazado_157743" data-name="Trazado 157743" d="M91.153,396.03a.423.423,0,0,0-.432-.04L64.27,411.261l.863,1.474,26.451-15.271a.427.427,0,0,0,.173-.389A1.338,1.338,0,0,0,91.153,396.03Z" transform="translate(5.91 -317.691)" fill="url(#linear-gradient-3)"/>
        <path id="Trazado_157744" data-name="Trazado 157744" d="M67,382.089a.421.421,0,0,0-.431-.041L40.123,397.32l.861,1.474,26.452-15.271a.432.432,0,0,0,.172-.39A1.332,1.332,0,0,0,67,382.089Z" transform="translate(-0.711 -321.513)" fill="#a0a0a0"/>
        <g id="Axonometric_Cube-2" data-name="Axonometric Cube" transform="translate(35.414 45.778)">
          <path id="Cube_face_-_top-2" data-name="Cube face - top" d="M43.248,372.266l-3.131-1.808-3.131,1.808,3.131,1.808Z" transform="translate(-36.985 -370.458)" fill="#d2d2d2"/>
          <path id="Cube_face_-_left-2" data-name="Cube face - left" d="M40.116,414.3,36.985,412.5V371.876l3.131,1.808Z" transform="translate(-36.985 -370.069)" fill="#a0a0a0"/>
          <path id="Cube_face_-_right-2" data-name="Cube face - right" d="M42.574,412.5,39.443,414.3V373.684l3.131-1.808Z" transform="translate(-36.311 -370.069)" fill="url(#linear-gradient-2)"/>
          <path id="Cube_face_-_right-3" data-name="Cube face - right" d="M42.658,390.328l-3.242-1.853-.279-6.411.39-8.379,3.131-1.808Z" transform="translate(-36.395 -370.069)" fill="#a0a0a0"/>
        </g>
        <path id="Trazado_157745" data-name="Trazado 157745" d="M41.049,396.03a.421.421,0,0,1,.431-.04L67.93,411.261l-.861,1.474L40.618,397.464a.427.427,0,0,1-.173-.389A1.335,1.335,0,0,1,41.049,396.03Z" transform="translate(-0.623 -317.691)" fill="url(#linear-gradient-5)"/>
        <g id="Grupo_81717" data-name="Grupo 81717" transform="translate(38.156)">
          <path id="Trazado_157746" data-name="Trazado 157746" d="M43.932,380.173l18.035,13.868a6.692,6.692,0,0,0,.633.428,12.051,12.051,0,0,0,10.935.111l15.85-12.291Z" transform="translate(-37.822 -322.016)" fill="url(#linear-gradient-6)"/>
          <path id="Trazado_157747" data-name="Trazado 157747" d="M39.222,348.276,39.137,378.3c-.013,4.429,2.844,8.872,8.6,12.31,11.7,6.993,30.932,7.186,42.965.435,6.115-3.431,9.193-8,9.206-12.575l.085-30.027Z" transform="translate(-39.137 -330.761)" fill="url(#linear-gradient-7)"/>
          <path id="Trazado_157748" data-name="Trazado 157748" d="M91.376,339.9c-11.7-6.991-30.932-7.185-42.965-.433S36.1,357.363,47.8,364.356a41.77,41.77,0,0,0,18.282,5.25c8.754.6,17.873-.994,24.685-4.816a25.3,25.3,0,0,0,3.741-2.538C102.7,355.486,101.7,346.077,91.376,339.9Z" transform="translate(-39.119 -334.53)" fill="url(#linear-gradient-8)"/>
          <path id="Trazado_157749" data-name="Trazado 157749" d="M81.116,349.9,61.385,355,60.3,365.392c8.754.6,17.873-.994,24.685-4.816a25.3,25.3,0,0,0,3.741-2.538Z" transform="translate(-33.335 -330.317)" opacity="0.6" fill="url(#linear-gradient-9)"/>
          <path id="Trazado_157750" data-name="Trazado 157750" d="M82.722,338.527c-8.119-4.853-21.471-4.988-29.822-.3s-8.542,12.421-.424,17.274,21.47,4.987,29.822.3S90.84,343.38,82.722,338.527Z" transform="translate(-37.116 -334.457)" fill="url(#linear-gradient-10)"/>
          <g id="Axonometric_Cylinder" data-name="Axonometric Cylinder" transform="translate(18.88 2.075)">
            <path id="Cylinder_face" data-name="Cylinder face" d="M73.665,347.54c4.509-2.6,4.509-6.825,0-9.428s-11.819-2.6-16.329,0-4.509,6.825,0,9.428S69.156,350.143,73.665,347.54Z" transform="translate(-53.955 -336.159)" fill="url(#linear-gradient-10)"/>
            <path id="Cylinder_face-2" data-name="Cylinder face" d="M73.665,347.54c4.509-2.6,4.509-6.825,0-9.428s-11.819-2.6-16.329,0-4.509,6.825,0,9.428S69.156,350.143,73.665,347.54Z" transform="translate(-53.955 -336.159)" fill="url(#linear-gradient-10)"/>
            <g id="Grupo_81716" data-name="Grupo 81716" transform="translate(2.069 0.981)">
              <path id="Cylinder_face-3" data-name="Cylinder face" d="M71.757,346.271c3.7-2.137,3.7-5.6,0-7.739a14.813,14.813,0,0,0-13.4,0c-3.7,2.137-3.7,5.6,0,7.739A14.813,14.813,0,0,0,71.757,346.271Z" transform="translate(-55.578 -336.929)" fill="url(#linear-gradient-13)"/>
              <ellipse id="Cylinder_face-4" data-name="Cylinder face" cx="8.866" cy="5.119" rx="8.866" ry="5.119" transform="translate(0.611 0.707)" fill="#6e889b"/>
              <path id="Trazado_157751" data-name="Trazado 157751" d="M58.653,340.531a13.858,13.858,0,0,1,12.539,0,4.9,4.9,0,0,1,2.485,2.847c.41-1.555-.412-3.2-2.485-4.395a13.866,13.866,0,0,0-12.539,0c-2.073,1.2-2.895,2.84-2.486,4.395A4.908,4.908,0,0,1,58.653,340.531Z" transform="translate(-55.445 -336.777)" fill="#6e889b" opacity="0.5" style="mix-blend-mode: multiply;isolation: isolate"/>
            </g>
            <path id="Cylinder_body" data-name="Cylinder body" d="M53.955,341.343v2.012c-.028,1.727,1.1,3.458,3.382,4.776,4.509,2.6,11.819,2.6,16.329,0,2.227-1.287,3.355-2.968,3.382-4.652v-2.013c-.027,1.686-1.154,3.366-3.382,4.653-4.509,2.6-11.819,2.6-16.329,0C55.055,344.8,53.927,343.07,53.955,341.343Z" transform="translate(-53.955 -334.738)" fill="url(#linear-gradient-8)"/>
          </g>
        </g>
        <g id="Axonometric_Cube-3" data-name="Axonometric Cube" transform="translate(65.807 65.134)">
          <path id="Cube_face_-_top-3" data-name="Cube face - top" d="M67.1,385.648H60.838l3.131,1.808Z" transform="translate(-60.838 -385.648)" fill="#d2d2d2"/>
          <path id="Cube_face_-_left-3" data-name="Cube face - left" d="M63.97,428.075l-3.131-1.808V385.648l3.131,1.808Z" transform="translate(-60.838 -385.648)" fill="#a0a0a0"/>
          <path id="Cube_face_-_right-4" data-name="Cube face - right" d="M66.427,426.267,63.3,428.075V387.456l3.131-1.808Z" transform="translate(-60.165 -385.648)" fill="url(#linear-gradient-2)"/>
        </g>
        <path id="Trazado_157752" data-name="Trazado 157752" d="M49.744,373a3.268,3.268,0,0,1-1.6-.389L39.1,367.4a1.383,1.383,0,0,1,0-2.543l5.245-3.027c.473-.274,1.126.736.6,1.04L39.706,365.9c-.178.1-.24.2-.24.231s.061.127.238.231l9.039,5.219a2.279,2.279,0,0,0,2,0l5.245-3.029c.459-.265,1.075.766.6,1.04l-5.245,3.029A3.271,3.271,0,0,1,49.744,373Z" transform="translate(-1.22 -327.059)" fill="url(#linear-gradient-16)"/>
        <path id="Trazado_157753" data-name="Trazado 157753" d="M87.856,360.385v8.938c0,.206-.055.307-.08.322s-.14.011-.32-.092l-5.245-3.029c-.526-.3-1.073.768-.6,1.041l5.246,3.027a1.382,1.382,0,0,0,2.2-1.27v-8.938Z" transform="translate(10.614 -327.441)" fill="#c8c8c8"/>
        <path id="Trazado_157754" data-name="Trazado 157754" d="M67.775,340.468c0,.894-1.758,1.619-3.928,1.619s-3.928-.725-3.928-1.619,1.758-1.618,3.928-1.618S67.775,339.574,67.775,340.468Z" transform="translate(4.717 -333.346)" opacity="0.6" fill="url(#linear-gradient-17)" style="mix-blend-mode: screen;isolation: isolate"/>
        <g id="Axonometric_Cylinder-2" data-name="Axonometric Cylinder" transform="translate(95.293 30.277)">
          <path id="Trazado_157755" data-name="Trazado 157755" d="M88.542,358.479a1.86,1.86,0,0,0-1.9.177,5.883,5.883,0,0,0-2.663,4.61,1.883,1.883,0,0,0,.763,1.714l2.128,1.228,3.8-6.5Z" transform="translate(-83.979 -358.292)" fill="url(#linear-gradient-18)"/>
          <path id="Cylinder_face-5" data-name="Cylinder face" d="M85.649,364.231c0,1.7,1.193,2.385,2.663,1.537a5.886,5.886,0,0,0,2.662-4.611c0-1.7-1.193-2.385-2.662-1.537A5.884,5.884,0,0,0,85.649,364.231Z" transform="translate(-83.521 -358.028)" fill="#d2d2d2"/>
          <g id="Grupo_81719" data-name="Grupo 81719" transform="translate(2.742 2.022)">
            <path id="Cylinder_face-6" data-name="Cylinder face" d="M86.131,363.705c0,1.306.917,1.836,2.049,1.182a4.528,4.528,0,0,0,2.048-3.547c0-1.306-.917-1.835-2.048-1.181A4.523,4.523,0,0,0,86.131,363.705Z" transform="translate(-86.131 -359.879)" fill="#eaeaea"/>
            <g id="Grupo_81718" data-name="Grupo 81718" transform="translate(0.821 0.486)">
              <path id="Trazado_157756" data-name="Trazado 157756" d="M89.16,360.311a1.214,1.214,0,0,0-1,.158,3.31,3.31,0,0,0-1.382,1.9l.313-.181a3,3,0,0,1,1.185-1.516.981.981,0,0,1,.807-.14.619.619,0,0,1,.322.321l.2-.115A.848.848,0,0,0,89.16,360.311Z" transform="translate(-86.775 -360.26)" fill="#c6c4c4"/>
              <path id="Trazado_157757" data-name="Trazado 157757" d="M88.586,360.6a.067.067,0,0,0-.089.034l-.621,1.363c-.027.006-.047-.009-.076.009a.62.62,0,0,0-.283.488c0,.181.126.254.283.163a.622.622,0,0,0,.282-.489.192.192,0,0,0-.066-.147l.605-1.332A.067.067,0,0,0,88.586,360.6Z" transform="translate(-86.572 -360.17)" fill="#c6c4c4"/>
            </g>
          </g>
        </g>
      </g>
      <g id="Grupo_81726" data-name="Grupo 81726" transform="translate(87.464 365.146)">
        <g id="Grupo_81725" data-name="Grupo 81725">
          <path id="Trazado_157758" data-name="Trazado 157758" d="M106.411,376.507s1.511,5.053,1.511,6.734-3.422,4-7.17,4.379a7.246,7.246,0,0,1-.1-3.091,15.13,15.13,0,0,0,2.389-1.577c.2-.349-.965-3.923-.965-3.923a8.287,8.287,0,0,0,2.143-.547A4.673,4.673,0,0,0,106.411,376.507Z" transform="translate(-62.423 -353.637)" fill="url(#linear-gradient-19)"/>
          <path id="Trazado_157759" data-name="Trazado 157759" d="M100.773,367.655c1.214.073,3.189,1.571,3.945,4.6s1.451,5.813,1.625,6.683a4.674,4.674,0,0,1-4.33,2.5,33.837,33.837,0,0,0,1.283-5.754c.375-3.02-.131-5.771-1.193-6.842A7.024,7.024,0,0,0,100.773,367.655Z" transform="translate(-62.355 -356.064)" fill="#f22a51"/>
          <path id="Trazado_157760" data-name="Trazado 157760" d="M87.793,426.3c-3.91,2.253-3.91,5.91,0,8.165a15.62,15.62,0,0,0,14.147,0c3.909-2.255,3.909-5.912,0-8.165A15.62,15.62,0,0,0,87.793,426.3Z" transform="translate(-66.718 -340.449)" fill="#b5c0c6" opacity="0.4" style="mix-blend-mode: multiply;isolation: isolate"/>
          <path id="Trazado_157761" data-name="Trazado 157761" d="M88.916,391.107a5.566,5.566,0,0,0-.259-1.413c-.717-2.342-2.683-4.885-2.683-8.485a6.422,6.422,0,0,1,.9-3.566,3.287,3.287,0,0,1,1.227-1.21l6.112-3.531c.052-.028.107-.06.153-.085l4.516-2.6,1.525-.883.005,0,.008,0c.006,0,.011,0,.015-.006l.006-.009c.005,0,.01-.006.017-.006a.063.063,0,0,1,.017-.008.077.077,0,0,1,.033-.018l0-.008.008,0a.225.225,0,0,1,.034-.019c.242-.141.827-.48,2.125-1.23,3.542-2.043,6.73,3.34,4.044,11.443-.833,2.5-1.224,3.861-1.446,4.759v.011c-.256,1.033-.28,1.435-.516,2.244a8.518,8.518,0,0,0,.724,5.761,36.49,36.49,0,0,1,1.849,6.077.387.387,0,0,1,.011.069.07.07,0,0,1-.006.024v.011a2.147,2.147,0,0,1-.078.245c-.024.062-.057.136-.094.217-.464.982-2.1,3.233-7.635,5.037a19.415,19.415,0,0,1-10.307.642,14.4,14.4,0,0,1-1.4-.391c-.268-.087-.457-.164-.564-.206a1.9,1.9,0,0,1,.033-.306C87.545,401.958,89,393.589,88.916,391.107Z" transform="translate(-66.412 -356.084)" fill="#e92440"/>
          <path id="Trazado_157762" data-name="Trazado 157762" d="M89.421,362.712c.013.122.023.243.045.363.162.987.377,2.32.543,3.331.136.846.234,1.464.234,1.464a4.608,4.608,0,0,1,.776-.976c.446-.378.708-.175.963.3s.511,1.263.938,2.017a3.737,3.737,0,0,0,3.781,2.114,3.592,3.592,0,0,0,1.3-.292l.037-.009a1.761,1.761,0,0,0,.5-.33,38.683,38.683,0,0,0,1.76-4.554,10.739,10.739,0,0,0,.261-2.36c0-4.2-3.954-5.307-5.59-5.22-3.5.185-5.022,1.639-5.427,3.12A3.471,3.471,0,0,0,89.421,362.712Z" transform="translate(-65.468 -358.558)" fill="#cb6e05"/>
          <path id="Trazado_157763" data-name="Trazado 157763" d="M94.63,426.676c.043.463,1.859,5.138,1.859,5.138a1.808,1.808,0,0,0,2.8.275,1.218,1.218,0,0,0,.265-.73,7.028,7.028,0,0,0-.321-2.948,4.349,4.349,0,0,0-3.29-3.314.965.965,0,0,0-1.14.46A2.112,2.112,0,0,0,94.63,426.676Z" transform="translate(-64.042 -340.322)" fill="#f22a51"/>
          <path id="Trazado_157764" data-name="Trazado 157764" d="M95.8,405.354l-2.313,1.369,1.756-6.3Z" transform="translate(-64.351 -347.08)" fill="#15af91"/>
          <path id="Trazado_157765" data-name="Trazado 157765" d="M99.085,427.308a9.378,9.378,0,0,1-.215,2.245,1.78,1.78,0,0,1-2.316.4c-1.095-.506-.712-2.548-.712-2.548a2.8,2.8,0,0,0,1.735.485A3.228,3.228,0,0,0,99.085,427.308Z" transform="translate(-63.725 -339.708)" fill="url(#linear-gradient-20)"/>
          <path id="Trazado_157766" data-name="Trazado 157766" d="M86.982,397.271c.079,2.232.229,4.367.42,6.376a.3.3,0,0,1,0,.059c.678,7.205.61,10.829,1,15.479.4,4.754.759,5.745,1.707,19.475a2.45,2.45,0,0,0,.589.256,2.809,2.809,0,0,0,1.749-.078,3.3,3.3,0,0,0,.781-.381s2.692-11.79,2.318-16.061-1.841-5.419-1.627-7.547,3.109-12.111,3.109-12.111,1.864,15.418,1.718,20.871-.5,13.482-.5,13.482a2.662,2.662,0,0,0,.54.422.46.46,0,0,0,.107.064,1.968,1.968,0,0,0,1.435.232,2.569,2.569,0,0,0,1.586-1.56c.8-2.7,3.578-10.5,3.292-15.435s-2.225-8.175-2.152-9.354a135.787,135.787,0,0,1,3.44-14.388,9.408,9.408,0,0,0,.488-5.1c-.024.062-.06.136-.1.213-.465.989-2.1,3.236-7.63,5.038a19.5,19.5,0,0,1-10.145.683c-.111-.023-.22-.05-.322-.075a11.988,11.988,0,0,1-1.245-.354C87.281,397.393,87.089,397.313,86.982,397.271Z" transform="translate(-66.136 -349.397)" fill="#2d123e"/>
          <path id="Trazado_157767" data-name="Trazado 157767" d="M86.985,396.2c0-.1-.01-.205-.013-.306h.05A1.89,1.89,0,0,0,86.985,396.2Z" transform="translate(-66.139 -348.322)" fill="#2d123e"/>
          <path id="Trazado_157768" data-name="Trazado 157768" d="M89.328,369.777a2.254,2.254,0,0,0,.478.88c.691.784,1.97,1.061,3.7.587A30.561,30.561,0,0,1,93.4,374.7c.05-.031.1-.06.15-.085,1.007-.582,3.05-1.762,4.516-2.6a7.331,7.331,0,0,1,.062-1.65,3.593,3.593,0,0,1-1.3.292,3.78,3.78,0,0,1-2.62-.717,4.541,4.541,0,0,1-1.161-1.4c-1.041-1.846-1.05-3.849-2.677-1.344,0,0-.477-2.983-.777-4.795-.022-.12-.032-.241-.045-.363a3.471,3.471,0,0,1,.116-1.028c-.585,1.249-.163,2.62-.395,3.475A10.626,10.626,0,0,0,89.328,369.777Z" transform="translate(-65.593 -357.886)" fill="url(#linear-gradient-21)"/>
          <path id="Trazado_157769" data-name="Trazado 157769" d="M92.039,372.71v0c5.158-.5,5.776-3.215,5.8-3.349v0Z" transform="translate(-64.749 -355.596)" fill="#15af91"/>
          <path id="Trazado_157770" data-name="Trazado 157770" d="M104.6,396.649c-1.152.222-6.082,1.005-7.307,1.436s-2.889,2.3-7.039,1.687a6.814,6.814,0,0,0,6.44-.111c3.531-1.863,2.658-.646,4.5-1.074A8.918,8.918,0,0,0,104.6,396.649Z" transform="translate(-65.239 -348.115)" fill="#250f35"/>
          <path id="Trazado_157771" data-name="Trazado 157771" d="M94.63,426.571c.043.463,1.859,5.138,1.859,5.138a1.808,1.808,0,0,0,2.8.275,1.218,1.218,0,0,0,.265-.73,2.05,2.05,0,0,1-2.6.37,15.676,15.676,0,0,1-1.612-3.679,8.383,8.383,0,0,1-.543-2.494A2.112,2.112,0,0,0,94.63,426.571Z" transform="translate(-64.042 -340.218)" fill="#cc1b46"/>
          <g id="Grupo_81721" data-name="Grupo 81721" transform="translate(18.331 88.662)">
            <g id="Grupo_81720" data-name="Grupo 81720">
              <path id="Trazado_157772" data-name="Trazado 157772" d="M85.011,429.415a1.394,1.394,0,0,0,.55,1.054,19.369,19.369,0,0,0,5.073,2.731c2.116.636,2.746-.291,2.746-.291a1.9,1.9,0,0,0,.209-.589,2.9,2.9,0,0,0-.167-1.738c-.824-1.324-3.7-1.459-6.762-2.359A1.158,1.158,0,0,0,85.011,429.415Z" transform="translate(-85.008 -428.142)" fill="#f22a51"/>
              <path id="Trazado_157773" data-name="Trazado 157773" d="M92.573,428.455l-.394,2.258s-.113.733-1.538.63c-1-.073-1.277-.329-1.258-1.026.013-.48.07-1.656.07-1.656a4.28,4.28,0,0,0,1.812.31A2.814,2.814,0,0,0,92.573,428.455Z" transform="translate(-83.808 -428.056)" fill="url(#linear-gradient-22)"/>
            </g>
            <path id="Trazado_157774" data-name="Trazado 157774" d="M85.01,429.141a1.394,1.394,0,0,0,.55,1.054,19.369,19.369,0,0,0,5.073,2.731c2.116.636,2.746-.291,2.746-.291a1.9,1.9,0,0,0,.209-.589A2.164,2.164,0,0,1,92,432.8c-1.25.031-2.918-.863-4.424-1.723A10.813,10.813,0,0,1,85.01,429.141Z" transform="translate(-85.007 -427.868)" fill="#cc1b46"/>
          </g>
          <path id="Trazado_157775" data-name="Trazado 157775" d="M87.292,401.488a1.9,1.9,0,0,0-.033.306c.107.042.3.12.564.206a14.4,14.4,0,0,0,1.4.391,17.182,17.182,0,0,1,.553-6.464c1.147-4.232,1.488-6.15.287-8.615-1.089-2.231-3.787-7.551-3.191-11.835a6.422,6.422,0,0,0-.9,3.566c0,3.6,1.966,6.143,2.683,8.485a5.566,5.566,0,0,1,.259,1.413C89,391.424,87.545,399.793,87.292,401.488Z" transform="translate(-66.412 -353.919)" fill="#e92440" opacity="0.4" style="mix-blend-mode: multiply;isolation: isolate"/>
          <path id="Trazado_157776" data-name="Trazado 157776" d="M93.328,369.324a30.561,30.561,0,0,1-.112,3.458c.05-.031.1-.06.15-.085,1.007-.582,3.05-1.762,4.516-2.6a7.332,7.332,0,0,1,.062-1.65,3.592,3.592,0,0,1-1.3.292,3.78,3.78,0,0,1-2.62-.717c-1.282,1.506-3.229,1.089-4.4.72C90.315,369.521,91.594,369.8,93.328,369.324Z" transform="translate(-65.411 -355.965)" opacity="0.3" fill="url(#linear-gradient-23)" style="mix-blend-mode: multiply;isolation: isolate"/>
          <path id="Trazado_157777" data-name="Trazado 157777" d="M73.711,371.578c.427-.18.589.015.935.605s1.445.051,1.181-.7.1-1.287.975-1.71,1.642-2.262.064-2.4-1.831-.274-2.494-1.1-2.718-.308-2.756.757a9.473,9.473,0,0,1-.951,3.086C70.4,370.7,71.366,372.555,73.711,371.578Z" transform="translate(-70.622 -356.555)" fill="#73afd7"/>
          <path id="Trazado_157778" data-name="Trazado 157778" d="M82.608,377.471c0,.1.005.2.009.3a12.169,12.169,0,0,0,1.005,3.97c.252.615.493,1.112.647,1.414.1.194.162.311.162.311s2.528.363,6.042-1.71a4.74,4.74,0,0,0,2.648-3.512,4.273,4.273,0,0,0-.492-2.477C90.6,372.263,82.608,377.471,82.608,377.471Z" transform="translate(-67.335 -354.173)" fill="#f22a51"/>
          <path id="Trazado_157779" data-name="Trazado 157779" d="M83.4,380.943c.252.615.493,1.112.647,1.414.1.194.162.311.162.311s2.528.363,6.042-1.71a4.74,4.74,0,0,0,2.648-3.512C91.487,378.886,88.529,380.979,83.4,380.943Z" transform="translate(-67.117 -353.379)" fill="#e92440" opacity="0.4" style="mix-blend-mode: multiply;isolation: isolate"/>
          <g id="Grupo_81722" data-name="Grupo 81722" transform="translate(1.471 10.356)">
            <path id="Trazado_157780" data-name="Trazado 157780" d="M72.009,371.072c-.158-1.021-.366-2.761-.12-2.906s.306.986.54.759,0-1.571.319-1.686.291,1.974.434,1.686.088-2.239.494-2.239-.059,2.348.206,2.348.489-1.739.684-1.681.039,1.422.006,1.8-.316,1.222.353.785c.192-.126,1.1-.406,1.144-.152s-1.575,1.087-1.872,1.287c-.226.259,4.957,9.188,5.636,10.387l5.752-1.535a11.956,11.956,0,0,0,.991,3.937c.26.628.507,1.14.661,1.447-2.226.545-7.541,1.776-8.894,1.38a1.626,1.626,0,0,1-1.24-.866,49.25,49.25,0,0,1-5.061-14.42.277.277,0,0,0-.005-.048c-.008-.036-.017-.073-.023-.107l.006,0a1.646,1.646,0,0,1-.014-.172Z" transform="translate(-71.776 -366.686)" fill="url(#linear-gradient-24)"/>
            <path id="Trazado_157781" data-name="Trazado 157781" d="M71.972,370.282l-.006,0c.006.034.015.071.023.107a.277.277,0,0,1,.005.048,49.251,49.251,0,0,0,5.061,14.42,1.626,1.626,0,0,0,1.24.866c1.353.4,6.668-.835,8.894-1.38-.154-.307-.4-.819-.661-1.447-1.891.47-6.683,1.6-7.832,1.324-1.439-.348-3.366-4.728-5.011-8.742A40.162,40.162,0,0,1,71.972,370.282Z" transform="translate(-71.725 -365.724)" opacity="0.3" fill="url(#linear-gradient-25)" style="mix-blend-mode: multiply;isolation: isolate"/>
          </g>
          <g id="Grupo_81724" data-name="Grupo 81724" transform="translate(30.73 3.437)">
            <g id="Grupo_81723" data-name="Grupo 81723">
              <path id="Trazado_157782" data-name="Trazado 157782" d="M96.735,363.325a1.194,1.194,0,0,1,0-1.8c.716-.7,1.619.069,1.567,1.038A1,1,0,0,1,96.735,363.325Z" transform="translate(-94.306 -361.256)" fill="#15af91"/>
              <path id="Trazado_157783" data-name="Trazado 157783" d="M97.3,373.859a1.339,1.339,0,0,1,.493,1.653s.18-.087.451-.25c.75-.438,2.189-1.432,2.319-2.635.177-1.635-1.651-2.435-.847-4.261s1.876-4.341,1.03-5.86a2.285,2.285,0,0,0-2.66-.924,1.182,1.182,0,0,0-.654,1.018,1.141,1.141,0,0,0,0,.264s.805-.491,1.212.181-1.212,2.323-3.222,5.479S96.353,373.059,97.3,373.859Z" transform="translate(-94.739 -361.197)" fill="#cb6e05"/>
            </g>
            <path id="Trazado_157784" data-name="Trazado 157784" d="M97.3,373.684a1.339,1.339,0,0,1,.493,1.653s.18-.087.451-.25c.554-1.91-1.158-3.081-1.7-5.223-.617-2.42,2.719-4.624,2.553-6.584-.13-1.555-1.1-1.244-1.662-.855a1.14,1.14,0,0,0,0,.264s.805-.491,1.212.181-1.212,2.323-3.222,5.479S96.353,372.884,97.3,373.684Z" transform="translate(-94.739 -361.022)" fill="#421d11" opacity="0.1" style="mix-blend-mode: multiply;isolation: isolate"/>
          </g>
          <path id="Trazado_157785" data-name="Trazado 157785" d="M91.274,436.723a3.3,3.3,0,0,0,.781-.381s2.692-11.79,2.318-16.061-1.841-5.419-1.627-7.547,3.109-12.111,3.109-12.111,1.864,15.418,1.718,20.871-.5,13.482-.5,13.482a2.662,2.662,0,0,0,.54.422c.254-3.262.831-7.116,1.052-12.12a72.815,72.815,0,0,0-1.093-14.512c-.643-3.949-1.493-9.081-1.493-9.081s-3.043,6.637-3.849,10.708.194,6.038.879,9.114C93.68,422.089,91.868,433.211,91.274,436.723Z" transform="translate(-64.959 -347.282)" fill="#250f35" opacity="0.1" style="mix-blend-mode: multiply;isolation: isolate"/>
          <path id="Trazado_157786" data-name="Trazado 157786" d="M86.982,396.131c.079,2.232.229,4.367.42,6.376a.3.3,0,0,1,0,.059c.678,7.205.61,10.829,1,15.479.4,4.754.759,5.745,1.707,19.475a2.45,2.45,0,0,0,.589.256,44.973,44.973,0,0,0-.158-10.5c-.888-6.326-1.264-7.951-1.69-13.989a161.574,161.574,0,0,1-.062-16.591,11.988,11.988,0,0,1-1.245-.354C87.281,396.253,87.089,396.173,86.982,396.131Z" transform="translate(-66.136 -348.257)" fill="#250f35" opacity="0.2" style="mix-blend-mode: multiply;isolation: isolate"/>
          <path id="Trazado_157787" data-name="Trazado 157787" d="M87.418,406.763a36.2,36.2,0,0,1,.144-6.172c.018-.164.038-.333.059-.5a20.822,20.822,0,0,1,1.251-5,17.424,17.424,0,0,1,3.262-5.5,9.068,9.068,0,0,0,5.809.2c.607-.158,1.128-.324,1.591-.489.084.863.278,2.691.553,4.1a9.7,9.7,0,0,0,1.209,3.171l.573-.373c-1.464-2.344-1.729-6.074-1.775-7.116.1-.039.2-.079.288-.121.213.571.668,1.848,1.013,3.1.466,1.687.7,3.084.7,3.084l.59-.359s.107.057-.377-1.919a36.884,36.884,0,0,0-1.376-4.176,5.988,5.988,0,0,0,1.319-.9c.716,1.453,3.784,4.123,4.655,7.514.144.562.227.526.172-.461a36.982,36.982,0,0,0-1.84-6.365,7.6,7.6,0,0,1-.738-5.577c.236-.809.26-1.21.516-2.244v-.011a.08.08,0,0,0,.008-.028,42.8,42.8,0,0,0-2.863,6.266c-.147.125-.33.268-.542.42a2.08,2.08,0,0,0,.224-1.232c-.233-1.147-1.9-1-2.259-.2a3,3,0,0,0,0,1.491c-.083-.127-.168-.254-.25-.377a1.22,1.22,0,0,0-2.226.66c-.02.71.805,1.026,1.575,1.163-.14.047-.283.092-.427.131a9.767,9.767,0,0,1-6.051-.157,18.715,18.715,0,0,1-3.81-2.667,5.566,5.566,0,0,1,.259,1.413c.059,1.678-1.279,7.46-1.67,12.358A31.3,31.3,0,0,0,87.418,406.763ZM99.769,388.39c-.115.051-.234.106-.352.153-.521-.068-1.868-.3-1.8-.982.078-.84,1.075-.52,1.254-.306C98.981,387.392,99.444,387.982,99.769,388.39Zm1.115-.592c-.226.138-.471.276-.736.412l-.015-.023a3.594,3.594,0,0,1-.116-1.933c.339-.809,1.343-.738,1.362.2A2.6,2.6,0,0,1,100.884,387.8Z" transform="translate(-66.151 -352.51)" fill="#15af91"/>
        </g>
      </g>
    </g>
  </g>
</svg>
