<svg xmlns="http://www.w3.org/2000/svg" width="92.918" height="106" viewBox="0 0 92.918 106">
  <g id="Grupo_119313" data-name="Grupo 119313" transform="translate(-228.541 -18103.085)">
    <circle id="Elipse_4720" data-name="Elipse 4720" cx="38.5" cy="38.5" r="38.5" transform="translate(244.459 18132.086)" fill="#5c22c3"/>
    <g id="_12" data-name="12" transform="translate(-52.662 17813.512)">
      <g id="woman" transform="translate(327.335 289.575)">
        <path id="Trazado_172971" data-name="Trazado 172971" d="M362.615,332.74l3.344,8.556a.786.786,0,0,0,1.5-.444l-1.86-9a1.563,1.563,0,0,0-3.061.632A1.7,1.7,0,0,0,362.615,332.74Z" transform="translate(-352.446 -302.248)" fill="#ffa89c"/>
        <path id="Trazado_172972" data-name="Trazado 172972" d="M356.957,345.493a4.739,4.739,0,0,1,.057.605,4.467,4.467,0,0,1-.017.6,2.125,2.125,0,0,1-.422,1.164.191.191,0,0,1-.318-.209l.008-.016a1.659,1.659,0,0,0,.111-.94,3.636,3.636,0,0,0-.095-.5,3.868,3.868,0,0,0-.152-.475.432.432,0,1,1,.826-.238Z" transform="translate(-350.467 -306.732)" fill="#ffa89c"/>
        <path id="Trazado_172973" data-name="Trazado 172973" d="M354.2,340.634c0-.017.006-.035.012-.052l2.511-7.4a1.673,1.673,0,0,1,.129-.283,1.565,1.565,0,0,1,2.707,1.571l-3.574,6.158a1.6,1.6,0,0,1,.189.431c.28,1.014-.713,1.6-.786,2.371-.046.483.628,1.6.431,1.9-.567.722-1.7-.873-1.846-1.162A3.826,3.826,0,0,1,354.2,340.634Z" transform="translate(-349.704 -302.716)" fill="#ffa89c"/>
        <path id="Trazado_172974" data-name="Trazado 172974" d="M354.944,345.637c.34-.236-.225-.668.189-1.78a3.024,3.024,0,0,0,.231-1.746c.437-.737,2.415-5.6,2.415-5.6.583-.207.807.527.846,1.6l-2.243,3.864a1.6,1.6,0,0,1,.189.431c.28,1.014-.713,1.6-.787,2.371-.046.483.628,1.6.431,1.9a.675.675,0,0,1-.06.058C355.526,346.339,354.732,345.784,354.944,345.637Z" transform="translate(-350.1 -304.06)" fill="#965f7e" opacity="0.18" style="mix-blend-mode: multiply;isolation: isolate"/>
        <path id="Trazado_172975" data-name="Trazado 172975" d="M370.319,349.551c.068-.354-.982-1.129-1.125-1.592-.228-.742.467-1.662-.18-2.492a1.942,1.942,0,0,0-1.942-.608c-.082,1.634-.235,3.185,1.1,4.324C368.416,349.394,370.072,350.435,370.319,349.551Z" transform="translate(-353.84 -306.641)" fill="#ffa89c"/>
        <g id="Grupo_118751" data-name="Grupo 118751" transform="translate(0 35.219)">
          <path id="Trazado_172976" data-name="Trazado 172976" d="M349.918,399.305a8.632,8.632,0,0,1,2.877-.981h0a11.363,11.363,0,0,1,4.193.091c7.957-.232,9.849-2.949,9.851-2.952a3.277,3.277,0,0,1,1.317-1.271,8.144,8.144,0,0,1,7.369-.014c2.029,1.172,2.018,3.076-.023,4.255a8.1,8.1,0,0,1-5.139.758c-7.533.15-9.266,3.709-9.266,3.709l0,0a3.985,3.985,0,0,1-1.776,1.835,10.42,10.42,0,0,1-9.429.017C347.293,403.251,347.306,400.813,349.918,399.305Z" transform="translate(-347.95 -356.832)" fill="#5681c1" opacity="0.22" style="mix-blend-mode: multiply;isolation: isolate"/>
          <path id="Trazado_172977" data-name="Trazado 172977" d="M353.79,404.629a19.33,19.33,0,0,0,2.854-2.68c.061.448,1.051.462,1.809.142a.512.512,0,0,0,.323-.357c.355,1.11.323,1.712-.011,2.087-.283.344-.885.453-1.465,1.071-.22.274-.65.817-1.072,1.261a3.088,3.088,0,0,1-3.546.687C352.169,406.435,352.772,405.471,353.79,404.629Z" transform="translate(-349.354 -359.436)" fill="#7793ad"/>
          <path id="Trazado_172978" data-name="Trazado 172978" d="M353.79,404.017a19.33,19.33,0,0,0,2.854-2.68c.061.448,1.051.462,1.809.142a.512.512,0,0,0,.323-.357c.355,1.11.323,1.713-.011,2.087-.283.344-.885.453-1.465,1.071-.22.274-.65.817-1.072,1.261a3.088,3.088,0,0,1-3.546.687C352.169,405.823,352.772,404.86,353.79,404.017Z" transform="translate(-349.354 -359.247)" fill="#9fbad6"/>
          <path id="Trazado_172979" data-name="Trazado 172979" d="M355.272,345.7a8.592,8.592,0,0,1,1.31-3.5c-.015-.434,2.1-2.151,4.759-1.522a4.913,4.913,0,0,1,1.688.762c1.6,1.122,1.279,3.056.8,5.081-.312,1.3-2.683,19.613-2.619,21.754.029.966-1.484,14.5-1.489,14.52a.715.715,0,0,1-.38.469,2.086,2.086,0,0,1-1.883,0,.712.712,0,0,1-.375-.454c-.083-.132-1.084-11.854-1.532-17.8-.029-.42-.059-.809-.083-1.166v0c-.064-.854-.107-1.507-.122-1.878A90.689,90.689,0,0,1,355.272,345.7Z" transform="translate(-350.115 -340.533)" fill="#273a49"/>
          <path id="Trazado_172980" data-name="Trazado 172980" d="M378.646,396.038a6.193,6.193,0,0,0,.818-3.418c.46.481,1.248.041,1.538-.326s-.023-.1.1-.431a1.576,1.576,0,0,1,1.29.845.519.519,0,0,1,.084.276,3.366,3.366,0,0,1-.676,1.709c-.375.669.1,1.136-.719,1.989-.861.9-1.927,1.781-2.621,1.4C377.394,397.5,378.355,396.636,378.646,396.038Z" transform="translate(-357.222 -356.386)" fill="#7793ad"/>
          <path id="Trazado_172981" data-name="Trazado 172981" d="M360.3,386.759a2.244,2.244,0,0,1-.417.046c-.037,0-.075,0-.113,0s-.088-.011-.133-.015c1.655-.913.915-16.1.2-19.425-.352-1.634,0-4.779.47-8.445.911-7.112-.146-7.593-.146-7.593l4.547,2.267c-.8,5.821-2.1,16.412-2.056,18.009.029.966-1.484,14.5-1.489,14.52a.713.713,0,0,1-.38.468,1.574,1.574,0,0,1-.391.149C360.359,386.744,360.33,386.752,360.3,386.759Z" transform="translate(-351.56 -343.865)" fill="#3e6593" opacity="0.28" style="mix-blend-mode: multiply;isolation: isolate"/>
          <path id="Trazado_172982" data-name="Trazado 172982" d="M378.2,395.369a6.2,6.2,0,0,0,.817-3.419c.46.482,1.248.042,1.538-.325s.12-.547.241-.878c.844-.055,1.223,1.42,1.224,1.428a3.175,3.175,0,0,1-.668,1.85c-.375.669.1,1.136-.72,1.988-.861.9-2.006,1.9-2.7,1.52C376.868,396.948,377.907,395.968,378.2,395.369Z" transform="translate(-357.065 -356.042)" fill="#9fbad6"/>
        </g>
        <path id="Trazado_172983" data-name="Trazado 172983" d="M356.889,326.585c.09.436.815.9,1.552.957.763.054,1.415-.252,1.535-.7l.017-.154.309-1.507a.252.252,0,0,0,0-.064V325l.113-14.692a2.2,2.2,0,0,0-4.394-.032c0,.049,0,.108,0,.157l.8,13.473.079,2.416Z" transform="translate(-350.444 -295.294)" fill="#ffa89c"/>
        <path id="Trazado_172984" data-name="Trazado 172984" d="M359.063,308.775c-.467-.654-1.808-1.456-3.123.4s.136,7.327.136,7.327c.073.583,1.176.927,2.465.767s2.276-.762,2.2-1.345C360.746,315.92,360.384,310.624,359.063,308.775Z" transform="translate(-350.248 -295.274)" fill="#cde7fc"/>
        <path id="Trazado_172985" data-name="Trazado 172985" d="M362.783,326.836a2.232,2.232,0,0,1-.294.039c1.247-1.561-2.343-6.809-5.057-12.239-.825-1.65.088-4.715.754-6.5a2.2,2.2,0,0,1,1.779,1.579l3.913,14.162.033.118a.273.273,0,0,1,.015.062l.115,1.534.026.153C364.075,326.206,363.532,326.679,362.783,326.836Z" transform="translate(-350.777 -295.308)" fill="#7daaea" opacity="0.25" style="mix-blend-mode: multiply;isolation: isolate"/>
        <g id="Grupo_118752" data-name="Grupo 118752" transform="translate(10.097 30.108)" opacity="0.28" style="mix-blend-mode: multiply;isolation: isolate">
          <path id="Trazado_172986" data-name="Trazado 172986" d="M365.864,333.137a2.17,2.17,0,0,1-.792.394,6.035,6.035,0,0,1-.867.2,3.4,3.4,0,0,1-.874.062,1.028,1.028,0,0,1-.771-.346.939.939,0,0,0,.751.5,2.9,2.9,0,0,0,.928-.022,4.357,4.357,0,0,0,.884-.252A1.631,1.631,0,0,0,365.864,333.137Z" transform="translate(-362.56 -333.137)" fill="#3e6593"/>
        </g>
        <path id="Trazado_172987" data-name="Trazado 172987" d="M356.058,308.906a1.959,1.959,0,0,1,2.2-.748,20.813,20.813,0,0,1,11.015,6.147,2.283,2.283,0,0,1,.537,1.868c-.415,2.557-3.739,11.454-1.7,15.613.43.874-.511,1.959-1.8,2.7a9.411,9.411,0,0,1-5.538.982l0,.038c-.054-.017-.105-.042-.159-.06a8.09,8.09,0,0,1-3-.944,2.923,2.923,0,0,1-1.771-2.68c-.033.193.176-1.069.433-2.705.6-3.8.126-3.541-1.18-6.81-.087-.218-.656-.728-1.026-1.286a4.213,4.213,0,0,1-.472-1.1c-.378-.988.556-4.42,1.7-7.6C355.606,311.483,355.674,309.468,356.058,308.906Z" transform="translate(-349.67 -295.294)" fill="#cde7fc"/>
        <g id="Grupo_118753" data-name="Grupo 118753" transform="translate(3.737 13.056)">
          <path id="Trazado_172988" data-name="Trazado 172988" d="M354.033,320.359l-.675-.151c.1-.441,2.491-10.8,8.726-11.742l.1.683C356.415,310.017,354.056,320.255,354.033,320.359Z" transform="translate(-353.358 -308.465)" fill="#273a49"/>
        </g>
        <path id="Trazado_172989" data-name="Trazado 172989" d="M367.654,310.81l0,0c0-.026-.014-.046-.021-.07s-.01-.052-.018-.076h0a1.162,1.162,0,0,0-.768-.668l.073.818c.014.023.026.038.039.055h0c1.068,3.4-5.926,12.475-6,12.566l.546.424C361.8,323.478,368.612,314.639,367.654,310.81Z" transform="translate(-351.969 -295.882)" fill="#273a49"/>
        <path id="Trazado_172990" data-name="Trazado 172990" d="M359.214,328.614a9.361,9.361,0,0,0-3.425-1.561c-.194-.435-.422-.949-.686-1.608,0-.01-.014-.023-.02-.035a7.154,7.154,0,0,0-.814-1.113,6.484,6.484,0,0,1-.659-1.222l0-.015a2.4,2.4,0,0,1-.071-.94c.563,3.94,7.993,6.933,11.219-.467,1.364-3.129,2.727-3.47,4.154-3.411.536.046.706.119.9.332v.008a2.364,2.364,0,0,1,.026.321c0,.023,0,.048,0,.072a2.277,2.277,0,0,1-.026.335c0,.013-.006.029-.008.042-.443,2.61-3.72,11.432-1.688,15.568.429.875-.512,1.959-1.8,2.7a8.778,8.778,0,0,1-4.063,1.042h-.014c-.152,0-.3,0-.455,0-.526-.017-3.221,1.337-3.687,1.21C362.609,340.021,358.289,333.8,359.214,328.614Z" transform="translate(-349.672 -298.427)" fill="#3e6593" opacity="0.42" style="mix-blend-mode: multiply;isolation: isolate"/>
        <path id="Trazado_172991" data-name="Trazado 172991" d="M373.287,370.263c-.068-.229-2.212-7.515-2.968-10.045-.795-2.666-2.322-1.831-1.619-12.567.045-.684.195-1.766.244-2.727a18.182,18.182,0,0,0-.218-4.029h0a15.627,15.627,0,0,0-.748-3.376,34.232,34.232,0,0,1-.772-5.09c-.887,2.269-3.922,3.044-3.922,3.044a2.92,2.92,0,0,1-3.277-.276c-.626-.468-.607-3.86-.564-5.424a3.29,3.29,0,0,0-1.272-2.765,3.378,3.378,0,0,0-.292-.191l-4.082-2.374a.69.69,0,0,0-1.037.574l1.985,9.7a18.659,18.659,0,0,1-.045,5.841c0,.006,5.136,2.841,5.859,4.159l0,.016,2.722,12.6.107.507a1.223,1.223,0,0,0,.18.415s4.182,7.7,6.139,11.051c.82,1.41,1.405,2.415,1.41,2.42.263.356.946.3,1.536-.122C373.2,371.21,373.467,370.629,373.287,370.263Z" transform="translate(-349.436 -300.315)" fill="#273a49"/>
        <path id="Trazado_172992" data-name="Trazado 172992" d="M377.05,373.874c-.068-.229-2.212-7.515-2.968-10.045-.795-2.666-2.322-1.831-1.619-12.567.045-.684.195-1.766.244-2.727a18.186,18.186,0,0,0-.218-4.029h0a15.624,15.624,0,0,0-.748-3.376,34.235,34.235,0,0,1-.772-5.09c-.887,2.269-3.922,3.044-3.922,3.044a2.977,2.977,0,0,1-2.1.293,14.035,14.035,0,0,0,4.466,6.391,3.8,3.8,0,0,1,1.287,1.742c.932,2.791-.855,9.241.38,14.009.326,1.257,1.6,3.462,4.037,10.078a11.569,11.569,0,0,1,.361,3.973,1.772,1.772,0,0,0,.943-.353C376.967,374.821,377.23,374.241,377.05,373.874Z" transform="translate(-353.2 -303.926)" fill="#3e6593" opacity="0.28" style="mix-blend-mode: multiply;isolation: isolate"/>
        <g id="Grupo_118756" data-name="Grupo 118756" transform="translate(2.48 32.054)">
          <g id="Grupo_118754" data-name="Grupo 118754" transform="translate(0 12.145)">
            <path id="Trazado_172993" data-name="Trazado 172993" d="M352.235,353.621a1.526,1.526,0,0,1,.693,1.2c0,.44-.313.618-.7.4a1.528,1.528,0,0,1-.692-1.2C351.539,353.578,351.851,353.4,352.235,353.621Z" transform="translate(-351.538 -353.526)" fill="#364e70"/>
          </g>
          <g id="Grupo_118755" data-name="Grupo 118755" transform="translate(0.431 12.698)">
            <path id="Trazado_172994" data-name="Trazado 172994" d="M352.426,354.363a.581.581,0,0,1,.263.457c0,.167-.119.235-.265.151a.581.581,0,0,1-.263-.456C352.162,354.346,352.28,354.279,352.426,354.363Z" transform="translate(-352.161 -354.327)" fill="#8092a8"/>
          </g>
          <path id="Trazado_172995" data-name="Trazado 172995" d="M358.909,349.82v-.034l0-.034,0-.034,0-.035h0l-.006-.034-.007-.036-.009-.037-.01-.037-.008-.028V349.5l-.012-.036-.012-.035-.012-.035-.014-.033-.01-.026v0l0-.006-.015-.033-.018-.037-.021-.041-.025-.044,0-.008-.006-.009c-.016-.028-.033-.055-.051-.082l-.044-.063h0c-.01-.014-.02-.027-.03-.04l-.027-.033-.027-.032-.027-.03-.006-.006,0,0-.021-.021-.03-.029-.03-.028-.031-.027-.015-.013,0,0-.012-.01-.031-.023-.03-.022-.03-.019-.03-.018-.007,0-.021-.012-.029-.014-.028-.013-.028-.012-.028-.01-.006,0h0l-.02-.006-.028-.008-.028-.006-.03,0-.021,0h-.079l-.04.006h0a.324.324,0,0,0-.046.012.3.3,0,0,0-.056.026l-5.938,3.45a.192.192,0,0,1,.024-.009.481.481,0,0,1,.5.041,1.526,1.526,0,0,1,.693,1.2.489.489,0,0,1-.194.437l5.9-3.427a.343.343,0,0,0,.076-.063c.007-.008.012-.016.019-.023s.018-.019.026-.031a.518.518,0,0,0,.026-.048v0c.006-.011.01-.023.015-.035s.008-.024.012-.037.007-.023.01-.035l0-.015v0l0-.015c0-.011,0-.022.006-.033l0-.033v-.1Z" transform="translate(-351.615 -339.846)" fill="#4b77aa"/>
          <path id="Trazado_172996" data-name="Trazado 172996" d="M357.722,350.585a4.669,4.669,0,0,0-.6-.105,4.2,4.2,0,0,0-.6-.03,2.118,2.118,0,0,0-1.194.327.191.191,0,0,0,.182.334l.017-.007a1.659,1.659,0,0,1,.945-.036,3.7,3.7,0,0,1,.491.135,3.891,3.891,0,0,1,.462.189.432.432,0,0,0,.391-.771.445.445,0,0,0-.088-.033Z" transform="translate(-352.684 -340.431)" fill="#ffa89c"/>
          <path id="Trazado_172997" data-name="Trazado 172997" d="M366.415,336.411a1.694,1.694,0,0,0-2.395.08,1.8,1.8,0,0,0-.182.232l-5.645,8.66a7.082,7.082,0,0,0-.86.517,2.888,2.888,0,0,0-1.007,1.364,3.27,3.27,0,0,1-1.077,1.77c-.008.006,1.95-.1,2.065-.139a4.806,4.806,0,0,0,1.909-1.944c.021-.047.246-.548.323-.714L366.5,338.8A1.7,1.7,0,0,0,366.415,336.411Z" transform="translate(-352.684 -335.954)" fill="#ffa89c"/>
        </g>
        <path id="Trazado_172998" data-name="Trazado 172998" d="M369.253,320.8l-2.172,9.641a.692.692,0,0,1-.1.222l-2.272,3.626a2.444,2.444,0,0,0,.813,1.167,2.537,2.537,0,0,0,1.35.506l3.065-3.183a1.591,1.591,0,0,0,.382-.668l.041-.161,3.482-11.523a2.489,2.489,0,0,0-.258-1.9,1.476,1.476,0,0,0-1.371-.566,4,4,0,0,0-2.822,2.256Z" transform="translate(-353.126 -298.339)" fill="#ffa89c"/>
        <g id="Grupo_118757" data-name="Grupo 118757" transform="translate(18.439 32.85)">
          <path id="Trazado_172999" data-name="Trazado 172999" d="M374.9,337.142c-.161-.021-.267-.037-.267-.037S374.735,337.118,374.9,337.142Z" transform="translate(-374.629 -337.105)" fill="#7baeff" opacity="0.15" style="mix-blend-mode: multiply;isolation: isolate"/>
        </g>
        <path id="Trazado_173000" data-name="Trazado 173000" d="M363.275,309.172c.034-1.622.138-4.6.451-4.779a3.365,3.365,0,0,1,3.043-.006c.281.163.567,3.288.7,4.836.782.605.7,1.466-.255,2.019a4.193,4.193,0,0,1-3.794.007C362.441,310.681,362.4,309.782,363.275,309.172Z" transform="translate(-352.491 -294.038)" fill="#e29191"/>
        <g id="Grupo_118758" data-name="Grupo 118758" transform="translate(16.099 31.112)">
          <path id="Trazado_173001" data-name="Trazado 173001" d="M371.244,334.591Z" transform="translate(-371.244 -334.591)" fill="#32425b"/>
        </g>
        <path id="Trazado_173002" data-name="Trazado 173002" d="M367.641,299.28c.126,4.477-4.745,5.889-5.663,5.8-1.278-.122-2.031-2.436-2.234-5.249s1.265-5.211,3.279-5.357S367.561,296.461,367.641,299.28Z" transform="translate(-351.587 -291.087)" fill="#ffa89c"/>
        <path id="Trazado_173003" data-name="Trazado 173003" d="M363.319,294.677l1.863.276a5.109,5.109,0,0,1,2.46,4.447,5.565,5.565,0,0,1-4.249,5.607c2.651-.981,2.54-2.712,2.046-4.9-.78-3.452-4.762-3.089-4.762-3.089l.762-1.042A3.183,3.183,0,0,1,363.319,294.677Z" transform="translate(-351.881 -291.151)" fill="#965f7e" opacity="0.18" style="mix-blend-mode: multiply;isolation: isolate"/>
        <g id="Grupo_118759" data-name="Grupo 118759" transform="translate(6.852)">
          <path id="Trazado_173004" data-name="Trazado 173004" d="M369.117,306.615l.017-.009C369.12,306.621,369.117,306.615,369.117,306.615Z" transform="translate(-361.34 -294.835)" fill="#32425b"/>
          <path id="Trazado_173005" data-name="Trazado 173005" d="M371.449,292.612a3.027,3.027,0,0,0-5.267-2.046.979.979,0,0,0-.1-.013c-2.076-1.042-4.577-.648-7.036,2.285-.089.106-.176.227-.262.352a1.457,1.457,0,0,0-.9,1.6,1.828,1.828,0,0,0,1.409,1.617,1.562,1.562,0,0,1,.984-1.254c1.245-.507,3.133.523,3.9,1.223,1.127,1.03,1.345.859,1.744,1.433,0-.011,0-.025,0-.036a2.093,2.093,0,0,1,.493,1.277,2.369,2.369,0,0,1-.073.953,9.389,9.389,0,0,0-.27,1.209l0,.031a10.7,10.7,0,0,0,3.839-5.923l.016-.015c0-.023,0-.045-.008-.068A3.023,3.023,0,0,0,371.449,292.612Z" transform="translate(-357.865 -289.575)" fill="#32425b"/>
        </g>
        <g id="Grupo_118762" data-name="Grupo 118762" transform="translate(14.618 11.783)">
          <path id="Trazado_173006" data-name="Trazado 173006" d="M369.135,307.237h.006A.006.006,0,0,1,369.135,307.237Z" transform="translate(-369.112 -306.813)" fill="#2b3b51"/>
          <g id="Grupo_118761" data-name="Grupo 118761">
            <g id="Grupo_118760" data-name="Grupo 118760">
              <path id="Trazado_173007" data-name="Trazado 173007" d="M369.1,306.624h.006S369.1,306.624,369.1,306.624Z" transform="translate(-369.101 -306.624)" fill="#2b3b51"/>
            </g>
            <rect id="Rectángulo_37099" data-name="Rectángulo 37099" transform="translate(0.03 0.424)" fill="#2b3b51"/>
          </g>
        </g>
        <path id="Trazado_173008" data-name="Trazado 173008" d="M370.331,302.359c.387-.443.466-1.006.178-1.258s-.836-.1-1.223.345.062.336-.178,1.258C369.011,303.075,369.943,302.8,370.331,302.359Z" transform="translate(-354.483 -293.097)" fill="#ffa89c"/>
        <path id="Trazado_173009" data-name="Trazado 173009" d="M369.108,302.852c.241-.922-.209-.815.178-1.258l.017-.016.921-.118a1.059,1.059,0,0,0-.708.775c-.136.8.691.328.691.328s-.01.034-.021.079C369.751,303,369.022,303.182,369.108,302.852Z" transform="translate(-354.483 -293.246)" fill="#965f7e" opacity="0.18" style="mix-blend-mode: multiply;isolation: isolate"/>
      </g>
      <path id="Trazado_173010" data-name="Trazado 173010" d="M375.42,318.757c-.171-.785-1.084-2.052-3.024-.872s-2.774,6.783-2.774,6.783c-.164.564.713,1.316,1.961,1.679s2.391.2,2.556-.363C374.139,325.985,375.9,320.978,375.42,318.757Z" transform="translate(-27.303 -8.595)" fill="#cde7fc"/>
      <g id="Grupo_118763" data-name="Grupo 118763" transform="translate(316.192 334.402)">
        <path id="Trazado_173011" data-name="Trazado 173011" d="M332.449,381.48l-.621-.3,12.006-24.54a5.337,5.337,0,0,1,2.008-2.153h0l.055-.032.028-.017.347.6-.025.015a4.7,4.7,0,0,0-1.79,1.892Z" transform="translate(-331.828 -354.435)" fill="#8092a8"/>
      </g>
      <g id="Grupo_118774" data-name="Grupo 118774" transform="translate(281.203 335.932)">
        <g id="Grupo_118772" data-name="Grupo 118772">
          <path id="Trazado_173012" data-name="Trazado 173012" d="M339.816,418.117l-11.883-6.86L301.5,426.518l6.36,3.672a7.757,7.757,0,0,0,3.88,1.039h6.476a7.756,7.756,0,0,0,3.88-1.039l17.72-10.23A1.064,1.064,0,0,0,339.816,418.117Z" transform="translate(-287.472 -373.514)" fill="#5681c1" opacity="0.22" style="mix-blend-mode: multiply;isolation: isolate"/>
          <path id="Trazado_173013" data-name="Trazado 173013" d="M297.376,415.1l.909,13.18-12.52-7.229-2.8-14.272Z" transform="translate(-281.747 -372.133)" fill="#c2d7f2"/>
          <path id="Trazado_173014" data-name="Trazado 173014" d="M325.641,391.493l-28.266,16.319-14.412-8.321,28.266-16.319Z" transform="translate(-281.747 -364.84)" fill="#cde7fc"/>
          <path id="Trazado_173015" data-name="Trazado 173015" d="M324.876,392.109l-26.434,15.262-13.478-7.782L311.4,384.327Z" transform="translate(-282.365 -365.197)" fill="#86a3bf"/>
          <path id="Trazado_173016" data-name="Trazado 173016" d="M323.193,384.335V399.9l13.491-7.789-13.478-7.782Z" transform="translate(-294.172 -365.197)" fill="#c2d7f2"/>
          <g id="bottle" transform="translate(26.446 20.095)">
            <path id="Trazado_173017" data-name="Trazado 173017" d="M325.334,402.636V389.314l-5.839-.01v13.271c0,.021,0,.041,0,.061v.015h0a1.489,1.489,0,0,0,.86,1.152,4.563,4.563,0,0,0,4.129.007,1.455,1.455,0,0,0,.848-1.157h0Z" transform="translate(-319.476 -386.829)" fill="#b9d3ea"/>
            <path id="Trazado_173018" data-name="Trazado 173018" d="M320.357,391.59a1.456,1.456,0,0,1-.862-1.207v11.789a1.466,1.466,0,0,0,.862,1.188,4.561,4.561,0,0,0,4.129.008V391.6A4.561,4.561,0,0,1,320.357,391.59Z" transform="translate(-319.476 -387.162)" fill="#4b77aa"/>
            <path id="Trazado_173019" data-name="Trazado 173019" d="M326.785,402.655V389.317l-2.592,0v14.98a4.03,4.03,0,0,0,1.744-.48,1.455,1.455,0,0,0,.848-1.157Z" transform="translate(-320.927 -386.832)" fill="#6388aa" opacity="0.15" style="mix-blend-mode: multiply;isolation: isolate"/>
            <path id="Trazado_173020" data-name="Trazado 173020" d="M324.486,389.75a4.565,4.565,0,0,1-4.129-.008,1.259,1.259,0,0,1-.013-2.384,4.564,4.564,0,0,1,4.13.008A1.259,1.259,0,0,1,324.486,389.75Z" transform="translate(-319.476 -386.077)" fill="#e9f2ff"/>
            <g id="Grupo_118764" data-name="Grupo 118764" transform="translate(0 0.774)">
              <path id="Trazado_173021" data-name="Trazado 173021" d="M322.425,390.25a4.269,4.269,0,0,1-2.086-.5,1.478,1.478,0,0,1-.871-1.215,1.459,1.459,0,0,1,.858-1.2,4.591,4.591,0,0,1,4.148.008,1.478,1.478,0,0,1,.871,1.215,1.459,1.459,0,0,1-.858,1.2A4.221,4.221,0,0,1,322.425,390.25Zm-.037-3.37a4.179,4.179,0,0,0-2.044.487,1.424,1.424,0,0,0-.839,1.169,1.444,1.444,0,0,0,.852,1.183,4.551,4.551,0,0,0,4.111.007,1.424,1.424,0,0,0,.84-1.169,1.444,1.444,0,0,0-.853-1.183A4.226,4.226,0,0,0,322.388,386.88Z" transform="translate(-319.468 -386.843)" fill="#fafdff"/>
            </g>
            <path id="Trazado_173022" data-name="Trazado 173022" d="M324.6,389.233a2.542,2.542,0,0,1-2.3,0,.7.7,0,0,1-.008-1.328,2.543,2.543,0,0,1,2.3,0A.7.7,0,0,1,324.6,389.233Z" transform="translate(-320.194 -386.312)" fill="#3e6593" opacity="0.11" style="mix-blend-mode: multiply;isolation: isolate"/>
            <path id="Trazado_173023" data-name="Trazado 173023" d="M324.539,386.972l-2.96-.037v1.185a.735.735,0,0,0,.436.615,2.315,2.315,0,0,0,2.093,0,.724.724,0,0,0,.43-.61h0Z" transform="translate(-320.12 -386.098)" fill="#364e70"/>
            <path id="Trazado_173024" data-name="Trazado 173024" d="M325.328,388.138v-1.157l-1.195-.015v2.015a1.978,1.978,0,0,0,.764-.234.724.724,0,0,0,.43-.61Z" transform="translate(-320.909 -386.107)" fill="#6388aa" opacity="0.15" style="mix-blend-mode: multiply;isolation: isolate"/>
            <path id="Trazado_173025" data-name="Trazado 173025" d="M324.108,387.184a2.313,2.313,0,0,1-2.093,0,.638.638,0,0,1-.007-1.209,2.315,2.315,0,0,1,2.094,0A.638.638,0,0,1,324.108,387.184Z" transform="translate(-320.119 -385.723)" fill="#4b77aa"/>
          </g>
          <g id="bottle-2" data-name="bottle" transform="translate(28.7 25.45)">
            <path id="Trazado_173026" data-name="Trazado 173026" d="M328.594,410.384a.219.219,0,0,0,0-.03V397.062l-5.839-.01v13.271q0,.03,0,.06v.015h0a1.489,1.489,0,0,0,.86,1.152,4.563,4.563,0,0,0,4.129.007,1.457,1.457,0,0,0,.848-1.157h0Z" transform="translate(-322.736 -394.577)" fill="#b9d3ea"/>
            <path id="Trazado_173027" data-name="Trazado 173027" d="M323.617,399.338a1.458,1.458,0,0,1-.862-1.207V409.92a1.465,1.465,0,0,0,.862,1.188,4.561,4.561,0,0,0,4.129.008v-11.77A4.563,4.563,0,0,1,323.617,399.338Z" transform="translate(-322.736 -394.91)" fill="#b3e0ff"/>
            <path id="Trazado_173028" data-name="Trazado 173028" d="M330.044,410.4v-.017a.21.21,0,0,0,0-.03V397.065l-2.592,0v14.98a4.031,4.031,0,0,0,1.744-.48,1.457,1.457,0,0,0,.848-1.157Z" transform="translate(-324.187 -394.58)" fill="#6388aa" opacity="0.15" style="mix-blend-mode: multiply;isolation: isolate"/>
            <path id="Trazado_173029" data-name="Trazado 173029" d="M327.746,397.5a4.565,4.565,0,0,1-4.129-.008,1.258,1.258,0,0,1-.013-2.384,4.566,4.566,0,0,1,4.13.008A1.259,1.259,0,0,1,327.746,397.5Z" transform="translate(-322.736 -393.825)" fill="#e9f2ff"/>
            <g id="Grupo_118765" data-name="Grupo 118765" transform="translate(0 0.774)">
              <path id="Trazado_173030" data-name="Trazado 173030" d="M325.685,398a4.269,4.269,0,0,1-2.086-.5,1.478,1.478,0,0,1-.871-1.215,1.459,1.459,0,0,1,.858-1.2,4.593,4.593,0,0,1,4.148.008,1.478,1.478,0,0,1,.871,1.215,1.458,1.458,0,0,1-.858,1.2A4.221,4.221,0,0,1,325.685,398Zm-.037-3.37a4.185,4.185,0,0,0-2.044.487,1.425,1.425,0,0,0-.84,1.169,1.446,1.446,0,0,0,.853,1.183,4.553,4.553,0,0,0,4.111.008,1.425,1.425,0,0,0,.84-1.169,1.444,1.444,0,0,0-.853-1.183A4.227,4.227,0,0,0,325.648,394.628Z" transform="translate(-322.728 -394.591)" fill="#fafdff"/>
            </g>
            <path id="Trazado_173031" data-name="Trazado 173031" d="M327.858,396.981a2.542,2.542,0,0,1-2.3,0,.7.7,0,0,1-.008-1.328,2.543,2.543,0,0,1,2.3,0A.7.7,0,0,1,327.858,396.981Z" transform="translate(-323.454 -394.06)" fill="#3e6593" opacity="0.11" style="mix-blend-mode: multiply;isolation: isolate"/>
            <path id="Trazado_173032" data-name="Trazado 173032" d="M327.8,394.72l-2.961-.037v1.185a.738.738,0,0,0,.437.615,2.315,2.315,0,0,0,2.093,0,.725.725,0,0,0,.43-.61h0Z" transform="translate(-323.38 -393.845)" fill="#4dbbff"/>
            <path id="Trazado_173033" data-name="Trazado 173033" d="M328.588,395.886V394.73l-1.195-.015v2.015a1.978,1.978,0,0,0,.764-.234.724.724,0,0,0,.43-.61Z" transform="translate(-324.169 -393.855)" fill="#6388aa" opacity="0.15" style="mix-blend-mode: multiply;isolation: isolate"/>
            <path id="Trazado_173034" data-name="Trazado 173034" d="M327.368,394.932a2.313,2.313,0,0,1-2.093,0,.638.638,0,0,1-.007-1.209,2.315,2.315,0,0,1,2.094,0A.638.638,0,0,1,327.368,394.932Z" transform="translate(-323.379 -393.471)" fill="#b3e0ff"/>
          </g>
          <g id="bottle-3" data-name="bottle" transform="translate(35.382 27.433)">
            <path id="Trazado_173035" data-name="Trazado 173035" d="M335.287,404.673v-6.564l-2.877,0v6.539a.2.2,0,0,0,0,.03v.008h0a.733.733,0,0,0,.424.567,2.248,2.248,0,0,0,2.035,0,.715.715,0,0,0,.417-.57h0Z" transform="translate(-332.401 -396.884)" fill="#b9d3ea"/>
            <path id="Trazado_173036" data-name="Trazado 173036" d="M332.834,399.23a.717.717,0,0,1-.424-.594v5.808a.722.722,0,0,0,.424.585,2.248,2.248,0,0,0,2.035,0v-5.8A2.248,2.248,0,0,1,332.834,399.23Z" transform="translate(-332.401 -397.049)" fill="#66beff" opacity="0.76"/>
            <path id="Trazado_173037" data-name="Trazado 173037" d="M336,404.682V398.11l-1.278,0v7.381a1.979,1.979,0,0,0,.86-.236.715.715,0,0,0,.417-.57Z" transform="translate(-333.116 -396.886)" fill="#6388aa" opacity="0.15" style="mix-blend-mode: multiply;isolation: isolate"/>
            <path id="Trazado_173038" data-name="Trazado 173038" d="M334.869,398.324a2.248,2.248,0,0,1-2.035,0,.62.62,0,0,1-.006-1.175,2.25,2.25,0,0,1,2.035,0A.62.62,0,0,1,334.869,398.324Z" transform="translate(-332.401 -396.514)" fill="#e9f2ff"/>
            <g id="Grupo_118766" data-name="Grupo 118766" transform="translate(0 0.381)">
              <path id="Trazado_173039" data-name="Trazado 173039" d="M333.853,398.57a2.1,2.1,0,0,1-1.028-.246.728.728,0,0,1-.429-.6.717.717,0,0,1,.422-.592,2.26,2.26,0,0,1,2.044,0,.728.728,0,0,1,.429.6.717.717,0,0,1-.422.592A2.077,2.077,0,0,1,333.853,398.57Zm-.018-1.661a2.064,2.064,0,0,0-1.007.24.7.7,0,0,0-.413.576.711.711,0,0,0,.42.583,2.241,2.241,0,0,0,2.025,0,.7.7,0,0,0,.414-.576.711.711,0,0,0-.42-.583A2.084,2.084,0,0,0,333.835,396.909Z" transform="translate(-332.397 -396.891)" fill="#fafdff"/>
            </g>
            <path id="Trazado_173040" data-name="Trazado 173040" d="M334.924,398.069a1.253,1.253,0,0,1-1.133,0,.345.345,0,0,1,0-.654,1.251,1.251,0,0,1,1.133,0A.345.345,0,0,1,334.924,398.069Z" transform="translate(-332.755 -396.629)" fill="#3e6593" opacity="0.11" style="mix-blend-mode: multiply;isolation: isolate"/>
            <path id="Trazado_173041" data-name="Trazado 173041" d="M334.895,396.955l-1.459-.019v.584a.364.364,0,0,0,.215.3,1.14,1.14,0,0,0,1.032,0,.359.359,0,0,0,.212-.3h0Z" transform="translate(-332.718 -396.524)" fill="#364e70"/>
            <path id="Trazado_173042" data-name="Trazado 173042" d="M335.284,397.53v-.57l-.589-.008v.992a.962.962,0,0,0,.377-.115.359.359,0,0,0,.212-.3Z" transform="translate(-333.107 -396.529)" fill="#6388aa" opacity="0.15" style="mix-blend-mode: multiply;isolation: isolate"/>
            <path id="Trazado_173043" data-name="Trazado 173043" d="M334.683,397.059a1.141,1.141,0,0,1-1.032,0,.314.314,0,0,1,0-.6,1.139,1.139,0,0,1,1.031,0A.314.314,0,0,1,334.683,397.059Z" transform="translate(-332.718 -396.339)" fill="#4b77aa"/>
          </g>
          <path id="Trazado_173044" data-name="Trazado 173044" d="M311.229,383.172l-28.266,16.319,14.412,8.321,28.266-16.319Zm-26.883,16.06L310.78,383.97l13.478,7.782-26.433,15.262Z" transform="translate(-281.747 -364.84)" fill="#cde7fc"/>
          <g id="Grupo_118769" data-name="Grupo 118769">
            <path id="Trazado_173045" data-name="Trazado 173045" d="M294.244,402.038l.566,8.2-7.788-4.5-1.742-8.878Z" transform="translate(-282.462 -369.068)" fill="#c2d7f2"/>
            <path id="Trazado_173046" data-name="Trazado 173046" d="M292.717,408.645c0,.281-.2.395-.444.253a.976.976,0,0,1-.444-.765c0-.281.2-.395.444-.253A.977.977,0,0,1,292.717,408.645Z" transform="translate(-284.485 -372.452)" fill="#8092a8"/>
            <path id="Trazado_173047" data-name="Trazado 173047" d="M311.826,387.351,294.244,397.5l-8.965-5.176,17.582-10.151Z" transform="translate(-282.462 -364.532)" fill="#cde7fc"/>
            <path id="Trazado_173048" data-name="Trazado 173048" d="M311.35,387.734l-16.442,9.493-8.384-4.84,16.442-9.493Z" transform="translate(-282.846 -364.754)" fill="#aec5e5"/>
            <g id="Grupo_118767" data-name="Grupo 118767">
              <path id="Trazado_173049" data-name="Trazado 173049" d="M293.93,389.284a.691.691,0,0,1-.646-.442l-12.036-31.255a.691.691,0,1,1,1.29-.5l12.036,31.255a.69.69,0,0,1-.645.939Z" transform="translate(-281.203 -356.648)" fill="#8092a8"/>
            </g>
            <path id="Trazado_173050" data-name="Trazado 173050" d="M310.3,382.9v9.681l8.392-4.845-8.384-4.84Z" transform="translate(-290.191 -364.754)" fill="#c2d7f2"/>
            <path id="Trazado_173051" data-name="Trazado 173051" d="M300.089,398.178s-.2-5.077,2.841-6.106,2.514-.914,3.4-1.894,2.612-2.808,4.244-2.139a4.614,4.614,0,0,1,2.792,2.449Z" transform="translate(-287.035 -366.299)" fill="#66beff"/>
            <g id="Grupo_118768" data-name="Grupo 118768" transform="translate(6.047 7.338)">
              <path id="Trazado_173052" data-name="Trazado 173052" d="M299.081,391.336a.346.346,0,0,1-.323-.224l-8.784-23.38a.346.346,0,0,1,.648-.243l8.783,23.379a.344.344,0,0,1-.2.444A.326.326,0,0,1,299.081,391.336Z" transform="translate(-289.952 -367.265)" fill="#273a49"/>
            </g>
            <path id="Trazado_173053" data-name="Trazado 173053" d="M303.054,382.176c-.084.2-.157.367-.236.522l8.339,4.815-16.442,9.493-8.083-4.667c-.244.087-.487.167-.731.236l8.534,4.927,17.582-10.151Z" transform="translate(-282.654 -364.532)" fill="#cde7fc"/>
            <path id="Trazado_173054" data-name="Trazado 173054" d="M314.089,399.195l1.742-9.531L298.25,399.815l.566,8.2Z" transform="translate(-286.468 -366.845)" fill="#9db7d6"/>
            <path id="Trazado_173055" data-name="Trazado 173055" d="M316.488,389.664l-2.3,13.012L303.2,409.019l-2.828-1.609Z" transform="translate(-287.124 -366.845)" fill="#9db7d6"/>
            <path id="Trazado_173056" data-name="Trazado 173056" d="M310.4,401.625c-.028-.471-.077-.914-.129-1.371a.528.528,0,0,0-.012-.065.24.24,0,0,0-.017-.033c-.133-1.145-.5-2.989-1.2-3.166-.869-.217-2.451.66-2.256,1.334,0,0,.41-.291.319.642a.426.426,0,0,0-.065.18c-.051.455-.1.9-.129,1.371l-.005.189a1.182,1.182,0,0,0,.019.222,2.8,2.8,0,0,0,.093.362c.073.228.156.44.249.657a.23.23,0,0,0,.435-.149v-.006c-.054-.207-.1-.426-.135-.634a2.292,2.292,0,0,1-.03-.3.639.639,0,0,1,.007-.1,3.036,3.036,0,0,1,.406.624.357.357,0,0,0,0,.047v0c.116.427.234.867.323,1.286l.028.146a.533.533,0,0,1,.009.115,2.3,2.3,0,0,1-.03.3c-.033.209-.082.426-.135.634v.006a.23.23,0,0,0,.435.148c.03-.069.052-.14.079-.209a.226.226,0,0,0,.123.135.23.23,0,0,0,.3-.122c.042-.1.075-.2.112-.3a.227.227,0,0,0,.091.075.23.23,0,0,0,.3-.122c.051-.12.092-.242.138-.362.006,0,.01.008.017.011a.23.23,0,0,0,.3-.122c.093-.216.176-.429.249-.657a2.964,2.964,0,0,0,.094-.362,1.312,1.312,0,0,0,.019-.222Z" transform="translate(-289.098 -369.098)" fill="#475968"/>
            <path id="Trazado_173057" data-name="Trazado 173057" d="M309.339,403.055a2.7,2.7,0,0,1-.446,1.378c.015.01.021.028.037.036a.23.23,0,0,0,.3-.122c.03-.069.052-.14.079-.209a.226.226,0,0,0,.123.135.23.23,0,0,0,.3-.122c.042-.1.075-.2.112-.3a.225.225,0,0,0,.393-.046c.051-.12.092-.242.138-.362.006,0,.01.008.017.011a.23.23,0,0,0,.3-.122c.093-.216.176-.429.249-.657a2.969,2.969,0,0,0,.094-.362,1.246,1.246,0,0,0,.019-.222l-.006-.189c-.028-.471-.077-.914-.129-1.371a.579.579,0,0,0-.012-.066c0-.012-.012-.021-.016-.032a8.713,8.713,0,0,0-.639-2.568C308.024,399.077,309.682,400.741,309.339,403.055Z" transform="translate(-289.755 -369.38)" fill="#5681c1" opacity="0.22" style="mix-blend-mode: multiply;isolation: isolate"/>
            <path id="Trazado_173058" data-name="Trazado 173058" d="M314.958,398.932c-.028-.471-.077-.914-.129-1.371a.533.533,0,0,0-.012-.065.239.239,0,0,0-.017-.033c-.133-1.145-.5-2.989-1.2-3.166-.869-.217-2.451.661-2.256,1.334,0,0,.41-.291.319.643a.426.426,0,0,0-.065.179c-.051.455-.1.9-.129,1.371l-.006.189a1.244,1.244,0,0,0,.019.221,2.788,2.788,0,0,0,.093.362c.073.228.156.44.249.657a.231.231,0,0,0,.435-.149v0c-.054-.209-.1-.426-.135-.635a2.29,2.29,0,0,1-.03-.3.639.639,0,0,1,.007-.1,3.038,3.038,0,0,1,.406.624.352.352,0,0,0,0,.047v0c.116.427.234.867.323,1.286l.028.146a.585.585,0,0,1,.008.115,2.292,2.292,0,0,1-.03.3c-.033.209-.082.426-.135.634v.005a.23.23,0,0,0,.435.148c.03-.068.052-.14.079-.209a.226.226,0,0,0,.123.135.23.23,0,0,0,.3-.122c.042-.1.075-.2.112-.3a.225.225,0,0,0,.393-.046c.051-.12.092-.242.138-.362.006,0,.01.008.017.011a.231.231,0,0,0,.3-.122c.093-.216.175-.428.248-.657a2.966,2.966,0,0,0,.094-.362,1.249,1.249,0,0,0,.019-.222Z" transform="translate(-290.507 -368.266)" fill="#475968"/>
            <path id="Trazado_173059" data-name="Trazado 173059" d="M313.9,400.362a2.7,2.7,0,0,1-.446,1.378c.014.01.021.028.037.036a.23.23,0,0,0,.3-.122c.03-.068.052-.14.079-.209a.226.226,0,0,0,.123.135.23.23,0,0,0,.3-.122c.042-.1.075-.2.112-.3a.227.227,0,0,0,.091.075.23.23,0,0,0,.3-.122c.051-.12.092-.242.138-.362.006,0,.01.008.017.011a.23.23,0,0,0,.3-.122c.093-.216.176-.428.249-.657a2.965,2.965,0,0,0,.094-.362,1.25,1.25,0,0,0,.019-.222l-.006-.189c-.028-.471-.077-.914-.129-1.371a.541.541,0,0,0-.012-.065.358.358,0,0,0-.016-.033,8.69,8.69,0,0,0-.639-2.569C312.583,396.384,314.241,398.048,313.9,400.362Z" transform="translate(-291.163 -368.548)" fill="#5681c1" opacity="0.22" style="mix-blend-mode: multiply;isolation: isolate"/>
          </g>
          <path id="Trazado_173060" data-name="Trazado 173060" d="M292.173,408.443l7.967,10.188.106,2.277-9.086-11.779Z" transform="translate(-284.279 -372.645)" fill="#5681c1" opacity="0.22" style="mix-blend-mode: multiply;isolation: isolate"/>
          <g id="Grupo_118770" data-name="Grupo 118770" transform="translate(19.928 50.513)">
            <path id="Trazado_173061" data-name="Trazado 173061" d="M310.036,434.873c0,1.447,1.022,2.03,2.284,1.3a5.03,5.03,0,0,0,2.283-3.938c0-1.447-1.022-2.03-2.283-1.3A5.032,5.032,0,0,0,310.036,434.873Z" transform="translate(-310.036 -430.008)" fill="#1f3242"/>
            <path id="Trazado_173062" data-name="Trazado 173062" d="M316.111,431.213l-2.581-1.479-.484,1.3s2.821,1.44,2.8,1.406S316.111,431.213,316.111,431.213Z" transform="translate(-310.966 -429.734)" fill="#1f3242"/>
            <path id="Trazado_173063" data-name="Trazado 173063" d="M311.083,437.667l1.232.708,1.67-2.609-2.64-.962Z" transform="translate(-310.359 -431.3)" fill="#1f3242"/>
            <path id="Trazado_173064" data-name="Trazado 173064" d="M311.86,435.923c0,1.447,1.023,2.03,2.284,1.3a5.032,5.032,0,0,0,2.284-3.939c0-1.447-1.022-2.03-2.284-1.3A5.031,5.031,0,0,0,311.86,435.923Z" transform="translate(-310.599 -430.332)" fill="#283d4f"/>
            <path id="Trazado_173065" data-name="Trazado 173065" d="M313.065,435.92c0,.919.65,1.29,1.451.827a3.2,3.2,0,0,0,1.451-2.5c0-.92-.65-1.29-1.451-.827A3.2,3.2,0,0,0,313.065,435.92Z" transform="translate(-310.972 -430.81)" fill="#618cad"/>
            <path id="Trazado_173066" data-name="Trazado 173066" d="M314.2,435.917c0,.422.3.592.665.379a1.465,1.465,0,0,0,.665-1.147c0-.422-.3-.592-.665-.379A1.466,1.466,0,0,0,314.2,435.917Z" transform="translate(-311.323 -431.261)" fill="#283d4f"/>
            <path id="Trazado_173067" data-name="Trazado 173067" d="M313.065,435.92c0,.919.65,1.29,1.451.827a3.2,3.2,0,0,0,1.451-2.5c0-.92-.65-1.29-1.451-.827A3.2,3.2,0,0,0,313.065,435.92Z" transform="translate(-310.972 -430.81)" fill="none" stroke="#1f3242" stroke-miterlimit="10" stroke-width="0.666"/>
          </g>
          <g id="Grupo_118771" data-name="Grupo 118771" transform="translate(33.347 42.726)">
            <path id="Trazado_173068" data-name="Trazado 173068" d="M329.453,423.6c0,1.447,1.022,2.03,2.284,1.3a5.032,5.032,0,0,0,2.284-3.939c0-1.447-1.022-2.03-2.284-1.3A5.029,5.029,0,0,0,329.453,423.6Z" transform="translate(-329.453 -418.741)" fill="#1f3242"/>
            <path id="Trazado_173069" data-name="Trazado 173069" d="M335.528,419.946l-2.581-1.479-.484,1.3s2.821,1.44,2.8,1.406S335.528,419.946,335.528,419.946Z" transform="translate(-330.383 -418.467)" fill="#1f3242"/>
            <path id="Trazado_173070" data-name="Trazado 173070" d="M330.5,426.4l1.232.708,1.67-2.609-2.64-.962Z" transform="translate(-329.776 -420.033)" fill="#1f3242"/>
            <path id="Trazado_173071" data-name="Trazado 173071" d="M331.278,424.655c0,1.447,1.022,2.03,2.283,1.3a5.031,5.031,0,0,0,2.284-3.939c0-1.447-1.022-2.029-2.284-1.3A5.032,5.032,0,0,0,331.278,424.655Z" transform="translate(-330.017 -419.065)" fill="#283d4f"/>
            <path id="Trazado_173072" data-name="Trazado 173072" d="M332.482,424.653c0,.919.65,1.29,1.451.827a3.2,3.2,0,0,0,1.451-2.5c0-.919-.65-1.29-1.451-.827A3.2,3.2,0,0,0,332.482,424.653Z" transform="translate(-330.389 -419.543)" fill="#618cad"/>
            <path id="Trazado_173073" data-name="Trazado 173073" d="M333.619,424.65c0,.422.3.591.665.379a1.465,1.465,0,0,0,.666-1.147c0-.422-.3-.591-.666-.379A1.466,1.466,0,0,0,333.619,424.65Z" transform="translate(-330.74 -419.994)" fill="#283d4f"/>
            <path id="Trazado_173074" data-name="Trazado 173074" d="M332.482,424.653c0,.919.65,1.29,1.451.827a3.2,3.2,0,0,0,1.451-2.5c0-.919-.65-1.29-1.451-.827A3.2,3.2,0,0,0,332.482,424.653Z" transform="translate(-330.389 -419.543)" fill="none" stroke="#1f3242" stroke-miterlimit="10" stroke-width="0.666"/>
          </g>
          <path id="Trazado_173075" data-name="Trazado 173075" d="M329.28,410.534l2.8-15.322-28.266,16.319.909,13.18Z" transform="translate(-288.187 -368.558)" fill="#9db7d6"/>
        </g>
        <g id="Grupo_118773" data-name="Grupo 118773" transform="translate(6.733 31.093)">
          <path id="Trazado_173076" data-name="Trazado 173076" d="M300.694,419.257a.345.345,0,0,1-.272-.132l-9.4-11.951a.346.346,0,0,1,.08-.5l.587-.393a.346.346,0,1,1,.384.575l-.276.185,8.988,11.422,26.583-15.209-.736-1.078a.346.346,0,0,1,.571-.391l.947,1.388a.35.35,0,0,1,.051.273.344.344,0,0,1-.165.222l-27.167,15.542A.342.342,0,0,1,300.694,419.257Z" transform="translate(-290.945 -401.636)" fill="#8092a8"/>
        </g>
        <path id="Trazado_173077" data-name="Trazado 173077" d="M332.275,411.236c0,.457-.323.641-.721.411a1.589,1.589,0,0,1-.721-1.244c0-.457.323-.641.721-.411A1.588,1.588,0,0,1,332.275,411.236Z" transform="translate(-296.532 -373.093)" fill="#475968"/>
        <path id="Trazado_173078" data-name="Trazado 173078" d="M319.737,416.655l8.571-4.922-1.078-1.739-8.571,4.9Z" transform="translate(-292.772 -373.124)" fill="#475968"/>
        <path id="Trazado_173079" data-name="Trazado 173079" d="M319.8,418.394c0,.457-.323.641-.722.411a1.588,1.588,0,0,1-.721-1.243c0-.457.323-.641.721-.411A1.588,1.588,0,0,1,319.8,418.394Z" transform="translate(-292.679 -375.304)" fill="#5d7084"/>
        <path id="Trazado_173080" data-name="Trazado 173080" d="M319.286,418.393a.6.6,0,0,0-.274-.471c-.125-.073-.226-.032-.259.081l-.615.352.254.655.749-.424,0,0C319.225,418.578,319.286,418.513,319.286,418.393Z" transform="translate(-292.611 -375.561)" fill="#8092a8"/>
      </g>
    </g>
  </g>
</svg>
