<svg xmlns="http://www.w3.org/2000/svg" width="27.74" height="36" viewBox="0 0 27.74 36">
  <g id="Grupo_119336" data-name="Grupo 119336" transform="translate(-159.54 -680.444)">
    <path id="Trazado_174171" data-name="Trazado 174171" d="M173.9,680.444c.176.052.355.1.528.159a3.31,3.31,0,0,1,2.275,2.544c.057.261.159.307.394.307q4.236-.01,8.472,0a1.515,1.515,0,0,1,1.639,1.043,1.485,1.485,0,0,1-1.321,1.938c-.129.008-.258.007-.387.007q-12.092,0-24.185,0a2.7,2.7,0,0,1-.7-.06,1.489,1.489,0,0,1,.415-2.922c2.8-.008,5.6,0,8.4,0a1.244,1.244,0,0,0,.384-.009c.1-.036.243-.134.265-.228A3.352,3.352,0,0,1,172.8,680.5a.55.55,0,0,0,.12-.06Z" fill="#5c22c3"/>
    <path id="Trazado_174172" data-name="Trazado 174172" d="M195.487,760.53h20.948c.008.116.022.218.022.32,0,6.877-.013,13.753.009,20.63a2.63,2.63,0,0,1-3.59,2.518,3.569,3.569,0,0,1-.958-.635c-1.864-1.623-3.714-3.262-5.569-4.9-.121-.107-.245-.21-.387-.332l-2.257,1.982c-1.3,1.144-2.595,2.3-3.91,3.429a2.59,2.59,0,0,1-3.439-.013,2.5,2.5,0,0,1-.882-1.846c0-.035,0-.07,0-.105q0-10.42,0-20.841C195.472,760.685,195.48,760.627,195.487,760.53Z" transform="translate(-32.556 -72.564)" fill="#5c22c3"/>
    <path id="Trazado_174173" data-name="Trazado 174173" d="M271.048,979.869c1.081.951,2.116,1.9,3.2,2.793a1.36,1.36,0,0,1,.558,1.248c-.048.863-.009,1.731-.014,2.6a1.134,1.134,0,0,1-1.249,1.235q-2.493,0-4.986,0a1.131,1.131,0,0,1-1.251-1.232q-.008-1.545,0-3.09a.512.512,0,0,1,.106-.345C268.608,982.009,269.814,980.954,271.048,979.869Z" transform="translate(-97.638 -271.3)" fill="#5c22c3"/>
  </g>
</svg>
