<svg xmlns="http://www.w3.org/2000/svg" xmlns:xlink="http://www.w3.org/1999/xlink" width="1332.998" height="27252" viewBox="0 0 1332.998 27252">
  <defs>
    <linearGradient id="linear-gradient" x1="1.161" y1="-0.427" x2="-0.067" y2="1.078" gradientUnits="objectBoundingBox">
      <stop offset="0" stop-color="#d8ccec"/>
      <stop offset="1" stop-color="#d9edfc"/>
    </linearGradient>
  </defs>
  <g id="Grupo_119351" data-name="Grupo 119351" transform="translate(-133.667 -240)">
    <rect id="Rectángulo_575" data-name="Rectángulo 575" width="1328" height="27252" rx="20" transform="translate(136 240)" fill="#fff"/>
    <path id="Trazado_157627" data-name="Trazado 157627" d="M7338.146,3561.289s115.152,61.542,202.768,13.816,71.344-97.967,132.672-110.528,82.609,67.824,241.568,72.846,158.957,100.479,315.412,90.432c105.191-6.756,112.648-111.782,229.053-113.039s183.99,72.847,211.525,111.783V1886.517H7340.956S7338.146,3560.033,7338.146,3561.289Z" transform="translate(-7204.479 8192.616)" opacity="0.64" fill="url(#linear-gradient)"/>
    <path id="Trazado_170655" data-name="Trazado 170655" d="M7338.146,3561.289s115.152,61.542,202.768,13.816,71.344-97.967,132.672-110.528,82.609,67.824,241.568,72.846,158.957,100.479,315.412,90.432c105.191-6.756,112.648-111.782,229.053-113.039s183.99,72.847,211.525,111.783V1886.517H7340.956S7338.146,3560.033,7338.146,3561.289Z" transform="translate(-7204.479 3729.904)" opacity="0.64" fill="url(#linear-gradient)"/>
    <path id="Trazado_170654" data-name="Trazado 170654" d="M7338.146,3561.289s115.152,61.542,202.768,13.816,71.344-97.967,132.672-110.528,82.609,67.824,241.568,72.846,158.957,100.479,315.412,90.432c105.191-6.756,112.648-111.782,229.053-113.039s183.99,72.847,211.525,111.783V1886.517H7340.956S7338.146,3560.033,7338.146,3561.289Z" transform="translate(8804.812 5145.556) rotate(180)" opacity="0.64" fill="url(#linear-gradient)"/>
    <path id="Trazado_173349" data-name="Trazado 173349" d="M7338.146,3522.392s115.152,60.112,202.768,13.5,71.344-95.692,132.672-107.961,82.609,66.249,241.568,71.155,158.957,98.145,315.412,88.332c105.191-6.6,112.648-109.186,229.053-110.413s183.99,71.155,211.525,109.187V1886.517H7340.956S7338.146,3521.165,7338.146,3522.392Z" transform="translate(-7204.479 20619.865)" opacity="0.64" fill="url(#linear-gradient)"/>
  </g>
</svg>
