<svg id="Grupo_119407" data-name="Grupo 119407" xmlns="http://www.w3.org/2000/svg" width="91.573" height="58.442" viewBox="0 0 91.573 58.442">
  <path id="Trazado_174208" data-name="Trazado 174208" d="M6.207,0h79.16a6.207,6.207,0,0,1,6.207,6.207V35.986A22.457,22.457,0,0,1,69.116,58.442H22.457A22.457,22.457,0,0,1,0,35.985V6.207A6.207,6.207,0,0,1,6.207,0Z" fill="#fff505"/>
  <path id="Trazado_174207" data-name="Trazado 174207" d="M-1.6-11.04q0,5.474-2.458,8.442A8.5,8.5,0,0,1-10.984.371a8.541,8.541,0,0,1-6.977-2.987Q-20.429-5.6-20.429-11.04v-4.936q0-5.474,2.458-8.442a8.517,8.517,0,0,1,6.949-2.969A8.52,8.52,0,0,1-4.063-24.4Q-1.6-21.412-1.6-15.957Zm-6.253-5.733a9.635,9.635,0,0,0-.761-4.351,2.543,2.543,0,0,0-2.412-1.438,2.483,2.483,0,0,0-2.347,1.336,9.077,9.077,0,0,0-.789,4.045v6.9A9.708,9.708,0,0,0-13.4-5.854a2.553,2.553,0,0,0,2.412,1.4A2.518,2.518,0,0,0-8.628-5.817a9.268,9.268,0,0,0,.779-4.277Zm15.215.649h2.95q3.507,0,3.507-3.433a2.968,2.968,0,0,0-.835-2.18,3.166,3.166,0,0,0-2.356-.844,3.39,3.39,0,0,0-2.162.724,2.208,2.208,0,0,0-.918,1.8H1.3a6.4,6.4,0,0,1,1.188-3.8A7.842,7.842,0,0,1,5.78-26.468a11.26,11.26,0,0,1,4.629-.937,11.064,11.064,0,0,1,7.088,2.06,6.847,6.847,0,0,1,2.579,5.659,5.707,5.707,0,0,1-1.067,3.293A7.6,7.6,0,0,1,15.9-13.879a7.263,7.263,0,0,1,3.377,2.366A6.23,6.23,0,0,1,20.5-7.589,6.971,6.971,0,0,1,17.72-1.8,11.553,11.553,0,0,1,10.409.371,11.981,11.981,0,0,1,5.483-.64a7.718,7.718,0,0,1-3.442-2.8A7.284,7.284,0,0,1,.872-7.515h6.29a2.815,2.815,0,0,0,1,2.152,3.537,3.537,0,0,0,2.468.909,3.705,3.705,0,0,0,2.635-.918,3.07,3.07,0,0,0,.983-2.347,3.589,3.589,0,0,0-1.021-2.895,4.266,4.266,0,0,0-2.82-.854H7.366Z" transform="translate(45.923 39.149)" fill="#12263f"/>
</svg>
